<?xml version="1.0" encoding="UTF-8" standalone="no"?>
<!DOCTYPE svg PUBLIC "-//W3C//DTD SVG 1.1//EN"
 "http://www.w3.org/Graphics/SVG/1.1/DTD/svg11.dtd">
<!-- Generated by graphviz version 3.0.0 (20221109.1736)
 -->
<!-- Title: TTL_import_export.h Pages: 1 -->
<svg width="380pt" height="151pt"
 viewBox="0.00 0.00 379.50 151.00" xmlns="http://www.w3.org/2000/svg" xmlns:xlink="http://www.w3.org/1999/xlink">
<g id="graph0" class="graph" transform="scale(1 1) rotate(0) translate(4 147)">
<title>TTL_import_export.h</title>
<polygon fill="white" stroke="transparent" points="-4,4 -4,-147 375.5,-147 375.5,4 -4,4"/>
<!-- Node1 -->
<g id="node1" class="node">
<title>Node1</title>
<g id="a_node1"><a xlink:title=" ">
<polygon fill="#bfbfbf" stroke="black" points="105.5,-123.5 105.5,-142.5 211.5,-142.5 211.5,-123.5 105.5,-123.5"/>
<text text-anchor="middle" x="158.5" y="-130.5" font-family="Helvetica,sans-Serif" font-size="10.00">TTL_import_export.h</text>
</a>
</g>
</g>
<!-- Node2 -->
<g id="node2" class="node">
<title>Node2</title>
<g id="a_node2"><a xlink:title=" ">
<polygon fill="white" stroke="#bfbfbf" points="0,-62 0,-81 51,-81 51,-62 0,-62"/>
<text text-anchor="middle" x="25.5" y="-69" font-family="Helvetica,sans-Serif" font-size="10.00">stddef.h</text>
</a>
</g>
</g>
<!-- Node1&#45;&gt;Node2 -->
<g id="edge1" class="edge">
<title>Node1&#45;&gt;Node2</title>
<path fill="none" stroke="midnightblue" d="M139.44,-123.48C117.03,-113.45 79.59,-96.7 53.79,-85.15"/>
<polygon fill="midnightblue" stroke="midnightblue" points="55.08,-81.9 44.52,-81.01 52.22,-88.29 55.08,-81.9"/>
</g>
<!-- Node3 -->
<g id="node3" class="node">
<title>Node3</title>
<g id="a_node3"><a xlink:title=" ">
<polygon fill="white" stroke="#bfbfbf" points="69.5,-62 69.5,-81 117.5,-81 117.5,-62 69.5,-62"/>
<text text-anchor="middle" x="93.5" y="-69" font-family="Helvetica,sans-Serif" font-size="10.00">stdint.h</text>
</a>
</g>
</g>
<!-- Node1&#45;&gt;Node3 -->
<g id="edge2" class="edge">
<title>Node1&#45;&gt;Node3</title>
<path fill="none" stroke="midnightblue" d="M149.19,-123.48C139.05,-114.2 122.64,-99.17 110.25,-87.83"/>
<polygon fill="midnightblue" stroke="midnightblue" points="112.54,-85.18 102.8,-81.01 107.81,-90.34 112.54,-85.18"/>
</g>
<!-- Node4 -->
<g id="node4" class="node">
<title>Node4</title>
<g id="a_node4"><a xlink:title=" ">
<polygon fill="white" stroke="#bfbfbf" points="136,-62 136,-81 181,-81 181,-62 136,-62"/>
<text text-anchor="middle" x="158.5" y="-69" font-family="Helvetica,sans-Serif" font-size="10.00">stdio.h</text>
</a>
</g>
</g>
<!-- Node1&#45;&gt;Node4 -->
<g id="edge3" class="edge">
<title>Node1&#45;&gt;Node4</title>
<path fill="none" stroke="midnightblue" d="M158.5,-123.48C158.5,-115.08 158.5,-101.98 158.5,-91.16"/>
<polygon fill="midnightblue" stroke="midnightblue" points="162,-91.01 158.5,-81.01 155,-91.01 162,-91.01"/>
</g>
<!-- Node5 -->
<g id="node5" class="node">
<title>Node5</title>
<g id="a_node5"><a xlink:title=" ">
<polygon fill="white" stroke="#bfbfbf" points="199.5,-62 199.5,-81 247.5,-81 247.5,-62 199.5,-62"/>
<text text-anchor="middle" x="223.5" y="-69" font-family="Helvetica,sans-Serif" font-size="10.00">string.h</text>
</a>
</g>
</g>
<!-- Node1&#45;&gt;Node5 -->
<g id="edge4" class="edge">
<title>Node1&#45;&gt;Node5</title>
<path fill="none" stroke="midnightblue" d="M167.81,-123.48C177.95,-114.2 194.36,-99.17 206.75,-87.83"/>
<polygon fill="midnightblue" stroke="midnightblue" points="209.19,-90.34 214.2,-81.01 204.46,-85.18 209.19,-90.34"/>
</g>
<!-- Node6 -->
<g id="node6" class="node">
<title>Node6</title>
<g id="a_node6"><a xlink:href="opencl_2TTL__import__export_8h.html" target="_top" xlink:title=" ">
<polygon fill="white" stroke="black" points="265.5,-56.5 265.5,-86.5 371.5,-86.5 371.5,-56.5 265.5,-56.5"/>
<text text-anchor="start" x="273.5" y="-74.5" font-family="Helvetica,sans-Serif" font-size="10.00">../opencl/TTL_import</text>
<text text-anchor="middle" x="318.5" y="-63.5" font-family="Helvetica,sans-Serif" font-size="10.00">_export.h</text>
</a>
</g>
</g>
<!-- Node1&#45;&gt;Node6 -->
<g id="edge5" class="edge">
<title>Node1&#45;&gt;Node6</title>
<path fill="none" stroke="midnightblue" d="M181.42,-123.48C204.71,-114.81 241.47,-101.15 271.06,-90.14"/>
<polygon fill="midnightblue" stroke="midnightblue" points="272.64,-93.29 280.79,-86.52 270.2,-86.73 272.64,-93.29"/>
</g>
<!-- Node7 -->
<g id="node7" class="node">
<title>Node7</title>
<g id="a_node7"><a xlink:href="TTL__macros_8h.html" target="_top" xlink:title=" ">
<polygon fill="white" stroke="black" points="275,-0.5 275,-19.5 362,-19.5 362,-0.5 275,-0.5"/>
<text text-anchor="middle" x="318.5" y="-7.5" font-family="Helvetica,sans-Serif" font-size="10.00">../TTL_macros.h</text>
</a>
</g>
</g>
<!-- Node6&#45;&gt;Node7 -->
<g id="edge6" class="edge">
<title>Node6&#45;&gt;Node7</title>
<path fill="none" stroke="midnightblue" d="M318.5,-56.4C318.5,-48.47 318.5,-38.46 318.5,-29.86"/>
<polygon fill="midnightblue" stroke="midnightblue" points="322,-29.66 318.5,-19.66 315,-29.66 322,-29.66"/>
</g>
</g>
</svg>
