<?xml version="1.0" encoding="UTF-8" standalone="no"?>
<!DOCTYPE svg PUBLIC "-//W3C//DTD SVG 1.1//EN"
 "http://www.w3.org/Graphics/SVG/1.1/DTD/svg11.dtd">
<!-- Generated by graphviz version 12.2.1 (20241206.2353)
 -->
<!-- Title: TTL_import_export.h Pages: 1 -->
<svg width="375pt" height="94pt"
 viewBox="0.00 0.00 374.88 93.75" xmlns="http://www.w3.org/2000/svg" xmlns:xlink="http://www.w3.org/1999/xlink">
<g id="graph0" class="graph" transform="scale(1 1) rotate(0) translate(4 89.75)">
<title>TTL_import_export.h</title>
<!-- Node1 -->
<g id="Node000001" class="node">
<title>Node1</title>
<g id="a_Node000001"><a xlink:title=" ">
<polygon fill="#999999" stroke="#666666" points="208.88,-85.75 103.62,-85.75 103.62,-66.5 208.88,-66.5 208.88,-85.75"/>
<text text-anchor="middle" x="156.25" y="-72.25" font-family="Helvetica,sans-Serif" font-size="10.00">TTL_import_export.h</text>
</a>
</g>
</g>
<!-- Node2 -->
<g id="Node000002" class="node">
<title>Node2</title>
<g id="a_Node000002"><a xlink:title=" ">
<polygon fill="#e0e0e0" stroke="#999999" points="50.5,-24.88 0,-24.88 0,-5.63 50.5,-5.63 50.5,-24.88"/>
<text text-anchor="middle" x="25.25" y="-11.38" font-family="Helvetica,sans-Serif" font-size="10.00">stddef.h</text>
</a>
</g>
</g>
<!-- Node1&#45;&gt;Node2 -->
<g id="edge1_Node000001_Node000002" class="edge">
<title>Node1&#45;&gt;Node2</title>
<g id="a_edge1_Node000001_Node000002"><a xlink:title=" ">
<path fill="none" stroke="#63b8ff" d="M136.07,-66.05C114.56,-56.39 80.27,-40.98 55.53,-29.86"/>
<polygon fill="#63b8ff" stroke="#63b8ff" points="57.18,-26.76 46.62,-25.85 54.31,-33.15 57.18,-26.76"/>
</a>
</g>
</g>
<!-- Node3 -->
<g id="Node000003" class="node">
<title>Node3</title>
<g id="a_Node000003"><a xlink:title=" ">
<polygon fill="#e0e0e0" stroke="#999999" points="116,-24.88 68.5,-24.88 68.5,-5.63 116,-5.63 116,-24.88"/>
<text text-anchor="middle" x="92.25" y="-11.38" font-family="Helvetica,sans-Serif" font-size="10.00">stdint.h</text>
</a>
</g>
</g>
<!-- Node1&#45;&gt;Node3 -->
<g id="edge2_Node000001_Node000003" class="edge">
<title>Node1&#45;&gt;Node3</title>
<g id="a_edge2_Node000001_Node000003"><a xlink:title=" ">
<path fill="none" stroke="#63b8ff" d="M146.53,-66.18C136.94,-57.37 122.06,-43.68 110.31,-32.86"/>
<polygon fill="#63b8ff" stroke="#63b8ff" points="112.9,-30.5 103.18,-26.3 108.17,-35.65 112.9,-30.5"/>
</a>
</g>
</g>
<!-- Node4 -->
<g id="Node000004" class="node">
<title>Node4</title>
<g id="a_Node000004"><a xlink:title=" ">
<polygon fill="#e0e0e0" stroke="#999999" points="178.5,-24.88 134,-24.88 134,-5.63 178.5,-5.63 178.5,-24.88"/>
<text text-anchor="middle" x="156.25" y="-11.38" font-family="Helvetica,sans-Serif" font-size="10.00">stdio.h</text>
</a>
</g>
</g>
<!-- Node1&#45;&gt;Node4 -->
<g id="edge3_Node000001_Node000004" class="edge">
<title>Node1&#45;&gt;Node4</title>
<g id="a_edge3_Node000001_Node000004"><a xlink:title=" ">
<path fill="none" stroke="#63b8ff" d="M156.25,-66.18C156.25,-58.4 156.25,-46.83 156.25,-36.78"/>
<polygon fill="#63b8ff" stroke="#63b8ff" points="159.75,-36.79 156.25,-26.79 152.75,-36.79 159.75,-36.79"/>
</a>
</g>
</g>
<!-- Node5 -->
<g id="Node000005" class="node">
<title>Node5</title>
<g id="a_Node000005"><a xlink:title=" ">
<polygon fill="#e0e0e0" stroke="#999999" points="244,-24.88 196.5,-24.88 196.5,-5.63 244,-5.63 244,-24.88"/>
<text text-anchor="middle" x="220.25" y="-11.38" font-family="Helvetica,sans-Serif" font-size="10.00">string.h</text>
</a>
</g>
</g>
<!-- Node1&#45;&gt;Node5 -->
<g id="edge4_Node000001_Node000005" class="edge">
<title>Node1&#45;&gt;Node5</title>
<g id="a_edge4_Node000001_Node000005"><a xlink:title=" ">
<path fill="none" stroke="#63b8ff" d="M165.97,-66.18C175.56,-57.37 190.44,-43.68 202.19,-32.86"/>
<polygon fill="#63b8ff" stroke="#63b8ff" points="204.33,-35.65 209.32,-26.3 199.6,-30.5 204.33,-35.65"/>
</a>
</g>
</g>
<!-- Node6 -->
<g id="Node000006" class="node">
<title>Node6</title>
<g id="a_Node000006"><a xlink:href="opencl_2TTL__import__export_8h.html" target="_top" xlink:title=" ">
<polygon fill="white" stroke="#666666" points="366.88,-30.5 261.62,-30.5 261.62,0 366.88,0 366.88,-30.5"/>
<text text-anchor="start" x="269.62" y="-17" font-family="Helvetica,sans-Serif" font-size="10.00">../opencl/TTL_import</text>
<text text-anchor="middle" x="314.25" y="-5.75" font-family="Helvetica,sans-Serif" font-size="10.00">_export.h</text>
</a>
</g>
</g>
<!-- Node1&#45;&gt;Node6 -->
<g id="edge5_Node000001_Node000006" class="edge">
<title>Node1&#45;&gt;Node6</title>
<g id="a_edge5_Node000001_Node000006"><a xlink:title=" ">
<path fill="none" stroke="#63b8ff" d="M180.59,-66.05C202.75,-57.8 236.17,-45.34 264.05,-34.96"/>
<polygon fill="#63b8ff" stroke="#63b8ff" points="265.25,-38.24 273.4,-31.47 262.8,-31.69 265.25,-38.24"/>
</a>
</g>
</g>
</g>
</svg>
