<?xml version="1.0" encoding="UTF-8" standalone="no"?>
<!DOCTYPE svg PUBLIC "-//W3C//DTD SVG 1.1//EN"
 "http://www.w3.org/Graphics/SVG/1.1/DTD/svg11.dtd">
<!-- Generated by graphviz version 12.2.1 (20241206.2353)
 -->
<!-- Title: preprocess.c Pages: 1 -->
<svg width="185pt" height="83pt"
 viewBox="0.00 0.00 185.25 82.50" xmlns="http://www.w3.org/2000/svg" xmlns:xlink="http://www.w3.org/1999/xlink">
<g id="graph0" class="graph" transform="scale(1 1) rotate(0) translate(4 78.5)">
<title>preprocess.c</title>
<!-- Node1 -->
<g id="Node000001" class="node">
<title>Node1</title>
<g id="a_Node000001"><a xlink:title=" ">
<polygon fill="#999999" stroke="#666666" points="123.5,-74.5 52,-74.5 52,-55.25 123.5,-55.25 123.5,-74.5"/>
<text text-anchor="middle" x="87.75" y="-61" font-family="Helvetica,sans-Serif" font-size="10.00">preprocess.c</text>
</a>
</g>
</g>
<!-- Node2 -->
<g id="Node000002" class="node">
<title>Node2</title>
<g id="a_Node000002"><a xlink:title=" ">
<polygon fill="#e0e0e0" stroke="#999999" points="47.5,-19.25 0,-19.25 0,0 47.5,0 47.5,-19.25"/>
<text text-anchor="middle" x="23.75" y="-5.75" font-family="Helvetica,sans-Serif" font-size="10.00">stdint.h</text>
</a>
</g>
</g>
<!-- Node1&#45;&gt;Node2 -->
<g id="edge1_Node000001_Node000002" class="edge">
<title>Node1&#45;&gt;Node2</title>
<g id="a_edge1_Node000001_Node000002"><a xlink:title=" ">
<path fill="none" stroke="#63b8ff" d="M76.89,-54.84C67.64,-47.15 54.13,-35.9 43.04,-26.68"/>
<polygon fill="#63b8ff" stroke="#63b8ff" points="45.54,-24.2 35.61,-20.49 41.06,-29.58 45.54,-24.2"/>
</a>
</g>
</g>
<!-- Node3 -->
<g id="Node000003" class="node">
<title>Node3</title>
<g id="a_Node000003"><a xlink:title=" ">
<polygon fill="#e0e0e0" stroke="#999999" points="110,-19.25 65.5,-19.25 65.5,0 110,0 110,-19.25"/>
<text text-anchor="middle" x="87.75" y="-5.75" font-family="Helvetica,sans-Serif" font-size="10.00">stdio.h</text>
</a>
</g>
</g>
<!-- Node1&#45;&gt;Node3 -->
<g id="edge2_Node000001_Node000003" class="edge">
<title>Node1&#45;&gt;Node3</title>
<g id="a_edge2_Node000001_Node000003"><a xlink:title=" ">
<path fill="none" stroke="#63b8ff" d="M87.75,-55.08C87.75,-48.57 87.75,-39.42 87.75,-31.12"/>
<polygon fill="#63b8ff" stroke="#63b8ff" points="91.25,-31.12 87.75,-21.12 84.25,-31.12 91.25,-31.12"/>
</a>
</g>
</g>
<!-- Node4 -->
<g id="Node000004" class="node">
<title>Node4</title>
<g id="a_Node000004"><a xlink:href="TTL_8h.html" target="_top" xlink:title=" ">
<polygon fill="white" stroke="#666666" points="177.25,-19.25 128.25,-19.25 128.25,0 177.25,0 177.25,-19.25"/>
<text text-anchor="middle" x="152.75" y="-5.75" font-family="Helvetica,sans-Serif" font-size="10.00">../TTL.h</text>
</a>
</g>
</g>
<!-- Node1&#45;&gt;Node4 -->
<g id="edge3_Node000001_Node000004" class="edge">
<title>Node1&#45;&gt;Node4</title>
<g id="a_edge3_Node000001_Node000004"><a xlink:title=" ">
<path fill="none" stroke="#63b8ff" d="M98.78,-54.84C108.17,-47.15 121.9,-35.9 133.16,-26.68"/>
<polygon fill="#63b8ff" stroke="#63b8ff" points="135.2,-29.53 140.72,-20.48 130.76,-24.11 135.2,-29.53"/>
</a>
</g>
</g>
</g>
</svg>
