<?xml version="1.0" encoding="UTF-8" standalone="no"?>
<!DOCTYPE svg PUBLIC "-//W3C//DTD SVG 1.1//EN"
 "http://www.w3.org/Graphics/SVG/1.1/DTD/svg11.dtd">
<!-- Generated by graphviz version 12.0.0 (20240704.0754)
 -->
<!-- Title: TTL_int_ushort_sub_tensor_t Pages: 1 -->
<svg width="278pt" height="321pt"
 viewBox="0.00 0.00 277.50 320.50" xmlns="http://www.w3.org/2000/svg" xmlns:xlink="http://www.w3.org/1999/xlink">
<g id="graph0" class="graph" transform="scale(1 1) rotate(0) translate(4 316.5)">
<title>TTL_int_ushort_sub_tensor_t</title>
<!-- Node1 -->
<g id="Node000001" class="node">
<title>Node1</title>
<g id="a_Node000001"><a xlink:title="const and non&#45;const sub tensors in the appropriate address space">
<polygon fill="#999999" stroke="none" points="200.5,-60 103.5,-60 103.5,0 200.5,0 200.5,-60"/>
<text text-anchor="start" x="108.5" y="-46.5" font-family="Helvetica,sans-Serif" font-size="10.00">TTL_int_ushort_sub</text>
<text text-anchor="start" x="131.75" y="-35.25" font-family="Helvetica,sans-Serif" font-size="10.00">_tensor_t</text>
<text text-anchor="start" x="121.5" y="-20.5" font-family="Helvetica,sans-Serif" font-size="10.00">+</text>
<text text-anchor="start" x="145.5" y="-20.5" font-family="Helvetica,sans-Serif" font-size="10.00">origin</text>
<text text-anchor="start" x="150.5" y="-5.5" font-family="Helvetica,sans-Serif" font-size="10.00"> </text>
<polygon fill="#666666" stroke="#666666" points="103.5,-32 103.5,-32 200.5,-32 200.5,-32 103.5,-32"/>
<polygon fill="#666666" stroke="#666666" points="103.5,-17 103.5,-17 143.5,-17 143.5,-17 103.5,-17"/>
<polygon fill="#666666" stroke="#666666" points="143.5,-17 143.5,-17 200.5,-17 200.5,-17 143.5,-17"/>
<polygon fill="none" stroke="#666666" points="103.5,0 103.5,-60 200.5,-60 200.5,0 103.5,0"/>
</a>
</g>
</g>
<!-- Node2 -->
<g id="Node000002" class="node">
<title>Node2</title>
<g id="a_Node000002"><a xlink:href="structTTL__int__ushort__tensor__t.html" target="_top" xlink:title="const and non&#45;const tensors in the appropriate address space">
<polygon fill="white" stroke="none" points="116,-178.75 0,-178.75 0,-114.75 116,-114.75 116,-178.75"/>
<text text-anchor="start" x="4.75" y="-165.25" font-family="Helvetica,sans-Serif" font-size="10.00">TTL_int_ushort_tensor_t</text>
<text text-anchor="start" x="17.5" y="-150.25" font-family="Helvetica,sans-Serif" font-size="10.00">+</text>
<text text-anchor="start" x="41" y="-150.25" font-family="Helvetica,sans-Serif" font-size="10.00">base</text>
<text text-anchor="start" x="17.5" y="-135.25" font-family="Helvetica,sans-Serif" font-size="10.00">+</text>
<text text-anchor="start" x="41" y="-135.25" font-family="Helvetica,sans-Serif" font-size="10.00">elem_size</text>
<text text-anchor="start" x="56.5" y="-120.25" font-family="Helvetica,sans-Serif" font-size="10.00"> </text>
<polygon fill="#666666" stroke="#666666" points="0,-161.75 0,-161.75 116,-161.75 116,-161.75 0,-161.75"/>
<polygon fill="#666666" stroke="#666666" points="0,-131.75 0,-131.75 39,-131.75 39,-131.75 0,-131.75"/>
<polygon fill="#666666" stroke="#666666" points="39,-131.75 39,-131.75 116,-131.75 116,-131.75 39,-131.75"/>
<polygon fill="none" stroke="#666666" points="0,-114.75 0,-178.75 116,-178.75 116,-114.75 0,-114.75"/>
</a>
</g>
</g>
<!-- Node2&#45;&gt;Node1 -->
<g id="edge1_Node000001_Node000002" class="edge">
<title>Node2&#45;&gt;Node1</title>
<g id="a_edge1_Node000001_Node000002"><a xlink:title=" ">
<path fill="none" stroke="#63b8ff" d="M76.22,-115.04C83.85,-103.05 93.17,-89.46 102.75,-78 105.25,-75.01 107.92,-72.02 110.67,-69.06"/>
<polygon fill="none" stroke="#63b8ff" points="110.66,-69.07 111.99,-61.99 119.04,-60.48 117.71,-67.57 110.66,-69.07"/>
</a>
</g>
<text text-anchor="middle" x="120.62" y="-79.75" font-family="Helvetica,sans-Serif" font-size="10.00" fill="grey"> +tensor</text>
</g>
<!-- Node3 -->
<g id="Node000003" class="node">
<title>Node3</title>
<g id="a_Node000003"><a xlink:href="structTTL__layout__t.html" target="_top" xlink:title="Description of a Tensor layout in memory.">
<polygon fill="white" stroke="none" points="85,-305 5,-305 5,-241 85,-241 85,-305"/>
<text text-anchor="start" x="16.5" y="-291.5" font-family="Helvetica,sans-Serif" font-size="10.00">TTL_layout_t</text>
<text text-anchor="start" x="9" y="-276.5" font-family="Helvetica,sans-Serif" font-size="10.00">+</text>
<text text-anchor="start" x="19" y="-276.5" font-family="Helvetica,sans-Serif" font-size="10.00">row_spacing</text>
<text text-anchor="start" x="9" y="-261.5" font-family="Helvetica,sans-Serif" font-size="10.00">+</text>
<text text-anchor="start" x="19" y="-261.5" font-family="Helvetica,sans-Serif" font-size="10.00">plane_spacing</text>
<text text-anchor="start" x="43.5" y="-246.5" font-family="Helvetica,sans-Serif" font-size="10.00"> </text>
<polygon fill="#666666" stroke="#666666" points="5,-288 5,-288 85,-288 85,-288 5,-288"/>
<polygon fill="#666666" stroke="#666666" points="5,-258 5,-258 17,-258 17,-258 5,-258"/>
<polygon fill="#666666" stroke="#666666" points="17,-258 17,-258 85,-258 85,-258 17,-258"/>
<polygon fill="none" stroke="#666666" points="5,-241 5,-305 85,-305 85,-241 5,-241"/>
</a>
</g>
</g>
<!-- Node3&#45;&gt;Node2 -->
<g id="edge2_Node000002_Node000003" class="edge">
<title>Node3&#45;&gt;Node2</title>
<g id="a_edge2_Node000002_Node000003"><a xlink:title=" ">
<path fill="none" stroke="#63b8ff" d="M44.36,-241.23C44.43,-229.61 44.9,-216.29 46.25,-204.25 46.72,-200.07 47.35,-195.74 48.08,-191.42"/>
<polygon fill="none" stroke="#63b8ff" points="48.09,-191.34 45.28,-184.71 50.32,-179.55 53.14,-186.19 48.09,-191.34"/>
</a>
</g>
<text text-anchor="middle" x="63.88" y="-206" font-family="Helvetica,sans-Serif" font-size="10.00" fill="grey"> +layout</text>
</g>
<!-- Node4 -->
<g id="Node000004" class="node">
<title>Node4</title>
<g id="a_Node000004"><a xlink:href="structTTL__shape__t.html" target="_top" xlink:title="Description of a Shape.">
<polygon fill="white" stroke="none" points="177.5,-312.5 110.5,-312.5 110.5,-233.5 177.5,-233.5 177.5,-312.5"/>
<text text-anchor="start" x="115.12" y="-299" font-family="Helvetica,sans-Serif" font-size="10.00">TTL_shape_t</text>
<text text-anchor="start" x="120" y="-284" font-family="Helvetica,sans-Serif" font-size="10.00">+</text>
<text text-anchor="start" x="135.5" y="-284" font-family="Helvetica,sans-Serif" font-size="10.00">width</text>
<text text-anchor="start" x="120" y="-269" font-family="Helvetica,sans-Serif" font-size="10.00">+</text>
<text text-anchor="start" x="135.5" y="-269" font-family="Helvetica,sans-Serif" font-size="10.00">height</text>
<text text-anchor="start" x="120" y="-254" font-family="Helvetica,sans-Serif" font-size="10.00">+</text>
<text text-anchor="start" x="135.5" y="-254" font-family="Helvetica,sans-Serif" font-size="10.00">depth</text>
<text text-anchor="start" x="142.5" y="-239" font-family="Helvetica,sans-Serif" font-size="10.00"> </text>
<polygon fill="#666666" stroke="#666666" points="110.5,-295.5 110.5,-295.5 177.5,-295.5 177.5,-295.5 110.5,-295.5"/>
<polygon fill="#666666" stroke="#666666" points="110.5,-250.5 110.5,-250.5 133.5,-250.5 133.5,-250.5 110.5,-250.5"/>
<polygon fill="#666666" stroke="#666666" points="133.5,-250.5 133.5,-250.5 177.5,-250.5 177.5,-250.5 133.5,-250.5"/>
<polygon fill="none" stroke="#666666" points="110.5,-233.5 110.5,-312.5 177.5,-312.5 177.5,-233.5 110.5,-233.5"/>
</a>
</g>
</g>
<!-- Node4&#45;&gt;Node1 -->
<g id="edge4_Node000001_Node000004" class="edge">
<title>Node4&#45;&gt;Node1</title>
<g id="a_edge4_Node000001_Node000004"><a xlink:title=" ">
<path fill="none" stroke="#63b8ff" d="M145.28,-233.55C146.73,-189.61 149.11,-117.97 150.62,-72.72"/>
<polygon fill="none" stroke="#63b8ff" points="150.61,-72.76 146.82,-66.63 151.01,-60.76 154.81,-66.89 150.61,-72.76"/>
</a>
</g>
<text text-anchor="middle" x="167.25" y="-142.88" font-family="Helvetica,sans-Serif" font-size="10.00" fill="grey"> +shape</text>
</g>
<!-- Node4&#45;&gt;Node2 -->
<g id="edge3_Node000002_Node000004" class="edge">
<title>Node4&#45;&gt;Node2</title>
<g id="a_edge3_Node000002_Node000004"><a xlink:title=" ">
<path fill="none" stroke="#63b8ff" d="M116.17,-233.51C111.9,-227.5 107.56,-221.35 103.5,-215.5 97.65,-207.07 91.47,-197.99 85.61,-189.3"/>
<polygon fill="none" stroke="#63b8ff" points="85.6,-189.29 78.94,-186.53 78.92,-179.32 85.58,-182.08 85.6,-189.29"/>
</a>
</g>
<text text-anchor="middle" x="121.25" y="-206" font-family="Helvetica,sans-Serif" font-size="10.00" fill="grey"> +shape</text>
</g>
<!-- Node5 -->
<g id="Node000005" class="node">
<title>Node5</title>
<g id="a_Node000005"><a xlink:href="structTTL__offset__t.html" target="_top" xlink:title="Description of the 3D offset of an object.">
<polygon fill="white" stroke="none" points="269.5,-186.25 204.5,-186.25 204.5,-107.25 269.5,-107.25 269.5,-186.25"/>
<text text-anchor="start" x="209.25" y="-172.75" font-family="Helvetica,sans-Serif" font-size="10.00">TTL_offset_t</text>
<text text-anchor="start" x="219" y="-157.75" font-family="Helvetica,sans-Serif" font-size="10.00">+</text>
<text text-anchor="start" x="239.5" y="-157.75" font-family="Helvetica,sans-Serif" font-size="10.00">x</text>
<text text-anchor="start" x="219" y="-142.75" font-family="Helvetica,sans-Serif" font-size="10.00">+</text>
<text text-anchor="start" x="239.5" y="-142.75" font-family="Helvetica,sans-Serif" font-size="10.00">y</text>
<text text-anchor="start" x="219" y="-127.75" font-family="Helvetica,sans-Serif" font-size="10.00">+</text>
<text text-anchor="start" x="239.5" y="-127.75" font-family="Helvetica,sans-Serif" font-size="10.00">z</text>
<text text-anchor="start" x="235.5" y="-112.75" font-family="Helvetica,sans-Serif" font-size="10.00"> </text>
<polygon fill="#666666" stroke="#666666" points="204.5,-169.25 204.5,-169.25 269.5,-169.25 269.5,-169.25 204.5,-169.25"/>
<polygon fill="#666666" stroke="#666666" points="204.5,-124.25 204.5,-124.25 237.5,-124.25 237.5,-124.25 204.5,-124.25"/>
<polygon fill="#666666" stroke="#666666" points="237.5,-124.25 237.5,-124.25 269.5,-124.25 269.5,-124.25 237.5,-124.25"/>
<polygon fill="none" stroke="#666666" points="204.5,-107.25 204.5,-186.25 269.5,-186.25 269.5,-107.25 204.5,-107.25"/>
</a>
</g>
</g>
<!-- Node5&#45;&gt;Node1 -->
<g id="edge5_Node000001_Node000005" class="edge">
<title>Node5&#45;&gt;Node1</title>
<g id="a_edge5_Node000001_Node000005"><a xlink:title=" ">
<path fill="none" stroke="#63b8ff" d="M208.7,-107.54C199.81,-95.54 189.98,-82.27 181.04,-70.2"/>
<polygon fill="none" stroke="#63b8ff" points="181.14,-70.33 174.35,-67.89 173.99,-60.69 180.78,-63.13 181.14,-70.33"/>
</a>
</g>
<text text-anchor="middle" x="220.62" y="-79.75" font-family="Helvetica,sans-Serif" font-size="10.00" fill="grey"> +sub_offset</text>
</g>
</g>
</svg>
