<?xml version="1.0" encoding="UTF-8" standalone="no"?>
<!DOCTYPE svg PUBLIC "-//W3C//DTD SVG 1.1//EN"
 "http://www.w3.org/Graphics/SVG/1.1/DTD/svg11.dtd">
<!-- Generated by graphviz version 12.0.0 (20240704.0754)
 -->
<!-- Title: TTL_io_uint_tensor_t Pages: 1 -->
<svg width="273pt" height="417pt"
 viewBox="0.00 0.00 272.50 417.00" xmlns="http://www.w3.org/2000/svg" xmlns:xlink="http://www.w3.org/1999/xlink">
<g id="graph0" class="graph" transform="scale(1 1) rotate(0) translate(4 413)">
<title>TTL_io_uint_tensor_t</title>
<!-- Node1 -->
<g id="Node000001" class="node">
<title>Node1</title>
<g id="a_Node000001"><a xlink:title="Describes a pair of internal Tensors after an operation.">
<polygon fill="#999999" stroke="none" points="198,-49 96,-49 96,0 198,0 198,-49"/>
<text text-anchor="start" x="100.88" y="-35.5" font-family="Helvetica,sans-Serif" font-size="10.00">TTL_io_uint_tensor_t</text>
<text text-anchor="start" x="145.5" y="-20.5" font-family="Helvetica,sans-Serif" font-size="10.00"> </text>
<text text-anchor="start" x="145.5" y="-5.5" font-family="Helvetica,sans-Serif" font-size="10.00"> </text>
<polygon fill="#666666" stroke="#666666" points="96,-32 96,-32 198,-32 198,-32 96,-32"/>
<polygon fill="#666666" stroke="#666666" points="96,-17 96,-17 198,-17 198,-17 96,-17"/>
<polygon fill="none" stroke="#666666" points="96,0 96,-49 198,-49 198,0 96,0"/>
</a>
</g>
</g>
<!-- Node2 -->
<g id="Node000002" class="node">
<title>Node2</title>
<g id="a_Node000002"><a xlink:href="structTTL__int__uint__sub__tensor__t.html" target="_top" xlink:title="const and non&#45;const sub tensors in the appropriate address space">
<polygon fill="white" stroke="none" points="210,-156.5 84,-156.5 84,-107.5 210,-107.5 210,-156.5"/>
<text text-anchor="start" x="88.88" y="-143" font-family="Helvetica,sans-Serif" font-size="10.00">TTL_int_uint_sub_tensor_t</text>
<text text-anchor="start" x="109" y="-128" font-family="Helvetica,sans-Serif" font-size="10.00">+</text>
<text text-anchor="start" x="140" y="-128" font-family="Helvetica,sans-Serif" font-size="10.00">origin</text>
<text text-anchor="start" x="145.5" y="-113" font-family="Helvetica,sans-Serif" font-size="10.00"> </text>
<polygon fill="#666666" stroke="#666666" points="84,-139.5 84,-139.5 210,-139.5 210,-139.5 84,-139.5"/>
<polygon fill="#666666" stroke="#666666" points="84,-124.5 84,-124.5 138,-124.5 138,-124.5 84,-124.5"/>
<polygon fill="#666666" stroke="#666666" points="138,-124.5 138,-124.5 210,-124.5 210,-124.5 138,-124.5"/>
<polygon fill="none" stroke="#666666" points="84,-107.5 84,-156.5 210,-156.5 210,-107.5 84,-107.5"/>
</a>
</g>
</g>
<!-- Node2&#45;&gt;Node1 -->
<g id="edge1_Node000001_Node000002" class="edge">
<title>Node2&#45;&gt;Node1</title>
<g id="a_edge1_Node000001_Node000002"><a xlink:title=" ">
<path fill="none" stroke="#63b8ff" d="M147,-107.59C147,-94.06 147,-76.77 147,-61.55"/>
<polygon fill="none" stroke="#63b8ff" points="147,-61.75 143,-55.75 147,-49.75 151,-55.75 147,-61.75"/>
</a>
</g>
<text text-anchor="middle" x="182.25" y="-80" font-family="Helvetica,sans-Serif" font-size="10.00" fill="grey"> +imported_to</text>
<text text-anchor="middle" x="182.25" y="-68.75" font-family="Helvetica,sans-Serif" font-size="10.00" fill="grey">+to_export_from</text>
</g>
<!-- Node3 -->
<g id="Node000003" class="node">
<title>Node3</title>
<g id="a_Node000003"><a xlink:href="structTTL__int__uint__tensor__t.html" target="_top" xlink:title="const and non&#45;const tensors in the appropriate address space">
<polygon fill="white" stroke="none" points="110.5,-275.25 5.5,-275.25 5.5,-211.25 110.5,-211.25 110.5,-275.25"/>
<text text-anchor="start" x="10.38" y="-261.75" font-family="Helvetica,sans-Serif" font-size="10.00">TTL_int_uint_tensor_t</text>
<text text-anchor="start" x="20.5" y="-246.75" font-family="Helvetica,sans-Serif" font-size="10.00">+</text>
<text text-anchor="start" x="41.5" y="-246.75" font-family="Helvetica,sans-Serif" font-size="10.00">base</text>
<text text-anchor="start" x="20.5" y="-231.75" font-family="Helvetica,sans-Serif" font-size="10.00">+</text>
<text text-anchor="start" x="41.5" y="-231.75" font-family="Helvetica,sans-Serif" font-size="10.00">elem_size</text>
<text text-anchor="start" x="56.5" y="-216.75" font-family="Helvetica,sans-Serif" font-size="10.00"> </text>
<polygon fill="#666666" stroke="#666666" points="5.5,-258.25 5.5,-258.25 110.5,-258.25 110.5,-258.25 5.5,-258.25"/>
<polygon fill="#666666" stroke="#666666" points="5.5,-228.25 5.5,-228.25 39.5,-228.25 39.5,-228.25 5.5,-228.25"/>
<polygon fill="#666666" stroke="#666666" points="39.5,-228.25 39.5,-228.25 110.5,-228.25 110.5,-228.25 39.5,-228.25"/>
<polygon fill="none" stroke="#666666" points="5.5,-211.25 5.5,-275.25 110.5,-275.25 110.5,-211.25 5.5,-211.25"/>
</a>
</g>
</g>
<!-- Node3&#45;&gt;Node2 -->
<g id="edge2_Node000002_Node000003" class="edge">
<title>Node3&#45;&gt;Node2</title>
<g id="a_edge2_Node000002_Node000003"><a xlink:title=" ">
<path fill="none" stroke="#63b8ff" d="M73.16,-211.45C79.86,-199.32 88.34,-185.65 97.75,-174.5 100.45,-171.29 103.42,-168.14 106.52,-165.08"/>
<polygon fill="none" stroke="#63b8ff" points="106.58,-165.03 108.28,-158.02 115.4,-156.9 113.7,-163.91 106.58,-165.03"/>
</a>
</g>
<text text-anchor="middle" x="115.62" y="-176.25" font-family="Helvetica,sans-Serif" font-size="10.00" fill="grey"> +tensor</text>
</g>
<!-- Node4 -->
<g id="Node000004" class="node">
<title>Node4</title>
<g id="a_Node000004"><a xlink:href="structTTL__layout__t.html" target="_top" xlink:title="Description of a Tensor layout in memory.">
<polygon fill="white" stroke="none" points="80,-401.5 0,-401.5 0,-337.5 80,-337.5 80,-401.5"/>
<text text-anchor="start" x="11.5" y="-388" font-family="Helvetica,sans-Serif" font-size="10.00">TTL_layout_t</text>
<text text-anchor="start" x="4" y="-373" font-family="Helvetica,sans-Serif" font-size="10.00">+</text>
<text text-anchor="start" x="14" y="-373" font-family="Helvetica,sans-Serif" font-size="10.00">row_spacing</text>
<text text-anchor="start" x="4" y="-358" font-family="Helvetica,sans-Serif" font-size="10.00">+</text>
<text text-anchor="start" x="14" y="-358" font-family="Helvetica,sans-Serif" font-size="10.00">plane_spacing</text>
<text text-anchor="start" x="38.5" y="-343" font-family="Helvetica,sans-Serif" font-size="10.00"> </text>
<polygon fill="#666666" stroke="#666666" points="0,-384.5 0,-384.5 80,-384.5 80,-384.5 0,-384.5"/>
<polygon fill="#666666" stroke="#666666" points="0,-354.5 0,-354.5 12,-354.5 12,-354.5 0,-354.5"/>
<polygon fill="#666666" stroke="#666666" points="12,-354.5 12,-354.5 80,-354.5 80,-354.5 12,-354.5"/>
<polygon fill="none" stroke="#666666" points="0,-337.5 0,-401.5 80,-401.5 80,-337.5 0,-337.5"/>
</a>
</g>
</g>
<!-- Node4&#45;&gt;Node3 -->
<g id="edge3_Node000003_Node000004" class="edge">
<title>Node4&#45;&gt;Node3</title>
<g id="a_edge3_Node000003_Node000004"><a xlink:title=" ">
<path fill="none" stroke="#63b8ff" d="M38.82,-337.66C38.84,-326.03 39.4,-312.72 41.25,-300.75 41.93,-296.37 42.85,-291.86 43.93,-287.38"/>
<polygon fill="none" stroke="#63b8ff" points="43.91,-287.45 41.6,-280.62 47.02,-275.86 49.33,-282.69 43.91,-287.45"/>
</a>
</g>
<text text-anchor="middle" x="58.88" y="-302.5" font-family="Helvetica,sans-Serif" font-size="10.00" fill="grey"> +layout</text>
</g>
<!-- Node5 -->
<g id="Node000005" class="node">
<title>Node5</title>
<g id="a_Node000005"><a xlink:href="structTTL__shape__t.html" target="_top" xlink:title="Description of a Shape.">
<polygon fill="white" stroke="none" points="172.5,-409 105.5,-409 105.5,-330 172.5,-330 172.5,-409"/>
<text text-anchor="start" x="110.12" y="-395.5" font-family="Helvetica,sans-Serif" font-size="10.00">TTL_shape_t</text>
<text text-anchor="start" x="115" y="-380.5" font-family="Helvetica,sans-Serif" font-size="10.00">+</text>
<text text-anchor="start" x="130.5" y="-380.5" font-family="Helvetica,sans-Serif" font-size="10.00">width</text>
<text text-anchor="start" x="115" y="-365.5" font-family="Helvetica,sans-Serif" font-size="10.00">+</text>
<text text-anchor="start" x="130.5" y="-365.5" font-family="Helvetica,sans-Serif" font-size="10.00">height</text>
<text text-anchor="start" x="115" y="-350.5" font-family="Helvetica,sans-Serif" font-size="10.00">+</text>
<text text-anchor="start" x="130.5" y="-350.5" font-family="Helvetica,sans-Serif" font-size="10.00">depth</text>
<text text-anchor="start" x="137.5" y="-335.5" font-family="Helvetica,sans-Serif" font-size="10.00"> </text>
<polygon fill="#666666" stroke="#666666" points="105.5,-392 105.5,-392 172.5,-392 172.5,-392 105.5,-392"/>
<polygon fill="#666666" stroke="#666666" points="105.5,-347 105.5,-347 128.5,-347 128.5,-347 105.5,-347"/>
<polygon fill="#666666" stroke="#666666" points="128.5,-347 128.5,-347 172.5,-347 172.5,-347 128.5,-347"/>
<polygon fill="none" stroke="#666666" points="105.5,-330 105.5,-409 172.5,-409 172.5,-330 105.5,-330"/>
</a>
</g>
</g>
<!-- Node5&#45;&gt;Node2 -->
<g id="edge5_Node000002_Node000005" class="edge">
<title>Node5&#45;&gt;Node2</title>
<g id="a_edge5_Node000002_Node000005"><a xlink:title=" ">
<path fill="none" stroke="#63b8ff" d="M140.3,-330.14C141.82,-285.59 144.29,-212.65 145.77,-169.09"/>
<polygon fill="none" stroke="#63b8ff" points="145.77,-169.21 141.98,-163.08 146.18,-157.22 149.97,-163.35 145.77,-169.21"/>
</a>
</g>
<text text-anchor="middle" x="162.25" y="-239.38" font-family="Helvetica,sans-Serif" font-size="10.00" fill="grey"> +shape</text>
</g>
<!-- Node5&#45;&gt;Node3 -->
<g id="edge4_Node000003_Node000005" class="edge">
<title>Node5&#45;&gt;Node3</title>
<g id="a_edge4_Node000003_Node000005"><a xlink:title=" ">
<path fill="none" stroke="#63b8ff" d="M110.9,-330.2C106.66,-324.17 102.4,-317.95 98.5,-312 93.07,-303.71 87.47,-294.7 82.24,-286.04"/>
<polygon fill="none" stroke="#63b8ff" points="82.23,-286.01 75.72,-282.91 76.08,-275.71 82.59,-278.81 82.23,-286.01"/>
</a>
</g>
<text text-anchor="middle" x="116.25" y="-302.5" font-family="Helvetica,sans-Serif" font-size="10.00" fill="grey"> +shape</text>
</g>
<!-- Node6 -->
<g id="Node000006" class="node">
<title>Node6</title>
<g id="a_Node000006"><a xlink:href="structTTL__offset__t.html" target="_top" xlink:title="Description of the 3D offset of an object.">
<polygon fill="white" stroke="none" points="264.5,-282.75 199.5,-282.75 199.5,-203.75 264.5,-203.75 264.5,-282.75"/>
<text text-anchor="start" x="204.25" y="-269.25" font-family="Helvetica,sans-Serif" font-size="10.00">TTL_offset_t</text>
<text text-anchor="start" x="214" y="-254.25" font-family="Helvetica,sans-Serif" font-size="10.00">+</text>
<text text-anchor="start" x="234.5" y="-254.25" font-family="Helvetica,sans-Serif" font-size="10.00">x</text>
<text text-anchor="start" x="214" y="-239.25" font-family="Helvetica,sans-Serif" font-size="10.00">+</text>
<text text-anchor="start" x="234.5" y="-239.25" font-family="Helvetica,sans-Serif" font-size="10.00">y</text>
<text text-anchor="start" x="214" y="-224.25" font-family="Helvetica,sans-Serif" font-size="10.00">+</text>
<text text-anchor="start" x="234.5" y="-224.25" font-family="Helvetica,sans-Serif" font-size="10.00">z</text>
<text text-anchor="start" x="230.5" y="-209.25" font-family="Helvetica,sans-Serif" font-size="10.00"> </text>
<polygon fill="#666666" stroke="#666666" points="199.5,-265.75 199.5,-265.75 264.5,-265.75 264.5,-265.75 199.5,-265.75"/>
<polygon fill="#666666" stroke="#666666" points="199.5,-220.75 199.5,-220.75 232.5,-220.75 232.5,-220.75 199.5,-220.75"/>
<polygon fill="#666666" stroke="#666666" points="232.5,-220.75 232.5,-220.75 264.5,-220.75 264.5,-220.75 232.5,-220.75"/>
<polygon fill="none" stroke="#666666" points="199.5,-203.75 199.5,-282.75 264.5,-282.75 264.5,-203.75 199.5,-203.75"/>
</a>
</g>
</g>
<!-- Node6&#45;&gt;Node2 -->
<g id="edge6_Node000002_Node000006" class="edge">
<title>Node6&#45;&gt;Node2</title>
<g id="a_edge6_Node000002_Node000006"><a xlink:title=" ">
<path fill="none" stroke="#63b8ff" d="M202.27,-204.04C192.72,-191.76 182.22,-178.26 172.96,-166.36"/>
<polygon fill="none" stroke="#63b8ff" points="173.11,-166.56 166.27,-164.29 165.75,-157.09 172.59,-159.37 173.11,-166.56"/>
</a>
</g>
<text text-anchor="middle" x="212.62" y="-176.25" font-family="Helvetica,sans-Serif" font-size="10.00" fill="grey"> +sub_offset</text>
</g>
</g>
</svg>
