<?xml version="1.0" encoding="UTF-8" standalone="no"?>
<!DOCTYPE svg PUBLIC "-//W3C//DTD SVG 1.1//EN"
 "http://www.w3.org/Graphics/SVG/1.1/DTD/svg11.dtd">
<!-- Generated by graphviz version 12.0.0 (20240704.0754)
 -->
<!-- Title: TTL_const_int_short_tensor_t Pages: 1 -->
<svg width="174pt" height="209pt"
 viewBox="0.00 0.00 173.50 209.25" xmlns="http://www.w3.org/2000/svg" xmlns:xlink="http://www.w3.org/1999/xlink">
<g id="graph0" class="graph" transform="scale(1 1) rotate(0) translate(4 205.25)">
<title>TTL_const_int_short_tensor_t</title>
<!-- Node1 -->
<g id="Node000001" class="node">
<title>Node1</title>
<g id="a_Node000001"><a xlink:title=" ">
<polygon fill="#999999" stroke="none" points="136,-75 36,-75 36,0 136,0 136,-75"/>
<text text-anchor="start" x="41" y="-61.5" font-family="Helvetica,sans-Serif" font-size="10.00">TTL_const_int_short</text>
<text text-anchor="start" x="65.75" y="-50.25" font-family="Helvetica,sans-Serif" font-size="10.00">_tensor_t</text>
<text text-anchor="start" x="49.5" y="-35.5" font-family="Helvetica,sans-Serif" font-size="10.00">+</text>
<text text-anchor="start" x="69" y="-35.5" font-family="Helvetica,sans-Serif" font-size="10.00">base</text>
<text text-anchor="start" x="49.5" y="-20.5" font-family="Helvetica,sans-Serif" font-size="10.00">+</text>
<text text-anchor="start" x="69" y="-20.5" font-family="Helvetica,sans-Serif" font-size="10.00">elem_size</text>
<text text-anchor="start" x="84.5" y="-5.5" font-family="Helvetica,sans-Serif" font-size="10.00"> </text>
<polygon fill="#666666" stroke="#666666" points="36,-47 36,-47 136,-47 136,-47 36,-47"/>
<polygon fill="#666666" stroke="#666666" points="36,-17 36,-17 67,-17 67,-17 36,-17"/>
<polygon fill="#666666" stroke="#666666" points="67,-17 67,-17 136,-17 136,-17 67,-17"/>
<polygon fill="none" stroke="#666666" points="36,0 36,-75 136,-75 136,0 36,0"/>
</a>
</g>
</g>
<!-- Node2 -->
<g id="Node000002" class="node">
<title>Node2</title>
<g id="a_Node000002"><a xlink:href="structTTL__layout__t.html" target="_top" xlink:title="Description of a Tensor layout in memory.">
<polygon fill="white" stroke="none" points="80,-193.75 0,-193.75 0,-129.75 80,-129.75 80,-193.75"/>
<text text-anchor="start" x="11.5" y="-180.25" font-family="Helvetica,sans-Serif" font-size="10.00">TTL_layout_t</text>
<text text-anchor="start" x="4" y="-165.25" font-family="Helvetica,sans-Serif" font-size="10.00">+</text>
<text text-anchor="start" x="14" y="-165.25" font-family="Helvetica,sans-Serif" font-size="10.00">row_spacing</text>
<text text-anchor="start" x="4" y="-150.25" font-family="Helvetica,sans-Serif" font-size="10.00">+</text>
<text text-anchor="start" x="14" y="-150.25" font-family="Helvetica,sans-Serif" font-size="10.00">plane_spacing</text>
<text text-anchor="start" x="38.5" y="-135.25" font-family="Helvetica,sans-Serif" font-size="10.00"> </text>
<polygon fill="#666666" stroke="#666666" points="0,-176.75 0,-176.75 80,-176.75 80,-176.75 0,-176.75"/>
<polygon fill="#666666" stroke="#666666" points="0,-146.75 0,-146.75 12,-146.75 12,-146.75 0,-146.75"/>
<polygon fill="#666666" stroke="#666666" points="12,-146.75 12,-146.75 80,-146.75 80,-146.75 12,-146.75"/>
<polygon fill="none" stroke="#666666" points="0,-129.75 0,-193.75 80,-193.75 80,-129.75 0,-129.75"/>
</a>
</g>
</g>
<!-- Node2&#45;&gt;Node1 -->
<g id="edge1_Node000001_Node000002" class="edge">
<title>Node2&#45;&gt;Node1</title>
<g id="a_edge1_Node000001_Node000002"><a xlink:title=" ">
<path fill="none" stroke="#63b8ff" d="M51.61,-129.9C56.51,-116.86 62.35,-101.36 67.8,-86.86"/>
<polygon fill="none" stroke="#63b8ff" points="67.73,-87.07 66.09,-80.04 71.95,-75.84 73.58,-82.86 67.73,-87.07"/>
</a>
</g>
<text text-anchor="middle" x="81.88" y="-94.75" font-family="Helvetica,sans-Serif" font-size="10.00" fill="grey"> +layout</text>
</g>
<!-- Node3 -->
<g id="Node000003" class="node">
<title>Node3</title>
<g id="a_Node000003"><a xlink:href="structTTL__shape__t.html" target="_top" xlink:title="Description of a Shape.">
<polygon fill="white" stroke="none" points="165.5,-201.25 98.5,-201.25 98.5,-122.25 165.5,-122.25 165.5,-201.25"/>
<text text-anchor="start" x="103.12" y="-187.75" font-family="Helvetica,sans-Serif" font-size="10.00">TTL_shape_t</text>
<text text-anchor="start" x="108" y="-172.75" font-family="Helvetica,sans-Serif" font-size="10.00">+</text>
<text text-anchor="start" x="123.5" y="-172.75" font-family="Helvetica,sans-Serif" font-size="10.00">width</text>
<text text-anchor="start" x="108" y="-157.75" font-family="Helvetica,sans-Serif" font-size="10.00">+</text>
<text text-anchor="start" x="123.5" y="-157.75" font-family="Helvetica,sans-Serif" font-size="10.00">height</text>
<text text-anchor="start" x="108" y="-142.75" font-family="Helvetica,sans-Serif" font-size="10.00">+</text>
<text text-anchor="start" x="123.5" y="-142.75" font-family="Helvetica,sans-Serif" font-size="10.00">depth</text>
<text text-anchor="start" x="130.5" y="-127.75" font-family="Helvetica,sans-Serif" font-size="10.00"> </text>
<polygon fill="#666666" stroke="#666666" points="98.5,-184.25 98.5,-184.25 165.5,-184.25 165.5,-184.25 98.5,-184.25"/>
<polygon fill="#666666" stroke="#666666" points="98.5,-139.25 98.5,-139.25 121.5,-139.25 121.5,-139.25 98.5,-139.25"/>
<polygon fill="#666666" stroke="#666666" points="121.5,-139.25 121.5,-139.25 165.5,-139.25 165.5,-139.25 121.5,-139.25"/>
<polygon fill="none" stroke="#666666" points="98.5,-122.25 98.5,-201.25 165.5,-201.25 165.5,-122.25 98.5,-122.25"/>
</a>
</g>
</g>
<!-- Node3&#45;&gt;Node1 -->
<g id="edge2_Node000001_Node000003" class="edge">
<title>Node3&#45;&gt;Node1</title>
<g id="a_edge2_Node000001_Node000003"><a xlink:title=" ">
<path fill="none" stroke="#63b8ff" d="M117.57,-122.4C113.31,-111.08 108.59,-98.53 104.12,-86.66"/>
<polygon fill="none" stroke="#63b8ff" points="104.14,-86.7 98.28,-82.49 99.91,-75.47 105.77,-79.68 104.14,-86.7"/>
</a>
</g>
<text text-anchor="middle" x="127.25" y="-94.75" font-family="Helvetica,sans-Serif" font-size="10.00" fill="grey"> +shape</text>
</g>
</g>
</svg>
