<?xml version="1.0" encoding="UTF-8" standalone="no"?>
<!DOCTYPE svg PUBLIC "-//W3C//DTD SVG 1.1//EN"
 "http://www.w3.org/Graphics/SVG/1.1/DTD/svg11.dtd">
<!-- Generated by graphviz version 12.0.0 (20240704.0754)
 -->
<!-- Title: TTL_duplex_const_void_tensor_buffering_t Pages: 1 -->
<svg width="238pt" height="399pt"
 viewBox="0.00 0.00 238.25 399.00" xmlns="http://www.w3.org/2000/svg" xmlns:xlink="http://www.w3.org/1999/xlink">
<g id="graph0" class="graph" transform="scale(1 1) rotate(0) translate(4 395)">
<title>TTL_duplex_const_void_tensor_buffering_t</title>
<!-- Node1 -->
<g id="Node000001" class="node">
<title>Node1</title>
<g id="a_Node000001"><a xlink:title="Data required to perform duplex buffer pipelining.">
<polygon fill="#999999" stroke="none" points="171,-120 58,-120 58,0 171,0 171,-120"/>
<text text-anchor="start" x="62.75" y="-106.5" font-family="Helvetica,sans-Serif" font-size="10.00">TTL_duplex_const_void</text>
<text text-anchor="start" x="73.25" y="-95.25" font-family="Helvetica,sans-Serif" font-size="10.00">_tensor_buffering_t</text>
<text text-anchor="start" x="67" y="-80.5" font-family="Helvetica,sans-Serif" font-size="10.00">+</text>
<text text-anchor="start" x="82" y="-80.5" font-family="Helvetica,sans-Serif" font-size="10.00">index</text>
<text text-anchor="start" x="67" y="-65.5" font-family="Helvetica,sans-Serif" font-size="10.00">+</text>
<text text-anchor="start" x="82" y="-65.5" font-family="Helvetica,sans-Serif" font-size="10.00">int_base</text>
<text text-anchor="start" x="67" y="-50.5" font-family="Helvetica,sans-Serif" font-size="10.00">+</text>
<text text-anchor="start" x="82" y="-50.5" font-family="Helvetica,sans-Serif" font-size="10.00">common</text>
<text text-anchor="start" x="67" y="-35.5" font-family="Helvetica,sans-Serif" font-size="10.00">+</text>
<text text-anchor="start" x="82" y="-35.5" font-family="Helvetica,sans-Serif" font-size="10.00">events</text>
<text text-anchor="start" x="67" y="-20.5" font-family="Helvetica,sans-Serif" font-size="10.00">+</text>
<text text-anchor="start" x="82" y="-20.5" font-family="Helvetica,sans-Serif" font-size="10.00">prev_out_tensors</text>
<text text-anchor="start" x="113" y="-5.5" font-family="Helvetica,sans-Serif" font-size="10.00"> </text>
<polygon fill="#666666" stroke="#666666" points="58,-92 58,-92 171,-92 171,-92 58,-92"/>
<polygon fill="#666666" stroke="#666666" points="58,-17 58,-17 80,-17 80,-17 58,-17"/>
<polygon fill="#666666" stroke="#666666" points="80,-17 80,-17 171,-17 171,-17 80,-17"/>
<polygon fill="none" stroke="#666666" points="58,0 58,-120 171,-120 171,0 58,0"/>
</a>
</g>
</g>
<!-- Node2 -->
<g id="Node000002" class="node">
<title>Node2</title>
<g id="a_Node000002"><a xlink:href="structTTL__ext__void__tensor__t.html" target="_top" xlink:title="const and non&#45;const tensors in the appropriate address space">
<polygon fill="white" stroke="none" points="109,-259.25 0,-259.25 0,-195.25 109,-195.25 109,-259.25"/>
<text text-anchor="start" x="4.62" y="-245.75" font-family="Helvetica,sans-Serif" font-size="10.00">TTL_ext_void_tensor_t</text>
<text text-anchor="start" x="16" y="-230.75" font-family="Helvetica,sans-Serif" font-size="10.00">+</text>
<text text-anchor="start" x="38" y="-230.75" font-family="Helvetica,sans-Serif" font-size="10.00">base</text>
<text text-anchor="start" x="16" y="-215.75" font-family="Helvetica,sans-Serif" font-size="10.00">+</text>
<text text-anchor="start" x="38" y="-215.75" font-family="Helvetica,sans-Serif" font-size="10.00">elem_size</text>
<text text-anchor="start" x="53" y="-200.75" font-family="Helvetica,sans-Serif" font-size="10.00"> </text>
<polygon fill="#666666" stroke="#666666" points="0,-242.25 0,-242.25 109,-242.25 109,-242.25 0,-242.25"/>
<polygon fill="#666666" stroke="#666666" points="0,-212.25 0,-212.25 36,-212.25 36,-212.25 0,-212.25"/>
<polygon fill="#666666" stroke="#666666" points="36,-212.25 36,-212.25 109,-212.25 109,-212.25 36,-212.25"/>
<polygon fill="none" stroke="#666666" points="0,-195.25 0,-259.25 109,-259.25 109,-195.25 0,-195.25"/>
</a>
</g>
</g>
<!-- Node2&#45;&gt;Node1 -->
<g id="edge1_Node000001_Node000002" class="edge">
<title>Node2&#45;&gt;Node1</title>
<g id="a_edge1_Node000001_Node000002"><a xlink:title=" ">
<path fill="none" stroke="#63b8ff" d="M60.58,-195.55C64.4,-178.36 69.9,-156.69 76.75,-138 77.51,-135.93 78.3,-133.85 79.13,-131.76"/>
<polygon fill="none" stroke="#63b8ff" points="79.18,-131.63 77.81,-124.55 83.82,-120.56 85.19,-127.64 79.18,-131.63"/>
</a>
</g>
<text text-anchor="middle" x="111.38" y="-162.25" font-family="Helvetica,sans-Serif" font-size="10.00" fill="grey"> +ext_tensor_in</text>
<text text-anchor="middle" x="111.38" y="-151" font-family="Helvetica,sans-Serif" font-size="10.00" fill="grey">+ext_tensor_out</text>
<text text-anchor="middle" x="111.38" y="-139.75" font-family="Helvetica,sans-Serif" font-size="10.00" fill="grey">+to_export_to</text>
</g>
<!-- Node3 -->
<g id="Node000003" class="node">
<title>Node3</title>
<g id="a_Node000003"><a xlink:href="structTTL__layout__t.html" target="_top" xlink:title="Description of a Tensor layout in memory.">
<polygon fill="white" stroke="none" points="103.5,-383.5 23.5,-383.5 23.5,-319.5 103.5,-319.5 103.5,-383.5"/>
<text text-anchor="start" x="35" y="-370" font-family="Helvetica,sans-Serif" font-size="10.00">TTL_layout_t</text>
<text text-anchor="start" x="27.5" y="-355" font-family="Helvetica,sans-Serif" font-size="10.00">+</text>
<text text-anchor="start" x="37.5" y="-355" font-family="Helvetica,sans-Serif" font-size="10.00">row_spacing</text>
<text text-anchor="start" x="27.5" y="-340" font-family="Helvetica,sans-Serif" font-size="10.00">+</text>
<text text-anchor="start" x="37.5" y="-340" font-family="Helvetica,sans-Serif" font-size="10.00">plane_spacing</text>
<text text-anchor="start" x="62" y="-325" font-family="Helvetica,sans-Serif" font-size="10.00"> </text>
<polygon fill="#666666" stroke="#666666" points="23.5,-366.5 23.5,-366.5 103.5,-366.5 103.5,-366.5 23.5,-366.5"/>
<polygon fill="#666666" stroke="#666666" points="23.5,-336.5 23.5,-336.5 35.5,-336.5 35.5,-336.5 23.5,-336.5"/>
<polygon fill="#666666" stroke="#666666" points="35.5,-336.5 35.5,-336.5 103.5,-336.5 103.5,-336.5 35.5,-336.5"/>
<polygon fill="none" stroke="#666666" points="23.5,-319.5 23.5,-383.5 103.5,-383.5 103.5,-319.5 23.5,-319.5"/>
</a>
</g>
</g>
<!-- Node3&#45;&gt;Node2 -->
<g id="edge2_Node000002_Node000003" class="edge">
<title>Node3&#45;&gt;Node2</title>
<g id="a_edge2_Node000002_Node000003"><a xlink:title=" ">
<path fill="none" stroke="#63b8ff" d="M41.69,-319.52C37.19,-311.56 33.11,-302.76 30.75,-294 28.75,-286.57 29.2,-278.78 31.01,-271.27"/>
<polygon fill="none" stroke="#63b8ff" points="31.02,-271.24 29.14,-264.28 34.85,-259.87 36.73,-266.83 31.02,-271.24"/>
</a>
</g>
<text text-anchor="middle" x="48.38" y="-284.5" font-family="Helvetica,sans-Serif" font-size="10.00" fill="grey"> +layout</text>
</g>
<!-- Node5 -->
<g id="Node000005" class="node">
<title>Node5</title>
<g id="a_Node000005"><a xlink:href="structTTL__const__int__void__tensor__t.html" target="_top" xlink:title=" ">
<polygon fill="white" stroke="none" points="223.5,-264.75 127.5,-264.75 127.5,-189.75 223.5,-189.75 223.5,-264.75"/>
<text text-anchor="start" x="132.38" y="-251.25" font-family="Helvetica,sans-Serif" font-size="10.00">TTL_const_int_void</text>
<text text-anchor="start" x="155.25" y="-240" font-family="Helvetica,sans-Serif" font-size="10.00">_tensor_t</text>
<text text-anchor="start" x="140" y="-225.25" font-family="Helvetica,sans-Serif" font-size="10.00">+</text>
<text text-anchor="start" x="158.5" y="-225.25" font-family="Helvetica,sans-Serif" font-size="10.00">base</text>
<text text-anchor="start" x="140" y="-210.25" font-family="Helvetica,sans-Serif" font-size="10.00">+</text>
<text text-anchor="start" x="158.5" y="-210.25" font-family="Helvetica,sans-Serif" font-size="10.00">elem_size</text>
<text text-anchor="start" x="174" y="-195.25" font-family="Helvetica,sans-Serif" font-size="10.00"> </text>
<polygon fill="#666666" stroke="#666666" points="127.5,-236.75 127.5,-236.75 223.5,-236.75 223.5,-236.75 127.5,-236.75"/>
<polygon fill="#666666" stroke="#666666" points="127.5,-206.75 127.5,-206.75 156.5,-206.75 156.5,-206.75 127.5,-206.75"/>
<polygon fill="#666666" stroke="#666666" points="156.5,-206.75 156.5,-206.75 223.5,-206.75 223.5,-206.75 156.5,-206.75"/>
<polygon fill="none" stroke="#666666" points="127.5,-189.75 127.5,-264.75 223.5,-264.75 223.5,-189.75 127.5,-189.75"/>
</a>
</g>
</g>
<!-- Node3&#45;&gt;Node5 -->
<g id="edge5_Node000005_Node000003" class="edge">
<title>Node3&#45;&gt;Node5</title>
<g id="a_edge5_Node000005_Node000003"><a xlink:title=" ">
<path fill="none" stroke="#63b8ff" d="M67.34,-319.68C70.19,-307.12 75.14,-293.15 83.75,-282.75 92.94,-271.66 100.41,-272.56 116.54,-265.13"/>
<polygon fill="none" stroke="#63b8ff" points="116.37,-265.22 119.83,-258.89 127,-259.66 123.54,-265.98 116.37,-265.22"/>
</a>
</g>
<text text-anchor="middle" x="100.38" y="-284.5" font-family="Helvetica,sans-Serif" font-size="10.00" fill="grey"> +layout</text>
</g>
<!-- Node4 -->
<g id="Node000004" class="node">
<title>Node4</title>
<g id="a_Node000004"><a xlink:href="structTTL__shape__t.html" target="_top" xlink:title="Description of a Shape.">
<polygon fill="white" stroke="none" points="200,-391 133,-391 133,-312 200,-312 200,-391"/>
<text text-anchor="start" x="137.62" y="-377.5" font-family="Helvetica,sans-Serif" font-size="10.00">TTL_shape_t</text>
<text text-anchor="start" x="142.5" y="-362.5" font-family="Helvetica,sans-Serif" font-size="10.00">+</text>
<text text-anchor="start" x="158" y="-362.5" font-family="Helvetica,sans-Serif" font-size="10.00">width</text>
<text text-anchor="start" x="142.5" y="-347.5" font-family="Helvetica,sans-Serif" font-size="10.00">+</text>
<text text-anchor="start" x="158" y="-347.5" font-family="Helvetica,sans-Serif" font-size="10.00">height</text>
<text text-anchor="start" x="142.5" y="-332.5" font-family="Helvetica,sans-Serif" font-size="10.00">+</text>
<text text-anchor="start" x="158" y="-332.5" font-family="Helvetica,sans-Serif" font-size="10.00">depth</text>
<text text-anchor="start" x="165" y="-317.5" font-family="Helvetica,sans-Serif" font-size="10.00"> </text>
<polygon fill="#666666" stroke="#666666" points="133,-374 133,-374 200,-374 200,-374 133,-374"/>
<polygon fill="#666666" stroke="#666666" points="133,-329 133,-329 156,-329 156,-329 133,-329"/>
<polygon fill="#666666" stroke="#666666" points="156,-329 156,-329 200,-329 200,-329 156,-329"/>
<polygon fill="none" stroke="#666666" points="133,-312 133,-391 200,-391 200,-312 133,-312"/>
</a>
</g>
</g>
<!-- Node4&#45;&gt;Node2 -->
<g id="edge3_Node000002_Node000004" class="edge">
<title>Node4&#45;&gt;Node2</title>
<g id="a_edge3_Node000002_Node000004"><a xlink:title=" ">
<path fill="none" stroke="#63b8ff" d="M143.89,-312.09C137.24,-302.09 129.57,-291.64 121.5,-282.75 116.78,-277.55 111.54,-272.42 106.13,-267.52"/>
<polygon fill="none" stroke="#63b8ff" points="106.02,-267.43 98.87,-266.52 96.96,-259.56 104.12,-260.48 106.02,-267.43"/>
</a>
</g>
<text text-anchor="middle" x="146.75" y="-284.5" font-family="Helvetica,sans-Serif" font-size="10.00" fill="grey"> +shape</text>
</g>
<!-- Node4&#45;&gt;Node5 -->
<g id="edge6_Node000005_Node000004" class="edge">
<title>Node4&#45;&gt;Node5</title>
<g id="a_edge6_Node000005_Node000004"><a xlink:title=" ">
<path fill="none" stroke="#63b8ff" d="M176.56,-312.1C177.78,-306.08 178.83,-299.9 179.5,-294 180.11,-288.63 180.36,-283 180.36,-277.4"/>
<polygon fill="none" stroke="#63b8ff" points="180.36,-277.38 176.17,-271.5 179.99,-265.38 184.17,-271.26 180.36,-277.38"/>
</a>
</g>
<text text-anchor="middle" x="196.75" y="-284.5" font-family="Helvetica,sans-Serif" font-size="10.00" fill="grey"> +shape</text>
</g>
<!-- Node5&#45;&gt;Node1 -->
<g id="edge4_Node000001_Node000005" class="edge">
<title>Node5&#45;&gt;Node1</title>
<g id="a_edge4_Node000001_Node000005"><a xlink:title=" ">
<path fill="none" stroke="#63b8ff" d="M164.27,-189.97C159.13,-173.94 152.79,-154.93 146.5,-138 145.74,-135.95 144.95,-133.87 144.15,-131.77"/>
<polygon fill="none" stroke="#63b8ff" points="144.12,-131.69 138.21,-127.56 139.75,-120.51 145.66,-124.65 144.12,-131.69"/>
</a>
</g>
<text text-anchor="middle" x="193.88" y="-151" font-family="Helvetica,sans-Serif" font-size="10.00" fill="grey"> +to_export_from</text>
</g>
</g>
</svg>
