<?xml version="1.0" encoding="UTF-8" standalone="no"?>
<!DOCTYPE svg PUBLIC "-//W3C//DTD SVG 1.1//EN"
 "http://www.w3.org/Graphics/SVG/1.1/DTD/svg11.dtd">
<!-- Generated by graphviz version 12.2.1 (20241206.2353)
 -->
<!-- Title: TTL_ext_short_sub_tensor_t Pages: 1 -->
<svg width="272pt" height="313pt"
 viewBox="0.00 0.00 271.50 312.75" xmlns="http://www.w3.org/2000/svg" xmlns:xlink="http://www.w3.org/1999/xlink">
<g id="graph0" class="graph" transform="scale(1 1) rotate(0) translate(4 308.75)">
<title>TTL_ext_short_sub_tensor_t</title>
<!-- Node1 -->
<g id="Node000001" class="node">
<title>Node1</title>
<g id="a_Node000001"><a xlink:title="const and non&#45;const sub tensors in the appropriate address space">
<polygon fill="#999999" stroke="none" points="214,-49.75 81.5,-49.75 81.5,0 214,0 214,-49.75"/>
<text text-anchor="start" x="85.5" y="-36.25" font-family="Helvetica,sans-Serif" font-size="10.00">TTL_ext_short_sub_tensor_t</text>
<text text-anchor="start" x="108.31" y="-21" font-family="Helvetica,sans-Serif" font-size="10.00">+</text>
<text text-anchor="start" x="141.12" y="-21" font-family="Helvetica,sans-Serif" font-size="10.00">origin</text>
<text text-anchor="start" x="146.25" y="-5.75" font-family="Helvetica,sans-Serif" font-size="10.00"> </text>
<polygon fill="#666666" stroke="#666666" points="81.5,-32.5 81.5,-32.5 214,-32.5 214,-32.5 81.5,-32.5"/>
<polygon fill="#666666" stroke="#666666" points="81.5,-17.25 81.5,-17.25 139.12,-17.25 139.12,-17.25 81.5,-17.25"/>
<polygon fill="#666666" stroke="#666666" points="139.12,-17.25 139.12,-17.25 214,-17.25 214,-17.25 139.12,-17.25"/>
<polygon fill="none" stroke="#666666" points="81.5,0 81.5,-49.75 214,-49.75 214,0 81.5,0"/>
</a>
</g>
</g>
<!-- Node2 -->
<g id="Node000002" class="node">
<title>Node2</title>
<g id="a_Node000002"><a xlink:href="structTTL__ext__short__tensor__t.html" target="_top" xlink:title="const and non&#45;const tensors in the appropriate address space">
<polygon fill="white" stroke="none" points="111.5,-169.62 0,-169.62 0,-104.62 111.5,-104.62 111.5,-169.62"/>
<text text-anchor="start" x="4" y="-156.12" font-family="Helvetica,sans-Serif" font-size="10.00">TTL_ext_short_tensor_t</text>
<text text-anchor="start" x="16.5" y="-140.88" font-family="Helvetica,sans-Serif" font-size="10.00">+</text>
<text text-anchor="start" x="39" y="-140.88" font-family="Helvetica,sans-Serif" font-size="10.00">base</text>
<text text-anchor="start" x="16.5" y="-125.62" font-family="Helvetica,sans-Serif" font-size="10.00">+</text>
<text text-anchor="start" x="39" y="-125.62" font-family="Helvetica,sans-Serif" font-size="10.00">elem_size</text>
<text text-anchor="start" x="54.25" y="-110.38" font-family="Helvetica,sans-Serif" font-size="10.00"> </text>
<polygon fill="#666666" stroke="#666666" points="0,-152.38 0,-152.38 111.5,-152.38 111.5,-152.38 0,-152.38"/>
<polygon fill="#666666" stroke="#666666" points="0,-121.88 0,-121.88 37,-121.88 37,-121.88 0,-121.88"/>
<polygon fill="#666666" stroke="#666666" points="37,-121.88 37,-121.88 111.5,-121.88 111.5,-121.88 37,-121.88"/>
<polygon fill="none" stroke="#666666" points="0,-104.62 0,-169.62 111.5,-169.62 111.5,-104.62 0,-104.62"/>
</a>
</g>
</g>
<!-- Node2&#45;&gt;Node1 -->
<g id="edge1_Node000001_Node000002" class="edge">
<title>Node2&#45;&gt;Node1</title>
<g id="a_edge1_Node000001_Node000002"><a xlink:title=" ">
<path fill="none" stroke="#63b8ff" d="M72.59,-104.78C79.8,-92.63 88.8,-78.98 98.5,-67.75 101.21,-64.61 104.17,-61.5 107.25,-58.48"/>
<polygon fill="none" stroke="#63b8ff" points="107.22,-58.5 108.92,-51.49 116.04,-50.36 114.35,-57.37 107.22,-58.5"/>
</a>
</g>
<text text-anchor="middle" x="116.12" y="-69.5" font-family="Helvetica,sans-Serif" font-size="10.00" fill="grey"> +tensor</text>
</g>
<!-- Node3 -->
<g id="Node000003" class="node">
<title>Node3</title>
<g id="a_Node000003"><a xlink:href="structTTL__layout__t.html" target="_top" xlink:title="Description of a Tensor layout in memory.">
<polygon fill="white" stroke="none" points="80.88,-297.12 0.62,-297.12 0.62,-232.12 80.88,-232.12 80.88,-297.12"/>
<text text-anchor="start" x="12.25" y="-283.62" font-family="Helvetica,sans-Serif" font-size="10.00">TTL_layout_t</text>
<text text-anchor="start" x="4.62" y="-268.38" font-family="Helvetica,sans-Serif" font-size="10.00">+</text>
<text text-anchor="start" x="14.62" y="-268.38" font-family="Helvetica,sans-Serif" font-size="10.00">row_spacing</text>
<text text-anchor="start" x="4.62" y="-253.12" font-family="Helvetica,sans-Serif" font-size="10.00">+</text>
<text text-anchor="start" x="14.62" y="-253.12" font-family="Helvetica,sans-Serif" font-size="10.00">plane_spacing</text>
<text text-anchor="start" x="39.25" y="-237.88" font-family="Helvetica,sans-Serif" font-size="10.00"> </text>
<polygon fill="#666666" stroke="#666666" points="0.62,-279.88 0.62,-279.88 80.88,-279.88 80.88,-279.88 0.62,-279.88"/>
<polygon fill="#666666" stroke="#666666" points="0.62,-249.38 0.62,-249.38 12.62,-249.38 12.62,-249.38 0.62,-249.38"/>
<polygon fill="#666666" stroke="#666666" points="12.62,-249.38 12.62,-249.38 80.88,-249.38 80.88,-249.38 12.62,-249.38"/>
<polygon fill="none" stroke="#666666" points="0.62,-232.12 0.62,-297.12 80.88,-297.12 80.88,-232.12 0.62,-232.12"/>
</a>
</g>
</g>
<!-- Node3&#45;&gt;Node2 -->
<g id="edge2_Node000002_Node000003" class="edge">
<title>Node3&#45;&gt;Node2</title>
<g id="a_edge2_Node000002_Node000003"><a xlink:title=" ">
<path fill="none" stroke="#63b8ff" d="M39.89,-232.21C39.95,-220.56 40.46,-207.26 42,-195.25 42.55,-190.92 43.31,-186.44 44.18,-181.98"/>
<polygon fill="none" stroke="#63b8ff" points="44.12,-182.23 41.49,-175.51 46.68,-170.5 49.31,-177.22 44.12,-182.23"/>
</a>
</g>
<text text-anchor="middle" x="58.88" y="-197" font-family="Helvetica,sans-Serif" font-size="10.00" fill="grey"> +layout</text>
</g>
<!-- Node4 -->
<g id="Node000004" class="node">
<title>Node4</title>
<g id="a_Node000004"><a xlink:href="structTTL__shape__t.html" target="_top" xlink:title="Description of a Shape.">
<polygon fill="white" stroke="none" points="172.62,-304.75 106.88,-304.75 106.88,-224.5 172.62,-224.5 172.62,-304.75"/>
<text text-anchor="start" x="110.88" y="-291.25" font-family="Helvetica,sans-Serif" font-size="10.00">TTL_shape_t</text>
<text text-anchor="start" x="116.25" y="-276" font-family="Helvetica,sans-Serif" font-size="10.00">+</text>
<text text-anchor="start" x="131.62" y="-276" font-family="Helvetica,sans-Serif" font-size="10.00">width</text>
<text text-anchor="start" x="116.25" y="-260.75" font-family="Helvetica,sans-Serif" font-size="10.00">+</text>
<text text-anchor="start" x="131.62" y="-260.75" font-family="Helvetica,sans-Serif" font-size="10.00">height</text>
<text text-anchor="start" x="116.25" y="-245.5" font-family="Helvetica,sans-Serif" font-size="10.00">+</text>
<text text-anchor="start" x="131.62" y="-245.5" font-family="Helvetica,sans-Serif" font-size="10.00">depth</text>
<text text-anchor="start" x="138.25" y="-230.25" font-family="Helvetica,sans-Serif" font-size="10.00"> </text>
<polygon fill="#666666" stroke="#666666" points="106.88,-287.5 106.88,-287.5 172.62,-287.5 172.62,-287.5 106.88,-287.5"/>
<polygon fill="#666666" stroke="#666666" points="106.88,-241.75 106.88,-241.75 129.62,-241.75 129.62,-241.75 106.88,-241.75"/>
<polygon fill="#666666" stroke="#666666" points="129.62,-241.75 129.62,-241.75 172.62,-241.75 172.62,-241.75 129.62,-241.75"/>
<polygon fill="none" stroke="#666666" points="106.88,-224.5 106.88,-304.75 172.62,-304.75 172.62,-224.5 106.88,-224.5"/>
</a>
</g>
</g>
<!-- Node4&#45;&gt;Node1 -->
<g id="edge4_Node000001_Node000004" class="edge">
<title>Node4&#45;&gt;Node1</title>
<g id="a_edge4_Node000001_Node000004"><a xlink:title=" ">
<path fill="none" stroke="#63b8ff" d="M141.06,-224.63C142.57,-179.72 145.04,-106.5 146.52,-62.58"/>
<polygon fill="none" stroke="#63b8ff" points="146.51,-62.58 142.72,-56.45 146.92,-50.58 150.71,-56.72 146.51,-62.58"/>
</a>
</g>
<text text-anchor="middle" x="162.56" y="-133.25" font-family="Helvetica,sans-Serif" font-size="10.00" fill="grey"> +shape</text>
</g>
<!-- Node4&#45;&gt;Node2 -->
<g id="edge3_Node000002_Node000004" class="edge">
<title>Node4&#45;&gt;Node2</title>
<g id="a_edge3_Node000002_Node000004"><a xlink:title=" ">
<path fill="none" stroke="#63b8ff" d="M111.82,-224.78C107.56,-218.7 103.25,-212.45 99.25,-206.5 93.57,-198.04 87.62,-188.9 82.01,-180.13"/>
<polygon fill="none" stroke="#63b8ff" points="82.05,-180.2 75.46,-177.28 75.61,-170.07 82.21,-172.99 82.05,-180.2"/>
</a>
</g>
<text text-anchor="middle" x="116.5" y="-197" font-family="Helvetica,sans-Serif" font-size="10.00" fill="grey"> +shape</text>
</g>
<!-- Node5 -->
<g id="Node000005" class="node">
<title>Node5</title>
<g id="a_Node000005"><a xlink:href="structTTL__offset__t.html" target="_top" xlink:title="Description of the 3D offset of an object.">
<polygon fill="white" stroke="none" points="263.5,-177.25 200,-177.25 200,-97 263.5,-97 263.5,-177.25"/>
<text text-anchor="start" x="204" y="-163.75" font-family="Helvetica,sans-Serif" font-size="10.00">TTL_offset_t</text>
<text text-anchor="start" x="214.25" y="-148.5" font-family="Helvetica,sans-Serif" font-size="10.00">+</text>
<text text-anchor="start" x="234.5" y="-148.5" font-family="Helvetica,sans-Serif" font-size="10.00">x</text>
<text text-anchor="start" x="214.25" y="-133.25" font-family="Helvetica,sans-Serif" font-size="10.00">+</text>
<text text-anchor="start" x="234.5" y="-133.25" font-family="Helvetica,sans-Serif" font-size="10.00">y</text>
<text text-anchor="start" x="214.25" y="-118" font-family="Helvetica,sans-Serif" font-size="10.00">+</text>
<text text-anchor="start" x="234.5" y="-118" font-family="Helvetica,sans-Serif" font-size="10.00">z</text>
<text text-anchor="start" x="230.25" y="-102.75" font-family="Helvetica,sans-Serif" font-size="10.00"> </text>
<polygon fill="#666666" stroke="#666666" points="200,-160 200,-160 263.5,-160 263.5,-160 200,-160"/>
<polygon fill="#666666" stroke="#666666" points="200,-114.25 200,-114.25 232.5,-114.25 232.5,-114.25 200,-114.25"/>
<polygon fill="#666666" stroke="#666666" points="232.5,-114.25 232.5,-114.25 263.5,-114.25 263.5,-114.25 232.5,-114.25"/>
<polygon fill="none" stroke="#666666" points="200,-97 200,-177.25 263.5,-177.25 263.5,-97 200,-97"/>
</a>
</g>
</g>
<!-- Node5&#45;&gt;Node1 -->
<g id="edge5_Node000001_Node000005" class="edge">
<title>Node5&#45;&gt;Node1</title>
<g id="a_edge5_Node000001_Node000005"><a xlink:title=" ">
<path fill="none" stroke="#63b8ff" d="M202.13,-97.25C192.88,-85.1 182.74,-71.8 173.75,-60"/>
<polygon fill="none" stroke="#63b8ff" points="173.69,-59.92 166.87,-57.58 166.42,-50.38 173.24,-52.73 173.69,-59.92"/>
</a>
</g>
<text text-anchor="middle" x="213.86" y="-69.5" font-family="Helvetica,sans-Serif" font-size="10.00" fill="grey"> +sub_offset</text>
</g>
</g>
</svg>
