<?xml version="1.0" encoding="UTF-8" standalone="no"?>
<!DOCTYPE svg PUBLIC "-//W3C//DTD SVG 1.1//EN"
 "http://www.w3.org/Graphics/SVG/1.1/DTD/svg11.dtd">
<!-- Generated by graphviz version 12.0.0 (20240704.0754)
 -->
<!-- Title: TTL_import_double_const_ushort_tensor_buffering_t Pages: 1 -->
<svg width="257pt" height="373pt"
 viewBox="0.00 0.00 256.50 372.75" xmlns="http://www.w3.org/2000/svg" xmlns:xlink="http://www.w3.org/1999/xlink">
<g id="graph0" class="graph" transform="scale(1 1) rotate(0) translate(4 368.75)">
<title>TTL_import_double_const_ushort_tensor_buffering_t</title>
<!-- Node1 -->
<g id="Node000001" class="node">
<title>Node1</title>
<g id="a_Node000001"><a xlink:title="Data required to perform double buffer pipelining.">
<polygon fill="#999999" stroke="none" points="189,-105 65,-105 65,0 189,0 189,-105"/>
<text text-anchor="start" x="69.62" y="-91.5" font-family="Helvetica,sans-Serif" font-size="10.00">TTL_import_double_const</text>
<text text-anchor="start" x="69.62" y="-80.25" font-family="Helvetica,sans-Serif" font-size="10.00">_ushort_tensor_buffering_t</text>
<text text-anchor="start" x="86" y="-65.5" font-family="Helvetica,sans-Serif" font-size="10.00">+</text>
<text text-anchor="start" x="113" y="-65.5" font-family="Helvetica,sans-Serif" font-size="10.00">index</text>
<text text-anchor="start" x="86" y="-50.5" font-family="Helvetica,sans-Serif" font-size="10.00">+</text>
<text text-anchor="start" x="113" y="-50.5" font-family="Helvetica,sans-Serif" font-size="10.00">int_base</text>
<text text-anchor="start" x="86" y="-35.5" font-family="Helvetica,sans-Serif" font-size="10.00">+</text>
<text text-anchor="start" x="113" y="-35.5" font-family="Helvetica,sans-Serif" font-size="10.00">common</text>
<text text-anchor="start" x="86" y="-20.5" font-family="Helvetica,sans-Serif" font-size="10.00">+</text>
<text text-anchor="start" x="113" y="-20.5" font-family="Helvetica,sans-Serif" font-size="10.00">event</text>
<text text-anchor="start" x="125.5" y="-5.5" font-family="Helvetica,sans-Serif" font-size="10.00"> </text>
<polygon fill="#666666" stroke="#666666" points="65,-77 65,-77 189,-77 189,-77 65,-77"/>
<polygon fill="#666666" stroke="#666666" points="65,-17 65,-17 111,-17 111,-17 65,-17"/>
<polygon fill="#666666" stroke="#666666" points="111,-17 111,-17 189,-17 189,-17 111,-17"/>
<polygon fill="none" stroke="#666666" points="65,0 65,-105 189,-105 189,0 65,0"/>
</a>
</g>
</g>
<!-- Node2 -->
<g id="Node000002" class="node">
<title>Node2</title>
<g id="a_Node000002"><a xlink:href="structTTL__const__ext__ushort__tensor__t.html" target="_top" xlink:title=" ">
<polygon fill="white" stroke="none" points="131.5,-238.5 24.5,-238.5 24.5,-163.5 131.5,-163.5 131.5,-238.5"/>
<text text-anchor="start" x="29.25" y="-225" font-family="Helvetica,sans-Serif" font-size="10.00">TTL_const_ext_ushort</text>
<text text-anchor="start" x="57.75" y="-213.75" font-family="Helvetica,sans-Serif" font-size="10.00">_tensor_t</text>
<text text-anchor="start" x="40" y="-199" font-family="Helvetica,sans-Serif" font-size="10.00">+</text>
<text text-anchor="start" x="61.5" y="-199" font-family="Helvetica,sans-Serif" font-size="10.00">base</text>
<text text-anchor="start" x="40" y="-184" font-family="Helvetica,sans-Serif" font-size="10.00">+</text>
<text text-anchor="start" x="61.5" y="-184" font-family="Helvetica,sans-Serif" font-size="10.00">elem_size</text>
<text text-anchor="start" x="76.5" y="-169" font-family="Helvetica,sans-Serif" font-size="10.00"> </text>
<polygon fill="#666666" stroke="#666666" points="24.5,-210.5 24.5,-210.5 131.5,-210.5 131.5,-210.5 24.5,-210.5"/>
<polygon fill="#666666" stroke="#666666" points="24.5,-180.5 24.5,-180.5 59.5,-180.5 59.5,-180.5 24.5,-180.5"/>
<polygon fill="#666666" stroke="#666666" points="59.5,-180.5 59.5,-180.5 131.5,-180.5 131.5,-180.5 59.5,-180.5"/>
<polygon fill="none" stroke="#666666" points="24.5,-163.5 24.5,-238.5 131.5,-238.5 131.5,-163.5 24.5,-163.5"/>
</a>
</g>
</g>
<!-- Node2&#45;&gt;Node1 -->
<g id="edge1_Node000001_Node000002" class="edge">
<title>Node2&#45;&gt;Node1</title>
<g id="a_edge1_Node000001_Node000002"><a xlink:title=" ">
<path fill="none" stroke="#63b8ff" d="M76.83,-163.65C77.36,-150.57 79.06,-135.87 83.25,-123 83.93,-120.9 84.69,-118.81 85.52,-116.72"/>
<polygon fill="none" stroke="#63b8ff" points="85.56,-116.63 84.39,-109.52 90.51,-105.7 91.68,-112.82 85.56,-116.63"/>
</a>
</g>
<text text-anchor="middle" x="117.88" y="-136" font-family="Helvetica,sans-Serif" font-size="10.00" fill="grey"> +ext_tensor_in</text>
<text text-anchor="middle" x="117.88" y="-124.75" font-family="Helvetica,sans-Serif" font-size="10.00" fill="grey">+ext_tensor_out</text>
</g>
<!-- Node3 -->
<g id="Node000003" class="node">
<title>Node3</title>
<g id="a_Node000003"><a xlink:href="structTTL__layout__t.html" target="_top" xlink:title="Description of a Tensor layout in memory.">
<polygon fill="white" stroke="none" points="80,-357.25 0,-357.25 0,-293.25 80,-293.25 80,-357.25"/>
<text text-anchor="start" x="11.5" y="-343.75" font-family="Helvetica,sans-Serif" font-size="10.00">TTL_layout_t</text>
<text text-anchor="start" x="4" y="-328.75" font-family="Helvetica,sans-Serif" font-size="10.00">+</text>
<text text-anchor="start" x="14" y="-328.75" font-family="Helvetica,sans-Serif" font-size="10.00">row_spacing</text>
<text text-anchor="start" x="4" y="-313.75" font-family="Helvetica,sans-Serif" font-size="10.00">+</text>
<text text-anchor="start" x="14" y="-313.75" font-family="Helvetica,sans-Serif" font-size="10.00">plane_spacing</text>
<text text-anchor="start" x="38.5" y="-298.75" font-family="Helvetica,sans-Serif" font-size="10.00"> </text>
<polygon fill="#666666" stroke="#666666" points="0,-340.25 0,-340.25 80,-340.25 80,-340.25 0,-340.25"/>
<polygon fill="#666666" stroke="#666666" points="0,-310.25 0,-310.25 12,-310.25 12,-310.25 0,-310.25"/>
<polygon fill="#666666" stroke="#666666" points="12,-310.25 12,-310.25 80,-310.25 80,-310.25 12,-310.25"/>
<polygon fill="none" stroke="#666666" points="0,-293.25 0,-357.25 80,-357.25 80,-293.25 0,-293.25"/>
</a>
</g>
</g>
<!-- Node3&#45;&gt;Node2 -->
<g id="edge2_Node000002_Node000003" class="edge">
<title>Node3&#45;&gt;Node2</title>
<g id="a_edge2_Node000002_Node000003"><a xlink:title=" ">
<path fill="none" stroke="#63b8ff" d="M37.53,-293.3C37.49,-281.54 38.55,-268.17 42.25,-256.5 42.95,-254.29 43.77,-252.09 44.68,-249.9"/>
<polygon fill="none" stroke="#63b8ff" points="44.61,-250.03 43.67,-242.88 49.91,-239.26 50.85,-246.41 44.61,-250.03"/>
</a>
</g>
<text text-anchor="middle" x="58.88" y="-258.25" font-family="Helvetica,sans-Serif" font-size="10.00" fill="grey"> +layout</text>
</g>
<!-- Node4 -->
<g id="Node000004" class="node">
<title>Node4</title>
<g id="a_Node000004"><a xlink:href="structTTL__shape__t.html" target="_top" xlink:title="Description of a Shape.">
<polygon fill="white" stroke="none" points="165.5,-364.75 98.5,-364.75 98.5,-285.75 165.5,-285.75 165.5,-364.75"/>
<text text-anchor="start" x="103.12" y="-351.25" font-family="Helvetica,sans-Serif" font-size="10.00">TTL_shape_t</text>
<text text-anchor="start" x="108" y="-336.25" font-family="Helvetica,sans-Serif" font-size="10.00">+</text>
<text text-anchor="start" x="123.5" y="-336.25" font-family="Helvetica,sans-Serif" font-size="10.00">width</text>
<text text-anchor="start" x="108" y="-321.25" font-family="Helvetica,sans-Serif" font-size="10.00">+</text>
<text text-anchor="start" x="123.5" y="-321.25" font-family="Helvetica,sans-Serif" font-size="10.00">height</text>
<text text-anchor="start" x="108" y="-306.25" font-family="Helvetica,sans-Serif" font-size="10.00">+</text>
<text text-anchor="start" x="123.5" y="-306.25" font-family="Helvetica,sans-Serif" font-size="10.00">depth</text>
<text text-anchor="start" x="130.5" y="-291.25" font-family="Helvetica,sans-Serif" font-size="10.00"> </text>
<polygon fill="#666666" stroke="#666666" points="98.5,-347.75 98.5,-347.75 165.5,-347.75 165.5,-347.75 98.5,-347.75"/>
<polygon fill="#666666" stroke="#666666" points="98.5,-302.75 98.5,-302.75 121.5,-302.75 121.5,-302.75 98.5,-302.75"/>
<polygon fill="#666666" stroke="#666666" points="121.5,-302.75 121.5,-302.75 165.5,-302.75 165.5,-302.75 121.5,-302.75"/>
<polygon fill="none" stroke="#666666" points="98.5,-285.75 98.5,-364.75 165.5,-364.75 165.5,-285.75 98.5,-285.75"/>
</a>
</g>
</g>
<!-- Node4&#45;&gt;Node2 -->
<g id="edge3_Node000002_Node000004" class="edge">
<title>Node4&#45;&gt;Node2</title>
<g id="a_edge3_Node000002_Node000004"><a xlink:title=" ">
<path fill="none" stroke="#63b8ff" d="M115.06,-285.9C110.01,-274.46 104.4,-261.76 99.11,-249.79"/>
<polygon fill="none" stroke="#63b8ff" points="99.17,-249.93 93.09,-246.05 94.32,-238.95 100.4,-242.82 99.17,-249.93"/>
</a>
</g>
<text text-anchor="middle" x="123.25" y="-258.25" font-family="Helvetica,sans-Serif" font-size="10.00" fill="grey"> +shape</text>
</g>
<!-- Node5 -->
<g id="Node000005" class="node">
<title>Node5</title>
<g id="a_Node000005"><a xlink:href="structTTL__tile__t.html" target="_top" xlink:title=" ">
<polygon fill="white" stroke="none" points="204,-225.5 150,-225.5 150,-176.5 204,-176.5 204,-225.5"/>
<text text-anchor="start" x="154.88" y="-212" font-family="Helvetica,sans-Serif" font-size="10.00">TTL_tile_t</text>
<text text-anchor="start" x="175.5" y="-197" font-family="Helvetica,sans-Serif" font-size="10.00"> </text>
<text text-anchor="start" x="175.5" y="-182" font-family="Helvetica,sans-Serif" font-size="10.00"> </text>
<polygon fill="#666666" stroke="#666666" points="150,-208.5 150,-208.5 204,-208.5 204,-208.5 150,-208.5"/>
<polygon fill="#666666" stroke="#666666" points="150,-193.5 150,-193.5 204,-193.5 204,-193.5 150,-193.5"/>
<polygon fill="none" stroke="#666666" points="150,-176.5 150,-225.5 204,-225.5 204,-176.5 150,-176.5"/>
</a>
</g>
</g>
<!-- Node4&#45;&gt;Node5 -->
<g id="edge5_Node000005_Node000004" class="edge">
<title>Node4&#45;&gt;Node5</title>
<g id="a_edge5_Node000005_Node000004"><a xlink:title=" ">
<path fill="none" stroke="#63b8ff" d="M145.78,-285.88C149.25,-276.28 152.99,-266.01 156.5,-256.5 158.8,-250.26 161.28,-243.62 163.68,-237.21"/>
<polygon fill="none" stroke="#63b8ff" points="163.61,-237.39 161.98,-230.37 167.84,-226.16 169.47,-233.18 163.61,-237.39"/>
</a>
</g>
<text text-anchor="middle" x="173.25" y="-258.25" font-family="Helvetica,sans-Serif" font-size="10.00" fill="grey"> +shape</text>
</g>
<!-- Node5&#45;&gt;Node1 -->
<g id="edge4_Node000001_Node000005" class="edge">
<title>Node5&#45;&gt;Node1</title>
<g id="a_edge4_Node000001_Node000005"><a xlink:title=" ">
<path fill="none" stroke="#63b8ff" d="M170.09,-176.64C165.47,-161.32 159.13,-140.88 153,-123 152.3,-120.95 151.57,-118.86 150.84,-116.76"/>
<polygon fill="none" stroke="#63b8ff" points="150.84,-116.77 145.05,-112.47 146.8,-105.47 152.58,-109.77 150.84,-116.77"/>
</a>
</g>
<text text-anchor="middle" x="181.5" y="-130.38" font-family="Helvetica,sans-Serif" font-size="10.00" fill="grey"> +prev_tile</text>
</g>
<!-- Node6 -->
<g id="Node000006" class="node">
<title>Node6</title>
<g id="a_Node000006"><a xlink:href="structTTL__offset__t.html" target="_top" xlink:title="Description of the 3D offset of an object.">
<polygon fill="white" stroke="none" points="248.5,-364.75 183.5,-364.75 183.5,-285.75 248.5,-285.75 248.5,-364.75"/>
<text text-anchor="start" x="188.25" y="-351.25" font-family="Helvetica,sans-Serif" font-size="10.00">TTL_offset_t</text>
<text text-anchor="start" x="198" y="-336.25" font-family="Helvetica,sans-Serif" font-size="10.00">+</text>
<text text-anchor="start" x="218.5" y="-336.25" font-family="Helvetica,sans-Serif" font-size="10.00">x</text>
<text text-anchor="start" x="198" y="-321.25" font-family="Helvetica,sans-Serif" font-size="10.00">+</text>
<text text-anchor="start" x="218.5" y="-321.25" font-family="Helvetica,sans-Serif" font-size="10.00">y</text>
<text text-anchor="start" x="198" y="-306.25" font-family="Helvetica,sans-Serif" font-size="10.00">+</text>
<text text-anchor="start" x="218.5" y="-306.25" font-family="Helvetica,sans-Serif" font-size="10.00">z</text>
<text text-anchor="start" x="214.5" y="-291.25" font-family="Helvetica,sans-Serif" font-size="10.00"> </text>
<polygon fill="#666666" stroke="#666666" points="183.5,-347.75 183.5,-347.75 248.5,-347.75 248.5,-347.75 183.5,-347.75"/>
<polygon fill="#666666" stroke="#666666" points="183.5,-302.75 183.5,-302.75 216.5,-302.75 216.5,-302.75 183.5,-302.75"/>
<polygon fill="#666666" stroke="#666666" points="216.5,-302.75 216.5,-302.75 248.5,-302.75 248.5,-302.75 216.5,-302.75"/>
<polygon fill="none" stroke="#666666" points="183.5,-285.75 183.5,-364.75 248.5,-364.75 248.5,-285.75 183.5,-285.75"/>
</a>
</g>
</g>
<!-- Node6&#45;&gt;Node5 -->
<g id="edge6_Node000005_Node000006" class="edge">
<title>Node6&#45;&gt;Node5</title>
<g id="a_edge6_Node000005_Node000006"><a xlink:title=" ">
<path fill="none" stroke="#63b8ff" d="M203.77,-285.9C198.81,-270.37 193.12,-252.54 188.27,-237.33"/>
<polygon fill="none" stroke="#63b8ff" points="188.34,-237.56 182.71,-233.06 184.7,-226.13 190.33,-230.63 188.34,-237.56"/>
</a>
</g>
<text text-anchor="middle" x="213.12" y="-258.25" font-family="Helvetica,sans-Serif" font-size="10.00" fill="grey"> +offset</text>
</g>
</g>
</svg>
