<?xml version="1.0" encoding="UTF-8" standalone="no"?>
<!DOCTYPE svg PUBLIC "-//W3C//DTD SVG 1.1//EN"
 "http://www.w3.org/Graphics/SVG/1.1/DTD/svg11.dtd">
<!-- Generated by graphviz version 12.0.0 (20240704.0754)
 -->
<!-- Title: TTL_io_short_tensor_t Pages: 1 -->
<svg width="273pt" height="417pt"
 viewBox="0.00 0.00 273.00 417.00" xmlns="http://www.w3.org/2000/svg" xmlns:xlink="http://www.w3.org/1999/xlink">
<g id="graph0" class="graph" transform="scale(1 1) rotate(0) translate(4 413)">
<title>TTL_io_short_tensor_t</title>
<!-- Node1 -->
<g id="Node000001" class="node">
<title>Node1</title>
<g id="a_Node000001"><a xlink:title="Describes a pair of internal Tensors after an operation.">
<polygon fill="#999999" stroke="none" points="201.5,-49 93.5,-49 93.5,0 201.5,0 201.5,-49"/>
<text text-anchor="start" x="98.38" y="-35.5" font-family="Helvetica,sans-Serif" font-size="10.00">TTL_io_short_tensor_t</text>
<text text-anchor="start" x="146" y="-20.5" font-family="Helvetica,sans-Serif" font-size="10.00"> </text>
<text text-anchor="start" x="146" y="-5.5" font-family="Helvetica,sans-Serif" font-size="10.00"> </text>
<polygon fill="#666666" stroke="#666666" points="93.5,-32 93.5,-32 201.5,-32 201.5,-32 93.5,-32"/>
<polygon fill="#666666" stroke="#666666" points="93.5,-17 93.5,-17 201.5,-17 201.5,-17 93.5,-17"/>
<polygon fill="none" stroke="#666666" points="93.5,0 93.5,-49 201.5,-49 201.5,0 93.5,0"/>
</a>
</g>
</g>
<!-- Node2 -->
<g id="Node000002" class="node">
<title>Node2</title>
<g id="a_Node000002"><a xlink:href="structTTL__int__short__sub__tensor__t.html" target="_top" xlink:title="const and non&#45;const sub tensors in the appropriate address space">
<polygon fill="white" stroke="none" points="213.5,-156.5 81.5,-156.5 81.5,-107.5 213.5,-107.5 213.5,-156.5"/>
<text text-anchor="start" x="86.38" y="-143" font-family="Helvetica,sans-Serif" font-size="10.00">TTL_int_short_sub_tensor_t</text>
<text text-anchor="start" x="108" y="-128" font-family="Helvetica,sans-Serif" font-size="10.00">+</text>
<text text-anchor="start" x="140.5" y="-128" font-family="Helvetica,sans-Serif" font-size="10.00">origin</text>
<text text-anchor="start" x="146" y="-113" font-family="Helvetica,sans-Serif" font-size="10.00"> </text>
<polygon fill="#666666" stroke="#666666" points="81.5,-139.5 81.5,-139.5 213.5,-139.5 213.5,-139.5 81.5,-139.5"/>
<polygon fill="#666666" stroke="#666666" points="81.5,-124.5 81.5,-124.5 138.5,-124.5 138.5,-124.5 81.5,-124.5"/>
<polygon fill="#666666" stroke="#666666" points="138.5,-124.5 138.5,-124.5 213.5,-124.5 213.5,-124.5 138.5,-124.5"/>
<polygon fill="none" stroke="#666666" points="81.5,-107.5 81.5,-156.5 213.5,-156.5 213.5,-107.5 81.5,-107.5"/>
</a>
</g>
</g>
<!-- Node2&#45;&gt;Node1 -->
<g id="edge1_Node000001_Node000002" class="edge">
<title>Node2&#45;&gt;Node1</title>
<g id="a_edge1_Node000001_Node000002"><a xlink:title=" ">
<path fill="none" stroke="#63b8ff" d="M147.5,-107.59C147.5,-94.06 147.5,-76.77 147.5,-61.55"/>
<polygon fill="none" stroke="#63b8ff" points="147.5,-61.75 143.5,-55.75 147.5,-49.75 151.5,-55.75 147.5,-61.75"/>
</a>
</g>
<text text-anchor="middle" x="182.75" y="-80" font-family="Helvetica,sans-Serif" font-size="10.00" fill="grey"> +imported_to</text>
<text text-anchor="middle" x="182.75" y="-68.75" font-family="Helvetica,sans-Serif" font-size="10.00" fill="grey">+to_export_from</text>
</g>
<!-- Node3 -->
<g id="Node000003" class="node">
<title>Node3</title>
<g id="a_Node000003"><a xlink:href="structTTL__int__short__tensor__t.html" target="_top" xlink:title="const and non&#45;const tensors in the appropriate address space">
<polygon fill="white" stroke="none" points="111,-275.25 0,-275.25 0,-211.25 111,-211.25 111,-275.25"/>
<text text-anchor="start" x="4.88" y="-261.75" font-family="Helvetica,sans-Serif" font-size="10.00">TTL_int_short_tensor_t</text>
<text text-anchor="start" x="16.5" y="-246.75" font-family="Helvetica,sans-Serif" font-size="10.00">+</text>
<text text-anchor="start" x="39" y="-246.75" font-family="Helvetica,sans-Serif" font-size="10.00">base</text>
<text text-anchor="start" x="16.5" y="-231.75" font-family="Helvetica,sans-Serif" font-size="10.00">+</text>
<text text-anchor="start" x="39" y="-231.75" font-family="Helvetica,sans-Serif" font-size="10.00">elem_size</text>
<text text-anchor="start" x="54" y="-216.75" font-family="Helvetica,sans-Serif" font-size="10.00"> </text>
<polygon fill="#666666" stroke="#666666" points="0,-258.25 0,-258.25 111,-258.25 111,-258.25 0,-258.25"/>
<polygon fill="#666666" stroke="#666666" points="0,-228.25 0,-228.25 37,-228.25 37,-228.25 0,-228.25"/>
<polygon fill="#666666" stroke="#666666" points="37,-228.25 37,-228.25 111,-228.25 111,-228.25 37,-228.25"/>
<polygon fill="none" stroke="#666666" points="0,-211.25 0,-275.25 111,-275.25 111,-211.25 0,-211.25"/>
</a>
</g>
</g>
<!-- Node3&#45;&gt;Node2 -->
<g id="edge2_Node000002_Node000003" class="edge">
<title>Node3&#45;&gt;Node2</title>
<g id="a_edge2_Node000002_Node000003"><a xlink:title=" ">
<path fill="none" stroke="#63b8ff" d="M72.15,-211.52C79.4,-199.4 88.47,-185.72 98.25,-174.5 101,-171.34 104.01,-168.21 107.13,-165.18"/>
<polygon fill="none" stroke="#63b8ff" points="107.19,-165.12 108.92,-158.12 116.05,-157.03 114.32,-164.03 107.19,-165.12"/>
</a>
</g>
<text text-anchor="middle" x="116.12" y="-176.25" font-family="Helvetica,sans-Serif" font-size="10.00" fill="grey"> +tensor</text>
</g>
<!-- Node4 -->
<g id="Node000004" class="node">
<title>Node4</title>
<g id="a_Node000004"><a xlink:href="structTTL__layout__t.html" target="_top" xlink:title="Description of a Tensor layout in memory.">
<polygon fill="white" stroke="none" points="80.5,-401.5 0.5,-401.5 0.5,-337.5 80.5,-337.5 80.5,-401.5"/>
<text text-anchor="start" x="12" y="-388" font-family="Helvetica,sans-Serif" font-size="10.00">TTL_layout_t</text>
<text text-anchor="start" x="4.5" y="-373" font-family="Helvetica,sans-Serif" font-size="10.00">+</text>
<text text-anchor="start" x="14.5" y="-373" font-family="Helvetica,sans-Serif" font-size="10.00">row_spacing</text>
<text text-anchor="start" x="4.5" y="-358" font-family="Helvetica,sans-Serif" font-size="10.00">+</text>
<text text-anchor="start" x="14.5" y="-358" font-family="Helvetica,sans-Serif" font-size="10.00">plane_spacing</text>
<text text-anchor="start" x="39" y="-343" font-family="Helvetica,sans-Serif" font-size="10.00"> </text>
<polygon fill="#666666" stroke="#666666" points="0.5,-384.5 0.5,-384.5 80.5,-384.5 80.5,-384.5 0.5,-384.5"/>
<polygon fill="#666666" stroke="#666666" points="0.5,-354.5 0.5,-354.5 12.5,-354.5 12.5,-354.5 0.5,-354.5"/>
<polygon fill="#666666" stroke="#666666" points="12.5,-354.5 12.5,-354.5 80.5,-354.5 80.5,-354.5 12.5,-354.5"/>
<polygon fill="none" stroke="#666666" points="0.5,-337.5 0.5,-401.5 80.5,-401.5 80.5,-337.5 0.5,-337.5"/>
</a>
</g>
</g>
<!-- Node4&#45;&gt;Node3 -->
<g id="edge3_Node000003_Node000004" class="edge">
<title>Node4&#45;&gt;Node3</title>
<g id="a_edge3_Node000003_Node000004"><a xlink:title=" ">
<path fill="none" stroke="#63b8ff" d="M39.64,-337.7C39.69,-326.08 40.2,-312.77 41.75,-300.75 42.31,-296.41 43.08,-291.93 43.96,-287.47"/>
<polygon fill="none" stroke="#63b8ff" points="43.91,-287.7 41.3,-280.98 46.5,-275.98 49.11,-282.71 43.91,-287.7"/>
</a>
</g>
<text text-anchor="middle" x="59.38" y="-302.5" font-family="Helvetica,sans-Serif" font-size="10.00" fill="grey"> +layout</text>
</g>
<!-- Node5 -->
<g id="Node000005" class="node">
<title>Node5</title>
<g id="a_Node000005"><a xlink:href="structTTL__shape__t.html" target="_top" xlink:title="Description of a Shape.">
<polygon fill="white" stroke="none" points="173,-409 106,-409 106,-330 173,-330 173,-409"/>
<text text-anchor="start" x="110.62" y="-395.5" font-family="Helvetica,sans-Serif" font-size="10.00">TTL_shape_t</text>
<text text-anchor="start" x="115.5" y="-380.5" font-family="Helvetica,sans-Serif" font-size="10.00">+</text>
<text text-anchor="start" x="131" y="-380.5" font-family="Helvetica,sans-Serif" font-size="10.00">width</text>
<text text-anchor="start" x="115.5" y="-365.5" font-family="Helvetica,sans-Serif" font-size="10.00">+</text>
<text text-anchor="start" x="131" y="-365.5" font-family="Helvetica,sans-Serif" font-size="10.00">height</text>
<text text-anchor="start" x="115.5" y="-350.5" font-family="Helvetica,sans-Serif" font-size="10.00">+</text>
<text text-anchor="start" x="131" y="-350.5" font-family="Helvetica,sans-Serif" font-size="10.00">depth</text>
<text text-anchor="start" x="138" y="-335.5" font-family="Helvetica,sans-Serif" font-size="10.00"> </text>
<polygon fill="#666666" stroke="#666666" points="106,-392 106,-392 173,-392 173,-392 106,-392"/>
<polygon fill="#666666" stroke="#666666" points="106,-347 106,-347 129,-347 129,-347 106,-347"/>
<polygon fill="#666666" stroke="#666666" points="129,-347 129,-347 173,-347 173,-347 129,-347"/>
<polygon fill="none" stroke="#666666" points="106,-330 106,-409 173,-409 173,-330 106,-330"/>
</a>
</g>
</g>
<!-- Node5&#45;&gt;Node2 -->
<g id="edge5_Node000002_Node000005" class="edge">
<title>Node5&#45;&gt;Node2</title>
<g id="a_edge5_Node000002_Node000005"><a xlink:title=" ">
<path fill="none" stroke="#63b8ff" d="M140.8,-330.14C142.32,-285.59 144.79,-212.65 146.27,-169.09"/>
<polygon fill="none" stroke="#63b8ff" points="146.27,-169.21 142.48,-163.08 146.68,-157.22 150.47,-163.35 146.27,-169.21"/>
</a>
</g>
<text text-anchor="middle" x="162.75" y="-239.38" font-family="Helvetica,sans-Serif" font-size="10.00" fill="grey"> +shape</text>
</g>
<!-- Node5&#45;&gt;Node3 -->
<g id="edge4_Node000003_Node000005" class="edge">
<title>Node5&#45;&gt;Node3</title>
<g id="a_edge4_Node000003_Node000005"><a xlink:title=" ">
<path fill="none" stroke="#63b8ff" d="M111.57,-330.09C107.31,-324.07 103,-317.89 99,-312 93.31,-303.62 87.36,-294.57 81.75,-285.88"/>
<polygon fill="none" stroke="#63b8ff" points="81.84,-286.02 75.24,-283.13 75.36,-275.92 81.97,-278.81 81.84,-286.02"/>
</a>
</g>
<text text-anchor="middle" x="116.75" y="-302.5" font-family="Helvetica,sans-Serif" font-size="10.00" fill="grey"> +shape</text>
</g>
<!-- Node6 -->
<g id="Node000006" class="node">
<title>Node6</title>
<g id="a_Node000006"><a xlink:href="structTTL__offset__t.html" target="_top" xlink:title="Description of the 3D offset of an object.">
<polygon fill="white" stroke="none" points="265,-282.75 200,-282.75 200,-203.75 265,-203.75 265,-282.75"/>
<text text-anchor="start" x="204.75" y="-269.25" font-family="Helvetica,sans-Serif" font-size="10.00">TTL_offset_t</text>
<text text-anchor="start" x="214.5" y="-254.25" font-family="Helvetica,sans-Serif" font-size="10.00">+</text>
<text text-anchor="start" x="235" y="-254.25" font-family="Helvetica,sans-Serif" font-size="10.00">x</text>
<text text-anchor="start" x="214.5" y="-239.25" font-family="Helvetica,sans-Serif" font-size="10.00">+</text>
<text text-anchor="start" x="235" y="-239.25" font-family="Helvetica,sans-Serif" font-size="10.00">y</text>
<text text-anchor="start" x="214.5" y="-224.25" font-family="Helvetica,sans-Serif" font-size="10.00">+</text>
<text text-anchor="start" x="235" y="-224.25" font-family="Helvetica,sans-Serif" font-size="10.00">z</text>
<text text-anchor="start" x="231" y="-209.25" font-family="Helvetica,sans-Serif" font-size="10.00"> </text>
<polygon fill="#666666" stroke="#666666" points="200,-265.75 200,-265.75 265,-265.75 265,-265.75 200,-265.75"/>
<polygon fill="#666666" stroke="#666666" points="200,-220.75 200,-220.75 233,-220.75 233,-220.75 200,-220.75"/>
<polygon fill="#666666" stroke="#666666" points="233,-220.75 233,-220.75 265,-220.75 265,-220.75 233,-220.75"/>
<polygon fill="none" stroke="#666666" points="200,-203.75 200,-282.75 265,-282.75 265,-203.75 200,-203.75"/>
</a>
</g>
</g>
<!-- Node6&#45;&gt;Node2 -->
<g id="edge6_Node000002_Node000006" class="edge">
<title>Node6&#45;&gt;Node2</title>
<g id="a_edge6_Node000002_Node000006"><a xlink:title=" ">
<path fill="none" stroke="#63b8ff" d="M202.77,-204.04C193.22,-191.76 182.72,-178.26 173.46,-166.36"/>
<polygon fill="none" stroke="#63b8ff" points="173.61,-166.56 166.77,-164.29 166.25,-157.09 173.09,-159.37 173.61,-166.56"/>
</a>
</g>
<text text-anchor="middle" x="213.12" y="-176.25" font-family="Helvetica,sans-Serif" font-size="10.00" fill="grey"> +sub_offset</text>
</g>
</g>
</svg>
