<?xml version="1.0" encoding="UTF-8" standalone="no"?>
<!DOCTYPE svg PUBLIC "-//W3C//DTD SVG 1.1//EN"
 "http://www.w3.org/Graphics/SVG/1.1/DTD/svg11.dtd">
<!-- Generated by graphviz version 12.0.0 (20240704.0754)
 -->
<!-- Title: TTL_simplex_const_char_tensor_buffering_t Pages: 1 -->
<svg width="461pt" height="477pt"
 viewBox="0.00 0.00 460.50 476.75" xmlns="http://www.w3.org/2000/svg" xmlns:xlink="http://www.w3.org/1999/xlink">
<g id="graph0" class="graph" transform="scale(1 1) rotate(0) translate(4 472.75)">
<title>TTL_simplex_const_char_tensor_buffering_t</title>
<!-- Node1 -->
<g id="Node000001" class="node">
<title>Node1</title>
<g id="a_Node000001"><a xlink:title=" ">
<polygon fill="#999999" stroke="none" points="331.5,-120 212.5,-120 212.5,0 331.5,0 331.5,-120"/>
<text text-anchor="start" x="217.25" y="-106.5" font-family="Helvetica,sans-Serif" font-size="10.00">TTL_simplex_const_char</text>
<text text-anchor="start" x="230.75" y="-95.25" font-family="Helvetica,sans-Serif" font-size="10.00">_tensor_buffering_t</text>
<text text-anchor="start" x="231" y="-80.5" font-family="Helvetica,sans-Serif" font-size="10.00">+</text>
<text text-anchor="start" x="255.5" y="-80.5" font-family="Helvetica,sans-Serif" font-size="10.00">index</text>
<text text-anchor="start" x="231" y="-65.5" font-family="Helvetica,sans-Serif" font-size="10.00">+</text>
<text text-anchor="start" x="255.5" y="-65.5" font-family="Helvetica,sans-Serif" font-size="10.00">int_base</text>
<text text-anchor="start" x="231" y="-50.5" font-family="Helvetica,sans-Serif" font-size="10.00">+</text>
<text text-anchor="start" x="255.5" y="-50.5" font-family="Helvetica,sans-Serif" font-size="10.00">common</text>
<text text-anchor="start" x="231" y="-35.5" font-family="Helvetica,sans-Serif" font-size="10.00">+</text>
<text text-anchor="start" x="255.5" y="-35.5" font-family="Helvetica,sans-Serif" font-size="10.00">event_in</text>
<text text-anchor="start" x="231" y="-20.5" font-family="Helvetica,sans-Serif" font-size="10.00">+</text>
<text text-anchor="start" x="255.5" y="-20.5" font-family="Helvetica,sans-Serif" font-size="10.00">event_out</text>
<text text-anchor="start" x="270.5" y="-5.5" font-family="Helvetica,sans-Serif" font-size="10.00"> </text>
<polygon fill="#666666" stroke="#666666" points="212.5,-92 212.5,-92 331.5,-92 331.5,-92 212.5,-92"/>
<polygon fill="#666666" stroke="#666666" points="212.5,-17 212.5,-17 253.5,-17 253.5,-17 212.5,-17"/>
<polygon fill="#666666" stroke="#666666" points="253.5,-17 253.5,-17 331.5,-17 331.5,-17 253.5,-17"/>
<polygon fill="none" stroke="#666666" points="212.5,0 212.5,-120 331.5,-120 331.5,0 212.5,0"/>
</a>
</g>
</g>
<!-- Node2 -->
<g id="Node000002" class="node">
<title>Node2</title>
<g id="a_Node000002"><a xlink:href="structTTL__ext__char__tensor__t.html" target="_top" xlink:title="const and non&#45;const tensors in the appropriate address space">
<polygon fill="white" stroke="none" points="110,-335 0,-335 0,-271 110,-271 110,-335"/>
<text text-anchor="start" x="4.75" y="-321.5" font-family="Helvetica,sans-Serif" font-size="10.00">TTL_ext_char_tensor_t</text>
<text text-anchor="start" x="16" y="-306.5" font-family="Helvetica,sans-Serif" font-size="10.00">+</text>
<text text-anchor="start" x="38" y="-306.5" font-family="Helvetica,sans-Serif" font-size="10.00">base</text>
<text text-anchor="start" x="16" y="-291.5" font-family="Helvetica,sans-Serif" font-size="10.00">+</text>
<text text-anchor="start" x="38" y="-291.5" font-family="Helvetica,sans-Serif" font-size="10.00">elem_size</text>
<text text-anchor="start" x="53.5" y="-276.5" font-family="Helvetica,sans-Serif" font-size="10.00"> </text>
<polygon fill="#666666" stroke="#666666" points="0,-318 0,-318 110,-318 110,-318 0,-318"/>
<polygon fill="#666666" stroke="#666666" points="0,-288 0,-288 36,-288 36,-288 0,-288"/>
<polygon fill="#666666" stroke="#666666" points="36,-288 36,-288 110,-288 110,-288 36,-288"/>
<polygon fill="none" stroke="#666666" points="0,-271 0,-335 110,-335 110,-271 0,-271"/>
</a>
</g>
</g>
<!-- Node2&#45;&gt;Node1 -->
<g id="edge1_Node000001_Node000002" class="edge">
<title>Node2&#45;&gt;Node1</title>
<g id="a_edge1_Node000001_Node000002"><a xlink:title=" ">
<path fill="none" stroke="#63b8ff" d="M67.48,-271.03C80.14,-242.1 101.77,-198.75 129.25,-167.25 150.13,-143.31 177.26,-121.47 202.26,-103.89"/>
<polygon fill="none" stroke="#63b8ff" points="202.19,-103.94 204.86,-97.24 212.07,-97.14 209.4,-103.83 202.19,-103.94"/>
</a>
</g>
<text text-anchor="middle" x="163.88" y="-193.5" font-family="Helvetica,sans-Serif" font-size="10.00" fill="grey"> +ext_tensor_in</text>
<text text-anchor="middle" x="163.88" y="-182.25" font-family="Helvetica,sans-Serif" font-size="10.00" fill="grey">+ext_tensor_out</text>
</g>
<!-- Node3 -->
<g id="Node000003" class="node">
<title>Node3</title>
<g id="a_Node000003"><a xlink:href="structTTL__layout__t.html" target="_top" xlink:title="Description of a Tensor layout in memory.">
<polygon fill="white" stroke="none" points="155,-461.25 75,-461.25 75,-397.25 155,-397.25 155,-461.25"/>
<text text-anchor="start" x="86.5" y="-447.75" font-family="Helvetica,sans-Serif" font-size="10.00">TTL_layout_t</text>
<text text-anchor="start" x="79" y="-432.75" font-family="Helvetica,sans-Serif" font-size="10.00">+</text>
<text text-anchor="start" x="89" y="-432.75" font-family="Helvetica,sans-Serif" font-size="10.00">row_spacing</text>
<text text-anchor="start" x="79" y="-417.75" font-family="Helvetica,sans-Serif" font-size="10.00">+</text>
<text text-anchor="start" x="89" y="-417.75" font-family="Helvetica,sans-Serif" font-size="10.00">plane_spacing</text>
<text text-anchor="start" x="113.5" y="-402.75" font-family="Helvetica,sans-Serif" font-size="10.00"> </text>
<polygon fill="#666666" stroke="#666666" points="75,-444.25 75,-444.25 155,-444.25 155,-444.25 75,-444.25"/>
<polygon fill="#666666" stroke="#666666" points="75,-414.25 75,-414.25 87,-414.25 87,-414.25 75,-414.25"/>
<polygon fill="#666666" stroke="#666666" points="87,-414.25 87,-414.25 155,-414.25 155,-414.25 87,-414.25"/>
<polygon fill="none" stroke="#666666" points="75,-397.25 75,-461.25 155,-461.25 155,-397.25 75,-397.25"/>
</a>
</g>
</g>
<!-- Node3&#45;&gt;Node2 -->
<g id="edge2_Node000002_Node000003" class="edge">
<title>Node3&#45;&gt;Node2</title>
<g id="a_edge2_Node000002_Node000003"><a xlink:title=" ">
<path fill="none" stroke="#63b8ff" d="M75.24,-402.23C65.58,-393.77 56.53,-383.48 51.25,-371.75 47.89,-364.28 46.63,-355.86 46.58,-347.57"/>
<polygon fill="none" stroke="#63b8ff" points="46.57,-347.67 42.95,-341.44 47.31,-335.69 50.94,-341.93 46.57,-347.67"/>
</a>
</g>
<text text-anchor="middle" x="68.88" y="-362.25" font-family="Helvetica,sans-Serif" font-size="10.00" fill="grey"> +layout</text>
</g>
<!-- Node8 -->
<g id="Node000008" class="node">
<title>Node8</title>
<g id="a_Node000008"><a xlink:href="structTTL__int__char__tensor__t.html" target="_top" xlink:title="const and non&#45;const tensors in the appropriate address space">
<polygon fill="white" stroke="none" points="236,-335 128,-335 128,-271 236,-271 236,-335"/>
<text text-anchor="start" x="132.88" y="-321.5" font-family="Helvetica,sans-Serif" font-size="10.00">TTL_int_char_tensor_t</text>
<text text-anchor="start" x="143.5" y="-306.5" font-family="Helvetica,sans-Serif" font-size="10.00">+</text>
<text text-anchor="start" x="165" y="-306.5" font-family="Helvetica,sans-Serif" font-size="10.00">base</text>
<text text-anchor="start" x="143.5" y="-291.5" font-family="Helvetica,sans-Serif" font-size="10.00">+</text>
<text text-anchor="start" x="165" y="-291.5" font-family="Helvetica,sans-Serif" font-size="10.00">elem_size</text>
<text text-anchor="start" x="180.5" y="-276.5" font-family="Helvetica,sans-Serif" font-size="10.00"> </text>
<polygon fill="#666666" stroke="#666666" points="128,-318 128,-318 236,-318 236,-318 128,-318"/>
<polygon fill="#666666" stroke="#666666" points="128,-288 128,-288 163,-288 163,-288 128,-288"/>
<polygon fill="#666666" stroke="#666666" points="163,-288 163,-288 236,-288 236,-288 163,-288"/>
<polygon fill="none" stroke="#666666" points="128,-271 128,-335 236,-335 236,-271 128,-271"/>
</a>
</g>
</g>
<!-- Node3&#45;&gt;Node8 -->
<g id="edge9_Node000008_Node000003" class="edge">
<title>Node3&#45;&gt;Node8</title>
<g id="a_edge9_Node000008_Node000003"><a xlink:title=" ">
<path fill="none" stroke="#63b8ff" d="M131.56,-397.54C139.94,-382.01 150.23,-362.92 159.33,-346.05"/>
<polygon fill="none" stroke="#63b8ff" points="159.27,-346.15 158.6,-338.97 164.97,-335.58 165.64,-342.76 159.27,-346.15"/>
</a>
</g>
<text text-anchor="middle" x="166.88" y="-362.25" font-family="Helvetica,sans-Serif" font-size="10.00" fill="grey"> +layout</text>
</g>
<!-- Node4 -->
<g id="Node000004" class="node">
<title>Node4</title>
<g id="a_Node000004"><a xlink:href="structTTL__shape__t.html" target="_top" xlink:title="Description of a Shape.">
<polygon fill="white" stroke="none" points="280.5,-468.75 213.5,-468.75 213.5,-389.75 280.5,-389.75 280.5,-468.75"/>
<text text-anchor="start" x="218.12" y="-455.25" font-family="Helvetica,sans-Serif" font-size="10.00">TTL_shape_t</text>
<text text-anchor="start" x="223" y="-440.25" font-family="Helvetica,sans-Serif" font-size="10.00">+</text>
<text text-anchor="start" x="238.5" y="-440.25" font-family="Helvetica,sans-Serif" font-size="10.00">width</text>
<text text-anchor="start" x="223" y="-425.25" font-family="Helvetica,sans-Serif" font-size="10.00">+</text>
<text text-anchor="start" x="238.5" y="-425.25" font-family="Helvetica,sans-Serif" font-size="10.00">height</text>
<text text-anchor="start" x="223" y="-410.25" font-family="Helvetica,sans-Serif" font-size="10.00">+</text>
<text text-anchor="start" x="238.5" y="-410.25" font-family="Helvetica,sans-Serif" font-size="10.00">depth</text>
<text text-anchor="start" x="245.5" y="-395.25" font-family="Helvetica,sans-Serif" font-size="10.00"> </text>
<polygon fill="#666666" stroke="#666666" points="213.5,-451.75 213.5,-451.75 280.5,-451.75 280.5,-451.75 213.5,-451.75"/>
<polygon fill="#666666" stroke="#666666" points="213.5,-406.75 213.5,-406.75 236.5,-406.75 236.5,-406.75 213.5,-406.75"/>
<polygon fill="#666666" stroke="#666666" points="236.5,-406.75 236.5,-406.75 280.5,-406.75 280.5,-406.75 236.5,-406.75"/>
<polygon fill="none" stroke="#666666" points="213.5,-389.75 213.5,-468.75 280.5,-468.75 280.5,-389.75 213.5,-389.75"/>
</a>
</g>
</g>
<!-- Node4&#45;&gt;Node2 -->
<g id="edge3_Node000002_Node000004" class="edge">
<title>Node4&#45;&gt;Node2</title>
<g id="a_edge3_Node000002_Node000004"><a xlink:title=" ">
<path fill="none" stroke="#63b8ff" d="M213.9,-411.73C198.86,-404.53 180.73,-396.26 164,-389.75 139.44,-380.19 129.1,-386.85 107.5,-371.75 97.27,-364.6 88.11,-354.86 80.41,-345"/>
<polygon fill="none" stroke="#63b8ff" points="80.56,-345.2 73.79,-342.72 73.47,-335.51 80.24,-338 80.56,-345.2"/>
</a>
</g>
<text text-anchor="middle" x="124.25" y="-362.25" font-family="Helvetica,sans-Serif" font-size="10.00" fill="grey"> +shape</text>
</g>
<!-- Node5 -->
<g id="Node000005" class="node">
<title>Node5</title>
<g id="a_Node000005"><a xlink:href="structTTL__tile__t.html" target="_top" xlink:title=" ">
<polygon fill="white" stroke="none" points="409,-216.25 355,-216.25 355,-167.25 409,-167.25 409,-216.25"/>
<text text-anchor="start" x="359.88" y="-202.75" font-family="Helvetica,sans-Serif" font-size="10.00">TTL_tile_t</text>
<text text-anchor="start" x="380.5" y="-187.75" font-family="Helvetica,sans-Serif" font-size="10.00"> </text>
<text text-anchor="start" x="380.5" y="-172.75" font-family="Helvetica,sans-Serif" font-size="10.00"> </text>
<polygon fill="#666666" stroke="#666666" points="355,-199.25 355,-199.25 409,-199.25 409,-199.25 355,-199.25"/>
<polygon fill="#666666" stroke="#666666" points="355,-184.25 355,-184.25 409,-184.25 409,-184.25 355,-184.25"/>
<polygon fill="none" stroke="#666666" points="355,-167.25 355,-216.25 409,-216.25 409,-167.25 355,-167.25"/>
</a>
</g>
</g>
<!-- Node4&#45;&gt;Node5 -->
<g id="edge5_Node000005_Node000004" class="edge">
<title>Node4&#45;&gt;Node5</title>
<g id="a_edge5_Node000005_Node000004"><a xlink:title=" ">
<path fill="none" stroke="#63b8ff" d="M280.3,-419.67C316.46,-408.46 372.68,-385.02 400,-342.5 426.08,-301.91 421.32,-280.62 408,-234.25 407.36,-232.02 406.56,-229.79 405.64,-227.59"/>
<polygon fill="none" stroke="#63b8ff" points="405.71,-227.73 399.42,-224.2 400.25,-217.04 406.54,-220.56 405.71,-227.73"/>
</a>
</g>
<text text-anchor="middle" x="435.25" y="-299.12" font-family="Helvetica,sans-Serif" font-size="10.00" fill="grey"> +shape</text>
</g>
<!-- Node7 -->
<g id="Node000007" class="node">
<title>Node7</title>
<g id="a_Node000007"><a xlink:href="structTTL__int__char__sub__tensor__t.html" target="_top" xlink:title="const and non&#45;const sub tensors in the appropriate address space">
<polygon fill="white" stroke="none" points="336.5,-216.25 207.5,-216.25 207.5,-167.25 336.5,-167.25 336.5,-216.25"/>
<text text-anchor="start" x="212.38" y="-202.75" font-family="Helvetica,sans-Serif" font-size="10.00">TTL_int_char_sub_tensor_t</text>
<text text-anchor="start" x="233.5" y="-187.75" font-family="Helvetica,sans-Serif" font-size="10.00">+</text>
<text text-anchor="start" x="265.5" y="-187.75" font-family="Helvetica,sans-Serif" font-size="10.00">origin</text>
<text text-anchor="start" x="270.5" y="-172.75" font-family="Helvetica,sans-Serif" font-size="10.00"> </text>
<polygon fill="#666666" stroke="#666666" points="207.5,-199.25 207.5,-199.25 336.5,-199.25 336.5,-199.25 207.5,-199.25"/>
<polygon fill="#666666" stroke="#666666" points="207.5,-184.25 207.5,-184.25 263.5,-184.25 263.5,-184.25 207.5,-184.25"/>
<polygon fill="#666666" stroke="#666666" points="263.5,-184.25 263.5,-184.25 336.5,-184.25 336.5,-184.25 263.5,-184.25"/>
<polygon fill="none" stroke="#666666" points="207.5,-167.25 207.5,-216.25 336.5,-216.25 336.5,-167.25 207.5,-167.25"/>
</a>
</g>
</g>
<!-- Node4&#45;&gt;Node7 -->
<g id="edge11_Node000007_Node000004" class="edge">
<title>Node4&#45;&gt;Node7</title>
<g id="a_edge11_Node000007_Node000004"><a xlink:title=" ">
<path fill="none" stroke="#63b8ff" d="M252.66,-389.99C253.49,-383.89 254.3,-377.65 255,-371.75 260.83,-322.41 265.98,-265.23 269.05,-229.03"/>
<polygon fill="none" stroke="#63b8ff" points="269.04,-229.1 265.55,-222.79 270.04,-217.14 273.53,-223.45 269.04,-229.1"/>
</a>
</g>
<text text-anchor="middle" x="282.25" y="-299.12" font-family="Helvetica,sans-Serif" font-size="10.00" fill="grey"> +shape</text>
</g>
<!-- Node4&#45;&gt;Node8 -->
<g id="edge10_Node000008_Node000004" class="edge">
<title>Node4&#45;&gt;Node8</title>
<g id="a_edge10_Node000008_Node000004"><a xlink:title=" ">
<path fill="none" stroke="#63b8ff" d="M226.97,-389.96C219.74,-376.14 211.54,-360.47 204.15,-346.33"/>
<polygon fill="none" stroke="#63b8ff" points="204.14,-346.32 197.81,-342.86 198.58,-335.69 204.9,-339.15 204.14,-346.32"/>
</a>
</g>
<text text-anchor="middle" x="233.25" y="-362.25" font-family="Helvetica,sans-Serif" font-size="10.00" fill="grey"> +shape</text>
</g>
<!-- Node5&#45;&gt;Node1 -->
<g id="edge4_Node000001_Node000005" class="edge">
<title>Node5&#45;&gt;Node1</title>
<g id="a_edge4_Node000001_Node000005"><a xlink:title=" ">
<path fill="none" stroke="#63b8ff" d="M374.29,-167.26C370.52,-157.68 365.4,-146.81 359,-138 353.41,-130.31 346.93,-122.85 340.08,-115.79"/>
<polygon fill="none" stroke="#63b8ff" points="340.43,-116.13 333.35,-114.76 331.89,-107.7 338.97,-109.07 340.43,-116.13"/>
</a>
</g>
<text text-anchor="middle" x="408.12" y="-139.75" font-family="Helvetica,sans-Serif" font-size="10.00" fill="grey"> +next_exported_tile</text>
</g>
<!-- Node6 -->
<g id="Node000006" class="node">
<title>Node6</title>
<g id="a_Node000006"><a xlink:href="structTTL__offset__t.html" target="_top" xlink:title="Description of the 3D offset of an object.">
<polygon fill="white" stroke="none" points="390.5,-342.5 325.5,-342.5 325.5,-263.5 390.5,-263.5 390.5,-342.5"/>
<text text-anchor="start" x="330.25" y="-329" font-family="Helvetica,sans-Serif" font-size="10.00">TTL_offset_t</text>
<text text-anchor="start" x="340" y="-314" font-family="Helvetica,sans-Serif" font-size="10.00">+</text>
<text text-anchor="start" x="360.5" y="-314" font-family="Helvetica,sans-Serif" font-size="10.00">x</text>
<text text-anchor="start" x="340" y="-299" font-family="Helvetica,sans-Serif" font-size="10.00">+</text>
<text text-anchor="start" x="360.5" y="-299" font-family="Helvetica,sans-Serif" font-size="10.00">y</text>
<text text-anchor="start" x="340" y="-284" font-family="Helvetica,sans-Serif" font-size="10.00">+</text>
<text text-anchor="start" x="360.5" y="-284" font-family="Helvetica,sans-Serif" font-size="10.00">z</text>
<text text-anchor="start" x="356.5" y="-269" font-family="Helvetica,sans-Serif" font-size="10.00"> </text>
<polygon fill="#666666" stroke="#666666" points="325.5,-325.5 325.5,-325.5 390.5,-325.5 390.5,-325.5 325.5,-325.5"/>
<polygon fill="#666666" stroke="#666666" points="325.5,-280.5 325.5,-280.5 358.5,-280.5 358.5,-280.5 325.5,-280.5"/>
<polygon fill="#666666" stroke="#666666" points="358.5,-280.5 358.5,-280.5 390.5,-280.5 390.5,-280.5 358.5,-280.5"/>
<polygon fill="none" stroke="#666666" points="325.5,-263.5 325.5,-342.5 390.5,-342.5 390.5,-263.5 325.5,-263.5"/>
</a>
</g>
</g>
<!-- Node6&#45;&gt;Node5 -->
<g id="edge6_Node000005_Node000006" class="edge">
<title>Node6&#45;&gt;Node5</title>
<g id="a_edge6_Node000005_Node000006"><a xlink:title=" ">
<path fill="none" stroke="#63b8ff" d="M366.39,-263.79C368.9,-252.38 371.64,-239.92 374.11,-228.66"/>
<polygon fill="none" stroke="#63b8ff" points="374.1,-228.73 371.48,-222.01 376.67,-217.01 379.29,-223.73 374.1,-228.73"/>
</a>
</g>
<text text-anchor="middle" x="388.12" y="-236" font-family="Helvetica,sans-Serif" font-size="10.00" fill="grey"> +offset</text>
</g>
<!-- Node6&#45;&gt;Node7 -->
<g id="edge12_Node000007_Node000006" class="edge">
<title>Node6&#45;&gt;Node7</title>
<g id="a_edge12_Node000007_Node000006"><a xlink:title=" ">
<path fill="none" stroke="#63b8ff" d="M327.24,-263.78C322.37,-257.68 317.41,-251.43 312.75,-245.5 307.94,-239.38 302.84,-232.84 297.94,-226.51"/>
<polygon fill="none" stroke="#63b8ff" points="297.85,-226.4 291.02,-224.1 290.52,-216.9 297.35,-219.21 297.85,-226.4"/>
</a>
</g>
<text text-anchor="middle" x="338.62" y="-236" font-family="Helvetica,sans-Serif" font-size="10.00" fill="grey"> +sub_offset</text>
</g>
<!-- Node7&#45;&gt;Node1 -->
<g id="edge7_Node000001_Node000007" class="edge">
<title>Node7&#45;&gt;Node1</title>
<g id="a_edge7_Node000001_Node000007"><a xlink:title=" ">
<path fill="none" stroke="#63b8ff" d="M272,-167.25C272,-157.39 272,-145.33 272,-132.93"/>
<polygon fill="none" stroke="#63b8ff" points="272,-132.86 268,-126.86 272,-120.86 276,-126.86 272,-132.86"/>
</a>
</g>
<text text-anchor="middle" x="314.75" y="-139.75" font-family="Helvetica,sans-Serif" font-size="10.00" fill="grey"> +int_prev_imported</text>
</g>
<!-- Node8&#45;&gt;Node7 -->
<g id="edge8_Node000007_Node000008" class="edge">
<title>Node8&#45;&gt;Node7</title>
<g id="a_edge8_Node000007_Node000008"><a xlink:title=" ">
<path fill="none" stroke="#63b8ff" d="M197.66,-271.22C204.54,-259.09 213.22,-245.43 222.75,-234.25 225.47,-231.06 228.45,-227.91 231.56,-224.87"/>
<polygon fill="none" stroke="#63b8ff" points="231.62,-224.81 233.33,-217.81 240.45,-216.69 238.74,-223.7 231.62,-224.81"/>
</a>
</g>
<text text-anchor="middle" x="239.62" y="-236" font-family="Helvetica,sans-Serif" font-size="10.00" fill="grey"> +tensor</text>
</g>
</g>
</svg>
