<?xml version="1.0" encoding="UTF-8" standalone="no"?>
<!DOCTYPE svg PUBLIC "-//W3C//DTD SVG 1.1//EN"
 "http://www.w3.org/Graphics/SVG/1.1/DTD/svg11.dtd">
<!-- Generated by graphviz version 12.0.0 (20240704.0754)
 -->
<!-- Title: TTL_io_ulong_tensor_t Pages: 1 -->
<svg width="274pt" height="417pt"
 viewBox="0.00 0.00 273.50 417.00" xmlns="http://www.w3.org/2000/svg" xmlns:xlink="http://www.w3.org/1999/xlink">
<g id="graph0" class="graph" transform="scale(1 1) rotate(0) translate(4 413)">
<title>TTL_io_ulong_tensor_t</title>
<!-- Node1 -->
<g id="Node000001" class="node">
<title>Node1</title>
<g id="a_Node000001"><a xlink:title="Describes a pair of internal Tensors after an operation.">
<polygon fill="#999999" stroke="none" points="202.5,-49 93.5,-49 93.5,0 202.5,0 202.5,-49"/>
<text text-anchor="start" x="98.12" y="-35.5" font-family="Helvetica,sans-Serif" font-size="10.00">TTL_io_ulong_tensor_t</text>
<text text-anchor="start" x="146.5" y="-20.5" font-family="Helvetica,sans-Serif" font-size="10.00"> </text>
<text text-anchor="start" x="146.5" y="-5.5" font-family="Helvetica,sans-Serif" font-size="10.00"> </text>
<polygon fill="#666666" stroke="#666666" points="93.5,-32 93.5,-32 202.5,-32 202.5,-32 93.5,-32"/>
<polygon fill="#666666" stroke="#666666" points="93.5,-17 93.5,-17 202.5,-17 202.5,-17 93.5,-17"/>
<polygon fill="none" stroke="#666666" points="93.5,0 93.5,-49 202.5,-49 202.5,0 93.5,0"/>
</a>
</g>
</g>
<!-- Node2 -->
<g id="Node000002" class="node">
<title>Node2</title>
<g id="a_Node000002"><a xlink:href="structTTL__int__ulong__sub__tensor__t.html" target="_top" xlink:title="const and non&#45;const sub tensors in the appropriate address space">
<polygon fill="white" stroke="none" points="214.5,-156.5 81.5,-156.5 81.5,-107.5 214.5,-107.5 214.5,-156.5"/>
<text text-anchor="start" x="86.12" y="-143" font-family="Helvetica,sans-Serif" font-size="10.00">TTL_int_ulong_sub_tensor_t</text>
<text text-anchor="start" x="108.5" y="-128" font-family="Helvetica,sans-Serif" font-size="10.00">+</text>
<text text-anchor="start" x="141.5" y="-128" font-family="Helvetica,sans-Serif" font-size="10.00">origin</text>
<text text-anchor="start" x="146.5" y="-113" font-family="Helvetica,sans-Serif" font-size="10.00"> </text>
<polygon fill="#666666" stroke="#666666" points="81.5,-139.5 81.5,-139.5 214.5,-139.5 214.5,-139.5 81.5,-139.5"/>
<polygon fill="#666666" stroke="#666666" points="81.5,-124.5 81.5,-124.5 139.5,-124.5 139.5,-124.5 81.5,-124.5"/>
<polygon fill="#666666" stroke="#666666" points="139.5,-124.5 139.5,-124.5 214.5,-124.5 214.5,-124.5 139.5,-124.5"/>
<polygon fill="none" stroke="#666666" points="81.5,-107.5 81.5,-156.5 214.5,-156.5 214.5,-107.5 81.5,-107.5"/>
</a>
</g>
</g>
<!-- Node2&#45;&gt;Node1 -->
<g id="edge1_Node000001_Node000002" class="edge">
<title>Node2&#45;&gt;Node1</title>
<g id="a_edge1_Node000001_Node000002"><a xlink:title=" ">
<path fill="none" stroke="#63b8ff" d="M148,-107.59C148,-94.06 148,-76.77 148,-61.55"/>
<polygon fill="none" stroke="#63b8ff" points="148,-61.75 144,-55.75 148,-49.75 152,-55.75 148,-61.75"/>
</a>
</g>
<text text-anchor="middle" x="183.25" y="-80" font-family="Helvetica,sans-Serif" font-size="10.00" fill="grey"> +imported_to</text>
<text text-anchor="middle" x="183.25" y="-68.75" font-family="Helvetica,sans-Serif" font-size="10.00" fill="grey">+to_export_from</text>
</g>
<!-- Node3 -->
<g id="Node000003" class="node">
<title>Node3</title>
<g id="a_Node000003"><a xlink:href="structTTL__int__ulong__tensor__t.html" target="_top" xlink:title="const and non&#45;const tensors in the appropriate address space">
<polygon fill="white" stroke="none" points="112,-275.25 0,-275.25 0,-211.25 112,-211.25 112,-275.25"/>
<text text-anchor="start" x="4.62" y="-261.75" font-family="Helvetica,sans-Serif" font-size="10.00">TTL_int_ulong_tensor_t</text>
<text text-anchor="start" x="16.5" y="-246.75" font-family="Helvetica,sans-Serif" font-size="10.00">+</text>
<text text-anchor="start" x="39" y="-246.75" font-family="Helvetica,sans-Serif" font-size="10.00">base</text>
<text text-anchor="start" x="16.5" y="-231.75" font-family="Helvetica,sans-Serif" font-size="10.00">+</text>
<text text-anchor="start" x="39" y="-231.75" font-family="Helvetica,sans-Serif" font-size="10.00">elem_size</text>
<text text-anchor="start" x="54.5" y="-216.75" font-family="Helvetica,sans-Serif" font-size="10.00"> </text>
<polygon fill="#666666" stroke="#666666" points="0,-258.25 0,-258.25 112,-258.25 112,-258.25 0,-258.25"/>
<polygon fill="#666666" stroke="#666666" points="0,-228.25 0,-228.25 37,-228.25 37,-228.25 0,-228.25"/>
<polygon fill="#666666" stroke="#666666" points="37,-228.25 37,-228.25 112,-228.25 112,-228.25 37,-228.25"/>
<polygon fill="none" stroke="#666666" points="0,-211.25 0,-275.25 112,-275.25 112,-211.25 0,-211.25"/>
</a>
</g>
</g>
<!-- Node3&#45;&gt;Node2 -->
<g id="edge2_Node000002_Node000003" class="edge">
<title>Node3&#45;&gt;Node2</title>
<g id="a_edge2_Node000002_Node000003"><a xlink:title=" ">
<path fill="none" stroke="#63b8ff" d="M72.65,-211.52C79.9,-199.4 88.97,-185.72 98.75,-174.5 101.5,-171.34 104.51,-168.21 107.63,-165.18"/>
<polygon fill="none" stroke="#63b8ff" points="107.69,-165.12 109.42,-158.12 116.55,-157.03 114.82,-164.03 107.69,-165.12"/>
</a>
</g>
<text text-anchor="middle" x="116.62" y="-176.25" font-family="Helvetica,sans-Serif" font-size="10.00" fill="grey"> +tensor</text>
</g>
<!-- Node4 -->
<g id="Node000004" class="node">
<title>Node4</title>
<g id="a_Node000004"><a xlink:href="structTTL__layout__t.html" target="_top" xlink:title="Description of a Tensor layout in memory.">
<polygon fill="white" stroke="none" points="81,-401.5 1,-401.5 1,-337.5 81,-337.5 81,-401.5"/>
<text text-anchor="start" x="12.5" y="-388" font-family="Helvetica,sans-Serif" font-size="10.00">TTL_layout_t</text>
<text text-anchor="start" x="5" y="-373" font-family="Helvetica,sans-Serif" font-size="10.00">+</text>
<text text-anchor="start" x="15" y="-373" font-family="Helvetica,sans-Serif" font-size="10.00">row_spacing</text>
<text text-anchor="start" x="5" y="-358" font-family="Helvetica,sans-Serif" font-size="10.00">+</text>
<text text-anchor="start" x="15" y="-358" font-family="Helvetica,sans-Serif" font-size="10.00">plane_spacing</text>
<text text-anchor="start" x="39.5" y="-343" font-family="Helvetica,sans-Serif" font-size="10.00"> </text>
<polygon fill="#666666" stroke="#666666" points="1,-384.5 1,-384.5 81,-384.5 81,-384.5 1,-384.5"/>
<polygon fill="#666666" stroke="#666666" points="1,-354.5 1,-354.5 13,-354.5 13,-354.5 1,-354.5"/>
<polygon fill="#666666" stroke="#666666" points="13,-354.5 13,-354.5 81,-354.5 81,-354.5 13,-354.5"/>
<polygon fill="none" stroke="#666666" points="1,-337.5 1,-401.5 81,-401.5 81,-337.5 1,-337.5"/>
</a>
</g>
</g>
<!-- Node4&#45;&gt;Node3 -->
<g id="edge3_Node000003_Node000004" class="edge">
<title>Node4&#45;&gt;Node3</title>
<g id="a_edge3_Node000003_Node000004"><a xlink:title=" ">
<path fill="none" stroke="#63b8ff" d="M40.14,-337.7C40.19,-326.08 40.7,-312.77 42.25,-300.75 42.81,-296.41 43.58,-291.93 44.46,-287.47"/>
<polygon fill="none" stroke="#63b8ff" points="44.41,-287.7 41.8,-280.98 47,-275.98 49.61,-282.71 44.41,-287.7"/>
</a>
</g>
<text text-anchor="middle" x="59.88" y="-302.5" font-family="Helvetica,sans-Serif" font-size="10.00" fill="grey"> +layout</text>
</g>
<!-- Node5 -->
<g id="Node000005" class="node">
<title>Node5</title>
<g id="a_Node000005"><a xlink:href="structTTL__shape__t.html" target="_top" xlink:title="Description of a Shape.">
<polygon fill="white" stroke="none" points="173.5,-409 106.5,-409 106.5,-330 173.5,-330 173.5,-409"/>
<text text-anchor="start" x="111.12" y="-395.5" font-family="Helvetica,sans-Serif" font-size="10.00">TTL_shape_t</text>
<text text-anchor="start" x="116" y="-380.5" font-family="Helvetica,sans-Serif" font-size="10.00">+</text>
<text text-anchor="start" x="131.5" y="-380.5" font-family="Helvetica,sans-Serif" font-size="10.00">width</text>
<text text-anchor="start" x="116" y="-365.5" font-family="Helvetica,sans-Serif" font-size="10.00">+</text>
<text text-anchor="start" x="131.5" y="-365.5" font-family="Helvetica,sans-Serif" font-size="10.00">height</text>
<text text-anchor="start" x="116" y="-350.5" font-family="Helvetica,sans-Serif" font-size="10.00">+</text>
<text text-anchor="start" x="131.5" y="-350.5" font-family="Helvetica,sans-Serif" font-size="10.00">depth</text>
<text text-anchor="start" x="138.5" y="-335.5" font-family="Helvetica,sans-Serif" font-size="10.00"> </text>
<polygon fill="#666666" stroke="#666666" points="106.5,-392 106.5,-392 173.5,-392 173.5,-392 106.5,-392"/>
<polygon fill="#666666" stroke="#666666" points="106.5,-347 106.5,-347 129.5,-347 129.5,-347 106.5,-347"/>
<polygon fill="#666666" stroke="#666666" points="129.5,-347 129.5,-347 173.5,-347 173.5,-347 129.5,-347"/>
<polygon fill="none" stroke="#666666" points="106.5,-330 106.5,-409 173.5,-409 173.5,-330 106.5,-330"/>
</a>
</g>
</g>
<!-- Node5&#45;&gt;Node2 -->
<g id="edge5_Node000002_Node000005" class="edge">
<title>Node5&#45;&gt;Node2</title>
<g id="a_edge5_Node000002_Node000005"><a xlink:title=" ">
<path fill="none" stroke="#63b8ff" d="M141.3,-330.14C142.82,-285.59 145.29,-212.65 146.77,-169.09"/>
<polygon fill="none" stroke="#63b8ff" points="146.77,-169.21 142.98,-163.08 147.18,-157.22 150.97,-163.35 146.77,-169.21"/>
</a>
</g>
<text text-anchor="middle" x="163.25" y="-239.38" font-family="Helvetica,sans-Serif" font-size="10.00" fill="grey"> +shape</text>
</g>
<!-- Node5&#45;&gt;Node3 -->
<g id="edge4_Node000003_Node000005" class="edge">
<title>Node5&#45;&gt;Node3</title>
<g id="a_edge4_Node000003_Node000005"><a xlink:title=" ">
<path fill="none" stroke="#63b8ff" d="M112.07,-330.09C107.81,-324.07 103.5,-317.89 99.5,-312 93.81,-303.62 87.86,-294.57 82.25,-285.88"/>
<polygon fill="none" stroke="#63b8ff" points="82.34,-286.02 75.74,-283.13 75.86,-275.92 82.47,-278.81 82.34,-286.02"/>
</a>
</g>
<text text-anchor="middle" x="117.25" y="-302.5" font-family="Helvetica,sans-Serif" font-size="10.00" fill="grey"> +shape</text>
</g>
<!-- Node6 -->
<g id="Node000006" class="node">
<title>Node6</title>
<g id="a_Node000006"><a xlink:href="structTTL__offset__t.html" target="_top" xlink:title="Description of the 3D offset of an object.">
<polygon fill="white" stroke="none" points="265.5,-282.75 200.5,-282.75 200.5,-203.75 265.5,-203.75 265.5,-282.75"/>
<text text-anchor="start" x="205.25" y="-269.25" font-family="Helvetica,sans-Serif" font-size="10.00">TTL_offset_t</text>
<text text-anchor="start" x="215" y="-254.25" font-family="Helvetica,sans-Serif" font-size="10.00">+</text>
<text text-anchor="start" x="235.5" y="-254.25" font-family="Helvetica,sans-Serif" font-size="10.00">x</text>
<text text-anchor="start" x="215" y="-239.25" font-family="Helvetica,sans-Serif" font-size="10.00">+</text>
<text text-anchor="start" x="235.5" y="-239.25" font-family="Helvetica,sans-Serif" font-size="10.00">y</text>
<text text-anchor="start" x="215" y="-224.25" font-family="Helvetica,sans-Serif" font-size="10.00">+</text>
<text text-anchor="start" x="235.5" y="-224.25" font-family="Helvetica,sans-Serif" font-size="10.00">z</text>
<text text-anchor="start" x="231.5" y="-209.25" font-family="Helvetica,sans-Serif" font-size="10.00"> </text>
<polygon fill="#666666" stroke="#666666" points="200.5,-265.75 200.5,-265.75 265.5,-265.75 265.5,-265.75 200.5,-265.75"/>
<polygon fill="#666666" stroke="#666666" points="200.5,-220.75 200.5,-220.75 233.5,-220.75 233.5,-220.75 200.5,-220.75"/>
<polygon fill="#666666" stroke="#666666" points="233.5,-220.75 233.5,-220.75 265.5,-220.75 265.5,-220.75 233.5,-220.75"/>
<polygon fill="none" stroke="#666666" points="200.5,-203.75 200.5,-282.75 265.5,-282.75 265.5,-203.75 200.5,-203.75"/>
</a>
</g>
</g>
<!-- Node6&#45;&gt;Node2 -->
<g id="edge6_Node000002_Node000006" class="edge">
<title>Node6&#45;&gt;Node2</title>
<g id="a_edge6_Node000002_Node000006"><a xlink:title=" ">
<path fill="none" stroke="#63b8ff" d="M203.27,-204.04C193.72,-191.76 183.22,-178.26 173.96,-166.36"/>
<polygon fill="none" stroke="#63b8ff" points="174.11,-166.56 167.27,-164.29 166.75,-157.09 173.59,-159.37 174.11,-166.56"/>
</a>
</g>
<text text-anchor="middle" x="213.62" y="-176.25" font-family="Helvetica,sans-Serif" font-size="10.00" fill="grey"> +sub_offset</text>
</g>
</g>
</svg>
