<?xml version="1.0" encoding="UTF-8" standalone="no"?>
<!DOCTYPE svg PUBLIC "-//W3C//DTD SVG 1.1//EN"
 "http://www.w3.org/Graphics/SVG/1.1/DTD/svg11.dtd">
<!-- Generated by graphviz version 3.0.0 (20221109.1736)
 -->
<!-- Title: TTL_DOUBLE_BUFFERING_TYPE Pages: 1 -->
<svg width="181pt" height="298pt"
 viewBox="0.00 0.00 181.00 298.00" xmlns="http://www.w3.org/2000/svg" xmlns:xlink="http://www.w3.org/1999/xlink">
<g id="graph0" class="graph" transform="scale(1 1) rotate(0) translate(4 294)">
<title>TTL_DOUBLE_BUFFERING_TYPE</title>
<polygon fill="white" stroke="transparent" points="-4,4 -4,-294 177,-294 177,4 -4,4"/>
<!-- Node1 -->
<g id="node1" class="node">
<title>Node1</title>
<g id="a_node1"><a xlink:title="Data required to perform double buffer pipelining.">
<polygon fill="#bfbfbf" stroke="black" points="0,-0.5 0,-57.5 173,-57.5 173,-0.5 0,-0.5"/>
<text text-anchor="middle" x="86.5" y="-45.5" font-family="Helvetica,sans-Serif" font-size="10.00">TTL_DOUBLE_BUFFERING_TYPE</text>
<polyline fill="none" stroke="black" points="0,-38.5 173,-38.5 "/>
<text text-anchor="start" x="8" y="-26.5" font-family="Helvetica,sans-Serif" font-size="10.00">+ event</text>
<polyline fill="none" stroke="black" points="0,-19.5 173,-19.5 "/>
<text text-anchor="start" x="8" y="-7.5" font-family="Helvetica,sans-Serif" font-size="10.00">+ TTL_common_buffering_t()</text>
</a>
</g>
</g>
<!-- Node2 -->
<g id="node2" class="node">
<title>Node2</title>
<g id="a_node2"><a xlink:href="structTTL__tile__t.html" target="_top" xlink:title=" ">
<polygon fill="white" stroke="black" points="56,-105.5 56,-162.5 117,-162.5 117,-105.5 56,-105.5"/>
<text text-anchor="middle" x="86.5" y="-150.5" font-family="Helvetica,sans-Serif" font-size="10.00">TTL_tile_t</text>
<polyline fill="none" stroke="black" points="56,-143.5 117,-143.5 "/>
<text text-anchor="middle" x="86.5" y="-131.5" font-family="Helvetica,sans-Serif" font-size="10.00"> </text>
<polyline fill="none" stroke="black" points="56,-124.5 117,-124.5 "/>
<text text-anchor="middle" x="86.5" y="-112.5" font-family="Helvetica,sans-Serif" font-size="10.00"> </text>
</a>
</g>
</g>
<!-- Node2&#45;&gt;Node1 -->
<g id="edge1" class="edge">
<title>Node2&#45;&gt;Node1</title>
<path fill="none" stroke="#404040" d="M86.5,-105.4C86.5,-94.55 86.5,-81.87 86.5,-70.05"/>
<polygon fill="none" stroke="#404040" points="86.5,-69.68 82.5,-63.68 86.5,-57.68 90.5,-63.68 86.5,-69.68"/>
<text text-anchor="middle" x="109.5" y="-79" font-family="Helvetica,sans-Serif" font-size="10.00"> +prev_tile</text>
</g>
<!-- Node3 -->
<g id="node3" class="node">
<title>Node3</title>
<g id="a_node3"><a xlink:href="structTTL__shape__t.html" target="_top" xlink:title="Description of a Shape.">
<polygon fill="white" stroke="black" points="4.5,-210.5 4.5,-289.5 78.5,-289.5 78.5,-210.5 4.5,-210.5"/>
<text text-anchor="middle" x="41.5" y="-277.5" font-family="Helvetica,sans-Serif" font-size="10.00">TTL_shape_t</text>
<polyline fill="none" stroke="black" points="4.5,-270.5 78.5,-270.5 "/>
<text text-anchor="start" x="12.5" y="-258.5" font-family="Helvetica,sans-Serif" font-size="10.00">+ width</text>
<text text-anchor="start" x="12.5" y="-247.5" font-family="Helvetica,sans-Serif" font-size="10.00">+ height</text>
<text text-anchor="start" x="12.5" y="-236.5" font-family="Helvetica,sans-Serif" font-size="10.00">+ depth</text>
<polyline fill="none" stroke="black" points="4.5,-229.5 78.5,-229.5 "/>
<text text-anchor="middle" x="41.5" y="-217.5" font-family="Helvetica,sans-Serif" font-size="10.00"> </text>
</a>
</g>
</g>
<!-- Node3&#45;&gt;Node2 -->
<g id="edge2" class="edge">
<title>Node3&#45;&gt;Node2</title>
<path fill="none" stroke="#404040" d="M56.73,-210.4C61.36,-198.68 66.45,-185.79 71.09,-174.04"/>
<polygon fill="none" stroke="#404040" points="71.14,-173.91 69.62,-166.86 75.55,-162.75 77.06,-169.8 71.14,-173.91"/>
<text text-anchor="middle" x="86" y="-184" font-family="Helvetica,sans-Serif" font-size="10.00"> +shape</text>
</g>
<!-- Node4 -->
<g id="node4" class="node">
<title>Node4</title>
<g id="a_node4"><a xlink:href="structTTL__offset__t.html" target="_top" xlink:title="Description of the 3D offset of an object.">
<polygon fill="white" stroke="black" points="96.5,-210.5 96.5,-289.5 168.5,-289.5 168.5,-210.5 96.5,-210.5"/>
<text text-anchor="middle" x="132.5" y="-277.5" font-family="Helvetica,sans-Serif" font-size="10.00">TTL_offset_t</text>
<polyline fill="none" stroke="black" points="96.5,-270.5 168.5,-270.5 "/>
<text text-anchor="start" x="104.5" y="-258.5" font-family="Helvetica,sans-Serif" font-size="10.00">+ x</text>
<text text-anchor="start" x="104.5" y="-247.5" font-family="Helvetica,sans-Serif" font-size="10.00">+ y</text>
<text text-anchor="start" x="104.5" y="-236.5" font-family="Helvetica,sans-Serif" font-size="10.00">+ z</text>
<polyline fill="none" stroke="black" points="96.5,-229.5 168.5,-229.5 "/>
<text text-anchor="middle" x="132.5" y="-217.5" font-family="Helvetica,sans-Serif" font-size="10.00"> </text>
</a>
</g>
</g>
<!-- Node4&#45;&gt;Node2 -->
<g id="edge3" class="edge">
<title>Node4&#45;&gt;Node2</title>
<path fill="none" stroke="#404040" d="M118.86,-210.32C115.3,-200.69 111.38,-190.42 107.5,-181 106.53,-178.65 105.52,-176.25 104.48,-173.83"/>
<polygon fill="none" stroke="#404040" points="104.36,-173.56 98.27,-169.69 99.5,-162.58 105.59,-166.45 104.36,-173.56"/>
<text text-anchor="middle" x="127" y="-184" font-family="Helvetica,sans-Serif" font-size="10.00"> +offset</text>
</g>
</g>
</svg>
