<?xml version="1.0" encoding="UTF-8" standalone="no"?>
<!DOCTYPE svg PUBLIC "-//W3C//DTD SVG 1.1//EN"
 "http://www.w3.org/Graphics/SVG/1.1/DTD/svg11.dtd">
<!-- Generated by graphviz version 12.0.0 (20240704.0754)
 -->
<!-- Title: TTL_simplex_const_int_tensor_buffering_t Pages: 1 -->
<svg width="445pt" height="477pt"
 viewBox="0.00 0.00 444.50 476.75" xmlns="http://www.w3.org/2000/svg" xmlns:xlink="http://www.w3.org/1999/xlink">
<g id="graph0" class="graph" transform="scale(1 1) rotate(0) translate(4 472.75)">
<title>TTL_simplex_const_int_tensor_buffering_t</title>
<!-- Node1 -->
<g id="Node000001" class="node">
<title>Node1</title>
<g id="a_Node000001"><a xlink:title=" ">
<polygon fill="#999999" stroke="none" points="311.5,-120 200.5,-120 200.5,0 311.5,0 311.5,-120"/>
<text text-anchor="start" x="205.38" y="-106.5" font-family="Helvetica,sans-Serif" font-size="10.00">TTL_simplex_const_int</text>
<text text-anchor="start" x="214.75" y="-95.25" font-family="Helvetica,sans-Serif" font-size="10.00">_tensor_buffering_t</text>
<text text-anchor="start" x="217" y="-80.5" font-family="Helvetica,sans-Serif" font-size="10.00">+</text>
<text text-anchor="start" x="239.5" y="-80.5" font-family="Helvetica,sans-Serif" font-size="10.00">index</text>
<text text-anchor="start" x="217" y="-65.5" font-family="Helvetica,sans-Serif" font-size="10.00">+</text>
<text text-anchor="start" x="239.5" y="-65.5" font-family="Helvetica,sans-Serif" font-size="10.00">int_base</text>
<text text-anchor="start" x="217" y="-50.5" font-family="Helvetica,sans-Serif" font-size="10.00">+</text>
<text text-anchor="start" x="239.5" y="-50.5" font-family="Helvetica,sans-Serif" font-size="10.00">common</text>
<text text-anchor="start" x="217" y="-35.5" font-family="Helvetica,sans-Serif" font-size="10.00">+</text>
<text text-anchor="start" x="239.5" y="-35.5" font-family="Helvetica,sans-Serif" font-size="10.00">event_in</text>
<text text-anchor="start" x="217" y="-20.5" font-family="Helvetica,sans-Serif" font-size="10.00">+</text>
<text text-anchor="start" x="239.5" y="-20.5" font-family="Helvetica,sans-Serif" font-size="10.00">event_out</text>
<text text-anchor="start" x="254.5" y="-5.5" font-family="Helvetica,sans-Serif" font-size="10.00"> </text>
<polygon fill="#666666" stroke="#666666" points="200.5,-92 200.5,-92 311.5,-92 311.5,-92 200.5,-92"/>
<polygon fill="#666666" stroke="#666666" points="200.5,-17 200.5,-17 237.5,-17 237.5,-17 200.5,-17"/>
<polygon fill="#666666" stroke="#666666" points="237.5,-17 237.5,-17 311.5,-17 311.5,-17 237.5,-17"/>
<polygon fill="none" stroke="#666666" points="200.5,0 200.5,-120 311.5,-120 311.5,0 200.5,0"/>
</a>
</g>
</g>
<!-- Node2 -->
<g id="Node000002" class="node">
<title>Node2</title>
<g id="a_Node000002"><a xlink:href="structTTL__ext__int__tensor__t.html" target="_top" xlink:title="const and non&#45;const tensors in the appropriate address space">
<polygon fill="white" stroke="none" points="102,-335 0,-335 0,-271 102,-271 102,-335"/>
<text text-anchor="start" x="4.88" y="-321.5" font-family="Helvetica,sans-Serif" font-size="10.00">TTL_ext_int_tensor_t</text>
<text text-anchor="start" x="14" y="-306.5" font-family="Helvetica,sans-Serif" font-size="10.00">+</text>
<text text-anchor="start" x="34" y="-306.5" font-family="Helvetica,sans-Serif" font-size="10.00">base</text>
<text text-anchor="start" x="14" y="-291.5" font-family="Helvetica,sans-Serif" font-size="10.00">+</text>
<text text-anchor="start" x="34" y="-291.5" font-family="Helvetica,sans-Serif" font-size="10.00">elem_size</text>
<text text-anchor="start" x="49.5" y="-276.5" font-family="Helvetica,sans-Serif" font-size="10.00"> </text>
<polygon fill="#666666" stroke="#666666" points="0,-318 0,-318 102,-318 102,-318 0,-318"/>
<polygon fill="#666666" stroke="#666666" points="0,-288 0,-288 32,-288 32,-288 0,-288"/>
<polygon fill="#666666" stroke="#666666" points="32,-288 32,-288 102,-288 102,-288 32,-288"/>
<polygon fill="none" stroke="#666666" points="0,-271 0,-335 102,-335 102,-271 0,-271"/>
</a>
</g>
</g>
<!-- Node2&#45;&gt;Node1 -->
<g id="edge1_Node000001_Node000002" class="edge">
<title>Node2&#45;&gt;Node1</title>
<g id="a_edge1_Node000001_Node000002"><a xlink:title=" ">
<path fill="none" stroke="#63b8ff" d="M61.52,-271.05C72.37,-242.13 91.37,-198.79 117.25,-167.25 137.71,-142.31 165.11,-119.77 190.15,-101.92"/>
<polygon fill="none" stroke="#63b8ff" points="190.12,-101.94 192.76,-95.23 199.97,-95.08 197.33,-101.79 190.12,-101.94"/>
</a>
</g>
<text text-anchor="middle" x="151.88" y="-193.5" font-family="Helvetica,sans-Serif" font-size="10.00" fill="grey"> +ext_tensor_in</text>
<text text-anchor="middle" x="151.88" y="-182.25" font-family="Helvetica,sans-Serif" font-size="10.00" fill="grey">+ext_tensor_out</text>
</g>
<!-- Node3 -->
<g id="Node000003" class="node">
<title>Node3</title>
<g id="a_Node000003"><a xlink:href="structTTL__layout__t.html" target="_top" xlink:title="Description of a Tensor layout in memory.">
<polygon fill="white" stroke="none" points="139,-461.25 59,-461.25 59,-397.25 139,-397.25 139,-461.25"/>
<text text-anchor="start" x="70.5" y="-447.75" font-family="Helvetica,sans-Serif" font-size="10.00">TTL_layout_t</text>
<text text-anchor="start" x="63" y="-432.75" font-family="Helvetica,sans-Serif" font-size="10.00">+</text>
<text text-anchor="start" x="73" y="-432.75" font-family="Helvetica,sans-Serif" font-size="10.00">row_spacing</text>
<text text-anchor="start" x="63" y="-417.75" font-family="Helvetica,sans-Serif" font-size="10.00">+</text>
<text text-anchor="start" x="73" y="-417.75" font-family="Helvetica,sans-Serif" font-size="10.00">plane_spacing</text>
<text text-anchor="start" x="97.5" y="-402.75" font-family="Helvetica,sans-Serif" font-size="10.00"> </text>
<polygon fill="#666666" stroke="#666666" points="59,-444.25 59,-444.25 139,-444.25 139,-444.25 59,-444.25"/>
<polygon fill="#666666" stroke="#666666" points="59,-414.25 59,-414.25 71,-414.25 71,-414.25 59,-414.25"/>
<polygon fill="#666666" stroke="#666666" points="71,-414.25 71,-414.25 139,-414.25 139,-414.25 71,-414.25"/>
<polygon fill="none" stroke="#666666" points="59,-397.25 59,-461.25 139,-461.25 139,-397.25 59,-397.25"/>
</a>
</g>
</g>
<!-- Node3&#45;&gt;Node2 -->
<g id="edge2_Node000002_Node000003" class="edge">
<title>Node3&#45;&gt;Node2</title>
<g id="a_edge2_Node000002_Node000003"><a xlink:title=" ">
<path fill="none" stroke="#63b8ff" d="M59.24,-402.23C49.58,-393.77 40.53,-383.48 35.25,-371.75 31.84,-364.16 31.4,-355.75 32.59,-347.51"/>
<polygon fill="none" stroke="#63b8ff" points="32.62,-347.39 30.11,-340.63 35.39,-335.72 37.89,-342.48 32.62,-347.39"/>
</a>
</g>
<text text-anchor="middle" x="52.88" y="-362.25" font-family="Helvetica,sans-Serif" font-size="10.00" fill="grey"> +layout</text>
</g>
<!-- Node8 -->
<g id="Node000008" class="node">
<title>Node8</title>
<g id="a_Node000008"><a xlink:href="structTTL__int__int__tensor__t.html" target="_top" xlink:title="const and non&#45;const tensors in the appropriate address space">
<polygon fill="white" stroke="none" points="220,-335 120,-335 120,-271 220,-271 220,-335"/>
<text text-anchor="start" x="125" y="-321.5" font-family="Helvetica,sans-Serif" font-size="10.00">TTL_int_int_tensor_t</text>
<text text-anchor="start" x="133.5" y="-306.5" font-family="Helvetica,sans-Serif" font-size="10.00">+</text>
<text text-anchor="start" x="153" y="-306.5" font-family="Helvetica,sans-Serif" font-size="10.00">base</text>
<text text-anchor="start" x="133.5" y="-291.5" font-family="Helvetica,sans-Serif" font-size="10.00">+</text>
<text text-anchor="start" x="153" y="-291.5" font-family="Helvetica,sans-Serif" font-size="10.00">elem_size</text>
<text text-anchor="start" x="168.5" y="-276.5" font-family="Helvetica,sans-Serif" font-size="10.00"> </text>
<polygon fill="#666666" stroke="#666666" points="120,-318 120,-318 220,-318 220,-318 120,-318"/>
<polygon fill="#666666" stroke="#666666" points="120,-288 120,-288 151,-288 151,-288 120,-288"/>
<polygon fill="#666666" stroke="#666666" points="151,-288 151,-288 220,-288 220,-288 151,-288"/>
<polygon fill="none" stroke="#666666" points="120,-271 120,-335 220,-335 220,-271 120,-271"/>
</a>
</g>
</g>
<!-- Node3&#45;&gt;Node8 -->
<g id="edge9_Node000008_Node000003" class="edge">
<title>Node3&#45;&gt;Node8</title>
<g id="a_edge9_Node000008_Node000003"><a xlink:title=" ">
<path fill="none" stroke="#63b8ff" d="M116.55,-397.54C125.43,-382.01 136.33,-362.92 145.97,-346.05"/>
<polygon fill="none" stroke="#63b8ff" points="146,-345.99 145.51,-338.8 151.96,-335.57 152.45,-342.77 146,-345.99"/>
</a>
</g>
<text text-anchor="middle" x="152.88" y="-362.25" font-family="Helvetica,sans-Serif" font-size="10.00" fill="grey"> +layout</text>
</g>
<!-- Node4 -->
<g id="Node000004" class="node">
<title>Node4</title>
<g id="a_Node000004"><a xlink:href="structTTL__shape__t.html" target="_top" xlink:title="Description of a Shape.">
<polygon fill="white" stroke="none" points="264.5,-468.75 197.5,-468.75 197.5,-389.75 264.5,-389.75 264.5,-468.75"/>
<text text-anchor="start" x="202.12" y="-455.25" font-family="Helvetica,sans-Serif" font-size="10.00">TTL_shape_t</text>
<text text-anchor="start" x="207" y="-440.25" font-family="Helvetica,sans-Serif" font-size="10.00">+</text>
<text text-anchor="start" x="222.5" y="-440.25" font-family="Helvetica,sans-Serif" font-size="10.00">width</text>
<text text-anchor="start" x="207" y="-425.25" font-family="Helvetica,sans-Serif" font-size="10.00">+</text>
<text text-anchor="start" x="222.5" y="-425.25" font-family="Helvetica,sans-Serif" font-size="10.00">height</text>
<text text-anchor="start" x="207" y="-410.25" font-family="Helvetica,sans-Serif" font-size="10.00">+</text>
<text text-anchor="start" x="222.5" y="-410.25" font-family="Helvetica,sans-Serif" font-size="10.00">depth</text>
<text text-anchor="start" x="229.5" y="-395.25" font-family="Helvetica,sans-Serif" font-size="10.00"> </text>
<polygon fill="#666666" stroke="#666666" points="197.5,-451.75 197.5,-451.75 264.5,-451.75 264.5,-451.75 197.5,-451.75"/>
<polygon fill="#666666" stroke="#666666" points="197.5,-406.75 197.5,-406.75 220.5,-406.75 220.5,-406.75 197.5,-406.75"/>
<polygon fill="#666666" stroke="#666666" points="220.5,-406.75 220.5,-406.75 264.5,-406.75 264.5,-406.75 220.5,-406.75"/>
<polygon fill="none" stroke="#666666" points="197.5,-389.75 197.5,-468.75 264.5,-468.75 264.5,-389.75 197.5,-389.75"/>
</a>
</g>
</g>
<!-- Node4&#45;&gt;Node2 -->
<g id="edge3_Node000002_Node000004" class="edge">
<title>Node4&#45;&gt;Node2</title>
<g id="a_edge3_Node000002_Node000004"><a xlink:title=" ">
<path fill="none" stroke="#63b8ff" d="M197.86,-411.81C182.82,-404.63 164.69,-396.35 148,-389.75 124.28,-380.37 113.58,-387.49 93.5,-371.75 84.62,-364.79 77.1,-355.43 70.97,-345.89"/>
<polygon fill="none" stroke="#63b8ff" points="70.95,-345.86 64.46,-342.72 64.87,-335.52 71.36,-338.66 70.95,-345.86"/>
</a>
</g>
<text text-anchor="middle" x="110.25" y="-362.25" font-family="Helvetica,sans-Serif" font-size="10.00" fill="grey"> +shape</text>
</g>
<!-- Node5 -->
<g id="Node000005" class="node">
<title>Node5</title>
<g id="a_Node000005"><a xlink:href="structTTL__tile__t.html" target="_top" xlink:title=" ">
<polygon fill="white" stroke="none" points="392,-216.25 338,-216.25 338,-167.25 392,-167.25 392,-216.25"/>
<text text-anchor="start" x="342.88" y="-202.75" font-family="Helvetica,sans-Serif" font-size="10.00">TTL_tile_t</text>
<text text-anchor="start" x="363.5" y="-187.75" font-family="Helvetica,sans-Serif" font-size="10.00"> </text>
<text text-anchor="start" x="363.5" y="-172.75" font-family="Helvetica,sans-Serif" font-size="10.00"> </text>
<polygon fill="#666666" stroke="#666666" points="338,-199.25 338,-199.25 392,-199.25 392,-199.25 338,-199.25"/>
<polygon fill="#666666" stroke="#666666" points="338,-184.25 338,-184.25 392,-184.25 392,-184.25 338,-184.25"/>
<polygon fill="none" stroke="#666666" points="338,-167.25 338,-216.25 392,-216.25 392,-167.25 338,-167.25"/>
</a>
</g>
</g>
<!-- Node4&#45;&gt;Node5 -->
<g id="edge5_Node000005_Node000004" class="edge">
<title>Node4&#45;&gt;Node5</title>
<g id="a_edge5_Node000005_Node000004"><a xlink:title=" ">
<path fill="none" stroke="#63b8ff" d="M264.3,-419.67C300.46,-408.46 356.68,-385.02 384,-342.5 410.08,-301.91 405.72,-280.5 392,-234.25 391.33,-232 390.5,-229.76 389.55,-227.55"/>
<polygon fill="none" stroke="#63b8ff" points="389.55,-227.56 383.21,-224.13 383.94,-216.96 390.28,-220.39 389.55,-227.56"/>
</a>
</g>
<text text-anchor="middle" x="419.25" y="-299.12" font-family="Helvetica,sans-Serif" font-size="10.00" fill="grey"> +shape</text>
</g>
<!-- Node7 -->
<g id="Node000007" class="node">
<title>Node7</title>
<g id="a_Node000007"><a xlink:href="structTTL__int__int__sub__tensor__t.html" target="_top" xlink:title="const and non&#45;const sub tensors in the appropriate address space">
<polygon fill="white" stroke="none" points="316.5,-216.25 195.5,-216.25 195.5,-167.25 316.5,-167.25 316.5,-216.25"/>
<text text-anchor="start" x="200.5" y="-202.75" font-family="Helvetica,sans-Serif" font-size="10.00">TTL_int_int_sub_tensor_t</text>
<text text-anchor="start" x="219.5" y="-187.75" font-family="Helvetica,sans-Serif" font-size="10.00">+</text>
<text text-anchor="start" x="249.5" y="-187.75" font-family="Helvetica,sans-Serif" font-size="10.00">origin</text>
<text text-anchor="start" x="254.5" y="-172.75" font-family="Helvetica,sans-Serif" font-size="10.00"> </text>
<polygon fill="#666666" stroke="#666666" points="195.5,-199.25 195.5,-199.25 316.5,-199.25 316.5,-199.25 195.5,-199.25"/>
<polygon fill="#666666" stroke="#666666" points="195.5,-184.25 195.5,-184.25 247.5,-184.25 247.5,-184.25 195.5,-184.25"/>
<polygon fill="#666666" stroke="#666666" points="247.5,-184.25 247.5,-184.25 316.5,-184.25 316.5,-184.25 247.5,-184.25"/>
<polygon fill="none" stroke="#666666" points="195.5,-167.25 195.5,-216.25 316.5,-216.25 316.5,-167.25 195.5,-167.25"/>
</a>
</g>
</g>
<!-- Node4&#45;&gt;Node7 -->
<g id="edge11_Node000007_Node000004" class="edge">
<title>Node4&#45;&gt;Node7</title>
<g id="a_edge11_Node000007_Node000004"><a xlink:title=" ">
<path fill="none" stroke="#63b8ff" d="M238.25,-390.03C239.27,-383.93 240.23,-377.68 241,-371.75 247.42,-322.39 251.67,-265 253.95,-228.78"/>
<polygon fill="none" stroke="#63b8ff" points="253.95,-228.87 250.32,-222.64 254.68,-216.89 258.31,-223.13 253.95,-228.87"/>
</a>
</g>
<text text-anchor="middle" x="268.25" y="-299.12" font-family="Helvetica,sans-Serif" font-size="10.00" fill="grey"> +shape</text>
</g>
<!-- Node4&#45;&gt;Node8 -->
<g id="edge10_Node000008_Node000004" class="edge">
<title>Node4&#45;&gt;Node8</title>
<g id="a_edge10_Node000008_Node000004"><a xlink:title=" ">
<path fill="none" stroke="#63b8ff" d="M212.2,-389.96C205.42,-376.14 197.73,-360.47 190.78,-346.33"/>
<polygon fill="none" stroke="#63b8ff" points="190.85,-346.47 184.62,-342.85 185.56,-335.7 191.8,-339.32 190.85,-346.47"/>
</a>
</g>
<text text-anchor="middle" x="219.25" y="-362.25" font-family="Helvetica,sans-Serif" font-size="10.00" fill="grey"> +shape</text>
</g>
<!-- Node5&#45;&gt;Node1 -->
<g id="edge4_Node000001_Node000005" class="edge">
<title>Node5&#45;&gt;Node1</title>
<g id="a_edge4_Node000001_Node000005"><a xlink:title=" ">
<path fill="none" stroke="#63b8ff" d="M357.89,-167.51C354.3,-157.87 349.35,-146.88 343,-138 336.52,-128.94 328.79,-120.21 320.65,-112.08"/>
<polygon fill="none" stroke="#63b8ff" points="320.66,-112.09 313.55,-110.83 311.98,-103.8 319.08,-105.05 320.66,-112.09"/>
</a>
</g>
<text text-anchor="middle" x="392.12" y="-139.75" font-family="Helvetica,sans-Serif" font-size="10.00" fill="grey"> +next_exported_tile</text>
</g>
<!-- Node6 -->
<g id="Node000006" class="node">
<title>Node6</title>
<g id="a_Node000006"><a xlink:href="structTTL__offset__t.html" target="_top" xlink:title="Description of the 3D offset of an object.">
<polygon fill="white" stroke="none" points="374.5,-342.5 309.5,-342.5 309.5,-263.5 374.5,-263.5 374.5,-342.5"/>
<text text-anchor="start" x="314.25" y="-329" font-family="Helvetica,sans-Serif" font-size="10.00">TTL_offset_t</text>
<text text-anchor="start" x="324" y="-314" font-family="Helvetica,sans-Serif" font-size="10.00">+</text>
<text text-anchor="start" x="344.5" y="-314" font-family="Helvetica,sans-Serif" font-size="10.00">x</text>
<text text-anchor="start" x="324" y="-299" font-family="Helvetica,sans-Serif" font-size="10.00">+</text>
<text text-anchor="start" x="344.5" y="-299" font-family="Helvetica,sans-Serif" font-size="10.00">y</text>
<text text-anchor="start" x="324" y="-284" font-family="Helvetica,sans-Serif" font-size="10.00">+</text>
<text text-anchor="start" x="344.5" y="-284" font-family="Helvetica,sans-Serif" font-size="10.00">z</text>
<text text-anchor="start" x="340.5" y="-269" font-family="Helvetica,sans-Serif" font-size="10.00"> </text>
<polygon fill="#666666" stroke="#666666" points="309.5,-325.5 309.5,-325.5 374.5,-325.5 374.5,-325.5 309.5,-325.5"/>
<polygon fill="#666666" stroke="#666666" points="309.5,-280.5 309.5,-280.5 342.5,-280.5 342.5,-280.5 309.5,-280.5"/>
<polygon fill="#666666" stroke="#666666" points="342.5,-280.5 342.5,-280.5 374.5,-280.5 374.5,-280.5 342.5,-280.5"/>
<polygon fill="none" stroke="#666666" points="309.5,-263.5 309.5,-342.5 374.5,-342.5 374.5,-263.5 309.5,-263.5"/>
</a>
</g>
</g>
<!-- Node6&#45;&gt;Node5 -->
<g id="edge6_Node000005_Node000006" class="edge">
<title>Node6&#45;&gt;Node5</title>
<g id="a_edge6_Node000005_Node000006"><a xlink:title=" ">
<path fill="none" stroke="#63b8ff" d="M350.04,-263.79C352.45,-252.38 355.07,-239.92 357.44,-228.66"/>
<polygon fill="none" stroke="#63b8ff" points="357.42,-228.76 354.74,-222.06 359.89,-217.01 362.57,-223.71 357.42,-228.76"/>
</a>
</g>
<text text-anchor="middle" x="372.12" y="-236" font-family="Helvetica,sans-Serif" font-size="10.00" fill="grey"> +offset</text>
</g>
<!-- Node6&#45;&gt;Node7 -->
<g id="edge12_Node000007_Node000006" class="edge">
<title>Node6&#45;&gt;Node7</title>
<g id="a_edge12_Node000007_Node000006"><a xlink:title=" ">
<path fill="none" stroke="#63b8ff" d="M311.24,-263.78C306.37,-257.68 301.41,-251.43 296.75,-245.5 291.94,-239.38 286.84,-232.84 281.94,-226.51"/>
<polygon fill="none" stroke="#63b8ff" points="281.85,-226.4 275.02,-224.1 274.52,-216.9 281.35,-219.21 281.85,-226.4"/>
</a>
</g>
<text text-anchor="middle" x="322.62" y="-236" font-family="Helvetica,sans-Serif" font-size="10.00" fill="grey"> +sub_offset</text>
</g>
<!-- Node7&#45;&gt;Node1 -->
<g id="edge7_Node000001_Node000007" class="edge">
<title>Node7&#45;&gt;Node1</title>
<g id="a_edge7_Node000001_Node000007"><a xlink:title=" ">
<path fill="none" stroke="#63b8ff" d="M256,-167.25C256,-157.39 256,-145.33 256,-132.93"/>
<polygon fill="none" stroke="#63b8ff" points="256,-132.86 252,-126.86 256,-120.86 260,-126.86 256,-132.86"/>
</a>
</g>
<text text-anchor="middle" x="298.75" y="-139.75" font-family="Helvetica,sans-Serif" font-size="10.00" fill="grey"> +int_prev_imported</text>
</g>
<!-- Node8&#45;&gt;Node7 -->
<g id="edge8_Node000007_Node000008" class="edge">
<title>Node8&#45;&gt;Node7</title>
<g id="a_edge8_Node000007_Node000008"><a xlink:title=" ">
<path fill="none" stroke="#63b8ff" d="M183.66,-271.14C189.8,-259.01 197.7,-245.35 206.75,-234.25 209.36,-231.04 212.25,-227.9 215.28,-224.86"/>
<polygon fill="none" stroke="#63b8ff" points="215.21,-224.92 216.87,-217.91 223.98,-216.74 222.32,-223.76 215.21,-224.92"/>
</a>
</g>
<text text-anchor="middle" x="223.62" y="-236" font-family="Helvetica,sans-Serif" font-size="10.00" fill="grey"> +tensor</text>
</g>
</g>
</svg>
