<?xml version="1.0" encoding="UTF-8" standalone="no"?>
<!DOCTYPE svg PUBLIC "-//W3C//DTD SVG 1.1//EN"
 "http://www.w3.org/Graphics/SVG/1.1/DTD/svg11.dtd">
<!-- Generated by graphviz version 12.2.1 (20241206.2353)
 -->
<!-- Title: TTL_simplex_const_char_tensor_buffering_t Pages: 1 -->
<svg width="457pt" height="482pt"
 viewBox="0.00 0.00 457.41 482.00" xmlns="http://www.w3.org/2000/svg" xmlns:xlink="http://www.w3.org/1999/xlink">
<g id="graph0" class="graph" transform="scale(1 1) rotate(0) translate(4 478)">
<title>TTL_simplex_const_char_tensor_buffering_t</title>
<!-- Node1 -->
<g id="Node000001" class="node">
<title>Node1</title>
<g id="a_Node000001"><a xlink:title=" ">
<polygon fill="#999999" stroke="none" points="327,-122 209.5,-122 209.5,0 327,0 327,-122"/>
<text text-anchor="start" x="213.5" y="-108.5" font-family="Helvetica,sans-Serif" font-size="10.00">TTL_simplex_const_char</text>
<text text-anchor="start" x="227" y="-97.25" font-family="Helvetica,sans-Serif" font-size="10.00">_tensor_buffering_t</text>
<text text-anchor="start" x="227.69" y="-82" font-family="Helvetica,sans-Serif" font-size="10.00">+</text>
<text text-anchor="start" x="251.88" y="-82" font-family="Helvetica,sans-Serif" font-size="10.00">index</text>
<text text-anchor="start" x="227.69" y="-66.75" font-family="Helvetica,sans-Serif" font-size="10.00">+</text>
<text text-anchor="start" x="251.88" y="-66.75" font-family="Helvetica,sans-Serif" font-size="10.00">int_base</text>
<text text-anchor="start" x="227.69" y="-51.5" font-family="Helvetica,sans-Serif" font-size="10.00">+</text>
<text text-anchor="start" x="251.88" y="-51.5" font-family="Helvetica,sans-Serif" font-size="10.00">common</text>
<text text-anchor="start" x="227.69" y="-36.25" font-family="Helvetica,sans-Serif" font-size="10.00">+</text>
<text text-anchor="start" x="251.88" y="-36.25" font-family="Helvetica,sans-Serif" font-size="10.00">event_in</text>
<text text-anchor="start" x="227.69" y="-21" font-family="Helvetica,sans-Serif" font-size="10.00">+</text>
<text text-anchor="start" x="251.88" y="-21" font-family="Helvetica,sans-Serif" font-size="10.00">event_out</text>
<text text-anchor="start" x="266.75" y="-5.75" font-family="Helvetica,sans-Serif" font-size="10.00"> </text>
<polygon fill="#666666" stroke="#666666" points="209.5,-93.5 209.5,-93.5 327,-93.5 327,-93.5 209.5,-93.5"/>
<polygon fill="#666666" stroke="#666666" points="209.5,-17.25 209.5,-17.25 249.88,-17.25 249.88,-17.25 209.5,-17.25"/>
<polygon fill="#666666" stroke="#666666" points="249.88,-17.25 249.88,-17.25 327,-17.25 327,-17.25 249.88,-17.25"/>
<polygon fill="none" stroke="#666666" points="209.5,0 209.5,-122 327,-122 327,0 209.5,0"/>
</a>
</g>
</g>
<!-- Node2 -->
<g id="Node000002" class="node">
<title>Node2</title>
<g id="a_Node000002"><a xlink:href="structTTL__ext__char__tensor__t.html" target="_top" xlink:title="const and non&#45;const tensors in the appropriate address space">
<polygon fill="white" stroke="none" points="108.5,-338.88 0,-338.88 0,-273.88 108.5,-273.88 108.5,-338.88"/>
<text text-anchor="start" x="4" y="-325.38" font-family="Helvetica,sans-Serif" font-size="10.00">TTL_ext_char_tensor_t</text>
<text text-anchor="start" x="15.75" y="-310.12" font-family="Helvetica,sans-Serif" font-size="10.00">+</text>
<text text-anchor="start" x="37.5" y="-310.12" font-family="Helvetica,sans-Serif" font-size="10.00">base</text>
<text text-anchor="start" x="15.75" y="-294.88" font-family="Helvetica,sans-Serif" font-size="10.00">+</text>
<text text-anchor="start" x="37.5" y="-294.88" font-family="Helvetica,sans-Serif" font-size="10.00">elem_size</text>
<text text-anchor="start" x="52.75" y="-279.62" font-family="Helvetica,sans-Serif" font-size="10.00"> </text>
<polygon fill="#666666" stroke="#666666" points="0,-321.62 0,-321.62 108.5,-321.62 108.5,-321.62 0,-321.62"/>
<polygon fill="#666666" stroke="#666666" points="0,-291.12 0,-291.12 35.5,-291.12 35.5,-291.12 0,-291.12"/>
<polygon fill="#666666" stroke="#666666" points="35.5,-291.12 35.5,-291.12 108.5,-291.12 108.5,-291.12 35.5,-291.12"/>
<polygon fill="none" stroke="#666666" points="0,-273.88 0,-338.88 108.5,-338.88 108.5,-273.88 0,-273.88"/>
</a>
</g>
</g>
<!-- Node2&#45;&gt;Node1 -->
<g id="edge1_Node000001_Node000002" class="edge">
<title>Node2&#45;&gt;Node1</title>
<g id="a_edge1_Node000001_Node000002"><a xlink:title=" ">
<path fill="none" stroke="#63b8ff" d="M65.92,-274.09C77.86,-244.85 98.47,-201.06 125.5,-169.25 146.31,-144.76 173.68,-122.51 198.89,-104.71"/>
<polygon fill="none" stroke="#63b8ff" points="198.91,-104.69 201.58,-97.99 208.79,-97.87 206.12,-104.57 198.91,-104.69"/>
</a>
</g>
<text text-anchor="middle" x="160.38" y="-195.88" font-family="Helvetica,sans-Serif" font-size="10.00" fill="grey"> +ext_tensor_in</text>
<text text-anchor="middle" x="160.38" y="-184.62" font-family="Helvetica,sans-Serif" font-size="10.00" fill="grey">+ext_tensor_out</text>
</g>
<!-- Node3 -->
<g id="Node000003" class="node">
<title>Node3</title>
<g id="a_Node000003"><a xlink:href="structTTL__layout__t.html" target="_top" xlink:title="Description of a Tensor layout in memory.">
<polygon fill="white" stroke="none" points="152.38,-466.38 72.12,-466.38 72.12,-401.38 152.38,-401.38 152.38,-466.38"/>
<text text-anchor="start" x="83.75" y="-452.88" font-family="Helvetica,sans-Serif" font-size="10.00">TTL_layout_t</text>
<text text-anchor="start" x="76.12" y="-437.62" font-family="Helvetica,sans-Serif" font-size="10.00">+</text>
<text text-anchor="start" x="86.12" y="-437.62" font-family="Helvetica,sans-Serif" font-size="10.00">row_spacing</text>
<text text-anchor="start" x="76.12" y="-422.38" font-family="Helvetica,sans-Serif" font-size="10.00">+</text>
<text text-anchor="start" x="86.12" y="-422.38" font-family="Helvetica,sans-Serif" font-size="10.00">plane_spacing</text>
<text text-anchor="start" x="110.75" y="-407.12" font-family="Helvetica,sans-Serif" font-size="10.00"> </text>
<polygon fill="#666666" stroke="#666666" points="72.12,-449.12 72.12,-449.12 152.38,-449.12 152.38,-449.12 72.12,-449.12"/>
<polygon fill="#666666" stroke="#666666" points="72.12,-418.62 72.12,-418.62 84.12,-418.62 84.12,-418.62 72.12,-418.62"/>
<polygon fill="#666666" stroke="#666666" points="84.12,-418.62 84.12,-418.62 152.38,-418.62 152.38,-418.62 84.12,-418.62"/>
<polygon fill="none" stroke="#666666" points="72.12,-401.38 72.12,-466.38 152.38,-466.38 152.38,-401.38 72.12,-401.38"/>
</a>
</g>
</g>
<!-- Node3&#45;&gt;Node2 -->
<g id="edge2_Node000002_Node000003" class="edge">
<title>Node3&#45;&gt;Node2</title>
<g id="a_edge2_Node000002_Node000003"><a xlink:title=" ">
<path fill="none" stroke="#63b8ff" d="M72.2,-406.89C62.27,-398.28 52.93,-387.77 47.5,-375.75 44.12,-368.26 43.05,-359.85 43.29,-351.55"/>
<polygon fill="none" stroke="#63b8ff" points="43.28,-351.6 39.91,-345.22 44.51,-339.66 47.87,-346.04 43.28,-351.6"/>
</a>
</g>
<text text-anchor="middle" x="64.38" y="-366.25" font-family="Helvetica,sans-Serif" font-size="10.00" fill="grey"> +layout</text>
</g>
<!-- Node8 -->
<g id="Node000008" class="node">
<title>Node8</title>
<g id="a_Node000008"><a xlink:href="structTTL__int__char__tensor__t.html" target="_top" xlink:title="const and non&#45;const tensors in the appropriate address space">
<polygon fill="white" stroke="none" points="232.38,-338.88 126.12,-338.88 126.12,-273.88 232.38,-273.88 232.38,-338.88"/>
<text text-anchor="start" x="130.12" y="-325.38" font-family="Helvetica,sans-Serif" font-size="10.00">TTL_int_char_tensor_t</text>
<text text-anchor="start" x="141.31" y="-310.12" font-family="Helvetica,sans-Serif" font-size="10.00">+</text>
<text text-anchor="start" x="162.5" y="-310.12" font-family="Helvetica,sans-Serif" font-size="10.00">base</text>
<text text-anchor="start" x="141.31" y="-294.88" font-family="Helvetica,sans-Serif" font-size="10.00">+</text>
<text text-anchor="start" x="162.5" y="-294.88" font-family="Helvetica,sans-Serif" font-size="10.00">elem_size</text>
<text text-anchor="start" x="177.75" y="-279.62" font-family="Helvetica,sans-Serif" font-size="10.00"> </text>
<polygon fill="#666666" stroke="#666666" points="126.12,-321.62 126.12,-321.62 232.38,-321.62 232.38,-321.62 126.12,-321.62"/>
<polygon fill="#666666" stroke="#666666" points="126.12,-291.12 126.12,-291.12 160.5,-291.12 160.5,-291.12 126.12,-291.12"/>
<polygon fill="#666666" stroke="#666666" points="160.5,-291.12 160.5,-291.12 232.38,-291.12 232.38,-291.12 160.5,-291.12"/>
<polygon fill="none" stroke="#666666" points="126.12,-273.88 126.12,-338.88 232.38,-338.88 232.38,-273.88 126.12,-273.88"/>
</a>
</g>
</g>
<!-- Node3&#45;&gt;Node8 -->
<g id="edge9_Node000008_Node000003" class="edge">
<title>Node3&#45;&gt;Node8</title>
<g id="a_edge9_Node000008_Node000003"><a xlink:title=" ">
<path fill="none" stroke="#63b8ff" d="M128.98,-401.53C137.3,-385.96 147.47,-366.91 156.48,-350.03"/>
<polygon fill="none" stroke="#63b8ff" points="156.42,-350.14 155.72,-342.96 162.07,-339.55 162.78,-346.73 156.42,-350.14"/>
</a>
</g>
<text text-anchor="middle" x="164.63" y="-366.25" font-family="Helvetica,sans-Serif" font-size="10.00" fill="grey"> +layout</text>
</g>
<!-- Node4 -->
<g id="Node000004" class="node">
<title>Node4</title>
<g id="a_Node000004"><a xlink:href="structTTL__shape__t.html" target="_top" xlink:title="Description of a Shape.">
<polygon fill="white" stroke="none" points="276.12,-474 210.38,-474 210.38,-393.75 276.12,-393.75 276.12,-474"/>
<text text-anchor="start" x="214.38" y="-460.5" font-family="Helvetica,sans-Serif" font-size="10.00">TTL_shape_t</text>
<text text-anchor="start" x="219.75" y="-445.25" font-family="Helvetica,sans-Serif" font-size="10.00">+</text>
<text text-anchor="start" x="235.12" y="-445.25" font-family="Helvetica,sans-Serif" font-size="10.00">width</text>
<text text-anchor="start" x="219.75" y="-430" font-family="Helvetica,sans-Serif" font-size="10.00">+</text>
<text text-anchor="start" x="235.12" y="-430" font-family="Helvetica,sans-Serif" font-size="10.00">height</text>
<text text-anchor="start" x="219.75" y="-414.75" font-family="Helvetica,sans-Serif" font-size="10.00">+</text>
<text text-anchor="start" x="235.12" y="-414.75" font-family="Helvetica,sans-Serif" font-size="10.00">depth</text>
<text text-anchor="start" x="241.75" y="-399.5" font-family="Helvetica,sans-Serif" font-size="10.00"> </text>
<polygon fill="#666666" stroke="#666666" points="210.38,-456.75 210.38,-456.75 276.12,-456.75 276.12,-456.75 210.38,-456.75"/>
<polygon fill="#666666" stroke="#666666" points="210.38,-411 210.38,-411 233.12,-411 233.12,-411 210.38,-411"/>
<polygon fill="#666666" stroke="#666666" points="233.12,-411 233.12,-411 276.12,-411 276.12,-411 233.12,-411"/>
<polygon fill="none" stroke="#666666" points="210.38,-393.75 210.38,-474 276.12,-474 276.12,-393.75 210.38,-393.75"/>
</a>
</g>
</g>
<!-- Node4&#45;&gt;Node2 -->
<g id="edge3_Node000002_Node000004" class="edge">
<title>Node4&#45;&gt;Node2</title>
<g id="a_edge3_Node000002_Node000004"><a xlink:title=" ">
<path fill="none" stroke="#63b8ff" d="M210.59,-416.03C195.74,-408.7 177.82,-400.31 161.25,-393.75 136.74,-384.05 126.18,-391.1 104.75,-375.75 94.88,-368.68 86.14,-359.1 78.82,-349.34"/>
<polygon fill="none" stroke="#63b8ff" points="78.85,-349.38 72.13,-346.75 71.97,-339.54 78.69,-342.17 78.85,-349.38"/>
</a>
</g>
<text text-anchor="middle" x="122" y="-366.25" font-family="Helvetica,sans-Serif" font-size="10.00" fill="grey"> +shape</text>
</g>
<!-- Node5 -->
<g id="Node000005" class="node">
<title>Node5</title>
<g id="a_Node000005"><a xlink:href="structTTL__tile__t.html" target="_top" xlink:title=" ">
<polygon fill="white" stroke="none" points="403.38,-219 351.12,-219 351.12,-169.25 403.38,-169.25 403.38,-219"/>
<text text-anchor="start" x="355.12" y="-205.5" font-family="Helvetica,sans-Serif" font-size="10.00">TTL_tile_t</text>
<text text-anchor="start" x="375.75" y="-190.25" font-family="Helvetica,sans-Serif" font-size="10.00"> </text>
<text text-anchor="start" x="375.75" y="-175" font-family="Helvetica,sans-Serif" font-size="10.00"> </text>
<polygon fill="#666666" stroke="#666666" points="351.12,-201.75 351.12,-201.75 403.38,-201.75 403.38,-201.75 351.12,-201.75"/>
<polygon fill="#666666" stroke="#666666" points="351.12,-186.5 351.12,-186.5 403.38,-186.5 403.38,-186.5 351.12,-186.5"/>
<polygon fill="none" stroke="#666666" points="351.12,-169.25 351.12,-219 403.38,-219 403.38,-169.25 351.12,-169.25"/>
</a>
</g>
</g>
<!-- Node4&#45;&gt;Node5 -->
<g id="edge5_Node000005_Node000004" class="edge">
<title>Node4&#45;&gt;Node5</title>
<g id="a_edge5_Node000005_Node000004"><a xlink:title=" ">
<path fill="none" stroke="#63b8ff" d="M275.95,-424.16C311.8,-412.74 367.86,-388.97 395.25,-346.5 421.71,-305.46 418.04,-283.84 404.25,-237 403.58,-234.73 402.75,-232.47 401.8,-230.25"/>
<polygon fill="none" stroke="#63b8ff" points="401.77,-230.19 395.44,-226.74 396.19,-219.56 402.52,-223.02 401.77,-230.19"/>
</a>
</g>
<text text-anchor="middle" x="432.16" y="-302.5" font-family="Helvetica,sans-Serif" font-size="10.00" fill="grey"> +shape</text>
</g>
<!-- Node7 -->
<g id="Node000007" class="node">
<title>Node7</title>
<g id="a_Node000007"><a xlink:href="structTTL__int__char__sub__tensor__t.html" target="_top" xlink:title="const and non&#45;const sub tensors in the appropriate address space">
<polygon fill="white" stroke="none" points="331.88,-219 204.62,-219 204.62,-169.25 331.88,-169.25 331.88,-219"/>
<text text-anchor="start" x="208.62" y="-205.5" font-family="Helvetica,sans-Serif" font-size="10.00">TTL_int_char_sub_tensor_t</text>
<text text-anchor="start" x="230.12" y="-190.25" font-family="Helvetica,sans-Serif" font-size="10.00">+</text>
<text text-anchor="start" x="261.62" y="-190.25" font-family="Helvetica,sans-Serif" font-size="10.00">origin</text>
<text text-anchor="start" x="266.75" y="-175" font-family="Helvetica,sans-Serif" font-size="10.00"> </text>
<polygon fill="#666666" stroke="#666666" points="204.62,-201.75 204.62,-201.75 331.88,-201.75 331.88,-201.75 204.62,-201.75"/>
<polygon fill="#666666" stroke="#666666" points="204.62,-186.5 204.62,-186.5 259.62,-186.5 259.62,-186.5 204.62,-186.5"/>
<polygon fill="#666666" stroke="#666666" points="259.62,-186.5 259.62,-186.5 331.88,-186.5 331.88,-186.5 259.62,-186.5"/>
<polygon fill="none" stroke="#666666" points="204.62,-169.25 204.62,-219 331.88,-219 331.88,-169.25 204.62,-169.25"/>
</a>
</g>
</g>
<!-- Node4&#45;&gt;Node7 -->
<g id="edge11_Node000007_Node000004" class="edge">
<title>Node4&#45;&gt;Node7</title>
<g id="a_edge11_Node000007_Node000004"><a xlink:title=" ">
<path fill="none" stroke="#63b8ff" d="M248.95,-393.88C249.77,-387.82 250.56,-381.62 251.25,-375.75 257.08,-325.96 262.23,-268.26 265.29,-231.73"/>
<polygon fill="none" stroke="#63b8ff" points="265.3,-231.69 261.81,-225.38 266.29,-219.73 269.78,-226.04 265.3,-231.69"/>
</a>
</g>
<text text-anchor="middle" x="279.45" y="-302.5" font-family="Helvetica,sans-Serif" font-size="10.00" fill="grey"> +shape</text>
</g>
<!-- Node4&#45;&gt;Node8 -->
<g id="edge10_Node000008_Node000004" class="edge">
<title>Node4&#45;&gt;Node8</title>
<g id="a_edge10_Node000008_Node000004"><a xlink:title=" ">
<path fill="none" stroke="#63b8ff" d="M223.35,-393.85C216.3,-380.03 208.33,-364.39 201.12,-350.26"/>
<polygon fill="none" stroke="#63b8ff" points="201.14,-350.31 194.85,-346.78 195.69,-339.62 201.98,-343.14 201.14,-350.31"/>
</a>
</g>
<text text-anchor="middle" x="230.42" y="-366.25" font-family="Helvetica,sans-Serif" font-size="10.00" fill="grey"> +shape</text>
</g>
<!-- Node5&#45;&gt;Node1 -->
<g id="edge4_Node000001_Node000005" class="edge">
<title>Node5&#45;&gt;Node1</title>
<g id="a_edge4_Node000001_Node000005"><a xlink:title=" ">
<path fill="none" stroke="#63b8ff" d="M370.04,-169.48C366.46,-159.83 361.54,-148.88 355.25,-140 349.56,-131.97 342.9,-124.18 335.85,-116.83"/>
<polygon fill="none" stroke="#63b8ff" points="335.89,-116.87 328.82,-115.47 327.38,-108.41 334.46,-109.8 335.89,-116.87"/>
</a>
</g>
<text text-anchor="middle" x="404.89" y="-141.75" font-family="Helvetica,sans-Serif" font-size="10.00" fill="grey"> +next_exported_tile</text>
</g>
<!-- Node6 -->
<g id="Node000006" class="node">
<title>Node6</title>
<g id="a_Node000006"><a xlink:href="structTTL__offset__t.html" target="_top" xlink:title="Description of the 3D offset of an object.">
<polygon fill="white" stroke="none" points="386,-346.5 322.5,-346.5 322.5,-266.25 386,-266.25 386,-346.5"/>
<text text-anchor="start" x="326.5" y="-333" font-family="Helvetica,sans-Serif" font-size="10.00">TTL_offset_t</text>
<text text-anchor="start" x="336.75" y="-317.75" font-family="Helvetica,sans-Serif" font-size="10.00">+</text>
<text text-anchor="start" x="357" y="-317.75" font-family="Helvetica,sans-Serif" font-size="10.00">x</text>
<text text-anchor="start" x="336.75" y="-302.5" font-family="Helvetica,sans-Serif" font-size="10.00">+</text>
<text text-anchor="start" x="357" y="-302.5" font-family="Helvetica,sans-Serif" font-size="10.00">y</text>
<text text-anchor="start" x="336.75" y="-287.25" font-family="Helvetica,sans-Serif" font-size="10.00">+</text>
<text text-anchor="start" x="357" y="-287.25" font-family="Helvetica,sans-Serif" font-size="10.00">z</text>
<text text-anchor="start" x="352.75" y="-272" font-family="Helvetica,sans-Serif" font-size="10.00"> </text>
<polygon fill="#666666" stroke="#666666" points="322.5,-329.25 322.5,-329.25 386,-329.25 386,-329.25 322.5,-329.25"/>
<polygon fill="#666666" stroke="#666666" points="322.5,-283.5 322.5,-283.5 355,-283.5 355,-283.5 322.5,-283.5"/>
<polygon fill="#666666" stroke="#666666" points="355,-283.5 355,-283.5 386,-283.5 386,-283.5 355,-283.5"/>
<polygon fill="none" stroke="#666666" points="322.5,-266.25 322.5,-346.5 386,-346.5 386,-266.25 322.5,-266.25"/>
</a>
</g>
</g>
<!-- Node6&#45;&gt;Node5 -->
<g id="edge6_Node000005_Node000006" class="edge">
<title>Node6&#45;&gt;Node5</title>
<g id="a_edge6_Node000005_Node000006"><a xlink:title=" ">
<path fill="none" stroke="#63b8ff" d="M362.36,-266.5C364.74,-255.1 367.33,-242.67 369.68,-231.43"/>
<polygon fill="none" stroke="#63b8ff" points="369.65,-231.54 366.96,-224.85 372.1,-219.79 374.79,-226.48 369.65,-231.54"/>
</a>
</g>
<text text-anchor="middle" x="384.61" y="-238.75" font-family="Helvetica,sans-Serif" font-size="10.00" fill="grey"> +offset</text>
</g>
<!-- Node6&#45;&gt;Node7 -->
<g id="edge12_Node000007_Node000006" class="edge">
<title>Node6&#45;&gt;Node7</title>
<g id="a_edge12_Node000007_Node000006"><a xlink:title=" ">
<path fill="none" stroke="#63b8ff" d="M323.26,-266.41C318.47,-260.35 313.59,-254.14 309,-248.25 304.24,-242.14 299.2,-235.62 294.34,-229.3"/>
<polygon fill="none" stroke="#63b8ff" points="294.28,-229.22 287.45,-226.9 286.98,-219.7 293.8,-222.03 294.28,-229.22"/>
</a>
</g>
<text text-anchor="middle" x="335.62" y="-238.75" font-family="Helvetica,sans-Serif" font-size="10.00" fill="grey"> +sub_offset</text>
</g>
<!-- Node7&#45;&gt;Node1 -->
<g id="edge7_Node000001_Node000007" class="edge">
<title>Node7&#45;&gt;Node1</title>
<g id="a_edge7_Node000001_Node000007"><a xlink:title=" ">
<path fill="none" stroke="#63b8ff" d="M268.25,-169.38C268.25,-159.46 268.25,-147.36 268.25,-134.9"/>
<polygon fill="none" stroke="#63b8ff" points="268.25,-134.76 264.25,-128.76 268.25,-122.76 272.25,-128.76 268.25,-134.76"/>
</a>
</g>
<text text-anchor="middle" x="311" y="-141.75" font-family="Helvetica,sans-Serif" font-size="10.00" fill="grey"> +int_prev_imported</text>
</g>
<!-- Node8&#45;&gt;Node7 -->
<g id="edge8_Node000007_Node000008" class="edge">
<title>Node8&#45;&gt;Node7</title>
<g id="a_edge8_Node000007_Node000008"><a xlink:title=" ">
<path fill="none" stroke="#63b8ff" d="M194.58,-273.96C201.24,-261.81 209.66,-248.17 219,-237 221.66,-233.81 224.59,-230.67 227.64,-227.63"/>
<polygon fill="none" stroke="#63b8ff" points="227.61,-227.66 229.27,-220.64 236.38,-219.48 234.72,-226.5 227.61,-227.66"/>
</a>
</g>
<text text-anchor="middle" x="236.62" y="-238.75" font-family="Helvetica,sans-Serif" font-size="10.00" fill="grey"> +tensor</text>
</g>
</g>
</svg>
