<?xml version="1.0" encoding="UTF-8" standalone="no"?>
<!DOCTYPE svg PUBLIC "-//W3C//DTD SVG 1.1//EN"
 "http://www.w3.org/Graphics/SVG/1.1/DTD/svg11.dtd">
<!-- Generated by graphviz version 12.0.0 (20240704.0754)
 -->
<!-- Title: TTL_export_double_const_ushort_tensor_buffering_t Pages: 1 -->
<svg width="257pt" height="362pt"
 viewBox="0.00 0.00 256.50 361.75" xmlns="http://www.w3.org/2000/svg" xmlns:xlink="http://www.w3.org/1999/xlink">
<g id="graph0" class="graph" transform="scale(1 1) rotate(0) translate(4 357.75)">
<title>TTL_export_double_const_ushort_tensor_buffering_t</title>
<!-- Node1 -->
<g id="Node000001" class="node">
<title>Node1</title>
<g id="a_Node000001"><a xlink:title="Data required to perform double buffer pipelining.">
<polygon fill="#999999" stroke="none" points="188,-105 64,-105 64,0 188,0 188,-105"/>
<text text-anchor="start" x="68.62" y="-91.5" font-family="Helvetica,sans-Serif" font-size="10.00">TTL_export_double_const</text>
<text text-anchor="start" x="68.62" y="-80.25" font-family="Helvetica,sans-Serif" font-size="10.00">_ushort_tensor_buffering_t</text>
<text text-anchor="start" x="85" y="-65.5" font-family="Helvetica,sans-Serif" font-size="10.00">+</text>
<text text-anchor="start" x="112" y="-65.5" font-family="Helvetica,sans-Serif" font-size="10.00">index</text>
<text text-anchor="start" x="85" y="-50.5" font-family="Helvetica,sans-Serif" font-size="10.00">+</text>
<text text-anchor="start" x="112" y="-50.5" font-family="Helvetica,sans-Serif" font-size="10.00">int_base</text>
<text text-anchor="start" x="85" y="-35.5" font-family="Helvetica,sans-Serif" font-size="10.00">+</text>
<text text-anchor="start" x="112" y="-35.5" font-family="Helvetica,sans-Serif" font-size="10.00">common</text>
<text text-anchor="start" x="85" y="-20.5" font-family="Helvetica,sans-Serif" font-size="10.00">+</text>
<text text-anchor="start" x="112" y="-20.5" font-family="Helvetica,sans-Serif" font-size="10.00">event</text>
<text text-anchor="start" x="124.5" y="-5.5" font-family="Helvetica,sans-Serif" font-size="10.00"> </text>
<polygon fill="#666666" stroke="#666666" points="64,-77 64,-77 188,-77 188,-77 64,-77"/>
<polygon fill="#666666" stroke="#666666" points="64,-17 64,-17 110,-17 110,-17 64,-17"/>
<polygon fill="#666666" stroke="#666666" points="110,-17 110,-17 188,-17 188,-17 110,-17"/>
<polygon fill="none" stroke="#666666" points="64,0 64,-105 188,-105 188,0 64,0"/>
</a>
</g>
</g>
<!-- Node2 -->
<g id="Node000002" class="node">
<title>Node2</title>
<g id="a_Node000002"><a xlink:href="structTTL__ext__ushort__tensor__t.html" target="_top" xlink:title="const and non&#45;const tensors in the appropriate address space">
<polygon fill="white" stroke="none" points="134,-227.5 16,-227.5 16,-163.5 134,-163.5 134,-227.5"/>
<text text-anchor="start" x="20.62" y="-214" font-family="Helvetica,sans-Serif" font-size="10.00">TTL_ext_ushort_tensor_t</text>
<text text-anchor="start" x="34" y="-199" font-family="Helvetica,sans-Serif" font-size="10.00">+</text>
<text text-anchor="start" x="58" y="-199" font-family="Helvetica,sans-Serif" font-size="10.00">base</text>
<text text-anchor="start" x="34" y="-184" font-family="Helvetica,sans-Serif" font-size="10.00">+</text>
<text text-anchor="start" x="58" y="-184" font-family="Helvetica,sans-Serif" font-size="10.00">elem_size</text>
<text text-anchor="start" x="73.5" y="-169" font-family="Helvetica,sans-Serif" font-size="10.00"> </text>
<polygon fill="#666666" stroke="#666666" points="16,-210.5 16,-210.5 134,-210.5 134,-210.5 16,-210.5"/>
<polygon fill="#666666" stroke="#666666" points="16,-180.5 16,-180.5 56,-180.5 56,-180.5 16,-180.5"/>
<polygon fill="#666666" stroke="#666666" points="56,-180.5 56,-180.5 134,-180.5 134,-180.5 56,-180.5"/>
<polygon fill="none" stroke="#666666" points="16,-163.5 16,-227.5 134,-227.5 134,-163.5 16,-163.5"/>
</a>
</g>
</g>
<!-- Node2&#45;&gt;Node1 -->
<g id="edge1_Node000001_Node000002" class="edge">
<title>Node2&#45;&gt;Node1</title>
<g id="a_edge1_Node000001_Node000002"><a xlink:title=" ">
<path fill="none" stroke="#63b8ff" d="M76.21,-163.59C77.42,-150.76 79.77,-135.89 84.25,-123 85.01,-120.8 85.85,-118.6 86.76,-116.4"/>
<polygon fill="none" stroke="#63b8ff" points="86.73,-116.46 85.59,-109.34 91.73,-105.55 92.87,-112.67 86.73,-116.46"/>
</a>
</g>
<text text-anchor="middle" x="118.88" y="-136" font-family="Helvetica,sans-Serif" font-size="10.00" fill="grey"> +ext_tensor_in</text>
<text text-anchor="middle" x="118.88" y="-124.75" font-family="Helvetica,sans-Serif" font-size="10.00" fill="grey">+ext_tensor_out</text>
</g>
<!-- Node3 -->
<g id="Node000003" class="node">
<title>Node3</title>
<g id="a_Node000003"><a xlink:href="structTTL__layout__t.html" target="_top" xlink:title="Description of a Tensor layout in memory.">
<polygon fill="white" stroke="none" points="80,-346.25 0,-346.25 0,-282.25 80,-282.25 80,-346.25"/>
<text text-anchor="start" x="11.5" y="-332.75" font-family="Helvetica,sans-Serif" font-size="10.00">TTL_layout_t</text>
<text text-anchor="start" x="4" y="-317.75" font-family="Helvetica,sans-Serif" font-size="10.00">+</text>
<text text-anchor="start" x="14" y="-317.75" font-family="Helvetica,sans-Serif" font-size="10.00">row_spacing</text>
<text text-anchor="start" x="4" y="-302.75" font-family="Helvetica,sans-Serif" font-size="10.00">+</text>
<text text-anchor="start" x="14" y="-302.75" font-family="Helvetica,sans-Serif" font-size="10.00">plane_spacing</text>
<text text-anchor="start" x="38.5" y="-287.75" font-family="Helvetica,sans-Serif" font-size="10.00"> </text>
<polygon fill="#666666" stroke="#666666" points="0,-329.25 0,-329.25 80,-329.25 80,-329.25 0,-329.25"/>
<polygon fill="#666666" stroke="#666666" points="0,-299.25 0,-299.25 12,-299.25 12,-299.25 0,-299.25"/>
<polygon fill="#666666" stroke="#666666" points="12,-299.25 12,-299.25 80,-299.25 80,-299.25 12,-299.25"/>
<polygon fill="none" stroke="#666666" points="0,-282.25 0,-346.25 80,-346.25 80,-282.25 0,-282.25"/>
</a>
</g>
</g>
<!-- Node3&#45;&gt;Node2 -->
<g id="edge2_Node000002_Node000003" class="edge">
<title>Node3&#45;&gt;Node2</title>
<g id="a_edge2_Node000002_Node000003"><a xlink:title=" ">
<path fill="none" stroke="#63b8ff" d="M37.47,-282.28C37.43,-270.52 38.5,-257.15 42.25,-245.5 42.97,-243.26 43.83,-241.03 44.79,-238.82"/>
<polygon fill="none" stroke="#63b8ff" points="44.81,-238.78 44.02,-231.61 50.34,-228.12 51.12,-235.29 44.81,-238.78"/>
</a>
</g>
<text text-anchor="middle" x="58.88" y="-247.25" font-family="Helvetica,sans-Serif" font-size="10.00" fill="grey"> +layout</text>
</g>
<!-- Node4 -->
<g id="Node000004" class="node">
<title>Node4</title>
<g id="a_Node000004"><a xlink:href="structTTL__shape__t.html" target="_top" xlink:title="Description of a Shape.">
<polygon fill="white" stroke="none" points="165.5,-353.75 98.5,-353.75 98.5,-274.75 165.5,-274.75 165.5,-353.75"/>
<text text-anchor="start" x="103.12" y="-340.25" font-family="Helvetica,sans-Serif" font-size="10.00">TTL_shape_t</text>
<text text-anchor="start" x="108" y="-325.25" font-family="Helvetica,sans-Serif" font-size="10.00">+</text>
<text text-anchor="start" x="123.5" y="-325.25" font-family="Helvetica,sans-Serif" font-size="10.00">width</text>
<text text-anchor="start" x="108" y="-310.25" font-family="Helvetica,sans-Serif" font-size="10.00">+</text>
<text text-anchor="start" x="123.5" y="-310.25" font-family="Helvetica,sans-Serif" font-size="10.00">height</text>
<text text-anchor="start" x="108" y="-295.25" font-family="Helvetica,sans-Serif" font-size="10.00">+</text>
<text text-anchor="start" x="123.5" y="-295.25" font-family="Helvetica,sans-Serif" font-size="10.00">depth</text>
<text text-anchor="start" x="130.5" y="-280.25" font-family="Helvetica,sans-Serif" font-size="10.00"> </text>
<polygon fill="#666666" stroke="#666666" points="98.5,-336.75 98.5,-336.75 165.5,-336.75 165.5,-336.75 98.5,-336.75"/>
<polygon fill="#666666" stroke="#666666" points="98.5,-291.75 98.5,-291.75 121.5,-291.75 121.5,-291.75 98.5,-291.75"/>
<polygon fill="#666666" stroke="#666666" points="121.5,-291.75 121.5,-291.75 165.5,-291.75 165.5,-291.75 121.5,-291.75"/>
<polygon fill="none" stroke="#666666" points="98.5,-274.75 98.5,-353.75 165.5,-353.75 165.5,-274.75 98.5,-274.75"/>
</a>
</g>
</g>
<!-- Node4&#45;&gt;Node2 -->
<g id="edge3_Node000002_Node000004" class="edge">
<title>Node4&#45;&gt;Node2</title>
<g id="a_edge3_Node000002_Node000004"><a xlink:title=" ">
<path fill="none" stroke="#63b8ff" d="M113.34,-275.02C107.69,-263.45 101.45,-250.68 95.68,-238.85"/>
<polygon fill="none" stroke="#63b8ff" points="95.76,-239.02 89.53,-235.38 90.49,-228.23 96.72,-231.87 95.76,-239.02"/>
</a>
</g>
<text text-anchor="middle" x="120.25" y="-247.25" font-family="Helvetica,sans-Serif" font-size="10.00" fill="grey"> +shape</text>
</g>
<!-- Node5 -->
<g id="Node000005" class="node">
<title>Node5</title>
<g id="a_Node000005"><a xlink:href="structTTL__tile__t.html" target="_top" xlink:title=" ">
<polygon fill="white" stroke="none" points="206,-220 152,-220 152,-171 206,-171 206,-220"/>
<text text-anchor="start" x="156.88" y="-206.5" font-family="Helvetica,sans-Serif" font-size="10.00">TTL_tile_t</text>
<text text-anchor="start" x="177.5" y="-191.5" font-family="Helvetica,sans-Serif" font-size="10.00"> </text>
<text text-anchor="start" x="177.5" y="-176.5" font-family="Helvetica,sans-Serif" font-size="10.00"> </text>
<polygon fill="#666666" stroke="#666666" points="152,-203 152,-203 206,-203 206,-203 152,-203"/>
<polygon fill="#666666" stroke="#666666" points="152,-188 152,-188 206,-188 206,-188 152,-188"/>
<polygon fill="none" stroke="#666666" points="152,-171 152,-220 206,-220 206,-171 152,-171"/>
</a>
</g>
</g>
<!-- Node4&#45;&gt;Node5 -->
<g id="edge5_Node000005_Node000004" class="edge">
<title>Node4&#45;&gt;Node5</title>
<g id="a_edge5_Node000005_Node000004"><a xlink:title=" ">
<path fill="none" stroke="#63b8ff" d="M145.18,-275.05C148.7,-265.35 152.61,-254.99 156.5,-245.5 158.4,-240.86 160.49,-236.01 162.61,-231.25"/>
<polygon fill="none" stroke="#63b8ff" points="162.5,-231.5 161.34,-224.38 167.47,-220.57 168.62,-227.69 162.5,-231.5"/>
</a>
</g>
<text text-anchor="middle" x="173.25" y="-247.25" font-family="Helvetica,sans-Serif" font-size="10.00" fill="grey"> +shape</text>
</g>
<!-- Node5&#45;&gt;Node1 -->
<g id="edge4_Node000001_Node000005" class="edge">
<title>Node5&#45;&gt;Node1</title>
<g id="a_edge4_Node000001_Node000005"><a xlink:title=" ">
<path fill="none" stroke="#63b8ff" d="M171.17,-171.22C166.37,-157.19 160.02,-139 154,-123 153.23,-120.95 152.44,-118.87 151.63,-116.77"/>
<polygon fill="none" stroke="#63b8ff" points="151.59,-116.66 145.69,-112.52 147.24,-105.47 153.14,-109.62 151.59,-116.66"/>
</a>
</g>
<text text-anchor="middle" x="183.5" y="-130.38" font-family="Helvetica,sans-Serif" font-size="10.00" fill="grey"> +prev_tile</text>
</g>
<!-- Node6 -->
<g id="Node000006" class="node">
<title>Node6</title>
<g id="a_Node000006"><a xlink:href="structTTL__offset__t.html" target="_top" xlink:title="Description of the 3D offset of an object.">
<polygon fill="white" stroke="none" points="248.5,-353.75 183.5,-353.75 183.5,-274.75 248.5,-274.75 248.5,-353.75"/>
<text text-anchor="start" x="188.25" y="-340.25" font-family="Helvetica,sans-Serif" font-size="10.00">TTL_offset_t</text>
<text text-anchor="start" x="198" y="-325.25" font-family="Helvetica,sans-Serif" font-size="10.00">+</text>
<text text-anchor="start" x="218.5" y="-325.25" font-family="Helvetica,sans-Serif" font-size="10.00">x</text>
<text text-anchor="start" x="198" y="-310.25" font-family="Helvetica,sans-Serif" font-size="10.00">+</text>
<text text-anchor="start" x="218.5" y="-310.25" font-family="Helvetica,sans-Serif" font-size="10.00">y</text>
<text text-anchor="start" x="198" y="-295.25" font-family="Helvetica,sans-Serif" font-size="10.00">+</text>
<text text-anchor="start" x="218.5" y="-295.25" font-family="Helvetica,sans-Serif" font-size="10.00">z</text>
<text text-anchor="start" x="214.5" y="-280.25" font-family="Helvetica,sans-Serif" font-size="10.00"> </text>
<polygon fill="#666666" stroke="#666666" points="183.5,-336.75 183.5,-336.75 248.5,-336.75 248.5,-336.75 183.5,-336.75"/>
<polygon fill="#666666" stroke="#666666" points="183.5,-291.75 183.5,-291.75 216.5,-291.75 216.5,-291.75 183.5,-291.75"/>
<polygon fill="#666666" stroke="#666666" points="216.5,-291.75 216.5,-291.75 248.5,-291.75 248.5,-291.75 216.5,-291.75"/>
<polygon fill="none" stroke="#666666" points="183.5,-274.75 183.5,-353.75 248.5,-353.75 248.5,-274.75 183.5,-274.75"/>
</a>
</g>
</g>
<!-- Node6&#45;&gt;Node5 -->
<g id="edge6_Node000005_Node000006" class="edge">
<title>Node6&#45;&gt;Node5</title>
<g id="a_edge6_Node000005_Node000006"><a xlink:title=" ">
<path fill="none" stroke="#63b8ff" d="M203.88,-275.02C199.51,-261.21 194.59,-245.69 190.29,-232.11"/>
<polygon fill="none" stroke="#63b8ff" points="190.29,-232.11 184.66,-227.6 186.66,-220.67 192.29,-225.19 190.29,-232.11"/>
</a>
</g>
<text text-anchor="middle" x="213.12" y="-247.25" font-family="Helvetica,sans-Serif" font-size="10.00" fill="grey"> +offset</text>
</g>
</g>
</svg>
