<?xml version="1.0" encoding="UTF-8" standalone="no"?>
<!DOCTYPE svg PUBLIC "-//W3C//DTD SVG 1.1//EN"
 "http://www.w3.org/Graphics/SVG/1.1/DTD/svg11.dtd">
<!-- Generated by graphviz version 12.0.0 (20240704.0754)
 -->
<!-- Title: TTL_shape_t Pages: 1 -->
<svg width="75pt" height="87pt"
 viewBox="0.00 0.00 75.00 87.00" xmlns="http://www.w3.org/2000/svg" xmlns:xlink="http://www.w3.org/1999/xlink">
<g id="graph0" class="graph" transform="scale(1 1) rotate(0) translate(4 83)">
<title>TTL_shape_t</title>
<!-- Node1 -->
<g id="Node000001" class="node">
<title>Node1</title>
<g id="a_Node000001"><a xlink:title="Description of a Shape.">
<polygon fill="#999999" stroke="none" points="67,-79 0,-79 0,0 67,0 67,-79"/>
<text text-anchor="start" x="4.62" y="-65.5" font-family="Helvetica,sans-Serif" font-size="10.00">TTL_shape_t</text>
<text text-anchor="start" x="9.5" y="-50.5" font-family="Helvetica,sans-Serif" font-size="10.00">+</text>
<text text-anchor="start" x="25" y="-50.5" font-family="Helvetica,sans-Serif" font-size="10.00">width</text>
<text text-anchor="start" x="9.5" y="-35.5" font-family="Helvetica,sans-Serif" font-size="10.00">+</text>
<text text-anchor="start" x="25" y="-35.5" font-family="Helvetica,sans-Serif" font-size="10.00">height</text>
<text text-anchor="start" x="9.5" y="-20.5" font-family="Helvetica,sans-Serif" font-size="10.00">+</text>
<text text-anchor="start" x="25" y="-20.5" font-family="Helvetica,sans-Serif" font-size="10.00">depth</text>
<text text-anchor="start" x="32" y="-5.5" font-family="Helvetica,sans-Serif" font-size="10.00"> </text>
<polygon fill="#666666" stroke="#666666" points="0,-62 0,-62 67,-62 67,-62 0,-62"/>
<polygon fill="#666666" stroke="#666666" points="0,-17 0,-17 23,-17 23,-17 0,-17"/>
<polygon fill="#666666" stroke="#666666" points="23,-17 23,-17 67,-17 67,-17 23,-17"/>
<polygon fill="none" stroke="#666666" points="0,0 0,-79 67,-79 67,0 0,0"/>
</a>
</g>
</g>
</g>
</svg>
