<?xml version="1.0" encoding="UTF-8" standalone="no"?>
<!DOCTYPE svg PUBLIC "-//W3C//DTD SVG 1.1//EN"
 "http://www.w3.org/Graphics/SVG/1.1/DTD/svg11.dtd">
<!-- Generated by graphviz version 12.0.0 (20240704.0754)
 -->
<!-- Title: TTL_duplex_const_char_tensor_buffering_t Pages: 1 -->
<svg width="239pt" height="399pt"
 viewBox="0.00 0.00 238.75 399.00" xmlns="http://www.w3.org/2000/svg" xmlns:xlink="http://www.w3.org/1999/xlink">
<g id="graph0" class="graph" transform="scale(1 1) rotate(0) translate(4 395)">
<title>TTL_duplex_const_char_tensor_buffering_t</title>
<!-- Node1 -->
<g id="Node000001" class="node">
<title>Node1</title>
<g id="a_Node000001"><a xlink:title="Data required to perform duplex buffer pipelining.">
<polygon fill="#999999" stroke="none" points="172,-120 58,-120 58,0 172,0 172,-120"/>
<text text-anchor="start" x="62.88" y="-106.5" font-family="Helvetica,sans-Serif" font-size="10.00">TTL_duplex_const_char</text>
<text text-anchor="start" x="73.75" y="-95.25" font-family="Helvetica,sans-Serif" font-size="10.00">_tensor_buffering_t</text>
<text text-anchor="start" x="67" y="-80.5" font-family="Helvetica,sans-Serif" font-size="10.00">+</text>
<text text-anchor="start" x="82" y="-80.5" font-family="Helvetica,sans-Serif" font-size="10.00">index</text>
<text text-anchor="start" x="67" y="-65.5" font-family="Helvetica,sans-Serif" font-size="10.00">+</text>
<text text-anchor="start" x="82" y="-65.5" font-family="Helvetica,sans-Serif" font-size="10.00">int_base</text>
<text text-anchor="start" x="67" y="-50.5" font-family="Helvetica,sans-Serif" font-size="10.00">+</text>
<text text-anchor="start" x="82" y="-50.5" font-family="Helvetica,sans-Serif" font-size="10.00">common</text>
<text text-anchor="start" x="67" y="-35.5" font-family="Helvetica,sans-Serif" font-size="10.00">+</text>
<text text-anchor="start" x="82" y="-35.5" font-family="Helvetica,sans-Serif" font-size="10.00">events</text>
<text text-anchor="start" x="67" y="-20.5" font-family="Helvetica,sans-Serif" font-size="10.00">+</text>
<text text-anchor="start" x="82" y="-20.5" font-family="Helvetica,sans-Serif" font-size="10.00">prev_out_tensors</text>
<text text-anchor="start" x="113.5" y="-5.5" font-family="Helvetica,sans-Serif" font-size="10.00"> </text>
<polygon fill="#666666" stroke="#666666" points="58,-92 58,-92 172,-92 172,-92 58,-92"/>
<polygon fill="#666666" stroke="#666666" points="58,-17 58,-17 80,-17 80,-17 58,-17"/>
<polygon fill="#666666" stroke="#666666" points="80,-17 80,-17 172,-17 172,-17 80,-17"/>
<polygon fill="none" stroke="#666666" points="58,0 58,-120 172,-120 172,0 58,0"/>
</a>
</g>
</g>
<!-- Node2 -->
<g id="Node000002" class="node">
<title>Node2</title>
<g id="a_Node000002"><a xlink:href="structTTL__ext__char__tensor__t.html" target="_top" xlink:title="const and non&#45;const tensors in the appropriate address space">
<polygon fill="white" stroke="none" points="110,-259.25 0,-259.25 0,-195.25 110,-195.25 110,-259.25"/>
<text text-anchor="start" x="4.75" y="-245.75" font-family="Helvetica,sans-Serif" font-size="10.00">TTL_ext_char_tensor_t</text>
<text text-anchor="start" x="16" y="-230.75" font-family="Helvetica,sans-Serif" font-size="10.00">+</text>
<text text-anchor="start" x="38" y="-230.75" font-family="Helvetica,sans-Serif" font-size="10.00">base</text>
<text text-anchor="start" x="16" y="-215.75" font-family="Helvetica,sans-Serif" font-size="10.00">+</text>
<text text-anchor="start" x="38" y="-215.75" font-family="Helvetica,sans-Serif" font-size="10.00">elem_size</text>
<text text-anchor="start" x="53.5" y="-200.75" font-family="Helvetica,sans-Serif" font-size="10.00"> </text>
<polygon fill="#666666" stroke="#666666" points="0,-242.25 0,-242.25 110,-242.25 110,-242.25 0,-242.25"/>
<polygon fill="#666666" stroke="#666666" points="0,-212.25 0,-212.25 36,-212.25 36,-212.25 0,-212.25"/>
<polygon fill="#666666" stroke="#666666" points="36,-212.25 36,-212.25 110,-212.25 110,-212.25 36,-212.25"/>
<polygon fill="none" stroke="#666666" points="0,-195.25 0,-259.25 110,-259.25 110,-195.25 0,-195.25"/>
</a>
</g>
</g>
<!-- Node2&#45;&gt;Node1 -->
<g id="edge1_Node000001_Node000002" class="edge">
<title>Node2&#45;&gt;Node1</title>
<g id="a_edge1_Node000001_Node000002"><a xlink:title=" ">
<path fill="none" stroke="#63b8ff" d="M61.08,-195.55C64.9,-178.36 70.4,-156.69 77.25,-138 78.01,-135.93 78.8,-133.85 79.63,-131.76"/>
<polygon fill="none" stroke="#63b8ff" points="79.68,-131.63 78.31,-124.55 84.32,-120.56 85.69,-127.64 79.68,-131.63"/>
</a>
</g>
<text text-anchor="middle" x="111.88" y="-162.25" font-family="Helvetica,sans-Serif" font-size="10.00" fill="grey"> +ext_tensor_in</text>
<text text-anchor="middle" x="111.88" y="-151" font-family="Helvetica,sans-Serif" font-size="10.00" fill="grey">+ext_tensor_out</text>
<text text-anchor="middle" x="111.88" y="-139.75" font-family="Helvetica,sans-Serif" font-size="10.00" fill="grey">+to_export_to</text>
</g>
<!-- Node3 -->
<g id="Node000003" class="node">
<title>Node3</title>
<g id="a_Node000003"><a xlink:href="structTTL__layout__t.html" target="_top" xlink:title="Description of a Tensor layout in memory.">
<polygon fill="white" stroke="none" points="104,-383.5 24,-383.5 24,-319.5 104,-319.5 104,-383.5"/>
<text text-anchor="start" x="35.5" y="-370" font-family="Helvetica,sans-Serif" font-size="10.00">TTL_layout_t</text>
<text text-anchor="start" x="28" y="-355" font-family="Helvetica,sans-Serif" font-size="10.00">+</text>
<text text-anchor="start" x="38" y="-355" font-family="Helvetica,sans-Serif" font-size="10.00">row_spacing</text>
<text text-anchor="start" x="28" y="-340" font-family="Helvetica,sans-Serif" font-size="10.00">+</text>
<text text-anchor="start" x="38" y="-340" font-family="Helvetica,sans-Serif" font-size="10.00">plane_spacing</text>
<text text-anchor="start" x="62.5" y="-325" font-family="Helvetica,sans-Serif" font-size="10.00"> </text>
<polygon fill="#666666" stroke="#666666" points="24,-366.5 24,-366.5 104,-366.5 104,-366.5 24,-366.5"/>
<polygon fill="#666666" stroke="#666666" points="24,-336.5 24,-336.5 36,-336.5 36,-336.5 24,-336.5"/>
<polygon fill="#666666" stroke="#666666" points="36,-336.5 36,-336.5 104,-336.5 104,-336.5 36,-336.5"/>
<polygon fill="none" stroke="#666666" points="24,-319.5 24,-383.5 104,-383.5 104,-319.5 24,-319.5"/>
</a>
</g>
</g>
<!-- Node3&#45;&gt;Node2 -->
<g id="edge2_Node000002_Node000003" class="edge">
<title>Node3&#45;&gt;Node2</title>
<g id="a_edge2_Node000002_Node000003"><a xlink:title=" ">
<path fill="none" stroke="#63b8ff" d="M42.19,-319.52C37.69,-311.56 33.61,-302.76 31.25,-294 29.25,-286.57 29.7,-278.78 31.51,-271.27"/>
<polygon fill="none" stroke="#63b8ff" points="31.52,-271.24 29.64,-264.28 35.35,-259.87 37.23,-266.83 31.52,-271.24"/>
</a>
</g>
<text text-anchor="middle" x="48.88" y="-284.5" font-family="Helvetica,sans-Serif" font-size="10.00" fill="grey"> +layout</text>
</g>
<!-- Node5 -->
<g id="Node000005" class="node">
<title>Node5</title>
<g id="a_Node000005"><a xlink:href="structTTL__const__int__char__tensor__t.html" target="_top" xlink:title=" ">
<polygon fill="white" stroke="none" points="225.5,-264.75 128.5,-264.75 128.5,-189.75 225.5,-189.75 225.5,-264.75"/>
<text text-anchor="start" x="133.5" y="-251.25" font-family="Helvetica,sans-Serif" font-size="10.00">TTL_const_int_char</text>
<text text-anchor="start" x="156.75" y="-240" font-family="Helvetica,sans-Serif" font-size="10.00">_tensor_t</text>
<text text-anchor="start" x="141.5" y="-225.25" font-family="Helvetica,sans-Serif" font-size="10.00">+</text>
<text text-anchor="start" x="160.5" y="-225.25" font-family="Helvetica,sans-Serif" font-size="10.00">base</text>
<text text-anchor="start" x="141.5" y="-210.25" font-family="Helvetica,sans-Serif" font-size="10.00">+</text>
<text text-anchor="start" x="160.5" y="-210.25" font-family="Helvetica,sans-Serif" font-size="10.00">elem_size</text>
<text text-anchor="start" x="175.5" y="-195.25" font-family="Helvetica,sans-Serif" font-size="10.00"> </text>
<polygon fill="#666666" stroke="#666666" points="128.5,-236.75 128.5,-236.75 225.5,-236.75 225.5,-236.75 128.5,-236.75"/>
<polygon fill="#666666" stroke="#666666" points="128.5,-206.75 128.5,-206.75 158.5,-206.75 158.5,-206.75 128.5,-206.75"/>
<polygon fill="#666666" stroke="#666666" points="158.5,-206.75 158.5,-206.75 225.5,-206.75 225.5,-206.75 158.5,-206.75"/>
<polygon fill="none" stroke="#666666" points="128.5,-189.75 128.5,-264.75 225.5,-264.75 225.5,-189.75 128.5,-189.75"/>
</a>
</g>
</g>
<!-- Node3&#45;&gt;Node5 -->
<g id="edge5_Node000005_Node000003" class="edge">
<title>Node3&#45;&gt;Node5</title>
<g id="a_edge5_Node000005_Node000003"><a xlink:title=" ">
<path fill="none" stroke="#63b8ff" d="M67.84,-319.68C70.69,-307.12 75.64,-293.15 84.25,-282.75 93.44,-271.66 100.89,-272.52 117.29,-264.98"/>
<polygon fill="none" stroke="#63b8ff" points="117.31,-264.97 120.8,-258.66 127.96,-259.44 124.48,-265.76 117.31,-264.97"/>
</a>
</g>
<text text-anchor="middle" x="100.88" y="-284.5" font-family="Helvetica,sans-Serif" font-size="10.00" fill="grey"> +layout</text>
</g>
<!-- Node4 -->
<g id="Node000004" class="node">
<title>Node4</title>
<g id="a_Node000004"><a xlink:href="structTTL__shape__t.html" target="_top" xlink:title="Description of a Shape.">
<polygon fill="white" stroke="none" points="200.5,-391 133.5,-391 133.5,-312 200.5,-312 200.5,-391"/>
<text text-anchor="start" x="138.12" y="-377.5" font-family="Helvetica,sans-Serif" font-size="10.00">TTL_shape_t</text>
<text text-anchor="start" x="143" y="-362.5" font-family="Helvetica,sans-Serif" font-size="10.00">+</text>
<text text-anchor="start" x="158.5" y="-362.5" font-family="Helvetica,sans-Serif" font-size="10.00">width</text>
<text text-anchor="start" x="143" y="-347.5" font-family="Helvetica,sans-Serif" font-size="10.00">+</text>
<text text-anchor="start" x="158.5" y="-347.5" font-family="Helvetica,sans-Serif" font-size="10.00">height</text>
<text text-anchor="start" x="143" y="-332.5" font-family="Helvetica,sans-Serif" font-size="10.00">+</text>
<text text-anchor="start" x="158.5" y="-332.5" font-family="Helvetica,sans-Serif" font-size="10.00">depth</text>
<text text-anchor="start" x="165.5" y="-317.5" font-family="Helvetica,sans-Serif" font-size="10.00"> </text>
<polygon fill="#666666" stroke="#666666" points="133.5,-374 133.5,-374 200.5,-374 200.5,-374 133.5,-374"/>
<polygon fill="#666666" stroke="#666666" points="133.5,-329 133.5,-329 156.5,-329 156.5,-329 133.5,-329"/>
<polygon fill="#666666" stroke="#666666" points="156.5,-329 156.5,-329 200.5,-329 200.5,-329 156.5,-329"/>
<polygon fill="none" stroke="#666666" points="133.5,-312 133.5,-391 200.5,-391 200.5,-312 133.5,-312"/>
</a>
</g>
</g>
<!-- Node4&#45;&gt;Node2 -->
<g id="edge3_Node000002_Node000004" class="edge">
<title>Node4&#45;&gt;Node2</title>
<g id="a_edge3_Node000002_Node000004"><a xlink:title=" ">
<path fill="none" stroke="#63b8ff" d="M144.39,-312.09C137.74,-302.09 130.07,-291.64 122,-282.75 117.28,-277.55 112.04,-272.42 106.63,-267.52"/>
<polygon fill="none" stroke="#63b8ff" points="106.52,-267.43 99.37,-266.52 97.46,-259.56 104.62,-260.48 106.52,-267.43"/>
</a>
</g>
<text text-anchor="middle" x="147.25" y="-284.5" font-family="Helvetica,sans-Serif" font-size="10.00" fill="grey"> +shape</text>
</g>
<!-- Node4&#45;&gt;Node5 -->
<g id="edge6_Node000005_Node000004" class="edge">
<title>Node4&#45;&gt;Node5</title>
<g id="a_edge6_Node000005_Node000004"><a xlink:title=" ">
<path fill="none" stroke="#63b8ff" d="M177.06,-312.1C178.28,-306.08 179.33,-299.9 180,-294 180.61,-288.64 180.89,-283.01 180.95,-277.41"/>
<polygon fill="none" stroke="#63b8ff" points="180.95,-277.39 176.84,-271.47 180.73,-265.39 184.84,-271.32 180.95,-277.39"/>
</a>
</g>
<text text-anchor="middle" x="197.25" y="-284.5" font-family="Helvetica,sans-Serif" font-size="10.00" fill="grey"> +shape</text>
</g>
<!-- Node5&#45;&gt;Node1 -->
<g id="edge4_Node000001_Node000005" class="edge">
<title>Node5&#45;&gt;Node1</title>
<g id="a_edge4_Node000001_Node000005"><a xlink:title=" ">
<path fill="none" stroke="#63b8ff" d="M165.28,-189.99C159.94,-173.97 153.4,-154.96 147,-138 146.23,-135.95 145.43,-133.88 144.63,-131.78"/>
<polygon fill="none" stroke="#63b8ff" points="144.59,-131.7 138.67,-127.58 140.19,-120.54 146.11,-124.65 144.59,-131.7"/>
</a>
</g>
<text text-anchor="middle" x="194.38" y="-151" font-family="Helvetica,sans-Serif" font-size="10.00" fill="grey"> +to_export_from</text>
</g>
</g>
</svg>
