<?xml version="1.0" encoding="UTF-8" standalone="no"?>
<!DOCTYPE svg PUBLIC "-//W3C//DTD SVG 1.1//EN"
 "http://www.w3.org/Graphics/SVG/1.1/DTD/svg11.dtd">
<!-- Generated by graphviz version 12.0.0 (20240704.0754)
 -->
<!-- Title: TTL_tile_t Pages: 1 -->
<svg width="158pt" height="183pt"
 viewBox="0.00 0.00 158.00 183.25" xmlns="http://www.w3.org/2000/svg" xmlns:xlink="http://www.w3.org/1999/xlink">
<g id="graph0" class="graph" transform="scale(1 1) rotate(0) translate(4 179.25)">
<title>TTL_tile_t</title>
<!-- Node1 -->
<g id="Node000001" class="node">
<title>Node1</title>
<g id="a_Node000001"><a xlink:title=" ">
<polygon fill="#999999" stroke="none" points="102.5,-49 48.5,-49 48.5,0 102.5,0 102.5,-49"/>
<text text-anchor="start" x="53.38" y="-35.5" font-family="Helvetica,sans-Serif" font-size="10.00">TTL_tile_t</text>
<text text-anchor="start" x="74" y="-20.5" font-family="Helvetica,sans-Serif" font-size="10.00"> </text>
<text text-anchor="start" x="74" y="-5.5" font-family="Helvetica,sans-Serif" font-size="10.00"> </text>
<polygon fill="#666666" stroke="#666666" points="48.5,-32 48.5,-32 102.5,-32 102.5,-32 48.5,-32"/>
<polygon fill="#666666" stroke="#666666" points="48.5,-17 48.5,-17 102.5,-17 102.5,-17 48.5,-17"/>
<polygon fill="none" stroke="#666666" points="48.5,0 48.5,-49 102.5,-49 102.5,0 48.5,0"/>
</a>
</g>
</g>
<!-- Node2 -->
<g id="Node000002" class="node">
<title>Node2</title>
<g id="a_Node000002"><a xlink:href="structTTL__shape__t.html" target="_top" xlink:title="Description of a Shape.">
<polygon fill="white" stroke="none" points="67,-175.25 0,-175.25 0,-96.25 67,-96.25 67,-175.25"/>
<text text-anchor="start" x="4.62" y="-161.75" font-family="Helvetica,sans-Serif" font-size="10.00">TTL_shape_t</text>
<text text-anchor="start" x="9.5" y="-146.75" font-family="Helvetica,sans-Serif" font-size="10.00">+</text>
<text text-anchor="start" x="25" y="-146.75" font-family="Helvetica,sans-Serif" font-size="10.00">width</text>
<text text-anchor="start" x="9.5" y="-131.75" font-family="Helvetica,sans-Serif" font-size="10.00">+</text>
<text text-anchor="start" x="25" y="-131.75" font-family="Helvetica,sans-Serif" font-size="10.00">height</text>
<text text-anchor="start" x="9.5" y="-116.75" font-family="Helvetica,sans-Serif" font-size="10.00">+</text>
<text text-anchor="start" x="25" y="-116.75" font-family="Helvetica,sans-Serif" font-size="10.00">depth</text>
<text text-anchor="start" x="32" y="-101.75" font-family="Helvetica,sans-Serif" font-size="10.00"> </text>
<polygon fill="#666666" stroke="#666666" points="0,-158.25 0,-158.25 67,-158.25 67,-158.25 0,-158.25"/>
<polygon fill="#666666" stroke="#666666" points="0,-113.25 0,-113.25 23,-113.25 23,-113.25 0,-113.25"/>
<polygon fill="#666666" stroke="#666666" points="23,-113.25 23,-113.25 67,-113.25 67,-113.25 23,-113.25"/>
<polygon fill="none" stroke="#666666" points="0,-96.25 0,-175.25 67,-175.25 67,-96.25 0,-96.25"/>
</a>
</g>
</g>
<!-- Node2&#45;&gt;Node1 -->
<g id="edge1_Node000001_Node000002" class="edge">
<title>Node2&#45;&gt;Node1</title>
<g id="a_edge1_Node000001_Node000002"><a xlink:title=" ">
<path fill="none" stroke="#63b8ff" d="M48.19,-96.54C52.62,-85.01 57.47,-72.39 61.84,-61.04"/>
<polygon fill="none" stroke="#63b8ff" points="61.88,-60.92 60.3,-53.89 66.19,-49.72 67.77,-56.76 61.88,-60.92"/>
</a>
</g>
<text text-anchor="middle" x="75.75" y="-68.75" font-family="Helvetica,sans-Serif" font-size="10.00" fill="grey"> +shape</text>
</g>
<!-- Node3 -->
<g id="Node000003" class="node">
<title>Node3</title>
<g id="a_Node000003"><a xlink:href="structTTL__offset__t.html" target="_top" xlink:title="Description of the 3D offset of an object.">
<polygon fill="white" stroke="none" points="150,-175.25 85,-175.25 85,-96.25 150,-96.25 150,-175.25"/>
<text text-anchor="start" x="89.75" y="-161.75" font-family="Helvetica,sans-Serif" font-size="10.00">TTL_offset_t</text>
<text text-anchor="start" x="99.5" y="-146.75" font-family="Helvetica,sans-Serif" font-size="10.00">+</text>
<text text-anchor="start" x="120" y="-146.75" font-family="Helvetica,sans-Serif" font-size="10.00">x</text>
<text text-anchor="start" x="99.5" y="-131.75" font-family="Helvetica,sans-Serif" font-size="10.00">+</text>
<text text-anchor="start" x="120" y="-131.75" font-family="Helvetica,sans-Serif" font-size="10.00">y</text>
<text text-anchor="start" x="99.5" y="-116.75" font-family="Helvetica,sans-Serif" font-size="10.00">+</text>
<text text-anchor="start" x="120" y="-116.75" font-family="Helvetica,sans-Serif" font-size="10.00">z</text>
<text text-anchor="start" x="116" y="-101.75" font-family="Helvetica,sans-Serif" font-size="10.00"> </text>
<polygon fill="#666666" stroke="#666666" points="85,-158.25 85,-158.25 150,-158.25 150,-158.25 85,-158.25"/>
<polygon fill="#666666" stroke="#666666" points="85,-113.25 85,-113.25 118,-113.25 118,-113.25 85,-113.25"/>
<polygon fill="#666666" stroke="#666666" points="118,-113.25 118,-113.25 150,-113.25 150,-113.25 118,-113.25"/>
<polygon fill="none" stroke="#666666" points="85,-96.25 85,-175.25 150,-175.25 150,-96.25 85,-96.25"/>
</a>
</g>
</g>
<!-- Node3&#45;&gt;Node1 -->
<g id="edge2_Node000001_Node000003" class="edge">
<title>Node3&#45;&gt;Node1</title>
<g id="a_edge2_Node000001_Node000003"><a xlink:title=" ">
<path fill="none" stroke="#63b8ff" d="M106.06,-96.44C102.89,-86.74 99.28,-76.41 95.5,-67 94.68,-64.96 93.81,-62.88 92.9,-60.79"/>
<polygon fill="none" stroke="#63b8ff" points="92.85,-60.69 86.72,-56.89 87.86,-49.77 93.99,-53.56 92.85,-60.69"/>
</a>
</g>
<text text-anchor="middle" x="115.62" y="-68.75" font-family="Helvetica,sans-Serif" font-size="10.00" fill="grey"> +offset</text>
</g>
</g>
</svg>
