<?xml version="1.0" encoding="UTF-8" standalone="no"?>
<!DOCTYPE svg PUBLIC "-//W3C//DTD SVG 1.1//EN"
 "http://www.w3.org/Graphics/SVG/1.1/DTD/svg11.dtd">
<!-- Generated by graphviz version 12.2.1 (20241206.2353)
 -->
<!-- Title: TTL_duplex_const_ulong_tensor_buffering_t Pages: 1 -->
<svg width="243pt" height="404pt"
 viewBox="0.00 0.00 242.60 403.50" xmlns="http://www.w3.org/2000/svg" xmlns:xlink="http://www.w3.org/1999/xlink">
<g id="graph0" class="graph" transform="scale(1 1) rotate(0) translate(4 399.5)">
<title>TTL_duplex_const_ulong_tensor_buffering_t</title>
<!-- Node1 -->
<g id="Node000001" class="node">
<title>Node1</title>
<g id="a_Node000001"><a xlink:title="Data required to perform duplex buffer pipelining.">
<polygon fill="#999999" stroke="none" points="175.88,-122 59.12,-122 59.12,0 175.88,0 175.88,-122"/>
<text text-anchor="start" x="63.12" y="-108.5" font-family="Helvetica,sans-Serif" font-size="10.00">TTL_duplex_const_ulong</text>
<text text-anchor="start" x="76.25" y="-97.25" font-family="Helvetica,sans-Serif" font-size="10.00">_tensor_buffering_t</text>
<text text-anchor="start" x="69.06" y="-82" font-family="Helvetica,sans-Serif" font-size="10.00">+</text>
<text text-anchor="start" x="85" y="-82" font-family="Helvetica,sans-Serif" font-size="10.00">index</text>
<text text-anchor="start" x="69.06" y="-66.75" font-family="Helvetica,sans-Serif" font-size="10.00">+</text>
<text text-anchor="start" x="85" y="-66.75" font-family="Helvetica,sans-Serif" font-size="10.00">int_base</text>
<text text-anchor="start" x="69.06" y="-51.5" font-family="Helvetica,sans-Serif" font-size="10.00">+</text>
<text text-anchor="start" x="85" y="-51.5" font-family="Helvetica,sans-Serif" font-size="10.00">common</text>
<text text-anchor="start" x="69.06" y="-36.25" font-family="Helvetica,sans-Serif" font-size="10.00">+</text>
<text text-anchor="start" x="85" y="-36.25" font-family="Helvetica,sans-Serif" font-size="10.00">events</text>
<text text-anchor="start" x="69.06" y="-21" font-family="Helvetica,sans-Serif" font-size="10.00">+</text>
<text text-anchor="start" x="85" y="-21" font-family="Helvetica,sans-Serif" font-size="10.00">prev_out_tensors</text>
<text text-anchor="start" x="116" y="-5.75" font-family="Helvetica,sans-Serif" font-size="10.00"> </text>
<polygon fill="#666666" stroke="#666666" points="59.12,-93.5 59.12,-93.5 175.88,-93.5 175.88,-93.5 59.12,-93.5"/>
<polygon fill="#666666" stroke="#666666" points="59.12,-17.25 59.12,-17.25 83,-17.25 83,-17.25 59.12,-17.25"/>
<polygon fill="#666666" stroke="#666666" points="83,-17.25 83,-17.25 175.88,-17.25 175.88,-17.25 83,-17.25"/>
<polygon fill="none" stroke="#666666" points="59.12,0 59.12,-122 175.88,-122 175.88,0 59.12,0"/>
</a>
</g>
</g>
<!-- Node2 -->
<g id="Node000002" class="node">
<title>Node2</title>
<g id="a_Node000002"><a xlink:href="structTTL__ext__ulong__tensor__t.html" target="_top" xlink:title="const and non&#45;const tensors in the appropriate address space">
<polygon fill="white" stroke="none" points="113,-262.38 0,-262.38 0,-197.38 113,-197.38 113,-262.38"/>
<text text-anchor="start" x="4" y="-248.88" font-family="Helvetica,sans-Serif" font-size="10.00">TTL_ext_ulong_tensor_t</text>
<text text-anchor="start" x="16.88" y="-233.62" font-family="Helvetica,sans-Serif" font-size="10.00">+</text>
<text text-anchor="start" x="39.75" y="-233.62" font-family="Helvetica,sans-Serif" font-size="10.00">base</text>
<text text-anchor="start" x="16.88" y="-218.38" font-family="Helvetica,sans-Serif" font-size="10.00">+</text>
<text text-anchor="start" x="39.75" y="-218.38" font-family="Helvetica,sans-Serif" font-size="10.00">elem_size</text>
<text text-anchor="start" x="55" y="-203.12" font-family="Helvetica,sans-Serif" font-size="10.00"> </text>
<polygon fill="#666666" stroke="#666666" points="0,-245.12 0,-245.12 113,-245.12 113,-245.12 0,-245.12"/>
<polygon fill="#666666" stroke="#666666" points="0,-214.62 0,-214.62 37.75,-214.62 37.75,-214.62 0,-214.62"/>
<polygon fill="#666666" stroke="#666666" points="37.75,-214.62 37.75,-214.62 113,-214.62 113,-214.62 37.75,-214.62"/>
<polygon fill="none" stroke="#666666" points="0,-197.38 0,-262.38 113,-262.38 113,-197.38 0,-197.38"/>
</a>
</g>
</g>
<!-- Node2&#45;&gt;Node1 -->
<g id="edge1_Node000001_Node000002" class="edge">
<title>Node2&#45;&gt;Node1</title>
<g id="a_edge1_Node000001_Node000002"><a xlink:title=" ">
<path fill="none" stroke="#63b8ff" d="M63.62,-197.61C67.89,-180.39 73.83,-158.76 80.75,-140 81.55,-137.83 82.39,-135.64 83.26,-133.43"/>
<polygon fill="none" stroke="#63b8ff" points="83.22,-133.52 81.81,-126.45 87.79,-122.43 89.2,-129.5 83.22,-133.52"/>
</a>
</g>
<text text-anchor="middle" x="115.62" y="-164.25" font-family="Helvetica,sans-Serif" font-size="10.00" fill="grey"> +ext_tensor_in</text>
<text text-anchor="middle" x="115.62" y="-153" font-family="Helvetica,sans-Serif" font-size="10.00" fill="grey">+ext_tensor_out</text>
<text text-anchor="middle" x="115.62" y="-141.75" font-family="Helvetica,sans-Serif" font-size="10.00" fill="grey">+to_export_to</text>
</g>
<!-- Node3 -->
<g id="Node000003" class="node">
<title>Node3</title>
<g id="a_Node000003"><a xlink:href="structTTL__layout__t.html" target="_top" xlink:title="Description of a Tensor layout in memory.">
<polygon fill="white" stroke="none" points="106.62,-387.88 26.38,-387.88 26.38,-322.88 106.62,-322.88 106.62,-387.88"/>
<text text-anchor="start" x="38" y="-374.38" font-family="Helvetica,sans-Serif" font-size="10.00">TTL_layout_t</text>
<text text-anchor="start" x="30.38" y="-359.12" font-family="Helvetica,sans-Serif" font-size="10.00">+</text>
<text text-anchor="start" x="40.38" y="-359.12" font-family="Helvetica,sans-Serif" font-size="10.00">row_spacing</text>
<text text-anchor="start" x="30.38" y="-343.88" font-family="Helvetica,sans-Serif" font-size="10.00">+</text>
<text text-anchor="start" x="40.38" y="-343.88" font-family="Helvetica,sans-Serif" font-size="10.00">plane_spacing</text>
<text text-anchor="start" x="65" y="-328.62" font-family="Helvetica,sans-Serif" font-size="10.00"> </text>
<polygon fill="#666666" stroke="#666666" points="26.38,-370.62 26.38,-370.62 106.62,-370.62 106.62,-370.62 26.38,-370.62"/>
<polygon fill="#666666" stroke="#666666" points="26.38,-340.12 26.38,-340.12 38.38,-340.12 38.38,-340.12 26.38,-340.12"/>
<polygon fill="#666666" stroke="#666666" points="38.38,-340.12 38.38,-340.12 106.62,-340.12 106.62,-340.12 38.38,-340.12"/>
<polygon fill="none" stroke="#666666" points="26.38,-322.88 26.38,-387.88 106.62,-387.88 106.62,-322.88 26.38,-322.88"/>
</a>
</g>
</g>
<!-- Node3&#45;&gt;Node2 -->
<g id="edge2_Node000002_Node000003" class="edge">
<title>Node3&#45;&gt;Node2</title>
<g id="a_edge2_Node000002_Node000003"><a xlink:title=" ">
<path fill="none" stroke="#63b8ff" d="M44.68,-323.03C40.18,-314.98 36.1,-306.09 33.75,-297.25 31.78,-289.86 32.15,-282.1 33.82,-274.6"/>
<polygon fill="none" stroke="#63b8ff" points="33.81,-274.64 31.8,-267.71 37.42,-263.19 39.43,-270.12 33.81,-274.64"/>
</a>
</g>
<text text-anchor="middle" x="50.62" y="-287.75" font-family="Helvetica,sans-Serif" font-size="10.00" fill="grey"> +layout</text>
</g>
<!-- Node5 -->
<g id="Node000005" class="node">
<title>Node5</title>
<g id="a_Node000005"><a xlink:href="structTTL__const__int__ulong__tensor__t.html" target="_top" xlink:title=" ">
<polygon fill="white" stroke="none" points="230.25,-268 130.75,-268 130.75,-191.75 230.25,-191.75 230.25,-268"/>
<text text-anchor="start" x="134.75" y="-254.5" font-family="Helvetica,sans-Serif" font-size="10.00">TTL_const_int_ulong</text>
<text text-anchor="start" x="160.25" y="-243.25" font-family="Helvetica,sans-Serif" font-size="10.00">_tensor_t</text>
<text text-anchor="start" x="144.25" y="-228" font-family="Helvetica,sans-Serif" font-size="10.00">+</text>
<text text-anchor="start" x="163.75" y="-228" font-family="Helvetica,sans-Serif" font-size="10.00">base</text>
<text text-anchor="start" x="144.25" y="-212.75" font-family="Helvetica,sans-Serif" font-size="10.00">+</text>
<text text-anchor="start" x="163.75" y="-212.75" font-family="Helvetica,sans-Serif" font-size="10.00">elem_size</text>
<text text-anchor="start" x="179" y="-197.5" font-family="Helvetica,sans-Serif" font-size="10.00"> </text>
<polygon fill="#666666" stroke="#666666" points="130.75,-239.5 130.75,-239.5 230.25,-239.5 230.25,-239.5 130.75,-239.5"/>
<polygon fill="#666666" stroke="#666666" points="130.75,-209 130.75,-209 161.75,-209 161.75,-209 130.75,-209"/>
<polygon fill="#666666" stroke="#666666" points="161.75,-209 161.75,-209 230.25,-209 230.25,-209 161.75,-209"/>
<polygon fill="none" stroke="#666666" points="130.75,-191.75 130.75,-268 230.25,-268 230.25,-191.75 130.75,-191.75"/>
</a>
</g>
</g>
<!-- Node3&#45;&gt;Node5 -->
<g id="edge5_Node000005_Node000003" class="edge">
<title>Node3&#45;&gt;Node5</title>
<g id="a_edge5_Node000005_Node000003"><a xlink:title=" ">
<path fill="none" stroke="#63b8ff" d="M70.23,-323.22C73.05,-310.54 78.02,-296.45 86.75,-286 96.11,-274.8 103.77,-275.79 119.46,-268.89"/>
<polygon fill="none" stroke="#63b8ff" points="119.53,-268.86 123.07,-262.57 130.23,-263.42 126.69,-269.7 119.53,-268.86"/>
</a>
</g>
<text text-anchor="middle" x="103.62" y="-287.75" font-family="Helvetica,sans-Serif" font-size="10.00" fill="grey"> +layout</text>
</g>
<!-- Node4 -->
<g id="Node000004" class="node">
<title>Node4</title>
<g id="a_Node000004"><a xlink:href="structTTL__shape__t.html" target="_top" xlink:title="Description of a Shape.">
<polygon fill="white" stroke="none" points="201.38,-395.5 135.62,-395.5 135.62,-315.25 201.38,-315.25 201.38,-395.5"/>
<text text-anchor="start" x="139.62" y="-382" font-family="Helvetica,sans-Serif" font-size="10.00">TTL_shape_t</text>
<text text-anchor="start" x="145" y="-366.75" font-family="Helvetica,sans-Serif" font-size="10.00">+</text>
<text text-anchor="start" x="160.38" y="-366.75" font-family="Helvetica,sans-Serif" font-size="10.00">width</text>
<text text-anchor="start" x="145" y="-351.5" font-family="Helvetica,sans-Serif" font-size="10.00">+</text>
<text text-anchor="start" x="160.38" y="-351.5" font-family="Helvetica,sans-Serif" font-size="10.00">height</text>
<text text-anchor="start" x="145" y="-336.25" font-family="Helvetica,sans-Serif" font-size="10.00">+</text>
<text text-anchor="start" x="160.38" y="-336.25" font-family="Helvetica,sans-Serif" font-size="10.00">depth</text>
<text text-anchor="start" x="167" y="-321" font-family="Helvetica,sans-Serif" font-size="10.00"> </text>
<polygon fill="#666666" stroke="#666666" points="135.62,-378.25 135.62,-378.25 201.38,-378.25 201.38,-378.25 135.62,-378.25"/>
<polygon fill="#666666" stroke="#666666" points="135.62,-332.5 135.62,-332.5 158.38,-332.5 158.38,-332.5 135.62,-332.5"/>
<polygon fill="#666666" stroke="#666666" points="158.38,-332.5 158.38,-332.5 201.38,-332.5 201.38,-332.5 158.38,-332.5"/>
<polygon fill="none" stroke="#666666" points="135.62,-315.25 135.62,-395.5 201.38,-395.5 201.38,-315.25 135.62,-315.25"/>
</a>
</g>
</g>
<!-- Node4&#45;&gt;Node2 -->
<g id="edge3_Node000002_Node000004" class="edge">
<title>Node4&#45;&gt;Node2</title>
<g id="a_edge3_Node000002_Node000004"><a xlink:title=" ">
<path fill="none" stroke="#63b8ff" d="M146.55,-315.57C140.05,-305.48 132.51,-294.94 124.5,-286 119.81,-280.77 114.59,-275.62 109.2,-270.71"/>
<polygon fill="none" stroke="#63b8ff" points="109.09,-270.62 101.94,-269.69 100.04,-262.74 107.19,-263.66 109.09,-270.62"/>
</a>
</g>
<text text-anchor="middle" x="150.22" y="-287.75" font-family="Helvetica,sans-Serif" font-size="10.00" fill="grey"> +shape</text>
</g>
<!-- Node4&#45;&gt;Node5 -->
<g id="edge6_Node000005_Node000004" class="edge">
<title>Node4&#45;&gt;Node5</title>
<g id="a_edge6_Node000005_Node000004"><a xlink:title=" ">
<path fill="none" stroke="#63b8ff" d="M179.4,-315.27C180.68,-309.28 181.79,-303.13 182.5,-297.25 183.15,-291.91 183.49,-286.3 183.62,-280.72"/>
<polygon fill="none" stroke="#63b8ff" points="183.62,-280.73 179.6,-274.74 183.58,-268.73 187.6,-274.72 183.62,-280.73"/>
</a>
</g>
<text text-anchor="middle" x="200.66" y="-287.75" font-family="Helvetica,sans-Serif" font-size="10.00" fill="grey"> +shape</text>
</g>
<!-- Node5&#45;&gt;Node1 -->
<g id="edge4_Node000001_Node000005" class="edge">
<title>Node5&#45;&gt;Node1</title>
<g id="a_edge4_Node000001_Node000005"><a xlink:title=" ">
<path fill="none" stroke="#63b8ff" d="M168.71,-191.9C163.41,-175.85 156.92,-156.9 150.5,-140 149.73,-137.97 148.94,-135.91 148.13,-133.84"/>
<polygon fill="none" stroke="#63b8ff" points="148.13,-133.85 142.2,-129.75 143.69,-122.7 149.63,-126.79 148.13,-133.85"/>
</a>
</g>
<text text-anchor="middle" x="198.23" y="-153" font-family="Helvetica,sans-Serif" font-size="10.00" fill="grey"> +to_export_from</text>
</g>
</g>
</svg>
