<?xml version="1.0" encoding="UTF-8" standalone="no"?>
<!DOCTYPE svg PUBLIC "-//W3C//DTD SVG 1.1//EN"
 "http://www.w3.org/Graphics/SVG/1.1/DTD/svg11.dtd">
<!-- Generated by graphviz version 12.2.1 (20241206.2353)
 -->
<!-- Title: TTL_duplex_const_int_tensor_buffering_t Pages: 1 -->
<svg width="254pt" height="392pt"
 viewBox="0.00 0.00 253.75 392.25" xmlns="http://www.w3.org/2000/svg" xmlns:xlink="http://www.w3.org/1999/xlink">
<g id="graph0" class="graph" transform="scale(1 1) rotate(0) translate(4 388.25)">
<title>TTL_duplex_const_int_tensor_buffering_t</title>
<!-- Node1 -->
<g id="Node000001" class="node">
<title>Node1</title>
<g id="a_Node000001"><a xlink:title="Data required to perform duplex buffer pipelining.">
<polygon fill="#999999" stroke="none" points="167.12,-122 63.12,-122 63.12,0 167.12,0 167.12,-122"/>
<text text-anchor="start" x="67.12" y="-108.5" font-family="Helvetica,sans-Serif" font-size="10.00">TTL_duplex_const_int</text>
<text text-anchor="start" x="73.88" y="-97.25" font-family="Helvetica,sans-Serif" font-size="10.00">_tensor_buffering_t</text>
<text text-anchor="start" x="69.88" y="-82" font-family="Helvetica,sans-Serif" font-size="10.00">+</text>
<text text-anchor="start" x="82.62" y="-82" font-family="Helvetica,sans-Serif" font-size="10.00">index</text>
<text text-anchor="start" x="69.88" y="-66.75" font-family="Helvetica,sans-Serif" font-size="10.00">+</text>
<text text-anchor="start" x="82.62" y="-66.75" font-family="Helvetica,sans-Serif" font-size="10.00">int_base</text>
<text text-anchor="start" x="69.88" y="-51.5" font-family="Helvetica,sans-Serif" font-size="10.00">+</text>
<text text-anchor="start" x="82.62" y="-51.5" font-family="Helvetica,sans-Serif" font-size="10.00">common</text>
<text text-anchor="start" x="69.88" y="-36.25" font-family="Helvetica,sans-Serif" font-size="10.00">+</text>
<text text-anchor="start" x="82.62" y="-36.25" font-family="Helvetica,sans-Serif" font-size="10.00">events</text>
<text text-anchor="start" x="69.88" y="-21" font-family="Helvetica,sans-Serif" font-size="10.00">+</text>
<text text-anchor="start" x="82.62" y="-21" font-family="Helvetica,sans-Serif" font-size="10.00">prev_out_tensors</text>
<text text-anchor="start" x="113.62" y="-5.75" font-family="Helvetica,sans-Serif" font-size="10.00"> </text>
<polygon fill="#666666" stroke="#666666" points="63.12,-93.5 63.12,-93.5 167.12,-93.5 167.12,-93.5 63.12,-93.5"/>
<polygon fill="#666666" stroke="#666666" points="63.12,-17.25 63.12,-17.25 80.62,-17.25 80.62,-17.25 63.12,-17.25"/>
<polygon fill="#666666" stroke="#666666" points="80.62,-17.25 80.62,-17.25 167.12,-17.25 167.12,-17.25 80.62,-17.25"/>
<polygon fill="none" stroke="#666666" points="63.12,0 63.12,-122 167.12,-122 167.12,0 63.12,0"/>
</a>
</g>
</g>
<!-- Node2 -->
<g id="Node000002" class="node">
<title>Node2</title>
<g id="a_Node000002"><a xlink:href="structTTL__ext__int__tensor__t.html" target="_top" xlink:title="const and non&#45;const tensors in the appropriate address space">
<polygon fill="white" stroke="none" points="100.25,-256.75 0,-256.75 0,-191.75 100.25,-191.75 100.25,-256.75"/>
<text text-anchor="start" x="4" y="-243.25" font-family="Helvetica,sans-Serif" font-size="10.00">TTL_ext_int_tensor_t</text>
<text text-anchor="start" x="13.69" y="-228" font-family="Helvetica,sans-Serif" font-size="10.00">+</text>
<text text-anchor="start" x="33.38" y="-228" font-family="Helvetica,sans-Serif" font-size="10.00">base</text>
<text text-anchor="start" x="13.69" y="-212.75" font-family="Helvetica,sans-Serif" font-size="10.00">+</text>
<text text-anchor="start" x="33.38" y="-212.75" font-family="Helvetica,sans-Serif" font-size="10.00">elem_size</text>
<text text-anchor="start" x="48.62" y="-197.5" font-family="Helvetica,sans-Serif" font-size="10.00"> </text>
<polygon fill="#666666" stroke="#666666" points="0,-239.5 0,-239.5 100.25,-239.5 100.25,-239.5 0,-239.5"/>
<polygon fill="#666666" stroke="#666666" points="0,-209 0,-209 31.38,-209 31.38,-209 0,-209"/>
<polygon fill="#666666" stroke="#666666" points="31.38,-209 31.38,-209 100.25,-209 100.25,-209 31.38,-209"/>
<polygon fill="none" stroke="#666666" points="0,-191.75 0,-256.75 100.25,-256.75 100.25,-191.75 0,-191.75"/>
</a>
</g>
</g>
<!-- Node2&#45;&gt;Node1 -->
<g id="edge1_Node000001_Node000002" class="edge">
<title>Node2&#45;&gt;Node1</title>
<g id="a_edge1_Node000001_Node000002"><a xlink:title=" ">
<path fill="none" stroke="#63b8ff" d="M60.96,-191.82C66.5,-176.15 73.52,-156.97 80.38,-140 81.2,-137.97 82.04,-135.91 82.89,-133.84"/>
<polygon fill="none" stroke="#63b8ff" points="82.93,-133.75 81.58,-126.67 87.59,-122.69 88.95,-129.77 82.93,-133.75"/>
</a>
</g>
<text text-anchor="middle" x="115.25" y="-164.25" font-family="Helvetica,sans-Serif" font-size="10.00" fill="grey"> +ext_tensor_in</text>
<text text-anchor="middle" x="115.25" y="-153" font-family="Helvetica,sans-Serif" font-size="10.00" fill="grey">+ext_tensor_out</text>
<text text-anchor="middle" x="115.25" y="-141.75" font-family="Helvetica,sans-Serif" font-size="10.00" fill="grey">+to_export_to</text>
</g>
<!-- Node3 -->
<g id="Node000003" class="node">
<title>Node3</title>
<g id="a_Node000003"><a xlink:href="structTTL__layout__t.html" target="_top" xlink:title="Description of a Tensor layout in memory.">
<polygon fill="white" stroke="none" points="104.25,-376.62 24,-376.62 24,-311.62 104.25,-311.62 104.25,-376.62"/>
<text text-anchor="start" x="35.62" y="-363.12" font-family="Helvetica,sans-Serif" font-size="10.00">TTL_layout_t</text>
<text text-anchor="start" x="28" y="-347.88" font-family="Helvetica,sans-Serif" font-size="10.00">+</text>
<text text-anchor="start" x="38" y="-347.88" font-family="Helvetica,sans-Serif" font-size="10.00">row_spacing</text>
<text text-anchor="start" x="28" y="-332.62" font-family="Helvetica,sans-Serif" font-size="10.00">+</text>
<text text-anchor="start" x="38" y="-332.62" font-family="Helvetica,sans-Serif" font-size="10.00">plane_spacing</text>
<text text-anchor="start" x="62.62" y="-317.38" font-family="Helvetica,sans-Serif" font-size="10.00"> </text>
<polygon fill="#666666" stroke="#666666" points="24,-359.38 24,-359.38 104.25,-359.38 104.25,-359.38 24,-359.38"/>
<polygon fill="#666666" stroke="#666666" points="24,-328.88 24,-328.88 36,-328.88 36,-328.88 24,-328.88"/>
<polygon fill="#666666" stroke="#666666" points="36,-328.88 36,-328.88 104.25,-328.88 104.25,-328.88 36,-328.88"/>
<polygon fill="none" stroke="#666666" points="24,-311.62 24,-376.62 104.25,-376.62 104.25,-311.62 24,-311.62"/>
</a>
</g>
</g>
<!-- Node3&#45;&gt;Node2 -->
<g id="edge2_Node000002_Node000003" class="edge">
<title>Node3&#45;&gt;Node2</title>
<g id="a_edge2_Node000002_Node000003"><a xlink:title=" ">
<path fill="none" stroke="#63b8ff" d="M42.31,-311.78C37.81,-303.73 33.73,-294.84 31.38,-286 29.9,-280.45 29.79,-274.65 30.57,-268.92"/>
<polygon fill="none" stroke="#63b8ff" points="30.5,-269.2 27.99,-262.44 33.27,-257.52 35.78,-264.28 30.5,-269.2"/>
</a>
</g>
<text text-anchor="middle" x="48.25" y="-276.5" font-family="Helvetica,sans-Serif" font-size="10.00" fill="grey"> +layout</text>
</g>
<!-- Node5 -->
<g id="Node000005" class="node">
<title>Node5</title>
<g id="a_Node000005"><a xlink:href="structTTL__const__int__int__tensor__t.html" target="_top" xlink:title=" ">
<polygon fill="white" stroke="none" points="245.75,-256.75 118.5,-256.75 118.5,-191.75 245.75,-191.75 245.75,-256.75"/>
<text text-anchor="start" x="122.5" y="-243.25" font-family="Helvetica,sans-Serif" font-size="10.00">TTL_const_int_int_tensor_t</text>
<text text-anchor="start" x="138.94" y="-228" font-family="Helvetica,sans-Serif" font-size="10.00">+</text>
<text text-anchor="start" x="165.38" y="-228" font-family="Helvetica,sans-Serif" font-size="10.00">base</text>
<text text-anchor="start" x="138.94" y="-212.75" font-family="Helvetica,sans-Serif" font-size="10.00">+</text>
<text text-anchor="start" x="165.38" y="-212.75" font-family="Helvetica,sans-Serif" font-size="10.00">elem_size</text>
<text text-anchor="start" x="180.62" y="-197.5" font-family="Helvetica,sans-Serif" font-size="10.00"> </text>
<polygon fill="#666666" stroke="#666666" points="118.5,-239.5 118.5,-239.5 245.75,-239.5 245.75,-239.5 118.5,-239.5"/>
<polygon fill="#666666" stroke="#666666" points="118.5,-209 118.5,-209 163.38,-209 163.38,-209 118.5,-209"/>
<polygon fill="#666666" stroke="#666666" points="163.38,-209 163.38,-209 245.75,-209 245.75,-209 163.38,-209"/>
<polygon fill="none" stroke="#666666" points="118.5,-191.75 118.5,-256.75 245.75,-256.75 245.75,-191.75 118.5,-191.75"/>
</a>
</g>
</g>
<!-- Node3&#45;&gt;Node5 -->
<g id="edge5_Node000005_Node000003" class="edge">
<title>Node3&#45;&gt;Node5</title>
<g id="a_edge5_Node000005_Node000003"><a xlink:title=" ">
<path fill="none" stroke="#63b8ff" d="M67.94,-311.63C70.78,-299.05 75.73,-285.11 84.38,-274.75 88.4,-269.92 96.85,-264.29 107.19,-258.59"/>
<polygon fill="none" stroke="#63b8ff" points="107.09,-258.64 110.55,-252.32 117.73,-253.08 114.26,-259.4 107.09,-258.64"/>
</a>
</g>
<text text-anchor="middle" x="101.25" y="-276.5" font-family="Helvetica,sans-Serif" font-size="10.00" fill="grey"> +layout</text>
</g>
<!-- Node4 -->
<g id="Node000004" class="node">
<title>Node4</title>
<g id="a_Node000004"><a xlink:href="structTTL__shape__t.html" target="_top" xlink:title="Description of a Shape.">
<polygon fill="white" stroke="none" points="199,-384.25 133.25,-384.25 133.25,-304 199,-304 199,-384.25"/>
<text text-anchor="start" x="137.25" y="-370.75" font-family="Helvetica,sans-Serif" font-size="10.00">TTL_shape_t</text>
<text text-anchor="start" x="142.62" y="-355.5" font-family="Helvetica,sans-Serif" font-size="10.00">+</text>
<text text-anchor="start" x="158" y="-355.5" font-family="Helvetica,sans-Serif" font-size="10.00">width</text>
<text text-anchor="start" x="142.62" y="-340.25" font-family="Helvetica,sans-Serif" font-size="10.00">+</text>
<text text-anchor="start" x="158" y="-340.25" font-family="Helvetica,sans-Serif" font-size="10.00">height</text>
<text text-anchor="start" x="142.62" y="-325" font-family="Helvetica,sans-Serif" font-size="10.00">+</text>
<text text-anchor="start" x="158" y="-325" font-family="Helvetica,sans-Serif" font-size="10.00">depth</text>
<text text-anchor="start" x="164.62" y="-309.75" font-family="Helvetica,sans-Serif" font-size="10.00"> </text>
<polygon fill="#666666" stroke="#666666" points="133.25,-367 133.25,-367 199,-367 199,-367 133.25,-367"/>
<polygon fill="#666666" stroke="#666666" points="133.25,-321.25 133.25,-321.25 156,-321.25 156,-321.25 133.25,-321.25"/>
<polygon fill="#666666" stroke="#666666" points="156,-321.25 156,-321.25 199,-321.25 199,-321.25 156,-321.25"/>
<polygon fill="none" stroke="#666666" points="133.25,-304 133.25,-384.25 199,-384.25 199,-304 133.25,-304"/>
</a>
</g>
</g>
<!-- Node4&#45;&gt;Node2 -->
<g id="edge3_Node000002_Node000004" class="edge">
<title>Node4&#45;&gt;Node2</title>
<g id="a_edge3_Node000002_Node000004"><a xlink:title=" ">
<path fill="none" stroke="#63b8ff" d="M144.87,-304.24C138.32,-294.04 130.58,-283.46 122.12,-274.75 118.44,-270.95 114.43,-267.27 110.24,-263.74"/>
<polygon fill="none" stroke="#63b8ff" points="110.34,-263.82 103.15,-263.24 100.93,-256.37 108.11,-256.96 110.34,-263.82"/>
</a>
</g>
<text text-anchor="middle" x="148.14" y="-276.5" font-family="Helvetica,sans-Serif" font-size="10.00" fill="grey"> +shape</text>
</g>
<!-- Node4&#45;&gt;Node5 -->
<g id="edge6_Node000005_Node000004" class="edge">
<title>Node4&#45;&gt;Node5</title>
<g id="a_edge6_Node000005_Node000004"><a xlink:title=" ">
<path fill="none" stroke="#63b8ff" d="M176.78,-304.31C178.12,-298.22 179.3,-291.97 180.12,-286 180.86,-280.65 181.38,-275.01 181.75,-269.41"/>
<polygon fill="none" stroke="#63b8ff" points="181.74,-269.46 178.02,-263.28 182.29,-257.47 186.01,-263.65 181.74,-269.46"/>
</a>
</g>
<text text-anchor="middle" x="198.48" y="-276.5" font-family="Helvetica,sans-Serif" font-size="10.00" fill="grey"> +shape</text>
</g>
<!-- Node5&#45;&gt;Node1 -->
<g id="edge4_Node000001_Node000005" class="edge">
<title>Node5&#45;&gt;Node1</title>
<g id="a_edge4_Node000001_Node000005"><a xlink:title=" ">
<path fill="none" stroke="#63b8ff" d="M170.52,-191.86C164.62,-176.2 157.2,-157.01 150.12,-140 149.28,-137.97 148.42,-135.92 147.54,-133.85"/>
<polygon fill="none" stroke="#63b8ff" points="147.5,-133.75 141.45,-129.82 142.76,-122.73 148.8,-126.66 147.5,-133.75"/>
</a>
</g>
<text text-anchor="middle" x="199.25" y="-153" font-family="Helvetica,sans-Serif" font-size="10.00" fill="grey"> +to_export_from</text>
</g>
</g>
</svg>
