<?xml version="1.0" encoding="UTF-8" standalone="no"?>
<!DOCTYPE svg PUBLIC "-//W3C//DTD SVG 1.1//EN"
 "http://www.w3.org/Graphics/SVG/1.1/DTD/svg11.dtd">
<!-- Generated by graphviz version 12.0.0 (20240704.0754)
 -->
<!-- Title: TTL_import_double_const_int_tensor_buffering_t Pages: 1 -->
<svg width="257pt" height="362pt"
 viewBox="0.00 0.00 256.50 361.75" xmlns="http://www.w3.org/2000/svg" xmlns:xlink="http://www.w3.org/1999/xlink">
<g id="graph0" class="graph" transform="scale(1 1) rotate(0) translate(4 357.75)">
<title>TTL_import_double_const_int_tensor_buffering_t</title>
<!-- Node1 -->
<g id="Node000001" class="node">
<title>Node1</title>
<g id="a_Node000001"><a xlink:title="Data required to perform double buffer pipelining.">
<polygon fill="#999999" stroke="none" points="188.5,-105 65.5,-105 65.5,0 188.5,0 188.5,-105"/>
<text text-anchor="start" x="70.38" y="-91.5" font-family="Helvetica,sans-Serif" font-size="10.00">TTL_import_double_const</text>
<text text-anchor="start" x="77.88" y="-80.25" font-family="Helvetica,sans-Serif" font-size="10.00">_int_tensor_buffering_t</text>
<text text-anchor="start" x="86.5" y="-65.5" font-family="Helvetica,sans-Serif" font-size="10.00">+</text>
<text text-anchor="start" x="113.5" y="-65.5" font-family="Helvetica,sans-Serif" font-size="10.00">index</text>
<text text-anchor="start" x="86.5" y="-50.5" font-family="Helvetica,sans-Serif" font-size="10.00">+</text>
<text text-anchor="start" x="113.5" y="-50.5" font-family="Helvetica,sans-Serif" font-size="10.00">int_base</text>
<text text-anchor="start" x="86.5" y="-35.5" font-family="Helvetica,sans-Serif" font-size="10.00">+</text>
<text text-anchor="start" x="113.5" y="-35.5" font-family="Helvetica,sans-Serif" font-size="10.00">common</text>
<text text-anchor="start" x="86.5" y="-20.5" font-family="Helvetica,sans-Serif" font-size="10.00">+</text>
<text text-anchor="start" x="113.5" y="-20.5" font-family="Helvetica,sans-Serif" font-size="10.00">event</text>
<text text-anchor="start" x="125.5" y="-5.5" font-family="Helvetica,sans-Serif" font-size="10.00"> </text>
<polygon fill="#666666" stroke="#666666" points="65.5,-77 65.5,-77 188.5,-77 188.5,-77 65.5,-77"/>
<polygon fill="#666666" stroke="#666666" points="65.5,-17 65.5,-17 111.5,-17 111.5,-17 65.5,-17"/>
<polygon fill="#666666" stroke="#666666" points="111.5,-17 111.5,-17 188.5,-17 188.5,-17 111.5,-17"/>
<polygon fill="none" stroke="#666666" points="65.5,0 65.5,-105 188.5,-105 188.5,0 65.5,0"/>
</a>
</g>
</g>
<!-- Node2 -->
<g id="Node000002" class="node">
<title>Node2</title>
<g id="a_Node000002"><a xlink:href="structTTL__const__ext__int__tensor__t.html" target="_top" xlink:title=" ">
<polygon fill="white" stroke="none" points="137.5,-227.5 6.5,-227.5 6.5,-163.5 137.5,-163.5 137.5,-227.5"/>
<text text-anchor="start" x="11.25" y="-214" font-family="Helvetica,sans-Serif" font-size="10.00">TTL_const_ext_int_tensor_t</text>
<text text-anchor="start" x="28" y="-199" font-family="Helvetica,sans-Serif" font-size="10.00">+</text>
<text text-anchor="start" x="55.5" y="-199" font-family="Helvetica,sans-Serif" font-size="10.00">base</text>
<text text-anchor="start" x="28" y="-184" font-family="Helvetica,sans-Serif" font-size="10.00">+</text>
<text text-anchor="start" x="55.5" y="-184" font-family="Helvetica,sans-Serif" font-size="10.00">elem_size</text>
<text text-anchor="start" x="70.5" y="-169" font-family="Helvetica,sans-Serif" font-size="10.00"> </text>
<polygon fill="#666666" stroke="#666666" points="6.5,-210.5 6.5,-210.5 137.5,-210.5 137.5,-210.5 6.5,-210.5"/>
<polygon fill="#666666" stroke="#666666" points="6.5,-180.5 6.5,-180.5 53.5,-180.5 53.5,-180.5 6.5,-180.5"/>
<polygon fill="#666666" stroke="#666666" points="53.5,-180.5 53.5,-180.5 137.5,-180.5 137.5,-180.5 53.5,-180.5"/>
<polygon fill="none" stroke="#666666" points="6.5,-163.5 6.5,-227.5 137.5,-227.5 137.5,-163.5 6.5,-163.5"/>
</a>
</g>
</g>
<!-- Node2&#45;&gt;Node1 -->
<g id="edge1_Node000001_Node000002" class="edge">
<title>Node2&#45;&gt;Node1</title>
<g id="a_edge1_Node000001_Node000002"><a xlink:title=" ">
<path fill="none" stroke="#63b8ff" d="M75.85,-163.6C78.03,-150.77 81.34,-135.89 86.25,-123 87.07,-120.84 87.96,-118.67 88.9,-116.49"/>
<polygon fill="none" stroke="#63b8ff" points="88.84,-116.61 87.78,-109.47 93.96,-105.75 95.02,-112.88 88.84,-116.61"/>
</a>
</g>
<text text-anchor="middle" x="120.88" y="-136" font-family="Helvetica,sans-Serif" font-size="10.00" fill="grey"> +ext_tensor_in</text>
<text text-anchor="middle" x="120.88" y="-124.75" font-family="Helvetica,sans-Serif" font-size="10.00" fill="grey">+ext_tensor_out</text>
</g>
<!-- Node3 -->
<g id="Node000003" class="node">
<title>Node3</title>
<g id="a_Node000003"><a xlink:href="structTTL__layout__t.html" target="_top" xlink:title="Description of a Tensor layout in memory.">
<polygon fill="white" stroke="none" points="80,-346.25 0,-346.25 0,-282.25 80,-282.25 80,-346.25"/>
<text text-anchor="start" x="11.5" y="-332.75" font-family="Helvetica,sans-Serif" font-size="10.00">TTL_layout_t</text>
<text text-anchor="start" x="4" y="-317.75" font-family="Helvetica,sans-Serif" font-size="10.00">+</text>
<text text-anchor="start" x="14" y="-317.75" font-family="Helvetica,sans-Serif" font-size="10.00">row_spacing</text>
<text text-anchor="start" x="4" y="-302.75" font-family="Helvetica,sans-Serif" font-size="10.00">+</text>
<text text-anchor="start" x="14" y="-302.75" font-family="Helvetica,sans-Serif" font-size="10.00">plane_spacing</text>
<text text-anchor="start" x="38.5" y="-287.75" font-family="Helvetica,sans-Serif" font-size="10.00"> </text>
<polygon fill="#666666" stroke="#666666" points="0,-329.25 0,-329.25 80,-329.25 80,-329.25 0,-329.25"/>
<polygon fill="#666666" stroke="#666666" points="0,-299.25 0,-299.25 12,-299.25 12,-299.25 0,-299.25"/>
<polygon fill="#666666" stroke="#666666" points="12,-299.25 12,-299.25 80,-299.25 80,-299.25 12,-299.25"/>
<polygon fill="none" stroke="#666666" points="0,-282.25 0,-346.25 80,-346.25 80,-282.25 0,-282.25"/>
</a>
</g>
</g>
<!-- Node3&#45;&gt;Node2 -->
<g id="edge2_Node000002_Node000003" class="edge">
<title>Node3&#45;&gt;Node2</title>
<g id="a_edge2_Node000002_Node000003"><a xlink:title=" ">
<path fill="none" stroke="#63b8ff" d="M37.74,-282.37C37.73,-270.61 38.76,-257.23 42.25,-245.5 42.91,-243.27 43.7,-241.04 44.59,-238.83"/>
<polygon fill="none" stroke="#63b8ff" points="44.55,-238.91 43.53,-231.78 49.72,-228.09 50.75,-235.23 44.55,-238.91"/>
</a>
</g>
<text text-anchor="middle" x="58.88" y="-247.25" font-family="Helvetica,sans-Serif" font-size="10.00" fill="grey"> +layout</text>
</g>
<!-- Node4 -->
<g id="Node000004" class="node">
<title>Node4</title>
<g id="a_Node000004"><a xlink:href="structTTL__shape__t.html" target="_top" xlink:title="Description of a Shape.">
<polygon fill="white" stroke="none" points="165.5,-353.75 98.5,-353.75 98.5,-274.75 165.5,-274.75 165.5,-353.75"/>
<text text-anchor="start" x="103.12" y="-340.25" font-family="Helvetica,sans-Serif" font-size="10.00">TTL_shape_t</text>
<text text-anchor="start" x="108" y="-325.25" font-family="Helvetica,sans-Serif" font-size="10.00">+</text>
<text text-anchor="start" x="123.5" y="-325.25" font-family="Helvetica,sans-Serif" font-size="10.00">width</text>
<text text-anchor="start" x="108" y="-310.25" font-family="Helvetica,sans-Serif" font-size="10.00">+</text>
<text text-anchor="start" x="123.5" y="-310.25" font-family="Helvetica,sans-Serif" font-size="10.00">height</text>
<text text-anchor="start" x="108" y="-295.25" font-family="Helvetica,sans-Serif" font-size="10.00">+</text>
<text text-anchor="start" x="123.5" y="-295.25" font-family="Helvetica,sans-Serif" font-size="10.00">depth</text>
<text text-anchor="start" x="130.5" y="-280.25" font-family="Helvetica,sans-Serif" font-size="10.00"> </text>
<polygon fill="#666666" stroke="#666666" points="98.5,-336.75 98.5,-336.75 165.5,-336.75 165.5,-336.75 98.5,-336.75"/>
<polygon fill="#666666" stroke="#666666" points="98.5,-291.75 98.5,-291.75 121.5,-291.75 121.5,-291.75 98.5,-291.75"/>
<polygon fill="#666666" stroke="#666666" points="121.5,-291.75 121.5,-291.75 165.5,-291.75 165.5,-291.75 121.5,-291.75"/>
<polygon fill="none" stroke="#666666" points="98.5,-274.75 98.5,-353.75 165.5,-353.75 165.5,-274.75 98.5,-274.75"/>
</a>
</g>
</g>
<!-- Node4&#45;&gt;Node2 -->
<g id="edge3_Node000002_Node000004" class="edge">
<title>Node4&#45;&gt;Node2</title>
<g id="a_edge3_Node000002_Node000004"><a xlink:title=" ">
<path fill="none" stroke="#63b8ff" d="M112.35,-275.02C106.41,-263.45 99.84,-250.68 93.76,-238.85"/>
<polygon fill="none" stroke="#63b8ff" points="93.79,-238.9 87.49,-235.39 88.3,-228.22 94.6,-231.73 93.79,-238.9"/>
</a>
</g>
<text text-anchor="middle" x="119.25" y="-247.25" font-family="Helvetica,sans-Serif" font-size="10.00" fill="grey"> +shape</text>
</g>
<!-- Node5 -->
<g id="Node000005" class="node">
<title>Node5</title>
<g id="a_Node000005"><a xlink:href="structTTL__tile__t.html" target="_top" xlink:title=" ">
<polygon fill="white" stroke="none" points="210,-220 156,-220 156,-171 210,-171 210,-220"/>
<text text-anchor="start" x="160.88" y="-206.5" font-family="Helvetica,sans-Serif" font-size="10.00">TTL_tile_t</text>
<text text-anchor="start" x="181.5" y="-191.5" font-family="Helvetica,sans-Serif" font-size="10.00"> </text>
<text text-anchor="start" x="181.5" y="-176.5" font-family="Helvetica,sans-Serif" font-size="10.00"> </text>
<polygon fill="#666666" stroke="#666666" points="156,-203 156,-203 210,-203 210,-203 156,-203"/>
<polygon fill="#666666" stroke="#666666" points="156,-188 156,-188 210,-188 210,-188 156,-188"/>
<polygon fill="none" stroke="#666666" points="156,-171 156,-220 210,-220 210,-171 156,-171"/>
</a>
</g>
</g>
<!-- Node4&#45;&gt;Node5 -->
<g id="edge5_Node000005_Node000004" class="edge">
<title>Node4&#45;&gt;Node5</title>
<g id="a_edge5_Node000005_Node000004"><a xlink:title=" ">
<path fill="none" stroke="#63b8ff" d="M146.26,-275.02C150.06,-265.32 154.29,-254.96 158.5,-245.5 160.57,-240.84 162.85,-235.99 165.15,-231.22"/>
<polygon fill="none" stroke="#63b8ff" points="165.12,-231.28 164.2,-224.13 170.45,-220.53 171.37,-227.68 165.12,-231.28"/>
</a>
</g>
<text text-anchor="middle" x="175.25" y="-247.25" font-family="Helvetica,sans-Serif" font-size="10.00" fill="grey"> +shape</text>
</g>
<!-- Node5&#45;&gt;Node1 -->
<g id="edge4_Node000001_Node000005" class="edge">
<title>Node5&#45;&gt;Node1</title>
<g id="a_edge4_Node000001_Node000005"><a xlink:title=" ">
<path fill="none" stroke="#63b8ff" d="M174.45,-171.24C169.23,-157.22 162.37,-139.03 156,-123 155.15,-120.86 154.28,-118.69 153.4,-116.49"/>
<polygon fill="none" stroke="#63b8ff" points="153.44,-116.61 147.48,-112.56 148.92,-105.49 154.89,-109.54 153.44,-116.61"/>
</a>
</g>
<text text-anchor="middle" x="186.5" y="-130.38" font-family="Helvetica,sans-Serif" font-size="10.00" fill="grey"> +prev_tile</text>
</g>
<!-- Node6 -->
<g id="Node000006" class="node">
<title>Node6</title>
<g id="a_Node000006"><a xlink:href="structTTL__offset__t.html" target="_top" xlink:title="Description of the 3D offset of an object.">
<polygon fill="white" stroke="none" points="248.5,-353.75 183.5,-353.75 183.5,-274.75 248.5,-274.75 248.5,-353.75"/>
<text text-anchor="start" x="188.25" y="-340.25" font-family="Helvetica,sans-Serif" font-size="10.00">TTL_offset_t</text>
<text text-anchor="start" x="198" y="-325.25" font-family="Helvetica,sans-Serif" font-size="10.00">+</text>
<text text-anchor="start" x="218.5" y="-325.25" font-family="Helvetica,sans-Serif" font-size="10.00">x</text>
<text text-anchor="start" x="198" y="-310.25" font-family="Helvetica,sans-Serif" font-size="10.00">+</text>
<text text-anchor="start" x="218.5" y="-310.25" font-family="Helvetica,sans-Serif" font-size="10.00">y</text>
<text text-anchor="start" x="198" y="-295.25" font-family="Helvetica,sans-Serif" font-size="10.00">+</text>
<text text-anchor="start" x="218.5" y="-295.25" font-family="Helvetica,sans-Serif" font-size="10.00">z</text>
<text text-anchor="start" x="214.5" y="-280.25" font-family="Helvetica,sans-Serif" font-size="10.00"> </text>
<polygon fill="#666666" stroke="#666666" points="183.5,-336.75 183.5,-336.75 248.5,-336.75 248.5,-336.75 183.5,-336.75"/>
<polygon fill="#666666" stroke="#666666" points="183.5,-291.75 183.5,-291.75 216.5,-291.75 216.5,-291.75 183.5,-291.75"/>
<polygon fill="#666666" stroke="#666666" points="216.5,-291.75 216.5,-291.75 248.5,-291.75 248.5,-291.75 216.5,-291.75"/>
<polygon fill="none" stroke="#666666" points="183.5,-274.75 183.5,-353.75 248.5,-353.75 248.5,-274.75 183.5,-274.75"/>
</a>
</g>
</g>
<!-- Node6&#45;&gt;Node5 -->
<g id="edge6_Node000005_Node000006" class="edge">
<title>Node6&#45;&gt;Node5</title>
<g id="a_edge6_Node000005_Node000006"><a xlink:title=" ">
<path fill="none" stroke="#63b8ff" d="M205.19,-275.02C201.29,-261.21 196.9,-245.69 193.07,-232.11"/>
<polygon fill="none" stroke="#63b8ff" points="193.1,-232.23 187.62,-227.54 189.84,-220.68 195.32,-225.37 193.1,-232.23"/>
</a>
</g>
<text text-anchor="middle" x="215.12" y="-247.25" font-family="Helvetica,sans-Serif" font-size="10.00" fill="grey"> +offset</text>
</g>
</g>
</svg>
