<?xml version="1.0" encoding="UTF-8" standalone="no"?>
<!DOCTYPE svg PUBLIC "-//W3C//DTD SVG 1.1//EN"
 "http://www.w3.org/Graphics/SVG/1.1/DTD/svg11.dtd">
<!-- Generated by graphviz version 3.0.0 (20221109.1736)
 -->
<!-- Title: TTL_tiler_t Pages: 1 -->
<svg width="306pt" height="292pt"
 viewBox="0.00 0.00 305.50 292.00" xmlns="http://www.w3.org/2000/svg" xmlns:xlink="http://www.w3.org/1999/xlink">
<g id="graph0" class="graph" transform="scale(1 1) rotate(0) translate(4 288)">
<title>TTL_tiler_t</title>
<polygon fill="white" stroke="transparent" points="-4,4 -4,-288 301.5,-288 301.5,4 -4,4"/>
<!-- Node1 -->
<g id="node1" class="node">
<title>Node1</title>
<g id="a_node1"><a xlink:title="TTL_tiler_t is the basic unit that describes how a tile is subdivided.">
<polygon fill="#bfbfbf" stroke="black" points="85,-0.5 85,-112.5 179,-112.5 179,-0.5 85,-0.5"/>
<text text-anchor="middle" x="132" y="-100.5" font-family="Helvetica,sans-Serif" font-size="10.00">TTL_tiler_t</text>
<polyline fill="none" stroke="black" points="85,-93.5 179,-93.5 "/>
<text text-anchor="start" x="93" y="-81.5" font-family="Helvetica,sans-Serif" font-size="10.00">+ number_of_tiles</text>
<text text-anchor="start" x="93" y="-70.5" font-family="Helvetica,sans-Serif" font-size="10.00">+ tiles_in_width</text>
<text text-anchor="start" x="93" y="-59.5" font-family="Helvetica,sans-Serif" font-size="10.00">+ tiles_in_height</text>
<text text-anchor="start" x="93" y="-48.5" font-family="Helvetica,sans-Serif" font-size="10.00">+ tiles_in_depth</text>
<text text-anchor="start" x="93" y="-37.5" font-family="Helvetica,sans-Serif" font-size="10.00">+ tiles_in_plane</text>
<text text-anchor="start" x="93" y="-26.5" font-family="Helvetica,sans-Serif" font-size="10.00">+ cache</text>
<polyline fill="none" stroke="black" points="85,-19.5 179,-19.5 "/>
<text text-anchor="middle" x="132" y="-7.5" font-family="Helvetica,sans-Serif" font-size="10.00"> </text>
</a>
</g>
</g>
<!-- Node2 -->
<g id="node2" class="node">
<title>Node2</title>
<g id="a_node2"><a xlink:href="structTTL__shape__t.html" target="_top" xlink:title="Description of a Shape.">
<polygon fill="white" stroke="black" points="0,-188 0,-267 74,-267 74,-188 0,-188"/>
<text text-anchor="middle" x="37" y="-255" font-family="Helvetica,sans-Serif" font-size="10.00">TTL_shape_t</text>
<polyline fill="none" stroke="black" points="0,-248 74,-248 "/>
<text text-anchor="start" x="8" y="-236" font-family="Helvetica,sans-Serif" font-size="10.00">+ width</text>
<text text-anchor="start" x="8" y="-225" font-family="Helvetica,sans-Serif" font-size="10.00">+ height</text>
<text text-anchor="start" x="8" y="-214" font-family="Helvetica,sans-Serif" font-size="10.00">+ depth</text>
<polyline fill="none" stroke="black" points="0,-207 74,-207 "/>
<text text-anchor="middle" x="37" y="-195" font-family="Helvetica,sans-Serif" font-size="10.00"> </text>
</a>
</g>
</g>
<!-- Node2&#45;&gt;Node1 -->
<g id="edge1" class="edge">
<title>Node2&#45;&gt;Node1</title>
<path fill="none" stroke="#404040" d="M58.79,-187.73C69.53,-168.63 82.77,-145.08 95.02,-123.28"/>
<polygon fill="none" stroke="#404040" points="95.06,-123.21 94.52,-116.02 100.94,-112.75 101.49,-119.94 95.06,-123.21"/>
<text text-anchor="middle" x="108.5" y="-145" font-family="Helvetica,sans-Serif" font-size="10.00"> +space</text>
<text text-anchor="middle" x="108.5" y="-134" font-family="Helvetica,sans-Serif" font-size="10.00">+tile</text>
</g>
<!-- Node3 -->
<g id="node3" class="node">
<title>Node3</title>
<g id="a_node3"><a xlink:href="structTTL__overlap__t.html" target="_top" xlink:title="Description of the overlap in 3D space of adjacent tiles.">
<polygon fill="white" stroke="black" points="92,-188 92,-267 172,-267 172,-188 92,-188"/>
<text text-anchor="middle" x="132" y="-255" font-family="Helvetica,sans-Serif" font-size="10.00">TTL_overlap_t</text>
<polyline fill="none" stroke="black" points="92,-248 172,-248 "/>
<text text-anchor="start" x="100" y="-236" font-family="Helvetica,sans-Serif" font-size="10.00">+ width</text>
<text text-anchor="start" x="100" y="-225" font-family="Helvetica,sans-Serif" font-size="10.00">+ height</text>
<text text-anchor="start" x="100" y="-214" font-family="Helvetica,sans-Serif" font-size="10.00">+ depth</text>
<polyline fill="none" stroke="black" points="92,-207 172,-207 "/>
<text text-anchor="middle" x="132" y="-195" font-family="Helvetica,sans-Serif" font-size="10.00"> </text>
</a>
</g>
</g>
<!-- Node3&#45;&gt;Node1 -->
<g id="edge2" class="edge">
<title>Node3&#45;&gt;Node1</title>
<path fill="none" stroke="#404040" d="M132,-187.73C132,-169.07 132,-146.15 132,-124.77"/>
<polygon fill="none" stroke="#404040" points="132,-124.75 128,-118.75 132,-112.75 136,-118.75 132,-124.75"/>
<text text-anchor="middle" x="152" y="-139.5" font-family="Helvetica,sans-Serif" font-size="10.00"> +overlap</text>
</g>
<!-- Node4 -->
<g id="node4" class="node">
<title>Node4</title>
<g id="a_node4"><a xlink:href="structTTL__augmentation__t.html" target="_top" xlink:title="3D description of the augmented margins">
<polygon fill="white" stroke="black" points="190.5,-171.5 190.5,-283.5 297.5,-283.5 297.5,-171.5 190.5,-171.5"/>
<text text-anchor="middle" x="244" y="-271.5" font-family="Helvetica,sans-Serif" font-size="10.00">TTL_augmentation_t</text>
<polyline fill="none" stroke="black" points="190.5,-264.5 297.5,-264.5 "/>
<text text-anchor="start" x="198.5" y="-252.5" font-family="Helvetica,sans-Serif" font-size="10.00">+ left</text>
<text text-anchor="start" x="198.5" y="-241.5" font-family="Helvetica,sans-Serif" font-size="10.00">+ right</text>
<text text-anchor="start" x="198.5" y="-230.5" font-family="Helvetica,sans-Serif" font-size="10.00">+ top</text>
<text text-anchor="start" x="198.5" y="-219.5" font-family="Helvetica,sans-Serif" font-size="10.00">+ bottom</text>
<text text-anchor="start" x="198.5" y="-208.5" font-family="Helvetica,sans-Serif" font-size="10.00">+ front</text>
<text text-anchor="start" x="198.5" y="-197.5" font-family="Helvetica,sans-Serif" font-size="10.00">+ back</text>
<polyline fill="none" stroke="black" points="190.5,-190.5 297.5,-190.5 "/>
<text text-anchor="middle" x="244" y="-178.5" font-family="Helvetica,sans-Serif" font-size="10.00"> </text>
</a>
</g>
</g>
<!-- Node4&#45;&gt;Node1 -->
<g id="edge3" class="edge">
<title>Node4&#45;&gt;Node1</title>
<path fill="none" stroke="#404040" d="M207.33,-171.16C197.12,-155.76 185.94,-138.89 175.39,-122.97"/>
<polygon fill="none" stroke="#404040" points="175.19,-122.68 168.54,-119.88 168.56,-112.67 175.21,-115.46 175.19,-122.68"/>
<text text-anchor="middle" x="227.5" y="-139.5" font-family="Helvetica,sans-Serif" font-size="10.00"> +augmentation</text>
</g>
</g>
</svg>
