<?xml version="1.0" encoding="UTF-8" standalone="no"?>
<!DOCTYPE svg PUBLIC "-//W3C//DTD SVG 1.1//EN"
 "http://www.w3.org/Graphics/SVG/1.1/DTD/svg11.dtd">
<!-- Generated by graphviz version 12.0.0 (20240704.0754)
 -->
<!-- Title: TTL_const_ext_int_sub_tensor_t Pages: 1 -->
<svg width="293pt" height="321pt"
 viewBox="0.00 0.00 293.00 320.50" xmlns="http://www.w3.org/2000/svg" xmlns:xlink="http://www.w3.org/1999/xlink">
<g id="graph0" class="graph" transform="scale(1 1) rotate(0) translate(4 316.5)">
<title>TTL_const_ext_int_sub_tensor_t</title>
<!-- Node1 -->
<g id="Node000001" class="node">
<title>Node1</title>
<g id="a_Node000001"><a xlink:title=" ">
<polygon fill="#999999" stroke="none" points="223.5,-60 111.5,-60 111.5,0 223.5,0 223.5,-60"/>
<text text-anchor="start" x="116.5" y="-46.5" font-family="Helvetica,sans-Serif" font-size="10.00">TTL_const_ext_int_sub</text>
<text text-anchor="start" x="147.25" y="-35.25" font-family="Helvetica,sans-Serif" font-size="10.00">_tensor_t</text>
<text text-anchor="start" x="133" y="-20.5" font-family="Helvetica,sans-Serif" font-size="10.00">+</text>
<text text-anchor="start" x="160.5" y="-20.5" font-family="Helvetica,sans-Serif" font-size="10.00">origin</text>
<text text-anchor="start" x="166" y="-5.5" font-family="Helvetica,sans-Serif" font-size="10.00"> </text>
<polygon fill="#666666" stroke="#666666" points="111.5,-32 111.5,-32 223.5,-32 223.5,-32 111.5,-32"/>
<polygon fill="#666666" stroke="#666666" points="111.5,-17 111.5,-17 158.5,-17 158.5,-17 111.5,-17"/>
<polygon fill="#666666" stroke="#666666" points="158.5,-17 158.5,-17 223.5,-17 223.5,-17 158.5,-17"/>
<polygon fill="none" stroke="#666666" points="111.5,0 111.5,-60 223.5,-60 223.5,0 111.5,0"/>
</a>
</g>
</g>
<!-- Node2 -->
<g id="Node000002" class="node">
<title>Node2</title>
<g id="a_Node000002"><a xlink:href="structTTL__const__ext__int__tensor__t.html" target="_top" xlink:title=" ">
<polygon fill="white" stroke="none" points="131,-178.75 0,-178.75 0,-114.75 131,-114.75 131,-178.75"/>
<text text-anchor="start" x="4.75" y="-165.25" font-family="Helvetica,sans-Serif" font-size="10.00">TTL_const_ext_int_tensor_t</text>
<text text-anchor="start" x="21.5" y="-150.25" font-family="Helvetica,sans-Serif" font-size="10.00">+</text>
<text text-anchor="start" x="49" y="-150.25" font-family="Helvetica,sans-Serif" font-size="10.00">base</text>
<text text-anchor="start" x="21.5" y="-135.25" font-family="Helvetica,sans-Serif" font-size="10.00">+</text>
<text text-anchor="start" x="49" y="-135.25" font-family="Helvetica,sans-Serif" font-size="10.00">elem_size</text>
<text text-anchor="start" x="64" y="-120.25" font-family="Helvetica,sans-Serif" font-size="10.00"> </text>
<polygon fill="#666666" stroke="#666666" points="0,-161.75 0,-161.75 131,-161.75 131,-161.75 0,-161.75"/>
<polygon fill="#666666" stroke="#666666" points="0,-131.75 0,-131.75 47,-131.75 47,-131.75 0,-131.75"/>
<polygon fill="#666666" stroke="#666666" points="47,-131.75 47,-131.75 131,-131.75 131,-131.75 47,-131.75"/>
<polygon fill="none" stroke="#666666" points="0,-114.75 0,-178.75 131,-178.75 131,-114.75 0,-114.75"/>
</a>
</g>
</g>
<!-- Node2&#45;&gt;Node1 -->
<g id="edge1_Node000001_Node000002" class="edge">
<title>Node2&#45;&gt;Node1</title>
<g id="a_edge1_Node000001_Node000002"><a xlink:title=" ">
<path fill="none" stroke="#63b8ff" d="M87.95,-114.96C96.99,-103.09 107.75,-89.61 118.25,-78 120.98,-74.98 123.88,-71.91 126.83,-68.88"/>
<polygon fill="none" stroke="#63b8ff" points="126.68,-69.03 128.1,-61.96 135.17,-60.55 133.75,-67.62 126.68,-69.03"/>
</a>
</g>
<text text-anchor="middle" x="136.12" y="-79.75" font-family="Helvetica,sans-Serif" font-size="10.00" fill="grey"> +tensor</text>
</g>
<!-- Node3 -->
<g id="Node000003" class="node">
<title>Node3</title>
<g id="a_Node000003"><a xlink:href="structTTL__layout__t.html" target="_top" xlink:title="Description of a Tensor layout in memory.">
<polygon fill="white" stroke="none" points="100.5,-305 20.5,-305 20.5,-241 100.5,-241 100.5,-305"/>
<text text-anchor="start" x="32" y="-291.5" font-family="Helvetica,sans-Serif" font-size="10.00">TTL_layout_t</text>
<text text-anchor="start" x="24.5" y="-276.5" font-family="Helvetica,sans-Serif" font-size="10.00">+</text>
<text text-anchor="start" x="34.5" y="-276.5" font-family="Helvetica,sans-Serif" font-size="10.00">row_spacing</text>
<text text-anchor="start" x="24.5" y="-261.5" font-family="Helvetica,sans-Serif" font-size="10.00">+</text>
<text text-anchor="start" x="34.5" y="-261.5" font-family="Helvetica,sans-Serif" font-size="10.00">plane_spacing</text>
<text text-anchor="start" x="59" y="-246.5" font-family="Helvetica,sans-Serif" font-size="10.00"> </text>
<polygon fill="#666666" stroke="#666666" points="20.5,-288 20.5,-288 100.5,-288 100.5,-288 20.5,-288"/>
<polygon fill="#666666" stroke="#666666" points="20.5,-258 20.5,-258 32.5,-258 32.5,-258 20.5,-258"/>
<polygon fill="#666666" stroke="#666666" points="32.5,-258 32.5,-258 100.5,-258 100.5,-258 32.5,-258"/>
<polygon fill="none" stroke="#666666" points="20.5,-241 20.5,-305 100.5,-305 100.5,-241 20.5,-241"/>
</a>
</g>
</g>
<!-- Node3&#45;&gt;Node2 -->
<g id="edge2_Node000002_Node000003" class="edge">
<title>Node3&#45;&gt;Node2</title>
<g id="a_edge2_Node000002_Node000003"><a xlink:title=" ">
<path fill="none" stroke="#63b8ff" d="M60.76,-241.3C60.93,-229.69 61.24,-216.36 61.75,-204.25 61.93,-200.08 62.15,-195.73 62.39,-191.39"/>
<polygon fill="none" stroke="#63b8ff" points="62.39,-191.4 58.77,-185.17 63.13,-179.42 66.76,-185.66 62.39,-191.4"/>
</a>
</g>
<text text-anchor="middle" x="79.38" y="-206" font-family="Helvetica,sans-Serif" font-size="10.00" fill="grey"> +layout</text>
</g>
<!-- Node4 -->
<g id="Node000004" class="node">
<title>Node4</title>
<g id="a_Node000004"><a xlink:href="structTTL__shape__t.html" target="_top" xlink:title="Description of a Shape.">
<polygon fill="white" stroke="none" points="193,-312.5 126,-312.5 126,-233.5 193,-233.5 193,-312.5"/>
<text text-anchor="start" x="130.62" y="-299" font-family="Helvetica,sans-Serif" font-size="10.00">TTL_shape_t</text>
<text text-anchor="start" x="135.5" y="-284" font-family="Helvetica,sans-Serif" font-size="10.00">+</text>
<text text-anchor="start" x="151" y="-284" font-family="Helvetica,sans-Serif" font-size="10.00">width</text>
<text text-anchor="start" x="135.5" y="-269" font-family="Helvetica,sans-Serif" font-size="10.00">+</text>
<text text-anchor="start" x="151" y="-269" font-family="Helvetica,sans-Serif" font-size="10.00">height</text>
<text text-anchor="start" x="135.5" y="-254" font-family="Helvetica,sans-Serif" font-size="10.00">+</text>
<text text-anchor="start" x="151" y="-254" font-family="Helvetica,sans-Serif" font-size="10.00">depth</text>
<text text-anchor="start" x="158" y="-239" font-family="Helvetica,sans-Serif" font-size="10.00"> </text>
<polygon fill="#666666" stroke="#666666" points="126,-295.5 126,-295.5 193,-295.5 193,-295.5 126,-295.5"/>
<polygon fill="#666666" stroke="#666666" points="126,-250.5 126,-250.5 149,-250.5 149,-250.5 126,-250.5"/>
<polygon fill="#666666" stroke="#666666" points="149,-250.5 149,-250.5 193,-250.5 193,-250.5 149,-250.5"/>
<polygon fill="none" stroke="#666666" points="126,-233.5 126,-312.5 193,-312.5 193,-233.5 126,-233.5"/>
</a>
</g>
</g>
<!-- Node4&#45;&gt;Node1 -->
<g id="edge4_Node000001_Node000004" class="edge">
<title>Node4&#45;&gt;Node1</title>
<g id="a_edge4_Node000001_Node000004"><a xlink:title=" ">
<path fill="none" stroke="#63b8ff" d="M160.78,-233.55C162.23,-189.61 164.61,-117.97 166.12,-72.72"/>
<polygon fill="none" stroke="#63b8ff" points="166.11,-72.76 162.32,-66.63 166.51,-60.76 170.31,-66.89 166.11,-72.76"/>
</a>
</g>
<text text-anchor="middle" x="182.75" y="-142.88" font-family="Helvetica,sans-Serif" font-size="10.00" fill="grey"> +shape</text>
</g>
<!-- Node4&#45;&gt;Node2 -->
<g id="edge3_Node000002_Node000004" class="edge">
<title>Node4&#45;&gt;Node2</title>
<g id="a_edge3_Node000002_Node000004"><a xlink:title=" ">
<path fill="none" stroke="#63b8ff" d="M130.53,-233.71C119.76,-219.48 107.51,-203.28 96.57,-188.81"/>
<polygon fill="none" stroke="#63b8ff" points="96.65,-188.93 89.84,-186.56 89.41,-179.36 96.22,-181.73 96.65,-188.93"/>
</a>
</g>
<text text-anchor="middle" x="132.75" y="-206" font-family="Helvetica,sans-Serif" font-size="10.00" fill="grey"> +shape</text>
</g>
<!-- Node5 -->
<g id="Node000005" class="node">
<title>Node5</title>
<g id="a_Node000005"><a xlink:href="structTTL__offset__t.html" target="_top" xlink:title="Description of the 3D offset of an object.">
<polygon fill="white" stroke="none" points="285,-186.25 220,-186.25 220,-107.25 285,-107.25 285,-186.25"/>
<text text-anchor="start" x="224.75" y="-172.75" font-family="Helvetica,sans-Serif" font-size="10.00">TTL_offset_t</text>
<text text-anchor="start" x="234.5" y="-157.75" font-family="Helvetica,sans-Serif" font-size="10.00">+</text>
<text text-anchor="start" x="255" y="-157.75" font-family="Helvetica,sans-Serif" font-size="10.00">x</text>
<text text-anchor="start" x="234.5" y="-142.75" font-family="Helvetica,sans-Serif" font-size="10.00">+</text>
<text text-anchor="start" x="255" y="-142.75" font-family="Helvetica,sans-Serif" font-size="10.00">y</text>
<text text-anchor="start" x="234.5" y="-127.75" font-family="Helvetica,sans-Serif" font-size="10.00">+</text>
<text text-anchor="start" x="255" y="-127.75" font-family="Helvetica,sans-Serif" font-size="10.00">z</text>
<text text-anchor="start" x="251" y="-112.75" font-family="Helvetica,sans-Serif" font-size="10.00"> </text>
<polygon fill="#666666" stroke="#666666" points="220,-169.25 220,-169.25 285,-169.25 285,-169.25 220,-169.25"/>
<polygon fill="#666666" stroke="#666666" points="220,-124.25 220,-124.25 253,-124.25 253,-124.25 220,-124.25"/>
<polygon fill="#666666" stroke="#666666" points="253,-124.25 253,-124.25 285,-124.25 285,-124.25 253,-124.25"/>
<polygon fill="none" stroke="#666666" points="220,-107.25 220,-186.25 285,-186.25 285,-107.25 220,-107.25"/>
</a>
</g>
</g>
<!-- Node5&#45;&gt;Node1 -->
<g id="edge5_Node000001_Node000005" class="edge">
<title>Node5&#45;&gt;Node1</title>
<g id="a_edge5_Node000001_Node000005"><a xlink:title=" ">
<path fill="none" stroke="#63b8ff" d="M224.2,-107.54C215.31,-95.54 205.48,-82.27 196.54,-70.2"/>
<polygon fill="none" stroke="#63b8ff" points="196.64,-70.33 189.85,-67.89 189.49,-60.69 196.28,-63.13 196.64,-70.33"/>
</a>
</g>
<text text-anchor="middle" x="236.12" y="-79.75" font-family="Helvetica,sans-Serif" font-size="10.00" fill="grey"> +sub_offset</text>
</g>
</g>
</svg>
