<?xml version="1.0" encoding="UTF-8" standalone="no"?>
<!DOCTYPE svg PUBLIC "-//W3C//DTD SVG 1.1//EN"
 "http://www.w3.org/Graphics/SVG/1.1/DTD/svg11.dtd">
<!-- Generated by graphviz version 12.2.1 (20241206.2353)
 -->
<!-- Title: TTL_export_double_const_short_tensor_buffering_t Pages: 1 -->
<svg width="254pt" height="366pt"
 viewBox="0.00 0.00 253.88 365.75" xmlns="http://www.w3.org/2000/svg" xmlns:xlink="http://www.w3.org/1999/xlink">
<g id="graph0" class="graph" transform="scale(1 1) rotate(0) translate(4 361.75)">
<title>TTL_export_double_const_short_tensor_buffering_t</title>
<!-- Node1 -->
<g id="Node000001" class="node">
<title>Node1</title>
<g id="a_Node000001"><a xlink:title="Data required to perform double buffer pipelining.">
<polygon fill="#999999" stroke="none" points="186.38,-106.75 65.88,-106.75 65.88,0 186.38,0 186.38,-106.75"/>
<text text-anchor="start" x="69.88" y="-93.25" font-family="Helvetica,sans-Serif" font-size="10.00">TTL_export_double_const</text>
<text text-anchor="start" x="71.38" y="-82" font-family="Helvetica,sans-Serif" font-size="10.00">_short_tensor_buffering_t</text>
<text text-anchor="start" x="86.12" y="-66.75" font-family="Helvetica,sans-Serif" font-size="10.00">+</text>
<text text-anchor="start" x="112.38" y="-66.75" font-family="Helvetica,sans-Serif" font-size="10.00">index</text>
<text text-anchor="start" x="86.12" y="-51.5" font-family="Helvetica,sans-Serif" font-size="10.00">+</text>
<text text-anchor="start" x="112.38" y="-51.5" font-family="Helvetica,sans-Serif" font-size="10.00">int_base</text>
<text text-anchor="start" x="86.12" y="-36.25" font-family="Helvetica,sans-Serif" font-size="10.00">+</text>
<text text-anchor="start" x="112.38" y="-36.25" font-family="Helvetica,sans-Serif" font-size="10.00">common</text>
<text text-anchor="start" x="86.12" y="-21" font-family="Helvetica,sans-Serif" font-size="10.00">+</text>
<text text-anchor="start" x="112.38" y="-21" font-family="Helvetica,sans-Serif" font-size="10.00">event</text>
<text text-anchor="start" x="124.62" y="-5.75" font-family="Helvetica,sans-Serif" font-size="10.00"> </text>
<polygon fill="#666666" stroke="#666666" points="65.88,-78.25 65.88,-78.25 186.38,-78.25 186.38,-78.25 65.88,-78.25"/>
<polygon fill="#666666" stroke="#666666" points="65.88,-17.25 65.88,-17.25 110.38,-17.25 110.38,-17.25 65.88,-17.25"/>
<polygon fill="#666666" stroke="#666666" points="110.38,-17.25 110.38,-17.25 186.38,-17.25 186.38,-17.25 110.38,-17.25"/>
<polygon fill="none" stroke="#666666" points="65.88,0 65.88,-106.75 186.38,-106.75 186.38,0 65.88,0"/>
</a>
</g>
</g>
<!-- Node2 -->
<g id="Node000002" class="node">
<title>Node2</title>
<g id="a_Node000002"><a xlink:href="structTTL__ext__short__tensor__t.html" target="_top" xlink:title="const and non&#45;const tensors in the appropriate address space">
<polygon fill="white" stroke="none" points="132.88,-230.25 21.38,-230.25 21.38,-165.25 132.88,-165.25 132.88,-230.25"/>
<text text-anchor="start" x="25.38" y="-216.75" font-family="Helvetica,sans-Serif" font-size="10.00">TTL_ext_short_tensor_t</text>
<text text-anchor="start" x="37.88" y="-201.5" font-family="Helvetica,sans-Serif" font-size="10.00">+</text>
<text text-anchor="start" x="60.38" y="-201.5" font-family="Helvetica,sans-Serif" font-size="10.00">base</text>
<text text-anchor="start" x="37.88" y="-186.25" font-family="Helvetica,sans-Serif" font-size="10.00">+</text>
<text text-anchor="start" x="60.38" y="-186.25" font-family="Helvetica,sans-Serif" font-size="10.00">elem_size</text>
<text text-anchor="start" x="75.62" y="-171" font-family="Helvetica,sans-Serif" font-size="10.00"> </text>
<polygon fill="#666666" stroke="#666666" points="21.38,-213 21.38,-213 132.88,-213 132.88,-213 21.38,-213"/>
<polygon fill="#666666" stroke="#666666" points="21.38,-182.5 21.38,-182.5 58.38,-182.5 58.38,-182.5 21.38,-182.5"/>
<polygon fill="#666666" stroke="#666666" points="58.38,-182.5 58.38,-182.5 132.88,-182.5 132.88,-182.5 58.38,-182.5"/>
<polygon fill="none" stroke="#666666" points="21.38,-165.25 21.38,-230.25 132.88,-230.25 132.88,-165.25 21.38,-165.25"/>
</a>
</g>
</g>
<!-- Node2&#45;&gt;Node1 -->
<g id="edge1_Node000001_Node000002" class="edge">
<title>Node2&#45;&gt;Node1</title>
<g id="a_edge1_Node000001_Node000002"><a xlink:title=" ">
<path fill="none" stroke="#63b8ff" d="M76.75,-165.29C77.39,-152.46 79.16,-137.63 83.38,-124.75 84.06,-122.65 84.82,-120.54 85.65,-118.44"/>
<polygon fill="none" stroke="#63b8ff" points="85.7,-118.32 84.49,-111.21 90.58,-107.35 91.8,-114.46 85.7,-118.32"/>
</a>
</g>
<text text-anchor="middle" x="118.25" y="-137.75" font-family="Helvetica,sans-Serif" font-size="10.00" fill="grey"> +ext_tensor_in</text>
<text text-anchor="middle" x="118.25" y="-126.5" font-family="Helvetica,sans-Serif" font-size="10.00" fill="grey">+ext_tensor_out</text>
</g>
<!-- Node3 -->
<g id="Node000003" class="node">
<title>Node3</title>
<g id="a_Node000003"><a xlink:href="structTTL__layout__t.html" target="_top" xlink:title="Description of a Tensor layout in memory.">
<polygon fill="white" stroke="none" points="80.25,-350.12 0,-350.12 0,-285.12 80.25,-285.12 80.25,-350.12"/>
<text text-anchor="start" x="11.62" y="-336.62" font-family="Helvetica,sans-Serif" font-size="10.00">TTL_layout_t</text>
<text text-anchor="start" x="4" y="-321.38" font-family="Helvetica,sans-Serif" font-size="10.00">+</text>
<text text-anchor="start" x="14" y="-321.38" font-family="Helvetica,sans-Serif" font-size="10.00">row_spacing</text>
<text text-anchor="start" x="4" y="-306.12" font-family="Helvetica,sans-Serif" font-size="10.00">+</text>
<text text-anchor="start" x="14" y="-306.12" font-family="Helvetica,sans-Serif" font-size="10.00">plane_spacing</text>
<text text-anchor="start" x="38.62" y="-290.88" font-family="Helvetica,sans-Serif" font-size="10.00"> </text>
<polygon fill="#666666" stroke="#666666" points="0,-332.88 0,-332.88 80.25,-332.88 80.25,-332.88 0,-332.88"/>
<polygon fill="#666666" stroke="#666666" points="0,-302.38 0,-302.38 12,-302.38 12,-302.38 0,-302.38"/>
<polygon fill="#666666" stroke="#666666" points="12,-302.38 12,-302.38 80.25,-302.38 80.25,-302.38 12,-302.38"/>
<polygon fill="none" stroke="#666666" points="0,-285.12 0,-350.12 80.25,-350.12 80.25,-285.12 0,-285.12"/>
</a>
</g>
</g>
<!-- Node3&#45;&gt;Node2 -->
<g id="edge2_Node000002_Node000003" class="edge">
<title>Node3&#45;&gt;Node2</title>
<g id="a_edge2_Node000002_Node000003"><a xlink:title=" ">
<path fill="none" stroke="#63b8ff" d="M37.42,-285.33C37.35,-273.45 38.46,-259.97 42.38,-248.25 43.16,-245.9 44.1,-243.56 45.15,-241.25"/>
<polygon fill="none" stroke="#63b8ff" points="45.08,-241.38 44.42,-234.2 50.8,-230.83 51.46,-238.01 45.08,-241.38"/>
</a>
</g>
<text text-anchor="middle" x="59.25" y="-250" font-family="Helvetica,sans-Serif" font-size="10.00" fill="grey"> +layout</text>
</g>
<!-- Node4 -->
<g id="Node000004" class="node">
<title>Node4</title>
<g id="a_Node000004"><a xlink:href="structTTL__shape__t.html" target="_top" xlink:title="Description of a Shape.">
<polygon fill="white" stroke="none" points="164,-357.75 98.25,-357.75 98.25,-277.5 164,-277.5 164,-357.75"/>
<text text-anchor="start" x="102.25" y="-344.25" font-family="Helvetica,sans-Serif" font-size="10.00">TTL_shape_t</text>
<text text-anchor="start" x="107.62" y="-329" font-family="Helvetica,sans-Serif" font-size="10.00">+</text>
<text text-anchor="start" x="123" y="-329" font-family="Helvetica,sans-Serif" font-size="10.00">width</text>
<text text-anchor="start" x="107.62" y="-313.75" font-family="Helvetica,sans-Serif" font-size="10.00">+</text>
<text text-anchor="start" x="123" y="-313.75" font-family="Helvetica,sans-Serif" font-size="10.00">height</text>
<text text-anchor="start" x="107.62" y="-298.5" font-family="Helvetica,sans-Serif" font-size="10.00">+</text>
<text text-anchor="start" x="123" y="-298.5" font-family="Helvetica,sans-Serif" font-size="10.00">depth</text>
<text text-anchor="start" x="129.62" y="-283.25" font-family="Helvetica,sans-Serif" font-size="10.00"> </text>
<polygon fill="#666666" stroke="#666666" points="98.25,-340.5 98.25,-340.5 164,-340.5 164,-340.5 98.25,-340.5"/>
<polygon fill="#666666" stroke="#666666" points="98.25,-294.75 98.25,-294.75 121,-294.75 121,-294.75 98.25,-294.75"/>
<polygon fill="#666666" stroke="#666666" points="121,-294.75 121,-294.75 164,-294.75 164,-294.75 121,-294.75"/>
<polygon fill="none" stroke="#666666" points="98.25,-277.5 98.25,-357.75 164,-357.75 164,-277.5 98.25,-277.5"/>
</a>
</g>
</g>
<!-- Node4&#45;&gt;Node2 -->
<g id="edge3_Node000002_Node000004" class="edge">
<title>Node4&#45;&gt;Node2</title>
<g id="a_edge3_Node000002_Node000004"><a xlink:title=" ">
<path fill="none" stroke="#63b8ff" d="M113.29,-277.7C108.05,-266.25 102.28,-253.66 96.92,-241.97"/>
<polygon fill="none" stroke="#63b8ff" points="96.9,-241.91 90.76,-238.12 91.9,-231 98.04,-234.79 96.9,-241.91"/>
</a>
</g>
<text text-anchor="middle" x="121.38" y="-250" font-family="Helvetica,sans-Serif" font-size="10.00" fill="grey"> +shape</text>
</g>
<!-- Node5 -->
<g id="Node000005" class="node">
<title>Node5</title>
<g id="a_Node000005"><a xlink:href="structTTL__tile__t.html" target="_top" xlink:title=" ">
<polygon fill="white" stroke="none" points="203.25,-222.62 151,-222.62 151,-172.88 203.25,-172.88 203.25,-222.62"/>
<text text-anchor="start" x="155" y="-209.12" font-family="Helvetica,sans-Serif" font-size="10.00">TTL_tile_t</text>
<text text-anchor="start" x="175.62" y="-193.88" font-family="Helvetica,sans-Serif" font-size="10.00"> </text>
<text text-anchor="start" x="175.62" y="-178.62" font-family="Helvetica,sans-Serif" font-size="10.00"> </text>
<polygon fill="#666666" stroke="#666666" points="151,-205.38 151,-205.38 203.25,-205.38 203.25,-205.38 151,-205.38"/>
<polygon fill="#666666" stroke="#666666" points="151,-190.12 151,-190.12 203.25,-190.12 203.25,-190.12 151,-190.12"/>
<polygon fill="none" stroke="#666666" points="151,-172.88 151,-222.62 203.25,-222.62 203.25,-172.88 151,-172.88"/>
</a>
</g>
</g>
<!-- Node4&#45;&gt;Node5 -->
<g id="edge5_Node000005_Node000004" class="edge">
<title>Node4&#45;&gt;Node5</title>
<g id="a_edge5_Node000005_Node000004"><a xlink:title=" ">
<path fill="none" stroke="#63b8ff" d="M143.78,-277.7C147.13,-268.01 150.86,-257.7 154.62,-248.25 156.5,-243.55 158.57,-238.65 160.68,-233.83"/>
<polygon fill="none" stroke="#63b8ff" points="160.61,-233.99 159.42,-226.87 165.53,-223.04 166.72,-230.15 160.61,-233.99"/>
</a>
</g>
<text text-anchor="middle" x="171.88" y="-250" font-family="Helvetica,sans-Serif" font-size="10.00" fill="grey"> +shape</text>
</g>
<!-- Node5&#45;&gt;Node1 -->
<g id="edge4_Node000001_Node000005" class="edge">
<title>Node5&#45;&gt;Node1</title>
<g id="a_edge4_Node000001_Node000005"><a xlink:title=" ">
<path fill="none" stroke="#63b8ff" d="M169.5,-172.99C164.91,-158.91 158.86,-140.75 153.12,-124.75 152.4,-122.72 151.65,-120.65 150.89,-118.57"/>
<polygon fill="none" stroke="#63b8ff" points="150.92,-118.64 145.08,-114.41 146.75,-107.39 152.58,-111.63 150.92,-118.64"/>
</a>
</g>
<text text-anchor="middle" x="183.17" y="-132.12" font-family="Helvetica,sans-Serif" font-size="10.00" fill="grey"> +prev_tile</text>
</g>
<!-- Node6 -->
<g id="Node000006" class="node">
<title>Node6</title>
<g id="a_Node000006"><a xlink:href="structTTL__offset__t.html" target="_top" xlink:title="Description of the 3D offset of an object.">
<polygon fill="white" stroke="none" points="245.88,-357.75 182.38,-357.75 182.38,-277.5 245.88,-277.5 245.88,-357.75"/>
<text text-anchor="start" x="186.38" y="-344.25" font-family="Helvetica,sans-Serif" font-size="10.00">TTL_offset_t</text>
<text text-anchor="start" x="196.62" y="-329" font-family="Helvetica,sans-Serif" font-size="10.00">+</text>
<text text-anchor="start" x="216.88" y="-329" font-family="Helvetica,sans-Serif" font-size="10.00">x</text>
<text text-anchor="start" x="196.62" y="-313.75" font-family="Helvetica,sans-Serif" font-size="10.00">+</text>
<text text-anchor="start" x="216.88" y="-313.75" font-family="Helvetica,sans-Serif" font-size="10.00">y</text>
<text text-anchor="start" x="196.62" y="-298.5" font-family="Helvetica,sans-Serif" font-size="10.00">+</text>
<text text-anchor="start" x="216.88" y="-298.5" font-family="Helvetica,sans-Serif" font-size="10.00">z</text>
<text text-anchor="start" x="212.62" y="-283.25" font-family="Helvetica,sans-Serif" font-size="10.00"> </text>
<polygon fill="#666666" stroke="#666666" points="182.38,-340.5 182.38,-340.5 245.88,-340.5 245.88,-340.5 182.38,-340.5"/>
<polygon fill="#666666" stroke="#666666" points="182.38,-294.75 182.38,-294.75 214.88,-294.75 214.88,-294.75 182.38,-294.75"/>
<polygon fill="#666666" stroke="#666666" points="214.88,-294.75 214.88,-294.75 245.88,-294.75 245.88,-294.75 214.88,-294.75"/>
<polygon fill="none" stroke="#666666" points="182.38,-277.5 182.38,-357.75 245.88,-357.75 245.88,-277.5 182.38,-277.5"/>
</a>
</g>
</g>
<!-- Node6&#45;&gt;Node5 -->
<g id="edge6_Node000005_Node000006" class="edge">
<title>Node6&#45;&gt;Node5</title>
<g id="a_edge6_Node000005_Node000006"><a xlink:title=" ">
<path fill="none" stroke="#63b8ff" d="M201.91,-277.7C197.57,-263.88 192.71,-248.39 188.45,-234.82"/>
<polygon fill="none" stroke="#63b8ff" points="188.45,-234.82 182.83,-230.29 184.85,-223.37 190.47,-227.89 188.45,-234.82"/>
</a>
</g>
<text text-anchor="middle" x="211.75" y="-250" font-family="Helvetica,sans-Serif" font-size="10.00" fill="grey"> +offset</text>
</g>
</g>
</svg>
