<?xml version="1.0" encoding="UTF-8" standalone="no"?>
<!DOCTYPE svg PUBLIC "-//W3C//DTD SVG 1.1//EN"
 "http://www.w3.org/Graphics/SVG/1.1/DTD/svg11.dtd">
<!-- Generated by graphviz version 12.0.0 (20240704.0754)
 -->
<!-- Title: TTL_augmentation_t Pages: 1 -->
<svg width="108pt" height="132pt"
 viewBox="0.00 0.00 108.00 132.00" xmlns="http://www.w3.org/2000/svg" xmlns:xlink="http://www.w3.org/1999/xlink">
<g id="graph0" class="graph" transform="scale(1 1) rotate(0) translate(4 128)">
<title>TTL_augmentation_t</title>
<!-- Node1 -->
<g id="Node000001" class="node">
<title>Node1</title>
<g id="a_Node000001"><a xlink:title="3D description of the augmented margins">
<polygon fill="#999999" stroke="none" points="100,-124 0,-124 0,0 100,0 100,-124"/>
<text text-anchor="start" x="5" y="-110.5" font-family="Helvetica,sans-Serif" font-size="10.00">TTL_augmentation_t</text>
<text text-anchor="start" x="17" y="-95.5" font-family="Helvetica,sans-Serif" font-size="10.00">+</text>
<text text-anchor="start" x="40" y="-95.5" font-family="Helvetica,sans-Serif" font-size="10.00">left</text>
<text text-anchor="start" x="17" y="-80.5" font-family="Helvetica,sans-Serif" font-size="10.00">+</text>
<text text-anchor="start" x="40" y="-80.5" font-family="Helvetica,sans-Serif" font-size="10.00">right</text>
<text text-anchor="start" x="17" y="-65.5" font-family="Helvetica,sans-Serif" font-size="10.00">+</text>
<text text-anchor="start" x="40" y="-65.5" font-family="Helvetica,sans-Serif" font-size="10.00">top</text>
<text text-anchor="start" x="17" y="-50.5" font-family="Helvetica,sans-Serif" font-size="10.00">+</text>
<text text-anchor="start" x="40" y="-50.5" font-family="Helvetica,sans-Serif" font-size="10.00">bottom</text>
<text text-anchor="start" x="17" y="-35.5" font-family="Helvetica,sans-Serif" font-size="10.00">+</text>
<text text-anchor="start" x="40" y="-35.5" font-family="Helvetica,sans-Serif" font-size="10.00">front</text>
<text text-anchor="start" x="17" y="-20.5" font-family="Helvetica,sans-Serif" font-size="10.00">+</text>
<text text-anchor="start" x="40" y="-20.5" font-family="Helvetica,sans-Serif" font-size="10.00">back</text>
<text text-anchor="start" x="48.5" y="-5.5" font-family="Helvetica,sans-Serif" font-size="10.00"> </text>
<polygon fill="#666666" stroke="#666666" points="0,-107 0,-107 100,-107 100,-107 0,-107"/>
<polygon fill="#666666" stroke="#666666" points="0,-17 0,-17 38,-17 38,-17 0,-17"/>
<polygon fill="#666666" stroke="#666666" points="38,-17 38,-17 100,-17 100,-17 38,-17"/>
<polygon fill="none" stroke="#666666" points="0,0 0,-124 100,-124 100,0 0,0"/>
</a>
</g>
</g>
</g>
</svg>
