<?xml version="1.0" encoding="UTF-8" standalone="no"?>
<!DOCTYPE svg PUBLIC "-//W3C//DTD SVG 1.1//EN"
 "http://www.w3.org/Graphics/SVG/1.1/DTD/svg11.dtd">
<!-- Generated by graphviz version 12.2.1 (20241206.2353)
 -->
<!-- Title: TTL_simplex_const_ushort_tensor_buffering_t Pages: 1 -->
<svg width="474pt" height="493pt"
 viewBox="0.00 0.00 474.02 493.25" xmlns="http://www.w3.org/2000/svg" xmlns:xlink="http://www.w3.org/1999/xlink">
<g id="graph0" class="graph" transform="scale(1 1) rotate(0) translate(4 489.25)">
<title>TTL_simplex_const_ushort_tensor_buffering_t</title>
<!-- Node1 -->
<g id="Node000001" class="node">
<title>Node1</title>
<g id="a_Node000001"><a xlink:title=" ">
<polygon fill="#999999" stroke="none" points="348.25,-122 222.5,-122 222.5,0 348.25,0 348.25,-122"/>
<text text-anchor="start" x="226.5" y="-108.5" font-family="Helvetica,sans-Serif" font-size="10.00">TTL_simplex_const_ushort</text>
<text text-anchor="start" x="244.12" y="-97.25" font-family="Helvetica,sans-Serif" font-size="10.00">_tensor_buffering_t</text>
<text text-anchor="start" x="242.75" y="-82" font-family="Helvetica,sans-Serif" font-size="10.00">+</text>
<text text-anchor="start" x="269" y="-82" font-family="Helvetica,sans-Serif" font-size="10.00">index</text>
<text text-anchor="start" x="242.75" y="-66.75" font-family="Helvetica,sans-Serif" font-size="10.00">+</text>
<text text-anchor="start" x="269" y="-66.75" font-family="Helvetica,sans-Serif" font-size="10.00">int_base</text>
<text text-anchor="start" x="242.75" y="-51.5" font-family="Helvetica,sans-Serif" font-size="10.00">+</text>
<text text-anchor="start" x="269" y="-51.5" font-family="Helvetica,sans-Serif" font-size="10.00">common</text>
<text text-anchor="start" x="242.75" y="-36.25" font-family="Helvetica,sans-Serif" font-size="10.00">+</text>
<text text-anchor="start" x="269" y="-36.25" font-family="Helvetica,sans-Serif" font-size="10.00">event_in</text>
<text text-anchor="start" x="242.75" y="-21" font-family="Helvetica,sans-Serif" font-size="10.00">+</text>
<text text-anchor="start" x="269" y="-21" font-family="Helvetica,sans-Serif" font-size="10.00">event_out</text>
<text text-anchor="start" x="283.88" y="-5.75" font-family="Helvetica,sans-Serif" font-size="10.00"> </text>
<polygon fill="#666666" stroke="#666666" points="222.5,-93.5 222.5,-93.5 348.25,-93.5 348.25,-93.5 222.5,-93.5"/>
<polygon fill="#666666" stroke="#666666" points="222.5,-17.25 222.5,-17.25 267,-17.25 267,-17.25 222.5,-17.25"/>
<polygon fill="#666666" stroke="#666666" points="267,-17.25 267,-17.25 348.25,-17.25 348.25,-17.25 267,-17.25"/>
<polygon fill="none" stroke="#666666" points="222.5,0 222.5,-122 348.25,-122 348.25,0 222.5,0"/>
</a>
</g>
</g>
<!-- Node2 -->
<g id="Node000002" class="node">
<title>Node2</title>
<g id="a_Node000002"><a xlink:href="structTTL__ext__ushort__tensor__t.html" target="_top" xlink:title="const and non&#45;const tensors in the appropriate address space">
<polygon fill="white" stroke="none" points="116.75,-350.12 0,-350.12 0,-285.12 116.75,-285.12 116.75,-350.12"/>
<text text-anchor="start" x="4" y="-336.62" font-family="Helvetica,sans-Serif" font-size="10.00">TTL_ext_ushort_tensor_t</text>
<text text-anchor="start" x="17.81" y="-321.38" font-family="Helvetica,sans-Serif" font-size="10.00">+</text>
<text text-anchor="start" x="41.62" y="-321.38" font-family="Helvetica,sans-Serif" font-size="10.00">base</text>
<text text-anchor="start" x="17.81" y="-306.12" font-family="Helvetica,sans-Serif" font-size="10.00">+</text>
<text text-anchor="start" x="41.62" y="-306.12" font-family="Helvetica,sans-Serif" font-size="10.00">elem_size</text>
<text text-anchor="start" x="56.88" y="-290.88" font-family="Helvetica,sans-Serif" font-size="10.00"> </text>
<polygon fill="#666666" stroke="#666666" points="0,-332.88 0,-332.88 116.75,-332.88 116.75,-332.88 0,-332.88"/>
<polygon fill="#666666" stroke="#666666" points="0,-302.38 0,-302.38 39.62,-302.38 39.62,-302.38 0,-302.38"/>
<polygon fill="#666666" stroke="#666666" points="39.62,-302.38 39.62,-302.38 116.75,-302.38 116.75,-302.38 39.62,-302.38"/>
<polygon fill="none" stroke="#666666" points="0,-285.12 0,-350.12 116.75,-350.12 116.75,-285.12 0,-285.12"/>
</a>
</g>
</g>
<!-- Node2&#45;&gt;Node1 -->
<g id="edge1_Node000001_Node000002" class="edge">
<title>Node2&#45;&gt;Node1</title>
<g id="a_edge1_Node000001_Node000002"><a xlink:title=" ">
<path fill="none" stroke="#63b8ff" d="M76.56,-285.27C95.34,-254.19 126.49,-206.04 159.62,-169.25 175.66,-151.45 194.61,-133.85 212.87,-118.22"/>
<polygon fill="none" stroke="#63b8ff" points="212.77,-118.31 214.78,-111.38 221.94,-110.57 219.93,-117.5 212.77,-118.31"/>
</a>
</g>
<text text-anchor="middle" x="194.5" y="-201.5" font-family="Helvetica,sans-Serif" font-size="10.00" fill="grey"> +ext_tensor_in</text>
<text text-anchor="middle" x="194.5" y="-190.25" font-family="Helvetica,sans-Serif" font-size="10.00" fill="grey">+ext_tensor_out</text>
</g>
<!-- Node3 -->
<g id="Node000003" class="node">
<title>Node3</title>
<g id="a_Node000003"><a xlink:href="structTTL__layout__t.html" target="_top" xlink:title="Description of a Tensor layout in memory.">
<polygon fill="white" stroke="none" points="169.5,-477.62 89.25,-477.62 89.25,-412.62 169.5,-412.62 169.5,-477.62"/>
<text text-anchor="start" x="100.88" y="-464.12" font-family="Helvetica,sans-Serif" font-size="10.00">TTL_layout_t</text>
<text text-anchor="start" x="93.25" y="-448.88" font-family="Helvetica,sans-Serif" font-size="10.00">+</text>
<text text-anchor="start" x="103.25" y="-448.88" font-family="Helvetica,sans-Serif" font-size="10.00">row_spacing</text>
<text text-anchor="start" x="93.25" y="-433.62" font-family="Helvetica,sans-Serif" font-size="10.00">+</text>
<text text-anchor="start" x="103.25" y="-433.62" font-family="Helvetica,sans-Serif" font-size="10.00">plane_spacing</text>
<text text-anchor="start" x="127.88" y="-418.38" font-family="Helvetica,sans-Serif" font-size="10.00"> </text>
<polygon fill="#666666" stroke="#666666" points="89.25,-460.38 89.25,-460.38 169.5,-460.38 169.5,-460.38 89.25,-460.38"/>
<polygon fill="#666666" stroke="#666666" points="89.25,-429.88 89.25,-429.88 101.25,-429.88 101.25,-429.88 89.25,-429.88"/>
<polygon fill="#666666" stroke="#666666" points="101.25,-429.88 101.25,-429.88 169.5,-429.88 169.5,-429.88 101.25,-429.88"/>
<polygon fill="none" stroke="#666666" points="89.25,-412.62 89.25,-477.62 169.5,-477.62 169.5,-412.62 89.25,-412.62"/>
</a>
</g>
</g>
<!-- Node3&#45;&gt;Node2 -->
<g id="edge2_Node000002_Node000003" class="edge">
<title>Node3&#45;&gt;Node2</title>
<g id="a_edge2_Node000002_Node000003"><a xlink:title=" ">
<path fill="none" stroke="#63b8ff" d="M89.3,-418.71C78.82,-409.99 68.75,-399.29 62.62,-387 58.93,-379.6 56.93,-371.17 55.98,-362.82"/>
<polygon fill="none" stroke="#63b8ff" points="55.98,-362.8 51.65,-357.04 55.3,-350.82 59.63,-356.58 55.98,-362.8"/>
</a>
</g>
<text text-anchor="middle" x="79.5" y="-377.5" font-family="Helvetica,sans-Serif" font-size="10.00" fill="grey"> +layout</text>
</g>
<!-- Node8 -->
<g id="Node000008" class="node">
<title>Node8</title>
<g id="a_Node000008"><a xlink:href="structTTL__int__ushort__tensor__t.html" target="_top" xlink:title="const and non&#45;const tensors in the appropriate address space">
<polygon fill="white" stroke="none" points="249.62,-350.12 135.12,-350.12 135.12,-285.12 249.62,-285.12 249.62,-350.12"/>
<text text-anchor="start" x="139.12" y="-336.62" font-family="Helvetica,sans-Serif" font-size="10.00">TTL_int_ushort_tensor_t</text>
<text text-anchor="start" x="152.38" y="-321.38" font-family="Helvetica,sans-Serif" font-size="10.00">+</text>
<text text-anchor="start" x="175.62" y="-321.38" font-family="Helvetica,sans-Serif" font-size="10.00">base</text>
<text text-anchor="start" x="152.38" y="-306.12" font-family="Helvetica,sans-Serif" font-size="10.00">+</text>
<text text-anchor="start" x="175.62" y="-306.12" font-family="Helvetica,sans-Serif" font-size="10.00">elem_size</text>
<text text-anchor="start" x="190.88" y="-290.88" font-family="Helvetica,sans-Serif" font-size="10.00"> </text>
<polygon fill="#666666" stroke="#666666" points="135.12,-332.88 135.12,-332.88 249.62,-332.88 249.62,-332.88 135.12,-332.88"/>
<polygon fill="#666666" stroke="#666666" points="135.12,-302.38 135.12,-302.38 173.62,-302.38 173.62,-302.38 135.12,-302.38"/>
<polygon fill="#666666" stroke="#666666" points="173.62,-302.38 173.62,-302.38 249.62,-302.38 249.62,-302.38 173.62,-302.38"/>
<polygon fill="none" stroke="#666666" points="135.12,-285.12 135.12,-350.12 249.62,-350.12 249.62,-285.12 135.12,-285.12"/>
</a>
</g>
</g>
<!-- Node3&#45;&gt;Node8 -->
<g id="edge9_Node000008_Node000003" class="edge">
<title>Node3&#45;&gt;Node8</title>
<g id="a_edge9_Node000008_Node000003"><a xlink:title=" ">
<path fill="none" stroke="#63b8ff" d="M145.11,-412.78C152.93,-397.21 162.49,-378.16 170.96,-361.28"/>
<polygon fill="none" stroke="#63b8ff" points="170.83,-361.54 169.95,-354.38 176.22,-350.81 177.1,-357.97 170.83,-361.54"/>
</a>
</g>
<text text-anchor="middle" x="179.64" y="-377.5" font-family="Helvetica,sans-Serif" font-size="10.00" fill="grey"> +layout</text>
</g>
<!-- Node4 -->
<g id="Node000004" class="node">
<title>Node4</title>
<g id="a_Node000004"><a xlink:href="structTTL__shape__t.html" target="_top" xlink:title="Description of a Shape.">
<polygon fill="white" stroke="none" points="293.25,-485.25 227.5,-485.25 227.5,-405 293.25,-405 293.25,-485.25"/>
<text text-anchor="start" x="231.5" y="-471.75" font-family="Helvetica,sans-Serif" font-size="10.00">TTL_shape_t</text>
<text text-anchor="start" x="236.88" y="-456.5" font-family="Helvetica,sans-Serif" font-size="10.00">+</text>
<text text-anchor="start" x="252.25" y="-456.5" font-family="Helvetica,sans-Serif" font-size="10.00">width</text>
<text text-anchor="start" x="236.88" y="-441.25" font-family="Helvetica,sans-Serif" font-size="10.00">+</text>
<text text-anchor="start" x="252.25" y="-441.25" font-family="Helvetica,sans-Serif" font-size="10.00">height</text>
<text text-anchor="start" x="236.88" y="-426" font-family="Helvetica,sans-Serif" font-size="10.00">+</text>
<text text-anchor="start" x="252.25" y="-426" font-family="Helvetica,sans-Serif" font-size="10.00">depth</text>
<text text-anchor="start" x="258.88" y="-410.75" font-family="Helvetica,sans-Serif" font-size="10.00"> </text>
<polygon fill="#666666" stroke="#666666" points="227.5,-468 227.5,-468 293.25,-468 293.25,-468 227.5,-468"/>
<polygon fill="#666666" stroke="#666666" points="227.5,-422.25 227.5,-422.25 250.25,-422.25 250.25,-422.25 227.5,-422.25"/>
<polygon fill="#666666" stroke="#666666" points="250.25,-422.25 250.25,-422.25 293.25,-422.25 293.25,-422.25 250.25,-422.25"/>
<polygon fill="none" stroke="#666666" points="227.5,-405 227.5,-485.25 293.25,-485.25 293.25,-405 227.5,-405"/>
</a>
</g>
</g>
<!-- Node4&#45;&gt;Node2 -->
<g id="edge3_Node000002_Node000004" class="edge">
<title>Node4&#45;&gt;Node2</title>
<g id="a_edge3_Node000002_Node000004"><a xlink:title=" ">
<path fill="none" stroke="#63b8ff" d="M227.73,-427.24C212.89,-419.9 194.97,-411.52 178.38,-405 153.45,-395.21 143.47,-401.38 120.88,-387 109.36,-379.67 98.61,-369.69 89.38,-359.61"/>
<polygon fill="none" stroke="#63b8ff" points="89.5,-359.74 82.54,-357.84 81.62,-350.69 88.58,-352.59 89.5,-359.74"/>
</a>
</g>
<text text-anchor="middle" x="138.12" y="-377.5" font-family="Helvetica,sans-Serif" font-size="10.00" fill="grey"> +shape</text>
</g>
<!-- Node5 -->
<g id="Node000005" class="node">
<title>Node5</title>
<g id="a_Node000005"><a xlink:href="structTTL__tile__t.html" target="_top" xlink:title=" ">
<polygon fill="white" stroke="none" points="420.5,-224.62 368.25,-224.62 368.25,-174.88 420.5,-174.88 420.5,-224.62"/>
<text text-anchor="start" x="372.25" y="-211.12" font-family="Helvetica,sans-Serif" font-size="10.00">TTL_tile_t</text>
<text text-anchor="start" x="392.88" y="-195.88" font-family="Helvetica,sans-Serif" font-size="10.00"> </text>
<text text-anchor="start" x="392.88" y="-180.62" font-family="Helvetica,sans-Serif" font-size="10.00"> </text>
<polygon fill="#666666" stroke="#666666" points="368.25,-207.38 368.25,-207.38 420.5,-207.38 420.5,-207.38 368.25,-207.38"/>
<polygon fill="#666666" stroke="#666666" points="368.25,-192.12 368.25,-192.12 420.5,-192.12 420.5,-192.12 368.25,-192.12"/>
<polygon fill="none" stroke="#666666" points="368.25,-174.88 368.25,-224.62 420.5,-224.62 420.5,-174.88 368.25,-174.88"/>
</a>
</g>
</g>
<!-- Node4&#45;&gt;Node5 -->
<g id="edge5_Node000005_Node000004" class="edge">
<title>Node4&#45;&gt;Node5</title>
<g id="a_edge5_Node000005_Node000004"><a xlink:title=" ">
<path fill="none" stroke="#63b8ff" d="M293.08,-435.41C328.93,-423.99 384.99,-400.22 412.38,-357.75 438.84,-316.71 433.85,-295.46 421.38,-248.25 420.28,-244.12 418.74,-239.98 416.94,-235.95"/>
<polygon fill="none" stroke="#63b8ff" points="416.87,-235.82 410.57,-232.32 411.37,-225.16 417.68,-228.65 416.87,-235.82"/>
</a>
</g>
<text text-anchor="middle" x="448.77" y="-313.75" font-family="Helvetica,sans-Serif" font-size="10.00" fill="grey"> +shape</text>
</g>
<!-- Node7 -->
<g id="Node000007" class="node">
<title>Node7</title>
<g id="a_Node000007"><a xlink:href="structTTL__int__ushort__sub__tensor__t.html" target="_top" xlink:title="const and non&#45;const sub tensors in the appropriate address space">
<polygon fill="white" stroke="none" points="332.88,-230.25 237.88,-230.25 237.88,-169.25 332.88,-169.25 332.88,-230.25"/>
<text text-anchor="start" x="241.88" y="-216.75" font-family="Helvetica,sans-Serif" font-size="10.00">TTL_int_ushort_sub</text>
<text text-anchor="start" x="265.12" y="-205.5" font-family="Helvetica,sans-Serif" font-size="10.00">_tensor_t</text>
<text text-anchor="start" x="255.31" y="-190.25" font-family="Helvetica,sans-Serif" font-size="10.00">+</text>
<text text-anchor="start" x="278.75" y="-190.25" font-family="Helvetica,sans-Serif" font-size="10.00">origin</text>
<text text-anchor="start" x="283.88" y="-175" font-family="Helvetica,sans-Serif" font-size="10.00"> </text>
<polygon fill="#666666" stroke="#666666" points="237.88,-201.75 237.88,-201.75 332.88,-201.75 332.88,-201.75 237.88,-201.75"/>
<polygon fill="#666666" stroke="#666666" points="237.88,-186.5 237.88,-186.5 276.75,-186.5 276.75,-186.5 237.88,-186.5"/>
<polygon fill="#666666" stroke="#666666" points="276.75,-186.5 276.75,-186.5 332.88,-186.5 332.88,-186.5 276.75,-186.5"/>
<polygon fill="none" stroke="#666666" points="237.88,-169.25 237.88,-230.25 332.88,-230.25 332.88,-169.25 237.88,-169.25"/>
</a>
</g>
</g>
<!-- Node4&#45;&gt;Node7 -->
<g id="edge11_Node000007_Node000004" class="edge">
<title>Node4&#45;&gt;Node7</title>
<g id="a_edge11_Node000007_Node000004"><a xlink:title=" ">
<path fill="none" stroke="#63b8ff" d="M265.29,-405.11C266.01,-399.05 266.73,-392.86 267.38,-387 272.8,-337.46 278.19,-280.41 281.64,-242.64"/>
<polygon fill="none" stroke="#63b8ff" points="281.6,-242.98 278.16,-236.64 282.69,-231.03 286.13,-237.36 281.6,-242.98"/>
</a>
</g>
<text text-anchor="middle" x="295.62" y="-313.75" font-family="Helvetica,sans-Serif" font-size="10.00" fill="grey"> +shape</text>
</g>
<!-- Node4&#45;&gt;Node8 -->
<g id="edge10_Node000008_Node000004" class="edge">
<title>Node4&#45;&gt;Node8</title>
<g id="a_edge10_Node000008_Node000004"><a xlink:title=" ">
<path fill="none" stroke="#63b8ff" d="M239.23,-405.1C231.74,-391.28 223.27,-375.64 215.61,-361.51"/>
<polygon fill="none" stroke="#63b8ff" points="215.56,-361.41 209.18,-358.04 209.84,-350.86 216.21,-354.23 215.56,-361.41"/>
</a>
</g>
<text text-anchor="middle" x="245.66" y="-377.5" font-family="Helvetica,sans-Serif" font-size="10.00" fill="grey"> +shape</text>
</g>
<!-- Node5&#45;&gt;Node1 -->
<g id="edge4_Node000001_Node000005" class="edge">
<title>Node5&#45;&gt;Node1</title>
<g id="a_edge4_Node000001_Node000005"><a xlink:title=" ">
<path fill="none" stroke="#63b8ff" d="M388.32,-174.91C384.77,-163.7 379.56,-150.52 372.38,-140 367.87,-133.4 362.69,-126.99 357.16,-120.86"/>
<polygon fill="none" stroke="#63b8ff" points="357.11,-120.81 350.08,-119.23 348.83,-112.13 355.87,-113.71 357.11,-120.81"/>
</a>
</g>
<text text-anchor="middle" x="421.56" y="-141.75" font-family="Helvetica,sans-Serif" font-size="10.00" fill="grey"> +next_exported_tile</text>
</g>
<!-- Node6 -->
<g id="Node000006" class="node">
<title>Node6</title>
<g id="a_Node000006"><a xlink:href="structTTL__offset__t.html" target="_top" xlink:title="Description of the 3D offset of an object.">
<polygon fill="white" stroke="none" points="403.12,-357.75 339.62,-357.75 339.62,-277.5 403.12,-277.5 403.12,-357.75"/>
<text text-anchor="start" x="343.62" y="-344.25" font-family="Helvetica,sans-Serif" font-size="10.00">TTL_offset_t</text>
<text text-anchor="start" x="353.88" y="-329" font-family="Helvetica,sans-Serif" font-size="10.00">+</text>
<text text-anchor="start" x="374.12" y="-329" font-family="Helvetica,sans-Serif" font-size="10.00">x</text>
<text text-anchor="start" x="353.88" y="-313.75" font-family="Helvetica,sans-Serif" font-size="10.00">+</text>
<text text-anchor="start" x="374.12" y="-313.75" font-family="Helvetica,sans-Serif" font-size="10.00">y</text>
<text text-anchor="start" x="353.88" y="-298.5" font-family="Helvetica,sans-Serif" font-size="10.00">+</text>
<text text-anchor="start" x="374.12" y="-298.5" font-family="Helvetica,sans-Serif" font-size="10.00">z</text>
<text text-anchor="start" x="369.88" y="-283.25" font-family="Helvetica,sans-Serif" font-size="10.00"> </text>
<polygon fill="#666666" stroke="#666666" points="339.62,-340.5 339.62,-340.5 403.12,-340.5 403.12,-340.5 339.62,-340.5"/>
<polygon fill="#666666" stroke="#666666" points="339.62,-294.75 339.62,-294.75 372.12,-294.75 372.12,-294.75 339.62,-294.75"/>
<polygon fill="#666666" stroke="#666666" points="372.12,-294.75 372.12,-294.75 403.12,-294.75 403.12,-294.75 372.12,-294.75"/>
<polygon fill="none" stroke="#666666" points="339.62,-277.5 339.62,-357.75 403.12,-357.75 403.12,-277.5 339.62,-277.5"/>
</a>
</g>
</g>
<!-- Node6&#45;&gt;Node5 -->
<g id="edge6_Node000005_Node000006" class="edge">
<title>Node6&#45;&gt;Node5</title>
<g id="a_edge6_Node000005_Node000006"><a xlink:title=" ">
<path fill="none" stroke="#63b8ff" d="M379.1,-277.72C381.69,-264.64 384.58,-250.11 387.14,-237.22"/>
<polygon fill="none" stroke="#63b8ff" points="387.14,-237.18 384.39,-230.52 389.48,-225.41 392.24,-232.07 387.14,-237.18"/>
</a>
</g>
<text text-anchor="middle" x="401.06" y="-250" font-family="Helvetica,sans-Serif" font-size="10.00" fill="grey"> +offset</text>
</g>
<!-- Node6&#45;&gt;Node7 -->
<g id="edge12_Node000007_Node000006" class="edge">
<title>Node6&#45;&gt;Node7</title>
<g id="a_edge12_Node000007_Node000006"><a xlink:title=" ">
<path fill="none" stroke="#63b8ff" d="M339.89,-277.55C335.21,-271.55 330.5,-265.39 326.12,-259.5 321.62,-253.43 316.96,-246.93 312.47,-240.54"/>
<polygon fill="none" stroke="#63b8ff" points="312.49,-240.58 305.78,-237.94 305.63,-230.73 312.35,-233.37 312.49,-240.58"/>
</a>
</g>
<text text-anchor="middle" x="352.75" y="-250" font-family="Helvetica,sans-Serif" font-size="10.00" fill="grey"> +sub_offset</text>
</g>
<!-- Node7&#45;&gt;Node1 -->
<g id="edge7_Node000001_Node000007" class="edge">
<title>Node7&#45;&gt;Node1</title>
<g id="a_edge7_Node000001_Node000007"><a xlink:title=" ">
<path fill="none" stroke="#63b8ff" d="M285.38,-169.41C285.38,-159.1 285.38,-147.01 285.38,-134.73"/>
<polygon fill="none" stroke="#63b8ff" points="285.38,-134.84 281.38,-128.84 285.38,-122.84 289.38,-128.84 285.38,-134.84"/>
</a>
</g>
<text text-anchor="middle" x="328.12" y="-141.75" font-family="Helvetica,sans-Serif" font-size="10.00" fill="grey"> +int_prev_imported</text>
</g>
<!-- Node8&#45;&gt;Node7 -->
<g id="edge8_Node000007_Node000008" class="edge">
<title>Node8&#45;&gt;Node7</title>
<g id="a_edge8_Node000007_Node000008"><a xlink:title=" ">
<path fill="none" stroke="#63b8ff" d="M210.3,-285.27C217.7,-273.26 226.75,-259.7 236.12,-248.25 238.57,-245.27 241.18,-242.28 243.89,-239.33"/>
<polygon fill="none" stroke="#63b8ff" points="243.79,-239.43 245.06,-232.33 252.1,-230.77 250.83,-237.87 243.79,-239.43"/>
</a>
</g>
<text text-anchor="middle" x="253.75" y="-250" font-family="Helvetica,sans-Serif" font-size="10.00" fill="grey"> +tensor</text>
</g>
</g>
</svg>
