<?xml version="1.0" encoding="UTF-8" standalone="no"?>
<!DOCTYPE svg PUBLIC "-//W3C//DTD SVG 1.1//EN"
 "http://www.w3.org/Graphics/SVG/1.1/DTD/svg11.dtd">
<!-- Generated by graphviz version 12.2.1 (20241206.2353)
 -->
<!-- Title: TTL_simplex_const_void_tensor_buffering_t Pages: 1 -->
<svg width="457pt" height="482pt"
 viewBox="0.00 0.00 457.04 482.00" xmlns="http://www.w3.org/2000/svg" xmlns:xlink="http://www.w3.org/1999/xlink">
<g id="graph0" class="graph" transform="scale(1 1) rotate(0) translate(4 478)">
<title>TTL_simplex_const_void_tensor_buffering_t</title>
<!-- Node1 -->
<g id="Node000001" class="node">
<title>Node1</title>
<g id="a_Node000001"><a xlink:title=" ">
<polygon fill="#999999" stroke="none" points="326.25,-122 209.5,-122 209.5,0 326.25,0 326.25,-122"/>
<text text-anchor="start" x="213.5" y="-108.5" font-family="Helvetica,sans-Serif" font-size="10.00">TTL_simplex_const_void</text>
<text text-anchor="start" x="226.62" y="-97.25" font-family="Helvetica,sans-Serif" font-size="10.00">_tensor_buffering_t</text>
<text text-anchor="start" x="227.5" y="-82" font-family="Helvetica,sans-Serif" font-size="10.00">+</text>
<text text-anchor="start" x="251.5" y="-82" font-family="Helvetica,sans-Serif" font-size="10.00">index</text>
<text text-anchor="start" x="227.5" y="-66.75" font-family="Helvetica,sans-Serif" font-size="10.00">+</text>
<text text-anchor="start" x="251.5" y="-66.75" font-family="Helvetica,sans-Serif" font-size="10.00">int_base</text>
<text text-anchor="start" x="227.5" y="-51.5" font-family="Helvetica,sans-Serif" font-size="10.00">+</text>
<text text-anchor="start" x="251.5" y="-51.5" font-family="Helvetica,sans-Serif" font-size="10.00">common</text>
<text text-anchor="start" x="227.5" y="-36.25" font-family="Helvetica,sans-Serif" font-size="10.00">+</text>
<text text-anchor="start" x="251.5" y="-36.25" font-family="Helvetica,sans-Serif" font-size="10.00">event_in</text>
<text text-anchor="start" x="227.5" y="-21" font-family="Helvetica,sans-Serif" font-size="10.00">+</text>
<text text-anchor="start" x="251.5" y="-21" font-family="Helvetica,sans-Serif" font-size="10.00">event_out</text>
<text text-anchor="start" x="266.38" y="-5.75" font-family="Helvetica,sans-Serif" font-size="10.00"> </text>
<polygon fill="#666666" stroke="#666666" points="209.5,-93.5 209.5,-93.5 326.25,-93.5 326.25,-93.5 209.5,-93.5"/>
<polygon fill="#666666" stroke="#666666" points="209.5,-17.25 209.5,-17.25 249.5,-17.25 249.5,-17.25 209.5,-17.25"/>
<polygon fill="#666666" stroke="#666666" points="249.5,-17.25 249.5,-17.25 326.25,-17.25 326.25,-17.25 249.5,-17.25"/>
<polygon fill="none" stroke="#666666" points="209.5,0 209.5,-122 326.25,-122 326.25,0 209.5,0"/>
</a>
</g>
</g>
<!-- Node2 -->
<g id="Node000002" class="node">
<title>Node2</title>
<g id="a_Node000002"><a xlink:href="structTTL__ext__void__tensor__t.html" target="_top" xlink:title="const and non&#45;const tensors in the appropriate address space">
<polygon fill="white" stroke="none" points="107.75,-338.88 0,-338.88 0,-273.88 107.75,-273.88 107.75,-338.88"/>
<text text-anchor="start" x="4" y="-325.38" font-family="Helvetica,sans-Serif" font-size="10.00">TTL_ext_void_tensor_t</text>
<text text-anchor="start" x="15.56" y="-310.12" font-family="Helvetica,sans-Serif" font-size="10.00">+</text>
<text text-anchor="start" x="37.12" y="-310.12" font-family="Helvetica,sans-Serif" font-size="10.00">base</text>
<text text-anchor="start" x="15.56" y="-294.88" font-family="Helvetica,sans-Serif" font-size="10.00">+</text>
<text text-anchor="start" x="37.12" y="-294.88" font-family="Helvetica,sans-Serif" font-size="10.00">elem_size</text>
<text text-anchor="start" x="52.38" y="-279.62" font-family="Helvetica,sans-Serif" font-size="10.00"> </text>
<polygon fill="#666666" stroke="#666666" points="0,-321.62 0,-321.62 107.75,-321.62 107.75,-321.62 0,-321.62"/>
<polygon fill="#666666" stroke="#666666" points="0,-291.12 0,-291.12 35.12,-291.12 35.12,-291.12 0,-291.12"/>
<polygon fill="#666666" stroke="#666666" points="35.12,-291.12 35.12,-291.12 107.75,-291.12 107.75,-291.12 35.12,-291.12"/>
<polygon fill="none" stroke="#666666" points="0,-273.88 0,-338.88 107.75,-338.88 107.75,-273.88 0,-273.88"/>
</a>
</g>
</g>
<!-- Node2&#45;&gt;Node1 -->
<g id="edge1_Node000001_Node000002" class="edge">
<title>Node2&#45;&gt;Node1</title>
<g id="a_edge1_Node000001_Node000002"><a xlink:title=" ">
<path fill="none" stroke="#63b8ff" d="M65.83,-274.11C78.02,-244.9 98.97,-201.13 126.12,-169.25 146.87,-144.89 174.07,-122.67 199.08,-104.85"/>
<polygon fill="none" stroke="#63b8ff" points="199.06,-104.87 201.7,-98.15 208.91,-98.01 206.27,-104.72 199.06,-104.87"/>
</a>
</g>
<text text-anchor="middle" x="161" y="-195.88" font-family="Helvetica,sans-Serif" font-size="10.00" fill="grey"> +ext_tensor_in</text>
<text text-anchor="middle" x="161" y="-184.62" font-family="Helvetica,sans-Serif" font-size="10.00" fill="grey">+ext_tensor_out</text>
</g>
<!-- Node3 -->
<g id="Node000003" class="node">
<title>Node3</title>
<g id="a_Node000003"><a xlink:href="structTTL__layout__t.html" target="_top" xlink:title="Description of a Tensor layout in memory.">
<polygon fill="white" stroke="none" points="152,-466.38 71.75,-466.38 71.75,-401.38 152,-401.38 152,-466.38"/>
<text text-anchor="start" x="83.38" y="-452.88" font-family="Helvetica,sans-Serif" font-size="10.00">TTL_layout_t</text>
<text text-anchor="start" x="75.75" y="-437.62" font-family="Helvetica,sans-Serif" font-size="10.00">+</text>
<text text-anchor="start" x="85.75" y="-437.62" font-family="Helvetica,sans-Serif" font-size="10.00">row_spacing</text>
<text text-anchor="start" x="75.75" y="-422.38" font-family="Helvetica,sans-Serif" font-size="10.00">+</text>
<text text-anchor="start" x="85.75" y="-422.38" font-family="Helvetica,sans-Serif" font-size="10.00">plane_spacing</text>
<text text-anchor="start" x="110.38" y="-407.12" font-family="Helvetica,sans-Serif" font-size="10.00"> </text>
<polygon fill="#666666" stroke="#666666" points="71.75,-449.12 71.75,-449.12 152,-449.12 152,-449.12 71.75,-449.12"/>
<polygon fill="#666666" stroke="#666666" points="71.75,-418.62 71.75,-418.62 83.75,-418.62 83.75,-418.62 71.75,-418.62"/>
<polygon fill="#666666" stroke="#666666" points="83.75,-418.62 83.75,-418.62 152,-418.62 152,-418.62 83.75,-418.62"/>
<polygon fill="none" stroke="#666666" points="71.75,-401.38 71.75,-466.38 152,-466.38 152,-401.38 71.75,-401.38"/>
</a>
</g>
</g>
<!-- Node3&#45;&gt;Node2 -->
<g id="edge2_Node000002_Node000003" class="edge">
<title>Node3&#45;&gt;Node2</title>
<g id="a_edge2_Node000002_Node000003"><a xlink:title=" ">
<path fill="none" stroke="#63b8ff" d="M71.83,-406.89C61.9,-398.28 52.55,-387.77 47.12,-375.75 43.74,-368.26 42.67,-359.85 42.91,-351.55"/>
<polygon fill="none" stroke="#63b8ff" points="42.91,-351.6 39.54,-345.22 44.13,-339.66 47.5,-346.04 42.91,-351.6"/>
</a>
</g>
<text text-anchor="middle" x="64" y="-366.25" font-family="Helvetica,sans-Serif" font-size="10.00" fill="grey"> +layout</text>
</g>
<!-- Node8 -->
<g id="Node000008" class="node">
<title>Node8</title>
<g id="a_Node000008"><a xlink:href="structTTL__int__void__tensor__t.html" target="_top" xlink:title="const and non&#45;const tensors in the appropriate address space">
<polygon fill="white" stroke="none" points="231.62,-338.88 126.12,-338.88 126.12,-273.88 231.62,-273.88 231.62,-338.88"/>
<text text-anchor="start" x="130.12" y="-325.38" font-family="Helvetica,sans-Serif" font-size="10.00">TTL_int_void_tensor_t</text>
<text text-anchor="start" x="141.12" y="-310.12" font-family="Helvetica,sans-Serif" font-size="10.00">+</text>
<text text-anchor="start" x="162.12" y="-310.12" font-family="Helvetica,sans-Serif" font-size="10.00">base</text>
<text text-anchor="start" x="141.12" y="-294.88" font-family="Helvetica,sans-Serif" font-size="10.00">+</text>
<text text-anchor="start" x="162.12" y="-294.88" font-family="Helvetica,sans-Serif" font-size="10.00">elem_size</text>
<text text-anchor="start" x="177.38" y="-279.62" font-family="Helvetica,sans-Serif" font-size="10.00"> </text>
<polygon fill="#666666" stroke="#666666" points="126.12,-321.62 126.12,-321.62 231.62,-321.62 231.62,-321.62 126.12,-321.62"/>
<polygon fill="#666666" stroke="#666666" points="126.12,-291.12 126.12,-291.12 160.12,-291.12 160.12,-291.12 126.12,-291.12"/>
<polygon fill="#666666" stroke="#666666" points="160.12,-291.12 160.12,-291.12 231.62,-291.12 231.62,-291.12 160.12,-291.12"/>
<polygon fill="none" stroke="#666666" points="126.12,-273.88 126.12,-338.88 231.62,-338.88 231.62,-273.88 126.12,-273.88"/>
</a>
</g>
</g>
<!-- Node3&#45;&gt;Node8 -->
<g id="edge9_Node000008_Node000003" class="edge">
<title>Node3&#45;&gt;Node8</title>
<g id="a_edge9_Node000008_Node000003"><a xlink:title=" ">
<path fill="none" stroke="#63b8ff" d="M128.61,-401.53C136.92,-385.96 147.09,-366.91 156.11,-350.03"/>
<polygon fill="none" stroke="#63b8ff" points="156.05,-350.14 155.34,-342.96 161.7,-339.55 162.4,-346.73 156.05,-350.14"/>
</a>
</g>
<text text-anchor="middle" x="164.26" y="-366.25" font-family="Helvetica,sans-Serif" font-size="10.00" fill="grey"> +layout</text>
</g>
<!-- Node4 -->
<g id="Node000004" class="node">
<title>Node4</title>
<g id="a_Node000004"><a xlink:href="structTTL__shape__t.html" target="_top" xlink:title="Description of a Shape.">
<polygon fill="white" stroke="none" points="275.75,-474 210,-474 210,-393.75 275.75,-393.75 275.75,-474"/>
<text text-anchor="start" x="214" y="-460.5" font-family="Helvetica,sans-Serif" font-size="10.00">TTL_shape_t</text>
<text text-anchor="start" x="219.38" y="-445.25" font-family="Helvetica,sans-Serif" font-size="10.00">+</text>
<text text-anchor="start" x="234.75" y="-445.25" font-family="Helvetica,sans-Serif" font-size="10.00">width</text>
<text text-anchor="start" x="219.38" y="-430" font-family="Helvetica,sans-Serif" font-size="10.00">+</text>
<text text-anchor="start" x="234.75" y="-430" font-family="Helvetica,sans-Serif" font-size="10.00">height</text>
<text text-anchor="start" x="219.38" y="-414.75" font-family="Helvetica,sans-Serif" font-size="10.00">+</text>
<text text-anchor="start" x="234.75" y="-414.75" font-family="Helvetica,sans-Serif" font-size="10.00">depth</text>
<text text-anchor="start" x="241.38" y="-399.5" font-family="Helvetica,sans-Serif" font-size="10.00"> </text>
<polygon fill="#666666" stroke="#666666" points="210,-456.75 210,-456.75 275.75,-456.75 275.75,-456.75 210,-456.75"/>
<polygon fill="#666666" stroke="#666666" points="210,-411 210,-411 232.75,-411 232.75,-411 210,-411"/>
<polygon fill="#666666" stroke="#666666" points="232.75,-411 232.75,-411 275.75,-411 275.75,-411 232.75,-411"/>
<polygon fill="none" stroke="#666666" points="210,-393.75 210,-474 275.75,-474 275.75,-393.75 210,-393.75"/>
</a>
</g>
</g>
<!-- Node4&#45;&gt;Node2 -->
<g id="edge3_Node000002_Node000004" class="edge">
<title>Node4&#45;&gt;Node2</title>
<g id="a_edge3_Node000002_Node000004"><a xlink:title=" ">
<path fill="none" stroke="#63b8ff" d="M210.22,-416.03C195.37,-408.7 177.45,-400.31 160.88,-393.75 136.37,-384.05 125.8,-391.1 104.38,-375.75 94.51,-368.68 85.77,-359.1 78.45,-349.34"/>
<polygon fill="none" stroke="#63b8ff" points="78.47,-349.38 71.76,-346.75 71.6,-339.54 78.31,-342.17 78.47,-349.38"/>
</a>
</g>
<text text-anchor="middle" x="121.62" y="-366.25" font-family="Helvetica,sans-Serif" font-size="10.00" fill="grey"> +shape</text>
</g>
<!-- Node5 -->
<g id="Node000005" class="node">
<title>Node5</title>
<g id="a_Node000005"><a xlink:href="structTTL__tile__t.html" target="_top" xlink:title=" ">
<polygon fill="white" stroke="none" points="403,-219 350.75,-219 350.75,-169.25 403,-169.25 403,-219"/>
<text text-anchor="start" x="354.75" y="-205.5" font-family="Helvetica,sans-Serif" font-size="10.00">TTL_tile_t</text>
<text text-anchor="start" x="375.38" y="-190.25" font-family="Helvetica,sans-Serif" font-size="10.00"> </text>
<text text-anchor="start" x="375.38" y="-175" font-family="Helvetica,sans-Serif" font-size="10.00"> </text>
<polygon fill="#666666" stroke="#666666" points="350.75,-201.75 350.75,-201.75 403,-201.75 403,-201.75 350.75,-201.75"/>
<polygon fill="#666666" stroke="#666666" points="350.75,-186.5 350.75,-186.5 403,-186.5 403,-186.5 350.75,-186.5"/>
<polygon fill="none" stroke="#666666" points="350.75,-169.25 350.75,-219 403,-219 403,-169.25 350.75,-169.25"/>
</a>
</g>
</g>
<!-- Node4&#45;&gt;Node5 -->
<g id="edge5_Node000005_Node000004" class="edge">
<title>Node4&#45;&gt;Node5</title>
<g id="a_edge5_Node000005_Node000004"><a xlink:title=" ">
<path fill="none" stroke="#63b8ff" d="M275.58,-424.16C311.43,-412.74 367.49,-388.97 394.88,-346.5 421.34,-305.46 417.67,-283.84 403.88,-237 403.21,-234.73 402.38,-232.47 401.42,-230.25"/>
<polygon fill="none" stroke="#63b8ff" points="401.39,-230.19 395.06,-226.74 395.81,-219.56 402.14,-223.02 401.39,-230.19"/>
</a>
</g>
<text text-anchor="middle" x="431.79" y="-302.5" font-family="Helvetica,sans-Serif" font-size="10.00" fill="grey"> +shape</text>
</g>
<!-- Node7 -->
<g id="Node000007" class="node">
<title>Node7</title>
<g id="a_Node000007"><a xlink:href="structTTL__int__void__sub__tensor__t.html" target="_top" xlink:title="const and non&#45;const sub tensors in the appropriate address space">
<polygon fill="white" stroke="none" points="331.12,-219 204.62,-219 204.62,-169.25 331.12,-169.25 331.12,-219"/>
<text text-anchor="start" x="208.62" y="-205.5" font-family="Helvetica,sans-Serif" font-size="10.00">TTL_int_void_sub_tensor_t</text>
<text text-anchor="start" x="229.94" y="-190.25" font-family="Helvetica,sans-Serif" font-size="10.00">+</text>
<text text-anchor="start" x="261.25" y="-190.25" font-family="Helvetica,sans-Serif" font-size="10.00">origin</text>
<text text-anchor="start" x="266.38" y="-175" font-family="Helvetica,sans-Serif" font-size="10.00"> </text>
<polygon fill="#666666" stroke="#666666" points="204.62,-201.75 204.62,-201.75 331.12,-201.75 331.12,-201.75 204.62,-201.75"/>
<polygon fill="#666666" stroke="#666666" points="204.62,-186.5 204.62,-186.5 259.25,-186.5 259.25,-186.5 204.62,-186.5"/>
<polygon fill="#666666" stroke="#666666" points="259.25,-186.5 259.25,-186.5 331.12,-186.5 331.12,-186.5 259.25,-186.5"/>
<polygon fill="none" stroke="#666666" points="204.62,-169.25 204.62,-219 331.12,-219 331.12,-169.25 204.62,-169.25"/>
</a>
</g>
</g>
<!-- Node4&#45;&gt;Node7 -->
<g id="edge11_Node000007_Node000004" class="edge">
<title>Node4&#45;&gt;Node7</title>
<g id="a_edge11_Node000007_Node000004"><a xlink:title=" ">
<path fill="none" stroke="#63b8ff" d="M248.58,-393.88C249.39,-387.82 250.19,-381.62 250.88,-375.75 256.7,-325.96 261.85,-268.26 264.92,-231.73"/>
<polygon fill="none" stroke="#63b8ff" points="264.92,-231.69 261.43,-225.38 265.91,-219.73 269.4,-226.04 264.92,-231.69"/>
</a>
</g>
<text text-anchor="middle" x="279.07" y="-302.5" font-family="Helvetica,sans-Serif" font-size="10.00" fill="grey"> +shape</text>
</g>
<!-- Node4&#45;&gt;Node8 -->
<g id="edge10_Node000008_Node000004" class="edge">
<title>Node4&#45;&gt;Node8</title>
<g id="a_edge10_Node000008_Node000004"><a xlink:title=" ">
<path fill="none" stroke="#63b8ff" d="M222.98,-393.85C215.92,-380.03 207.95,-364.39 200.74,-350.26"/>
<polygon fill="none" stroke="#63b8ff" points="200.77,-350.31 194.48,-346.78 195.32,-339.62 201.61,-343.14 200.77,-350.31"/>
</a>
</g>
<text text-anchor="middle" x="230.04" y="-366.25" font-family="Helvetica,sans-Serif" font-size="10.00" fill="grey"> +shape</text>
</g>
<!-- Node5&#45;&gt;Node1 -->
<g id="edge4_Node000001_Node000005" class="edge">
<title>Node5&#45;&gt;Node1</title>
<g id="a_edge4_Node000001_Node000005"><a xlink:title=" ">
<path fill="none" stroke="#63b8ff" d="M369.66,-169.48C366.09,-159.83 361.16,-148.88 354.88,-140 349.1,-131.85 342.34,-123.95 335.17,-116.51"/>
<polygon fill="none" stroke="#63b8ff" points="335.08,-116.43 328,-115.04 326.56,-107.98 333.64,-109.36 335.08,-116.43"/>
</a>
</g>
<text text-anchor="middle" x="404.51" y="-141.75" font-family="Helvetica,sans-Serif" font-size="10.00" fill="grey"> +next_exported_tile</text>
</g>
<!-- Node6 -->
<g id="Node000006" class="node">
<title>Node6</title>
<g id="a_Node000006"><a xlink:href="structTTL__offset__t.html" target="_top" xlink:title="Description of the 3D offset of an object.">
<polygon fill="white" stroke="none" points="385.62,-346.5 322.12,-346.5 322.12,-266.25 385.62,-266.25 385.62,-346.5"/>
<text text-anchor="start" x="326.12" y="-333" font-family="Helvetica,sans-Serif" font-size="10.00">TTL_offset_t</text>
<text text-anchor="start" x="336.38" y="-317.75" font-family="Helvetica,sans-Serif" font-size="10.00">+</text>
<text text-anchor="start" x="356.62" y="-317.75" font-family="Helvetica,sans-Serif" font-size="10.00">x</text>
<text text-anchor="start" x="336.38" y="-302.5" font-family="Helvetica,sans-Serif" font-size="10.00">+</text>
<text text-anchor="start" x="356.62" y="-302.5" font-family="Helvetica,sans-Serif" font-size="10.00">y</text>
<text text-anchor="start" x="336.38" y="-287.25" font-family="Helvetica,sans-Serif" font-size="10.00">+</text>
<text text-anchor="start" x="356.62" y="-287.25" font-family="Helvetica,sans-Serif" font-size="10.00">z</text>
<text text-anchor="start" x="352.38" y="-272" font-family="Helvetica,sans-Serif" font-size="10.00"> </text>
<polygon fill="#666666" stroke="#666666" points="322.12,-329.25 322.12,-329.25 385.62,-329.25 385.62,-329.25 322.12,-329.25"/>
<polygon fill="#666666" stroke="#666666" points="322.12,-283.5 322.12,-283.5 354.62,-283.5 354.62,-283.5 322.12,-283.5"/>
<polygon fill="#666666" stroke="#666666" points="354.62,-283.5 354.62,-283.5 385.62,-283.5 385.62,-283.5 354.62,-283.5"/>
<polygon fill="none" stroke="#666666" points="322.12,-266.25 322.12,-346.5 385.62,-346.5 385.62,-266.25 322.12,-266.25"/>
</a>
</g>
</g>
<!-- Node6&#45;&gt;Node5 -->
<g id="edge6_Node000005_Node000006" class="edge">
<title>Node6&#45;&gt;Node5</title>
<g id="a_edge6_Node000005_Node000006"><a xlink:title=" ">
<path fill="none" stroke="#63b8ff" d="M361.98,-266.5C364.36,-255.1 366.96,-242.67 369.3,-231.43"/>
<polygon fill="none" stroke="#63b8ff" points="369.28,-231.54 366.59,-224.85 371.73,-219.79 374.42,-226.48 369.28,-231.54"/>
</a>
</g>
<text text-anchor="middle" x="384.24" y="-238.75" font-family="Helvetica,sans-Serif" font-size="10.00" fill="grey"> +offset</text>
</g>
<!-- Node6&#45;&gt;Node7 -->
<g id="edge12_Node000007_Node000006" class="edge">
<title>Node6&#45;&gt;Node7</title>
<g id="a_edge12_Node000007_Node000006"><a xlink:title=" ">
<path fill="none" stroke="#63b8ff" d="M322.88,-266.41C318.09,-260.35 313.21,-254.14 308.62,-248.25 303.86,-242.14 298.82,-235.62 293.96,-229.3"/>
<polygon fill="none" stroke="#63b8ff" points="293.91,-229.22 287.08,-226.9 286.6,-219.7 293.43,-222.03 293.91,-229.22"/>
</a>
</g>
<text text-anchor="middle" x="335.25" y="-238.75" font-family="Helvetica,sans-Serif" font-size="10.00" fill="grey"> +sub_offset</text>
</g>
<!-- Node7&#45;&gt;Node1 -->
<g id="edge7_Node000001_Node000007" class="edge">
<title>Node7&#45;&gt;Node1</title>
<g id="a_edge7_Node000001_Node000007"><a xlink:title=" ">
<path fill="none" stroke="#63b8ff" d="M267.88,-169.38C267.88,-159.46 267.88,-147.36 267.88,-134.9"/>
<polygon fill="none" stroke="#63b8ff" points="267.88,-134.76 263.88,-128.76 267.88,-122.76 271.88,-128.76 267.88,-134.76"/>
</a>
</g>
<text text-anchor="middle" x="310.62" y="-141.75" font-family="Helvetica,sans-Serif" font-size="10.00" fill="grey"> +int_prev_imported</text>
</g>
<!-- Node8&#45;&gt;Node7 -->
<g id="edge8_Node000007_Node000008" class="edge">
<title>Node8&#45;&gt;Node7</title>
<g id="a_edge8_Node000007_Node000008"><a xlink:title=" ">
<path fill="none" stroke="#63b8ff" d="M194.21,-273.96C200.87,-261.81 209.29,-248.17 218.62,-237 221.29,-233.81 224.21,-230.67 227.26,-227.63"/>
<polygon fill="none" stroke="#63b8ff" points="227.23,-227.66 228.89,-220.64 236.01,-219.48 234.35,-226.5 227.23,-227.66"/>
</a>
</g>
<text text-anchor="middle" x="236.25" y="-238.75" font-family="Helvetica,sans-Serif" font-size="10.00" fill="grey"> +tensor</text>
</g>
</g>
</svg>
