<?xml version="1.0" encoding="UTF-8" standalone="no"?>
<!DOCTYPE svg PUBLIC "-//W3C//DTD SVG 1.1//EN"
 "http://www.w3.org/Graphics/SVG/1.1/DTD/svg11.dtd">
<!-- Generated by graphviz version 12.0.0 (20240704.0754)
 -->
<!-- Title: TTL_duplex_const_uchar_tensor_buffering_t Pages: 1 -->
<svg width="245pt" height="399pt"
 viewBox="0.00 0.00 245.25 399.00" xmlns="http://www.w3.org/2000/svg" xmlns:xlink="http://www.w3.org/1999/xlink">
<g id="graph0" class="graph" transform="scale(1 1) rotate(0) translate(4 395)">
<title>TTL_duplex_const_uchar_tensor_buffering_t</title>
<!-- Node1 -->
<g id="Node000001" class="node">
<title>Node1</title>
<g id="a_Node000001"><a xlink:title="Data required to perform duplex buffer pipelining.">
<polygon fill="#999999" stroke="none" points="180,-120 61,-120 61,0 180,0 180,-120"/>
<text text-anchor="start" x="65.75" y="-106.5" font-family="Helvetica,sans-Serif" font-size="10.00">TTL_duplex_const_uchar</text>
<text text-anchor="start" x="79.25" y="-95.25" font-family="Helvetica,sans-Serif" font-size="10.00">_tensor_buffering_t</text>
<text text-anchor="start" x="71.5" y="-80.5" font-family="Helvetica,sans-Serif" font-size="10.00">+</text>
<text text-anchor="start" x="88" y="-80.5" font-family="Helvetica,sans-Serif" font-size="10.00">index</text>
<text text-anchor="start" x="71.5" y="-65.5" font-family="Helvetica,sans-Serif" font-size="10.00">+</text>
<text text-anchor="start" x="88" y="-65.5" font-family="Helvetica,sans-Serif" font-size="10.00">int_base</text>
<text text-anchor="start" x="71.5" y="-50.5" font-family="Helvetica,sans-Serif" font-size="10.00">+</text>
<text text-anchor="start" x="88" y="-50.5" font-family="Helvetica,sans-Serif" font-size="10.00">common</text>
<text text-anchor="start" x="71.5" y="-35.5" font-family="Helvetica,sans-Serif" font-size="10.00">+</text>
<text text-anchor="start" x="88" y="-35.5" font-family="Helvetica,sans-Serif" font-size="10.00">events</text>
<text text-anchor="start" x="71.5" y="-20.5" font-family="Helvetica,sans-Serif" font-size="10.00">+</text>
<text text-anchor="start" x="88" y="-20.5" font-family="Helvetica,sans-Serif" font-size="10.00">prev_out_tensors</text>
<text text-anchor="start" x="119" y="-5.5" font-family="Helvetica,sans-Serif" font-size="10.00"> </text>
<polygon fill="#666666" stroke="#666666" points="61,-92 61,-92 180,-92 180,-92 61,-92"/>
<polygon fill="#666666" stroke="#666666" points="61,-17 61,-17 86,-17 86,-17 61,-17"/>
<polygon fill="#666666" stroke="#666666" points="86,-17 86,-17 180,-17 180,-17 86,-17"/>
<polygon fill="none" stroke="#666666" points="61,0 61,-120 180,-120 180,0 61,0"/>
</a>
</g>
</g>
<!-- Node2 -->
<g id="Node000002" class="node">
<title>Node2</title>
<g id="a_Node000002"><a xlink:href="structTTL__ext__uchar__tensor__t.html" target="_top" xlink:title="const and non&#45;const tensors in the appropriate address space">
<polygon fill="white" stroke="none" points="115,-259.25 0,-259.25 0,-195.25 115,-195.25 115,-259.25"/>
<text text-anchor="start" x="4.62" y="-245.75" font-family="Helvetica,sans-Serif" font-size="10.00">TTL_ext_uchar_tensor_t</text>
<text text-anchor="start" x="17.5" y="-230.75" font-family="Helvetica,sans-Serif" font-size="10.00">+</text>
<text text-anchor="start" x="41" y="-230.75" font-family="Helvetica,sans-Serif" font-size="10.00">base</text>
<text text-anchor="start" x="17.5" y="-215.75" font-family="Helvetica,sans-Serif" font-size="10.00">+</text>
<text text-anchor="start" x="41" y="-215.75" font-family="Helvetica,sans-Serif" font-size="10.00">elem_size</text>
<text text-anchor="start" x="56" y="-200.75" font-family="Helvetica,sans-Serif" font-size="10.00"> </text>
<polygon fill="#666666" stroke="#666666" points="0,-242.25 0,-242.25 115,-242.25 115,-242.25 0,-242.25"/>
<polygon fill="#666666" stroke="#666666" points="0,-212.25 0,-212.25 39,-212.25 39,-212.25 0,-212.25"/>
<polygon fill="#666666" stroke="#666666" points="39,-212.25 39,-212.25 115,-212.25 115,-212.25 39,-212.25"/>
<polygon fill="none" stroke="#666666" points="0,-195.25 0,-259.25 115,-259.25 115,-195.25 0,-195.25"/>
</a>
</g>
</g>
<!-- Node2&#45;&gt;Node1 -->
<g id="edge1_Node000001_Node000002" class="edge">
<title>Node2&#45;&gt;Node1</title>
<g id="a_edge1_Node000001_Node000002"><a xlink:title=" ">
<path fill="none" stroke="#63b8ff" d="M65.34,-195.63C70.05,-178.47 76.52,-156.8 83.75,-138 84.54,-135.96 85.35,-133.89 86.2,-131.82"/>
<polygon fill="none" stroke="#63b8ff" points="86.23,-131.75 84.89,-124.66 90.91,-120.7 92.25,-127.78 86.23,-131.75"/>
</a>
</g>
<text text-anchor="middle" x="118.38" y="-162.25" font-family="Helvetica,sans-Serif" font-size="10.00" fill="grey"> +ext_tensor_in</text>
<text text-anchor="middle" x="118.38" y="-151" font-family="Helvetica,sans-Serif" font-size="10.00" fill="grey">+ext_tensor_out</text>
<text text-anchor="middle" x="118.38" y="-139.75" font-family="Helvetica,sans-Serif" font-size="10.00" fill="grey">+to_export_to</text>
</g>
<!-- Node3 -->
<g id="Node000003" class="node">
<title>Node3</title>
<g id="a_Node000003"><a xlink:href="structTTL__layout__t.html" target="_top" xlink:title="Description of a Tensor layout in memory.">
<polygon fill="white" stroke="none" points="109.5,-383.5 29.5,-383.5 29.5,-319.5 109.5,-319.5 109.5,-383.5"/>
<text text-anchor="start" x="41" y="-370" font-family="Helvetica,sans-Serif" font-size="10.00">TTL_layout_t</text>
<text text-anchor="start" x="33.5" y="-355" font-family="Helvetica,sans-Serif" font-size="10.00">+</text>
<text text-anchor="start" x="43.5" y="-355" font-family="Helvetica,sans-Serif" font-size="10.00">row_spacing</text>
<text text-anchor="start" x="33.5" y="-340" font-family="Helvetica,sans-Serif" font-size="10.00">+</text>
<text text-anchor="start" x="43.5" y="-340" font-family="Helvetica,sans-Serif" font-size="10.00">plane_spacing</text>
<text text-anchor="start" x="68" y="-325" font-family="Helvetica,sans-Serif" font-size="10.00"> </text>
<polygon fill="#666666" stroke="#666666" points="29.5,-366.5 29.5,-366.5 109.5,-366.5 109.5,-366.5 29.5,-366.5"/>
<polygon fill="#666666" stroke="#666666" points="29.5,-336.5 29.5,-336.5 41.5,-336.5 41.5,-336.5 29.5,-336.5"/>
<polygon fill="#666666" stroke="#666666" points="41.5,-336.5 41.5,-336.5 109.5,-336.5 109.5,-336.5 41.5,-336.5"/>
<polygon fill="none" stroke="#666666" points="29.5,-319.5 29.5,-383.5 109.5,-383.5 109.5,-319.5 29.5,-319.5"/>
</a>
</g>
</g>
<!-- Node3&#45;&gt;Node2 -->
<g id="edge2_Node000002_Node000003" class="edge">
<title>Node3&#45;&gt;Node2</title>
<g id="a_edge2_Node000002_Node000003"><a xlink:title=" ">
<path fill="none" stroke="#63b8ff" d="M47.69,-319.52C43.19,-311.56 39.11,-302.76 36.75,-294 34.8,-286.76 35.05,-279.12 36.54,-271.72"/>
<polygon fill="none" stroke="#63b8ff" points="36.58,-271.58 34.42,-264.7 39.94,-260.06 42.1,-266.94 36.58,-271.58"/>
</a>
</g>
<text text-anchor="middle" x="54.38" y="-284.5" font-family="Helvetica,sans-Serif" font-size="10.00" fill="grey"> +layout</text>
</g>
<!-- Node5 -->
<g id="Node000005" class="node">
<title>Node5</title>
<g id="a_Node000005"><a xlink:href="structTTL__const__int__uchar__tensor__t.html" target="_top" xlink:title=" ">
<polygon fill="white" stroke="none" points="235.5,-264.75 133.5,-264.75 133.5,-189.75 235.5,-189.75 235.5,-264.75"/>
<text text-anchor="start" x="138.38" y="-251.25" font-family="Helvetica,sans-Serif" font-size="10.00">TTL_const_int_uchar</text>
<text text-anchor="start" x="164.25" y="-240" font-family="Helvetica,sans-Serif" font-size="10.00">_tensor_t</text>
<text text-anchor="start" x="147.5" y="-225.25" font-family="Helvetica,sans-Serif" font-size="10.00">+</text>
<text text-anchor="start" x="167.5" y="-225.25" font-family="Helvetica,sans-Serif" font-size="10.00">base</text>
<text text-anchor="start" x="147.5" y="-210.25" font-family="Helvetica,sans-Serif" font-size="10.00">+</text>
<text text-anchor="start" x="167.5" y="-210.25" font-family="Helvetica,sans-Serif" font-size="10.00">elem_size</text>
<text text-anchor="start" x="183" y="-195.25" font-family="Helvetica,sans-Serif" font-size="10.00"> </text>
<polygon fill="#666666" stroke="#666666" points="133.5,-236.75 133.5,-236.75 235.5,-236.75 235.5,-236.75 133.5,-236.75"/>
<polygon fill="#666666" stroke="#666666" points="133.5,-206.75 133.5,-206.75 165.5,-206.75 165.5,-206.75 133.5,-206.75"/>
<polygon fill="#666666" stroke="#666666" points="165.5,-206.75 165.5,-206.75 235.5,-206.75 235.5,-206.75 165.5,-206.75"/>
<polygon fill="none" stroke="#666666" points="133.5,-189.75 133.5,-264.75 235.5,-264.75 235.5,-189.75 133.5,-189.75"/>
</a>
</g>
</g>
<!-- Node3&#45;&gt;Node5 -->
<g id="edge5_Node000005_Node000003" class="edge">
<title>Node3&#45;&gt;Node5</title>
<g id="a_edge5_Node000005_Node000003"><a xlink:title=" ">
<path fill="none" stroke="#63b8ff" d="M73.34,-319.68C76.19,-307.12 81.14,-293.15 89.75,-282.75 98.85,-271.76 106.2,-272.42 121.93,-265.44"/>
<polygon fill="none" stroke="#63b8ff" points="122.06,-265.38 125.61,-259.1 132.77,-259.96 129.22,-266.24 122.06,-265.38"/>
</a>
</g>
<text text-anchor="middle" x="106.38" y="-284.5" font-family="Helvetica,sans-Serif" font-size="10.00" fill="grey"> +layout</text>
</g>
<!-- Node4 -->
<g id="Node000004" class="node">
<title>Node4</title>
<g id="a_Node000004"><a xlink:href="structTTL__shape__t.html" target="_top" xlink:title="Description of a Shape.">
<polygon fill="white" stroke="none" points="206,-391 139,-391 139,-312 206,-312 206,-391"/>
<text text-anchor="start" x="143.62" y="-377.5" font-family="Helvetica,sans-Serif" font-size="10.00">TTL_shape_t</text>
<text text-anchor="start" x="148.5" y="-362.5" font-family="Helvetica,sans-Serif" font-size="10.00">+</text>
<text text-anchor="start" x="164" y="-362.5" font-family="Helvetica,sans-Serif" font-size="10.00">width</text>
<text text-anchor="start" x="148.5" y="-347.5" font-family="Helvetica,sans-Serif" font-size="10.00">+</text>
<text text-anchor="start" x="164" y="-347.5" font-family="Helvetica,sans-Serif" font-size="10.00">height</text>
<text text-anchor="start" x="148.5" y="-332.5" font-family="Helvetica,sans-Serif" font-size="10.00">+</text>
<text text-anchor="start" x="164" y="-332.5" font-family="Helvetica,sans-Serif" font-size="10.00">depth</text>
<text text-anchor="start" x="171" y="-317.5" font-family="Helvetica,sans-Serif" font-size="10.00"> </text>
<polygon fill="#666666" stroke="#666666" points="139,-374 139,-374 206,-374 206,-374 139,-374"/>
<polygon fill="#666666" stroke="#666666" points="139,-329 139,-329 162,-329 162,-329 139,-329"/>
<polygon fill="#666666" stroke="#666666" points="162,-329 162,-329 206,-329 206,-329 162,-329"/>
<polygon fill="none" stroke="#666666" points="139,-312 139,-391 206,-391 206,-312 139,-312"/>
</a>
</g>
</g>
<!-- Node4&#45;&gt;Node2 -->
<g id="edge3_Node000002_Node000004" class="edge">
<title>Node4&#45;&gt;Node2</title>
<g id="a_edge3_Node000002_Node000004"><a xlink:title=" ">
<path fill="none" stroke="#63b8ff" d="M150.25,-312.33C143.55,-302.22 135.76,-291.65 127.5,-282.75 122.53,-277.4 117.01,-272.16 111.3,-267.17"/>
<polygon fill="none" stroke="#63b8ff" points="111.48,-267.33 104.31,-266.55 102.27,-259.63 109.44,-260.41 111.48,-267.33"/>
</a>
</g>
<text text-anchor="middle" x="152.75" y="-284.5" font-family="Helvetica,sans-Serif" font-size="10.00" fill="grey"> +shape</text>
</g>
<!-- Node4&#45;&gt;Node5 -->
<g id="edge6_Node000005_Node000004" class="edge">
<title>Node4&#45;&gt;Node5</title>
<g id="a_edge6_Node000005_Node000004"><a xlink:title=" ">
<path fill="none" stroke="#63b8ff" d="M182.56,-312.1C183.78,-306.08 184.83,-299.9 185.5,-294 186.11,-288.64 186.46,-283.02 186.62,-277.42"/>
<polygon fill="none" stroke="#63b8ff" points="186.62,-277.41 182.67,-271.38 186.71,-265.41 190.67,-271.43 186.62,-277.41"/>
</a>
</g>
<text text-anchor="middle" x="202.75" y="-284.5" font-family="Helvetica,sans-Serif" font-size="10.00" fill="grey"> +shape</text>
</g>
<!-- Node5&#45;&gt;Node1 -->
<g id="edge4_Node000001_Node000005" class="edge">
<title>Node5&#45;&gt;Node1</title>
<g id="a_edge4_Node000001_Node000005"><a xlink:title=" ">
<path fill="none" stroke="#63b8ff" d="M172.37,-189.98C166.86,-173.96 160.1,-154.95 153.5,-138 152.7,-135.95 151.88,-133.87 151.05,-131.78"/>
<polygon fill="none" stroke="#63b8ff" points="150.99,-131.64 145.03,-127.59 146.47,-120.52 152.44,-124.58 150.99,-131.64"/>
</a>
</g>
<text text-anchor="middle" x="200.88" y="-151" font-family="Helvetica,sans-Serif" font-size="10.00" fill="grey"> +to_export_from</text>
</g>
</g>
</svg>
