<?xml version="1.0" encoding="UTF-8" standalone="no"?>
<!DOCTYPE svg PUBLIC "-//W3C//DTD SVG 1.1//EN"
 "http://www.w3.org/Graphics/SVG/1.1/DTD/svg11.dtd">
<!-- Generated by graphviz version 12.0.0 (20240704.0754)
 -->
<!-- Title: TTL_import_double_const_uchar_tensor_buffering_t Pages: 1 -->
<svg width="257pt" height="373pt"
 viewBox="0.00 0.00 256.50 372.75" xmlns="http://www.w3.org/2000/svg" xmlns:xlink="http://www.w3.org/1999/xlink">
<g id="graph0" class="graph" transform="scale(1 1) rotate(0) translate(4 368.75)">
<title>TTL_import_double_const_uchar_tensor_buffering_t</title>
<!-- Node1 -->
<g id="Node000001" class="node">
<title>Node1</title>
<g id="a_Node000001"><a xlink:title="Data required to perform double buffer pipelining.">
<polygon fill="#999999" stroke="none" points="188.5,-105 65.5,-105 65.5,0 188.5,0 188.5,-105"/>
<text text-anchor="start" x="70.38" y="-91.5" font-family="Helvetica,sans-Serif" font-size="10.00">TTL_import_double_const</text>
<text text-anchor="start" x="71.12" y="-80.25" font-family="Helvetica,sans-Serif" font-size="10.00">_uchar_tensor_buffering_t</text>
<text text-anchor="start" x="86.5" y="-65.5" font-family="Helvetica,sans-Serif" font-size="10.00">+</text>
<text text-anchor="start" x="113.5" y="-65.5" font-family="Helvetica,sans-Serif" font-size="10.00">index</text>
<text text-anchor="start" x="86.5" y="-50.5" font-family="Helvetica,sans-Serif" font-size="10.00">+</text>
<text text-anchor="start" x="113.5" y="-50.5" font-family="Helvetica,sans-Serif" font-size="10.00">int_base</text>
<text text-anchor="start" x="86.5" y="-35.5" font-family="Helvetica,sans-Serif" font-size="10.00">+</text>
<text text-anchor="start" x="113.5" y="-35.5" font-family="Helvetica,sans-Serif" font-size="10.00">common</text>
<text text-anchor="start" x="86.5" y="-20.5" font-family="Helvetica,sans-Serif" font-size="10.00">+</text>
<text text-anchor="start" x="113.5" y="-20.5" font-family="Helvetica,sans-Serif" font-size="10.00">event</text>
<text text-anchor="start" x="125.5" y="-5.5" font-family="Helvetica,sans-Serif" font-size="10.00"> </text>
<polygon fill="#666666" stroke="#666666" points="65.5,-77 65.5,-77 188.5,-77 188.5,-77 65.5,-77"/>
<polygon fill="#666666" stroke="#666666" points="65.5,-17 65.5,-17 111.5,-17 111.5,-17 65.5,-17"/>
<polygon fill="#666666" stroke="#666666" points="111.5,-17 111.5,-17 188.5,-17 188.5,-17 111.5,-17"/>
<polygon fill="none" stroke="#666666" points="65.5,0 65.5,-105 188.5,-105 188.5,0 65.5,0"/>
</a>
</g>
</g>
<!-- Node2 -->
<g id="Node000002" class="node">
<title>Node2</title>
<g id="a_Node000002"><a xlink:href="structTTL__const__ext__uchar__tensor__t.html" target="_top" xlink:title=" ">
<polygon fill="white" stroke="none" points="131,-238.5 27,-238.5 27,-163.5 131,-163.5 131,-238.5"/>
<text text-anchor="start" x="31.75" y="-225" font-family="Helvetica,sans-Serif" font-size="10.00">TTL_const_ext_uchar</text>
<text text-anchor="start" x="58.75" y="-213.75" font-family="Helvetica,sans-Serif" font-size="10.00">_tensor_t</text>
<text text-anchor="start" x="41.5" y="-199" font-family="Helvetica,sans-Serif" font-size="10.00">+</text>
<text text-anchor="start" x="62" y="-199" font-family="Helvetica,sans-Serif" font-size="10.00">base</text>
<text text-anchor="start" x="41.5" y="-184" font-family="Helvetica,sans-Serif" font-size="10.00">+</text>
<text text-anchor="start" x="62" y="-184" font-family="Helvetica,sans-Serif" font-size="10.00">elem_size</text>
<text text-anchor="start" x="77.5" y="-169" font-family="Helvetica,sans-Serif" font-size="10.00"> </text>
<polygon fill="#666666" stroke="#666666" points="27,-210.5 27,-210.5 131,-210.5 131,-210.5 27,-210.5"/>
<polygon fill="#666666" stroke="#666666" points="27,-180.5 27,-180.5 60,-180.5 60,-180.5 27,-180.5"/>
<polygon fill="#666666" stroke="#666666" points="60,-180.5 60,-180.5 131,-180.5 131,-180.5 60,-180.5"/>
<polygon fill="none" stroke="#666666" points="27,-163.5 27,-238.5 131,-238.5 131,-163.5 27,-163.5"/>
</a>
</g>
</g>
<!-- Node2&#45;&gt;Node1 -->
<g id="edge1_Node000001_Node000002" class="edge">
<title>Node2&#45;&gt;Node1</title>
<g id="a_edge1_Node000001_Node000002"><a xlink:title=" ">
<path fill="none" stroke="#63b8ff" d="M77.27,-163.67C77.62,-150.59 79.14,-135.88 83.25,-123 83.92,-120.9 84.67,-118.8 85.48,-116.7"/>
<polygon fill="none" stroke="#63b8ff" points="85.52,-116.62 84.33,-109.51 90.43,-105.68 91.62,-112.79 85.52,-116.62"/>
</a>
</g>
<text text-anchor="middle" x="117.88" y="-136" font-family="Helvetica,sans-Serif" font-size="10.00" fill="grey"> +ext_tensor_in</text>
<text text-anchor="middle" x="117.88" y="-124.75" font-family="Helvetica,sans-Serif" font-size="10.00" fill="grey">+ext_tensor_out</text>
</g>
<!-- Node3 -->
<g id="Node000003" class="node">
<title>Node3</title>
<g id="a_Node000003"><a xlink:href="structTTL__layout__t.html" target="_top" xlink:title="Description of a Tensor layout in memory.">
<polygon fill="white" stroke="none" points="80,-357.25 0,-357.25 0,-293.25 80,-293.25 80,-357.25"/>
<text text-anchor="start" x="11.5" y="-343.75" font-family="Helvetica,sans-Serif" font-size="10.00">TTL_layout_t</text>
<text text-anchor="start" x="4" y="-328.75" font-family="Helvetica,sans-Serif" font-size="10.00">+</text>
<text text-anchor="start" x="14" y="-328.75" font-family="Helvetica,sans-Serif" font-size="10.00">row_spacing</text>
<text text-anchor="start" x="4" y="-313.75" font-family="Helvetica,sans-Serif" font-size="10.00">+</text>
<text text-anchor="start" x="14" y="-313.75" font-family="Helvetica,sans-Serif" font-size="10.00">plane_spacing</text>
<text text-anchor="start" x="38.5" y="-298.75" font-family="Helvetica,sans-Serif" font-size="10.00"> </text>
<polygon fill="#666666" stroke="#666666" points="0,-340.25 0,-340.25 80,-340.25 80,-340.25 0,-340.25"/>
<polygon fill="#666666" stroke="#666666" points="0,-310.25 0,-310.25 12,-310.25 12,-310.25 0,-310.25"/>
<polygon fill="#666666" stroke="#666666" points="12,-310.25 12,-310.25 80,-310.25 80,-310.25 12,-310.25"/>
<polygon fill="none" stroke="#666666" points="0,-293.25 0,-357.25 80,-357.25 80,-293.25 0,-293.25"/>
</a>
</g>
</g>
<!-- Node3&#45;&gt;Node2 -->
<g id="edge2_Node000002_Node000003" class="edge">
<title>Node3&#45;&gt;Node2</title>
<g id="a_edge2_Node000002_Node000003"><a xlink:title=" ">
<path fill="none" stroke="#63b8ff" d="M37.45,-293.27C37.4,-281.51 38.48,-268.14 42.25,-256.5 42.97,-254.28 43.81,-252.06 44.75,-249.86"/>
<polygon fill="none" stroke="#63b8ff" points="44.73,-249.9 43.86,-242.74 50.13,-239.18 51,-246.34 44.73,-249.9"/>
</a>
</g>
<text text-anchor="middle" x="58.88" y="-258.25" font-family="Helvetica,sans-Serif" font-size="10.00" fill="grey"> +layout</text>
</g>
<!-- Node4 -->
<g id="Node000004" class="node">
<title>Node4</title>
<g id="a_Node000004"><a xlink:href="structTTL__shape__t.html" target="_top" xlink:title="Description of a Shape.">
<polygon fill="white" stroke="none" points="165.5,-364.75 98.5,-364.75 98.5,-285.75 165.5,-285.75 165.5,-364.75"/>
<text text-anchor="start" x="103.12" y="-351.25" font-family="Helvetica,sans-Serif" font-size="10.00">TTL_shape_t</text>
<text text-anchor="start" x="108" y="-336.25" font-family="Helvetica,sans-Serif" font-size="10.00">+</text>
<text text-anchor="start" x="123.5" y="-336.25" font-family="Helvetica,sans-Serif" font-size="10.00">width</text>
<text text-anchor="start" x="108" y="-321.25" font-family="Helvetica,sans-Serif" font-size="10.00">+</text>
<text text-anchor="start" x="123.5" y="-321.25" font-family="Helvetica,sans-Serif" font-size="10.00">height</text>
<text text-anchor="start" x="108" y="-306.25" font-family="Helvetica,sans-Serif" font-size="10.00">+</text>
<text text-anchor="start" x="123.5" y="-306.25" font-family="Helvetica,sans-Serif" font-size="10.00">depth</text>
<text text-anchor="start" x="130.5" y="-291.25" font-family="Helvetica,sans-Serif" font-size="10.00"> </text>
<polygon fill="#666666" stroke="#666666" points="98.5,-347.75 98.5,-347.75 165.5,-347.75 165.5,-347.75 98.5,-347.75"/>
<polygon fill="#666666" stroke="#666666" points="98.5,-302.75 98.5,-302.75 121.5,-302.75 121.5,-302.75 98.5,-302.75"/>
<polygon fill="#666666" stroke="#666666" points="121.5,-302.75 121.5,-302.75 165.5,-302.75 165.5,-302.75 121.5,-302.75"/>
<polygon fill="none" stroke="#666666" points="98.5,-285.75 98.5,-364.75 165.5,-364.75 165.5,-285.75 98.5,-285.75"/>
</a>
</g>
</g>
<!-- Node4&#45;&gt;Node2 -->
<g id="edge3_Node000002_Node000004" class="edge">
<title>Node4&#45;&gt;Node2</title>
<g id="a_edge3_Node000002_Node000004"><a xlink:title=" ">
<path fill="none" stroke="#63b8ff" d="M115.38,-285.9C110.41,-274.46 104.91,-261.76 99.72,-249.79"/>
<polygon fill="none" stroke="#63b8ff" points="99.79,-249.96 93.74,-246.05 95.02,-238.95 101.08,-242.87 99.79,-249.96"/>
</a>
</g>
<text text-anchor="middle" x="124.25" y="-258.25" font-family="Helvetica,sans-Serif" font-size="10.00" fill="grey"> +shape</text>
</g>
<!-- Node5 -->
<g id="Node000005" class="node">
<title>Node5</title>
<g id="a_Node000005"><a xlink:href="structTTL__tile__t.html" target="_top" xlink:title=" ">
<polygon fill="white" stroke="none" points="203,-225.5 149,-225.5 149,-176.5 203,-176.5 203,-225.5"/>
<text text-anchor="start" x="153.88" y="-212" font-family="Helvetica,sans-Serif" font-size="10.00">TTL_tile_t</text>
<text text-anchor="start" x="174.5" y="-197" font-family="Helvetica,sans-Serif" font-size="10.00"> </text>
<text text-anchor="start" x="174.5" y="-182" font-family="Helvetica,sans-Serif" font-size="10.00"> </text>
<polygon fill="#666666" stroke="#666666" points="149,-208.5 149,-208.5 203,-208.5 203,-208.5 149,-208.5"/>
<polygon fill="#666666" stroke="#666666" points="149,-193.5 149,-193.5 203,-193.5 203,-193.5 149,-193.5"/>
<polygon fill="none" stroke="#666666" points="149,-176.5 149,-225.5 203,-225.5 203,-176.5 149,-176.5"/>
</a>
</g>
</g>
<!-- Node4&#45;&gt;Node5 -->
<g id="edge5_Node000005_Node000004" class="edge">
<title>Node4&#45;&gt;Node5</title>
<g id="a_edge5_Node000005_Node000004"><a xlink:title=" ">
<path fill="none" stroke="#63b8ff" d="M145.13,-285.85C148.46,-276.25 152.07,-265.98 155.5,-256.5 157.76,-250.24 160.22,-243.6 162.61,-237.19"/>
<polygon fill="none" stroke="#63b8ff" points="162.55,-237.36 160.91,-230.34 166.77,-226.13 168.4,-233.16 162.55,-237.36"/>
</a>
</g>
<text text-anchor="middle" x="172.25" y="-258.25" font-family="Helvetica,sans-Serif" font-size="10.00" fill="grey"> +shape</text>
</g>
<!-- Node5&#45;&gt;Node1 -->
<g id="edge4_Node000001_Node000005" class="edge">
<title>Node5&#45;&gt;Node1</title>
<g id="a_edge4_Node000001_Node000005"><a xlink:title=" ">
<path fill="none" stroke="#63b8ff" d="M169.46,-176.62C165.07,-161.29 159,-140.85 153,-123 152.35,-121.08 151.69,-119.13 151.01,-117.16"/>
<polygon fill="none" stroke="#63b8ff" points="151,-117.14 145.23,-112.82 147,-105.83 152.77,-110.15 151,-117.14"/>
</a>
</g>
<text text-anchor="middle" x="181.5" y="-130.38" font-family="Helvetica,sans-Serif" font-size="10.00" fill="grey"> +prev_tile</text>
</g>
<!-- Node6 -->
<g id="Node000006" class="node">
<title>Node6</title>
<g id="a_Node000006"><a xlink:href="structTTL__offset__t.html" target="_top" xlink:title="Description of the 3D offset of an object.">
<polygon fill="white" stroke="none" points="248.5,-364.75 183.5,-364.75 183.5,-285.75 248.5,-285.75 248.5,-364.75"/>
<text text-anchor="start" x="188.25" y="-351.25" font-family="Helvetica,sans-Serif" font-size="10.00">TTL_offset_t</text>
<text text-anchor="start" x="198" y="-336.25" font-family="Helvetica,sans-Serif" font-size="10.00">+</text>
<text text-anchor="start" x="218.5" y="-336.25" font-family="Helvetica,sans-Serif" font-size="10.00">x</text>
<text text-anchor="start" x="198" y="-321.25" font-family="Helvetica,sans-Serif" font-size="10.00">+</text>
<text text-anchor="start" x="218.5" y="-321.25" font-family="Helvetica,sans-Serif" font-size="10.00">y</text>
<text text-anchor="start" x="198" y="-306.25" font-family="Helvetica,sans-Serif" font-size="10.00">+</text>
<text text-anchor="start" x="218.5" y="-306.25" font-family="Helvetica,sans-Serif" font-size="10.00">z</text>
<text text-anchor="start" x="214.5" y="-291.25" font-family="Helvetica,sans-Serif" font-size="10.00"> </text>
<polygon fill="#666666" stroke="#666666" points="183.5,-347.75 183.5,-347.75 248.5,-347.75 248.5,-347.75 183.5,-347.75"/>
<polygon fill="#666666" stroke="#666666" points="183.5,-302.75 183.5,-302.75 216.5,-302.75 216.5,-302.75 183.5,-302.75"/>
<polygon fill="#666666" stroke="#666666" points="216.5,-302.75 216.5,-302.75 248.5,-302.75 248.5,-302.75 216.5,-302.75"/>
<polygon fill="none" stroke="#666666" points="183.5,-285.75 183.5,-364.75 248.5,-364.75 248.5,-285.75 183.5,-285.75"/>
</a>
</g>
</g>
<!-- Node6&#45;&gt;Node5 -->
<g id="edge6_Node000005_Node000006" class="edge">
<title>Node6&#45;&gt;Node5</title>
<g id="a_edge6_Node000005_Node000006"><a xlink:title=" ">
<path fill="none" stroke="#63b8ff" d="M203.58,-285.9C200.46,-276.3 197.12,-266.02 194,-256.5 192.01,-250.43 189.89,-243.98 187.83,-237.72"/>
<polygon fill="none" stroke="#63b8ff" points="187.78,-237.58 182.1,-233.14 184.02,-226.19 189.7,-230.63 187.78,-237.58"/>
</a>
</g>
<text text-anchor="middle" x="213.12" y="-258.25" font-family="Helvetica,sans-Serif" font-size="10.00" fill="grey"> +offset</text>
</g>
</g>
</svg>
