<?xml version="1.0" encoding="UTF-8" standalone="no"?>
<!DOCTYPE svg PUBLIC "-//W3C//DTD SVG 1.1//EN"
 "http://www.w3.org/Graphics/SVG/1.1/DTD/svg11.dtd">
<!-- Generated by graphviz version 12.2.1 (20241206.2353)
 -->
<!-- Title: TTL_io_uchar_tensor_t Pages: 1 -->
<svg width="272pt" height="421pt"
 viewBox="0.00 0.00 271.50 421.00" xmlns="http://www.w3.org/2000/svg" xmlns:xlink="http://www.w3.org/1999/xlink">
<g id="graph0" class="graph" transform="scale(1 1) rotate(0) translate(4 417)">
<title>TTL_io_uchar_tensor_t</title>
<!-- Node1 -->
<g id="Node000001" class="node">
<title>Node1</title>
<g id="a_Node000001"><a xlink:title="Describes a pair of internal Tensors after an operation.">
<polygon fill="#999999" stroke="none" points="202,-49.75 93.5,-49.75 93.5,0 202,0 202,-49.75"/>
<text text-anchor="start" x="97.5" y="-36.25" font-family="Helvetica,sans-Serif" font-size="10.00">TTL_io_uchar_tensor_t</text>
<text text-anchor="start" x="146.25" y="-21" font-family="Helvetica,sans-Serif" font-size="10.00"> </text>
<text text-anchor="start" x="146.25" y="-5.75" font-family="Helvetica,sans-Serif" font-size="10.00"> </text>
<polygon fill="#666666" stroke="#666666" points="93.5,-32.5 93.5,-32.5 202,-32.5 202,-32.5 93.5,-32.5"/>
<polygon fill="#666666" stroke="#666666" points="93.5,-17.25 93.5,-17.25 202,-17.25 202,-17.25 93.5,-17.25"/>
<polygon fill="none" stroke="#666666" points="93.5,0 93.5,-49.75 202,-49.75 202,0 93.5,0"/>
</a>
</g>
</g>
<!-- Node2 -->
<g id="Node000002" class="node">
<title>Node2</title>
<g id="a_Node000002"><a xlink:href="structTTL__int__uchar__sub__tensor__t.html" target="_top" xlink:title="const and non&#45;const sub tensors in the appropriate address space">
<polygon fill="white" stroke="none" points="214,-158 81.5,-158 81.5,-108.25 214,-108.25 214,-158"/>
<text text-anchor="start" x="85.5" y="-144.5" font-family="Helvetica,sans-Serif" font-size="10.00">TTL_int_uchar_sub_tensor_t</text>
<text text-anchor="start" x="108.31" y="-129.25" font-family="Helvetica,sans-Serif" font-size="10.00">+</text>
<text text-anchor="start" x="141.12" y="-129.25" font-family="Helvetica,sans-Serif" font-size="10.00">origin</text>
<text text-anchor="start" x="146.25" y="-114" font-family="Helvetica,sans-Serif" font-size="10.00"> </text>
<polygon fill="#666666" stroke="#666666" points="81.5,-140.75 81.5,-140.75 214,-140.75 214,-140.75 81.5,-140.75"/>
<polygon fill="#666666" stroke="#666666" points="81.5,-125.5 81.5,-125.5 139.12,-125.5 139.12,-125.5 81.5,-125.5"/>
<polygon fill="#666666" stroke="#666666" points="139.12,-125.5 139.12,-125.5 214,-125.5 214,-125.5 139.12,-125.5"/>
<polygon fill="none" stroke="#666666" points="81.5,-108.25 81.5,-158 214,-158 214,-108.25 81.5,-108.25"/>
</a>
</g>
</g>
<!-- Node2&#45;&gt;Node1 -->
<g id="edge1_Node000001_Node000002" class="edge">
<title>Node2&#45;&gt;Node1</title>
<g id="a_edge1_Node000001_Node000002"><a xlink:title=" ">
<path fill="none" stroke="#63b8ff" d="M147.75,-108.28C147.75,-94.75 147.75,-77.53 147.75,-62.33"/>
<polygon fill="none" stroke="#63b8ff" points="147.75,-62.54 143.75,-56.54 147.75,-50.54 151.75,-56.54 147.75,-62.54"/>
</a>
</g>
<text text-anchor="middle" x="183" y="-80.75" font-family="Helvetica,sans-Serif" font-size="10.00" fill="grey"> +imported_to</text>
<text text-anchor="middle" x="183" y="-69.5" font-family="Helvetica,sans-Serif" font-size="10.00" fill="grey">+to_export_from</text>
</g>
<!-- Node3 -->
<g id="Node000003" class="node">
<title>Node3</title>
<g id="a_Node000003"><a xlink:href="structTTL__int__uchar__tensor__t.html" target="_top" xlink:title="const and non&#45;const tensors in the appropriate address space">
<polygon fill="white" stroke="none" points="111.5,-277.88 0,-277.88 0,-212.88 111.5,-212.88 111.5,-277.88"/>
<text text-anchor="start" x="4" y="-264.38" font-family="Helvetica,sans-Serif" font-size="10.00">TTL_int_uchar_tensor_t</text>
<text text-anchor="start" x="16.5" y="-249.12" font-family="Helvetica,sans-Serif" font-size="10.00">+</text>
<text text-anchor="start" x="39" y="-249.12" font-family="Helvetica,sans-Serif" font-size="10.00">base</text>
<text text-anchor="start" x="16.5" y="-233.88" font-family="Helvetica,sans-Serif" font-size="10.00">+</text>
<text text-anchor="start" x="39" y="-233.88" font-family="Helvetica,sans-Serif" font-size="10.00">elem_size</text>
<text text-anchor="start" x="54.25" y="-218.62" font-family="Helvetica,sans-Serif" font-size="10.00"> </text>
<polygon fill="#666666" stroke="#666666" points="0,-260.62 0,-260.62 111.5,-260.62 111.5,-260.62 0,-260.62"/>
<polygon fill="#666666" stroke="#666666" points="0,-230.12 0,-230.12 37,-230.12 37,-230.12 0,-230.12"/>
<polygon fill="#666666" stroke="#666666" points="37,-230.12 37,-230.12 111.5,-230.12 111.5,-230.12 37,-230.12"/>
<polygon fill="none" stroke="#666666" points="0,-212.88 0,-277.88 111.5,-277.88 111.5,-212.88 0,-212.88"/>
</a>
</g>
</g>
<!-- Node3&#45;&gt;Node2 -->
<g id="edge2_Node000002_Node000003" class="edge">
<title>Node3&#45;&gt;Node2</title>
<g id="a_edge2_Node000002_Node000003"><a xlink:title=" ">
<path fill="none" stroke="#63b8ff" d="M72.59,-213.03C79.8,-200.88 88.8,-187.23 98.5,-176 101.21,-172.86 104.17,-169.75 107.25,-166.73"/>
<polygon fill="none" stroke="#63b8ff" points="107.22,-166.75 108.92,-159.74 116.04,-158.61 114.35,-165.62 107.22,-166.75"/>
</a>
</g>
<text text-anchor="middle" x="116.12" y="-177.75" font-family="Helvetica,sans-Serif" font-size="10.00" fill="grey"> +tensor</text>
</g>
<!-- Node4 -->
<g id="Node000004" class="node">
<title>Node4</title>
<g id="a_Node000004"><a xlink:href="structTTL__layout__t.html" target="_top" xlink:title="Description of a Tensor layout in memory.">
<polygon fill="white" stroke="none" points="80.88,-405.38 0.62,-405.38 0.62,-340.38 80.88,-340.38 80.88,-405.38"/>
<text text-anchor="start" x="12.25" y="-391.88" font-family="Helvetica,sans-Serif" font-size="10.00">TTL_layout_t</text>
<text text-anchor="start" x="4.62" y="-376.62" font-family="Helvetica,sans-Serif" font-size="10.00">+</text>
<text text-anchor="start" x="14.62" y="-376.62" font-family="Helvetica,sans-Serif" font-size="10.00">row_spacing</text>
<text text-anchor="start" x="4.62" y="-361.38" font-family="Helvetica,sans-Serif" font-size="10.00">+</text>
<text text-anchor="start" x="14.62" y="-361.38" font-family="Helvetica,sans-Serif" font-size="10.00">plane_spacing</text>
<text text-anchor="start" x="39.25" y="-346.12" font-family="Helvetica,sans-Serif" font-size="10.00"> </text>
<polygon fill="#666666" stroke="#666666" points="0.62,-388.12 0.62,-388.12 80.88,-388.12 80.88,-388.12 0.62,-388.12"/>
<polygon fill="#666666" stroke="#666666" points="0.62,-357.62 0.62,-357.62 12.62,-357.62 12.62,-357.62 0.62,-357.62"/>
<polygon fill="#666666" stroke="#666666" points="12.62,-357.62 12.62,-357.62 80.88,-357.62 80.88,-357.62 12.62,-357.62"/>
<polygon fill="none" stroke="#666666" points="0.62,-340.38 0.62,-405.38 80.88,-405.38 80.88,-340.38 0.62,-340.38"/>
</a>
</g>
</g>
<!-- Node4&#45;&gt;Node3 -->
<g id="edge3_Node000003_Node000004" class="edge">
<title>Node4&#45;&gt;Node3</title>
<g id="a_edge3_Node000003_Node000004"><a xlink:title=" ">
<path fill="none" stroke="#63b8ff" d="M39.89,-340.46C39.95,-328.81 40.46,-315.51 42,-303.5 42.55,-299.17 43.31,-294.69 44.18,-290.23"/>
<polygon fill="none" stroke="#63b8ff" points="44.12,-290.48 41.49,-283.76 46.68,-278.75 49.31,-285.47 44.12,-290.48"/>
</a>
</g>
<text text-anchor="middle" x="58.88" y="-305.25" font-family="Helvetica,sans-Serif" font-size="10.00" fill="grey"> +layout</text>
</g>
<!-- Node5 -->
<g id="Node000005" class="node">
<title>Node5</title>
<g id="a_Node000005"><a xlink:href="structTTL__shape__t.html" target="_top" xlink:title="Description of a Shape.">
<polygon fill="white" stroke="none" points="172.62,-413 106.88,-413 106.88,-332.75 172.62,-332.75 172.62,-413"/>
<text text-anchor="start" x="110.88" y="-399.5" font-family="Helvetica,sans-Serif" font-size="10.00">TTL_shape_t</text>
<text text-anchor="start" x="116.25" y="-384.25" font-family="Helvetica,sans-Serif" font-size="10.00">+</text>
<text text-anchor="start" x="131.62" y="-384.25" font-family="Helvetica,sans-Serif" font-size="10.00">width</text>
<text text-anchor="start" x="116.25" y="-369" font-family="Helvetica,sans-Serif" font-size="10.00">+</text>
<text text-anchor="start" x="131.62" y="-369" font-family="Helvetica,sans-Serif" font-size="10.00">height</text>
<text text-anchor="start" x="116.25" y="-353.75" font-family="Helvetica,sans-Serif" font-size="10.00">+</text>
<text text-anchor="start" x="131.62" y="-353.75" font-family="Helvetica,sans-Serif" font-size="10.00">depth</text>
<text text-anchor="start" x="138.25" y="-338.5" font-family="Helvetica,sans-Serif" font-size="10.00"> </text>
<polygon fill="#666666" stroke="#666666" points="106.88,-395.75 106.88,-395.75 172.62,-395.75 172.62,-395.75 106.88,-395.75"/>
<polygon fill="#666666" stroke="#666666" points="106.88,-350 106.88,-350 129.62,-350 129.62,-350 106.88,-350"/>
<polygon fill="#666666" stroke="#666666" points="129.62,-350 129.62,-350 172.62,-350 172.62,-350 129.62,-350"/>
<polygon fill="none" stroke="#666666" points="106.88,-332.75 106.88,-413 172.62,-413 172.62,-332.75 106.88,-332.75"/>
</a>
</g>
</g>
<!-- Node5&#45;&gt;Node2 -->
<g id="edge5_Node000002_Node000005" class="edge">
<title>Node5&#45;&gt;Node2</title>
<g id="a_edge5_Node000002_Node000005"><a xlink:title=" ">
<path fill="none" stroke="#63b8ff" d="M141.06,-332.88C142.57,-287.97 145.04,-214.75 146.52,-170.83"/>
<polygon fill="none" stroke="#63b8ff" points="146.51,-170.83 142.72,-164.7 146.92,-158.83 150.71,-164.97 146.51,-170.83"/>
</a>
</g>
<text text-anchor="middle" x="162.56" y="-241.5" font-family="Helvetica,sans-Serif" font-size="10.00" fill="grey"> +shape</text>
</g>
<!-- Node5&#45;&gt;Node3 -->
<g id="edge4_Node000003_Node000005" class="edge">
<title>Node5&#45;&gt;Node3</title>
<g id="a_edge4_Node000003_Node000005"><a xlink:title=" ">
<path fill="none" stroke="#63b8ff" d="M111.82,-333.03C107.56,-326.95 103.25,-320.7 99.25,-314.75 93.57,-306.29 87.62,-297.15 82.01,-288.38"/>
<polygon fill="none" stroke="#63b8ff" points="82.05,-288.45 75.46,-285.53 75.61,-278.32 82.21,-281.24 82.05,-288.45"/>
</a>
</g>
<text text-anchor="middle" x="116.5" y="-305.25" font-family="Helvetica,sans-Serif" font-size="10.00" fill="grey"> +shape</text>
</g>
<!-- Node6 -->
<g id="Node000006" class="node">
<title>Node6</title>
<g id="a_Node000006"><a xlink:href="structTTL__offset__t.html" target="_top" xlink:title="Description of the 3D offset of an object.">
<polygon fill="white" stroke="none" points="263.5,-285.5 200,-285.5 200,-205.25 263.5,-205.25 263.5,-285.5"/>
<text text-anchor="start" x="204" y="-272" font-family="Helvetica,sans-Serif" font-size="10.00">TTL_offset_t</text>
<text text-anchor="start" x="214.25" y="-256.75" font-family="Helvetica,sans-Serif" font-size="10.00">+</text>
<text text-anchor="start" x="234.5" y="-256.75" font-family="Helvetica,sans-Serif" font-size="10.00">x</text>
<text text-anchor="start" x="214.25" y="-241.5" font-family="Helvetica,sans-Serif" font-size="10.00">+</text>
<text text-anchor="start" x="234.5" y="-241.5" font-family="Helvetica,sans-Serif" font-size="10.00">y</text>
<text text-anchor="start" x="214.25" y="-226.25" font-family="Helvetica,sans-Serif" font-size="10.00">+</text>
<text text-anchor="start" x="234.5" y="-226.25" font-family="Helvetica,sans-Serif" font-size="10.00">z</text>
<text text-anchor="start" x="230.25" y="-211" font-family="Helvetica,sans-Serif" font-size="10.00"> </text>
<polygon fill="#666666" stroke="#666666" points="200,-268.25 200,-268.25 263.5,-268.25 263.5,-268.25 200,-268.25"/>
<polygon fill="#666666" stroke="#666666" points="200,-222.5 200,-222.5 232.5,-222.5 232.5,-222.5 200,-222.5"/>
<polygon fill="#666666" stroke="#666666" points="232.5,-222.5 232.5,-222.5 263.5,-222.5 263.5,-222.5 232.5,-222.5"/>
<polygon fill="none" stroke="#666666" points="200,-205.25 200,-285.5 263.5,-285.5 263.5,-205.25 200,-205.25"/>
</a>
</g>
</g>
<!-- Node6&#45;&gt;Node2 -->
<g id="edge6_Node000002_Node000006" class="edge">
<title>Node6&#45;&gt;Node2</title>
<g id="a_edge6_Node000002_Node000006"><a xlink:title=" ">
<path fill="none" stroke="#63b8ff" d="M202.13,-205.5C192.88,-193.35 182.74,-180.05 173.75,-168.25"/>
<polygon fill="none" stroke="#63b8ff" points="173.69,-168.17 166.87,-165.83 166.42,-158.63 173.24,-160.98 173.69,-168.17"/>
</a>
</g>
<text text-anchor="middle" x="213.86" y="-177.75" font-family="Helvetica,sans-Serif" font-size="10.00" fill="grey"> +sub_offset</text>
</g>
</g>
</svg>
