<?xml version="1.0" encoding="UTF-8" standalone="no"?>
<!DOCTYPE svg PUBLIC "-//W3C//DTD SVG 1.1//EN"
 "http://www.w3.org/Graphics/SVG/1.1/DTD/svg11.dtd">
<!-- Generated by graphviz version 12.2.1 (20241206.2353)
 -->
<!-- Title: TTL_simplex_const_uint_tensor_buffering_t Pages: 1 -->
<svg width="452pt" height="482pt"
 viewBox="0.00 0.00 451.91 482.00" xmlns="http://www.w3.org/2000/svg" xmlns:xlink="http://www.w3.org/1999/xlink">
<g id="graph0" class="graph" transform="scale(1 1) rotate(0) translate(4 478)">
<title>TTL_simplex_const_uint_tensor_buffering_t</title>
<!-- Node1 -->
<g id="Node000001" class="node">
<title>Node1</title>
<g id="a_Node000001"><a xlink:title=" ">
<polygon fill="#999999" stroke="none" points="320,-122 205.5,-122 205.5,0 320,0 320,-122"/>
<text text-anchor="start" x="209.5" y="-108.5" font-family="Helvetica,sans-Serif" font-size="10.00">TTL_simplex_const_uint</text>
<text text-anchor="start" x="221.5" y="-97.25" font-family="Helvetica,sans-Serif" font-size="10.00">_tensor_buffering_t</text>
<text text-anchor="start" x="222.94" y="-82" font-family="Helvetica,sans-Serif" font-size="10.00">+</text>
<text text-anchor="start" x="246.38" y="-82" font-family="Helvetica,sans-Serif" font-size="10.00">index</text>
<text text-anchor="start" x="222.94" y="-66.75" font-family="Helvetica,sans-Serif" font-size="10.00">+</text>
<text text-anchor="start" x="246.38" y="-66.75" font-family="Helvetica,sans-Serif" font-size="10.00">int_base</text>
<text text-anchor="start" x="222.94" y="-51.5" font-family="Helvetica,sans-Serif" font-size="10.00">+</text>
<text text-anchor="start" x="246.38" y="-51.5" font-family="Helvetica,sans-Serif" font-size="10.00">common</text>
<text text-anchor="start" x="222.94" y="-36.25" font-family="Helvetica,sans-Serif" font-size="10.00">+</text>
<text text-anchor="start" x="246.38" y="-36.25" font-family="Helvetica,sans-Serif" font-size="10.00">event_in</text>
<text text-anchor="start" x="222.94" y="-21" font-family="Helvetica,sans-Serif" font-size="10.00">+</text>
<text text-anchor="start" x="246.38" y="-21" font-family="Helvetica,sans-Serif" font-size="10.00">event_out</text>
<text text-anchor="start" x="261.25" y="-5.75" font-family="Helvetica,sans-Serif" font-size="10.00"> </text>
<polygon fill="#666666" stroke="#666666" points="205.5,-93.5 205.5,-93.5 320,-93.5 320,-93.5 205.5,-93.5"/>
<polygon fill="#666666" stroke="#666666" points="205.5,-17.25 205.5,-17.25 244.38,-17.25 244.38,-17.25 205.5,-17.25"/>
<polygon fill="#666666" stroke="#666666" points="244.38,-17.25 244.38,-17.25 320,-17.25 320,-17.25 244.38,-17.25"/>
<polygon fill="none" stroke="#666666" points="205.5,0 205.5,-122 320,-122 320,0 205.5,0"/>
</a>
</g>
</g>
<!-- Node2 -->
<g id="Node000002" class="node">
<title>Node2</title>
<g id="a_Node000002"><a xlink:href="structTTL__ext__uint__tensor__t.html" target="_top" xlink:title="const and non&#45;const tensors in the appropriate address space">
<polygon fill="white" stroke="none" points="105.5,-338.88 0,-338.88 0,-273.88 105.5,-273.88 105.5,-338.88"/>
<text text-anchor="start" x="4" y="-325.38" font-family="Helvetica,sans-Serif" font-size="10.00">TTL_ext_uint_tensor_t</text>
<text text-anchor="start" x="15" y="-310.12" font-family="Helvetica,sans-Serif" font-size="10.00">+</text>
<text text-anchor="start" x="36" y="-310.12" font-family="Helvetica,sans-Serif" font-size="10.00">base</text>
<text text-anchor="start" x="15" y="-294.88" font-family="Helvetica,sans-Serif" font-size="10.00">+</text>
<text text-anchor="start" x="36" y="-294.88" font-family="Helvetica,sans-Serif" font-size="10.00">elem_size</text>
<text text-anchor="start" x="51.25" y="-279.62" font-family="Helvetica,sans-Serif" font-size="10.00"> </text>
<polygon fill="#666666" stroke="#666666" points="0,-321.62 0,-321.62 105.5,-321.62 105.5,-321.62 0,-321.62"/>
<polygon fill="#666666" stroke="#666666" points="0,-291.12 0,-291.12 34,-291.12 34,-291.12 0,-291.12"/>
<polygon fill="#666666" stroke="#666666" points="34,-291.12 34,-291.12 105.5,-291.12 105.5,-291.12 34,-291.12"/>
<polygon fill="none" stroke="#666666" points="0,-273.88 0,-338.88 105.5,-338.88 105.5,-273.88 0,-273.88"/>
</a>
</g>
</g>
<!-- Node2&#45;&gt;Node1 -->
<g id="edge1_Node000001_Node000002" class="edge">
<title>Node2&#45;&gt;Node1</title>
<g id="a_edge1_Node000001_Node000002"><a xlink:title=" ">
<path fill="none" stroke="#63b8ff" d="M63.96,-274.11C75.46,-244.9 95.42,-201.12 122,-169.25 142.66,-144.48 170.05,-121.98 195.18,-104.07"/>
<polygon fill="none" stroke="#63b8ff" points="195.19,-104.05 197.83,-97.34 205.04,-97.19 202.4,-103.9 195.19,-104.05"/>
</a>
</g>
<text text-anchor="middle" x="156.88" y="-195.88" font-family="Helvetica,sans-Serif" font-size="10.00" fill="grey"> +ext_tensor_in</text>
<text text-anchor="middle" x="156.88" y="-184.62" font-family="Helvetica,sans-Serif" font-size="10.00" fill="grey">+ext_tensor_out</text>
</g>
<!-- Node3 -->
<g id="Node000003" class="node">
<title>Node3</title>
<g id="a_Node000003"><a xlink:href="structTTL__layout__t.html" target="_top" xlink:title="Description of a Tensor layout in memory.">
<polygon fill="white" stroke="none" points="146.88,-466.38 66.62,-466.38 66.62,-401.38 146.88,-401.38 146.88,-466.38"/>
<text text-anchor="start" x="78.25" y="-452.88" font-family="Helvetica,sans-Serif" font-size="10.00">TTL_layout_t</text>
<text text-anchor="start" x="70.62" y="-437.62" font-family="Helvetica,sans-Serif" font-size="10.00">+</text>
<text text-anchor="start" x="80.62" y="-437.62" font-family="Helvetica,sans-Serif" font-size="10.00">row_spacing</text>
<text text-anchor="start" x="70.62" y="-422.38" font-family="Helvetica,sans-Serif" font-size="10.00">+</text>
<text text-anchor="start" x="80.62" y="-422.38" font-family="Helvetica,sans-Serif" font-size="10.00">plane_spacing</text>
<text text-anchor="start" x="105.25" y="-407.12" font-family="Helvetica,sans-Serif" font-size="10.00"> </text>
<polygon fill="#666666" stroke="#666666" points="66.62,-449.12 66.62,-449.12 146.88,-449.12 146.88,-449.12 66.62,-449.12"/>
<polygon fill="#666666" stroke="#666666" points="66.62,-418.62 66.62,-418.62 78.62,-418.62 78.62,-418.62 66.62,-418.62"/>
<polygon fill="#666666" stroke="#666666" points="78.62,-418.62 78.62,-418.62 146.88,-418.62 146.88,-418.62 78.62,-418.62"/>
<polygon fill="none" stroke="#666666" points="66.62,-401.38 66.62,-466.38 146.88,-466.38 146.88,-401.38 66.62,-401.38"/>
</a>
</g>
</g>
<!-- Node3&#45;&gt;Node2 -->
<g id="edge2_Node000002_Node000003" class="edge">
<title>Node3&#45;&gt;Node2</title>
<g id="a_edge2_Node000002_Node000003"><a xlink:title=" ">
<path fill="none" stroke="#63b8ff" d="M66.7,-406.89C56.77,-398.28 47.43,-387.77 42,-375.75 38.59,-368.2 37.8,-359.76 38.46,-351.46"/>
<polygon fill="none" stroke="#63b8ff" points="38.47,-351.41 35.48,-344.85 40.38,-339.56 43.37,-346.13 38.47,-351.41"/>
</a>
</g>
<text text-anchor="middle" x="58.88" y="-366.25" font-family="Helvetica,sans-Serif" font-size="10.00" fill="grey"> +layout</text>
</g>
<!-- Node8 -->
<g id="Node000008" class="node">
<title>Node8</title>
<g id="a_Node000008"><a xlink:href="structTTL__int__uint__tensor__t.html" target="_top" xlink:title="const and non&#45;const tensors in the appropriate address space">
<polygon fill="white" stroke="none" points="226.38,-338.88 123.12,-338.88 123.12,-273.88 226.38,-273.88 226.38,-338.88"/>
<text text-anchor="start" x="127.12" y="-325.38" font-family="Helvetica,sans-Serif" font-size="10.00">TTL_int_uint_tensor_t</text>
<text text-anchor="start" x="137.56" y="-310.12" font-family="Helvetica,sans-Serif" font-size="10.00">+</text>
<text text-anchor="start" x="158" y="-310.12" font-family="Helvetica,sans-Serif" font-size="10.00">base</text>
<text text-anchor="start" x="137.56" y="-294.88" font-family="Helvetica,sans-Serif" font-size="10.00">+</text>
<text text-anchor="start" x="158" y="-294.88" font-family="Helvetica,sans-Serif" font-size="10.00">elem_size</text>
<text text-anchor="start" x="173.25" y="-279.62" font-family="Helvetica,sans-Serif" font-size="10.00"> </text>
<polygon fill="#666666" stroke="#666666" points="123.12,-321.62 123.12,-321.62 226.38,-321.62 226.38,-321.62 123.12,-321.62"/>
<polygon fill="#666666" stroke="#666666" points="123.12,-291.12 123.12,-291.12 156,-291.12 156,-291.12 123.12,-291.12"/>
<polygon fill="#666666" stroke="#666666" points="156,-291.12 156,-291.12 226.38,-291.12 226.38,-291.12 156,-291.12"/>
<polygon fill="none" stroke="#666666" points="123.12,-273.88 123.12,-338.88 226.38,-338.88 226.38,-273.88 123.12,-273.88"/>
</a>
</g>
</g>
<!-- Node3&#45;&gt;Node8 -->
<g id="edge9_Node000008_Node000003" class="edge">
<title>Node3&#45;&gt;Node8</title>
<g id="a_edge9_Node000008_Node000003"><a xlink:title=" ">
<path fill="none" stroke="#63b8ff" d="M123.73,-401.53C132.17,-385.96 142.49,-366.91 151.64,-350.03"/>
<polygon fill="none" stroke="#63b8ff" points="151.6,-350.1 150.94,-342.92 157.32,-339.55 157.98,-346.73 151.6,-350.1"/>
</a>
</g>
<text text-anchor="middle" x="159.66" y="-366.25" font-family="Helvetica,sans-Serif" font-size="10.00" fill="grey"> +layout</text>
</g>
<!-- Node4 -->
<g id="Node000004" class="node">
<title>Node4</title>
<g id="a_Node000004"><a xlink:href="structTTL__shape__t.html" target="_top" xlink:title="Description of a Shape.">
<polygon fill="white" stroke="none" points="270.62,-474 204.88,-474 204.88,-393.75 270.62,-393.75 270.62,-474"/>
<text text-anchor="start" x="208.88" y="-460.5" font-family="Helvetica,sans-Serif" font-size="10.00">TTL_shape_t</text>
<text text-anchor="start" x="214.25" y="-445.25" font-family="Helvetica,sans-Serif" font-size="10.00">+</text>
<text text-anchor="start" x="229.62" y="-445.25" font-family="Helvetica,sans-Serif" font-size="10.00">width</text>
<text text-anchor="start" x="214.25" y="-430" font-family="Helvetica,sans-Serif" font-size="10.00">+</text>
<text text-anchor="start" x="229.62" y="-430" font-family="Helvetica,sans-Serif" font-size="10.00">height</text>
<text text-anchor="start" x="214.25" y="-414.75" font-family="Helvetica,sans-Serif" font-size="10.00">+</text>
<text text-anchor="start" x="229.62" y="-414.75" font-family="Helvetica,sans-Serif" font-size="10.00">depth</text>
<text text-anchor="start" x="236.25" y="-399.5" font-family="Helvetica,sans-Serif" font-size="10.00"> </text>
<polygon fill="#666666" stroke="#666666" points="204.88,-456.75 204.88,-456.75 270.62,-456.75 270.62,-456.75 204.88,-456.75"/>
<polygon fill="#666666" stroke="#666666" points="204.88,-411 204.88,-411 227.62,-411 227.62,-411 204.88,-411"/>
<polygon fill="#666666" stroke="#666666" points="227.62,-411 227.62,-411 270.62,-411 270.62,-411 227.62,-411"/>
<polygon fill="none" stroke="#666666" points="204.88,-393.75 204.88,-474 270.62,-474 270.62,-393.75 204.88,-393.75"/>
</a>
</g>
</g>
<!-- Node4&#45;&gt;Node2 -->
<g id="edge3_Node000002_Node000004" class="edge">
<title>Node4&#45;&gt;Node2</title>
<g id="a_edge3_Node000002_Node000004"><a xlink:title=" ">
<path fill="none" stroke="#63b8ff" d="M205.07,-416.07C190.22,-408.75 172.31,-400.35 155.75,-393.75 131.66,-384.15 121.07,-391.21 100.25,-375.75 90.81,-368.74 82.57,-359.28 75.72,-349.63"/>
<polygon fill="none" stroke="#63b8ff" points="75.68,-349.56 69.04,-346.74 69.09,-339.53 75.72,-342.35 75.68,-349.56"/>
</a>
</g>
<text text-anchor="middle" x="117.5" y="-366.25" font-family="Helvetica,sans-Serif" font-size="10.00" fill="grey"> +shape</text>
</g>
<!-- Node5 -->
<g id="Node000005" class="node">
<title>Node5</title>
<g id="a_Node000005"><a xlink:href="structTTL__tile__t.html" target="_top" xlink:title=" ">
<polygon fill="white" stroke="none" points="397.88,-219 345.62,-219 345.62,-169.25 397.88,-169.25 397.88,-219"/>
<text text-anchor="start" x="349.62" y="-205.5" font-family="Helvetica,sans-Serif" font-size="10.00">TTL_tile_t</text>
<text text-anchor="start" x="370.25" y="-190.25" font-family="Helvetica,sans-Serif" font-size="10.00"> </text>
<text text-anchor="start" x="370.25" y="-175" font-family="Helvetica,sans-Serif" font-size="10.00"> </text>
<polygon fill="#666666" stroke="#666666" points="345.62,-201.75 345.62,-201.75 397.88,-201.75 397.88,-201.75 345.62,-201.75"/>
<polygon fill="#666666" stroke="#666666" points="345.62,-186.5 345.62,-186.5 397.88,-186.5 397.88,-186.5 345.62,-186.5"/>
<polygon fill="none" stroke="#666666" points="345.62,-169.25 345.62,-219 397.88,-219 397.88,-169.25 345.62,-169.25"/>
</a>
</g>
</g>
<!-- Node4&#45;&gt;Node5 -->
<g id="edge5_Node000005_Node000004" class="edge">
<title>Node4&#45;&gt;Node5</title>
<g id="a_edge5_Node000005_Node000004"><a xlink:title=" ">
<path fill="none" stroke="#63b8ff" d="M270.45,-424.16C306.3,-412.74 362.36,-388.97 389.75,-346.5 416.21,-305.46 412.54,-283.84 398.75,-237 398.08,-234.73 397.25,-232.47 396.3,-230.25"/>
<polygon fill="none" stroke="#63b8ff" points="396.27,-230.19 389.94,-226.74 390.69,-219.56 397.02,-223.02 396.27,-230.19"/>
</a>
</g>
<text text-anchor="middle" x="426.66" y="-302.5" font-family="Helvetica,sans-Serif" font-size="10.00" fill="grey"> +shape</text>
</g>
<!-- Node7 -->
<g id="Node000007" class="node">
<title>Node7</title>
<g id="a_Node000007"><a xlink:href="structTTL__int__uint__sub__tensor__t.html" target="_top" xlink:title="const and non&#45;const sub tensors in the appropriate address space">
<polygon fill="white" stroke="none" points="324.88,-219 200.62,-219 200.62,-169.25 324.88,-169.25 324.88,-219"/>
<text text-anchor="start" x="204.62" y="-205.5" font-family="Helvetica,sans-Serif" font-size="10.00">TTL_int_uint_sub_tensor_t</text>
<text text-anchor="start" x="225.38" y="-190.25" font-family="Helvetica,sans-Serif" font-size="10.00">+</text>
<text text-anchor="start" x="256.12" y="-190.25" font-family="Helvetica,sans-Serif" font-size="10.00">origin</text>
<text text-anchor="start" x="261.25" y="-175" font-family="Helvetica,sans-Serif" font-size="10.00"> </text>
<polygon fill="#666666" stroke="#666666" points="200.62,-201.75 200.62,-201.75 324.88,-201.75 324.88,-201.75 200.62,-201.75"/>
<polygon fill="#666666" stroke="#666666" points="200.62,-186.5 200.62,-186.5 254.12,-186.5 254.12,-186.5 200.62,-186.5"/>
<polygon fill="#666666" stroke="#666666" points="254.12,-186.5 254.12,-186.5 324.88,-186.5 324.88,-186.5 254.12,-186.5"/>
<polygon fill="none" stroke="#666666" points="200.62,-169.25 200.62,-219 324.88,-219 324.88,-169.25 200.62,-169.25"/>
</a>
</g>
</g>
<!-- Node4&#45;&gt;Node7 -->
<g id="edge11_Node000007_Node000004" class="edge">
<title>Node4&#45;&gt;Node7</title>
<g id="a_edge11_Node000007_Node000004"><a xlink:title=" ">
<path fill="none" stroke="#63b8ff" d="M244.25,-393.9C245.16,-387.83 246.03,-381.63 246.75,-375.75 252.86,-326.02 257.56,-268.3 260.24,-231.76"/>
<polygon fill="none" stroke="#63b8ff" points="260.24,-231.72 256.68,-225.45 261.1,-219.75 264.66,-226.02 260.24,-231.72"/>
</a>
</g>
<text text-anchor="middle" x="274.72" y="-302.5" font-family="Helvetica,sans-Serif" font-size="10.00" fill="grey"> +shape</text>
</g>
<!-- Node4&#45;&gt;Node8 -->
<g id="edge10_Node000008_Node000004" class="edge">
<title>Node4&#45;&gt;Node8</title>
<g id="a_edge10_Node000008_Node000004"><a xlink:title=" ">
<path fill="none" stroke="#63b8ff" d="M218.16,-393.85C211.22,-380.03 203.37,-364.39 196.28,-350.26"/>
<polygon fill="none" stroke="#63b8ff" points="196.32,-350.34 190.05,-346.78 190.94,-339.62 197.2,-343.19 196.32,-350.34"/>
</a>
</g>
<text text-anchor="middle" x="225.39" y="-366.25" font-family="Helvetica,sans-Serif" font-size="10.00" fill="grey"> +shape</text>
</g>
<!-- Node5&#45;&gt;Node1 -->
<g id="edge4_Node000001_Node000005" class="edge">
<title>Node5&#45;&gt;Node1</title>
<g id="a_edge4_Node000001_Node000005"><a xlink:title=" ">
<path fill="none" stroke="#63b8ff" d="M364.54,-169.48C360.96,-159.83 356.04,-148.88 349.75,-140 343.75,-131.53 336.67,-123.32 329.18,-115.62"/>
<polygon fill="none" stroke="#63b8ff" points="329.09,-115.53 322.01,-114.18 320.54,-107.12 327.62,-108.47 329.09,-115.53"/>
</a>
</g>
<text text-anchor="middle" x="399.39" y="-141.75" font-family="Helvetica,sans-Serif" font-size="10.00" fill="grey"> +next_exported_tile</text>
</g>
<!-- Node6 -->
<g id="Node000006" class="node">
<title>Node6</title>
<g id="a_Node000006"><a xlink:href="structTTL__offset__t.html" target="_top" xlink:title="Description of the 3D offset of an object.">
<polygon fill="white" stroke="none" points="380.5,-346.5 317,-346.5 317,-266.25 380.5,-266.25 380.5,-346.5"/>
<text text-anchor="start" x="321" y="-333" font-family="Helvetica,sans-Serif" font-size="10.00">TTL_offset_t</text>
<text text-anchor="start" x="331.25" y="-317.75" font-family="Helvetica,sans-Serif" font-size="10.00">+</text>
<text text-anchor="start" x="351.5" y="-317.75" font-family="Helvetica,sans-Serif" font-size="10.00">x</text>
<text text-anchor="start" x="331.25" y="-302.5" font-family="Helvetica,sans-Serif" font-size="10.00">+</text>
<text text-anchor="start" x="351.5" y="-302.5" font-family="Helvetica,sans-Serif" font-size="10.00">y</text>
<text text-anchor="start" x="331.25" y="-287.25" font-family="Helvetica,sans-Serif" font-size="10.00">+</text>
<text text-anchor="start" x="351.5" y="-287.25" font-family="Helvetica,sans-Serif" font-size="10.00">z</text>
<text text-anchor="start" x="347.25" y="-272" font-family="Helvetica,sans-Serif" font-size="10.00"> </text>
<polygon fill="#666666" stroke="#666666" points="317,-329.25 317,-329.25 380.5,-329.25 380.5,-329.25 317,-329.25"/>
<polygon fill="#666666" stroke="#666666" points="317,-283.5 317,-283.5 349.5,-283.5 349.5,-283.5 317,-283.5"/>
<polygon fill="#666666" stroke="#666666" points="349.5,-283.5 349.5,-283.5 380.5,-283.5 380.5,-283.5 349.5,-283.5"/>
<polygon fill="none" stroke="#666666" points="317,-266.25 317,-346.5 380.5,-346.5 380.5,-266.25 317,-266.25"/>
</a>
</g>
</g>
<!-- Node6&#45;&gt;Node5 -->
<g id="edge6_Node000005_Node000006" class="edge">
<title>Node6&#45;&gt;Node5</title>
<g id="a_edge6_Node000005_Node000006"><a xlink:title=" ">
<path fill="none" stroke="#63b8ff" d="M356.86,-266.5C359.24,-255.1 361.83,-242.67 364.18,-231.43"/>
<polygon fill="none" stroke="#63b8ff" points="364.15,-231.54 361.46,-224.85 366.6,-219.79 369.29,-226.48 364.15,-231.54"/>
</a>
</g>
<text text-anchor="middle" x="379.11" y="-238.75" font-family="Helvetica,sans-Serif" font-size="10.00" fill="grey"> +offset</text>
</g>
<!-- Node6&#45;&gt;Node7 -->
<g id="edge12_Node000007_Node000006" class="edge">
<title>Node6&#45;&gt;Node7</title>
<g id="a_edge12_Node000007_Node000006"><a xlink:title=" ">
<path fill="none" stroke="#63b8ff" d="M317.76,-266.41C312.97,-260.35 308.09,-254.14 303.5,-248.25 298.74,-242.14 293.7,-235.62 288.84,-229.3"/>
<polygon fill="none" stroke="#63b8ff" points="288.78,-229.22 281.95,-226.9 281.48,-219.7 288.3,-222.03 288.78,-229.22"/>
</a>
</g>
<text text-anchor="middle" x="330.12" y="-238.75" font-family="Helvetica,sans-Serif" font-size="10.00" fill="grey"> +sub_offset</text>
</g>
<!-- Node7&#45;&gt;Node1 -->
<g id="edge7_Node000001_Node000007" class="edge">
<title>Node7&#45;&gt;Node1</title>
<g id="a_edge7_Node000001_Node000007"><a xlink:title=" ">
<path fill="none" stroke="#63b8ff" d="M262.75,-169.38C262.75,-159.46 262.75,-147.36 262.75,-134.9"/>
<polygon fill="none" stroke="#63b8ff" points="262.75,-134.76 258.75,-128.76 262.75,-122.76 266.75,-128.76 262.75,-134.76"/>
</a>
</g>
<text text-anchor="middle" x="305.5" y="-141.75" font-family="Helvetica,sans-Serif" font-size="10.00" fill="grey"> +int_prev_imported</text>
</g>
<!-- Node8&#45;&gt;Node7 -->
<g id="edge8_Node000007_Node000008" class="edge">
<title>Node8&#45;&gt;Node7</title>
<g id="a_edge8_Node000007_Node000008"><a xlink:title=" ">
<path fill="none" stroke="#63b8ff" d="M189.58,-273.94C196.06,-261.79 204.28,-248.15 213.5,-237 216.15,-233.8 219.06,-230.65 222.1,-227.6"/>
<polygon fill="none" stroke="#63b8ff" points="222.07,-227.63 223.72,-220.61 230.83,-219.44 229.18,-226.46 222.07,-227.63"/>
</a>
</g>
<text text-anchor="middle" x="231.12" y="-238.75" font-family="Helvetica,sans-Serif" font-size="10.00" fill="grey"> +tensor</text>
</g>
</g>
</svg>
