<?xml version="1.0" encoding="UTF-8" standalone="no"?>
<!DOCTYPE svg PUBLIC "-//W3C//DTD SVG 1.1//EN"
 "http://www.w3.org/Graphics/SVG/1.1/DTD/svg11.dtd">
<!-- Generated by graphviz version 12.2.1 (20241206.2353)
 -->
<!-- Title: TTL_duplex_const_ushort_tensor_buffering_t Pages: 1 -->
<svg width="248pt" height="404pt"
 viewBox="0.00 0.00 247.84 403.50" xmlns="http://www.w3.org/2000/svg" xmlns:xlink="http://www.w3.org/1999/xlink">
<g id="graph0" class="graph" transform="scale(1 1) rotate(0) translate(4 399.5)">
<title>TTL_duplex_const_ushort_tensor_buffering_t</title>
<!-- Node1 -->
<g id="Node000001" class="node">
<title>Node1</title>
<g id="a_Node000001"><a xlink:title="Data required to perform duplex buffer pipelining.">
<polygon fill="#999999" stroke="none" points="181.62,-122 61.12,-122 61.12,0 181.62,0 181.62,-122"/>
<text text-anchor="start" x="65.12" y="-108.5" font-family="Helvetica,sans-Serif" font-size="10.00">TTL_duplex_const_ushort</text>
<text text-anchor="start" x="80.12" y="-97.25" font-family="Helvetica,sans-Serif" font-size="10.00">_tensor_buffering_t</text>
<text text-anchor="start" x="72" y="-82" font-family="Helvetica,sans-Serif" font-size="10.00">+</text>
<text text-anchor="start" x="88.88" y="-82" font-family="Helvetica,sans-Serif" font-size="10.00">index</text>
<text text-anchor="start" x="72" y="-66.75" font-family="Helvetica,sans-Serif" font-size="10.00">+</text>
<text text-anchor="start" x="88.88" y="-66.75" font-family="Helvetica,sans-Serif" font-size="10.00">int_base</text>
<text text-anchor="start" x="72" y="-51.5" font-family="Helvetica,sans-Serif" font-size="10.00">+</text>
<text text-anchor="start" x="88.88" y="-51.5" font-family="Helvetica,sans-Serif" font-size="10.00">common</text>
<text text-anchor="start" x="72" y="-36.25" font-family="Helvetica,sans-Serif" font-size="10.00">+</text>
<text text-anchor="start" x="88.88" y="-36.25" font-family="Helvetica,sans-Serif" font-size="10.00">events</text>
<text text-anchor="start" x="72" y="-21" font-family="Helvetica,sans-Serif" font-size="10.00">+</text>
<text text-anchor="start" x="88.88" y="-21" font-family="Helvetica,sans-Serif" font-size="10.00">prev_out_tensors</text>
<text text-anchor="start" x="119.88" y="-5.75" font-family="Helvetica,sans-Serif" font-size="10.00"> </text>
<polygon fill="#666666" stroke="#666666" points="61.12,-93.5 61.12,-93.5 181.62,-93.5 181.62,-93.5 61.12,-93.5"/>
<polygon fill="#666666" stroke="#666666" points="61.12,-17.25 61.12,-17.25 86.88,-17.25 86.88,-17.25 61.12,-17.25"/>
<polygon fill="#666666" stroke="#666666" points="86.88,-17.25 86.88,-17.25 181.62,-17.25 181.62,-17.25 86.88,-17.25"/>
<polygon fill="none" stroke="#666666" points="61.12,0 61.12,-122 181.62,-122 181.62,0 61.12,0"/>
</a>
</g>
</g>
<!-- Node2 -->
<g id="Node000002" class="node">
<title>Node2</title>
<g id="a_Node000002"><a xlink:href="structTTL__ext__ushort__tensor__t.html" target="_top" xlink:title="const and non&#45;const tensors in the appropriate address space">
<polygon fill="white" stroke="none" points="116.75,-262.38 0,-262.38 0,-197.38 116.75,-197.38 116.75,-262.38"/>
<text text-anchor="start" x="4" y="-248.88" font-family="Helvetica,sans-Serif" font-size="10.00">TTL_ext_ushort_tensor_t</text>
<text text-anchor="start" x="17.81" y="-233.62" font-family="Helvetica,sans-Serif" font-size="10.00">+</text>
<text text-anchor="start" x="41.62" y="-233.62" font-family="Helvetica,sans-Serif" font-size="10.00">base</text>
<text text-anchor="start" x="17.81" y="-218.38" font-family="Helvetica,sans-Serif" font-size="10.00">+</text>
<text text-anchor="start" x="41.62" y="-218.38" font-family="Helvetica,sans-Serif" font-size="10.00">elem_size</text>
<text text-anchor="start" x="56.88" y="-203.12" font-family="Helvetica,sans-Serif" font-size="10.00"> </text>
<polygon fill="#666666" stroke="#666666" points="0,-245.12 0,-245.12 116.75,-245.12 116.75,-245.12 0,-245.12"/>
<polygon fill="#666666" stroke="#666666" points="0,-214.62 0,-214.62 39.62,-214.62 39.62,-214.62 0,-214.62"/>
<polygon fill="#666666" stroke="#666666" points="39.62,-214.62 39.62,-214.62 116.75,-214.62 116.75,-214.62 39.62,-214.62"/>
<polygon fill="none" stroke="#666666" points="0,-197.38 0,-262.38 116.75,-262.38 116.75,-197.38 0,-197.38"/>
</a>
</g>
</g>
<!-- Node2&#45;&gt;Node1 -->
<g id="edge1_Node000001_Node000002" class="edge">
<title>Node2&#45;&gt;Node1</title>
<g id="a_edge1_Node000001_Node000002"><a xlink:title=" ">
<path fill="none" stroke="#63b8ff" d="M66.84,-197.69C71.78,-180.49 78.45,-158.85 85.62,-140 86.44,-137.85 87.29,-135.67 88.17,-133.48"/>
<polygon fill="none" stroke="#63b8ff" points="88.11,-133.63 86.71,-126.55 92.7,-122.54 94.1,-129.61 88.11,-133.63"/>
</a>
</g>
<text text-anchor="middle" x="120.5" y="-164.25" font-family="Helvetica,sans-Serif" font-size="10.00" fill="grey"> +ext_tensor_in</text>
<text text-anchor="middle" x="120.5" y="-153" font-family="Helvetica,sans-Serif" font-size="10.00" fill="grey">+ext_tensor_out</text>
<text text-anchor="middle" x="120.5" y="-141.75" font-family="Helvetica,sans-Serif" font-size="10.00" fill="grey">+to_export_to</text>
</g>
<!-- Node3 -->
<g id="Node000003" class="node">
<title>Node3</title>
<g id="a_Node000003"><a xlink:href="structTTL__layout__t.html" target="_top" xlink:title="Description of a Tensor layout in memory.">
<polygon fill="white" stroke="none" points="110.5,-387.88 30.25,-387.88 30.25,-322.88 110.5,-322.88 110.5,-387.88"/>
<text text-anchor="start" x="41.88" y="-374.38" font-family="Helvetica,sans-Serif" font-size="10.00">TTL_layout_t</text>
<text text-anchor="start" x="34.25" y="-359.12" font-family="Helvetica,sans-Serif" font-size="10.00">+</text>
<text text-anchor="start" x="44.25" y="-359.12" font-family="Helvetica,sans-Serif" font-size="10.00">row_spacing</text>
<text text-anchor="start" x="34.25" y="-343.88" font-family="Helvetica,sans-Serif" font-size="10.00">+</text>
<text text-anchor="start" x="44.25" y="-343.88" font-family="Helvetica,sans-Serif" font-size="10.00">plane_spacing</text>
<text text-anchor="start" x="68.88" y="-328.62" font-family="Helvetica,sans-Serif" font-size="10.00"> </text>
<polygon fill="#666666" stroke="#666666" points="30.25,-370.62 30.25,-370.62 110.5,-370.62 110.5,-370.62 30.25,-370.62"/>
<polygon fill="#666666" stroke="#666666" points="30.25,-340.12 30.25,-340.12 42.25,-340.12 42.25,-340.12 30.25,-340.12"/>
<polygon fill="#666666" stroke="#666666" points="42.25,-340.12 42.25,-340.12 110.5,-340.12 110.5,-340.12 42.25,-340.12"/>
<polygon fill="none" stroke="#666666" points="30.25,-322.88 30.25,-387.88 110.5,-387.88 110.5,-322.88 30.25,-322.88"/>
</a>
</g>
</g>
<!-- Node3&#45;&gt;Node2 -->
<g id="edge2_Node000002_Node000003" class="edge">
<title>Node3&#45;&gt;Node2</title>
<g id="a_edge2_Node000002_Node000003"><a xlink:title=" ">
<path fill="none" stroke="#63b8ff" d="M48.56,-323.03C44.06,-314.98 39.98,-306.09 37.62,-297.25 35.65,-289.85 35.93,-282.04 37.47,-274.49"/>
<polygon fill="none" stroke="#63b8ff" points="37.46,-274.5 35.3,-267.63 40.81,-262.98 42.98,-269.86 37.46,-274.5"/>
</a>
</g>
<text text-anchor="middle" x="54.5" y="-287.75" font-family="Helvetica,sans-Serif" font-size="10.00" fill="grey"> +layout</text>
</g>
<!-- Node5 -->
<g id="Node000005" class="node">
<title>Node5</title>
<g id="a_Node000005"><a xlink:href="structTTL__const__int__ushort__tensor__t.html" target="_top" xlink:title=" ">
<polygon fill="white" stroke="none" points="238,-268 134.75,-268 134.75,-191.75 238,-191.75 238,-268"/>
<text text-anchor="start" x="138.75" y="-254.5" font-family="Helvetica,sans-Serif" font-size="10.00">TTL_const_int_ushort</text>
<text text-anchor="start" x="166.12" y="-243.25" font-family="Helvetica,sans-Serif" font-size="10.00">_tensor_t</text>
<text text-anchor="start" x="149.19" y="-228" font-family="Helvetica,sans-Serif" font-size="10.00">+</text>
<text text-anchor="start" x="169.62" y="-228" font-family="Helvetica,sans-Serif" font-size="10.00">base</text>
<text text-anchor="start" x="149.19" y="-212.75" font-family="Helvetica,sans-Serif" font-size="10.00">+</text>
<text text-anchor="start" x="169.62" y="-212.75" font-family="Helvetica,sans-Serif" font-size="10.00">elem_size</text>
<text text-anchor="start" x="184.88" y="-197.5" font-family="Helvetica,sans-Serif" font-size="10.00"> </text>
<polygon fill="#666666" stroke="#666666" points="134.75,-239.5 134.75,-239.5 238,-239.5 238,-239.5 134.75,-239.5"/>
<polygon fill="#666666" stroke="#666666" points="134.75,-209 134.75,-209 167.62,-209 167.62,-209 134.75,-209"/>
<polygon fill="#666666" stroke="#666666" points="167.62,-209 167.62,-209 238,-209 238,-209 167.62,-209"/>
<polygon fill="none" stroke="#666666" points="134.75,-191.75 134.75,-268 238,-268 238,-191.75 134.75,-191.75"/>
</a>
</g>
</g>
<!-- Node3&#45;&gt;Node5 -->
<g id="edge5_Node000005_Node000003" class="edge">
<title>Node3&#45;&gt;Node5</title>
<g id="a_edge5_Node000005_Node000003"><a xlink:title=" ">
<path fill="none" stroke="#63b8ff" d="M74.24,-322.92C77.08,-310.34 82.03,-296.4 90.62,-286 99.8,-274.89 107.21,-275.69 123.53,-268.33"/>
<polygon fill="none" stroke="#63b8ff" points="123.44,-268.38 126.97,-262.09 134.13,-262.93 130.6,-269.22 123.44,-268.38"/>
</a>
</g>
<text text-anchor="middle" x="107.5" y="-287.75" font-family="Helvetica,sans-Serif" font-size="10.00" fill="grey"> +layout</text>
</g>
<!-- Node4 -->
<g id="Node000004" class="node">
<title>Node4</title>
<g id="a_Node000004"><a xlink:href="structTTL__shape__t.html" target="_top" xlink:title="Description of a Shape.">
<polygon fill="white" stroke="none" points="205.25,-395.5 139.5,-395.5 139.5,-315.25 205.25,-315.25 205.25,-395.5"/>
<text text-anchor="start" x="143.5" y="-382" font-family="Helvetica,sans-Serif" font-size="10.00">TTL_shape_t</text>
<text text-anchor="start" x="148.88" y="-366.75" font-family="Helvetica,sans-Serif" font-size="10.00">+</text>
<text text-anchor="start" x="164.25" y="-366.75" font-family="Helvetica,sans-Serif" font-size="10.00">width</text>
<text text-anchor="start" x="148.88" y="-351.5" font-family="Helvetica,sans-Serif" font-size="10.00">+</text>
<text text-anchor="start" x="164.25" y="-351.5" font-family="Helvetica,sans-Serif" font-size="10.00">height</text>
<text text-anchor="start" x="148.88" y="-336.25" font-family="Helvetica,sans-Serif" font-size="10.00">+</text>
<text text-anchor="start" x="164.25" y="-336.25" font-family="Helvetica,sans-Serif" font-size="10.00">depth</text>
<text text-anchor="start" x="170.88" y="-321" font-family="Helvetica,sans-Serif" font-size="10.00"> </text>
<polygon fill="#666666" stroke="#666666" points="139.5,-378.25 139.5,-378.25 205.25,-378.25 205.25,-378.25 139.5,-378.25"/>
<polygon fill="#666666" stroke="#666666" points="139.5,-332.5 139.5,-332.5 162.25,-332.5 162.25,-332.5 139.5,-332.5"/>
<polygon fill="#666666" stroke="#666666" points="162.25,-332.5 162.25,-332.5 205.25,-332.5 205.25,-332.5 162.25,-332.5"/>
<polygon fill="none" stroke="#666666" points="139.5,-315.25 139.5,-395.5 205.25,-395.5 205.25,-315.25 139.5,-315.25"/>
</a>
</g>
</g>
<!-- Node4&#45;&gt;Node2 -->
<g id="edge3_Node000002_Node000004" class="edge">
<title>Node4&#45;&gt;Node2</title>
<g id="a_edge3_Node000002_Node000004"><a xlink:title=" ">
<path fill="none" stroke="#63b8ff" d="M150.51,-315.49C144.01,-305.4 136.45,-294.88 128.38,-286 123.51,-280.65 118.09,-275.41 112.47,-270.43"/>
<polygon fill="none" stroke="#63b8ff" points="112.73,-270.65 105.57,-269.82 103.59,-262.88 110.75,-263.72 112.73,-270.65"/>
</a>
</g>
<text text-anchor="middle" x="154.15" y="-287.75" font-family="Helvetica,sans-Serif" font-size="10.00" fill="grey"> +shape</text>
</g>
<!-- Node4&#45;&gt;Node5 -->
<g id="edge6_Node000005_Node000004" class="edge">
<title>Node4&#45;&gt;Node5</title>
<g id="a_edge6_Node000005_Node000004"><a xlink:title=" ">
<path fill="none" stroke="#63b8ff" d="M183.27,-315.27C184.56,-309.28 185.67,-303.13 186.38,-297.25 187.02,-291.91 187.43,-286.31 187.67,-280.72"/>
<polygon fill="none" stroke="#63b8ff" points="187.67,-280.73 183.8,-274.65 187.93,-268.73 191.8,-274.82 187.67,-280.73"/>
</a>
</g>
<text text-anchor="middle" x="204.61" y="-287.75" font-family="Helvetica,sans-Serif" font-size="10.00" fill="grey"> +shape</text>
</g>
<!-- Node5&#45;&gt;Node1 -->
<g id="edge4_Node000001_Node000005" class="edge">
<title>Node5&#45;&gt;Node1</title>
<g id="a_edge4_Node000001_Node000005"><a xlink:title=" ">
<path fill="none" stroke="#63b8ff" d="M174.17,-191.89C168.7,-175.84 161.99,-156.89 155.38,-140 154.58,-137.97 153.76,-135.91 152.93,-133.83"/>
<polygon fill="none" stroke="#63b8ff" points="152.91,-133.79 146.93,-129.76 148.35,-122.69 154.33,-126.72 152.91,-133.79"/>
</a>
</g>
<text text-anchor="middle" x="203.46" y="-153" font-family="Helvetica,sans-Serif" font-size="10.00" fill="grey"> +to_export_from</text>
</g>
</g>
</svg>
