<?xml version="1.0" encoding="UTF-8" standalone="no"?>
<!DOCTYPE svg PUBLIC "-//W3C//DTD SVG 1.1//EN"
 "http://www.w3.org/Graphics/SVG/1.1/DTD/svg11.dtd">
<!-- Generated by graphviz version 12.2.1 (20241206.2353)
 -->
<!-- Title: TTL_simplex_const_int_tensor_buffering_t Pages: 1 -->
<svg width="441pt" height="482pt"
 viewBox="0.00 0.00 441.29 482.00" xmlns="http://www.w3.org/2000/svg" xmlns:xlink="http://www.w3.org/1999/xlink">
<g id="graph0" class="graph" transform="scale(1 1) rotate(0) translate(4 478)">
<title>TTL_simplex_const_int_tensor_buffering_t</title>
<!-- Node1 -->
<g id="Node000001" class="node">
<title>Node1</title>
<g id="a_Node000001"><a xlink:title=" ">
<polygon fill="#999999" stroke="none" points="306.75,-122 197.5,-122 197.5,0 306.75,0 306.75,-122"/>
<text text-anchor="start" x="201.5" y="-108.5" font-family="Helvetica,sans-Serif" font-size="10.00">TTL_simplex_const_int</text>
<text text-anchor="start" x="210.88" y="-97.25" font-family="Helvetica,sans-Serif" font-size="10.00">_tensor_buffering_t</text>
<text text-anchor="start" x="213.62" y="-82" font-family="Helvetica,sans-Serif" font-size="10.00">+</text>
<text text-anchor="start" x="235.75" y="-82" font-family="Helvetica,sans-Serif" font-size="10.00">index</text>
<text text-anchor="start" x="213.62" y="-66.75" font-family="Helvetica,sans-Serif" font-size="10.00">+</text>
<text text-anchor="start" x="235.75" y="-66.75" font-family="Helvetica,sans-Serif" font-size="10.00">int_base</text>
<text text-anchor="start" x="213.62" y="-51.5" font-family="Helvetica,sans-Serif" font-size="10.00">+</text>
<text text-anchor="start" x="235.75" y="-51.5" font-family="Helvetica,sans-Serif" font-size="10.00">common</text>
<text text-anchor="start" x="213.62" y="-36.25" font-family="Helvetica,sans-Serif" font-size="10.00">+</text>
<text text-anchor="start" x="235.75" y="-36.25" font-family="Helvetica,sans-Serif" font-size="10.00">event_in</text>
<text text-anchor="start" x="213.62" y="-21" font-family="Helvetica,sans-Serif" font-size="10.00">+</text>
<text text-anchor="start" x="235.75" y="-21" font-family="Helvetica,sans-Serif" font-size="10.00">event_out</text>
<text text-anchor="start" x="250.62" y="-5.75" font-family="Helvetica,sans-Serif" font-size="10.00"> </text>
<polygon fill="#666666" stroke="#666666" points="197.5,-93.5 197.5,-93.5 306.75,-93.5 306.75,-93.5 197.5,-93.5"/>
<polygon fill="#666666" stroke="#666666" points="197.5,-17.25 197.5,-17.25 233.75,-17.25 233.75,-17.25 197.5,-17.25"/>
<polygon fill="#666666" stroke="#666666" points="233.75,-17.25 233.75,-17.25 306.75,-17.25 306.75,-17.25 233.75,-17.25"/>
<polygon fill="none" stroke="#666666" points="197.5,0 197.5,-122 306.75,-122 306.75,0 197.5,0"/>
</a>
</g>
</g>
<!-- Node2 -->
<g id="Node000002" class="node">
<title>Node2</title>
<g id="a_Node000002"><a xlink:href="structTTL__ext__int__tensor__t.html" target="_top" xlink:title="const and non&#45;const tensors in the appropriate address space">
<polygon fill="white" stroke="none" points="100.25,-338.88 0,-338.88 0,-273.88 100.25,-273.88 100.25,-338.88"/>
<text text-anchor="start" x="4" y="-325.38" font-family="Helvetica,sans-Serif" font-size="10.00">TTL_ext_int_tensor_t</text>
<text text-anchor="start" x="13.69" y="-310.12" font-family="Helvetica,sans-Serif" font-size="10.00">+</text>
<text text-anchor="start" x="33.38" y="-310.12" font-family="Helvetica,sans-Serif" font-size="10.00">base</text>
<text text-anchor="start" x="13.69" y="-294.88" font-family="Helvetica,sans-Serif" font-size="10.00">+</text>
<text text-anchor="start" x="33.38" y="-294.88" font-family="Helvetica,sans-Serif" font-size="10.00">elem_size</text>
<text text-anchor="start" x="48.62" y="-279.62" font-family="Helvetica,sans-Serif" font-size="10.00"> </text>
<polygon fill="#666666" stroke="#666666" points="0,-321.62 0,-321.62 100.25,-321.62 100.25,-321.62 0,-321.62"/>
<polygon fill="#666666" stroke="#666666" points="0,-291.12 0,-291.12 31.38,-291.12 31.38,-291.12 0,-291.12"/>
<polygon fill="#666666" stroke="#666666" points="31.38,-291.12 31.38,-291.12 100.25,-291.12 100.25,-291.12 31.38,-291.12"/>
<polygon fill="none" stroke="#666666" points="0,-273.88 0,-338.88 100.25,-338.88 100.25,-273.88 0,-273.88"/>
</a>
</g>
</g>
<!-- Node2&#45;&gt;Node1 -->
<g id="edge1_Node000001_Node000002" class="edge">
<title>Node2&#45;&gt;Node1</title>
<g id="a_edge1_Node000001_Node000002"><a xlink:title=" ">
<path fill="none" stroke="#63b8ff" d="M60.11,-274.14C70.49,-244.94 88.81,-201.18 114.38,-169.25 134.68,-143.89 162.13,-120.96 187.18,-102.88"/>
<polygon fill="none" stroke="#63b8ff" points="187.2,-102.87 189.8,-96.14 197.01,-95.95 194.41,-102.68 187.2,-102.87"/>
</a>
</g>
<text text-anchor="middle" x="149.25" y="-195.88" font-family="Helvetica,sans-Serif" font-size="10.00" fill="grey"> +ext_tensor_in</text>
<text text-anchor="middle" x="149.25" y="-184.62" font-family="Helvetica,sans-Serif" font-size="10.00" fill="grey">+ext_tensor_out</text>
</g>
<!-- Node3 -->
<g id="Node000003" class="node">
<title>Node3</title>
<g id="a_Node000003"><a xlink:href="structTTL__layout__t.html" target="_top" xlink:title="Description of a Tensor layout in memory.">
<polygon fill="white" stroke="none" points="136.25,-466.38 56,-466.38 56,-401.38 136.25,-401.38 136.25,-466.38"/>
<text text-anchor="start" x="67.62" y="-452.88" font-family="Helvetica,sans-Serif" font-size="10.00">TTL_layout_t</text>
<text text-anchor="start" x="60" y="-437.62" font-family="Helvetica,sans-Serif" font-size="10.00">+</text>
<text text-anchor="start" x="70" y="-437.62" font-family="Helvetica,sans-Serif" font-size="10.00">row_spacing</text>
<text text-anchor="start" x="60" y="-422.38" font-family="Helvetica,sans-Serif" font-size="10.00">+</text>
<text text-anchor="start" x="70" y="-422.38" font-family="Helvetica,sans-Serif" font-size="10.00">plane_spacing</text>
<text text-anchor="start" x="94.62" y="-407.12" font-family="Helvetica,sans-Serif" font-size="10.00"> </text>
<polygon fill="#666666" stroke="#666666" points="56,-449.12 56,-449.12 136.25,-449.12 136.25,-449.12 56,-449.12"/>
<polygon fill="#666666" stroke="#666666" points="56,-418.62 56,-418.62 68,-418.62 68,-418.62 56,-418.62"/>
<polygon fill="#666666" stroke="#666666" points="68,-418.62 68,-418.62 136.25,-418.62 136.25,-418.62 68,-418.62"/>
<polygon fill="none" stroke="#666666" points="56,-401.38 56,-466.38 136.25,-466.38 136.25,-401.38 56,-401.38"/>
</a>
</g>
</g>
<!-- Node3&#45;&gt;Node2 -->
<g id="edge2_Node000002_Node000003" class="edge">
<title>Node3&#45;&gt;Node2</title>
<g id="a_edge2_Node000002_Node000003"><a xlink:title=" ">
<path fill="none" stroke="#63b8ff" d="M56.08,-406.89C46.15,-398.28 36.8,-387.77 31.38,-375.75 27.88,-368 27.63,-359.46 29.14,-351.11"/>
<polygon fill="none" stroke="#63b8ff" points="29.13,-351.16 26.88,-344.31 32.33,-339.59 34.58,-346.44 29.13,-351.16"/>
</a>
</g>
<text text-anchor="middle" x="48.25" y="-366.25" font-family="Helvetica,sans-Serif" font-size="10.00" fill="grey"> +layout</text>
</g>
<!-- Node8 -->
<g id="Node000008" class="node">
<title>Node8</title>
<g id="a_Node000008"><a xlink:href="structTTL__int__int__tensor__t.html" target="_top" xlink:title="const and non&#45;const tensors in the appropriate address space">
<polygon fill="white" stroke="none" points="216.12,-338.88 118.12,-338.88 118.12,-273.88 216.12,-273.88 216.12,-338.88"/>
<text text-anchor="start" x="122.12" y="-325.38" font-family="Helvetica,sans-Serif" font-size="10.00">TTL_int_int_tensor_t</text>
<text text-anchor="start" x="131.25" y="-310.12" font-family="Helvetica,sans-Serif" font-size="10.00">+</text>
<text text-anchor="start" x="150.38" y="-310.12" font-family="Helvetica,sans-Serif" font-size="10.00">base</text>
<text text-anchor="start" x="131.25" y="-294.88" font-family="Helvetica,sans-Serif" font-size="10.00">+</text>
<text text-anchor="start" x="150.38" y="-294.88" font-family="Helvetica,sans-Serif" font-size="10.00">elem_size</text>
<text text-anchor="start" x="165.62" y="-279.62" font-family="Helvetica,sans-Serif" font-size="10.00"> </text>
<polygon fill="#666666" stroke="#666666" points="118.12,-321.62 118.12,-321.62 216.12,-321.62 216.12,-321.62 118.12,-321.62"/>
<polygon fill="#666666" stroke="#666666" points="118.12,-291.12 118.12,-291.12 148.38,-291.12 148.38,-291.12 118.12,-291.12"/>
<polygon fill="#666666" stroke="#666666" points="148.38,-291.12 148.38,-291.12 216.12,-291.12 216.12,-291.12 148.38,-291.12"/>
<polygon fill="none" stroke="#666666" points="118.12,-273.88 118.12,-338.88 216.12,-338.88 216.12,-273.88 118.12,-273.88"/>
</a>
</g>
</g>
<!-- Node3&#45;&gt;Node8 -->
<g id="edge9_Node000008_Node000003" class="edge">
<title>Node3&#45;&gt;Node8</title>
<g id="a_edge9_Node000008_Node000003"><a xlink:title=" ">
<path fill="none" stroke="#63b8ff" d="M113.86,-401.53C122.67,-385.96 133.45,-366.91 143,-350.03"/>
<polygon fill="none" stroke="#63b8ff" points="143.02,-349.98 142.49,-342.79 148.93,-339.54 149.46,-346.73 143.02,-349.98"/>
</a>
</g>
<text text-anchor="middle" x="150.63" y="-366.25" font-family="Helvetica,sans-Serif" font-size="10.00" fill="grey"> +layout</text>
</g>
<!-- Node4 -->
<g id="Node000004" class="node">
<title>Node4</title>
<g id="a_Node000004"><a xlink:href="structTTL__shape__t.html" target="_top" xlink:title="Description of a Shape.">
<polygon fill="white" stroke="none" points="260,-474 194.25,-474 194.25,-393.75 260,-393.75 260,-474"/>
<text text-anchor="start" x="198.25" y="-460.5" font-family="Helvetica,sans-Serif" font-size="10.00">TTL_shape_t</text>
<text text-anchor="start" x="203.62" y="-445.25" font-family="Helvetica,sans-Serif" font-size="10.00">+</text>
<text text-anchor="start" x="219" y="-445.25" font-family="Helvetica,sans-Serif" font-size="10.00">width</text>
<text text-anchor="start" x="203.62" y="-430" font-family="Helvetica,sans-Serif" font-size="10.00">+</text>
<text text-anchor="start" x="219" y="-430" font-family="Helvetica,sans-Serif" font-size="10.00">height</text>
<text text-anchor="start" x="203.62" y="-414.75" font-family="Helvetica,sans-Serif" font-size="10.00">+</text>
<text text-anchor="start" x="219" y="-414.75" font-family="Helvetica,sans-Serif" font-size="10.00">depth</text>
<text text-anchor="start" x="225.62" y="-399.5" font-family="Helvetica,sans-Serif" font-size="10.00"> </text>
<polygon fill="#666666" stroke="#666666" points="194.25,-456.75 194.25,-456.75 260,-456.75 260,-456.75 194.25,-456.75"/>
<polygon fill="#666666" stroke="#666666" points="194.25,-411 194.25,-411 217,-411 217,-411 194.25,-411"/>
<polygon fill="#666666" stroke="#666666" points="217,-411 217,-411 260,-411 260,-411 217,-411"/>
<polygon fill="none" stroke="#666666" points="194.25,-393.75 194.25,-474 260,-474 260,-393.75 194.25,-393.75"/>
</a>
</g>
</g>
<!-- Node4&#45;&gt;Node2 -->
<g id="edge3_Node000002_Node000004" class="edge">
<title>Node4&#45;&gt;Node2</title>
<g id="a_edge3_Node000002_Node000004"><a xlink:title=" ">
<path fill="none" stroke="#63b8ff" d="M194.43,-416.11C179.58,-408.8 161.66,-400.4 145.12,-393.75 121.46,-384.24 110.5,-391.74 90.62,-375.75 81.97,-368.79 74.76,-359.44 68.93,-349.9"/>
<polygon fill="none" stroke="#63b8ff" points="68.99,-350.02 62.58,-346.72 63.16,-339.53 69.57,-342.83 68.99,-350.02"/>
</a>
</g>
<text text-anchor="middle" x="107.88" y="-366.25" font-family="Helvetica,sans-Serif" font-size="10.00" fill="grey"> +shape</text>
</g>
<!-- Node5 -->
<g id="Node000005" class="node">
<title>Node5</title>
<g id="a_Node000005"><a xlink:href="structTTL__tile__t.html" target="_top" xlink:title=" ">
<polygon fill="white" stroke="none" points="387.25,-219 335,-219 335,-169.25 387.25,-169.25 387.25,-219"/>
<text text-anchor="start" x="339" y="-205.5" font-family="Helvetica,sans-Serif" font-size="10.00">TTL_tile_t</text>
<text text-anchor="start" x="359.62" y="-190.25" font-family="Helvetica,sans-Serif" font-size="10.00"> </text>
<text text-anchor="start" x="359.62" y="-175" font-family="Helvetica,sans-Serif" font-size="10.00"> </text>
<polygon fill="#666666" stroke="#666666" points="335,-201.75 335,-201.75 387.25,-201.75 387.25,-201.75 335,-201.75"/>
<polygon fill="#666666" stroke="#666666" points="335,-186.5 335,-186.5 387.25,-186.5 387.25,-186.5 335,-186.5"/>
<polygon fill="none" stroke="#666666" points="335,-169.25 335,-219 387.25,-219 387.25,-169.25 335,-169.25"/>
</a>
</g>
</g>
<!-- Node4&#45;&gt;Node5 -->
<g id="edge5_Node000005_Node000004" class="edge">
<title>Node4&#45;&gt;Node5</title>
<g id="a_edge5_Node000005_Node000004"><a xlink:title=" ">
<path fill="none" stroke="#63b8ff" d="M259.83,-424.16C295.68,-412.74 351.74,-388.97 379.12,-346.5 405.59,-305.46 401.92,-283.84 388.12,-237 387.46,-234.73 386.63,-232.47 385.67,-230.25"/>
<polygon fill="none" stroke="#63b8ff" points="385.64,-230.19 379.31,-226.74 380.06,-219.56 386.39,-223.02 385.64,-230.19"/>
</a>
</g>
<text text-anchor="middle" x="416.04" y="-302.5" font-family="Helvetica,sans-Serif" font-size="10.00" fill="grey"> +shape</text>
</g>
<!-- Node7 -->
<g id="Node000007" class="node">
<title>Node7</title>
<g id="a_Node000007"><a xlink:href="structTTL__int__int__sub__tensor__t.html" target="_top" xlink:title="const and non&#45;const sub tensors in the appropriate address space">
<polygon fill="white" stroke="none" points="311.62,-219 192.62,-219 192.62,-169.25 311.62,-169.25 311.62,-219"/>
<text text-anchor="start" x="196.62" y="-205.5" font-family="Helvetica,sans-Serif" font-size="10.00">TTL_int_int_sub_tensor_t</text>
<text text-anchor="start" x="216.06" y="-190.25" font-family="Helvetica,sans-Serif" font-size="10.00">+</text>
<text text-anchor="start" x="245.5" y="-190.25" font-family="Helvetica,sans-Serif" font-size="10.00">origin</text>
<text text-anchor="start" x="250.62" y="-175" font-family="Helvetica,sans-Serif" font-size="10.00"> </text>
<polygon fill="#666666" stroke="#666666" points="192.62,-201.75 192.62,-201.75 311.62,-201.75 311.62,-201.75 192.62,-201.75"/>
<polygon fill="#666666" stroke="#666666" points="192.62,-186.5 192.62,-186.5 243.5,-186.5 243.5,-186.5 192.62,-186.5"/>
<polygon fill="#666666" stroke="#666666" points="243.5,-186.5 243.5,-186.5 311.62,-186.5 311.62,-186.5 243.5,-186.5"/>
<polygon fill="none" stroke="#666666" points="192.62,-169.25 192.62,-219 311.62,-219 311.62,-169.25 192.62,-169.25"/>
</a>
</g>
</g>
<!-- Node4&#45;&gt;Node7 -->
<g id="edge11_Node000007_Node000004" class="edge">
<title>Node4&#45;&gt;Node7</title>
<g id="a_edge11_Node000007_Node000004"><a xlink:title=" ">
<path fill="none" stroke="#63b8ff" d="M234.43,-393.92C235.43,-387.85 236.37,-381.64 237.12,-375.75 243.52,-326.08 247.76,-268.35 250.06,-231.78"/>
<polygon fill="none" stroke="#63b8ff" points="250.06,-231.74 246.43,-225.51 250.79,-219.77 254.41,-226 250.06,-231.74"/>
</a>
</g>
<text text-anchor="middle" x="264.86" y="-302.5" font-family="Helvetica,sans-Serif" font-size="10.00" fill="grey"> +shape</text>
</g>
<!-- Node4&#45;&gt;Node8 -->
<g id="edge10_Node000008_Node000004" class="edge">
<title>Node4&#45;&gt;Node8</title>
<g id="a_edge10_Node000008_Node000004"><a xlink:title=" ">
<path fill="none" stroke="#63b8ff" d="M208.47,-393.85C201.86,-380.03 194.38,-364.39 187.63,-350.26"/>
<polygon fill="none" stroke="#63b8ff" points="187.72,-350.45 181.52,-346.77 182.54,-339.63 188.74,-343.31 187.72,-350.45"/>
</a>
</g>
<text text-anchor="middle" x="216.17" y="-366.25" font-family="Helvetica,sans-Serif" font-size="10.00" fill="grey"> +shape</text>
</g>
<!-- Node5&#45;&gt;Node1 -->
<g id="edge4_Node000001_Node000005" class="edge">
<title>Node5&#45;&gt;Node1</title>
<g id="a_edge4_Node000001_Node000005"><a xlink:title=" ">
<path fill="none" stroke="#63b8ff" d="M353.91,-169.48C350.34,-159.83 345.41,-148.88 339.12,-140 332.41,-130.52 324.34,-121.37 315.87,-112.89"/>
<polygon fill="none" stroke="#63b8ff" points="315.87,-112.89 308.77,-111.63 307.2,-104.59 314.3,-105.85 315.87,-112.89"/>
</a>
</g>
<text text-anchor="middle" x="388.76" y="-141.75" font-family="Helvetica,sans-Serif" font-size="10.00" fill="grey"> +next_exported_tile</text>
</g>
<!-- Node6 -->
<g id="Node000006" class="node">
<title>Node6</title>
<g id="a_Node000006"><a xlink:href="structTTL__offset__t.html" target="_top" xlink:title="Description of the 3D offset of an object.">
<polygon fill="white" stroke="none" points="369.88,-346.5 306.38,-346.5 306.38,-266.25 369.88,-266.25 369.88,-346.5"/>
<text text-anchor="start" x="310.38" y="-333" font-family="Helvetica,sans-Serif" font-size="10.00">TTL_offset_t</text>
<text text-anchor="start" x="320.62" y="-317.75" font-family="Helvetica,sans-Serif" font-size="10.00">+</text>
<text text-anchor="start" x="340.88" y="-317.75" font-family="Helvetica,sans-Serif" font-size="10.00">x</text>
<text text-anchor="start" x="320.62" y="-302.5" font-family="Helvetica,sans-Serif" font-size="10.00">+</text>
<text text-anchor="start" x="340.88" y="-302.5" font-family="Helvetica,sans-Serif" font-size="10.00">y</text>
<text text-anchor="start" x="320.62" y="-287.25" font-family="Helvetica,sans-Serif" font-size="10.00">+</text>
<text text-anchor="start" x="340.88" y="-287.25" font-family="Helvetica,sans-Serif" font-size="10.00">z</text>
<text text-anchor="start" x="336.62" y="-272" font-family="Helvetica,sans-Serif" font-size="10.00"> </text>
<polygon fill="#666666" stroke="#666666" points="306.38,-329.25 306.38,-329.25 369.88,-329.25 369.88,-329.25 306.38,-329.25"/>
<polygon fill="#666666" stroke="#666666" points="306.38,-283.5 306.38,-283.5 338.88,-283.5 338.88,-283.5 306.38,-283.5"/>
<polygon fill="#666666" stroke="#666666" points="338.88,-283.5 338.88,-283.5 369.88,-283.5 369.88,-283.5 338.88,-283.5"/>
<polygon fill="none" stroke="#666666" points="306.38,-266.25 306.38,-346.5 369.88,-346.5 369.88,-266.25 306.38,-266.25"/>
</a>
</g>
</g>
<!-- Node6&#45;&gt;Node5 -->
<g id="edge6_Node000005_Node000006" class="edge">
<title>Node6&#45;&gt;Node5</title>
<g id="a_edge6_Node000005_Node000006"><a xlink:title=" ">
<path fill="none" stroke="#63b8ff" d="M346.23,-266.5C348.61,-255.1 351.21,-242.67 353.55,-231.43"/>
<polygon fill="none" stroke="#63b8ff" points="353.53,-231.54 350.84,-224.85 355.98,-219.79 358.67,-226.48 353.53,-231.54"/>
</a>
</g>
<text text-anchor="middle" x="368.49" y="-238.75" font-family="Helvetica,sans-Serif" font-size="10.00" fill="grey"> +offset</text>
</g>
<!-- Node6&#45;&gt;Node7 -->
<g id="edge12_Node000007_Node000006" class="edge">
<title>Node6&#45;&gt;Node7</title>
<g id="a_edge12_Node000007_Node000006"><a xlink:title=" ">
<path fill="none" stroke="#63b8ff" d="M307.13,-266.41C302.34,-260.35 297.46,-254.14 292.88,-248.25 288.11,-242.14 283.07,-235.62 278.21,-229.3"/>
<polygon fill="none" stroke="#63b8ff" points="278.16,-229.22 271.33,-226.9 270.85,-219.7 277.68,-222.03 278.16,-229.22"/>
</a>
</g>
<text text-anchor="middle" x="319.5" y="-238.75" font-family="Helvetica,sans-Serif" font-size="10.00" fill="grey"> +sub_offset</text>
</g>
<!-- Node7&#45;&gt;Node1 -->
<g id="edge7_Node000001_Node000007" class="edge">
<title>Node7&#45;&gt;Node1</title>
<g id="a_edge7_Node000001_Node000007"><a xlink:title=" ">
<path fill="none" stroke="#63b8ff" d="M252.12,-169.38C252.12,-159.46 252.12,-147.36 252.12,-134.9"/>
<polygon fill="none" stroke="#63b8ff" points="252.13,-134.76 248.13,-128.76 252.13,-122.76 256.13,-128.76 252.13,-134.76"/>
</a>
</g>
<text text-anchor="middle" x="294.88" y="-141.75" font-family="Helvetica,sans-Serif" font-size="10.00" fill="grey"> +int_prev_imported</text>
</g>
<!-- Node8&#45;&gt;Node7 -->
<g id="edge8_Node000007_Node000008" class="edge">
<title>Node8&#45;&gt;Node7</title>
<g id="a_edge8_Node000007_Node000008"><a xlink:title=" ">
<path fill="none" stroke="#63b8ff" d="M180.44,-273.89C186.36,-261.72 194.01,-248.09 202.88,-237 205.43,-233.8 208.26,-230.66 211.23,-227.63"/>
<polygon fill="none" stroke="#63b8ff" points="211.07,-227.78 212.68,-220.75 219.79,-219.53 218.18,-226.56 211.07,-227.78"/>
</a>
</g>
<text text-anchor="middle" x="220.5" y="-238.75" font-family="Helvetica,sans-Serif" font-size="10.00" fill="grey"> +tensor</text>
</g>
</g>
</svg>
