<?xml version="1.0" encoding="UTF-8" standalone="no"?>
<!DOCTYPE svg PUBLIC "-//W3C//DTD SVG 1.1//EN"
 "http://www.w3.org/Graphics/SVG/1.1/DTD/svg11.dtd">
<!-- Generated by graphviz version 3.0.0 (20221109.1736)
 -->
<!-- Title: TTL_TENSOR_LOCATIONTTL_TENSOR_TYPE_tensor_t Pages: 1 -->
<svg width="188pt" height="204pt"
 viewBox="0.00 0.00 187.50 204.00" xmlns="http://www.w3.org/2000/svg" xmlns:xlink="http://www.w3.org/1999/xlink">
<g id="graph0" class="graph" transform="scale(1 1) rotate(0) translate(4 200)">
<title>TTL_TENSOR_LOCATIONTTL_TENSOR_TYPE_tensor_t</title>
<polygon fill="white" stroke="transparent" points="-4,4 -4,-200 183.5,-200 183.5,4 -4,4"/>
<!-- Node1 -->
<g id="node1" class="node">
<title>Node1</title>
<g id="a_node1"><a xlink:title="const and non&#45;const tensors in the appropriate address space">
<polygon fill="#bfbfbf" stroke="black" points="15,-0.5 15,-68.5 170,-68.5 170,-0.5 15,-0.5"/>
<text text-anchor="start" x="23" y="-56.5" font-family="Helvetica,sans-Serif" font-size="10.00">TTL_TENSOR_LOCATIONTTL</text>
<text text-anchor="middle" x="92.5" y="-45.5" font-family="Helvetica,sans-Serif" font-size="10.00">_TENSOR_TYPE_tensor_t</text>
<polyline fill="none" stroke="black" points="15,-38.5 170,-38.5 "/>
<text text-anchor="start" x="23" y="-26.5" font-family="Helvetica,sans-Serif" font-size="10.00">+ elem_size</text>
<polyline fill="none" stroke="black" points="15,-19.5 170,-19.5 "/>
<text text-anchor="start" x="23" y="-7.5" font-family="Helvetica,sans-Serif" font-size="10.00">+ TENSOR_ADDRESS()</text>
</a>
</g>
</g>
<!-- Node2 -->
<g id="node2" class="node">
<title>Node2</title>
<g id="a_node2"><a xlink:href="structTTL__layout__t.html" target="_top" xlink:title="Description of a Tensor layout in memory.">
<polygon fill="white" stroke="black" points="0,-122 0,-190 87,-190 87,-122 0,-122"/>
<text text-anchor="middle" x="43.5" y="-178" font-family="Helvetica,sans-Serif" font-size="10.00">TTL_layout_t</text>
<polyline fill="none" stroke="black" points="0,-171 87,-171 "/>
<text text-anchor="start" x="8" y="-159" font-family="Helvetica,sans-Serif" font-size="10.00">+ row_spacing</text>
<text text-anchor="start" x="8" y="-148" font-family="Helvetica,sans-Serif" font-size="10.00">+ plane_spacing</text>
<polyline fill="none" stroke="black" points="0,-141 87,-141 "/>
<text text-anchor="middle" x="43.5" y="-129" font-family="Helvetica,sans-Serif" font-size="10.00"> </text>
</a>
</g>
</g>
<!-- Node2&#45;&gt;Node1 -->
<g id="edge1" class="edge">
<title>Node2&#45;&gt;Node1</title>
<path fill="none" stroke="#404040" d="M57.15,-121.71C62.46,-108.76 68.62,-93.74 74.3,-79.89"/>
<polygon fill="none" stroke="#404040" points="74.37,-79.71 72.95,-72.64 78.92,-68.61 80.35,-75.68 74.37,-79.71"/>
<text text-anchor="middle" x="88.5" y="-90" font-family="Helvetica,sans-Serif" font-size="10.00"> +layout</text>
</g>
<!-- Node3 -->
<g id="node3" class="node">
<title>Node3</title>
<g id="a_node3"><a xlink:href="structTTL__shape__t.html" target="_top" xlink:title="Description of a Shape.">
<polygon fill="white" stroke="black" points="105.5,-116.5 105.5,-195.5 179.5,-195.5 179.5,-116.5 105.5,-116.5"/>
<text text-anchor="middle" x="142.5" y="-183.5" font-family="Helvetica,sans-Serif" font-size="10.00">TTL_shape_t</text>
<polyline fill="none" stroke="black" points="105.5,-176.5 179.5,-176.5 "/>
<text text-anchor="start" x="113.5" y="-164.5" font-family="Helvetica,sans-Serif" font-size="10.00">+ width</text>
<text text-anchor="start" x="113.5" y="-153.5" font-family="Helvetica,sans-Serif" font-size="10.00">+ height</text>
<text text-anchor="start" x="113.5" y="-142.5" font-family="Helvetica,sans-Serif" font-size="10.00">+ depth</text>
<polyline fill="none" stroke="black" points="105.5,-135.5 179.5,-135.5 "/>
<text text-anchor="middle" x="142.5" y="-123.5" font-family="Helvetica,sans-Serif" font-size="10.00"> </text>
</a>
</g>
</g>
<!-- Node3&#45;&gt;Node1 -->
<g id="edge2" class="edge">
<title>Node3&#45;&gt;Node1</title>
<path fill="none" stroke="#404040" d="M126.27,-116.2C121.43,-104.63 116.08,-91.86 111.1,-79.96"/>
<polygon fill="none" stroke="#404040" points="111.1,-79.96 105.1,-75.97 106.47,-68.89 112.48,-72.88 111.1,-79.96"/>
<text text-anchor="middle" x="135" y="-90" font-family="Helvetica,sans-Serif" font-size="10.00"> +shape</text>
</g>
</g>
</svg>
