<?xml version="1.0" encoding="UTF-8" standalone="no"?>
<!DOCTYPE svg PUBLIC "-//W3C//DTD SVG 1.1//EN"
 "http://www.w3.org/Graphics/SVG/1.1/DTD/svg11.dtd">
<!-- Generated by graphviz version 12.2.1 (20241206.2353)
 -->
<!-- Title: TTL_tiler_t Pages: 1 -->
<svg width="279pt" height="319pt"
 viewBox="0.00 0.00 278.88 318.50" xmlns="http://www.w3.org/2000/svg" xmlns:xlink="http://www.w3.org/1999/xlink">
<g id="graph0" class="graph" transform="scale(1 1) rotate(0) translate(4 314.5)">
<title>TTL_tiler_t</title>
<!-- Node1 -->
<g id="Node000001" class="node">
<title>Node1</title>
<g id="a_Node000001"><a xlink:title="TTL_tiler_t is the basic unit that describes how a tile is subdivided.">
<polygon fill="#999999" stroke="none" points="162.38,-126 75.38,-126 75.38,0 162.38,0 162.38,-126"/>
<text text-anchor="start" x="95.25" y="-112.5" font-family="Helvetica,sans-Serif" font-size="10.00">TTL_tiler_t</text>
<text text-anchor="start" x="79.38" y="-97.25" font-family="Helvetica,sans-Serif" font-size="10.00">+</text>
<text text-anchor="start" x="89.38" y="-97.25" font-family="Helvetica,sans-Serif" font-size="10.00">number_of_tiles</text>
<text text-anchor="start" x="79.38" y="-82" font-family="Helvetica,sans-Serif" font-size="10.00">+</text>
<text text-anchor="start" x="89.38" y="-82" font-family="Helvetica,sans-Serif" font-size="10.00">tiles_in_width</text>
<text text-anchor="start" x="79.38" y="-66.75" font-family="Helvetica,sans-Serif" font-size="10.00">+</text>
<text text-anchor="start" x="89.38" y="-66.75" font-family="Helvetica,sans-Serif" font-size="10.00">tiles_in_height</text>
<text text-anchor="start" x="79.38" y="-51.5" font-family="Helvetica,sans-Serif" font-size="10.00">+</text>
<text text-anchor="start" x="89.38" y="-51.5" font-family="Helvetica,sans-Serif" font-size="10.00">tiles_in_depth</text>
<text text-anchor="start" x="79.38" y="-36.25" font-family="Helvetica,sans-Serif" font-size="10.00">+</text>
<text text-anchor="start" x="89.38" y="-36.25" font-family="Helvetica,sans-Serif" font-size="10.00">tiles_in_plane</text>
<text text-anchor="start" x="79.38" y="-21" font-family="Helvetica,sans-Serif" font-size="10.00">+</text>
<text text-anchor="start" x="89.38" y="-21" font-family="Helvetica,sans-Serif" font-size="10.00">cache</text>
<text text-anchor="start" x="117.38" y="-5.75" font-family="Helvetica,sans-Serif" font-size="10.00"> </text>
<polygon fill="#666666" stroke="#666666" points="75.38,-108.75 75.38,-108.75 162.38,-108.75 162.38,-108.75 75.38,-108.75"/>
<polygon fill="#666666" stroke="#666666" points="75.38,-17.25 75.38,-17.25 87.38,-17.25 87.38,-17.25 75.38,-17.25"/>
<polygon fill="#666666" stroke="#666666" points="87.38,-17.25 87.38,-17.25 162.38,-17.25 162.38,-17.25 87.38,-17.25"/>
<polygon fill="none" stroke="#666666" points="75.38,0 75.38,-126 162.38,-126 162.38,0 75.38,0"/>
</a>
</g>
</g>
<!-- Node2 -->
<g id="Node000002" class="node">
<title>Node2</title>
<g id="a_Node000002"><a xlink:href="structTTL__shape__t.html" target="_top" xlink:title="Description of a Shape.">
<polygon fill="white" stroke="none" points="65.75,-287.62 0,-287.62 0,-207.38 65.75,-207.38 65.75,-287.62"/>
<text text-anchor="start" x="4" y="-274.12" font-family="Helvetica,sans-Serif" font-size="10.00">TTL_shape_t</text>
<text text-anchor="start" x="9.38" y="-258.88" font-family="Helvetica,sans-Serif" font-size="10.00">+</text>
<text text-anchor="start" x="24.75" y="-258.88" font-family="Helvetica,sans-Serif" font-size="10.00">width</text>
<text text-anchor="start" x="9.38" y="-243.62" font-family="Helvetica,sans-Serif" font-size="10.00">+</text>
<text text-anchor="start" x="24.75" y="-243.62" font-family="Helvetica,sans-Serif" font-size="10.00">height</text>
<text text-anchor="start" x="9.38" y="-228.38" font-family="Helvetica,sans-Serif" font-size="10.00">+</text>
<text text-anchor="start" x="24.75" y="-228.38" font-family="Helvetica,sans-Serif" font-size="10.00">depth</text>
<text text-anchor="start" x="31.38" y="-213.12" font-family="Helvetica,sans-Serif" font-size="10.00"> </text>
<polygon fill="#666666" stroke="#666666" points="0,-270.38 0,-270.38 65.75,-270.38 65.75,-270.38 0,-270.38"/>
<polygon fill="#666666" stroke="#666666" points="0,-224.62 0,-224.62 22.75,-224.62 22.75,-224.62 0,-224.62"/>
<polygon fill="#666666" stroke="#666666" points="22.75,-224.62 22.75,-224.62 65.75,-224.62 65.75,-224.62 22.75,-224.62"/>
<polygon fill="none" stroke="#666666" points="0,-207.38 0,-287.62 65.75,-287.62 65.75,-207.38 0,-207.38"/>
</a>
</g>
</g>
<!-- Node2&#45;&gt;Node1 -->
<g id="edge1_Node000001_Node000002" class="edge">
<title>Node2&#45;&gt;Node1</title>
<g id="a_edge1_Node000001_Node000002"><a xlink:title=" ">
<path fill="none" stroke="#63b8ff" d="M50.79,-207.5C59.63,-188.34 70.49,-164.93 80.38,-144 81.37,-141.9 82.38,-139.76 83.4,-137.61"/>
<polygon fill="none" stroke="#63b8ff" points="83.39,-137.62 82.36,-130.49 88.55,-126.79 89.58,-133.93 83.39,-137.62"/>
</a>
</g>
<text text-anchor="middle" x="97.62" y="-157" font-family="Helvetica,sans-Serif" font-size="10.00" fill="grey"> +space</text>
<text text-anchor="middle" x="97.62" y="-145.75" font-family="Helvetica,sans-Serif" font-size="10.00" fill="grey">+tile</text>
</g>
<!-- Node3 -->
<g id="Node000003" class="node">
<title>Node3</title>
<g id="a_Node000003"><a xlink:href="structTTL__overlap__t.html" target="_top" xlink:title="Description of the overlap in 3D space of adjacent tiles.">
<polygon fill="white" stroke="none" points="154.38,-287.62 83.38,-287.62 83.38,-207.38 154.38,-207.38 154.38,-287.62"/>
<text text-anchor="start" x="87.38" y="-274.12" font-family="Helvetica,sans-Serif" font-size="10.00">TTL_overlap_t</text>
<text text-anchor="start" x="94.06" y="-258.88" font-family="Helvetica,sans-Serif" font-size="10.00">+</text>
<text text-anchor="start" x="110.75" y="-258.88" font-family="Helvetica,sans-Serif" font-size="10.00">width</text>
<text text-anchor="start" x="94.06" y="-243.62" font-family="Helvetica,sans-Serif" font-size="10.00">+</text>
<text text-anchor="start" x="110.75" y="-243.62" font-family="Helvetica,sans-Serif" font-size="10.00">height</text>
<text text-anchor="start" x="94.06" y="-228.38" font-family="Helvetica,sans-Serif" font-size="10.00">+</text>
<text text-anchor="start" x="110.75" y="-228.38" font-family="Helvetica,sans-Serif" font-size="10.00">depth</text>
<text text-anchor="start" x="117.38" y="-213.12" font-family="Helvetica,sans-Serif" font-size="10.00"> </text>
<polygon fill="#666666" stroke="#666666" points="83.38,-270.38 83.38,-270.38 154.38,-270.38 154.38,-270.38 83.38,-270.38"/>
<polygon fill="#666666" stroke="#666666" points="83.38,-224.62 83.38,-224.62 108.75,-224.62 108.75,-224.62 83.38,-224.62"/>
<polygon fill="#666666" stroke="#666666" points="108.75,-224.62 108.75,-224.62 154.38,-224.62 154.38,-224.62 108.75,-224.62"/>
<polygon fill="none" stroke="#666666" points="83.38,-207.38 83.38,-287.62 154.38,-287.62 154.38,-207.38 83.38,-207.38"/>
</a>
</g>
</g>
<!-- Node3&#45;&gt;Node1 -->
<g id="edge2_Node000001_Node000003" class="edge">
<title>Node3&#45;&gt;Node1</title>
<g id="a_edge2_Node000001_Node000003"><a xlink:title=" ">
<path fill="none" stroke="#63b8ff" d="M118.88,-207.8C118.88,-187.76 118.88,-162.59 118.88,-138.93"/>
<polygon fill="none" stroke="#63b8ff" points="118.88,-138.89 114.88,-132.89 118.88,-126.89 122.88,-132.89 118.88,-138.89"/>
</a>
</g>
<text text-anchor="middle" x="138.75" y="-151.38" font-family="Helvetica,sans-Serif" font-size="10.00" fill="grey"> +overlap</text>
</g>
<!-- Node4 -->
<g id="Node000004" class="node">
<title>Node4</title>
<g id="a_Node000004"><a xlink:href="structTTL__augmentation__t.html" target="_top" xlink:title="3D description of the augmented margins">
<polygon fill="white" stroke="none" points="270.88,-310.5 172.88,-310.5 172.88,-184.5 270.88,-184.5 270.88,-310.5"/>
<text text-anchor="start" x="176.88" y="-297" font-family="Helvetica,sans-Serif" font-size="10.00">TTL_augmentation_t</text>
<text text-anchor="start" x="189.38" y="-281.75" font-family="Helvetica,sans-Serif" font-size="10.00">+</text>
<text text-anchor="start" x="211.88" y="-281.75" font-family="Helvetica,sans-Serif" font-size="10.00">left</text>
<text text-anchor="start" x="189.38" y="-266.5" font-family="Helvetica,sans-Serif" font-size="10.00">+</text>
<text text-anchor="start" x="211.88" y="-266.5" font-family="Helvetica,sans-Serif" font-size="10.00">right</text>
<text text-anchor="start" x="189.38" y="-251.25" font-family="Helvetica,sans-Serif" font-size="10.00">+</text>
<text text-anchor="start" x="211.88" y="-251.25" font-family="Helvetica,sans-Serif" font-size="10.00">top</text>
<text text-anchor="start" x="189.38" y="-236" font-family="Helvetica,sans-Serif" font-size="10.00">+</text>
<text text-anchor="start" x="211.88" y="-236" font-family="Helvetica,sans-Serif" font-size="10.00">bottom</text>
<text text-anchor="start" x="189.38" y="-220.75" font-family="Helvetica,sans-Serif" font-size="10.00">+</text>
<text text-anchor="start" x="211.88" y="-220.75" font-family="Helvetica,sans-Serif" font-size="10.00">front</text>
<text text-anchor="start" x="189.38" y="-205.5" font-family="Helvetica,sans-Serif" font-size="10.00">+</text>
<text text-anchor="start" x="211.88" y="-205.5" font-family="Helvetica,sans-Serif" font-size="10.00">back</text>
<text text-anchor="start" x="220.38" y="-190.25" font-family="Helvetica,sans-Serif" font-size="10.00"> </text>
<polygon fill="#666666" stroke="#666666" points="172.88,-293.25 172.88,-293.25 270.88,-293.25 270.88,-293.25 172.88,-293.25"/>
<polygon fill="#666666" stroke="#666666" points="172.88,-201.75 172.88,-201.75 209.88,-201.75 209.88,-201.75 172.88,-201.75"/>
<polygon fill="#666666" stroke="#666666" points="209.88,-201.75 209.88,-201.75 270.88,-201.75 270.88,-201.75 209.88,-201.75"/>
<polygon fill="none" stroke="#666666" points="172.88,-184.5 172.88,-310.5 270.88,-310.5 270.88,-184.5 172.88,-184.5"/>
</a>
</g>
</g>
<!-- Node4&#45;&gt;Node1 -->
<g id="edge3_Node000001_Node000004" class="edge">
<title>Node4&#45;&gt;Node1</title>
<g id="a_edge3_Node000001_Node000004"><a xlink:title=" ">
<path fill="none" stroke="#63b8ff" d="M187,-184.71C178.36,-169.4 169.02,-152.85 160.11,-137.06"/>
<polygon fill="none" stroke="#63b8ff" points="160.05,-136.96 153.62,-133.7 154.15,-126.51 160.59,-129.77 160.05,-136.96"/>
</a>
</g>
<text text-anchor="middle" x="209.92" y="-151.38" font-family="Helvetica,sans-Serif" font-size="10.00" fill="grey"> +augmentation</text>
</g>
</g>
</svg>
