<?xml version="1.0" encoding="UTF-8" standalone="no"?>
<!DOCTYPE svg PUBLIC "-//W3C//DTD SVG 1.1//EN"
 "http://www.w3.org/Graphics/SVG/1.1/DTD/svg11.dtd">
<!-- Generated by graphviz version 12.0.0 (20240704.0754)
 -->
<!-- Title: TTL_int_int_sub_tensor_t Pages: 1 -->
<svg width="273pt" height="310pt"
 viewBox="0.00 0.00 272.50 309.50" xmlns="http://www.w3.org/2000/svg" xmlns:xlink="http://www.w3.org/1999/xlink">
<g id="graph0" class="graph" transform="scale(1 1) rotate(0) translate(4 305.5)">
<title>TTL_int_int_sub_tensor_t</title>
<!-- Node1 -->
<g id="Node000001" class="node">
<title>Node1</title>
<g id="a_Node000001"><a xlink:title="const and non&#45;const sub tensors in the appropriate address space">
<polygon fill="#999999" stroke="none" points="207.5,-49 86.5,-49 86.5,0 207.5,0 207.5,-49"/>
<text text-anchor="start" x="91.5" y="-35.5" font-family="Helvetica,sans-Serif" font-size="10.00">TTL_int_int_sub_tensor_t</text>
<text text-anchor="start" x="110.5" y="-20.5" font-family="Helvetica,sans-Serif" font-size="10.00">+</text>
<text text-anchor="start" x="140.5" y="-20.5" font-family="Helvetica,sans-Serif" font-size="10.00">origin</text>
<text text-anchor="start" x="145.5" y="-5.5" font-family="Helvetica,sans-Serif" font-size="10.00"> </text>
<polygon fill="#666666" stroke="#666666" points="86.5,-32 86.5,-32 207.5,-32 207.5,-32 86.5,-32"/>
<polygon fill="#666666" stroke="#666666" points="86.5,-17 86.5,-17 138.5,-17 138.5,-17 86.5,-17"/>
<polygon fill="#666666" stroke="#666666" points="138.5,-17 138.5,-17 207.5,-17 207.5,-17 138.5,-17"/>
<polygon fill="none" stroke="#666666" points="86.5,0 86.5,-49 207.5,-49 207.5,0 86.5,0"/>
</a>
</g>
</g>
<!-- Node2 -->
<g id="Node000002" class="node">
<title>Node2</title>
<g id="a_Node000002"><a xlink:href="structTTL__int__int__tensor__t.html" target="_top" xlink:title="const and non&#45;const tensors in the appropriate address space">
<polygon fill="white" stroke="none" points="111,-167.75 11,-167.75 11,-103.75 111,-103.75 111,-167.75"/>
<text text-anchor="start" x="16" y="-154.25" font-family="Helvetica,sans-Serif" font-size="10.00">TTL_int_int_tensor_t</text>
<text text-anchor="start" x="24.5" y="-139.25" font-family="Helvetica,sans-Serif" font-size="10.00">+</text>
<text text-anchor="start" x="44" y="-139.25" font-family="Helvetica,sans-Serif" font-size="10.00">base</text>
<text text-anchor="start" x="24.5" y="-124.25" font-family="Helvetica,sans-Serif" font-size="10.00">+</text>
<text text-anchor="start" x="44" y="-124.25" font-family="Helvetica,sans-Serif" font-size="10.00">elem_size</text>
<text text-anchor="start" x="59.5" y="-109.25" font-family="Helvetica,sans-Serif" font-size="10.00"> </text>
<polygon fill="#666666" stroke="#666666" points="11,-150.75 11,-150.75 111,-150.75 111,-150.75 11,-150.75"/>
<polygon fill="#666666" stroke="#666666" points="11,-120.75 11,-120.75 42,-120.75 42,-120.75 11,-120.75"/>
<polygon fill="#666666" stroke="#666666" points="42,-120.75 42,-120.75 111,-120.75 111,-120.75 42,-120.75"/>
<polygon fill="none" stroke="#666666" points="11,-103.75 11,-167.75 111,-167.75 111,-103.75 11,-103.75"/>
</a>
</g>
</g>
<!-- Node2&#45;&gt;Node1 -->
<g id="edge1_Node000001_Node000002" class="edge">
<title>Node2&#45;&gt;Node1</title>
<g id="a_edge1_Node000001_Node000002"><a xlink:title=" ">
<path fill="none" stroke="#63b8ff" d="M74.66,-103.89C80.8,-91.76 88.7,-78.1 97.75,-67 100.36,-63.79 103.25,-60.65 106.28,-57.61"/>
<polygon fill="none" stroke="#63b8ff" points="106.21,-57.67 107.87,-50.66 114.98,-49.49 113.32,-56.51 106.21,-57.67"/>
</a>
</g>
<text text-anchor="middle" x="115.62" y="-68.75" font-family="Helvetica,sans-Serif" font-size="10.00" fill="grey"> +tensor</text>
</g>
<!-- Node3 -->
<g id="Node000003" class="node">
<title>Node3</title>
<g id="a_Node000003"><a xlink:href="structTTL__layout__t.html" target="_top" xlink:title="Description of a Tensor layout in memory.">
<polygon fill="white" stroke="none" points="80,-294 0,-294 0,-230 80,-230 80,-294"/>
<text text-anchor="start" x="11.5" y="-280.5" font-family="Helvetica,sans-Serif" font-size="10.00">TTL_layout_t</text>
<text text-anchor="start" x="4" y="-265.5" font-family="Helvetica,sans-Serif" font-size="10.00">+</text>
<text text-anchor="start" x="14" y="-265.5" font-family="Helvetica,sans-Serif" font-size="10.00">row_spacing</text>
<text text-anchor="start" x="4" y="-250.5" font-family="Helvetica,sans-Serif" font-size="10.00">+</text>
<text text-anchor="start" x="14" y="-250.5" font-family="Helvetica,sans-Serif" font-size="10.00">plane_spacing</text>
<text text-anchor="start" x="38.5" y="-235.5" font-family="Helvetica,sans-Serif" font-size="10.00"> </text>
<polygon fill="#666666" stroke="#666666" points="0,-277 0,-277 80,-277 80,-277 0,-277"/>
<polygon fill="#666666" stroke="#666666" points="0,-247 0,-247 12,-247 12,-247 0,-247"/>
<polygon fill="#666666" stroke="#666666" points="12,-247 12,-247 80,-247 80,-247 12,-247"/>
<polygon fill="none" stroke="#666666" points="0,-230 0,-294 80,-294 80,-230 0,-230"/>
</a>
</g>
</g>
<!-- Node3&#45;&gt;Node2 -->
<g id="edge2_Node000002_Node000003" class="edge">
<title>Node3&#45;&gt;Node2</title>
<g id="a_edge2_Node000002_Node000003"><a xlink:title=" ">
<path fill="none" stroke="#63b8ff" d="M38.51,-230.11C38.49,-218.47 39.11,-205.18 41.25,-193.25 42.03,-188.87 43.11,-184.38 44.35,-179.93"/>
<polygon fill="none" stroke="#63b8ff" points="44.35,-179.96 42.33,-173.04 47.95,-168.51 49.96,-175.44 44.35,-179.96"/>
</a>
</g>
<text text-anchor="middle" x="58.88" y="-195" font-family="Helvetica,sans-Serif" font-size="10.00" fill="grey"> +layout</text>
</g>
<!-- Node4 -->
<g id="Node000004" class="node">
<title>Node4</title>
<g id="a_Node000004"><a xlink:href="structTTL__shape__t.html" target="_top" xlink:title="Description of a Shape.">
<polygon fill="white" stroke="none" points="172.5,-301.5 105.5,-301.5 105.5,-222.5 172.5,-222.5 172.5,-301.5"/>
<text text-anchor="start" x="110.12" y="-288" font-family="Helvetica,sans-Serif" font-size="10.00">TTL_shape_t</text>
<text text-anchor="start" x="115" y="-273" font-family="Helvetica,sans-Serif" font-size="10.00">+</text>
<text text-anchor="start" x="130.5" y="-273" font-family="Helvetica,sans-Serif" font-size="10.00">width</text>
<text text-anchor="start" x="115" y="-258" font-family="Helvetica,sans-Serif" font-size="10.00">+</text>
<text text-anchor="start" x="130.5" y="-258" font-family="Helvetica,sans-Serif" font-size="10.00">height</text>
<text text-anchor="start" x="115" y="-243" font-family="Helvetica,sans-Serif" font-size="10.00">+</text>
<text text-anchor="start" x="130.5" y="-243" font-family="Helvetica,sans-Serif" font-size="10.00">depth</text>
<text text-anchor="start" x="137.5" y="-228" font-family="Helvetica,sans-Serif" font-size="10.00"> </text>
<polygon fill="#666666" stroke="#666666" points="105.5,-284.5 105.5,-284.5 172.5,-284.5 172.5,-284.5 105.5,-284.5"/>
<polygon fill="#666666" stroke="#666666" points="105.5,-239.5 105.5,-239.5 128.5,-239.5 128.5,-239.5 105.5,-239.5"/>
<polygon fill="#666666" stroke="#666666" points="128.5,-239.5 128.5,-239.5 172.5,-239.5 172.5,-239.5 128.5,-239.5"/>
<polygon fill="none" stroke="#666666" points="105.5,-222.5 105.5,-301.5 172.5,-301.5 172.5,-222.5 105.5,-222.5"/>
</a>
</g>
</g>
<!-- Node4&#45;&gt;Node1 -->
<g id="edge4_Node000001_Node000004" class="edge">
<title>Node4&#45;&gt;Node1</title>
<g id="a_edge4_Node000001_Node000004"><a xlink:title=" ">
<path fill="none" stroke="#63b8ff" d="M140.3,-222.64C141.82,-178.09 144.29,-105.15 145.77,-61.59"/>
<polygon fill="none" stroke="#63b8ff" points="145.77,-61.71 141.98,-55.58 146.18,-49.72 149.97,-55.85 145.77,-61.71"/>
</a>
</g>
<text text-anchor="middle" x="162.25" y="-131.88" font-family="Helvetica,sans-Serif" font-size="10.00" fill="grey"> +shape</text>
</g>
<!-- Node4&#45;&gt;Node2 -->
<g id="edge3_Node000002_Node000004" class="edge">
<title>Node4&#45;&gt;Node2</title>
<g id="a_edge3_Node000002_Node000004"><a xlink:title=" ">
<path fill="none" stroke="#63b8ff" d="M110.51,-222.5C106.36,-216.55 102.24,-210.42 98.5,-204.5 93.36,-196.38 88.17,-187.5 83.35,-178.94"/>
<polygon fill="none" stroke="#63b8ff" points="83.3,-178.83 76.9,-175.52 77.5,-168.33 83.9,-171.65 83.3,-178.83"/>
</a>
</g>
<text text-anchor="middle" x="116.25" y="-195" font-family="Helvetica,sans-Serif" font-size="10.00" fill="grey"> +shape</text>
</g>
<!-- Node5 -->
<g id="Node000005" class="node">
<title>Node5</title>
<g id="a_Node000005"><a xlink:href="structTTL__offset__t.html" target="_top" xlink:title="Description of the 3D offset of an object.">
<polygon fill="white" stroke="none" points="264.5,-175.25 199.5,-175.25 199.5,-96.25 264.5,-96.25 264.5,-175.25"/>
<text text-anchor="start" x="204.25" y="-161.75" font-family="Helvetica,sans-Serif" font-size="10.00">TTL_offset_t</text>
<text text-anchor="start" x="214" y="-146.75" font-family="Helvetica,sans-Serif" font-size="10.00">+</text>
<text text-anchor="start" x="234.5" y="-146.75" font-family="Helvetica,sans-Serif" font-size="10.00">x</text>
<text text-anchor="start" x="214" y="-131.75" font-family="Helvetica,sans-Serif" font-size="10.00">+</text>
<text text-anchor="start" x="234.5" y="-131.75" font-family="Helvetica,sans-Serif" font-size="10.00">y</text>
<text text-anchor="start" x="214" y="-116.75" font-family="Helvetica,sans-Serif" font-size="10.00">+</text>
<text text-anchor="start" x="234.5" y="-116.75" font-family="Helvetica,sans-Serif" font-size="10.00">z</text>
<text text-anchor="start" x="230.5" y="-101.75" font-family="Helvetica,sans-Serif" font-size="10.00"> </text>
<polygon fill="#666666" stroke="#666666" points="199.5,-158.25 199.5,-158.25 264.5,-158.25 264.5,-158.25 199.5,-158.25"/>
<polygon fill="#666666" stroke="#666666" points="199.5,-113.25 199.5,-113.25 232.5,-113.25 232.5,-113.25 199.5,-113.25"/>
<polygon fill="#666666" stroke="#666666" points="232.5,-113.25 232.5,-113.25 264.5,-113.25 264.5,-113.25 232.5,-113.25"/>
<polygon fill="none" stroke="#666666" points="199.5,-96.25 199.5,-175.25 264.5,-175.25 264.5,-96.25 199.5,-96.25"/>
</a>
</g>
</g>
<!-- Node5&#45;&gt;Node1 -->
<g id="edge5_Node000001_Node000005" class="edge">
<title>Node5&#45;&gt;Node1</title>
<g id="a_edge5_Node000001_Node000005"><a xlink:title=" ">
<path fill="none" stroke="#63b8ff" d="M202.27,-96.54C192.72,-84.26 182.22,-70.76 172.96,-58.86"/>
<polygon fill="none" stroke="#63b8ff" points="173.11,-59.06 166.27,-56.79 165.75,-49.59 172.59,-51.87 173.11,-59.06"/>
</a>
</g>
<text text-anchor="middle" x="212.62" y="-68.75" font-family="Helvetica,sans-Serif" font-size="10.00" fill="grey"> +sub_offset</text>
</g>
</g>
</svg>
