<?xml version="1.0" encoding="UTF-8" standalone="no"?>
<!DOCTYPE svg PUBLIC "-//W3C//DTD SVG 1.1//EN"
 "http://www.w3.org/Graphics/SVG/1.1/DTD/svg11.dtd">
<!-- Generated by graphviz version 12.2.1 (20241206.2353)
 -->
<!-- Title: TTL_ext_ushort_sub_tensor_t Pages: 1 -->
<svg width="276pt" height="324pt"
 viewBox="0.00 0.00 276.12 324.00" xmlns="http://www.w3.org/2000/svg" xmlns:xlink="http://www.w3.org/1999/xlink">
<g id="graph0" class="graph" transform="scale(1 1) rotate(0) translate(4 320)">
<title>TTL_ext_ushort_sub_tensor_t</title>
<!-- Node1 -->
<g id="Node000001" class="node">
<title>Node1</title>
<g id="a_Node000001"><a xlink:title="const and non&#45;const sub tensors in the appropriate address space">
<polygon fill="#999999" stroke="none" points="201,-61 103.75,-61 103.75,0 201,0 201,-61"/>
<text text-anchor="start" x="107.75" y="-47.5" font-family="Helvetica,sans-Serif" font-size="10.00">TTL_ext_ushort_sub</text>
<text text-anchor="start" x="132.12" y="-36.25" font-family="Helvetica,sans-Serif" font-size="10.00">_tensor_t</text>
<text text-anchor="start" x="121.75" y="-21" font-family="Helvetica,sans-Serif" font-size="10.00">+</text>
<text text-anchor="start" x="145.75" y="-21" font-family="Helvetica,sans-Serif" font-size="10.00">origin</text>
<text text-anchor="start" x="150.88" y="-5.75" font-family="Helvetica,sans-Serif" font-size="10.00"> </text>
<polygon fill="#666666" stroke="#666666" points="103.75,-32.5 103.75,-32.5 201,-32.5 201,-32.5 103.75,-32.5"/>
<polygon fill="#666666" stroke="#666666" points="103.75,-17.25 103.75,-17.25 143.75,-17.25 143.75,-17.25 103.75,-17.25"/>
<polygon fill="#666666" stroke="#666666" points="143.75,-17.25 143.75,-17.25 201,-17.25 201,-17.25 143.75,-17.25"/>
<polygon fill="none" stroke="#666666" points="103.75,0 103.75,-61 201,-61 201,0 103.75,0"/>
</a>
</g>
</g>
<!-- Node2 -->
<g id="Node000002" class="node">
<title>Node2</title>
<g id="a_Node000002"><a xlink:href="structTTL__ext__ushort__tensor__t.html" target="_top" xlink:title="const and non&#45;const tensors in the appropriate address space">
<polygon fill="white" stroke="none" points="116.75,-180.88 0,-180.88 0,-115.88 116.75,-115.88 116.75,-180.88"/>
<text text-anchor="start" x="4" y="-167.38" font-family="Helvetica,sans-Serif" font-size="10.00">TTL_ext_ushort_tensor_t</text>
<text text-anchor="start" x="17.81" y="-152.12" font-family="Helvetica,sans-Serif" font-size="10.00">+</text>
<text text-anchor="start" x="41.62" y="-152.12" font-family="Helvetica,sans-Serif" font-size="10.00">base</text>
<text text-anchor="start" x="17.81" y="-136.88" font-family="Helvetica,sans-Serif" font-size="10.00">+</text>
<text text-anchor="start" x="41.62" y="-136.88" font-family="Helvetica,sans-Serif" font-size="10.00">elem_size</text>
<text text-anchor="start" x="56.88" y="-121.62" font-family="Helvetica,sans-Serif" font-size="10.00"> </text>
<polygon fill="#666666" stroke="#666666" points="0,-163.62 0,-163.62 116.75,-163.62 116.75,-163.62 0,-163.62"/>
<polygon fill="#666666" stroke="#666666" points="0,-133.12 0,-133.12 39.62,-133.12 39.62,-133.12 0,-133.12"/>
<polygon fill="#666666" stroke="#666666" points="39.62,-133.12 39.62,-133.12 116.75,-133.12 116.75,-133.12 39.62,-133.12"/>
<polygon fill="none" stroke="#666666" points="0,-115.88 0,-180.88 116.75,-180.88 116.75,-115.88 0,-115.88"/>
</a>
</g>
</g>
<!-- Node2&#45;&gt;Node1 -->
<g id="edge1_Node000001_Node000002" class="edge">
<title>Node2&#45;&gt;Node1</title>
<g id="a_edge1_Node000001_Node000002"><a xlink:title=" ">
<path fill="none" stroke="#63b8ff" d="M76.8,-116.05C84.39,-104.04 93.63,-90.47 103.12,-79 105.58,-76.03 108.21,-73.05 110.92,-70.11"/>
<polygon fill="none" stroke="#63b8ff" points="110.83,-70.21 112.11,-63.11 119.15,-61.57 117.87,-68.66 110.83,-70.21"/>
</a>
</g>
<text text-anchor="middle" x="120.75" y="-80.75" font-family="Helvetica,sans-Serif" font-size="10.00" fill="grey"> +tensor</text>
</g>
<!-- Node3 -->
<g id="Node000003" class="node">
<title>Node3</title>
<g id="a_Node000003"><a xlink:href="structTTL__layout__t.html" target="_top" xlink:title="Description of a Tensor layout in memory.">
<polygon fill="white" stroke="none" points="85.5,-308.38 5.25,-308.38 5.25,-243.38 85.5,-243.38 85.5,-308.38"/>
<text text-anchor="start" x="16.88" y="-294.88" font-family="Helvetica,sans-Serif" font-size="10.00">TTL_layout_t</text>
<text text-anchor="start" x="9.25" y="-279.62" font-family="Helvetica,sans-Serif" font-size="10.00">+</text>
<text text-anchor="start" x="19.25" y="-279.62" font-family="Helvetica,sans-Serif" font-size="10.00">row_spacing</text>
<text text-anchor="start" x="9.25" y="-264.38" font-family="Helvetica,sans-Serif" font-size="10.00">+</text>
<text text-anchor="start" x="19.25" y="-264.38" font-family="Helvetica,sans-Serif" font-size="10.00">plane_spacing</text>
<text text-anchor="start" x="43.88" y="-249.12" font-family="Helvetica,sans-Serif" font-size="10.00"> </text>
<polygon fill="#666666" stroke="#666666" points="5.25,-291.12 5.25,-291.12 85.5,-291.12 85.5,-291.12 5.25,-291.12"/>
<polygon fill="#666666" stroke="#666666" points="5.25,-260.62 5.25,-260.62 17.25,-260.62 17.25,-260.62 5.25,-260.62"/>
<polygon fill="#666666" stroke="#666666" points="17.25,-260.62 17.25,-260.62 85.5,-260.62 85.5,-260.62 17.25,-260.62"/>
<polygon fill="none" stroke="#666666" points="5.25,-243.38 5.25,-308.38 85.5,-308.38 85.5,-243.38 5.25,-243.38"/>
</a>
</g>
</g>
<!-- Node3&#45;&gt;Node2 -->
<g id="edge2_Node000002_Node000003" class="edge">
<title>Node3&#45;&gt;Node2</title>
<g id="a_edge2_Node000002_Node000003"><a xlink:title=" ">
<path fill="none" stroke="#63b8ff" d="M44.74,-243.48C44.82,-231.84 45.29,-218.54 46.62,-206.5 47.11,-202.14 47.77,-197.62 48.52,-193.12"/>
<polygon fill="none" stroke="#63b8ff" points="48.49,-193.32 45.66,-186.68 50.7,-181.52 53.52,-188.16 48.49,-193.32"/>
</a>
</g>
<text text-anchor="middle" x="63.5" y="-208.25" font-family="Helvetica,sans-Serif" font-size="10.00" fill="grey"> +layout</text>
</g>
<!-- Node4 -->
<g id="Node000004" class="node">
<title>Node4</title>
<g id="a_Node000004"><a xlink:href="structTTL__shape__t.html" target="_top" xlink:title="Description of a Shape.">
<polygon fill="white" stroke="none" points="177.25,-316 111.5,-316 111.5,-235.75 177.25,-235.75 177.25,-316"/>
<text text-anchor="start" x="115.5" y="-302.5" font-family="Helvetica,sans-Serif" font-size="10.00">TTL_shape_t</text>
<text text-anchor="start" x="120.88" y="-287.25" font-family="Helvetica,sans-Serif" font-size="10.00">+</text>
<text text-anchor="start" x="136.25" y="-287.25" font-family="Helvetica,sans-Serif" font-size="10.00">width</text>
<text text-anchor="start" x="120.88" y="-272" font-family="Helvetica,sans-Serif" font-size="10.00">+</text>
<text text-anchor="start" x="136.25" y="-272" font-family="Helvetica,sans-Serif" font-size="10.00">height</text>
<text text-anchor="start" x="120.88" y="-256.75" font-family="Helvetica,sans-Serif" font-size="10.00">+</text>
<text text-anchor="start" x="136.25" y="-256.75" font-family="Helvetica,sans-Serif" font-size="10.00">depth</text>
<text text-anchor="start" x="142.88" y="-241.5" font-family="Helvetica,sans-Serif" font-size="10.00"> </text>
<polygon fill="#666666" stroke="#666666" points="111.5,-298.75 111.5,-298.75 177.25,-298.75 177.25,-298.75 111.5,-298.75"/>
<polygon fill="#666666" stroke="#666666" points="111.5,-253 111.5,-253 134.25,-253 134.25,-253 111.5,-253"/>
<polygon fill="#666666" stroke="#666666" points="134.25,-253 134.25,-253 177.25,-253 177.25,-253 134.25,-253"/>
<polygon fill="none" stroke="#666666" points="111.5,-235.75 111.5,-316 177.25,-316 177.25,-235.75 111.5,-235.75"/>
</a>
</g>
</g>
<!-- Node4&#45;&gt;Node1 -->
<g id="edge4_Node000001_Node000004" class="edge">
<title>Node4&#45;&gt;Node1</title>
<g id="a_edge4_Node000001_Node000004"><a xlink:title=" ">
<path fill="none" stroke="#63b8ff" d="M145.66,-235.77C147.12,-191.47 149.48,-119.53 150.98,-73.91"/>
<polygon fill="none" stroke="#63b8ff" points="150.98,-73.83 147.18,-67.7 151.38,-61.84 155.18,-67.97 150.98,-73.83"/>
</a>
</g>
<text text-anchor="middle" x="167.06" y="-144.5" font-family="Helvetica,sans-Serif" font-size="10.00" fill="grey"> +shape</text>
</g>
<!-- Node4&#45;&gt;Node2 -->
<g id="edge3_Node000002_Node000004" class="edge">
<title>Node4&#45;&gt;Node2</title>
<g id="a_edge3_Node000002_Node000004"><a xlink:title=" ">
<path fill="none" stroke="#63b8ff" d="M116.55,-235.96C112.28,-229.88 107.94,-223.66 103.88,-217.75 98.08,-209.32 91.97,-200.25 86.16,-191.55"/>
<polygon fill="none" stroke="#63b8ff" points="86.17,-191.56 79.51,-188.78 79.52,-181.57 86.17,-184.35 86.17,-191.56"/>
</a>
</g>
<text text-anchor="middle" x="121.12" y="-208.25" font-family="Helvetica,sans-Serif" font-size="10.00" fill="grey"> +shape</text>
</g>
<!-- Node5 -->
<g id="Node000005" class="node">
<title>Node5</title>
<g id="a_Node000005"><a xlink:href="structTTL__offset__t.html" target="_top" xlink:title="Description of the 3D offset of an object.">
<polygon fill="white" stroke="none" points="268.12,-188.5 204.62,-188.5 204.62,-108.25 268.12,-108.25 268.12,-188.5"/>
<text text-anchor="start" x="208.62" y="-175" font-family="Helvetica,sans-Serif" font-size="10.00">TTL_offset_t</text>
<text text-anchor="start" x="218.88" y="-159.75" font-family="Helvetica,sans-Serif" font-size="10.00">+</text>
<text text-anchor="start" x="239.12" y="-159.75" font-family="Helvetica,sans-Serif" font-size="10.00">x</text>
<text text-anchor="start" x="218.88" y="-144.5" font-family="Helvetica,sans-Serif" font-size="10.00">+</text>
<text text-anchor="start" x="239.12" y="-144.5" font-family="Helvetica,sans-Serif" font-size="10.00">y</text>
<text text-anchor="start" x="218.88" y="-129.25" font-family="Helvetica,sans-Serif" font-size="10.00">+</text>
<text text-anchor="start" x="239.12" y="-129.25" font-family="Helvetica,sans-Serif" font-size="10.00">z</text>
<text text-anchor="start" x="234.88" y="-114" font-family="Helvetica,sans-Serif" font-size="10.00"> </text>
<polygon fill="#666666" stroke="#666666" points="204.62,-171.25 204.62,-171.25 268.12,-171.25 268.12,-171.25 204.62,-171.25"/>
<polygon fill="#666666" stroke="#666666" points="204.62,-125.5 204.62,-125.5 237.12,-125.5 237.12,-125.5 204.62,-125.5"/>
<polygon fill="#666666" stroke="#666666" points="237.12,-125.5 237.12,-125.5 268.12,-125.5 268.12,-125.5 237.12,-125.5"/>
<polygon fill="none" stroke="#666666" points="204.62,-108.25 204.62,-188.5 268.12,-188.5 268.12,-108.25 204.62,-108.25"/>
</a>
</g>
</g>
<!-- Node5&#45;&gt;Node1 -->
<g id="edge5_Node000001_Node000005" class="edge">
<title>Node5&#45;&gt;Node1</title>
<g id="a_edge5_Node000001_Node000005"><a xlink:title=" ">
<path fill="none" stroke="#63b8ff" d="M208.17,-108.47C199.47,-96.47 189.88,-83.24 181.15,-71.19"/>
<polygon fill="none" stroke="#63b8ff" points="181.3,-71.4 174.54,-68.89 174.26,-61.69 181.02,-64.2 181.3,-71.4"/>
</a>
</g>
<text text-anchor="middle" x="221" y="-80.75" font-family="Helvetica,sans-Serif" font-size="10.00" fill="grey"> +sub_offset</text>
</g>
</g>
</svg>
