<?xml version="1.0" encoding="UTF-8" standalone="no"?>
<!DOCTYPE svg PUBLIC "-//W3C//DTD SVG 1.1//EN"
 "http://www.w3.org/Graphics/SVG/1.1/DTD/svg11.dtd">
<!-- Generated by graphviz version 12.0.0 (20240704.0754)
 -->
<!-- Title: TTL_io_uchar_tensor_t Pages: 1 -->
<svg width="275pt" height="417pt"
 viewBox="0.00 0.00 275.00 417.00" xmlns="http://www.w3.org/2000/svg" xmlns:xlink="http://www.w3.org/1999/xlink">
<g id="graph0" class="graph" transform="scale(1 1) rotate(0) translate(4 413)">
<title>TTL_io_uchar_tensor_t</title>
<!-- Node1 -->
<g id="Node000001" class="node">
<title>Node1</title>
<g id="a_Node000001"><a xlink:title="Describes a pair of internal Tensors after an operation.">
<polygon fill="#999999" stroke="none" points="204.5,-49 94.5,-49 94.5,0 204.5,0 204.5,-49"/>
<text text-anchor="start" x="99.25" y="-35.5" font-family="Helvetica,sans-Serif" font-size="10.00">TTL_io_uchar_tensor_t</text>
<text text-anchor="start" x="148" y="-20.5" font-family="Helvetica,sans-Serif" font-size="10.00"> </text>
<text text-anchor="start" x="148" y="-5.5" font-family="Helvetica,sans-Serif" font-size="10.00"> </text>
<polygon fill="#666666" stroke="#666666" points="94.5,-32 94.5,-32 204.5,-32 204.5,-32 94.5,-32"/>
<polygon fill="#666666" stroke="#666666" points="94.5,-17 94.5,-17 204.5,-17 204.5,-17 94.5,-17"/>
<polygon fill="none" stroke="#666666" points="94.5,0 94.5,-49 204.5,-49 204.5,0 94.5,0"/>
</a>
</g>
</g>
<!-- Node2 -->
<g id="Node000002" class="node">
<title>Node2</title>
<g id="a_Node000002"><a xlink:href="structTTL__int__uchar__sub__tensor__t.html" target="_top" xlink:title="const and non&#45;const sub tensors in the appropriate address space">
<polygon fill="white" stroke="none" points="216.5,-156.5 82.5,-156.5 82.5,-107.5 216.5,-107.5 216.5,-156.5"/>
<text text-anchor="start" x="87.25" y="-143" font-family="Helvetica,sans-Serif" font-size="10.00">TTL_int_uchar_sub_tensor_t</text>
<text text-anchor="start" x="109.5" y="-128" font-family="Helvetica,sans-Serif" font-size="10.00">+</text>
<text text-anchor="start" x="142.5" y="-128" font-family="Helvetica,sans-Serif" font-size="10.00">origin</text>
<text text-anchor="start" x="148" y="-113" font-family="Helvetica,sans-Serif" font-size="10.00"> </text>
<polygon fill="#666666" stroke="#666666" points="82.5,-139.5 82.5,-139.5 216.5,-139.5 216.5,-139.5 82.5,-139.5"/>
<polygon fill="#666666" stroke="#666666" points="82.5,-124.5 82.5,-124.5 140.5,-124.5 140.5,-124.5 82.5,-124.5"/>
<polygon fill="#666666" stroke="#666666" points="140.5,-124.5 140.5,-124.5 216.5,-124.5 216.5,-124.5 140.5,-124.5"/>
<polygon fill="none" stroke="#666666" points="82.5,-107.5 82.5,-156.5 216.5,-156.5 216.5,-107.5 82.5,-107.5"/>
</a>
</g>
</g>
<!-- Node2&#45;&gt;Node1 -->
<g id="edge1_Node000001_Node000002" class="edge">
<title>Node2&#45;&gt;Node1</title>
<g id="a_edge1_Node000001_Node000002"><a xlink:title=" ">
<path fill="none" stroke="#63b8ff" d="M149.5,-107.59C149.5,-94.06 149.5,-76.77 149.5,-61.55"/>
<polygon fill="none" stroke="#63b8ff" points="149.5,-61.75 145.5,-55.75 149.5,-49.75 153.5,-55.75 149.5,-61.75"/>
</a>
</g>
<text text-anchor="middle" x="184.75" y="-80" font-family="Helvetica,sans-Serif" font-size="10.00" fill="grey"> +imported_to</text>
<text text-anchor="middle" x="184.75" y="-68.75" font-family="Helvetica,sans-Serif" font-size="10.00" fill="grey">+to_export_from</text>
</g>
<!-- Node3 -->
<g id="Node000003" class="node">
<title>Node3</title>
<g id="a_Node000003"><a xlink:href="structTTL__int__uchar__tensor__t.html" target="_top" xlink:title="const and non&#45;const tensors in the appropriate address space">
<polygon fill="white" stroke="none" points="113,-275.25 0,-275.25 0,-211.25 113,-211.25 113,-275.25"/>
<text text-anchor="start" x="4.75" y="-261.75" font-family="Helvetica,sans-Serif" font-size="10.00">TTL_int_uchar_tensor_t</text>
<text text-anchor="start" x="17" y="-246.75" font-family="Helvetica,sans-Serif" font-size="10.00">+</text>
<text text-anchor="start" x="40" y="-246.75" font-family="Helvetica,sans-Serif" font-size="10.00">base</text>
<text text-anchor="start" x="17" y="-231.75" font-family="Helvetica,sans-Serif" font-size="10.00">+</text>
<text text-anchor="start" x="40" y="-231.75" font-family="Helvetica,sans-Serif" font-size="10.00">elem_size</text>
<text text-anchor="start" x="55" y="-216.75" font-family="Helvetica,sans-Serif" font-size="10.00"> </text>
<polygon fill="#666666" stroke="#666666" points="0,-258.25 0,-258.25 113,-258.25 113,-258.25 0,-258.25"/>
<polygon fill="#666666" stroke="#666666" points="0,-228.25 0,-228.25 38,-228.25 38,-228.25 0,-228.25"/>
<polygon fill="#666666" stroke="#666666" points="38,-228.25 38,-228.25 113,-228.25 113,-228.25 38,-228.25"/>
<polygon fill="none" stroke="#666666" points="0,-211.25 0,-275.25 113,-275.25 113,-211.25 0,-211.25"/>
</a>
</g>
</g>
<!-- Node3&#45;&gt;Node2 -->
<g id="edge2_Node000002_Node000003" class="edge">
<title>Node3&#45;&gt;Node2</title>
<g id="a_edge2_Node000002_Node000003"><a xlink:title=" ">
<path fill="none" stroke="#63b8ff" d="M73.65,-211.54C81.08,-199.42 90.35,-185.74 100.25,-174.5 103.02,-171.35 106.04,-168.24 109.17,-165.21"/>
<polygon fill="none" stroke="#63b8ff" points="109.23,-165.15 110.97,-158.16 118.1,-157.07 116.36,-164.07 109.23,-165.15"/>
</a>
</g>
<text text-anchor="middle" x="118.12" y="-176.25" font-family="Helvetica,sans-Serif" font-size="10.00" fill="grey"> +tensor</text>
</g>
<!-- Node4 -->
<g id="Node000004" class="node">
<title>Node4</title>
<g id="a_Node000004"><a xlink:href="structTTL__layout__t.html" target="_top" xlink:title="Description of a Tensor layout in memory.">
<polygon fill="white" stroke="none" points="82.5,-401.5 2.5,-401.5 2.5,-337.5 82.5,-337.5 82.5,-401.5"/>
<text text-anchor="start" x="14" y="-388" font-family="Helvetica,sans-Serif" font-size="10.00">TTL_layout_t</text>
<text text-anchor="start" x="6.5" y="-373" font-family="Helvetica,sans-Serif" font-size="10.00">+</text>
<text text-anchor="start" x="16.5" y="-373" font-family="Helvetica,sans-Serif" font-size="10.00">row_spacing</text>
<text text-anchor="start" x="6.5" y="-358" font-family="Helvetica,sans-Serif" font-size="10.00">+</text>
<text text-anchor="start" x="16.5" y="-358" font-family="Helvetica,sans-Serif" font-size="10.00">plane_spacing</text>
<text text-anchor="start" x="41" y="-343" font-family="Helvetica,sans-Serif" font-size="10.00"> </text>
<polygon fill="#666666" stroke="#666666" points="2.5,-384.5 2.5,-384.5 82.5,-384.5 82.5,-384.5 2.5,-384.5"/>
<polygon fill="#666666" stroke="#666666" points="2.5,-354.5 2.5,-354.5 14.5,-354.5 14.5,-354.5 2.5,-354.5"/>
<polygon fill="#666666" stroke="#666666" points="14.5,-354.5 14.5,-354.5 82.5,-354.5 82.5,-354.5 14.5,-354.5"/>
<polygon fill="none" stroke="#666666" points="2.5,-337.5 2.5,-401.5 82.5,-401.5 82.5,-337.5 2.5,-337.5"/>
</a>
</g>
</g>
<!-- Node4&#45;&gt;Node3 -->
<g id="edge3_Node000003_Node000004" class="edge">
<title>Node4&#45;&gt;Node3</title>
<g id="a_edge3_Node000003_Node000004"><a xlink:title=" ">
<path fill="none" stroke="#63b8ff" d="M41.75,-337.72C41.81,-326.1 42.3,-312.78 43.75,-300.75 44.26,-296.56 44.94,-292.22 45.73,-287.9"/>
<polygon fill="none" stroke="#63b8ff" points="45.75,-287.78 43.04,-281.1 48.16,-276.02 50.87,-282.7 45.75,-287.78"/>
</a>
</g>
<text text-anchor="middle" x="61.38" y="-302.5" font-family="Helvetica,sans-Serif" font-size="10.00" fill="grey"> +layout</text>
</g>
<!-- Node5 -->
<g id="Node000005" class="node">
<title>Node5</title>
<g id="a_Node000005"><a xlink:href="structTTL__shape__t.html" target="_top" xlink:title="Description of a Shape.">
<polygon fill="white" stroke="none" points="175,-409 108,-409 108,-330 175,-330 175,-409"/>
<text text-anchor="start" x="112.62" y="-395.5" font-family="Helvetica,sans-Serif" font-size="10.00">TTL_shape_t</text>
<text text-anchor="start" x="117.5" y="-380.5" font-family="Helvetica,sans-Serif" font-size="10.00">+</text>
<text text-anchor="start" x="133" y="-380.5" font-family="Helvetica,sans-Serif" font-size="10.00">width</text>
<text text-anchor="start" x="117.5" y="-365.5" font-family="Helvetica,sans-Serif" font-size="10.00">+</text>
<text text-anchor="start" x="133" y="-365.5" font-family="Helvetica,sans-Serif" font-size="10.00">height</text>
<text text-anchor="start" x="117.5" y="-350.5" font-family="Helvetica,sans-Serif" font-size="10.00">+</text>
<text text-anchor="start" x="133" y="-350.5" font-family="Helvetica,sans-Serif" font-size="10.00">depth</text>
<text text-anchor="start" x="140" y="-335.5" font-family="Helvetica,sans-Serif" font-size="10.00"> </text>
<polygon fill="#666666" stroke="#666666" points="108,-392 108,-392 175,-392 175,-392 108,-392"/>
<polygon fill="#666666" stroke="#666666" points="108,-347 108,-347 131,-347 131,-347 108,-347"/>
<polygon fill="#666666" stroke="#666666" points="131,-347 131,-347 175,-347 175,-347 131,-347"/>
<polygon fill="none" stroke="#666666" points="108,-330 108,-409 175,-409 175,-330 108,-330"/>
</a>
</g>
</g>
<!-- Node5&#45;&gt;Node2 -->
<g id="edge5_Node000002_Node000005" class="edge">
<title>Node5&#45;&gt;Node2</title>
<g id="a_edge5_Node000002_Node000005"><a xlink:title=" ">
<path fill="none" stroke="#63b8ff" d="M142.8,-330.14C144.32,-285.59 146.79,-212.65 148.27,-169.09"/>
<polygon fill="none" stroke="#63b8ff" points="148.27,-169.21 144.48,-163.08 148.68,-157.22 152.47,-163.35 148.27,-169.21"/>
</a>
</g>
<text text-anchor="middle" x="164.75" y="-239.38" font-family="Helvetica,sans-Serif" font-size="10.00" fill="grey"> +shape</text>
</g>
<!-- Node5&#45;&gt;Node3 -->
<g id="edge4_Node000003_Node000005" class="edge">
<title>Node5&#45;&gt;Node3</title>
<g id="a_edge4_Node000003_Node000005"><a xlink:title=" ">
<path fill="none" stroke="#63b8ff" d="M113.62,-330.05C109.35,-324.04 105.03,-317.87 101,-312 95.23,-303.6 89.17,-294.53 83.43,-285.84"/>
<polygon fill="none" stroke="#63b8ff" points="83.48,-285.9 76.84,-283.08 76.89,-275.87 83.53,-278.69 83.48,-285.9"/>
</a>
</g>
<text text-anchor="middle" x="118.75" y="-302.5" font-family="Helvetica,sans-Serif" font-size="10.00" fill="grey"> +shape</text>
</g>
<!-- Node6 -->
<g id="Node000006" class="node">
<title>Node6</title>
<g id="a_Node000006"><a xlink:href="structTTL__offset__t.html" target="_top" xlink:title="Description of the 3D offset of an object.">
<polygon fill="white" stroke="none" points="267,-282.75 202,-282.75 202,-203.75 267,-203.75 267,-282.75"/>
<text text-anchor="start" x="206.75" y="-269.25" font-family="Helvetica,sans-Serif" font-size="10.00">TTL_offset_t</text>
<text text-anchor="start" x="216.5" y="-254.25" font-family="Helvetica,sans-Serif" font-size="10.00">+</text>
<text text-anchor="start" x="237" y="-254.25" font-family="Helvetica,sans-Serif" font-size="10.00">x</text>
<text text-anchor="start" x="216.5" y="-239.25" font-family="Helvetica,sans-Serif" font-size="10.00">+</text>
<text text-anchor="start" x="237" y="-239.25" font-family="Helvetica,sans-Serif" font-size="10.00">y</text>
<text text-anchor="start" x="216.5" y="-224.25" font-family="Helvetica,sans-Serif" font-size="10.00">+</text>
<text text-anchor="start" x="237" y="-224.25" font-family="Helvetica,sans-Serif" font-size="10.00">z</text>
<text text-anchor="start" x="233" y="-209.25" font-family="Helvetica,sans-Serif" font-size="10.00"> </text>
<polygon fill="#666666" stroke="#666666" points="202,-265.75 202,-265.75 267,-265.75 267,-265.75 202,-265.75"/>
<polygon fill="#666666" stroke="#666666" points="202,-220.75 202,-220.75 235,-220.75 235,-220.75 202,-220.75"/>
<polygon fill="#666666" stroke="#666666" points="235,-220.75 235,-220.75 267,-220.75 267,-220.75 235,-220.75"/>
<polygon fill="none" stroke="#666666" points="202,-203.75 202,-282.75 267,-282.75 267,-203.75 202,-203.75"/>
</a>
</g>
</g>
<!-- Node6&#45;&gt;Node2 -->
<g id="edge6_Node000002_Node000006" class="edge">
<title>Node6&#45;&gt;Node2</title>
<g id="a_edge6_Node000002_Node000006"><a xlink:title=" ">
<path fill="none" stroke="#63b8ff" d="M204.77,-204.04C195.22,-191.76 184.72,-178.26 175.46,-166.36"/>
<polygon fill="none" stroke="#63b8ff" points="175.61,-166.56 168.77,-164.29 168.25,-157.09 175.09,-159.37 175.61,-166.56"/>
</a>
</g>
<text text-anchor="middle" x="215.12" y="-176.25" font-family="Helvetica,sans-Serif" font-size="10.00" fill="grey"> +sub_offset</text>
</g>
</g>
</svg>
