<?xml version="1.0" encoding="UTF-8" standalone="no"?>
<!DOCTYPE svg PUBLIC "-//W3C//DTD SVG 1.1//EN"
 "http://www.w3.org/Graphics/SVG/1.1/DTD/svg11.dtd">
<!-- Generated by graphviz version 3.0.0 (20221109.1736)
 -->
<!-- Title: TTL_TENSOR_LOCATIONTTL_TENSOR_TYPE_sub_tensor_t Pages: 1 -->
<svg width="325pt" height="331pt"
 viewBox="0.00 0.00 324.50 331.00" xmlns="http://www.w3.org/2000/svg" xmlns:xlink="http://www.w3.org/1999/xlink">
<g id="graph0" class="graph" transform="scale(1 1) rotate(0) translate(4 327)">
<title>TTL_TENSOR_LOCATIONTTL_TENSOR_TYPE_sub_tensor_t</title>
<polygon fill="white" stroke="transparent" points="-4,4 -4,-327 320.5,-327 320.5,4 -4,4"/>
<!-- Node1 -->
<g id="node1" class="node">
<title>Node1</title>
<g id="a_node1"><a xlink:title="const and non&#45;const sub tensors in the appropriate address space">
<polygon fill="#bfbfbf" stroke="black" points="114,-0.5 114,-68.5 269,-68.5 269,-0.5 114,-0.5"/>
<text text-anchor="start" x="122" y="-56.5" font-family="Helvetica,sans-Serif" font-size="10.00">TTL_TENSOR_LOCATIONTTL</text>
<text text-anchor="middle" x="191.5" y="-45.5" font-family="Helvetica,sans-Serif" font-size="10.00">_TENSOR_TYPE_sub_tensor_t</text>
<polyline fill="none" stroke="black" points="114,-38.5 269,-38.5 "/>
<text text-anchor="start" x="122" y="-26.5" font-family="Helvetica,sans-Serif" font-size="10.00">+ origin</text>
<polyline fill="none" stroke="black" points="114,-19.5 269,-19.5 "/>
<text text-anchor="middle" x="191.5" y="-7.5" font-family="Helvetica,sans-Serif" font-size="10.00"> </text>
</a>
</g>
</g>
<!-- Node2 -->
<g id="node2" class="node">
<title>Node2</title>
<g id="a_node2"><a xlink:href="structTTL__TENSOR__LOCATIONTTL__TENSOR__TYPE__tensor__t.html" target="_top" xlink:title="const and non&#45;const tensors in the appropriate address space">
<polygon fill="white" stroke="black" points="0,-122 0,-190 155,-190 155,-122 0,-122"/>
<text text-anchor="start" x="8" y="-178" font-family="Helvetica,sans-Serif" font-size="10.00">TTL_TENSOR_LOCATIONTTL</text>
<text text-anchor="middle" x="77.5" y="-167" font-family="Helvetica,sans-Serif" font-size="10.00">_TENSOR_TYPE_tensor_t</text>
<polyline fill="none" stroke="black" points="0,-160 155,-160 "/>
<text text-anchor="start" x="8" y="-148" font-family="Helvetica,sans-Serif" font-size="10.00">+ elem_size</text>
<polyline fill="none" stroke="black" points="0,-141 155,-141 "/>
<text text-anchor="start" x="8" y="-129" font-family="Helvetica,sans-Serif" font-size="10.00">+ TENSOR_ADDRESS()</text>
</a>
</g>
</g>
<!-- Node2&#45;&gt;Node1 -->
<g id="edge1" class="edge">
<title>Node2&#45;&gt;Node1</title>
<path fill="none" stroke="#404040" d="M108.65,-121.7C119.06,-110.63 130.75,-98.25 141.5,-87 144.52,-83.84 147.65,-80.58 150.8,-77.31"/>
<polygon fill="none" stroke="#404040" points="150.81,-77.3 152.1,-70.21 159.15,-68.67 157.86,-75.77 150.81,-77.3"/>
<text text-anchor="middle" x="159.5" y="-90" font-family="Helvetica,sans-Serif" font-size="10.00"> +tensor</text>
</g>
<!-- Node3 -->
<g id="node3" class="node">
<title>Node3</title>
<g id="a_node3"><a xlink:href="structTTL__layout__t.html" target="_top" xlink:title="Description of a Tensor layout in memory.">
<polygon fill="white" stroke="black" points="34,-249 34,-317 121,-317 121,-249 34,-249"/>
<text text-anchor="middle" x="77.5" y="-305" font-family="Helvetica,sans-Serif" font-size="10.00">TTL_layout_t</text>
<polyline fill="none" stroke="black" points="34,-298 121,-298 "/>
<text text-anchor="start" x="42" y="-286" font-family="Helvetica,sans-Serif" font-size="10.00">+ row_spacing</text>
<text text-anchor="start" x="42" y="-275" font-family="Helvetica,sans-Serif" font-size="10.00">+ plane_spacing</text>
<polyline fill="none" stroke="black" points="34,-268 121,-268 "/>
<text text-anchor="middle" x="77.5" y="-256" font-family="Helvetica,sans-Serif" font-size="10.00"> </text>
</a>
</g>
</g>
<!-- Node3&#45;&gt;Node2 -->
<g id="edge2" class="edge">
<title>Node3&#45;&gt;Node2</title>
<path fill="none" stroke="#404040" d="M77.5,-248.83C77.5,-234.7 77.5,-217.99 77.5,-202.72"/>
<polygon fill="none" stroke="#404040" points="77.5,-202.32 73.5,-196.32 77.5,-190.32 81.5,-196.32 77.5,-202.32"/>
<text text-anchor="middle" x="94.5" y="-217" font-family="Helvetica,sans-Serif" font-size="10.00"> +layout</text>
</g>
<!-- Node4 -->
<g id="node4" class="node">
<title>Node4</title>
<g id="a_node4"><a xlink:href="structTTL__shape__t.html" target="_top" xlink:title="Description of a Shape.">
<polygon fill="white" stroke="black" points="146.5,-243.5 146.5,-322.5 220.5,-322.5 220.5,-243.5 146.5,-243.5"/>
<text text-anchor="middle" x="183.5" y="-310.5" font-family="Helvetica,sans-Serif" font-size="10.00">TTL_shape_t</text>
<polyline fill="none" stroke="black" points="146.5,-303.5 220.5,-303.5 "/>
<text text-anchor="start" x="154.5" y="-291.5" font-family="Helvetica,sans-Serif" font-size="10.00">+ width</text>
<text text-anchor="start" x="154.5" y="-280.5" font-family="Helvetica,sans-Serif" font-size="10.00">+ height</text>
<text text-anchor="start" x="154.5" y="-269.5" font-family="Helvetica,sans-Serif" font-size="10.00">+ depth</text>
<polyline fill="none" stroke="black" points="146.5,-262.5 220.5,-262.5 "/>
<text text-anchor="middle" x="183.5" y="-250.5" font-family="Helvetica,sans-Serif" font-size="10.00"> </text>
</a>
</g>
</g>
<!-- Node4&#45;&gt;Node1 -->
<g id="edge4" class="edge">
<title>Node4&#45;&gt;Node1</title>
<path fill="none" stroke="#404040" d="M184.75,-243.48C186.18,-199.45 188.52,-127.45 190.03,-80.78"/>
<polygon fill="none" stroke="#404040" points="190.04,-80.61 186.23,-74.48 190.43,-68.62 194.23,-74.74 190.04,-80.61"/>
<text text-anchor="middle" x="207" y="-153.5" font-family="Helvetica,sans-Serif" font-size="10.00"> +shape</text>
</g>
<!-- Node4&#45;&gt;Node2 -->
<g id="edge3" class="edge">
<title>Node4&#45;&gt;Node2</title>
<path fill="none" stroke="#404040" d="M150.83,-243.48C139.07,-229.6 125.73,-213.88 113.68,-199.67"/>
<polygon fill="none" stroke="#404040" points="113.35,-199.27 106.42,-197.29 105.59,-190.12 112.52,-192.11 113.35,-199.27"/>
<text text-anchor="middle" x="152" y="-217" font-family="Helvetica,sans-Serif" font-size="10.00"> +shape</text>
</g>
<!-- Node5 -->
<g id="node5" class="node">
<title>Node5</title>
<g id="a_node5"><a xlink:href="structTTL__offset__t.html" target="_top" xlink:title="Description of the 3D offset of an object.">
<polygon fill="white" stroke="black" points="244.5,-116.5 244.5,-195.5 316.5,-195.5 316.5,-116.5 244.5,-116.5"/>
<text text-anchor="middle" x="280.5" y="-183.5" font-family="Helvetica,sans-Serif" font-size="10.00">TTL_offset_t</text>
<polyline fill="none" stroke="black" points="244.5,-176.5 316.5,-176.5 "/>
<text text-anchor="start" x="252.5" y="-164.5" font-family="Helvetica,sans-Serif" font-size="10.00">+ x</text>
<text text-anchor="start" x="252.5" y="-153.5" font-family="Helvetica,sans-Serif" font-size="10.00">+ y</text>
<text text-anchor="start" x="252.5" y="-142.5" font-family="Helvetica,sans-Serif" font-size="10.00">+ z</text>
<polyline fill="none" stroke="black" points="244.5,-135.5 316.5,-135.5 "/>
<text text-anchor="middle" x="280.5" y="-123.5" font-family="Helvetica,sans-Serif" font-size="10.00"> </text>
</a>
</g>
</g>
<!-- Node5&#45;&gt;Node1 -->
<g id="edge5" class="edge">
<title>Node5&#45;&gt;Node1</title>
<path fill="none" stroke="#404040" d="M251.6,-116.2C242.72,-104.28 232.89,-91.07 223.79,-78.86"/>
<polygon fill="none" stroke="#404040" points="223.53,-78.51 216.74,-76.09 216.37,-68.89 223.16,-71.31 223.53,-78.51"/>
<text text-anchor="middle" x="262.5" y="-90" font-family="Helvetica,sans-Serif" font-size="10.00"> +sub_offset</text>
</g>
</g>
</svg>
