<?xml version="1.0" encoding="UTF-8" standalone="no"?>
<!DOCTYPE svg PUBLIC "-//W3C//DTD SVG 1.1//EN"
 "http://www.w3.org/Graphics/SVG/1.1/DTD/svg11.dtd">
<!-- Generated by graphviz version 12.0.0 (20240704.0754)
 -->
<!-- Title: TTL_export_double_const_int_tensor_buffering_t Pages: 1 -->
<svg width="257pt" height="362pt"
 viewBox="0.00 0.00 256.50 361.75" xmlns="http://www.w3.org/2000/svg" xmlns:xlink="http://www.w3.org/1999/xlink">
<g id="graph0" class="graph" transform="scale(1 1) rotate(0) translate(4 357.75)">
<title>TTL_export_double_const_int_tensor_buffering_t</title>
<!-- Node1 -->
<g id="Node000001" class="node">
<title>Node1</title>
<g id="a_Node000001"><a xlink:title="Data required to perform double buffer pipelining.">
<polygon fill="#999999" stroke="none" points="187,-105 65,-105 65,0 187,0 187,-105"/>
<text text-anchor="start" x="69.75" y="-91.5" font-family="Helvetica,sans-Serif" font-size="10.00">TTL_export_double_const</text>
<text text-anchor="start" x="76.88" y="-80.25" font-family="Helvetica,sans-Serif" font-size="10.00">_int_tensor_buffering_t</text>
<text text-anchor="start" x="85.5" y="-65.5" font-family="Helvetica,sans-Serif" font-size="10.00">+</text>
<text text-anchor="start" x="112" y="-65.5" font-family="Helvetica,sans-Serif" font-size="10.00">index</text>
<text text-anchor="start" x="85.5" y="-50.5" font-family="Helvetica,sans-Serif" font-size="10.00">+</text>
<text text-anchor="start" x="112" y="-50.5" font-family="Helvetica,sans-Serif" font-size="10.00">int_base</text>
<text text-anchor="start" x="85.5" y="-35.5" font-family="Helvetica,sans-Serif" font-size="10.00">+</text>
<text text-anchor="start" x="112" y="-35.5" font-family="Helvetica,sans-Serif" font-size="10.00">common</text>
<text text-anchor="start" x="85.5" y="-20.5" font-family="Helvetica,sans-Serif" font-size="10.00">+</text>
<text text-anchor="start" x="112" y="-20.5" font-family="Helvetica,sans-Serif" font-size="10.00">event</text>
<text text-anchor="start" x="124.5" y="-5.5" font-family="Helvetica,sans-Serif" font-size="10.00"> </text>
<polygon fill="#666666" stroke="#666666" points="65,-77 65,-77 187,-77 187,-77 65,-77"/>
<polygon fill="#666666" stroke="#666666" points="65,-17 65,-17 110,-17 110,-17 65,-17"/>
<polygon fill="#666666" stroke="#666666" points="110,-17 110,-17 187,-17 187,-17 110,-17"/>
<polygon fill="none" stroke="#666666" points="65,0 65,-105 187,-105 187,0 65,0"/>
</a>
</g>
</g>
<!-- Node2 -->
<g id="Node000002" class="node">
<title>Node2</title>
<g id="a_Node000002"><a xlink:href="structTTL__ext__int__tensor__t.html" target="_top" xlink:title="const and non&#45;const tensors in the appropriate address space">
<polygon fill="white" stroke="none" points="130,-227.5 28,-227.5 28,-163.5 130,-163.5 130,-227.5"/>
<text text-anchor="start" x="32.88" y="-214" font-family="Helvetica,sans-Serif" font-size="10.00">TTL_ext_int_tensor_t</text>
<text text-anchor="start" x="42" y="-199" font-family="Helvetica,sans-Serif" font-size="10.00">+</text>
<text text-anchor="start" x="62" y="-199" font-family="Helvetica,sans-Serif" font-size="10.00">base</text>
<text text-anchor="start" x="42" y="-184" font-family="Helvetica,sans-Serif" font-size="10.00">+</text>
<text text-anchor="start" x="62" y="-184" font-family="Helvetica,sans-Serif" font-size="10.00">elem_size</text>
<text text-anchor="start" x="77.5" y="-169" font-family="Helvetica,sans-Serif" font-size="10.00"> </text>
<polygon fill="#666666" stroke="#666666" points="28,-210.5 28,-210.5 130,-210.5 130,-210.5 28,-210.5"/>
<polygon fill="#666666" stroke="#666666" points="28,-180.5 28,-180.5 60,-180.5 60,-180.5 28,-180.5"/>
<polygon fill="#666666" stroke="#666666" points="60,-180.5 60,-180.5 130,-180.5 130,-180.5 60,-180.5"/>
<polygon fill="none" stroke="#666666" points="28,-163.5 28,-227.5 130,-227.5 130,-163.5 28,-163.5"/>
</a>
</g>
</g>
<!-- Node2&#45;&gt;Node1 -->
<g id="edge1_Node000001_Node000002" class="edge">
<title>Node2&#45;&gt;Node1</title>
<g id="a_edge1_Node000001_Node000002"><a xlink:title=" ">
<path fill="none" stroke="#63b8ff" d="M76.98,-163.63C77.01,-150.81 78.2,-135.92 82.25,-123 82.91,-120.9 83.65,-118.79 84.46,-116.7"/>
<polygon fill="none" stroke="#63b8ff" points="84.49,-116.62 83.28,-109.51 89.37,-105.66 90.59,-112.77 84.49,-116.62"/>
</a>
</g>
<text text-anchor="middle" x="116.88" y="-136" font-family="Helvetica,sans-Serif" font-size="10.00" fill="grey"> +ext_tensor_in</text>
<text text-anchor="middle" x="116.88" y="-124.75" font-family="Helvetica,sans-Serif" font-size="10.00" fill="grey">+ext_tensor_out</text>
</g>
<!-- Node3 -->
<g id="Node000003" class="node">
<title>Node3</title>
<g id="a_Node000003"><a xlink:href="structTTL__layout__t.html" target="_top" xlink:title="Description of a Tensor layout in memory.">
<polygon fill="white" stroke="none" points="80,-346.25 0,-346.25 0,-282.25 80,-282.25 80,-346.25"/>
<text text-anchor="start" x="11.5" y="-332.75" font-family="Helvetica,sans-Serif" font-size="10.00">TTL_layout_t</text>
<text text-anchor="start" x="4" y="-317.75" font-family="Helvetica,sans-Serif" font-size="10.00">+</text>
<text text-anchor="start" x="14" y="-317.75" font-family="Helvetica,sans-Serif" font-size="10.00">row_spacing</text>
<text text-anchor="start" x="4" y="-302.75" font-family="Helvetica,sans-Serif" font-size="10.00">+</text>
<text text-anchor="start" x="14" y="-302.75" font-family="Helvetica,sans-Serif" font-size="10.00">plane_spacing</text>
<text text-anchor="start" x="38.5" y="-287.75" font-family="Helvetica,sans-Serif" font-size="10.00"> </text>
<polygon fill="#666666" stroke="#666666" points="0,-329.25 0,-329.25 80,-329.25 80,-329.25 0,-329.25"/>
<polygon fill="#666666" stroke="#666666" points="0,-299.25 0,-299.25 12,-299.25 12,-299.25 0,-299.25"/>
<polygon fill="#666666" stroke="#666666" points="12,-299.25 12,-299.25 80,-299.25 80,-299.25 12,-299.25"/>
<polygon fill="none" stroke="#666666" points="0,-282.25 0,-346.25 80,-346.25 80,-282.25 0,-282.25"/>
</a>
</g>
</g>
<!-- Node3&#45;&gt;Node2 -->
<g id="edge2_Node000002_Node000003" class="edge">
<title>Node3&#45;&gt;Node2</title>
<g id="a_edge2_Node000002_Node000003"><a xlink:title=" ">
<path fill="none" stroke="#63b8ff" d="M37.14,-282.51C37.03,-270.65 38.15,-257.16 42.25,-245.5 43.08,-243.13 44.08,-240.78 45.19,-238.47"/>
<polygon fill="none" stroke="#63b8ff" points="45.19,-238.47 44.72,-231.27 51.17,-228.06 51.65,-235.26 45.19,-238.47"/>
</a>
</g>
<text text-anchor="middle" x="58.88" y="-247.25" font-family="Helvetica,sans-Serif" font-size="10.00" fill="grey"> +layout</text>
</g>
<!-- Node4 -->
<g id="Node000004" class="node">
<title>Node4</title>
<g id="a_Node000004"><a xlink:href="structTTL__shape__t.html" target="_top" xlink:title="Description of a Shape.">
<polygon fill="white" stroke="none" points="165.5,-353.75 98.5,-353.75 98.5,-274.75 165.5,-274.75 165.5,-353.75"/>
<text text-anchor="start" x="103.12" y="-340.25" font-family="Helvetica,sans-Serif" font-size="10.00">TTL_shape_t</text>
<text text-anchor="start" x="108" y="-325.25" font-family="Helvetica,sans-Serif" font-size="10.00">+</text>
<text text-anchor="start" x="123.5" y="-325.25" font-family="Helvetica,sans-Serif" font-size="10.00">width</text>
<text text-anchor="start" x="108" y="-310.25" font-family="Helvetica,sans-Serif" font-size="10.00">+</text>
<text text-anchor="start" x="123.5" y="-310.25" font-family="Helvetica,sans-Serif" font-size="10.00">height</text>
<text text-anchor="start" x="108" y="-295.25" font-family="Helvetica,sans-Serif" font-size="10.00">+</text>
<text text-anchor="start" x="123.5" y="-295.25" font-family="Helvetica,sans-Serif" font-size="10.00">depth</text>
<text text-anchor="start" x="130.5" y="-280.25" font-family="Helvetica,sans-Serif" font-size="10.00"> </text>
<polygon fill="#666666" stroke="#666666" points="98.5,-336.75 98.5,-336.75 165.5,-336.75 165.5,-336.75 98.5,-336.75"/>
<polygon fill="#666666" stroke="#666666" points="98.5,-291.75 98.5,-291.75 121.5,-291.75 121.5,-291.75 98.5,-291.75"/>
<polygon fill="#666666" stroke="#666666" points="121.5,-291.75 121.5,-291.75 165.5,-291.75 165.5,-291.75 121.5,-291.75"/>
<polygon fill="none" stroke="#666666" points="98.5,-274.75 98.5,-353.75 165.5,-353.75 165.5,-274.75 98.5,-274.75"/>
</a>
</g>
</g>
<!-- Node4&#45;&gt;Node2 -->
<g id="edge3_Node000002_Node000004" class="edge">
<title>Node4&#45;&gt;Node2</title>
<g id="a_edge3_Node000002_Node000004"><a xlink:title=" ">
<path fill="none" stroke="#63b8ff" d="M114.65,-275.02C109.45,-263.57 103.71,-250.94 98.39,-239.22"/>
<polygon fill="none" stroke="#63b8ff" points="98.37,-239.17 92.25,-235.36 93.41,-228.24 99.53,-232.05 98.37,-239.17"/>
</a>
</g>
<text text-anchor="middle" x="122.25" y="-247.25" font-family="Helvetica,sans-Serif" font-size="10.00" fill="grey"> +shape</text>
</g>
<!-- Node5 -->
<g id="Node000005" class="node">
<title>Node5</title>
<g id="a_Node000005"><a xlink:href="structTTL__tile__t.html" target="_top" xlink:title=" ">
<polygon fill="white" stroke="none" points="202,-220 148,-220 148,-171 202,-171 202,-220"/>
<text text-anchor="start" x="152.88" y="-206.5" font-family="Helvetica,sans-Serif" font-size="10.00">TTL_tile_t</text>
<text text-anchor="start" x="173.5" y="-191.5" font-family="Helvetica,sans-Serif" font-size="10.00"> </text>
<text text-anchor="start" x="173.5" y="-176.5" font-family="Helvetica,sans-Serif" font-size="10.00"> </text>
<polygon fill="#666666" stroke="#666666" points="148,-203 148,-203 202,-203 202,-203 148,-203"/>
<polygon fill="#666666" stroke="#666666" points="148,-188 148,-188 202,-188 202,-188 148,-188"/>
<polygon fill="none" stroke="#666666" points="148,-171 148,-220 202,-220 202,-171 148,-171"/>
</a>
</g>
</g>
<!-- Node4&#45;&gt;Node5 -->
<g id="edge5_Node000005_Node000004" class="edge">
<title>Node4&#45;&gt;Node5</title>
<g id="a_edge5_Node000005_Node000004"><a xlink:title=" ">
<path fill="none" stroke="#63b8ff" d="M145,-274.8C148.34,-265.2 151.98,-254.95 155.5,-245.5 157.16,-241.03 158.96,-236.36 160.76,-231.74"/>
<polygon fill="none" stroke="#63b8ff" points="160.72,-231.84 159.2,-224.79 165.13,-220.68 166.64,-227.73 160.72,-231.84"/>
</a>
</g>
<text text-anchor="middle" x="172.25" y="-247.25" font-family="Helvetica,sans-Serif" font-size="10.00" fill="grey"> +shape</text>
</g>
<!-- Node5&#45;&gt;Node1 -->
<g id="edge4_Node000001_Node000005" class="edge">
<title>Node5&#45;&gt;Node1</title>
<g id="a_edge4_Node000001_Node000005"><a xlink:title=" ">
<path fill="none" stroke="#63b8ff" d="M167.82,-171.22C163.41,-157.2 157.57,-139.01 152,-123 151.29,-120.95 150.56,-118.87 149.81,-116.77"/>
<polygon fill="none" stroke="#63b8ff" points="149.81,-116.78 144.02,-112.49 145.75,-105.49 151.54,-109.78 149.81,-116.78"/>
</a>
</g>
<text text-anchor="middle" x="181.5" y="-130.38" font-family="Helvetica,sans-Serif" font-size="10.00" fill="grey"> +prev_tile</text>
</g>
<!-- Node6 -->
<g id="Node000006" class="node">
<title>Node6</title>
<g id="a_Node000006"><a xlink:href="structTTL__offset__t.html" target="_top" xlink:title="Description of the 3D offset of an object.">
<polygon fill="white" stroke="none" points="248.5,-353.75 183.5,-353.75 183.5,-274.75 248.5,-274.75 248.5,-353.75"/>
<text text-anchor="start" x="188.25" y="-340.25" font-family="Helvetica,sans-Serif" font-size="10.00">TTL_offset_t</text>
<text text-anchor="start" x="198" y="-325.25" font-family="Helvetica,sans-Serif" font-size="10.00">+</text>
<text text-anchor="start" x="218.5" y="-325.25" font-family="Helvetica,sans-Serif" font-size="10.00">x</text>
<text text-anchor="start" x="198" y="-310.25" font-family="Helvetica,sans-Serif" font-size="10.00">+</text>
<text text-anchor="start" x="218.5" y="-310.25" font-family="Helvetica,sans-Serif" font-size="10.00">y</text>
<text text-anchor="start" x="198" y="-295.25" font-family="Helvetica,sans-Serif" font-size="10.00">+</text>
<text text-anchor="start" x="218.5" y="-295.25" font-family="Helvetica,sans-Serif" font-size="10.00">z</text>
<text text-anchor="start" x="214.5" y="-280.25" font-family="Helvetica,sans-Serif" font-size="10.00"> </text>
<polygon fill="#666666" stroke="#666666" points="183.5,-336.75 183.5,-336.75 248.5,-336.75 248.5,-336.75 183.5,-336.75"/>
<polygon fill="#666666" stroke="#666666" points="183.5,-291.75 183.5,-291.75 216.5,-291.75 216.5,-291.75 183.5,-291.75"/>
<polygon fill="#666666" stroke="#666666" points="216.5,-291.75 216.5,-291.75 248.5,-291.75 248.5,-291.75 216.5,-291.75"/>
<polygon fill="none" stroke="#666666" points="183.5,-274.75 183.5,-353.75 248.5,-353.75 248.5,-274.75 183.5,-274.75"/>
</a>
</g>
</g>
<!-- Node6&#45;&gt;Node5 -->
<g id="edge6_Node000005_Node000006" class="edge">
<title>Node6&#45;&gt;Node5</title>
<g id="a_edge6_Node000005_Node000006"><a xlink:title=" ">
<path fill="none" stroke="#63b8ff" d="M203.92,-274.79C200.79,-265.18 197.36,-254.94 194,-245.5 192.41,-241.02 190.68,-236.34 188.93,-231.72"/>
<polygon fill="none" stroke="#63b8ff" points="188.99,-231.87 183.1,-227.71 184.68,-220.67 190.56,-224.83 188.99,-231.87"/>
</a>
</g>
<text text-anchor="middle" x="213.12" y="-247.25" font-family="Helvetica,sans-Serif" font-size="10.00" fill="grey"> +offset</text>
</g>
</g>
</svg>
