<?xml version="1.0" encoding="UTF-8" standalone="no"?>
<!DOCTYPE svg PUBLIC "-//W3C//DTD SVG 1.1//EN"
 "http://www.w3.org/Graphics/SVG/1.1/DTD/svg11.dtd">
<!-- Generated by graphviz version 12.2.1 (20241206.2353)
 -->
<!-- Title: TTL_duplex_const_uint_tensor_buffering_t Pages: 1 -->
<svg width="233pt" height="404pt"
 viewBox="0.00 0.00 233.12 403.50" xmlns="http://www.w3.org/2000/svg" xmlns:xlink="http://www.w3.org/1999/xlink">
<g id="graph0" class="graph" transform="scale(1 1) rotate(0) translate(4 399.5)">
<title>TTL_duplex_const_uint_tensor_buffering_t</title>
<!-- Node1 -->
<g id="Node000001" class="node">
<title>Node1</title>
<g id="a_Node000001"><a xlink:title="Data required to perform duplex buffer pipelining.">
<polygon fill="#999999" stroke="none" points="165.38,-122 56.12,-122 56.12,0 165.38,0 165.38,-122"/>
<text text-anchor="start" x="60.12" y="-108.5" font-family="Helvetica,sans-Serif" font-size="10.00">TTL_duplex_const_uint</text>
<text text-anchor="start" x="69.5" y="-97.25" font-family="Helvetica,sans-Serif" font-size="10.00">_tensor_buffering_t</text>
<text text-anchor="start" x="64.19" y="-82" font-family="Helvetica,sans-Serif" font-size="10.00">+</text>
<text text-anchor="start" x="78.25" y="-82" font-family="Helvetica,sans-Serif" font-size="10.00">index</text>
<text text-anchor="start" x="64.19" y="-66.75" font-family="Helvetica,sans-Serif" font-size="10.00">+</text>
<text text-anchor="start" x="78.25" y="-66.75" font-family="Helvetica,sans-Serif" font-size="10.00">int_base</text>
<text text-anchor="start" x="64.19" y="-51.5" font-family="Helvetica,sans-Serif" font-size="10.00">+</text>
<text text-anchor="start" x="78.25" y="-51.5" font-family="Helvetica,sans-Serif" font-size="10.00">common</text>
<text text-anchor="start" x="64.19" y="-36.25" font-family="Helvetica,sans-Serif" font-size="10.00">+</text>
<text text-anchor="start" x="78.25" y="-36.25" font-family="Helvetica,sans-Serif" font-size="10.00">events</text>
<text text-anchor="start" x="64.19" y="-21" font-family="Helvetica,sans-Serif" font-size="10.00">+</text>
<text text-anchor="start" x="78.25" y="-21" font-family="Helvetica,sans-Serif" font-size="10.00">prev_out_tensors</text>
<text text-anchor="start" x="109.25" y="-5.75" font-family="Helvetica,sans-Serif" font-size="10.00"> </text>
<polygon fill="#666666" stroke="#666666" points="56.12,-93.5 56.12,-93.5 165.38,-93.5 165.38,-93.5 56.12,-93.5"/>
<polygon fill="#666666" stroke="#666666" points="56.12,-17.25 56.12,-17.25 76.25,-17.25 76.25,-17.25 56.12,-17.25"/>
<polygon fill="#666666" stroke="#666666" points="76.25,-17.25 76.25,-17.25 165.38,-17.25 165.38,-17.25 76.25,-17.25"/>
<polygon fill="none" stroke="#666666" points="56.12,0 56.12,-122 165.38,-122 165.38,0 56.12,0"/>
</a>
</g>
</g>
<!-- Node2 -->
<g id="Node000002" class="node">
<title>Node2</title>
<g id="a_Node000002"><a xlink:href="structTTL__ext__uint__tensor__t.html" target="_top" xlink:title="const and non&#45;const tensors in the appropriate address space">
<polygon fill="white" stroke="none" points="105.5,-262.38 0,-262.38 0,-197.38 105.5,-197.38 105.5,-262.38"/>
<text text-anchor="start" x="4" y="-248.88" font-family="Helvetica,sans-Serif" font-size="10.00">TTL_ext_uint_tensor_t</text>
<text text-anchor="start" x="15" y="-233.62" font-family="Helvetica,sans-Serif" font-size="10.00">+</text>
<text text-anchor="start" x="36" y="-233.62" font-family="Helvetica,sans-Serif" font-size="10.00">base</text>
<text text-anchor="start" x="15" y="-218.38" font-family="Helvetica,sans-Serif" font-size="10.00">+</text>
<text text-anchor="start" x="36" y="-218.38" font-family="Helvetica,sans-Serif" font-size="10.00">elem_size</text>
<text text-anchor="start" x="51.25" y="-203.12" font-family="Helvetica,sans-Serif" font-size="10.00"> </text>
<polygon fill="#666666" stroke="#666666" points="0,-245.12 0,-245.12 105.5,-245.12 105.5,-245.12 0,-245.12"/>
<polygon fill="#666666" stroke="#666666" points="0,-214.62 0,-214.62 34,-214.62 34,-214.62 0,-214.62"/>
<polygon fill="#666666" stroke="#666666" points="34,-214.62 34,-214.62 105.5,-214.62 105.5,-214.62 34,-214.62"/>
<polygon fill="none" stroke="#666666" points="0,-197.38 0,-262.38 105.5,-262.38 105.5,-197.38 0,-197.38"/>
</a>
</g>
</g>
<!-- Node2&#45;&gt;Node1 -->
<g id="edge1_Node000001_Node000002" class="edge">
<title>Node2&#45;&gt;Node1</title>
<g id="a_edge1_Node000001_Node000002"><a xlink:title=" ">
<path fill="none" stroke="#63b8ff" d="M57.58,-197.51C60.73,-180.25 65.47,-158.62 72,-140 72.72,-137.94 73.49,-135.86 74.29,-133.78"/>
<polygon fill="none" stroke="#63b8ff" points="74.29,-133.76 72.87,-126.69 78.85,-122.66 80.27,-129.73 74.29,-133.76"/>
</a>
</g>
<text text-anchor="middle" x="106.88" y="-164.25" font-family="Helvetica,sans-Serif" font-size="10.00" fill="grey"> +ext_tensor_in</text>
<text text-anchor="middle" x="106.88" y="-153" font-family="Helvetica,sans-Serif" font-size="10.00" fill="grey">+ext_tensor_out</text>
<text text-anchor="middle" x="106.88" y="-141.75" font-family="Helvetica,sans-Serif" font-size="10.00" fill="grey">+to_export_to</text>
</g>
<!-- Node3 -->
<g id="Node000003" class="node">
<title>Node3</title>
<g id="a_Node000003"><a xlink:href="structTTL__layout__t.html" target="_top" xlink:title="Description of a Tensor layout in memory.">
<polygon fill="white" stroke="none" points="99.88,-387.88 19.62,-387.88 19.62,-322.88 99.88,-322.88 99.88,-387.88"/>
<text text-anchor="start" x="31.25" y="-374.38" font-family="Helvetica,sans-Serif" font-size="10.00">TTL_layout_t</text>
<text text-anchor="start" x="23.62" y="-359.12" font-family="Helvetica,sans-Serif" font-size="10.00">+</text>
<text text-anchor="start" x="33.62" y="-359.12" font-family="Helvetica,sans-Serif" font-size="10.00">row_spacing</text>
<text text-anchor="start" x="23.62" y="-343.88" font-family="Helvetica,sans-Serif" font-size="10.00">+</text>
<text text-anchor="start" x="33.62" y="-343.88" font-family="Helvetica,sans-Serif" font-size="10.00">plane_spacing</text>
<text text-anchor="start" x="58.25" y="-328.62" font-family="Helvetica,sans-Serif" font-size="10.00"> </text>
<polygon fill="#666666" stroke="#666666" points="19.62,-370.62 19.62,-370.62 99.88,-370.62 99.88,-370.62 19.62,-370.62"/>
<polygon fill="#666666" stroke="#666666" points="19.62,-340.12 19.62,-340.12 31.62,-340.12 31.62,-340.12 19.62,-340.12"/>
<polygon fill="#666666" stroke="#666666" points="31.62,-340.12 31.62,-340.12 99.88,-340.12 99.88,-340.12 31.62,-340.12"/>
<polygon fill="none" stroke="#666666" points="19.62,-322.88 19.62,-387.88 99.88,-387.88 99.88,-322.88 19.62,-322.88"/>
</a>
</g>
</g>
<!-- Node3&#45;&gt;Node2 -->
<g id="edge2_Node000002_Node000003" class="edge">
<title>Node3&#45;&gt;Node2</title>
<g id="a_edge2_Node000002_Node000003"><a xlink:title=" ">
<path fill="none" stroke="#63b8ff" d="M37.93,-323.03C33.43,-314.98 29.35,-306.09 27,-297.25 25,-289.75 25.53,-281.94 27.47,-274.42"/>
<polygon fill="none" stroke="#63b8ff" points="27.52,-274.29 25.78,-267.29 31.57,-262.99 33.31,-269.99 27.52,-274.29"/>
</a>
</g>
<text text-anchor="middle" x="43.88" y="-287.75" font-family="Helvetica,sans-Serif" font-size="10.00" fill="grey"> +layout</text>
</g>
<!-- Node5 -->
<g id="Node000005" class="node">
<title>Node5</title>
<g id="a_Node000005"><a xlink:href="structTTL__const__int__uint__tensor__t.html" target="_top" xlink:title=" ">
<polygon fill="white" stroke="none" points="215.75,-268 123.75,-268 123.75,-191.75 215.75,-191.75 215.75,-268"/>
<text text-anchor="start" x="127.75" y="-254.5" font-family="Helvetica,sans-Serif" font-size="10.00">TTL_const_int_uint</text>
<text text-anchor="start" x="149.5" y="-243.25" font-family="Helvetica,sans-Serif" font-size="10.00">_tensor_t</text>
<text text-anchor="start" x="135.38" y="-228" font-family="Helvetica,sans-Serif" font-size="10.00">+</text>
<text text-anchor="start" x="153" y="-228" font-family="Helvetica,sans-Serif" font-size="10.00">base</text>
<text text-anchor="start" x="135.38" y="-212.75" font-family="Helvetica,sans-Serif" font-size="10.00">+</text>
<text text-anchor="start" x="153" y="-212.75" font-family="Helvetica,sans-Serif" font-size="10.00">elem_size</text>
<text text-anchor="start" x="168.25" y="-197.5" font-family="Helvetica,sans-Serif" font-size="10.00"> </text>
<polygon fill="#666666" stroke="#666666" points="123.75,-239.5 123.75,-239.5 215.75,-239.5 215.75,-239.5 123.75,-239.5"/>
<polygon fill="#666666" stroke="#666666" points="123.75,-209 123.75,-209 151,-209 151,-209 123.75,-209"/>
<polygon fill="#666666" stroke="#666666" points="151,-209 151,-209 215.75,-209 215.75,-209 151,-209"/>
<polygon fill="none" stroke="#666666" points="123.75,-191.75 123.75,-268 215.75,-268 215.75,-191.75 123.75,-191.75"/>
</a>
</g>
</g>
<!-- Node3&#45;&gt;Node5 -->
<g id="edge5_Node000005_Node000003" class="edge">
<title>Node3&#45;&gt;Node5</title>
<g id="a_edge5_Node000005_Node000003"><a xlink:title=" ">
<path fill="none" stroke="#63b8ff" d="M63.61,-322.92C66.46,-310.34 71.41,-296.4 80,-286 89.17,-274.89 96.73,-275.93 112.68,-268.42"/>
<polygon fill="none" stroke="#63b8ff" points="112.42,-268.56 115.81,-262.2 122.99,-262.89 119.6,-269.25 112.42,-268.56"/>
</a>
</g>
<text text-anchor="middle" x="96.88" y="-287.75" font-family="Helvetica,sans-Serif" font-size="10.00" fill="grey"> +layout</text>
</g>
<!-- Node4 -->
<g id="Node000004" class="node">
<title>Node4</title>
<g id="a_Node000004"><a xlink:href="structTTL__shape__t.html" target="_top" xlink:title="Description of a Shape.">
<polygon fill="white" stroke="none" points="194.62,-395.5 128.88,-395.5 128.88,-315.25 194.62,-315.25 194.62,-395.5"/>
<text text-anchor="start" x="132.88" y="-382" font-family="Helvetica,sans-Serif" font-size="10.00">TTL_shape_t</text>
<text text-anchor="start" x="138.25" y="-366.75" font-family="Helvetica,sans-Serif" font-size="10.00">+</text>
<text text-anchor="start" x="153.62" y="-366.75" font-family="Helvetica,sans-Serif" font-size="10.00">width</text>
<text text-anchor="start" x="138.25" y="-351.5" font-family="Helvetica,sans-Serif" font-size="10.00">+</text>
<text text-anchor="start" x="153.62" y="-351.5" font-family="Helvetica,sans-Serif" font-size="10.00">height</text>
<text text-anchor="start" x="138.25" y="-336.25" font-family="Helvetica,sans-Serif" font-size="10.00">+</text>
<text text-anchor="start" x="153.62" y="-336.25" font-family="Helvetica,sans-Serif" font-size="10.00">depth</text>
<text text-anchor="start" x="160.25" y="-321" font-family="Helvetica,sans-Serif" font-size="10.00"> </text>
<polygon fill="#666666" stroke="#666666" points="128.88,-378.25 128.88,-378.25 194.62,-378.25 194.62,-378.25 128.88,-378.25"/>
<polygon fill="#666666" stroke="#666666" points="128.88,-332.5 128.88,-332.5 151.62,-332.5 151.62,-332.5 128.88,-332.5"/>
<polygon fill="#666666" stroke="#666666" points="151.62,-332.5 151.62,-332.5 194.62,-332.5 194.62,-332.5 151.62,-332.5"/>
<polygon fill="none" stroke="#666666" points="128.88,-315.25 128.88,-395.5 194.62,-395.5 194.62,-315.25 128.88,-315.25"/>
</a>
</g>
</g>
<!-- Node4&#45;&gt;Node2 -->
<g id="edge3_Node000002_Node000004" class="edge">
<title>Node4&#45;&gt;Node2</title>
<g id="a_edge3_Node000002_Node000004"><a xlink:title=" ">
<path fill="none" stroke="#63b8ff" d="M139.44,-315.33C132.99,-305.34 125.57,-294.92 117.75,-286 113.24,-280.85 108.24,-275.77 103.07,-270.89"/>
<polygon fill="none" stroke="#63b8ff" points="103.22,-271.02 96.08,-269.96 94.32,-262.96 101.45,-264.03 103.22,-271.02"/>
</a>
</g>
<text text-anchor="middle" x="143.39" y="-287.75" font-family="Helvetica,sans-Serif" font-size="10.00" fill="grey"> +shape</text>
</g>
<!-- Node4&#45;&gt;Node5 -->
<g id="edge6_Node000005_Node000004" class="edge">
<title>Node4&#45;&gt;Node5</title>
<g id="a_edge6_Node000005_Node000004"><a xlink:title=" ">
<path fill="none" stroke="#63b8ff" d="M172.65,-315.27C173.93,-309.28 175.04,-303.13 175.75,-297.25 176.4,-291.89 176.61,-286.27 176.52,-280.68"/>
<polygon fill="none" stroke="#63b8ff" points="176.52,-280.66 172.21,-274.88 175.89,-268.68 180.2,-274.46 176.52,-280.66"/>
</a>
</g>
<text text-anchor="middle" x="193.75" y="-287.75" font-family="Helvetica,sans-Serif" font-size="10.00" fill="grey"> +shape</text>
</g>
<!-- Node5&#45;&gt;Node1 -->
<g id="edge4_Node000001_Node000005" class="edge">
<title>Node5&#45;&gt;Node1</title>
<g id="a_edge4_Node000001_Node000005"><a xlink:title=" ">
<path fill="none" stroke="#63b8ff" d="M158.77,-191.92C153.83,-175.87 147.77,-156.92 141.75,-140 141.03,-137.97 140.29,-135.92 139.53,-133.84"/>
<polygon fill="none" stroke="#63b8ff" points="139.57,-133.96 133.73,-129.74 135.37,-122.72 141.22,-126.94 139.57,-133.96"/>
</a>
</g>
<text text-anchor="middle" x="188.75" y="-153" font-family="Helvetica,sans-Serif" font-size="10.00" fill="grey"> +to_export_from</text>
</g>
</g>
</svg>
