<?xml version="1.0" encoding="UTF-8" standalone="no"?>
<!DOCTYPE svg PUBLIC "-//W3C//DTD SVG 1.1//EN"
 "http://www.w3.org/Graphics/SVG/1.1/DTD/svg11.dtd">
<!-- Generated by graphviz version 12.0.0 (20240704.0754)
 -->
<!-- Title: TTL_simplex_const_uint_tensor_buffering_t Pages: 1 -->
<svg width="455pt" height="477pt"
 viewBox="0.00 0.00 455.00 476.75" xmlns="http://www.w3.org/2000/svg" xmlns:xlink="http://www.w3.org/1999/xlink">
<g id="graph0" class="graph" transform="scale(1 1) rotate(0) translate(4 472.75)">
<title>TTL_simplex_const_uint_tensor_buffering_t</title>
<!-- Node1 -->
<g id="Node000001" class="node">
<title>Node1</title>
<g id="a_Node000001"><a xlink:title=" ">
<polygon fill="#999999" stroke="none" points="324.5,-120 208.5,-120 208.5,0 324.5,0 324.5,-120"/>
<text text-anchor="start" x="213.25" y="-106.5" font-family="Helvetica,sans-Serif" font-size="10.00">TTL_simplex_const_uint</text>
<text text-anchor="start" x="225.25" y="-95.25" font-family="Helvetica,sans-Serif" font-size="10.00">_tensor_buffering_t</text>
<text text-anchor="start" x="226.5" y="-80.5" font-family="Helvetica,sans-Serif" font-size="10.00">+</text>
<text text-anchor="start" x="250.5" y="-80.5" font-family="Helvetica,sans-Serif" font-size="10.00">index</text>
<text text-anchor="start" x="226.5" y="-65.5" font-family="Helvetica,sans-Serif" font-size="10.00">+</text>
<text text-anchor="start" x="250.5" y="-65.5" font-family="Helvetica,sans-Serif" font-size="10.00">int_base</text>
<text text-anchor="start" x="226.5" y="-50.5" font-family="Helvetica,sans-Serif" font-size="10.00">+</text>
<text text-anchor="start" x="250.5" y="-50.5" font-family="Helvetica,sans-Serif" font-size="10.00">common</text>
<text text-anchor="start" x="226.5" y="-35.5" font-family="Helvetica,sans-Serif" font-size="10.00">+</text>
<text text-anchor="start" x="250.5" y="-35.5" font-family="Helvetica,sans-Serif" font-size="10.00">event_in</text>
<text text-anchor="start" x="226.5" y="-20.5" font-family="Helvetica,sans-Serif" font-size="10.00">+</text>
<text text-anchor="start" x="250.5" y="-20.5" font-family="Helvetica,sans-Serif" font-size="10.00">event_out</text>
<text text-anchor="start" x="265" y="-5.5" font-family="Helvetica,sans-Serif" font-size="10.00"> </text>
<polygon fill="#666666" stroke="#666666" points="208.5,-92 208.5,-92 324.5,-92 324.5,-92 208.5,-92"/>
<polygon fill="#666666" stroke="#666666" points="208.5,-17 208.5,-17 248.5,-17 248.5,-17 208.5,-17"/>
<polygon fill="#666666" stroke="#666666" points="248.5,-17 248.5,-17 324.5,-17 324.5,-17 248.5,-17"/>
<polygon fill="none" stroke="#666666" points="208.5,0 208.5,-120 324.5,-120 324.5,0 208.5,0"/>
</a>
</g>
</g>
<!-- Node2 -->
<g id="Node000002" class="node">
<title>Node2</title>
<g id="a_Node000002"><a xlink:href="structTTL__ext__uint__tensor__t.html" target="_top" xlink:title="const and non&#45;const tensors in the appropriate address space">
<polygon fill="white" stroke="none" points="107,-335 0,-335 0,-271 107,-271 107,-335"/>
<text text-anchor="start" x="4.75" y="-321.5" font-family="Helvetica,sans-Serif" font-size="10.00">TTL_ext_uint_tensor_t</text>
<text text-anchor="start" x="15.5" y="-306.5" font-family="Helvetica,sans-Serif" font-size="10.00">+</text>
<text text-anchor="start" x="37" y="-306.5" font-family="Helvetica,sans-Serif" font-size="10.00">base</text>
<text text-anchor="start" x="15.5" y="-291.5" font-family="Helvetica,sans-Serif" font-size="10.00">+</text>
<text text-anchor="start" x="37" y="-291.5" font-family="Helvetica,sans-Serif" font-size="10.00">elem_size</text>
<text text-anchor="start" x="52" y="-276.5" font-family="Helvetica,sans-Serif" font-size="10.00"> </text>
<polygon fill="#666666" stroke="#666666" points="0,-318 0,-318 107,-318 107,-318 0,-318"/>
<polygon fill="#666666" stroke="#666666" points="0,-288 0,-288 35,-288 35,-288 0,-288"/>
<polygon fill="#666666" stroke="#666666" points="35,-288 35,-288 107,-288 107,-288 35,-288"/>
<polygon fill="none" stroke="#666666" points="0,-271 0,-335 107,-335 107,-271 0,-271"/>
</a>
</g>
</g>
<!-- Node2&#45;&gt;Node1 -->
<g id="edge1_Node000001_Node000002" class="edge">
<title>Node2&#45;&gt;Node1</title>
<g id="a_edge1_Node000001_Node000002"><a xlink:title=" ">
<path fill="none" stroke="#63b8ff" d="M65.23,-271.03C77.21,-242.09 97.85,-198.74 124.75,-167.25 145.55,-142.9 172.88,-120.78 197.99,-103.11"/>
<polygon fill="none" stroke="#63b8ff" points="197.96,-103.13 200.63,-96.43 207.84,-96.32 205.17,-103.02 197.96,-103.13"/>
</a>
</g>
<text text-anchor="middle" x="159.38" y="-193.5" font-family="Helvetica,sans-Serif" font-size="10.00" fill="grey"> +ext_tensor_in</text>
<text text-anchor="middle" x="159.38" y="-182.25" font-family="Helvetica,sans-Serif" font-size="10.00" fill="grey">+ext_tensor_out</text>
</g>
<!-- Node3 -->
<g id="Node000003" class="node">
<title>Node3</title>
<g id="a_Node000003"><a xlink:href="structTTL__layout__t.html" target="_top" xlink:title="Description of a Tensor layout in memory.">
<polygon fill="white" stroke="none" points="149.5,-461.25 69.5,-461.25 69.5,-397.25 149.5,-397.25 149.5,-461.25"/>
<text text-anchor="start" x="81" y="-447.75" font-family="Helvetica,sans-Serif" font-size="10.00">TTL_layout_t</text>
<text text-anchor="start" x="73.5" y="-432.75" font-family="Helvetica,sans-Serif" font-size="10.00">+</text>
<text text-anchor="start" x="83.5" y="-432.75" font-family="Helvetica,sans-Serif" font-size="10.00">row_spacing</text>
<text text-anchor="start" x="73.5" y="-417.75" font-family="Helvetica,sans-Serif" font-size="10.00">+</text>
<text text-anchor="start" x="83.5" y="-417.75" font-family="Helvetica,sans-Serif" font-size="10.00">plane_spacing</text>
<text text-anchor="start" x="108" y="-402.75" font-family="Helvetica,sans-Serif" font-size="10.00"> </text>
<polygon fill="#666666" stroke="#666666" points="69.5,-444.25 69.5,-444.25 149.5,-444.25 149.5,-444.25 69.5,-444.25"/>
<polygon fill="#666666" stroke="#666666" points="69.5,-414.25 69.5,-414.25 81.5,-414.25 81.5,-414.25 69.5,-414.25"/>
<polygon fill="#666666" stroke="#666666" points="81.5,-414.25 81.5,-414.25 149.5,-414.25 149.5,-414.25 81.5,-414.25"/>
<polygon fill="none" stroke="#666666" points="69.5,-397.25 69.5,-461.25 149.5,-461.25 149.5,-397.25 69.5,-397.25"/>
</a>
</g>
</g>
<!-- Node3&#45;&gt;Node2 -->
<g id="edge2_Node000002_Node000003" class="edge">
<title>Node3&#45;&gt;Node2</title>
<g id="a_edge2_Node000002_Node000003"><a xlink:title=" ">
<path fill="none" stroke="#63b8ff" d="M69.74,-402.23C60.08,-393.77 51.03,-383.48 45.75,-371.75 42.37,-364.24 41.4,-355.81 41.78,-347.51"/>
<polygon fill="none" stroke="#63b8ff" points="41.78,-347.54 38.53,-341.1 43.22,-335.63 46.47,-342.07 41.78,-347.54"/>
</a>
</g>
<text text-anchor="middle" x="63.38" y="-362.25" font-family="Helvetica,sans-Serif" font-size="10.00" fill="grey"> +layout</text>
</g>
<!-- Node8 -->
<g id="Node000008" class="node">
<title>Node8</title>
<g id="a_Node000008"><a xlink:href="structTTL__int__uint__tensor__t.html" target="_top" xlink:title="const and non&#45;const tensors in the appropriate address space">
<polygon fill="white" stroke="none" points="230,-335 125,-335 125,-271 230,-271 230,-335"/>
<text text-anchor="start" x="129.88" y="-321.5" font-family="Helvetica,sans-Serif" font-size="10.00">TTL_int_uint_tensor_t</text>
<text text-anchor="start" x="140" y="-306.5" font-family="Helvetica,sans-Serif" font-size="10.00">+</text>
<text text-anchor="start" x="161" y="-306.5" font-family="Helvetica,sans-Serif" font-size="10.00">base</text>
<text text-anchor="start" x="140" y="-291.5" font-family="Helvetica,sans-Serif" font-size="10.00">+</text>
<text text-anchor="start" x="161" y="-291.5" font-family="Helvetica,sans-Serif" font-size="10.00">elem_size</text>
<text text-anchor="start" x="176" y="-276.5" font-family="Helvetica,sans-Serif" font-size="10.00"> </text>
<polygon fill="#666666" stroke="#666666" points="125,-318 125,-318 230,-318 230,-318 125,-318"/>
<polygon fill="#666666" stroke="#666666" points="125,-288 125,-288 159,-288 159,-288 125,-288"/>
<polygon fill="#666666" stroke="#666666" points="159,-288 159,-288 230,-288 230,-288 159,-288"/>
<polygon fill="none" stroke="#666666" points="125,-271 125,-335 230,-335 230,-271 125,-271"/>
</a>
</g>
</g>
<!-- Node3&#45;&gt;Node8 -->
<g id="edge9_Node000008_Node000003" class="edge">
<title>Node3&#45;&gt;Node8</title>
<g id="a_edge9_Node000008_Node000003"><a xlink:title=" ">
<path fill="none" stroke="#63b8ff" d="M126.31,-397.54C134.81,-382.01 145.25,-362.92 154.49,-346.05"/>
<polygon fill="none" stroke="#63b8ff" points="154.45,-346.11 153.83,-338.92 160.22,-335.58 160.84,-342.77 154.45,-346.11"/>
</a>
</g>
<text text-anchor="middle" x="162.38" y="-362.25" font-family="Helvetica,sans-Serif" font-size="10.00" fill="grey"> +layout</text>
</g>
<!-- Node4 -->
<g id="Node000004" class="node">
<title>Node4</title>
<g id="a_Node000004"><a xlink:href="structTTL__shape__t.html" target="_top" xlink:title="Description of a Shape.">
<polygon fill="white" stroke="none" points="275,-468.75 208,-468.75 208,-389.75 275,-389.75 275,-468.75"/>
<text text-anchor="start" x="212.62" y="-455.25" font-family="Helvetica,sans-Serif" font-size="10.00">TTL_shape_t</text>
<text text-anchor="start" x="217.5" y="-440.25" font-family="Helvetica,sans-Serif" font-size="10.00">+</text>
<text text-anchor="start" x="233" y="-440.25" font-family="Helvetica,sans-Serif" font-size="10.00">width</text>
<text text-anchor="start" x="217.5" y="-425.25" font-family="Helvetica,sans-Serif" font-size="10.00">+</text>
<text text-anchor="start" x="233" y="-425.25" font-family="Helvetica,sans-Serif" font-size="10.00">height</text>
<text text-anchor="start" x="217.5" y="-410.25" font-family="Helvetica,sans-Serif" font-size="10.00">+</text>
<text text-anchor="start" x="233" y="-410.25" font-family="Helvetica,sans-Serif" font-size="10.00">depth</text>
<text text-anchor="start" x="240" y="-395.25" font-family="Helvetica,sans-Serif" font-size="10.00"> </text>
<polygon fill="#666666" stroke="#666666" points="208,-451.75 208,-451.75 275,-451.75 275,-451.75 208,-451.75"/>
<polygon fill="#666666" stroke="#666666" points="208,-406.75 208,-406.75 231,-406.75 231,-406.75 208,-406.75"/>
<polygon fill="#666666" stroke="#666666" points="231,-406.75 231,-406.75 275,-406.75 275,-406.75 231,-406.75"/>
<polygon fill="none" stroke="#666666" points="208,-389.75 208,-468.75 275,-468.75 275,-389.75 208,-389.75"/>
</a>
</g>
</g>
<!-- Node4&#45;&gt;Node2 -->
<g id="edge3_Node000002_Node000004" class="edge">
<title>Node4&#45;&gt;Node2</title>
<g id="a_edge3_Node000002_Node000004"><a xlink:title=" ">
<path fill="none" stroke="#63b8ff" d="M208.4,-411.73C193.36,-404.53 175.23,-396.26 158.5,-389.75 133.94,-380.19 123.31,-387.25 102,-371.75 92.29,-364.69 83.78,-355.09 76.71,-345.33"/>
<polygon fill="none" stroke="#63b8ff" points="76.83,-345.5 70.16,-342.76 70.12,-335.55 76.79,-338.29 76.83,-345.5"/>
</a>
</g>
<text text-anchor="middle" x="118.75" y="-362.25" font-family="Helvetica,sans-Serif" font-size="10.00" fill="grey"> +shape</text>
</g>
<!-- Node5 -->
<g id="Node000005" class="node">
<title>Node5</title>
<g id="a_Node000005"><a xlink:href="structTTL__tile__t.html" target="_top" xlink:title=" ">
<polygon fill="white" stroke="none" points="402.5,-216.25 348.5,-216.25 348.5,-167.25 402.5,-167.25 402.5,-216.25"/>
<text text-anchor="start" x="353.38" y="-202.75" font-family="Helvetica,sans-Serif" font-size="10.00">TTL_tile_t</text>
<text text-anchor="start" x="374" y="-187.75" font-family="Helvetica,sans-Serif" font-size="10.00"> </text>
<text text-anchor="start" x="374" y="-172.75" font-family="Helvetica,sans-Serif" font-size="10.00"> </text>
<polygon fill="#666666" stroke="#666666" points="348.5,-199.25 348.5,-199.25 402.5,-199.25 402.5,-199.25 348.5,-199.25"/>
<polygon fill="#666666" stroke="#666666" points="348.5,-184.25 348.5,-184.25 402.5,-184.25 402.5,-184.25 348.5,-184.25"/>
<polygon fill="none" stroke="#666666" points="348.5,-167.25 348.5,-216.25 402.5,-216.25 402.5,-167.25 348.5,-167.25"/>
</a>
</g>
</g>
<!-- Node4&#45;&gt;Node5 -->
<g id="edge5_Node000005_Node000004" class="edge">
<title>Node4&#45;&gt;Node5</title>
<g id="a_edge5_Node000005_Node000004"><a xlink:title=" ">
<path fill="none" stroke="#63b8ff" d="M274.8,-419.67C310.96,-408.46 367.18,-385.02 394.5,-342.5 420.58,-301.91 416.22,-280.5 402.5,-234.25 401.83,-232 401,-229.76 400.05,-227.55"/>
<polygon fill="none" stroke="#63b8ff" points="400.05,-227.56 393.71,-224.13 394.44,-216.96 400.78,-220.39 400.05,-227.56"/>
</a>
</g>
<text text-anchor="middle" x="429.75" y="-299.12" font-family="Helvetica,sans-Serif" font-size="10.00" fill="grey"> +shape</text>
</g>
<!-- Node7 -->
<g id="Node000007" class="node">
<title>Node7</title>
<g id="a_Node000007"><a xlink:href="structTTL__int__uint__sub__tensor__t.html" target="_top" xlink:title="const and non&#45;const sub tensors in the appropriate address space">
<polygon fill="white" stroke="none" points="329.5,-216.25 203.5,-216.25 203.5,-167.25 329.5,-167.25 329.5,-216.25"/>
<text text-anchor="start" x="208.38" y="-202.75" font-family="Helvetica,sans-Serif" font-size="10.00">TTL_int_uint_sub_tensor_t</text>
<text text-anchor="start" x="228.5" y="-187.75" font-family="Helvetica,sans-Serif" font-size="10.00">+</text>
<text text-anchor="start" x="259.5" y="-187.75" font-family="Helvetica,sans-Serif" font-size="10.00">origin</text>
<text text-anchor="start" x="265" y="-172.75" font-family="Helvetica,sans-Serif" font-size="10.00"> </text>
<polygon fill="#666666" stroke="#666666" points="203.5,-199.25 203.5,-199.25 329.5,-199.25 329.5,-199.25 203.5,-199.25"/>
<polygon fill="#666666" stroke="#666666" points="203.5,-184.25 203.5,-184.25 257.5,-184.25 257.5,-184.25 203.5,-184.25"/>
<polygon fill="#666666" stroke="#666666" points="257.5,-184.25 257.5,-184.25 329.5,-184.25 329.5,-184.25 257.5,-184.25"/>
<polygon fill="none" stroke="#666666" points="203.5,-167.25 203.5,-216.25 329.5,-216.25 329.5,-167.25 203.5,-167.25"/>
</a>
</g>
</g>
<!-- Node4&#45;&gt;Node7 -->
<g id="edge11_Node000007_Node000004" class="edge">
<title>Node4&#45;&gt;Node7</title>
<g id="a_edge11_Node000007_Node000004"><a xlink:title=" ">
<path fill="none" stroke="#63b8ff" d="M247.16,-389.99C247.99,-383.89 248.8,-377.65 249.5,-371.75 255.33,-322.41 260.48,-265.23 263.55,-229.03"/>
<polygon fill="none" stroke="#63b8ff" points="263.54,-229.1 260.05,-222.79 264.54,-217.14 268.03,-223.45 263.54,-229.1"/>
</a>
</g>
<text text-anchor="middle" x="276.75" y="-299.12" font-family="Helvetica,sans-Serif" font-size="10.00" fill="grey"> +shape</text>
</g>
<!-- Node4&#45;&gt;Node8 -->
<g id="edge10_Node000008_Node000004" class="edge">
<title>Node4&#45;&gt;Node8</title>
<g id="a_edge10_Node000008_Node000004"><a xlink:title=" ">
<path fill="none" stroke="#63b8ff" d="M221.78,-389.96C214.66,-376.14 206.59,-360.47 199.31,-346.33"/>
<polygon fill="none" stroke="#63b8ff" points="199.32,-346.36 193.01,-342.86 193.82,-335.69 200.13,-339.19 199.32,-346.36"/>
</a>
</g>
<text text-anchor="middle" x="227.75" y="-362.25" font-family="Helvetica,sans-Serif" font-size="10.00" fill="grey"> +shape</text>
</g>
<!-- Node5&#45;&gt;Node1 -->
<g id="edge4_Node000001_Node000005" class="edge">
<title>Node5&#45;&gt;Node1</title>
<g id="a_edge4_Node000001_Node000005"><a xlink:title=" ">
<path fill="none" stroke="#63b8ff" d="M368.39,-167.51C364.8,-157.87 359.85,-146.88 353.5,-138 347.51,-129.63 340.46,-121.53 332.99,-113.94"/>
<polygon fill="none" stroke="#63b8ff" points="333.33,-114.27 326.24,-112.95 324.73,-105.89 331.82,-107.21 333.33,-114.27"/>
</a>
</g>
<text text-anchor="middle" x="402.62" y="-139.75" font-family="Helvetica,sans-Serif" font-size="10.00" fill="grey"> +next_exported_tile</text>
</g>
<!-- Node6 -->
<g id="Node000006" class="node">
<title>Node6</title>
<g id="a_Node000006"><a xlink:href="structTTL__offset__t.html" target="_top" xlink:title="Description of the 3D offset of an object.">
<polygon fill="white" stroke="none" points="385,-342.5 320,-342.5 320,-263.5 385,-263.5 385,-342.5"/>
<text text-anchor="start" x="324.75" y="-329" font-family="Helvetica,sans-Serif" font-size="10.00">TTL_offset_t</text>
<text text-anchor="start" x="334.5" y="-314" font-family="Helvetica,sans-Serif" font-size="10.00">+</text>
<text text-anchor="start" x="355" y="-314" font-family="Helvetica,sans-Serif" font-size="10.00">x</text>
<text text-anchor="start" x="334.5" y="-299" font-family="Helvetica,sans-Serif" font-size="10.00">+</text>
<text text-anchor="start" x="355" y="-299" font-family="Helvetica,sans-Serif" font-size="10.00">y</text>
<text text-anchor="start" x="334.5" y="-284" font-family="Helvetica,sans-Serif" font-size="10.00">+</text>
<text text-anchor="start" x="355" y="-284" font-family="Helvetica,sans-Serif" font-size="10.00">z</text>
<text text-anchor="start" x="351" y="-269" font-family="Helvetica,sans-Serif" font-size="10.00"> </text>
<polygon fill="#666666" stroke="#666666" points="320,-325.5 320,-325.5 385,-325.5 385,-325.5 320,-325.5"/>
<polygon fill="#666666" stroke="#666666" points="320,-280.5 320,-280.5 353,-280.5 353,-280.5 320,-280.5"/>
<polygon fill="#666666" stroke="#666666" points="353,-280.5 353,-280.5 385,-280.5 385,-280.5 353,-280.5"/>
<polygon fill="none" stroke="#666666" points="320,-263.5 320,-342.5 385,-342.5 385,-263.5 320,-263.5"/>
</a>
</g>
</g>
<!-- Node6&#45;&gt;Node5 -->
<g id="edge6_Node000005_Node000006" class="edge">
<title>Node6&#45;&gt;Node5</title>
<g id="a_edge6_Node000005_Node000006"><a xlink:title=" ">
<path fill="none" stroke="#63b8ff" d="M360.54,-263.79C362.95,-252.38 365.57,-239.92 367.94,-228.66"/>
<polygon fill="none" stroke="#63b8ff" points="367.92,-228.76 365.24,-222.06 370.39,-217.01 373.07,-223.71 367.92,-228.76"/>
</a>
</g>
<text text-anchor="middle" x="382.62" y="-236" font-family="Helvetica,sans-Serif" font-size="10.00" fill="grey"> +offset</text>
</g>
<!-- Node6&#45;&gt;Node7 -->
<g id="edge12_Node000007_Node000006" class="edge">
<title>Node6&#45;&gt;Node7</title>
<g id="a_edge12_Node000007_Node000006"><a xlink:title=" ">
<path fill="none" stroke="#63b8ff" d="M321.74,-263.78C316.87,-257.68 311.91,-251.43 307.25,-245.5 302.44,-239.38 297.34,-232.84 292.44,-226.51"/>
<polygon fill="none" stroke="#63b8ff" points="292.35,-226.4 285.52,-224.1 285.02,-216.9 291.85,-219.21 292.35,-226.4"/>
</a>
</g>
<text text-anchor="middle" x="333.12" y="-236" font-family="Helvetica,sans-Serif" font-size="10.00" fill="grey"> +sub_offset</text>
</g>
<!-- Node7&#45;&gt;Node1 -->
<g id="edge7_Node000001_Node000007" class="edge">
<title>Node7&#45;&gt;Node1</title>
<g id="a_edge7_Node000001_Node000007"><a xlink:title=" ">
<path fill="none" stroke="#63b8ff" d="M266.5,-167.25C266.5,-157.39 266.5,-145.33 266.5,-132.93"/>
<polygon fill="none" stroke="#63b8ff" points="266.5,-132.86 262.5,-126.86 266.5,-120.86 270.5,-126.86 266.5,-132.86"/>
</a>
</g>
<text text-anchor="middle" x="309.25" y="-139.75" font-family="Helvetica,sans-Serif" font-size="10.00" fill="grey"> +int_prev_imported</text>
</g>
<!-- Node8&#45;&gt;Node7 -->
<g id="edge8_Node000007_Node000008" class="edge">
<title>Node8&#45;&gt;Node7</title>
<g id="a_edge8_Node000007_Node000008"><a xlink:title=" ">
<path fill="none" stroke="#63b8ff" d="M192.66,-271.2C199.36,-259.07 207.84,-245.4 217.25,-234.25 219.95,-231.04 222.92,-227.89 226.02,-224.83"/>
<polygon fill="none" stroke="#63b8ff" points="226.08,-224.78 227.78,-217.77 234.9,-216.65 233.2,-223.66 226.08,-224.78"/>
</a>
</g>
<text text-anchor="middle" x="234.12" y="-236" font-family="Helvetica,sans-Serif" font-size="10.00" fill="grey"> +tensor</text>
</g>
</g>
</svg>
