<?xml version="1.0" encoding="UTF-8" standalone="no"?>
<!DOCTYPE svg PUBLIC "-//W3C//DTD SVG 1.1//EN"
 "http://www.w3.org/Graphics/SVG/1.1/DTD/svg11.dtd">
<!-- Generated by graphviz version 12.0.0 (20240704.0754)
 -->
<!-- Title: TTL_simplex_const_uchar_tensor_buffering_t Pages: 1 -->
<svg width="472pt" height="477pt"
 viewBox="0.00 0.00 472.00 476.75" xmlns="http://www.w3.org/2000/svg" xmlns:xlink="http://www.w3.org/1999/xlink">
<g id="graph0" class="graph" transform="scale(1 1) rotate(0) translate(4 472.75)">
<title>TTL_simplex_const_uchar_tensor_buffering_t</title>
<!-- Node1 -->
<g id="Node000001" class="node">
<title>Node1</title>
<g id="a_Node000001"><a xlink:title=" ">
<polygon fill="#999999" stroke="none" points="343.5,-120 219.5,-120 219.5,0 343.5,0 343.5,-120"/>
<text text-anchor="start" x="224.12" y="-106.5" font-family="Helvetica,sans-Serif" font-size="10.00">TTL_simplex_const_uchar</text>
<text text-anchor="start" x="240.25" y="-95.25" font-family="Helvetica,sans-Serif" font-size="10.00">_tensor_buffering_t</text>
<text text-anchor="start" x="239.5" y="-80.5" font-family="Helvetica,sans-Serif" font-size="10.00">+</text>
<text text-anchor="start" x="265.5" y="-80.5" font-family="Helvetica,sans-Serif" font-size="10.00">index</text>
<text text-anchor="start" x="239.5" y="-65.5" font-family="Helvetica,sans-Serif" font-size="10.00">+</text>
<text text-anchor="start" x="265.5" y="-65.5" font-family="Helvetica,sans-Serif" font-size="10.00">int_base</text>
<text text-anchor="start" x="239.5" y="-50.5" font-family="Helvetica,sans-Serif" font-size="10.00">+</text>
<text text-anchor="start" x="265.5" y="-50.5" font-family="Helvetica,sans-Serif" font-size="10.00">common</text>
<text text-anchor="start" x="239.5" y="-35.5" font-family="Helvetica,sans-Serif" font-size="10.00">+</text>
<text text-anchor="start" x="265.5" y="-35.5" font-family="Helvetica,sans-Serif" font-size="10.00">event_in</text>
<text text-anchor="start" x="239.5" y="-20.5" font-family="Helvetica,sans-Serif" font-size="10.00">+</text>
<text text-anchor="start" x="265.5" y="-20.5" font-family="Helvetica,sans-Serif" font-size="10.00">event_out</text>
<text text-anchor="start" x="280" y="-5.5" font-family="Helvetica,sans-Serif" font-size="10.00"> </text>
<polygon fill="#666666" stroke="#666666" points="219.5,-92 219.5,-92 343.5,-92 343.5,-92 219.5,-92"/>
<polygon fill="#666666" stroke="#666666" points="219.5,-17 219.5,-17 263.5,-17 263.5,-17 219.5,-17"/>
<polygon fill="#666666" stroke="#666666" points="263.5,-17 263.5,-17 343.5,-17 343.5,-17 263.5,-17"/>
<polygon fill="none" stroke="#666666" points="219.5,0 219.5,-120 343.5,-120 343.5,0 219.5,0"/>
</a>
</g>
</g>
<!-- Node2 -->
<g id="Node000002" class="node">
<title>Node2</title>
<g id="a_Node000002"><a xlink:href="structTTL__ext__uchar__tensor__t.html" target="_top" xlink:title="const and non&#45;const tensors in the appropriate address space">
<polygon fill="white" stroke="none" points="115,-335 0,-335 0,-271 115,-271 115,-335"/>
<text text-anchor="start" x="4.62" y="-321.5" font-family="Helvetica,sans-Serif" font-size="10.00">TTL_ext_uchar_tensor_t</text>
<text text-anchor="start" x="17.5" y="-306.5" font-family="Helvetica,sans-Serif" font-size="10.00">+</text>
<text text-anchor="start" x="41" y="-306.5" font-family="Helvetica,sans-Serif" font-size="10.00">base</text>
<text text-anchor="start" x="17.5" y="-291.5" font-family="Helvetica,sans-Serif" font-size="10.00">+</text>
<text text-anchor="start" x="41" y="-291.5" font-family="Helvetica,sans-Serif" font-size="10.00">elem_size</text>
<text text-anchor="start" x="56" y="-276.5" font-family="Helvetica,sans-Serif" font-size="10.00"> </text>
<polygon fill="#666666" stroke="#666666" points="0,-318 0,-318 115,-318 115,-318 0,-318"/>
<polygon fill="#666666" stroke="#666666" points="0,-288 0,-288 39,-288 39,-288 0,-288"/>
<polygon fill="#666666" stroke="#666666" points="39,-288 39,-288 115,-288 115,-288 39,-288"/>
<polygon fill="none" stroke="#666666" points="0,-271 0,-335 115,-335 115,-271 0,-271"/>
</a>
</g>
</g>
<!-- Node2&#45;&gt;Node1 -->
<g id="edge1_Node000001_Node000002" class="edge">
<title>Node2&#45;&gt;Node1</title>
<g id="a_edge1_Node000001_Node000002"><a xlink:title=" ">
<path fill="none" stroke="#63b8ff" d="M70.93,-271.01C84.47,-242.06 107.41,-198.7 135.75,-167.25 156.84,-143.84 183.87,-122.42 208.91,-105.04"/>
<polygon fill="none" stroke="#63b8ff" points="208.83,-105.1 211.55,-98.42 218.76,-98.35 216.04,-105.03 208.83,-105.1"/>
</a>
</g>
<text text-anchor="middle" x="170.38" y="-193.5" font-family="Helvetica,sans-Serif" font-size="10.00" fill="grey"> +ext_tensor_in</text>
<text text-anchor="middle" x="170.38" y="-182.25" font-family="Helvetica,sans-Serif" font-size="10.00" fill="grey">+ext_tensor_out</text>
</g>
<!-- Node3 -->
<g id="Node000003" class="node">
<title>Node3</title>
<g id="a_Node000003"><a xlink:href="structTTL__layout__t.html" target="_top" xlink:title="Description of a Tensor layout in memory.">
<polygon fill="white" stroke="none" points="165.5,-461.25 85.5,-461.25 85.5,-397.25 165.5,-397.25 165.5,-461.25"/>
<text text-anchor="start" x="97" y="-447.75" font-family="Helvetica,sans-Serif" font-size="10.00">TTL_layout_t</text>
<text text-anchor="start" x="89.5" y="-432.75" font-family="Helvetica,sans-Serif" font-size="10.00">+</text>
<text text-anchor="start" x="99.5" y="-432.75" font-family="Helvetica,sans-Serif" font-size="10.00">row_spacing</text>
<text text-anchor="start" x="89.5" y="-417.75" font-family="Helvetica,sans-Serif" font-size="10.00">+</text>
<text text-anchor="start" x="99.5" y="-417.75" font-family="Helvetica,sans-Serif" font-size="10.00">plane_spacing</text>
<text text-anchor="start" x="124" y="-402.75" font-family="Helvetica,sans-Serif" font-size="10.00"> </text>
<polygon fill="#666666" stroke="#666666" points="85.5,-444.25 85.5,-444.25 165.5,-444.25 165.5,-444.25 85.5,-444.25"/>
<polygon fill="#666666" stroke="#666666" points="85.5,-414.25 85.5,-414.25 97.5,-414.25 97.5,-414.25 85.5,-414.25"/>
<polygon fill="#666666" stroke="#666666" points="97.5,-414.25 97.5,-414.25 165.5,-414.25 165.5,-414.25 97.5,-414.25"/>
<polygon fill="none" stroke="#666666" points="85.5,-397.25 85.5,-461.25 165.5,-461.25 165.5,-397.25 85.5,-397.25"/>
</a>
</g>
</g>
<!-- Node3&#45;&gt;Node2 -->
<g id="edge2_Node000002_Node000003" class="edge">
<title>Node3&#45;&gt;Node2</title>
<g id="a_edge2_Node000002_Node000003"><a xlink:title=" ">
<path fill="none" stroke="#63b8ff" d="M85.83,-402.46C75.91,-393.94 66.47,-383.57 60.75,-371.75 57.18,-364.38 55.31,-356.01 54.48,-347.73"/>
<polygon fill="none" stroke="#63b8ff" points="54.49,-347.84 50.24,-342.01 53.98,-335.85 58.23,-341.67 54.49,-347.84"/>
</a>
</g>
<text text-anchor="middle" x="77.38" y="-362.25" font-family="Helvetica,sans-Serif" font-size="10.00" fill="grey"> +layout</text>
</g>
<!-- Node8 -->
<g id="Node000008" class="node">
<title>Node8</title>
<g id="a_Node000008"><a xlink:href="structTTL__int__uchar__tensor__t.html" target="_top" xlink:title="const and non&#45;const tensors in the appropriate address space">
<polygon fill="white" stroke="none" points="246,-335 133,-335 133,-271 246,-271 246,-335"/>
<text text-anchor="start" x="137.75" y="-321.5" font-family="Helvetica,sans-Serif" font-size="10.00">TTL_int_uchar_tensor_t</text>
<text text-anchor="start" x="150" y="-306.5" font-family="Helvetica,sans-Serif" font-size="10.00">+</text>
<text text-anchor="start" x="173" y="-306.5" font-family="Helvetica,sans-Serif" font-size="10.00">base</text>
<text text-anchor="start" x="150" y="-291.5" font-family="Helvetica,sans-Serif" font-size="10.00">+</text>
<text text-anchor="start" x="173" y="-291.5" font-family="Helvetica,sans-Serif" font-size="10.00">elem_size</text>
<text text-anchor="start" x="188" y="-276.5" font-family="Helvetica,sans-Serif" font-size="10.00"> </text>
<polygon fill="#666666" stroke="#666666" points="133,-318 133,-318 246,-318 246,-318 133,-318"/>
<polygon fill="#666666" stroke="#666666" points="133,-288 133,-288 171,-288 171,-288 133,-288"/>
<polygon fill="#666666" stroke="#666666" points="171,-288 171,-288 246,-288 246,-288 171,-288"/>
<polygon fill="none" stroke="#666666" points="133,-271 133,-335 246,-335 246,-271 133,-271"/>
</a>
</g>
</g>
<!-- Node3&#45;&gt;Node8 -->
<g id="edge9_Node000008_Node000003" class="edge">
<title>Node3&#45;&gt;Node8</title>
<g id="a_edge9_Node000008_Node000003"><a xlink:title=" ">
<path fill="none" stroke="#63b8ff" d="M141.32,-397.54C149.32,-382.01 159.15,-362.92 167.84,-346.05"/>
<polygon fill="none" stroke="#63b8ff" points="167.73,-346.26 166.92,-339.09 173.23,-335.59 174.04,-342.76 167.73,-346.26"/>
</a>
</g>
<text text-anchor="middle" x="175.38" y="-362.25" font-family="Helvetica,sans-Serif" font-size="10.00" fill="grey"> +layout</text>
</g>
<!-- Node4 -->
<g id="Node000004" class="node">
<title>Node4</title>
<g id="a_Node000004"><a xlink:href="structTTL__shape__t.html" target="_top" xlink:title="Description of a Shape.">
<polygon fill="white" stroke="none" points="291,-468.75 224,-468.75 224,-389.75 291,-389.75 291,-468.75"/>
<text text-anchor="start" x="228.62" y="-455.25" font-family="Helvetica,sans-Serif" font-size="10.00">TTL_shape_t</text>
<text text-anchor="start" x="233.5" y="-440.25" font-family="Helvetica,sans-Serif" font-size="10.00">+</text>
<text text-anchor="start" x="249" y="-440.25" font-family="Helvetica,sans-Serif" font-size="10.00">width</text>
<text text-anchor="start" x="233.5" y="-425.25" font-family="Helvetica,sans-Serif" font-size="10.00">+</text>
<text text-anchor="start" x="249" y="-425.25" font-family="Helvetica,sans-Serif" font-size="10.00">height</text>
<text text-anchor="start" x="233.5" y="-410.25" font-family="Helvetica,sans-Serif" font-size="10.00">+</text>
<text text-anchor="start" x="249" y="-410.25" font-family="Helvetica,sans-Serif" font-size="10.00">depth</text>
<text text-anchor="start" x="256" y="-395.25" font-family="Helvetica,sans-Serif" font-size="10.00"> </text>
<polygon fill="#666666" stroke="#666666" points="224,-451.75 224,-451.75 291,-451.75 291,-451.75 224,-451.75"/>
<polygon fill="#666666" stroke="#666666" points="224,-406.75 224,-406.75 247,-406.75 247,-406.75 224,-406.75"/>
<polygon fill="#666666" stroke="#666666" points="247,-406.75 247,-406.75 291,-406.75 291,-406.75 247,-406.75"/>
<polygon fill="none" stroke="#666666" points="224,-389.75 224,-468.75 291,-468.75 291,-389.75 224,-389.75"/>
</a>
</g>
</g>
<!-- Node4&#45;&gt;Node2 -->
<g id="edge3_Node000002_Node000004" class="edge">
<title>Node4&#45;&gt;Node2</title>
<g id="a_edge3_Node000002_Node000004"><a xlink:title=" ">
<path fill="none" stroke="#63b8ff" d="M224.01,-411.5C209.06,-404.34 191.09,-396.16 174.5,-389.75 149.52,-380.1 139.45,-386.35 117,-371.75 105.88,-364.52 95.6,-354.65 86.83,-344.68"/>
<polygon fill="none" stroke="#63b8ff" points="86.83,-344.69 79.92,-342.64 79.15,-335.47 86.07,-337.52 86.83,-344.69"/>
</a>
</g>
<text text-anchor="middle" x="133.75" y="-362.25" font-family="Helvetica,sans-Serif" font-size="10.00" fill="grey"> +shape</text>
</g>
<!-- Node5 -->
<g id="Node000005" class="node">
<title>Node5</title>
<g id="a_Node000005"><a xlink:href="structTTL__tile__t.html" target="_top" xlink:title=" ">
<polygon fill="white" stroke="none" points="420.5,-216.25 366.5,-216.25 366.5,-167.25 420.5,-167.25 420.5,-216.25"/>
<text text-anchor="start" x="371.38" y="-202.75" font-family="Helvetica,sans-Serif" font-size="10.00">TTL_tile_t</text>
<text text-anchor="start" x="392" y="-187.75" font-family="Helvetica,sans-Serif" font-size="10.00"> </text>
<text text-anchor="start" x="392" y="-172.75" font-family="Helvetica,sans-Serif" font-size="10.00"> </text>
<polygon fill="#666666" stroke="#666666" points="366.5,-199.25 366.5,-199.25 420.5,-199.25 420.5,-199.25 366.5,-199.25"/>
<polygon fill="#666666" stroke="#666666" points="366.5,-184.25 366.5,-184.25 420.5,-184.25 420.5,-184.25 366.5,-184.25"/>
<polygon fill="none" stroke="#666666" points="366.5,-167.25 366.5,-216.25 420.5,-216.25 420.5,-167.25 366.5,-167.25"/>
</a>
</g>
</g>
<!-- Node4&#45;&gt;Node5 -->
<g id="edge5_Node000005_Node000004" class="edge">
<title>Node4&#45;&gt;Node5</title>
<g id="a_edge5_Node000005_Node000004"><a xlink:title=" ">
<path fill="none" stroke="#63b8ff" d="M290.72,-419.62C326.8,-408.36 382.96,-384.88 410.5,-342.5 436.8,-302.02 432.83,-280.65 419.5,-234.25 418.86,-232.02 418.06,-229.79 417.14,-227.59"/>
<polygon fill="none" stroke="#63b8ff" points="417.21,-227.73 410.92,-224.2 411.75,-217.04 418.04,-220.56 417.21,-227.73"/>
</a>
</g>
<text text-anchor="middle" x="446.75" y="-299.12" font-family="Helvetica,sans-Serif" font-size="10.00" fill="grey"> +shape</text>
</g>
<!-- Node7 -->
<g id="Node000007" class="node">
<title>Node7</title>
<g id="a_Node000007"><a xlink:href="structTTL__int__uchar__sub__tensor__t.html" target="_top" xlink:title="const and non&#45;const sub tensors in the appropriate address space">
<polygon fill="white" stroke="none" points="348.5,-216.25 214.5,-216.25 214.5,-167.25 348.5,-167.25 348.5,-216.25"/>
<text text-anchor="start" x="219.25" y="-202.75" font-family="Helvetica,sans-Serif" font-size="10.00">TTL_int_uchar_sub_tensor_t</text>
<text text-anchor="start" x="241.5" y="-187.75" font-family="Helvetica,sans-Serif" font-size="10.00">+</text>
<text text-anchor="start" x="274.5" y="-187.75" font-family="Helvetica,sans-Serif" font-size="10.00">origin</text>
<text text-anchor="start" x="280" y="-172.75" font-family="Helvetica,sans-Serif" font-size="10.00"> </text>
<polygon fill="#666666" stroke="#666666" points="214.5,-199.25 214.5,-199.25 348.5,-199.25 348.5,-199.25 214.5,-199.25"/>
<polygon fill="#666666" stroke="#666666" points="214.5,-184.25 214.5,-184.25 272.5,-184.25 272.5,-184.25 214.5,-184.25"/>
<polygon fill="#666666" stroke="#666666" points="272.5,-184.25 272.5,-184.25 348.5,-184.25 348.5,-184.25 272.5,-184.25"/>
<polygon fill="none" stroke="#666666" points="214.5,-167.25 214.5,-216.25 348.5,-216.25 348.5,-167.25 214.5,-167.25"/>
</a>
</g>
</g>
<!-- Node4&#45;&gt;Node7 -->
<g id="edge11_Node000007_Node000004" class="edge">
<title>Node4&#45;&gt;Node7</title>
<g id="a_edge11_Node000007_Node000004"><a xlink:title=" ">
<path fill="none" stroke="#63b8ff" d="M262.39,-389.97C263.13,-383.88 263.86,-377.65 264.5,-371.75 269.9,-322.36 275.16,-265.19 278.36,-229.01"/>
<polygon fill="none" stroke="#63b8ff" points="278.36,-229.08 274.9,-222.75 279.41,-217.13 282.87,-223.45 278.36,-229.08"/>
</a>
</g>
<text text-anchor="middle" x="291.75" y="-299.12" font-family="Helvetica,sans-Serif" font-size="10.00" fill="grey"> +shape</text>
</g>
<!-- Node4&#45;&gt;Node8 -->
<g id="edge10_Node000008_Node000004" class="edge">
<title>Node4&#45;&gt;Node8</title>
<g id="a_edge10_Node000008_Node000004"><a xlink:title=" ">
<path fill="none" stroke="#63b8ff" d="M236.54,-389.96C228.98,-376.14 220.41,-360.47 212.67,-346.33"/>
<polygon fill="none" stroke="#63b8ff" points="212.6,-346.21 206.21,-342.86 206.84,-335.68 213.23,-339.02 212.6,-346.21"/>
</a>
</g>
<text text-anchor="middle" x="242.75" y="-362.25" font-family="Helvetica,sans-Serif" font-size="10.00" fill="grey"> +shape</text>
</g>
<!-- Node5&#45;&gt;Node1 -->
<g id="edge4_Node000001_Node000005" class="edge">
<title>Node5&#45;&gt;Node1</title>
<g id="a_edge4_Node000001_Node000005"><a xlink:title=" ">
<path fill="none" stroke="#63b8ff" d="M385.32,-167.25C381.37,-157.67 376.04,-146.8 369.5,-138 364.37,-131.11 358.53,-124.39 352.36,-117.97"/>
<polygon fill="none" stroke="#63b8ff" points="352.28,-117.89 345.2,-116.51 343.76,-109.44 350.84,-110.83 352.28,-117.89"/>
</a>
</g>
<text text-anchor="middle" x="418.62" y="-139.75" font-family="Helvetica,sans-Serif" font-size="10.00" fill="grey"> +next_exported_tile</text>
</g>
<!-- Node6 -->
<g id="Node000006" class="node">
<title>Node6</title>
<g id="a_Node000006"><a xlink:href="structTTL__offset__t.html" target="_top" xlink:title="Description of the 3D offset of an object.">
<polygon fill="white" stroke="none" points="401,-342.5 336,-342.5 336,-263.5 401,-263.5 401,-342.5"/>
<text text-anchor="start" x="340.75" y="-329" font-family="Helvetica,sans-Serif" font-size="10.00">TTL_offset_t</text>
<text text-anchor="start" x="350.5" y="-314" font-family="Helvetica,sans-Serif" font-size="10.00">+</text>
<text text-anchor="start" x="371" y="-314" font-family="Helvetica,sans-Serif" font-size="10.00">x</text>
<text text-anchor="start" x="350.5" y="-299" font-family="Helvetica,sans-Serif" font-size="10.00">+</text>
<text text-anchor="start" x="371" y="-299" font-family="Helvetica,sans-Serif" font-size="10.00">y</text>
<text text-anchor="start" x="350.5" y="-284" font-family="Helvetica,sans-Serif" font-size="10.00">+</text>
<text text-anchor="start" x="371" y="-284" font-family="Helvetica,sans-Serif" font-size="10.00">z</text>
<text text-anchor="start" x="367" y="-269" font-family="Helvetica,sans-Serif" font-size="10.00"> </text>
<polygon fill="#666666" stroke="#666666" points="336,-325.5 336,-325.5 401,-325.5 401,-325.5 336,-325.5"/>
<polygon fill="#666666" stroke="#666666" points="336,-280.5 336,-280.5 369,-280.5 369,-280.5 336,-280.5"/>
<polygon fill="#666666" stroke="#666666" points="369,-280.5 369,-280.5 401,-280.5 401,-280.5 369,-280.5"/>
<polygon fill="none" stroke="#666666" points="336,-263.5 336,-342.5 401,-342.5 401,-263.5 336,-263.5"/>
</a>
</g>
</g>
<!-- Node6&#45;&gt;Node5 -->
<g id="edge6_Node000005_Node000006" class="edge">
<title>Node6&#45;&gt;Node5</title>
<g id="a_edge6_Node000005_Node000006"><a xlink:title=" ">
<path fill="none" stroke="#63b8ff" d="M377.24,-263.79C379.85,-252.38 382.71,-239.92 385.28,-228.66"/>
<polygon fill="none" stroke="#63b8ff" points="385.27,-228.71 382.71,-221.97 387.95,-217.01 390.51,-223.75 385.27,-228.71"/>
</a>
</g>
<text text-anchor="middle" x="399.62" y="-236" font-family="Helvetica,sans-Serif" font-size="10.00" fill="grey"> +offset</text>
</g>
<!-- Node6&#45;&gt;Node7 -->
<g id="edge12_Node000007_Node000006" class="edge">
<title>Node6&#45;&gt;Node7</title>
<g id="a_edge12_Node000007_Node000006"><a xlink:title=" ">
<path fill="none" stroke="#63b8ff" d="M338.07,-263.79C328.29,-251.51 317.54,-238.01 308.07,-226.11"/>
<polygon fill="none" stroke="#63b8ff" points="308.16,-226.22 301.29,-224.02 300.68,-216.84 307.55,-219.04 308.16,-226.22"/>
</a>
</g>
<text text-anchor="middle" x="348.12" y="-236" font-family="Helvetica,sans-Serif" font-size="10.00" fill="grey"> +sub_offset</text>
</g>
<!-- Node7&#45;&gt;Node1 -->
<g id="edge7_Node000001_Node000007" class="edge">
<title>Node7&#45;&gt;Node1</title>
<g id="a_edge7_Node000001_Node000007"><a xlink:title=" ">
<path fill="none" stroke="#63b8ff" d="M281.5,-167.25C281.5,-157.39 281.5,-145.33 281.5,-132.93"/>
<polygon fill="none" stroke="#63b8ff" points="281.5,-132.86 277.5,-126.86 281.5,-120.86 285.5,-126.86 281.5,-132.86"/>
</a>
</g>
<text text-anchor="middle" x="324.25" y="-139.75" font-family="Helvetica,sans-Serif" font-size="10.00" fill="grey"> +int_prev_imported</text>
</g>
<!-- Node8&#45;&gt;Node7 -->
<g id="edge8_Node000007_Node000008" class="edge">
<title>Node8&#45;&gt;Node7</title>
<g id="a_edge8_Node000007_Node000008"><a xlink:title=" ">
<path fill="none" stroke="#63b8ff" d="M206.91,-271C214.32,-258.98 223.5,-245.44 233.25,-234.25 236.01,-231.08 239.01,-227.95 242.13,-224.89"/>
<polygon fill="none" stroke="#63b8ff" points="242.2,-224.82 243.88,-217.81 251,-216.67 249.32,-223.68 242.2,-224.82"/>
</a>
</g>
<text text-anchor="middle" x="250.12" y="-236" font-family="Helvetica,sans-Serif" font-size="10.00" fill="grey"> +tensor</text>
</g>
</g>
</svg>
