<?xml version="1.0" encoding="UTF-8" standalone="no"?>
<!DOCTYPE svg PUBLIC "-//W3C//DTD SVG 1.1//EN"
 "http://www.w3.org/Graphics/SVG/1.1/DTD/svg11.dtd">
<!-- Generated by graphviz version 12.2.1 (20241206.2353)
 -->
<!-- Title: TTL_ext_ulong_sub_tensor_t Pages: 1 -->
<svg width="273pt" height="313pt"
 viewBox="0.00 0.00 273.25 312.75" xmlns="http://www.w3.org/2000/svg" xmlns:xlink="http://www.w3.org/1999/xlink">
<g id="graph0" class="graph" transform="scale(1 1) rotate(0) translate(4 308.75)">
<title>TTL_ext_ulong_sub_tensor_t</title>
<!-- Node1 -->
<g id="Node000001" class="node">
<title>Node1</title>
<g id="a_Node000001"><a xlink:title="const and non&#45;const sub tensors in the appropriate address space">
<polygon fill="#999999" stroke="none" points="216.5,-49.75 82.5,-49.75 82.5,0 216.5,0 216.5,-49.75"/>
<text text-anchor="start" x="86.5" y="-36.25" font-family="Helvetica,sans-Serif" font-size="10.00">TTL_ext_ulong_sub_tensor_t</text>
<text text-anchor="start" x="109.69" y="-21" font-family="Helvetica,sans-Serif" font-size="10.00">+</text>
<text text-anchor="start" x="142.88" y="-21" font-family="Helvetica,sans-Serif" font-size="10.00">origin</text>
<text text-anchor="start" x="148" y="-5.75" font-family="Helvetica,sans-Serif" font-size="10.00"> </text>
<polygon fill="#666666" stroke="#666666" points="82.5,-32.5 82.5,-32.5 216.5,-32.5 216.5,-32.5 82.5,-32.5"/>
<polygon fill="#666666" stroke="#666666" points="82.5,-17.25 82.5,-17.25 140.88,-17.25 140.88,-17.25 82.5,-17.25"/>
<polygon fill="#666666" stroke="#666666" points="140.88,-17.25 140.88,-17.25 216.5,-17.25 216.5,-17.25 140.88,-17.25"/>
<polygon fill="none" stroke="#666666" points="82.5,0 82.5,-49.75 216.5,-49.75 216.5,0 82.5,0"/>
</a>
</g>
</g>
<!-- Node2 -->
<g id="Node000002" class="node">
<title>Node2</title>
<g id="a_Node000002"><a xlink:href="structTTL__ext__ulong__tensor__t.html" target="_top" xlink:title="const and non&#45;const tensors in the appropriate address space">
<polygon fill="white" stroke="none" points="113,-169.62 0,-169.62 0,-104.62 113,-104.62 113,-169.62"/>
<text text-anchor="start" x="4" y="-156.12" font-family="Helvetica,sans-Serif" font-size="10.00">TTL_ext_ulong_tensor_t</text>
<text text-anchor="start" x="16.88" y="-140.88" font-family="Helvetica,sans-Serif" font-size="10.00">+</text>
<text text-anchor="start" x="39.75" y="-140.88" font-family="Helvetica,sans-Serif" font-size="10.00">base</text>
<text text-anchor="start" x="16.88" y="-125.62" font-family="Helvetica,sans-Serif" font-size="10.00">+</text>
<text text-anchor="start" x="39.75" y="-125.62" font-family="Helvetica,sans-Serif" font-size="10.00">elem_size</text>
<text text-anchor="start" x="55" y="-110.38" font-family="Helvetica,sans-Serif" font-size="10.00"> </text>
<polygon fill="#666666" stroke="#666666" points="0,-152.38 0,-152.38 113,-152.38 113,-152.38 0,-152.38"/>
<polygon fill="#666666" stroke="#666666" points="0,-121.88 0,-121.88 37.75,-121.88 37.75,-121.88 0,-121.88"/>
<polygon fill="#666666" stroke="#666666" points="37.75,-121.88 37.75,-121.88 113,-121.88 113,-121.88 37.75,-121.88"/>
<polygon fill="none" stroke="#666666" points="0,-104.62 0,-169.62 113,-169.62 113,-104.62 0,-104.62"/>
</a>
</g>
</g>
<!-- Node2&#45;&gt;Node1 -->
<g id="edge1_Node000001_Node000002" class="edge">
<title>Node2&#45;&gt;Node1</title>
<g id="a_edge1_Node000001_Node000002"><a xlink:title=" ">
<path fill="none" stroke="#63b8ff" d="M73.84,-104.8C81.24,-92.66 90.43,-79 100.25,-67.75 103.02,-64.58 106.03,-61.44 109.16,-58.39"/>
<polygon fill="none" stroke="#63b8ff" points="109.26,-58.3 110.97,-51.29 118.09,-50.17 116.38,-57.18 109.26,-58.3"/>
</a>
</g>
<text text-anchor="middle" x="117.88" y="-69.5" font-family="Helvetica,sans-Serif" font-size="10.00" fill="grey"> +tensor</text>
</g>
<!-- Node3 -->
<g id="Node000003" class="node">
<title>Node3</title>
<g id="a_Node000003"><a xlink:href="structTTL__layout__t.html" target="_top" xlink:title="Description of a Tensor layout in memory.">
<polygon fill="white" stroke="none" points="82.62,-297.12 2.38,-297.12 2.38,-232.12 82.62,-232.12 82.62,-297.12"/>
<text text-anchor="start" x="14" y="-283.62" font-family="Helvetica,sans-Serif" font-size="10.00">TTL_layout_t</text>
<text text-anchor="start" x="6.38" y="-268.38" font-family="Helvetica,sans-Serif" font-size="10.00">+</text>
<text text-anchor="start" x="16.38" y="-268.38" font-family="Helvetica,sans-Serif" font-size="10.00">row_spacing</text>
<text text-anchor="start" x="6.38" y="-253.12" font-family="Helvetica,sans-Serif" font-size="10.00">+</text>
<text text-anchor="start" x="16.38" y="-253.12" font-family="Helvetica,sans-Serif" font-size="10.00">plane_spacing</text>
<text text-anchor="start" x="41" y="-237.88" font-family="Helvetica,sans-Serif" font-size="10.00"> </text>
<polygon fill="#666666" stroke="#666666" points="2.38,-279.88 2.38,-279.88 82.62,-279.88 82.62,-279.88 2.38,-279.88"/>
<polygon fill="#666666" stroke="#666666" points="2.38,-249.38 2.38,-249.38 14.38,-249.38 14.38,-249.38 2.38,-249.38"/>
<polygon fill="#666666" stroke="#666666" points="14.38,-249.38 14.38,-249.38 82.62,-249.38 82.62,-249.38 14.38,-249.38"/>
<polygon fill="none" stroke="#666666" points="2.38,-232.12 2.38,-297.12 82.62,-297.12 82.62,-232.12 2.38,-232.12"/>
</a>
</g>
</g>
<!-- Node3&#45;&gt;Node2 -->
<g id="edge2_Node000002_Node000003" class="edge">
<title>Node3&#45;&gt;Node2</title>
<g id="a_edge2_Node000002_Node000003"><a xlink:title=" ">
<path fill="none" stroke="#63b8ff" d="M41.75,-232.22C41.82,-220.57 42.31,-207.27 43.75,-195.25 44.27,-190.88 44.98,-186.35 45.8,-181.85"/>
<polygon fill="none" stroke="#63b8ff" points="45.77,-182 43.05,-175.32 48.16,-170.24 50.89,-176.92 45.77,-182"/>
</a>
</g>
<text text-anchor="middle" x="60.62" y="-197" font-family="Helvetica,sans-Serif" font-size="10.00" fill="grey"> +layout</text>
</g>
<!-- Node4 -->
<g id="Node000004" class="node">
<title>Node4</title>
<g id="a_Node000004"><a xlink:href="structTTL__shape__t.html" target="_top" xlink:title="Description of a Shape.">
<polygon fill="white" stroke="none" points="174.38,-304.75 108.62,-304.75 108.62,-224.5 174.38,-224.5 174.38,-304.75"/>
<text text-anchor="start" x="112.62" y="-291.25" font-family="Helvetica,sans-Serif" font-size="10.00">TTL_shape_t</text>
<text text-anchor="start" x="118" y="-276" font-family="Helvetica,sans-Serif" font-size="10.00">+</text>
<text text-anchor="start" x="133.38" y="-276" font-family="Helvetica,sans-Serif" font-size="10.00">width</text>
<text text-anchor="start" x="118" y="-260.75" font-family="Helvetica,sans-Serif" font-size="10.00">+</text>
<text text-anchor="start" x="133.38" y="-260.75" font-family="Helvetica,sans-Serif" font-size="10.00">height</text>
<text text-anchor="start" x="118" y="-245.5" font-family="Helvetica,sans-Serif" font-size="10.00">+</text>
<text text-anchor="start" x="133.38" y="-245.5" font-family="Helvetica,sans-Serif" font-size="10.00">depth</text>
<text text-anchor="start" x="140" y="-230.25" font-family="Helvetica,sans-Serif" font-size="10.00"> </text>
<polygon fill="#666666" stroke="#666666" points="108.62,-287.5 108.62,-287.5 174.38,-287.5 174.38,-287.5 108.62,-287.5"/>
<polygon fill="#666666" stroke="#666666" points="108.62,-241.75 108.62,-241.75 131.38,-241.75 131.38,-241.75 108.62,-241.75"/>
<polygon fill="#666666" stroke="#666666" points="131.38,-241.75 131.38,-241.75 174.38,-241.75 174.38,-241.75 131.38,-241.75"/>
<polygon fill="none" stroke="#666666" points="108.62,-224.5 108.62,-304.75 174.38,-304.75 174.38,-224.5 108.62,-224.5"/>
</a>
</g>
</g>
<!-- Node4&#45;&gt;Node1 -->
<g id="edge4_Node000001_Node000004" class="edge">
<title>Node4&#45;&gt;Node1</title>
<g id="a_edge4_Node000001_Node000004"><a xlink:title=" ">
<path fill="none" stroke="#63b8ff" d="M142.81,-224.63C144.32,-179.72 146.79,-106.5 148.27,-62.58"/>
<polygon fill="none" stroke="#63b8ff" points="148.26,-62.58 144.47,-56.45 148.67,-50.58 152.46,-56.72 148.26,-62.58"/>
</a>
</g>
<text text-anchor="middle" x="164.31" y="-133.25" font-family="Helvetica,sans-Serif" font-size="10.00" fill="grey"> +shape</text>
</g>
<!-- Node4&#45;&gt;Node2 -->
<g id="edge3_Node000002_Node000004" class="edge">
<title>Node4&#45;&gt;Node2</title>
<g id="a_edge3_Node000002_Node000004"><a xlink:title=" ">
<path fill="none" stroke="#63b8ff" d="M113.62,-224.74C109.36,-218.66 105.03,-212.43 101,-206.5 95.29,-198.1 89.29,-189.04 83.6,-180.35"/>
<polygon fill="none" stroke="#63b8ff" points="83.66,-180.43 77.03,-177.58 77.11,-170.37 83.74,-173.22 83.66,-180.43"/>
</a>
</g>
<text text-anchor="middle" x="118.25" y="-197" font-family="Helvetica,sans-Serif" font-size="10.00" fill="grey"> +shape</text>
</g>
<!-- Node5 -->
<g id="Node000005" class="node">
<title>Node5</title>
<g id="a_Node000005"><a xlink:href="structTTL__offset__t.html" target="_top" xlink:title="Description of the 3D offset of an object.">
<polygon fill="white" stroke="none" points="265.25,-177.25 201.75,-177.25 201.75,-97 265.25,-97 265.25,-177.25"/>
<text text-anchor="start" x="205.75" y="-163.75" font-family="Helvetica,sans-Serif" font-size="10.00">TTL_offset_t</text>
<text text-anchor="start" x="216" y="-148.5" font-family="Helvetica,sans-Serif" font-size="10.00">+</text>
<text text-anchor="start" x="236.25" y="-148.5" font-family="Helvetica,sans-Serif" font-size="10.00">x</text>
<text text-anchor="start" x="216" y="-133.25" font-family="Helvetica,sans-Serif" font-size="10.00">+</text>
<text text-anchor="start" x="236.25" y="-133.25" font-family="Helvetica,sans-Serif" font-size="10.00">y</text>
<text text-anchor="start" x="216" y="-118" font-family="Helvetica,sans-Serif" font-size="10.00">+</text>
<text text-anchor="start" x="236.25" y="-118" font-family="Helvetica,sans-Serif" font-size="10.00">z</text>
<text text-anchor="start" x="232" y="-102.75" font-family="Helvetica,sans-Serif" font-size="10.00"> </text>
<polygon fill="#666666" stroke="#666666" points="201.75,-160 201.75,-160 265.25,-160 265.25,-160 201.75,-160"/>
<polygon fill="#666666" stroke="#666666" points="201.75,-114.25 201.75,-114.25 234.25,-114.25 234.25,-114.25 201.75,-114.25"/>
<polygon fill="#666666" stroke="#666666" points="234.25,-114.25 234.25,-114.25 265.25,-114.25 265.25,-114.25 234.25,-114.25"/>
<polygon fill="none" stroke="#666666" points="201.75,-97 201.75,-177.25 265.25,-177.25 265.25,-97 201.75,-97"/>
</a>
</g>
</g>
<!-- Node5&#45;&gt;Node1 -->
<g id="edge5_Node000001_Node000005" class="edge">
<title>Node5&#45;&gt;Node1</title>
<g id="a_edge5_Node000001_Node000005"><a xlink:title=" ">
<path fill="none" stroke="#63b8ff" d="M203.88,-97.25C194.63,-85.1 184.49,-71.8 175.5,-60"/>
<polygon fill="none" stroke="#63b8ff" points="175.44,-59.92 168.62,-57.58 168.17,-50.38 174.99,-52.73 175.44,-59.92"/>
</a>
</g>
<text text-anchor="middle" x="215.61" y="-69.5" font-family="Helvetica,sans-Serif" font-size="10.00" fill="grey"> +sub_offset</text>
</g>
</g>
</svg>
