<?xml version="1.0" encoding="UTF-8" standalone="no"?>
<!DOCTYPE svg PUBLIC "-//W3C//DTD SVG 1.1//EN"
 "http://www.w3.org/Graphics/SVG/1.1/DTD/svg11.dtd">
<!-- Generated by graphviz version 12.2.1 (20241206.2353)
 -->
<!-- Title: TTL_import_double_const_void_tensor_buffering_t Pages: 1 -->
<svg width="254pt" height="377pt"
 viewBox="0.00 0.00 253.88 377.00" xmlns="http://www.w3.org/2000/svg" xmlns:xlink="http://www.w3.org/1999/xlink">
<g id="graph0" class="graph" transform="scale(1 1) rotate(0) translate(4 373)">
<title>TTL_import_double_const_void_tensor_buffering_t</title>
<!-- Node1 -->
<g id="Node000001" class="node">
<title>Node1</title>
<g id="a_Node000001"><a xlink:title="Data required to perform double buffer pipelining.">
<polygon fill="#999999" stroke="none" points="186.75,-106.75 65.5,-106.75 65.5,0 186.75,0 186.75,-106.75"/>
<text text-anchor="start" x="69.5" y="-93.25" font-family="Helvetica,sans-Serif" font-size="10.00">TTL_import_double_const</text>
<text text-anchor="start" x="73.25" y="-82" font-family="Helvetica,sans-Serif" font-size="10.00">_void_tensor_buffering_t</text>
<text text-anchor="start" x="85.94" y="-66.75" font-family="Helvetica,sans-Serif" font-size="10.00">+</text>
<text text-anchor="start" x="112.38" y="-66.75" font-family="Helvetica,sans-Serif" font-size="10.00">index</text>
<text text-anchor="start" x="85.94" y="-51.5" font-family="Helvetica,sans-Serif" font-size="10.00">+</text>
<text text-anchor="start" x="112.38" y="-51.5" font-family="Helvetica,sans-Serif" font-size="10.00">int_base</text>
<text text-anchor="start" x="85.94" y="-36.25" font-family="Helvetica,sans-Serif" font-size="10.00">+</text>
<text text-anchor="start" x="112.38" y="-36.25" font-family="Helvetica,sans-Serif" font-size="10.00">common</text>
<text text-anchor="start" x="85.94" y="-21" font-family="Helvetica,sans-Serif" font-size="10.00">+</text>
<text text-anchor="start" x="112.38" y="-21" font-family="Helvetica,sans-Serif" font-size="10.00">event</text>
<text text-anchor="start" x="124.62" y="-5.75" font-family="Helvetica,sans-Serif" font-size="10.00"> </text>
<polygon fill="#666666" stroke="#666666" points="65.5,-78.25 65.5,-78.25 186.75,-78.25 186.75,-78.25 65.5,-78.25"/>
<polygon fill="#666666" stroke="#666666" points="65.5,-17.25 65.5,-17.25 110.38,-17.25 110.38,-17.25 65.5,-17.25"/>
<polygon fill="#666666" stroke="#666666" points="110.38,-17.25 110.38,-17.25 186.75,-17.25 186.75,-17.25 110.38,-17.25"/>
<polygon fill="none" stroke="#666666" points="65.5,0 65.5,-106.75 186.75,-106.75 186.75,0 65.5,0"/>
</a>
</g>
</g>
<!-- Node2 -->
<g id="Node000002" class="node">
<title>Node2</title>
<g id="a_Node000002"><a xlink:href="structTTL__const__ext__void__tensor__t.html" target="_top" xlink:title=" ">
<polygon fill="white" stroke="none" points="128.38,-241.5 31.88,-241.5 31.88,-165.25 128.38,-165.25 128.38,-241.5"/>
<text text-anchor="start" x="35.88" y="-228" font-family="Helvetica,sans-Serif" font-size="10.00">TTL_const_ext_void</text>
<text text-anchor="start" x="59.88" y="-216.75" font-family="Helvetica,sans-Serif" font-size="10.00">_tensor_t</text>
<text text-anchor="start" x="44.62" y="-201.5" font-family="Helvetica,sans-Serif" font-size="10.00">+</text>
<text text-anchor="start" x="63.38" y="-201.5" font-family="Helvetica,sans-Serif" font-size="10.00">base</text>
<text text-anchor="start" x="44.62" y="-186.25" font-family="Helvetica,sans-Serif" font-size="10.00">+</text>
<text text-anchor="start" x="63.38" y="-186.25" font-family="Helvetica,sans-Serif" font-size="10.00">elem_size</text>
<text text-anchor="start" x="78.62" y="-171" font-family="Helvetica,sans-Serif" font-size="10.00"> </text>
<polygon fill="#666666" stroke="#666666" points="31.88,-213 31.88,-213 128.38,-213 128.38,-213 31.88,-213"/>
<polygon fill="#666666" stroke="#666666" points="31.88,-182.5 31.88,-182.5 61.38,-182.5 61.38,-182.5 31.88,-182.5"/>
<polygon fill="#666666" stroke="#666666" points="61.38,-182.5 61.38,-182.5 128.38,-182.5 128.38,-182.5 61.38,-182.5"/>
<polygon fill="none" stroke="#666666" points="31.88,-165.25 31.88,-241.5 128.38,-241.5 128.38,-165.25 31.88,-165.25"/>
</a>
</g>
</g>
<!-- Node2&#45;&gt;Node1 -->
<g id="edge1_Node000001_Node000002" class="edge">
<title>Node2&#45;&gt;Node1</title>
<g id="a_edge1_Node000001_Node000002"><a xlink:title=" ">
<path fill="none" stroke="#63b8ff" d="M76.64,-165.41C76.47,-152.33 77.5,-137.66 81.38,-124.75 82,-122.65 82.71,-120.56 83.5,-118.47"/>
<polygon fill="none" stroke="#63b8ff" points="83.48,-118.5 82.22,-111.4 88.29,-107.5 89.55,-114.6 83.48,-118.5"/>
</a>
</g>
<text text-anchor="middle" x="116.25" y="-137.75" font-family="Helvetica,sans-Serif" font-size="10.00" fill="grey"> +ext_tensor_in</text>
<text text-anchor="middle" x="116.25" y="-126.5" font-family="Helvetica,sans-Serif" font-size="10.00" fill="grey">+ext_tensor_out</text>
</g>
<!-- Node3 -->
<g id="Node000003" class="node">
<title>Node3</title>
<g id="a_Node000003"><a xlink:href="structTTL__layout__t.html" target="_top" xlink:title="Description of a Tensor layout in memory.">
<polygon fill="white" stroke="none" points="80.25,-361.38 0,-361.38 0,-296.38 80.25,-296.38 80.25,-361.38"/>
<text text-anchor="start" x="11.62" y="-347.88" font-family="Helvetica,sans-Serif" font-size="10.00">TTL_layout_t</text>
<text text-anchor="start" x="4" y="-332.62" font-family="Helvetica,sans-Serif" font-size="10.00">+</text>
<text text-anchor="start" x="14" y="-332.62" font-family="Helvetica,sans-Serif" font-size="10.00">row_spacing</text>
<text text-anchor="start" x="4" y="-317.38" font-family="Helvetica,sans-Serif" font-size="10.00">+</text>
<text text-anchor="start" x="14" y="-317.38" font-family="Helvetica,sans-Serif" font-size="10.00">plane_spacing</text>
<text text-anchor="start" x="38.62" y="-302.12" font-family="Helvetica,sans-Serif" font-size="10.00"> </text>
<polygon fill="#666666" stroke="#666666" points="0,-344.12 0,-344.12 80.25,-344.12 80.25,-344.12 0,-344.12"/>
<polygon fill="#666666" stroke="#666666" points="0,-313.62 0,-313.62 12,-313.62 12,-313.62 0,-313.62"/>
<polygon fill="#666666" stroke="#666666" points="12,-313.62 12,-313.62 80.25,-313.62 80.25,-313.62 12,-313.62"/>
<polygon fill="none" stroke="#666666" points="0,-296.38 0,-361.38 80.25,-361.38 80.25,-296.38 0,-296.38"/>
</a>
</g>
</g>
<!-- Node3&#45;&gt;Node2 -->
<g id="edge2_Node000002_Node000003" class="edge">
<title>Node3&#45;&gt;Node2</title>
<g id="a_edge2_Node000002_Node000003"><a xlink:title=" ">
<path fill="none" stroke="#63b8ff" d="M37.49,-296.6C37.44,-284.72 38.53,-271.24 42.38,-259.5 43.1,-257.28 43.95,-255.07 44.89,-252.88"/>
<polygon fill="none" stroke="#63b8ff" points="44.86,-252.94 44.01,-245.78 50.3,-242.24 51.15,-249.4 44.86,-252.94"/>
</a>
</g>
<text text-anchor="middle" x="59.25" y="-261.25" font-family="Helvetica,sans-Serif" font-size="10.00" fill="grey"> +layout</text>
</g>
<!-- Node4 -->
<g id="Node000004" class="node">
<title>Node4</title>
<g id="a_Node000004"><a xlink:href="structTTL__shape__t.html" target="_top" xlink:title="Description of a Shape.">
<polygon fill="white" stroke="none" points="164,-369 98.25,-369 98.25,-288.75 164,-288.75 164,-369"/>
<text text-anchor="start" x="102.25" y="-355.5" font-family="Helvetica,sans-Serif" font-size="10.00">TTL_shape_t</text>
<text text-anchor="start" x="107.62" y="-340.25" font-family="Helvetica,sans-Serif" font-size="10.00">+</text>
<text text-anchor="start" x="123" y="-340.25" font-family="Helvetica,sans-Serif" font-size="10.00">width</text>
<text text-anchor="start" x="107.62" y="-325" font-family="Helvetica,sans-Serif" font-size="10.00">+</text>
<text text-anchor="start" x="123" y="-325" font-family="Helvetica,sans-Serif" font-size="10.00">height</text>
<text text-anchor="start" x="107.62" y="-309.75" font-family="Helvetica,sans-Serif" font-size="10.00">+</text>
<text text-anchor="start" x="123" y="-309.75" font-family="Helvetica,sans-Serif" font-size="10.00">depth</text>
<text text-anchor="start" x="129.62" y="-294.5" font-family="Helvetica,sans-Serif" font-size="10.00"> </text>
<polygon fill="#666666" stroke="#666666" points="98.25,-351.75 98.25,-351.75 164,-351.75 164,-351.75 98.25,-351.75"/>
<polygon fill="#666666" stroke="#666666" points="98.25,-306 98.25,-306 121,-306 121,-306 98.25,-306"/>
<polygon fill="#666666" stroke="#666666" points="121,-306 121,-306 164,-306 164,-306 121,-306"/>
<polygon fill="none" stroke="#666666" points="98.25,-288.75 98.25,-369 164,-369 164,-288.75 98.25,-288.75"/>
</a>
</g>
</g>
<!-- Node4&#45;&gt;Node2 -->
<g id="edge3_Node000002_Node000004" class="edge">
<title>Node4&#45;&gt;Node2</title>
<g id="a_edge3_Node000002_Node000004"><a xlink:title=" ">
<path fill="none" stroke="#63b8ff" d="M114.99,-288.8C110.31,-277.47 105.14,-264.96 100.25,-253.12"/>
<polygon fill="none" stroke="#63b8ff" points="100.21,-253.02 94.23,-249 95.63,-241.93 101.62,-245.95 100.21,-253.02"/>
</a>
</g>
<text text-anchor="middle" x="124.4" y="-261.25" font-family="Helvetica,sans-Serif" font-size="10.00" fill="grey"> +shape</text>
</g>
<!-- Node5 -->
<g id="Node000005" class="node">
<title>Node5</title>
<g id="a_Node000005"><a xlink:href="structTTL__tile__t.html" target="_top" xlink:title=" ">
<polygon fill="white" stroke="none" points="199.25,-228.25 147,-228.25 147,-178.5 199.25,-178.5 199.25,-228.25"/>
<text text-anchor="start" x="151" y="-214.75" font-family="Helvetica,sans-Serif" font-size="10.00">TTL_tile_t</text>
<text text-anchor="start" x="171.62" y="-199.5" font-family="Helvetica,sans-Serif" font-size="10.00"> </text>
<text text-anchor="start" x="171.62" y="-184.25" font-family="Helvetica,sans-Serif" font-size="10.00"> </text>
<polygon fill="#666666" stroke="#666666" points="147,-211 147,-211 199.25,-211 199.25,-211 147,-211"/>
<polygon fill="#666666" stroke="#666666" points="147,-195.75 147,-195.75 199.25,-195.75 199.25,-195.75 147,-195.75"/>
<polygon fill="none" stroke="#666666" points="147,-178.5 147,-228.25 199.25,-228.25 199.25,-178.5 147,-178.5"/>
</a>
</g>
</g>
<!-- Node4&#45;&gt;Node5 -->
<g id="edge5_Node000005_Node000004" class="edge">
<title>Node4&#45;&gt;Node5</title>
<g id="a_edge5_Node000005_Node000004"><a xlink:title=" ">
<path fill="none" stroke="#63b8ff" d="M143.83,-288.77C146.99,-279.19 150.4,-268.96 153.62,-259.5 155.76,-253.24 158.08,-246.59 160.34,-240.15"/>
<polygon fill="none" stroke="#63b8ff" points="160.26,-240.38 158.49,-233.38 164.26,-229.06 166.03,-236.05 160.26,-240.38"/>
</a>
</g>
<text text-anchor="middle" x="170.88" y="-261.25" font-family="Helvetica,sans-Serif" font-size="10.00" fill="grey"> +shape</text>
</g>
<!-- Node5&#45;&gt;Node1 -->
<g id="edge4_Node000001_Node000005" class="edge">
<title>Node5&#45;&gt;Node1</title>
<g id="a_edge4_Node000001_Node000005"><a xlink:title=" ">
<path fill="none" stroke="#63b8ff" d="M166.88,-178.82C162.67,-163.37 156.87,-142.77 151.12,-124.75 150.5,-122.8 149.87,-120.83 149.21,-118.84"/>
<polygon fill="none" stroke="#63b8ff" points="149.18,-118.74 143.48,-114.33 145.36,-107.37 151.06,-111.78 149.18,-118.74"/>
</a>
</g>
<text text-anchor="middle" x="180.1" y="-132.12" font-family="Helvetica,sans-Serif" font-size="10.00" fill="grey"> +prev_tile</text>
</g>
<!-- Node6 -->
<g id="Node000006" class="node">
<title>Node6</title>
<g id="a_Node000006"><a xlink:href="structTTL__offset__t.html" target="_top" xlink:title="Description of the 3D offset of an object.">
<polygon fill="white" stroke="none" points="245.88,-369 182.38,-369 182.38,-288.75 245.88,-288.75 245.88,-369"/>
<text text-anchor="start" x="186.38" y="-355.5" font-family="Helvetica,sans-Serif" font-size="10.00">TTL_offset_t</text>
<text text-anchor="start" x="196.62" y="-340.25" font-family="Helvetica,sans-Serif" font-size="10.00">+</text>
<text text-anchor="start" x="216.88" y="-340.25" font-family="Helvetica,sans-Serif" font-size="10.00">x</text>
<text text-anchor="start" x="196.62" y="-325" font-family="Helvetica,sans-Serif" font-size="10.00">+</text>
<text text-anchor="start" x="216.88" y="-325" font-family="Helvetica,sans-Serif" font-size="10.00">y</text>
<text text-anchor="start" x="196.62" y="-309.75" font-family="Helvetica,sans-Serif" font-size="10.00">+</text>
<text text-anchor="start" x="216.88" y="-309.75" font-family="Helvetica,sans-Serif" font-size="10.00">z</text>
<text text-anchor="start" x="212.62" y="-294.5" font-family="Helvetica,sans-Serif" font-size="10.00"> </text>
<polygon fill="#666666" stroke="#666666" points="182.38,-351.75 182.38,-351.75 245.88,-351.75 245.88,-351.75 182.38,-351.75"/>
<polygon fill="#666666" stroke="#666666" points="182.38,-306 182.38,-306 214.88,-306 214.88,-306 182.38,-306"/>
<polygon fill="#666666" stroke="#666666" points="214.88,-306 214.88,-306 245.88,-306 245.88,-306 214.88,-306"/>
<polygon fill="none" stroke="#666666" points="182.38,-288.75 182.38,-369 245.88,-369 245.88,-288.75 182.38,-288.75"/>
</a>
</g>
</g>
<!-- Node6&#45;&gt;Node5 -->
<g id="edge6_Node000005_Node000006" class="edge">
<title>Node6&#45;&gt;Node5</title>
<g id="a_edge6_Node000005_Node000006"><a xlink:title=" ">
<path fill="none" stroke="#63b8ff" d="M201.7,-288.78C198.61,-279.19 195.28,-268.96 192.12,-259.5 190.04,-253.24 187.78,-246.59 185.58,-240.16"/>
<polygon fill="none" stroke="#63b8ff" points="185.67,-240.41 179.93,-236.04 181.76,-229.07 187.49,-233.44 185.67,-240.41"/>
</a>
</g>
<text text-anchor="middle" x="211.94" y="-261.25" font-family="Helvetica,sans-Serif" font-size="10.00" fill="grey"> +offset</text>
</g>
</g>
</svg>
