<?xml version="1.0" encoding="UTF-8" standalone="no"?>
<!DOCTYPE svg PUBLIC "-//W3C//DTD SVG 1.1//EN"
 "http://www.w3.org/Graphics/SVG/1.1/DTD/svg11.dtd">
<!-- Generated by graphviz version 12.2.1 (20241206.2353)
 -->
<!-- Title: TTL_import_double_const_ushort_tensor_buffering_t Pages: 1 -->
<svg width="254pt" height="377pt"
 viewBox="0.00 0.00 253.88 377.00" xmlns="http://www.w3.org/2000/svg" xmlns:xlink="http://www.w3.org/1999/xlink">
<g id="graph0" class="graph" transform="scale(1 1) rotate(0) translate(4 373)">
<title>TTL_import_double_const_ushort_tensor_buffering_t</title>
<!-- Node1 -->
<g id="Node000001" class="node">
<title>Node1</title>
<g id="a_Node000001"><a xlink:title="Data required to perform double buffer pipelining.">
<polygon fill="#999999" stroke="none" points="187.5,-106.75 64.75,-106.75 64.75,0 187.5,0 187.5,-106.75"/>
<text text-anchor="start" x="68.75" y="-93.25" font-family="Helvetica,sans-Serif" font-size="10.00">TTL_import_double_const</text>
<text text-anchor="start" x="68.75" y="-82" font-family="Helvetica,sans-Serif" font-size="10.00">_ushort_tensor_buffering_t</text>
<text text-anchor="start" x="85.56" y="-66.75" font-family="Helvetica,sans-Serif" font-size="10.00">+</text>
<text text-anchor="start" x="112.38" y="-66.75" font-family="Helvetica,sans-Serif" font-size="10.00">index</text>
<text text-anchor="start" x="85.56" y="-51.5" font-family="Helvetica,sans-Serif" font-size="10.00">+</text>
<text text-anchor="start" x="112.38" y="-51.5" font-family="Helvetica,sans-Serif" font-size="10.00">int_base</text>
<text text-anchor="start" x="85.56" y="-36.25" font-family="Helvetica,sans-Serif" font-size="10.00">+</text>
<text text-anchor="start" x="112.38" y="-36.25" font-family="Helvetica,sans-Serif" font-size="10.00">common</text>
<text text-anchor="start" x="85.56" y="-21" font-family="Helvetica,sans-Serif" font-size="10.00">+</text>
<text text-anchor="start" x="112.38" y="-21" font-family="Helvetica,sans-Serif" font-size="10.00">event</text>
<text text-anchor="start" x="124.62" y="-5.75" font-family="Helvetica,sans-Serif" font-size="10.00"> </text>
<polygon fill="#666666" stroke="#666666" points="64.75,-78.25 64.75,-78.25 187.5,-78.25 187.5,-78.25 64.75,-78.25"/>
<polygon fill="#666666" stroke="#666666" points="64.75,-17.25 64.75,-17.25 110.38,-17.25 110.38,-17.25 64.75,-17.25"/>
<polygon fill="#666666" stroke="#666666" points="110.38,-17.25 110.38,-17.25 187.5,-17.25 187.5,-17.25 110.38,-17.25"/>
<polygon fill="none" stroke="#666666" points="64.75,0 64.75,-106.75 187.5,-106.75 187.5,0 64.75,0"/>
</a>
</g>
</g>
<!-- Node2 -->
<g id="Node000002" class="node">
<title>Node2</title>
<g id="a_Node000002"><a xlink:href="structTTL__const__ext__ushort__tensor__t.html" target="_top" xlink:title=" ">
<polygon fill="white" stroke="none" points="130.88,-241.5 25.38,-241.5 25.38,-165.25 130.88,-165.25 130.88,-241.5"/>
<text text-anchor="start" x="29.38" y="-228" font-family="Helvetica,sans-Serif" font-size="10.00">TTL_const_ext_ushort</text>
<text text-anchor="start" x="57.88" y="-216.75" font-family="Helvetica,sans-Serif" font-size="10.00">_tensor_t</text>
<text text-anchor="start" x="40.38" y="-201.5" font-family="Helvetica,sans-Serif" font-size="10.00">+</text>
<text text-anchor="start" x="61.38" y="-201.5" font-family="Helvetica,sans-Serif" font-size="10.00">base</text>
<text text-anchor="start" x="40.38" y="-186.25" font-family="Helvetica,sans-Serif" font-size="10.00">+</text>
<text text-anchor="start" x="61.38" y="-186.25" font-family="Helvetica,sans-Serif" font-size="10.00">elem_size</text>
<text text-anchor="start" x="76.62" y="-171" font-family="Helvetica,sans-Serif" font-size="10.00"> </text>
<polygon fill="#666666" stroke="#666666" points="25.38,-213 25.38,-213 130.88,-213 130.88,-213 25.38,-213"/>
<polygon fill="#666666" stroke="#666666" points="25.38,-182.5 25.38,-182.5 59.38,-182.5 59.38,-182.5 25.38,-182.5"/>
<polygon fill="#666666" stroke="#666666" points="59.38,-182.5 59.38,-182.5 130.88,-182.5 130.88,-182.5 59.38,-182.5"/>
<polygon fill="none" stroke="#666666" points="25.38,-165.25 25.38,-241.5 130.88,-241.5 130.88,-165.25 25.38,-165.25"/>
</a>
</g>
</g>
<!-- Node2&#45;&gt;Node1 -->
<g id="edge1_Node000001_Node000002" class="edge">
<title>Node2&#45;&gt;Node1</title>
<g id="a_edge1_Node000001_Node000002"><a xlink:title=" ">
<path fill="none" stroke="#63b8ff" d="M76.41,-165.37C76.78,-152.28 78.32,-137.62 82.38,-124.75 83.07,-122.53 83.86,-120.31 84.72,-118.1"/>
<polygon fill="none" stroke="#63b8ff" points="84.68,-118.19 83.46,-111.09 89.56,-107.23 90.77,-114.34 84.68,-118.19"/>
</a>
</g>
<text text-anchor="middle" x="117.25" y="-137.75" font-family="Helvetica,sans-Serif" font-size="10.00" fill="grey"> +ext_tensor_in</text>
<text text-anchor="middle" x="117.25" y="-126.5" font-family="Helvetica,sans-Serif" font-size="10.00" fill="grey">+ext_tensor_out</text>
</g>
<!-- Node3 -->
<g id="Node000003" class="node">
<title>Node3</title>
<g id="a_Node000003"><a xlink:href="structTTL__layout__t.html" target="_top" xlink:title="Description of a Tensor layout in memory.">
<polygon fill="white" stroke="none" points="80.25,-361.38 0,-361.38 0,-296.38 80.25,-296.38 80.25,-361.38"/>
<text text-anchor="start" x="11.62" y="-347.88" font-family="Helvetica,sans-Serif" font-size="10.00">TTL_layout_t</text>
<text text-anchor="start" x="4" y="-332.62" font-family="Helvetica,sans-Serif" font-size="10.00">+</text>
<text text-anchor="start" x="14" y="-332.62" font-family="Helvetica,sans-Serif" font-size="10.00">row_spacing</text>
<text text-anchor="start" x="4" y="-317.38" font-family="Helvetica,sans-Serif" font-size="10.00">+</text>
<text text-anchor="start" x="14" y="-317.38" font-family="Helvetica,sans-Serif" font-size="10.00">plane_spacing</text>
<text text-anchor="start" x="38.62" y="-302.12" font-family="Helvetica,sans-Serif" font-size="10.00"> </text>
<polygon fill="#666666" stroke="#666666" points="0,-344.12 0,-344.12 80.25,-344.12 80.25,-344.12 0,-344.12"/>
<polygon fill="#666666" stroke="#666666" points="0,-313.62 0,-313.62 12,-313.62 12,-313.62 0,-313.62"/>
<polygon fill="#666666" stroke="#666666" points="12,-313.62 12,-313.62 80.25,-313.62 80.25,-313.62 12,-313.62"/>
<polygon fill="none" stroke="#666666" points="0,-296.38 0,-361.38 80.25,-361.38 80.25,-296.38 0,-296.38"/>
</a>
</g>
</g>
<!-- Node3&#45;&gt;Node2 -->
<g id="edge2_Node000002_Node000003" class="edge">
<title>Node3&#45;&gt;Node2</title>
<g id="a_edge2_Node000002_Node000003"><a xlink:title=" ">
<path fill="none" stroke="#63b8ff" d="M37.65,-296.65C37.61,-284.78 38.68,-271.29 42.38,-259.5 43.07,-257.27 43.89,-255.05 44.8,-252.84"/>
<polygon fill="none" stroke="#63b8ff" points="44.78,-252.87 43.81,-245.73 50.04,-242.08 51.01,-249.23 44.78,-252.87"/>
</a>
</g>
<text text-anchor="middle" x="59.25" y="-261.25" font-family="Helvetica,sans-Serif" font-size="10.00" fill="grey"> +layout</text>
</g>
<!-- Node4 -->
<g id="Node000004" class="node">
<title>Node4</title>
<g id="a_Node000004"><a xlink:href="structTTL__shape__t.html" target="_top" xlink:title="Description of a Shape.">
<polygon fill="white" stroke="none" points="164,-369 98.25,-369 98.25,-288.75 164,-288.75 164,-369"/>
<text text-anchor="start" x="102.25" y="-355.5" font-family="Helvetica,sans-Serif" font-size="10.00">TTL_shape_t</text>
<text text-anchor="start" x="107.62" y="-340.25" font-family="Helvetica,sans-Serif" font-size="10.00">+</text>
<text text-anchor="start" x="123" y="-340.25" font-family="Helvetica,sans-Serif" font-size="10.00">width</text>
<text text-anchor="start" x="107.62" y="-325" font-family="Helvetica,sans-Serif" font-size="10.00">+</text>
<text text-anchor="start" x="123" y="-325" font-family="Helvetica,sans-Serif" font-size="10.00">height</text>
<text text-anchor="start" x="107.62" y="-309.75" font-family="Helvetica,sans-Serif" font-size="10.00">+</text>
<text text-anchor="start" x="123" y="-309.75" font-family="Helvetica,sans-Serif" font-size="10.00">depth</text>
<text text-anchor="start" x="129.62" y="-294.5" font-family="Helvetica,sans-Serif" font-size="10.00"> </text>
<polygon fill="#666666" stroke="#666666" points="98.25,-351.75 98.25,-351.75 164,-351.75 164,-351.75 98.25,-351.75"/>
<polygon fill="#666666" stroke="#666666" points="98.25,-306 98.25,-306 121,-306 121,-306 98.25,-306"/>
<polygon fill="#666666" stroke="#666666" points="121,-306 121,-306 164,-306 164,-306 121,-306"/>
<polygon fill="none" stroke="#666666" points="98.25,-288.75 98.25,-369 164,-369 164,-288.75 98.25,-288.75"/>
</a>
</g>
</g>
<!-- Node4&#45;&gt;Node2 -->
<g id="edge3_Node000002_Node000004" class="edge">
<title>Node4&#45;&gt;Node2</title>
<g id="a_edge3_Node000002_Node000004"><a xlink:title=" ">
<path fill="none" stroke="#63b8ff" d="M114.36,-288.8C109.44,-277.35 104.01,-264.7 98.88,-252.74"/>
<polygon fill="none" stroke="#63b8ff" points="98.97,-252.95 92.93,-249.01 94.24,-241.92 100.28,-245.86 98.97,-252.95"/>
</a>
</g>
<text text-anchor="middle" x="123.46" y="-261.25" font-family="Helvetica,sans-Serif" font-size="10.00" fill="grey"> +shape</text>
</g>
<!-- Node5 -->
<g id="Node000005" class="node">
<title>Node5</title>
<g id="a_Node000005"><a xlink:href="structTTL__tile__t.html" target="_top" xlink:title=" ">
<polygon fill="white" stroke="none" points="201.25,-228.25 149,-228.25 149,-178.5 201.25,-178.5 201.25,-228.25"/>
<text text-anchor="start" x="153" y="-214.75" font-family="Helvetica,sans-Serif" font-size="10.00">TTL_tile_t</text>
<text text-anchor="start" x="173.62" y="-199.5" font-family="Helvetica,sans-Serif" font-size="10.00"> </text>
<text text-anchor="start" x="173.62" y="-184.25" font-family="Helvetica,sans-Serif" font-size="10.00"> </text>
<polygon fill="#666666" stroke="#666666" points="149,-211 149,-211 201.25,-211 201.25,-211 149,-211"/>
<polygon fill="#666666" stroke="#666666" points="149,-195.75 149,-195.75 201.25,-195.75 201.25,-195.75 149,-195.75"/>
<polygon fill="none" stroke="#666666" points="149,-178.5 149,-228.25 201.25,-228.25 201.25,-178.5 149,-178.5"/>
</a>
</g>
</g>
<!-- Node4&#45;&gt;Node5 -->
<g id="edge5_Node000005_Node000004" class="edge">
<title>Node4&#45;&gt;Node5</title>
<g id="a_edge5_Node000005_Node000004"><a xlink:title=" ">
<path fill="none" stroke="#63b8ff" d="M144.38,-288.77C147.68,-279.18 151.24,-268.96 154.62,-259.5 156.87,-253.23 159.3,-246.58 161.67,-240.15"/>
<polygon fill="none" stroke="#63b8ff" points="161.62,-240.3 159.96,-233.28 165.8,-229.05 167.46,-236.07 161.62,-240.3"/>
</a>
</g>
<text text-anchor="middle" x="171.88" y="-261.25" font-family="Helvetica,sans-Serif" font-size="10.00" fill="grey"> +shape</text>
</g>
<!-- Node5&#45;&gt;Node1 -->
<g id="edge4_Node000001_Node000005" class="edge">
<title>Node5&#45;&gt;Node1</title>
<g id="a_edge4_Node000001_Node000005"><a xlink:title=" ">
<path fill="none" stroke="#63b8ff" d="M168.58,-178.81C164.18,-163.36 158.11,-142.76 152.12,-124.75 151.45,-122.71 150.75,-120.64 150.03,-118.56"/>
<polygon fill="none" stroke="#63b8ff" points="150.08,-118.68 144.32,-114.34 146.12,-107.36 151.87,-111.7 150.08,-118.68"/>
</a>
</g>
<text text-anchor="middle" x="181.38" y="-132.12" font-family="Helvetica,sans-Serif" font-size="10.00" fill="grey"> +prev_tile</text>
</g>
<!-- Node6 -->
<g id="Node000006" class="node">
<title>Node6</title>
<g id="a_Node000006"><a xlink:href="structTTL__offset__t.html" target="_top" xlink:title="Description of the 3D offset of an object.">
<polygon fill="white" stroke="none" points="245.88,-369 182.38,-369 182.38,-288.75 245.88,-288.75 245.88,-369"/>
<text text-anchor="start" x="186.38" y="-355.5" font-family="Helvetica,sans-Serif" font-size="10.00">TTL_offset_t</text>
<text text-anchor="start" x="196.62" y="-340.25" font-family="Helvetica,sans-Serif" font-size="10.00">+</text>
<text text-anchor="start" x="216.88" y="-340.25" font-family="Helvetica,sans-Serif" font-size="10.00">x</text>
<text text-anchor="start" x="196.62" y="-325" font-family="Helvetica,sans-Serif" font-size="10.00">+</text>
<text text-anchor="start" x="216.88" y="-325" font-family="Helvetica,sans-Serif" font-size="10.00">y</text>
<text text-anchor="start" x="196.62" y="-309.75" font-family="Helvetica,sans-Serif" font-size="10.00">+</text>
<text text-anchor="start" x="216.88" y="-309.75" font-family="Helvetica,sans-Serif" font-size="10.00">z</text>
<text text-anchor="start" x="212.62" y="-294.5" font-family="Helvetica,sans-Serif" font-size="10.00"> </text>
<polygon fill="#666666" stroke="#666666" points="182.38,-351.75 182.38,-351.75 245.88,-351.75 245.88,-351.75 182.38,-351.75"/>
<polygon fill="#666666" stroke="#666666" points="182.38,-306 182.38,-306 214.88,-306 214.88,-306 182.38,-306"/>
<polygon fill="#666666" stroke="#666666" points="214.88,-306 214.88,-306 245.88,-306 245.88,-306 214.88,-306"/>
<polygon fill="none" stroke="#666666" points="182.38,-288.75 182.38,-369 245.88,-369 245.88,-288.75 182.38,-288.75"/>
</a>
</g>
</g>
<!-- Node6&#45;&gt;Node5 -->
<g id="edge6_Node000005_Node000006" class="edge">
<title>Node6&#45;&gt;Node5</title>
<g id="a_edge6_Node000005_Node000006"><a xlink:title=" ">
<path fill="none" stroke="#63b8ff" d="M201.79,-288.8C196.87,-273.23 191.25,-255.43 186.44,-240.2"/>
<polygon fill="none" stroke="#63b8ff" points="186.51,-240.42 180.89,-235.9 182.89,-228.97 188.51,-233.49 186.51,-240.42"/>
</a>
</g>
<text text-anchor="middle" x="211.92" y="-261.25" font-family="Helvetica,sans-Serif" font-size="10.00" fill="grey"> +offset</text>
</g>
</g>
</svg>
