<?xml version="1.0" encoding="UTF-8" standalone="no"?>
<!DOCTYPE svg PUBLIC "-//W3C//DTD SVG 1.1//EN"
 "http://www.w3.org/Graphics/SVG/1.1/DTD/svg11.dtd">
<!-- Generated by graphviz version 12.0.0 (20240704.0754)
 -->
<!-- Title: TTL_duplex_const_int_tensor_buffering_t Pages: 1 -->
<svg width="258pt" height="388pt"
 viewBox="0.00 0.00 257.50 388.00" xmlns="http://www.w3.org/2000/svg" xmlns:xlink="http://www.w3.org/1999/xlink">
<g id="graph0" class="graph" transform="scale(1 1) rotate(0) translate(4 384)">
<title>TTL_duplex_const_int_tensor_buffering_t</title>
<!-- Node1 -->
<g id="Node000001" class="node">
<title>Node1</title>
<g id="a_Node000001"><a xlink:title="Data required to perform duplex buffer pipelining.">
<polygon fill="#999999" stroke="none" points="170,-120 64,-120 64,0 170,0 170,-120"/>
<text text-anchor="start" x="69" y="-106.5" font-family="Helvetica,sans-Serif" font-size="10.00">TTL_duplex_const_int</text>
<text text-anchor="start" x="75.75" y="-95.25" font-family="Helvetica,sans-Serif" font-size="10.00">_tensor_buffering_t</text>
<text text-anchor="start" x="71" y="-80.5" font-family="Helvetica,sans-Serif" font-size="10.00">+</text>
<text text-anchor="start" x="84" y="-80.5" font-family="Helvetica,sans-Serif" font-size="10.00">index</text>
<text text-anchor="start" x="71" y="-65.5" font-family="Helvetica,sans-Serif" font-size="10.00">+</text>
<text text-anchor="start" x="84" y="-65.5" font-family="Helvetica,sans-Serif" font-size="10.00">int_base</text>
<text text-anchor="start" x="71" y="-50.5" font-family="Helvetica,sans-Serif" font-size="10.00">+</text>
<text text-anchor="start" x="84" y="-50.5" font-family="Helvetica,sans-Serif" font-size="10.00">common</text>
<text text-anchor="start" x="71" y="-35.5" font-family="Helvetica,sans-Serif" font-size="10.00">+</text>
<text text-anchor="start" x="84" y="-35.5" font-family="Helvetica,sans-Serif" font-size="10.00">events</text>
<text text-anchor="start" x="71" y="-20.5" font-family="Helvetica,sans-Serif" font-size="10.00">+</text>
<text text-anchor="start" x="84" y="-20.5" font-family="Helvetica,sans-Serif" font-size="10.00">prev_out_tensors</text>
<text text-anchor="start" x="115.5" y="-5.5" font-family="Helvetica,sans-Serif" font-size="10.00"> </text>
<polygon fill="#666666" stroke="#666666" points="64,-92 64,-92 170,-92 170,-92 64,-92"/>
<polygon fill="#666666" stroke="#666666" points="64,-17 64,-17 82,-17 82,-17 64,-17"/>
<polygon fill="#666666" stroke="#666666" points="82,-17 82,-17 170,-17 170,-17 82,-17"/>
<polygon fill="none" stroke="#666666" points="64,0 64,-120 170,-120 170,0 64,0"/>
</a>
</g>
</g>
<!-- Node2 -->
<g id="Node000002" class="node">
<title>Node2</title>
<g id="a_Node000002"><a xlink:href="structTTL__ext__int__tensor__t.html" target="_top" xlink:title="const and non&#45;const tensors in the appropriate address space">
<polygon fill="white" stroke="none" points="102,-253.75 0,-253.75 0,-189.75 102,-189.75 102,-253.75"/>
<text text-anchor="start" x="4.88" y="-240.25" font-family="Helvetica,sans-Serif" font-size="10.00">TTL_ext_int_tensor_t</text>
<text text-anchor="start" x="14" y="-225.25" font-family="Helvetica,sans-Serif" font-size="10.00">+</text>
<text text-anchor="start" x="34" y="-225.25" font-family="Helvetica,sans-Serif" font-size="10.00">base</text>
<text text-anchor="start" x="14" y="-210.25" font-family="Helvetica,sans-Serif" font-size="10.00">+</text>
<text text-anchor="start" x="34" y="-210.25" font-family="Helvetica,sans-Serif" font-size="10.00">elem_size</text>
<text text-anchor="start" x="49.5" y="-195.25" font-family="Helvetica,sans-Serif" font-size="10.00"> </text>
<polygon fill="#666666" stroke="#666666" points="0,-236.75 0,-236.75 102,-236.75 102,-236.75 0,-236.75"/>
<polygon fill="#666666" stroke="#666666" points="0,-206.75 0,-206.75 32,-206.75 32,-206.75 0,-206.75"/>
<polygon fill="#666666" stroke="#666666" points="32,-206.75 32,-206.75 102,-206.75 102,-206.75 32,-206.75"/>
<polygon fill="none" stroke="#666666" points="0,-189.75 0,-253.75 102,-253.75 102,-189.75 0,-189.75"/>
</a>
</g>
</g>
<!-- Node2&#45;&gt;Node1 -->
<g id="edge1_Node000001_Node000002" class="edge">
<title>Node2&#45;&gt;Node1</title>
<g id="a_edge1_Node000001_Node000002"><a xlink:title=" ">
<path fill="none" stroke="#63b8ff" d="M62.12,-189.92C67.89,-174.27 75.2,-155.03 82.25,-138 83.14,-135.86 84.05,-133.69 84.97,-131.5"/>
<polygon fill="none" stroke="#63b8ff" points="84.95,-131.54 83.65,-124.45 89.7,-120.52 91,-127.61 84.95,-131.54"/>
</a>
</g>
<text text-anchor="middle" x="116.88" y="-162.25" font-family="Helvetica,sans-Serif" font-size="10.00" fill="grey"> +ext_tensor_in</text>
<text text-anchor="middle" x="116.88" y="-151" font-family="Helvetica,sans-Serif" font-size="10.00" fill="grey">+ext_tensor_out</text>
<text text-anchor="middle" x="116.88" y="-139.75" font-family="Helvetica,sans-Serif" font-size="10.00" fill="grey">+to_export_to</text>
</g>
<!-- Node3 -->
<g id="Node000003" class="node">
<title>Node3</title>
<g id="a_Node000003"><a xlink:href="structTTL__layout__t.html" target="_top" xlink:title="Description of a Tensor layout in memory.">
<polygon fill="white" stroke="none" points="106,-372.5 26,-372.5 26,-308.5 106,-308.5 106,-372.5"/>
<text text-anchor="start" x="37.5" y="-359" font-family="Helvetica,sans-Serif" font-size="10.00">TTL_layout_t</text>
<text text-anchor="start" x="30" y="-344" font-family="Helvetica,sans-Serif" font-size="10.00">+</text>
<text text-anchor="start" x="40" y="-344" font-family="Helvetica,sans-Serif" font-size="10.00">row_spacing</text>
<text text-anchor="start" x="30" y="-329" font-family="Helvetica,sans-Serif" font-size="10.00">+</text>
<text text-anchor="start" x="40" y="-329" font-family="Helvetica,sans-Serif" font-size="10.00">plane_spacing</text>
<text text-anchor="start" x="64.5" y="-314" font-family="Helvetica,sans-Serif" font-size="10.00"> </text>
<polygon fill="#666666" stroke="#666666" points="26,-355.5 26,-355.5 106,-355.5 106,-355.5 26,-355.5"/>
<polygon fill="#666666" stroke="#666666" points="26,-325.5 26,-325.5 38,-325.5 38,-325.5 26,-325.5"/>
<polygon fill="#666666" stroke="#666666" points="38,-325.5 38,-325.5 106,-325.5 106,-325.5 38,-325.5"/>
<polygon fill="none" stroke="#666666" points="26,-308.5 26,-372.5 106,-372.5 106,-308.5 26,-308.5"/>
</a>
</g>
</g>
<!-- Node3&#45;&gt;Node2 -->
<g id="edge2_Node000002_Node000003" class="edge">
<title>Node3&#45;&gt;Node2</title>
<g id="a_edge2_Node000002_Node000003"><a xlink:title=" ">
<path fill="none" stroke="#63b8ff" d="M44.19,-308.52C39.69,-300.56 35.61,-291.76 33.25,-283 31.76,-277.46 31.63,-271.65 32.37,-265.92"/>
<polygon fill="none" stroke="#63b8ff" points="32.3,-266.21 29.74,-259.47 34.97,-254.51 37.54,-261.25 32.3,-266.21"/>
</a>
</g>
<text text-anchor="middle" x="50.88" y="-273.5" font-family="Helvetica,sans-Serif" font-size="10.00" fill="grey"> +layout</text>
</g>
<!-- Node5 -->
<g id="Node000005" class="node">
<title>Node5</title>
<g id="a_Node000005"><a xlink:href="structTTL__const__int__int__tensor__t.html" target="_top" xlink:title=" ">
<polygon fill="white" stroke="none" points="249.5,-253.75 120.5,-253.75 120.5,-189.75 249.5,-189.75 249.5,-253.75"/>
<text text-anchor="start" x="125.38" y="-240.25" font-family="Helvetica,sans-Serif" font-size="10.00">TTL_const_int_int_tensor_t</text>
<text text-anchor="start" x="141.5" y="-225.25" font-family="Helvetica,sans-Serif" font-size="10.00">+</text>
<text text-anchor="start" x="168.5" y="-225.25" font-family="Helvetica,sans-Serif" font-size="10.00">base</text>
<text text-anchor="start" x="141.5" y="-210.25" font-family="Helvetica,sans-Serif" font-size="10.00">+</text>
<text text-anchor="start" x="168.5" y="-210.25" font-family="Helvetica,sans-Serif" font-size="10.00">elem_size</text>
<text text-anchor="start" x="183.5" y="-195.25" font-family="Helvetica,sans-Serif" font-size="10.00"> </text>
<polygon fill="#666666" stroke="#666666" points="120.5,-236.75 120.5,-236.75 249.5,-236.75 249.5,-236.75 120.5,-236.75"/>
<polygon fill="#666666" stroke="#666666" points="120.5,-206.75 120.5,-206.75 166.5,-206.75 166.5,-206.75 120.5,-206.75"/>
<polygon fill="#666666" stroke="#666666" points="166.5,-206.75 166.5,-206.75 249.5,-206.75 249.5,-206.75 166.5,-206.75"/>
<polygon fill="none" stroke="#666666" points="120.5,-189.75 120.5,-253.75 249.5,-253.75 249.5,-189.75 120.5,-189.75"/>
</a>
</g>
</g>
<!-- Node3&#45;&gt;Node5 -->
<g id="edge5_Node000005_Node000003" class="edge">
<title>Node3&#45;&gt;Node5</title>
<g id="a_edge5_Node000005_Node000003"><a xlink:title=" ">
<path fill="none" stroke="#63b8ff" d="M69.75,-308.6C72.58,-296.04 77.55,-282.08 86.25,-271.75 90.3,-266.94 98.77,-261.38 109.13,-255.76"/>
<polygon fill="none" stroke="#63b8ff" points="109.03,-255.81 112.54,-249.51 119.7,-250.33 116.2,-256.63 109.03,-255.81"/>
</a>
</g>
<text text-anchor="middle" x="102.88" y="-273.5" font-family="Helvetica,sans-Serif" font-size="10.00" fill="grey"> +layout</text>
</g>
<!-- Node4 -->
<g id="Node000004" class="node">
<title>Node4</title>
<g id="a_Node000004"><a xlink:href="structTTL__shape__t.html" target="_top" xlink:title="Description of a Shape.">
<polygon fill="white" stroke="none" points="202.5,-380 135.5,-380 135.5,-301 202.5,-301 202.5,-380"/>
<text text-anchor="start" x="140.12" y="-366.5" font-family="Helvetica,sans-Serif" font-size="10.00">TTL_shape_t</text>
<text text-anchor="start" x="145" y="-351.5" font-family="Helvetica,sans-Serif" font-size="10.00">+</text>
<text text-anchor="start" x="160.5" y="-351.5" font-family="Helvetica,sans-Serif" font-size="10.00">width</text>
<text text-anchor="start" x="145" y="-336.5" font-family="Helvetica,sans-Serif" font-size="10.00">+</text>
<text text-anchor="start" x="160.5" y="-336.5" font-family="Helvetica,sans-Serif" font-size="10.00">height</text>
<text text-anchor="start" x="145" y="-321.5" font-family="Helvetica,sans-Serif" font-size="10.00">+</text>
<text text-anchor="start" x="160.5" y="-321.5" font-family="Helvetica,sans-Serif" font-size="10.00">depth</text>
<text text-anchor="start" x="167.5" y="-306.5" font-family="Helvetica,sans-Serif" font-size="10.00"> </text>
<polygon fill="#666666" stroke="#666666" points="135.5,-363 135.5,-363 202.5,-363 202.5,-363 135.5,-363"/>
<polygon fill="#666666" stroke="#666666" points="135.5,-318 135.5,-318 158.5,-318 158.5,-318 135.5,-318"/>
<polygon fill="#666666" stroke="#666666" points="158.5,-318 158.5,-318 202.5,-318 202.5,-318 158.5,-318"/>
<polygon fill="none" stroke="#666666" points="135.5,-301 135.5,-380 202.5,-380 202.5,-301 135.5,-301"/>
</a>
</g>
</g>
<!-- Node4&#45;&gt;Node2 -->
<g id="edge3_Node000002_Node000004" class="edge">
<title>Node4&#45;&gt;Node2</title>
<g id="a_edge3_Node000002_Node000004"><a xlink:title=" ">
<path fill="none" stroke="#63b8ff" d="M147.39,-301.29C140.64,-291.07 132.67,-280.46 124,-271.75 120.25,-267.98 116.16,-264.32 111.9,-260.82"/>
<polygon fill="none" stroke="#63b8ff" points="111.94,-260.85 104.74,-260.35 102.44,-253.51 109.63,-254.02 111.94,-260.85"/>
</a>
</g>
<text text-anchor="middle" x="149.25" y="-273.5" font-family="Helvetica,sans-Serif" font-size="10.00" fill="grey"> +shape</text>
</g>
<!-- Node4&#45;&gt;Node5 -->
<g id="edge6_Node000005_Node000004" class="edge">
<title>Node4&#45;&gt;Node5</title>
<g id="a_edge6_Node000005_Node000004"><a xlink:title=" ">
<path fill="none" stroke="#63b8ff" d="M178.8,-301.07C180.05,-295.05 181.18,-288.88 182,-283 182.75,-277.63 183.31,-271.97 183.74,-266.36"/>
<polygon fill="none" stroke="#63b8ff" points="183.74,-266.38 180.11,-260.15 184.46,-254.4 188.09,-260.63 183.74,-266.38"/>
</a>
</g>
<text text-anchor="middle" x="200.25" y="-273.5" font-family="Helvetica,sans-Serif" font-size="10.00" fill="grey"> +shape</text>
</g>
<!-- Node5&#45;&gt;Node1 -->
<g id="edge4_Node000001_Node000005" class="edge">
<title>Node5&#45;&gt;Node1</title>
<g id="a_edge4_Node000001_Node000005"><a xlink:title=" ">
<path fill="none" stroke="#63b8ff" d="M173.12,-189.96C166.99,-174.32 159.28,-155.07 152,-138 151.09,-135.86 150.16,-133.7 149.21,-131.51"/>
<polygon fill="none" stroke="#63b8ff" points="149.22,-131.54 143.15,-127.66 144.4,-120.56 150.48,-124.44 149.22,-131.54"/>
</a>
</g>
<text text-anchor="middle" x="201.38" y="-151" font-family="Helvetica,sans-Serif" font-size="10.00" fill="grey"> +to_export_from</text>
</g>
</g>
</svg>
