<?xml version="1.0" encoding="UTF-8" standalone="no"?>
<!DOCTYPE svg PUBLIC "-//W3C//DTD SVG 1.1//EN"
 "http://www.w3.org/Graphics/SVG/1.1/DTD/svg11.dtd">
<!-- Generated by graphviz version 12.2.1 (20241206.2353)
 -->
<!-- Title: TTL_simplex_const_ulong_tensor_buffering_t Pages: 1 -->
<svg width="467pt" height="482pt"
 viewBox="0.00 0.00 467.30 482.00" xmlns="http://www.w3.org/2000/svg" xmlns:xlink="http://www.w3.org/1999/xlink">
<g id="graph0" class="graph" transform="scale(1 1) rotate(0) translate(4 478)">
<title>TTL_simplex_const_ulong_tensor_buffering_t</title>
<!-- Node1 -->
<g id="Node000001" class="node">
<title>Node1</title>
<g id="a_Node000001"><a xlink:title=" ">
<polygon fill="#999999" stroke="none" points="338.5,-122 216.5,-122 216.5,0 338.5,0 338.5,-122"/>
<text text-anchor="start" x="220.5" y="-108.5" font-family="Helvetica,sans-Serif" font-size="10.00">TTL_simplex_const_ulong</text>
<text text-anchor="start" x="236.25" y="-97.25" font-family="Helvetica,sans-Serif" font-size="10.00">_tensor_buffering_t</text>
<text text-anchor="start" x="235.81" y="-82" font-family="Helvetica,sans-Serif" font-size="10.00">+</text>
<text text-anchor="start" x="261.12" y="-82" font-family="Helvetica,sans-Serif" font-size="10.00">index</text>
<text text-anchor="start" x="235.81" y="-66.75" font-family="Helvetica,sans-Serif" font-size="10.00">+</text>
<text text-anchor="start" x="261.12" y="-66.75" font-family="Helvetica,sans-Serif" font-size="10.00">int_base</text>
<text text-anchor="start" x="235.81" y="-51.5" font-family="Helvetica,sans-Serif" font-size="10.00">+</text>
<text text-anchor="start" x="261.12" y="-51.5" font-family="Helvetica,sans-Serif" font-size="10.00">common</text>
<text text-anchor="start" x="235.81" y="-36.25" font-family="Helvetica,sans-Serif" font-size="10.00">+</text>
<text text-anchor="start" x="261.12" y="-36.25" font-family="Helvetica,sans-Serif" font-size="10.00">event_in</text>
<text text-anchor="start" x="235.81" y="-21" font-family="Helvetica,sans-Serif" font-size="10.00">+</text>
<text text-anchor="start" x="261.12" y="-21" font-family="Helvetica,sans-Serif" font-size="10.00">event_out</text>
<text text-anchor="start" x="276" y="-5.75" font-family="Helvetica,sans-Serif" font-size="10.00"> </text>
<polygon fill="#666666" stroke="#666666" points="216.5,-93.5 216.5,-93.5 338.5,-93.5 338.5,-93.5 216.5,-93.5"/>
<polygon fill="#666666" stroke="#666666" points="216.5,-17.25 216.5,-17.25 259.12,-17.25 259.12,-17.25 216.5,-17.25"/>
<polygon fill="#666666" stroke="#666666" points="259.12,-17.25 259.12,-17.25 338.5,-17.25 338.5,-17.25 259.12,-17.25"/>
<polygon fill="none" stroke="#666666" points="216.5,0 216.5,-122 338.5,-122 338.5,0 216.5,0"/>
</a>
</g>
</g>
<!-- Node2 -->
<g id="Node000002" class="node">
<title>Node2</title>
<g id="a_Node000002"><a xlink:href="structTTL__ext__ulong__tensor__t.html" target="_top" xlink:title="const and non&#45;const tensors in the appropriate address space">
<polygon fill="white" stroke="none" points="113,-338.88 0,-338.88 0,-273.88 113,-273.88 113,-338.88"/>
<text text-anchor="start" x="4" y="-325.38" font-family="Helvetica,sans-Serif" font-size="10.00">TTL_ext_ulong_tensor_t</text>
<text text-anchor="start" x="16.88" y="-310.12" font-family="Helvetica,sans-Serif" font-size="10.00">+</text>
<text text-anchor="start" x="39.75" y="-310.12" font-family="Helvetica,sans-Serif" font-size="10.00">base</text>
<text text-anchor="start" x="16.88" y="-294.88" font-family="Helvetica,sans-Serif" font-size="10.00">+</text>
<text text-anchor="start" x="39.75" y="-294.88" font-family="Helvetica,sans-Serif" font-size="10.00">elem_size</text>
<text text-anchor="start" x="55" y="-279.62" font-family="Helvetica,sans-Serif" font-size="10.00"> </text>
<polygon fill="#666666" stroke="#666666" points="0,-321.62 0,-321.62 113,-321.62 113,-321.62 0,-321.62"/>
<polygon fill="#666666" stroke="#666666" points="0,-291.12 0,-291.12 37.75,-291.12 37.75,-291.12 0,-291.12"/>
<polygon fill="#666666" stroke="#666666" points="37.75,-291.12 37.75,-291.12 113,-291.12 113,-291.12 37.75,-291.12"/>
<polygon fill="none" stroke="#666666" points="0,-273.88 0,-338.88 113,-338.88 113,-273.88 0,-273.88"/>
</a>
</g>
</g>
<!-- Node2&#45;&gt;Node1 -->
<g id="edge1_Node000001_Node000002" class="edge">
<title>Node2&#45;&gt;Node1</title>
<g id="a_edge1_Node000001_Node000002"><a xlink:title=" ">
<path fill="none" stroke="#63b8ff" d="M69.41,-274.09C82.48,-244.86 104.74,-201.07 132.75,-169.25 153.82,-145.32 181.06,-123.44 206.22,-105.78"/>
<polygon fill="none" stroke="#63b8ff" points="206.21,-105.78 208.89,-99.08 216.1,-98.98 213.42,-105.68 206.21,-105.78"/>
</a>
</g>
<text text-anchor="middle" x="167.62" y="-195.88" font-family="Helvetica,sans-Serif" font-size="10.00" fill="grey"> +ext_tensor_in</text>
<text text-anchor="middle" x="167.62" y="-184.62" font-family="Helvetica,sans-Serif" font-size="10.00" fill="grey">+ext_tensor_out</text>
</g>
<!-- Node3 -->
<g id="Node000003" class="node">
<title>Node3</title>
<g id="a_Node000003"><a xlink:href="structTTL__layout__t.html" target="_top" xlink:title="Description of a Tensor layout in memory.">
<polygon fill="white" stroke="none" points="161.62,-466.38 81.38,-466.38 81.38,-401.38 161.62,-401.38 161.62,-466.38"/>
<text text-anchor="start" x="93" y="-452.88" font-family="Helvetica,sans-Serif" font-size="10.00">TTL_layout_t</text>
<text text-anchor="start" x="85.38" y="-437.62" font-family="Helvetica,sans-Serif" font-size="10.00">+</text>
<text text-anchor="start" x="95.38" y="-437.62" font-family="Helvetica,sans-Serif" font-size="10.00">row_spacing</text>
<text text-anchor="start" x="85.38" y="-422.38" font-family="Helvetica,sans-Serif" font-size="10.00">+</text>
<text text-anchor="start" x="95.38" y="-422.38" font-family="Helvetica,sans-Serif" font-size="10.00">plane_spacing</text>
<text text-anchor="start" x="120" y="-407.12" font-family="Helvetica,sans-Serif" font-size="10.00"> </text>
<polygon fill="#666666" stroke="#666666" points="81.38,-449.12 81.38,-449.12 161.62,-449.12 161.62,-449.12 81.38,-449.12"/>
<polygon fill="#666666" stroke="#666666" points="81.38,-418.62 81.38,-418.62 93.38,-418.62 93.38,-418.62 81.38,-418.62"/>
<polygon fill="#666666" stroke="#666666" points="93.38,-418.62 93.38,-418.62 161.62,-418.62 161.62,-418.62 93.38,-418.62"/>
<polygon fill="none" stroke="#666666" points="81.38,-401.38 81.38,-466.38 161.62,-466.38 161.62,-401.38 81.38,-401.38"/>
</a>
</g>
</g>
<!-- Node3&#45;&gt;Node2 -->
<g id="edge2_Node000002_Node000003" class="edge">
<title>Node3&#45;&gt;Node2</title>
<g id="a_edge2_Node000002_Node000003"><a xlink:title=" ">
<path fill="none" stroke="#63b8ff" d="M81.48,-406.88C71.55,-398.27 62.2,-387.76 56.75,-375.75 53.37,-368.3 51.79,-359.91 51.29,-351.62"/>
<polygon fill="none" stroke="#63b8ff" points="51.29,-351.73 47.29,-345.73 51.29,-339.73 55.29,-345.73 51.29,-351.73"/>
</a>
</g>
<text text-anchor="middle" x="73.62" y="-366.25" font-family="Helvetica,sans-Serif" font-size="10.00" fill="grey"> +layout</text>
</g>
<!-- Node8 -->
<g id="Node000008" class="node">
<title>Node8</title>
<g id="a_Node000008"><a xlink:href="structTTL__int__ulong__tensor__t.html" target="_top" xlink:title="const and non&#45;const tensors in the appropriate address space">
<polygon fill="white" stroke="none" points="241.88,-338.88 131.12,-338.88 131.12,-273.88 241.88,-273.88 241.88,-338.88"/>
<text text-anchor="start" x="135.12" y="-325.38" font-family="Helvetica,sans-Serif" font-size="10.00">TTL_int_ulong_tensor_t</text>
<text text-anchor="start" x="147.44" y="-310.12" font-family="Helvetica,sans-Serif" font-size="10.00">+</text>
<text text-anchor="start" x="169.75" y="-310.12" font-family="Helvetica,sans-Serif" font-size="10.00">base</text>
<text text-anchor="start" x="147.44" y="-294.88" font-family="Helvetica,sans-Serif" font-size="10.00">+</text>
<text text-anchor="start" x="169.75" y="-294.88" font-family="Helvetica,sans-Serif" font-size="10.00">elem_size</text>
<text text-anchor="start" x="185" y="-279.62" font-family="Helvetica,sans-Serif" font-size="10.00"> </text>
<polygon fill="#666666" stroke="#666666" points="131.12,-321.62 131.12,-321.62 241.88,-321.62 241.88,-321.62 131.12,-321.62"/>
<polygon fill="#666666" stroke="#666666" points="131.12,-291.12 131.12,-291.12 167.75,-291.12 167.75,-291.12 131.12,-291.12"/>
<polygon fill="#666666" stroke="#666666" points="167.75,-291.12 167.75,-291.12 241.88,-291.12 241.88,-291.12 167.75,-291.12"/>
<polygon fill="none" stroke="#666666" points="131.12,-273.88 131.12,-338.88 241.88,-338.88 241.88,-273.88 131.12,-273.88"/>
</a>
</g>
</g>
<!-- Node3&#45;&gt;Node8 -->
<g id="edge9_Node000008_Node000003" class="edge">
<title>Node3&#45;&gt;Node8</title>
<g id="a_edge9_Node000008_Node000003"><a xlink:title=" ">
<path fill="none" stroke="#63b8ff" d="M137.73,-401.53C145.8,-385.96 155.67,-366.91 164.41,-350.03"/>
<polygon fill="none" stroke="#63b8ff" points="164.31,-350.21 163.52,-343.04 169.83,-339.56 170.62,-346.72 164.31,-350.21"/>
</a>
</g>
<text text-anchor="middle" x="172.82" y="-366.25" font-family="Helvetica,sans-Serif" font-size="10.00" fill="grey"> +layout</text>
</g>
<!-- Node4 -->
<g id="Node000004" class="node">
<title>Node4</title>
<g id="a_Node000004"><a xlink:href="structTTL__shape__t.html" target="_top" xlink:title="Description of a Shape.">
<polygon fill="white" stroke="none" points="285.38,-474 219.62,-474 219.62,-393.75 285.38,-393.75 285.38,-474"/>
<text text-anchor="start" x="223.62" y="-460.5" font-family="Helvetica,sans-Serif" font-size="10.00">TTL_shape_t</text>
<text text-anchor="start" x="229" y="-445.25" font-family="Helvetica,sans-Serif" font-size="10.00">+</text>
<text text-anchor="start" x="244.38" y="-445.25" font-family="Helvetica,sans-Serif" font-size="10.00">width</text>
<text text-anchor="start" x="229" y="-430" font-family="Helvetica,sans-Serif" font-size="10.00">+</text>
<text text-anchor="start" x="244.38" y="-430" font-family="Helvetica,sans-Serif" font-size="10.00">height</text>
<text text-anchor="start" x="229" y="-414.75" font-family="Helvetica,sans-Serif" font-size="10.00">+</text>
<text text-anchor="start" x="244.38" y="-414.75" font-family="Helvetica,sans-Serif" font-size="10.00">depth</text>
<text text-anchor="start" x="251" y="-399.5" font-family="Helvetica,sans-Serif" font-size="10.00"> </text>
<polygon fill="#666666" stroke="#666666" points="219.62,-456.75 219.62,-456.75 285.38,-456.75 285.38,-456.75 219.62,-456.75"/>
<polygon fill="#666666" stroke="#666666" points="219.62,-411 219.62,-411 242.38,-411 242.38,-411 219.62,-411"/>
<polygon fill="#666666" stroke="#666666" points="242.38,-411 242.38,-411 285.38,-411 285.38,-411 242.38,-411"/>
<polygon fill="none" stroke="#666666" points="219.62,-393.75 219.62,-474 285.38,-474 285.38,-393.75 219.62,-393.75"/>
</a>
</g>
</g>
<!-- Node4&#45;&gt;Node2 -->
<g id="edge3_Node000002_Node000004" class="edge">
<title>Node4&#45;&gt;Node2</title>
<g id="a_edge3_Node000002_Node000004"><a xlink:title=" ">
<path fill="none" stroke="#63b8ff" d="M219.84,-416.03C204.99,-408.7 187.07,-400.31 170.5,-393.75 145.99,-384.05 135.9,-390.41 114,-375.75 103.17,-368.5 93.26,-358.65 84.83,-348.68"/>
<polygon fill="none" stroke="#63b8ff" points="84.96,-348.85 78.09,-346.65 77.47,-339.47 84.34,-341.66 84.96,-348.85"/>
</a>
</g>
<text text-anchor="middle" x="131.25" y="-366.25" font-family="Helvetica,sans-Serif" font-size="10.00" fill="grey"> +shape</text>
</g>
<!-- Node5 -->
<g id="Node000005" class="node">
<title>Node5</title>
<g id="a_Node000005"><a xlink:href="structTTL__tile__t.html" target="_top" xlink:title=" ">
<polygon fill="white" stroke="none" points="413.62,-219 361.38,-219 361.38,-169.25 413.62,-169.25 413.62,-219"/>
<text text-anchor="start" x="365.38" y="-205.5" font-family="Helvetica,sans-Serif" font-size="10.00">TTL_tile_t</text>
<text text-anchor="start" x="386" y="-190.25" font-family="Helvetica,sans-Serif" font-size="10.00"> </text>
<text text-anchor="start" x="386" y="-175" font-family="Helvetica,sans-Serif" font-size="10.00"> </text>
<polygon fill="#666666" stroke="#666666" points="361.38,-201.75 361.38,-201.75 413.62,-201.75 413.62,-201.75 361.38,-201.75"/>
<polygon fill="#666666" stroke="#666666" points="361.38,-186.5 361.38,-186.5 413.62,-186.5 413.62,-186.5 361.38,-186.5"/>
<polygon fill="none" stroke="#666666" points="361.38,-169.25 361.38,-219 413.62,-219 413.62,-169.25 361.38,-169.25"/>
</a>
</g>
</g>
<!-- Node4&#45;&gt;Node5 -->
<g id="edge5_Node000005_Node000004" class="edge">
<title>Node4&#45;&gt;Node5</title>
<g id="a_edge5_Node000005_Node000004"><a xlink:title=" ">
<path fill="none" stroke="#63b8ff" d="M285.12,-424.11C320.9,-412.64 376.9,-388.83 404.5,-346.5 431.19,-305.56 428.3,-283.88 414.5,-237 413.83,-234.73 413,-232.47 412.05,-230.25"/>
<polygon fill="none" stroke="#63b8ff" points="412.02,-230.19 405.69,-226.74 406.44,-219.56 412.77,-223.02 412.02,-230.19"/>
</a>
</g>
<text text-anchor="middle" x="442.05" y="-302.5" font-family="Helvetica,sans-Serif" font-size="10.00" fill="grey"> +shape</text>
</g>
<!-- Node7 -->
<g id="Node000007" class="node">
<title>Node7</title>
<g id="a_Node000007"><a xlink:href="structTTL__int__ulong__sub__tensor__t.html" target="_top" xlink:title="const and non&#45;const sub tensors in the appropriate address space">
<polygon fill="white" stroke="none" points="343.38,-219 211.62,-219 211.62,-169.25 343.38,-169.25 343.38,-219"/>
<text text-anchor="start" x="215.62" y="-205.5" font-family="Helvetica,sans-Serif" font-size="10.00">TTL_int_ulong_sub_tensor_t</text>
<text text-anchor="start" x="238.25" y="-190.25" font-family="Helvetica,sans-Serif" font-size="10.00">+</text>
<text text-anchor="start" x="270.88" y="-190.25" font-family="Helvetica,sans-Serif" font-size="10.00">origin</text>
<text text-anchor="start" x="276" y="-175" font-family="Helvetica,sans-Serif" font-size="10.00"> </text>
<polygon fill="#666666" stroke="#666666" points="211.62,-201.75 211.62,-201.75 343.38,-201.75 343.38,-201.75 211.62,-201.75"/>
<polygon fill="#666666" stroke="#666666" points="211.62,-186.5 211.62,-186.5 268.88,-186.5 268.88,-186.5 211.62,-186.5"/>
<polygon fill="#666666" stroke="#666666" points="268.88,-186.5 268.88,-186.5 343.38,-186.5 343.38,-186.5 268.88,-186.5"/>
<polygon fill="none" stroke="#666666" points="211.62,-169.25 211.62,-219 343.38,-219 343.38,-169.25 211.62,-169.25"/>
</a>
</g>
</g>
<!-- Node4&#45;&gt;Node7 -->
<g id="edge11_Node000007_Node000004" class="edge">
<title>Node4&#45;&gt;Node7</title>
<g id="a_edge11_Node000007_Node000004"><a xlink:title=" ">
<path fill="none" stroke="#63b8ff" d="M257.4,-393.86C258.13,-387.8 258.85,-381.61 259.5,-375.75 265.04,-325.9 270.65,-268.21 274.1,-231.71"/>
<polygon fill="none" stroke="#63b8ff" points="274.1,-231.66 270.68,-225.31 275.23,-219.71 278.65,-226.06 274.1,-231.66"/>
</a>
</g>
<text text-anchor="middle" x="287.92" y="-302.5" font-family="Helvetica,sans-Serif" font-size="10.00" fill="grey"> +shape</text>
</g>
<!-- Node4&#45;&gt;Node8 -->
<g id="edge10_Node000008_Node000004" class="edge">
<title>Node4&#45;&gt;Node8</title>
<g id="a_edge10_Node000008_Node000004"><a xlink:title=" ">
<path fill="none" stroke="#63b8ff" d="M231.98,-393.85C224.71,-380.03 216.49,-364.39 209.05,-350.26"/>
<polygon fill="none" stroke="#63b8ff" points="209.04,-350.23 202.71,-346.78 203.45,-339.61 209.79,-343.06 209.04,-350.23"/>
</a>
</g>
<text text-anchor="middle" x="238.73" y="-366.25" font-family="Helvetica,sans-Serif" font-size="10.00" fill="grey"> +shape</text>
</g>
<!-- Node5&#45;&gt;Node1 -->
<g id="edge4_Node000001_Node000005" class="edge">
<title>Node5&#45;&gt;Node1</title>
<g id="a_edge4_Node000001_Node000005"><a xlink:title=" ">
<path fill="none" stroke="#63b8ff" d="M379.79,-169.48C376.02,-159.84 370.9,-148.89 364.5,-140 359.28,-132.76 353.29,-125.7 346.94,-118.98"/>
<polygon fill="none" stroke="#63b8ff" points="347.17,-119.21 340.11,-117.76 338.73,-110.68 345.8,-112.13 347.17,-119.21"/>
</a>
</g>
<text text-anchor="middle" x="414.3" y="-141.75" font-family="Helvetica,sans-Serif" font-size="10.00" fill="grey"> +next_exported_tile</text>
</g>
<!-- Node6 -->
<g id="Node000006" class="node">
<title>Node6</title>
<g id="a_Node000006"><a xlink:href="structTTL__offset__t.html" target="_top" xlink:title="Description of the 3D offset of an object.">
<polygon fill="white" stroke="none" points="395.25,-346.5 331.75,-346.5 331.75,-266.25 395.25,-266.25 395.25,-346.5"/>
<text text-anchor="start" x="335.75" y="-333" font-family="Helvetica,sans-Serif" font-size="10.00">TTL_offset_t</text>
<text text-anchor="start" x="346" y="-317.75" font-family="Helvetica,sans-Serif" font-size="10.00">+</text>
<text text-anchor="start" x="366.25" y="-317.75" font-family="Helvetica,sans-Serif" font-size="10.00">x</text>
<text text-anchor="start" x="346" y="-302.5" font-family="Helvetica,sans-Serif" font-size="10.00">+</text>
<text text-anchor="start" x="366.25" y="-302.5" font-family="Helvetica,sans-Serif" font-size="10.00">y</text>
<text text-anchor="start" x="346" y="-287.25" font-family="Helvetica,sans-Serif" font-size="10.00">+</text>
<text text-anchor="start" x="366.25" y="-287.25" font-family="Helvetica,sans-Serif" font-size="10.00">z</text>
<text text-anchor="start" x="362" y="-272" font-family="Helvetica,sans-Serif" font-size="10.00"> </text>
<polygon fill="#666666" stroke="#666666" points="331.75,-329.25 331.75,-329.25 395.25,-329.25 395.25,-329.25 331.75,-329.25"/>
<polygon fill="#666666" stroke="#666666" points="331.75,-283.5 331.75,-283.5 364.25,-283.5 364.25,-283.5 331.75,-283.5"/>
<polygon fill="#666666" stroke="#666666" points="364.25,-283.5 364.25,-283.5 395.25,-283.5 395.25,-283.5 364.25,-283.5"/>
<polygon fill="none" stroke="#666666" points="331.75,-266.25 331.75,-346.5 395.25,-346.5 395.25,-266.25 331.75,-266.25"/>
</a>
</g>
</g>
<!-- Node6&#45;&gt;Node5 -->
<g id="edge6_Node000005_Node000006" class="edge">
<title>Node6&#45;&gt;Node5</title>
<g id="a_edge6_Node000005_Node000006"><a xlink:title=" ">
<path fill="none" stroke="#63b8ff" d="M371.96,-266.5C374.44,-255.1 377.15,-242.67 379.6,-231.43"/>
<polygon fill="none" stroke="#63b8ff" points="379.58,-231.52 376.95,-224.8 382.13,-219.79 384.76,-226.51 379.58,-231.52"/>
</a>
</g>
<text text-anchor="middle" x="394.48" y="-238.75" font-family="Helvetica,sans-Serif" font-size="10.00" fill="grey"> +offset</text>
</g>
<!-- Node6&#45;&gt;Node7 -->
<g id="edge12_Node000007_Node000006" class="edge">
<title>Node6&#45;&gt;Node7</title>
<g id="a_edge12_Node000007_Node000006"><a xlink:title=" ">
<path fill="none" stroke="#63b8ff" d="M333.18,-266.5C323.6,-254.23 313.11,-240.77 303.84,-228.89"/>
<polygon fill="none" stroke="#63b8ff" points="303.99,-229.08 297.15,-226.81 296.61,-219.62 303.45,-221.89 303.99,-229.08"/>
</a>
</g>
<text text-anchor="middle" x="344.55" y="-238.75" font-family="Helvetica,sans-Serif" font-size="10.00" fill="grey"> +sub_offset</text>
</g>
<!-- Node7&#45;&gt;Node1 -->
<g id="edge7_Node000001_Node000007" class="edge">
<title>Node7&#45;&gt;Node1</title>
<g id="a_edge7_Node000001_Node000007"><a xlink:title=" ">
<path fill="none" stroke="#63b8ff" d="M277.5,-169.38C277.5,-159.46 277.5,-147.36 277.5,-134.9"/>
<polygon fill="none" stroke="#63b8ff" points="277.5,-134.76 273.5,-128.76 277.5,-122.76 281.5,-128.76 277.5,-134.76"/>
</a>
</g>
<text text-anchor="middle" x="320.25" y="-141.75" font-family="Helvetica,sans-Serif" font-size="10.00" fill="grey"> +int_prev_imported</text>
</g>
<!-- Node8&#45;&gt;Node7 -->
<g id="edge8_Node000007_Node000008" class="edge">
<title>Node8&#45;&gt;Node7</title>
<g id="a_edge8_Node000007_Node000008"><a xlink:title=" ">
<path fill="none" stroke="#63b8ff" d="M202.84,-274C209.87,-261.86 218.67,-248.21 228.25,-237 230.95,-233.84 233.89,-230.72 236.96,-227.7"/>
<polygon fill="none" stroke="#63b8ff" points="236.94,-227.72 238.62,-220.71 245.74,-219.57 244.06,-226.58 236.94,-227.72"/>
</a>
</g>
<text text-anchor="middle" x="245.88" y="-238.75" font-family="Helvetica,sans-Serif" font-size="10.00" fill="grey"> +tensor</text>
</g>
</g>
</svg>
