<?xml version="1.0" encoding="UTF-8" standalone="no"?>
<!DOCTYPE svg PUBLIC "-//W3C//DTD SVG 1.1//EN"
 "http://www.w3.org/Graphics/SVG/1.1/DTD/svg11.dtd">
<!-- Generated by graphviz version 12.0.0 (20240704.0754)
 -->
<!-- Title: TTL_duplex_const_uint_tensor_buffering_t Pages: 1 -->
<svg width="234pt" height="399pt"
 viewBox="0.00 0.00 234.25 399.00" xmlns="http://www.w3.org/2000/svg" xmlns:xlink="http://www.w3.org/1999/xlink">
<g id="graph0" class="graph" transform="scale(1 1) rotate(0) translate(4 395)">
<title>TTL_duplex_const_uint_tensor_buffering_t</title>
<!-- Node1 -->
<g id="Node000001" class="node">
<title>Node1</title>
<g id="a_Node000001"><a xlink:title="Data required to perform duplex buffer pipelining.">
<polygon fill="#999999" stroke="none" points="168,-120 57,-120 57,0 168,0 168,-120"/>
<text text-anchor="start" x="61.88" y="-106.5" font-family="Helvetica,sans-Serif" font-size="10.00">TTL_duplex_const_uint</text>
<text text-anchor="start" x="71.25" y="-95.25" font-family="Helvetica,sans-Serif" font-size="10.00">_tensor_buffering_t</text>
<text text-anchor="start" x="65.5" y="-80.5" font-family="Helvetica,sans-Serif" font-size="10.00">+</text>
<text text-anchor="start" x="80" y="-80.5" font-family="Helvetica,sans-Serif" font-size="10.00">index</text>
<text text-anchor="start" x="65.5" y="-65.5" font-family="Helvetica,sans-Serif" font-size="10.00">+</text>
<text text-anchor="start" x="80" y="-65.5" font-family="Helvetica,sans-Serif" font-size="10.00">int_base</text>
<text text-anchor="start" x="65.5" y="-50.5" font-family="Helvetica,sans-Serif" font-size="10.00">+</text>
<text text-anchor="start" x="80" y="-50.5" font-family="Helvetica,sans-Serif" font-size="10.00">common</text>
<text text-anchor="start" x="65.5" y="-35.5" font-family="Helvetica,sans-Serif" font-size="10.00">+</text>
<text text-anchor="start" x="80" y="-35.5" font-family="Helvetica,sans-Serif" font-size="10.00">events</text>
<text text-anchor="start" x="65.5" y="-20.5" font-family="Helvetica,sans-Serif" font-size="10.00">+</text>
<text text-anchor="start" x="80" y="-20.5" font-family="Helvetica,sans-Serif" font-size="10.00">prev_out_tensors</text>
<text text-anchor="start" x="111" y="-5.5" font-family="Helvetica,sans-Serif" font-size="10.00"> </text>
<polygon fill="#666666" stroke="#666666" points="57,-92 57,-92 168,-92 168,-92 57,-92"/>
<polygon fill="#666666" stroke="#666666" points="57,-17 57,-17 78,-17 78,-17 57,-17"/>
<polygon fill="#666666" stroke="#666666" points="78,-17 78,-17 168,-17 168,-17 78,-17"/>
<polygon fill="none" stroke="#666666" points="57,0 57,-120 168,-120 168,0 57,0"/>
</a>
</g>
</g>
<!-- Node2 -->
<g id="Node000002" class="node">
<title>Node2</title>
<g id="a_Node000002"><a xlink:href="structTTL__ext__uint__tensor__t.html" target="_top" xlink:title="const and non&#45;const tensors in the appropriate address space">
<polygon fill="white" stroke="none" points="107,-259.25 0,-259.25 0,-195.25 107,-195.25 107,-259.25"/>
<text text-anchor="start" x="4.75" y="-245.75" font-family="Helvetica,sans-Serif" font-size="10.00">TTL_ext_uint_tensor_t</text>
<text text-anchor="start" x="15.5" y="-230.75" font-family="Helvetica,sans-Serif" font-size="10.00">+</text>
<text text-anchor="start" x="37" y="-230.75" font-family="Helvetica,sans-Serif" font-size="10.00">base</text>
<text text-anchor="start" x="15.5" y="-215.75" font-family="Helvetica,sans-Serif" font-size="10.00">+</text>
<text text-anchor="start" x="37" y="-215.75" font-family="Helvetica,sans-Serif" font-size="10.00">elem_size</text>
<text text-anchor="start" x="52" y="-200.75" font-family="Helvetica,sans-Serif" font-size="10.00"> </text>
<polygon fill="#666666" stroke="#666666" points="0,-242.25 0,-242.25 107,-242.25 107,-242.25 0,-242.25"/>
<polygon fill="#666666" stroke="#666666" points="0,-212.25 0,-212.25 35,-212.25 35,-212.25 0,-212.25"/>
<polygon fill="#666666" stroke="#666666" points="35,-212.25 35,-212.25 107,-212.25 107,-212.25 35,-212.25"/>
<polygon fill="none" stroke="#666666" points="0,-195.25 0,-259.25 107,-259.25 107,-195.25 0,-195.25"/>
</a>
</g>
</g>
<!-- Node2&#45;&gt;Node1 -->
<g id="edge1_Node000001_Node000002" class="edge">
<title>Node2&#45;&gt;Node1</title>
<g id="a_edge1_Node000001_Node000002"><a xlink:title=" ">
<path fill="none" stroke="#63b8ff" d="M58.67,-195.51C62.02,-178.3 67.03,-156.63 73.75,-138 74.53,-135.82 75.36,-133.63 76.23,-131.43"/>
<polygon fill="none" stroke="#63b8ff" points="76.19,-131.53 74.83,-124.45 80.84,-120.47 82.2,-127.55 76.19,-131.53"/>
</a>
</g>
<text text-anchor="middle" x="108.38" y="-162.25" font-family="Helvetica,sans-Serif" font-size="10.00" fill="grey"> +ext_tensor_in</text>
<text text-anchor="middle" x="108.38" y="-151" font-family="Helvetica,sans-Serif" font-size="10.00" fill="grey">+ext_tensor_out</text>
<text text-anchor="middle" x="108.38" y="-139.75" font-family="Helvetica,sans-Serif" font-size="10.00" fill="grey">+to_export_to</text>
</g>
<!-- Node3 -->
<g id="Node000003" class="node">
<title>Node3</title>
<g id="a_Node000003"><a xlink:href="structTTL__layout__t.html" target="_top" xlink:title="Description of a Tensor layout in memory.">
<polygon fill="white" stroke="none" points="101.5,-383.5 21.5,-383.5 21.5,-319.5 101.5,-319.5 101.5,-383.5"/>
<text text-anchor="start" x="33" y="-370" font-family="Helvetica,sans-Serif" font-size="10.00">TTL_layout_t</text>
<text text-anchor="start" x="25.5" y="-355" font-family="Helvetica,sans-Serif" font-size="10.00">+</text>
<text text-anchor="start" x="35.5" y="-355" font-family="Helvetica,sans-Serif" font-size="10.00">row_spacing</text>
<text text-anchor="start" x="25.5" y="-340" font-family="Helvetica,sans-Serif" font-size="10.00">+</text>
<text text-anchor="start" x="35.5" y="-340" font-family="Helvetica,sans-Serif" font-size="10.00">plane_spacing</text>
<text text-anchor="start" x="60" y="-325" font-family="Helvetica,sans-Serif" font-size="10.00"> </text>
<polygon fill="#666666" stroke="#666666" points="21.5,-366.5 21.5,-366.5 101.5,-366.5 101.5,-366.5 21.5,-366.5"/>
<polygon fill="#666666" stroke="#666666" points="21.5,-336.5 21.5,-336.5 33.5,-336.5 33.5,-336.5 21.5,-336.5"/>
<polygon fill="#666666" stroke="#666666" points="33.5,-336.5 33.5,-336.5 101.5,-336.5 101.5,-336.5 33.5,-336.5"/>
<polygon fill="none" stroke="#666666" points="21.5,-319.5 21.5,-383.5 101.5,-383.5 101.5,-319.5 21.5,-319.5"/>
</a>
</g>
</g>
<!-- Node3&#45;&gt;Node2 -->
<g id="edge2_Node000002_Node000003" class="edge">
<title>Node3&#45;&gt;Node2</title>
<g id="a_edge2_Node000002_Node000003"><a xlink:title=" ">
<path fill="none" stroke="#63b8ff" d="M39.69,-319.52C35.19,-311.56 31.11,-302.76 28.75,-294 26.74,-286.53 27.25,-278.73 29.14,-271.21"/>
<polygon fill="none" stroke="#63b8ff" points="29.18,-271.12 27.39,-264.13 33.15,-259.8 34.94,-266.79 29.18,-271.12"/>
</a>
</g>
<text text-anchor="middle" x="46.38" y="-284.5" font-family="Helvetica,sans-Serif" font-size="10.00" fill="grey"> +layout</text>
</g>
<!-- Node5 -->
<g id="Node000005" class="node">
<title>Node5</title>
<g id="a_Node000005"><a xlink:href="structTTL__const__int__uint__tensor__t.html" target="_top" xlink:title=" ">
<polygon fill="white" stroke="none" points="219.5,-264.75 125.5,-264.75 125.5,-189.75 219.5,-189.75 219.5,-264.75"/>
<text text-anchor="start" x="130.5" y="-251.25" font-family="Helvetica,sans-Serif" font-size="10.00">TTL_const_int_uint</text>
<text text-anchor="start" x="152.25" y="-240" font-family="Helvetica,sans-Serif" font-size="10.00">_tensor_t</text>
<text text-anchor="start" x="137.5" y="-225.25" font-family="Helvetica,sans-Serif" font-size="10.00">+</text>
<text text-anchor="start" x="155.5" y="-225.25" font-family="Helvetica,sans-Serif" font-size="10.00">base</text>
<text text-anchor="start" x="137.5" y="-210.25" font-family="Helvetica,sans-Serif" font-size="10.00">+</text>
<text text-anchor="start" x="155.5" y="-210.25" font-family="Helvetica,sans-Serif" font-size="10.00">elem_size</text>
<text text-anchor="start" x="171" y="-195.25" font-family="Helvetica,sans-Serif" font-size="10.00"> </text>
<polygon fill="#666666" stroke="#666666" points="125.5,-236.75 125.5,-236.75 219.5,-236.75 219.5,-236.75 125.5,-236.75"/>
<polygon fill="#666666" stroke="#666666" points="125.5,-206.75 125.5,-206.75 153.5,-206.75 153.5,-206.75 125.5,-206.75"/>
<polygon fill="#666666" stroke="#666666" points="153.5,-206.75 153.5,-206.75 219.5,-206.75 219.5,-206.75 153.5,-206.75"/>
<polygon fill="none" stroke="#666666" points="125.5,-189.75 125.5,-264.75 219.5,-264.75 219.5,-189.75 125.5,-189.75"/>
</a>
</g>
</g>
<!-- Node3&#45;&gt;Node5 -->
<g id="edge5_Node000005_Node000003" class="edge">
<title>Node3&#45;&gt;Node5</title>
<g id="a_edge5_Node000005_Node000003"><a xlink:title=" ">
<path fill="none" stroke="#63b8ff" d="M65.34,-319.68C68.19,-307.12 73.14,-293.15 81.75,-282.75 90.94,-271.66 98.43,-272.6 114.48,-265.16"/>
<polygon fill="none" stroke="#63b8ff" points="114.25,-265.28 117.69,-258.94 124.86,-259.68 121.42,-266.02 114.25,-265.28"/>
</a>
</g>
<text text-anchor="middle" x="98.38" y="-284.5" font-family="Helvetica,sans-Serif" font-size="10.00" fill="grey"> +layout</text>
</g>
<!-- Node4 -->
<g id="Node000004" class="node">
<title>Node4</title>
<g id="a_Node000004"><a xlink:href="structTTL__shape__t.html" target="_top" xlink:title="Description of a Shape.">
<polygon fill="white" stroke="none" points="198,-391 131,-391 131,-312 198,-312 198,-391"/>
<text text-anchor="start" x="135.62" y="-377.5" font-family="Helvetica,sans-Serif" font-size="10.00">TTL_shape_t</text>
<text text-anchor="start" x="140.5" y="-362.5" font-family="Helvetica,sans-Serif" font-size="10.00">+</text>
<text text-anchor="start" x="156" y="-362.5" font-family="Helvetica,sans-Serif" font-size="10.00">width</text>
<text text-anchor="start" x="140.5" y="-347.5" font-family="Helvetica,sans-Serif" font-size="10.00">+</text>
<text text-anchor="start" x="156" y="-347.5" font-family="Helvetica,sans-Serif" font-size="10.00">height</text>
<text text-anchor="start" x="140.5" y="-332.5" font-family="Helvetica,sans-Serif" font-size="10.00">+</text>
<text text-anchor="start" x="156" y="-332.5" font-family="Helvetica,sans-Serif" font-size="10.00">depth</text>
<text text-anchor="start" x="163" y="-317.5" font-family="Helvetica,sans-Serif" font-size="10.00"> </text>
<polygon fill="#666666" stroke="#666666" points="131,-374 131,-374 198,-374 198,-374 131,-374"/>
<polygon fill="#666666" stroke="#666666" points="131,-329 131,-329 154,-329 154,-329 131,-329"/>
<polygon fill="#666666" stroke="#666666" points="154,-329 154,-329 198,-329 198,-329 154,-329"/>
<polygon fill="none" stroke="#666666" points="131,-312 131,-391 198,-391 198,-312 131,-312"/>
</a>
</g>
</g>
<!-- Node4&#45;&gt;Node2 -->
<g id="edge3_Node000002_Node000004" class="edge">
<title>Node4&#45;&gt;Node2</title>
<g id="a_edge3_Node000002_Node000004"><a xlink:title=" ">
<path fill="none" stroke="#63b8ff" d="M141.84,-312.13C135.19,-302.13 127.53,-291.67 119.5,-282.75 114.84,-277.58 109.67,-272.47 104.34,-267.58"/>
<polygon fill="none" stroke="#63b8ff" points="104.32,-267.56 97.17,-266.6 95.31,-259.64 102.46,-260.6 104.32,-267.56"/>
</a>
</g>
<text text-anchor="middle" x="144.75" y="-284.5" font-family="Helvetica,sans-Serif" font-size="10.00" fill="grey"> +shape</text>
</g>
<!-- Node4&#45;&gt;Node5 -->
<g id="edge6_Node000005_Node000004" class="edge">
<title>Node4&#45;&gt;Node5</title>
<g id="a_edge6_Node000005_Node000004"><a xlink:title=" ">
<path fill="none" stroke="#63b8ff" d="M174.56,-312.1C175.78,-306.08 176.83,-299.9 177.5,-294 178.11,-288.63 178.33,-282.99 178.27,-277.39"/>
<polygon fill="none" stroke="#63b8ff" points="178.27,-277.36 174.01,-271.54 177.75,-265.37 182,-271.19 178.27,-277.36"/>
</a>
</g>
<text text-anchor="middle" x="194.75" y="-284.5" font-family="Helvetica,sans-Serif" font-size="10.00" fill="grey"> +shape</text>
</g>
<!-- Node5&#45;&gt;Node1 -->
<g id="edge4_Node000001_Node000005" class="edge">
<title>Node5&#45;&gt;Node1</title>
<g id="a_edge4_Node000001_Node000005"><a xlink:title=" ">
<path fill="none" stroke="#63b8ff" d="M161.18,-190C156.02,-173.98 149.7,-154.97 143.5,-138 142.75,-135.95 141.98,-133.88 141.2,-131.79"/>
<polygon fill="none" stroke="#63b8ff" points="141.19,-131.76 135.32,-127.58 136.91,-120.55 142.79,-124.73 141.19,-131.76"/>
</a>
</g>
<text text-anchor="middle" x="189.88" y="-151" font-family="Helvetica,sans-Serif" font-size="10.00" fill="grey"> +to_export_from</text>
</g>
</g>
</svg>
