<?xml version="1.0" encoding="UTF-8" standalone="no"?>
<!DOCTYPE svg PUBLIC "-//W3C//DTD SVG 1.1//EN"
 "http://www.w3.org/Graphics/SVG/1.1/DTD/svg11.dtd">
<!-- Generated by graphviz version 12.0.0 (20240704.0754)
 -->
<!-- Title: TTL_int_short_sub_tensor_t Pages: 1 -->
<svg width="273pt" height="310pt"
 viewBox="0.00 0.00 273.00 309.50" xmlns="http://www.w3.org/2000/svg" xmlns:xlink="http://www.w3.org/1999/xlink">
<g id="graph0" class="graph" transform="scale(1 1) rotate(0) translate(4 305.5)">
<title>TTL_int_short_sub_tensor_t</title>
<!-- Node1 -->
<g id="Node000001" class="node">
<title>Node1</title>
<g id="a_Node000001"><a xlink:title="const and non&#45;const sub tensors in the appropriate address space">
<polygon fill="#999999" stroke="none" points="213.5,-49 81.5,-49 81.5,0 213.5,0 213.5,-49"/>
<text text-anchor="start" x="86.38" y="-35.5" font-family="Helvetica,sans-Serif" font-size="10.00">TTL_int_short_sub_tensor_t</text>
<text text-anchor="start" x="108" y="-20.5" font-family="Helvetica,sans-Serif" font-size="10.00">+</text>
<text text-anchor="start" x="140.5" y="-20.5" font-family="Helvetica,sans-Serif" font-size="10.00">origin</text>
<text text-anchor="start" x="146" y="-5.5" font-family="Helvetica,sans-Serif" font-size="10.00"> </text>
<polygon fill="#666666" stroke="#666666" points="81.5,-32 81.5,-32 213.5,-32 213.5,-32 81.5,-32"/>
<polygon fill="#666666" stroke="#666666" points="81.5,-17 81.5,-17 138.5,-17 138.5,-17 81.5,-17"/>
<polygon fill="#666666" stroke="#666666" points="138.5,-17 138.5,-17 213.5,-17 213.5,-17 138.5,-17"/>
<polygon fill="none" stroke="#666666" points="81.5,0 81.5,-49 213.5,-49 213.5,0 81.5,0"/>
</a>
</g>
</g>
<!-- Node2 -->
<g id="Node000002" class="node">
<title>Node2</title>
<g id="a_Node000002"><a xlink:href="structTTL__int__short__tensor__t.html" target="_top" xlink:title="const and non&#45;const tensors in the appropriate address space">
<polygon fill="white" stroke="none" points="111,-167.75 0,-167.75 0,-103.75 111,-103.75 111,-167.75"/>
<text text-anchor="start" x="4.88" y="-154.25" font-family="Helvetica,sans-Serif" font-size="10.00">TTL_int_short_tensor_t</text>
<text text-anchor="start" x="16.5" y="-139.25" font-family="Helvetica,sans-Serif" font-size="10.00">+</text>
<text text-anchor="start" x="39" y="-139.25" font-family="Helvetica,sans-Serif" font-size="10.00">base</text>
<text text-anchor="start" x="16.5" y="-124.25" font-family="Helvetica,sans-Serif" font-size="10.00">+</text>
<text text-anchor="start" x="39" y="-124.25" font-family="Helvetica,sans-Serif" font-size="10.00">elem_size</text>
<text text-anchor="start" x="54" y="-109.25" font-family="Helvetica,sans-Serif" font-size="10.00"> </text>
<polygon fill="#666666" stroke="#666666" points="0,-150.75 0,-150.75 111,-150.75 111,-150.75 0,-150.75"/>
<polygon fill="#666666" stroke="#666666" points="0,-120.75 0,-120.75 37,-120.75 37,-120.75 0,-120.75"/>
<polygon fill="#666666" stroke="#666666" points="37,-120.75 37,-120.75 111,-120.75 111,-120.75 37,-120.75"/>
<polygon fill="none" stroke="#666666" points="0,-103.75 0,-167.75 111,-167.75 111,-103.75 0,-103.75"/>
</a>
</g>
</g>
<!-- Node2&#45;&gt;Node1 -->
<g id="edge1_Node000001_Node000002" class="edge">
<title>Node2&#45;&gt;Node1</title>
<g id="a_edge1_Node000001_Node000002"><a xlink:title=" ">
<path fill="none" stroke="#63b8ff" d="M72.15,-104.02C79.4,-91.9 88.47,-78.22 98.25,-67 101,-63.84 104.01,-60.71 107.13,-57.68"/>
<polygon fill="none" stroke="#63b8ff" points="107.19,-57.62 108.92,-50.62 116.05,-49.53 114.32,-56.53 107.19,-57.62"/>
</a>
</g>
<text text-anchor="middle" x="116.12" y="-68.75" font-family="Helvetica,sans-Serif" font-size="10.00" fill="grey"> +tensor</text>
</g>
<!-- Node3 -->
<g id="Node000003" class="node">
<title>Node3</title>
<g id="a_Node000003"><a xlink:href="structTTL__layout__t.html" target="_top" xlink:title="Description of a Tensor layout in memory.">
<polygon fill="white" stroke="none" points="80.5,-294 0.5,-294 0.5,-230 80.5,-230 80.5,-294"/>
<text text-anchor="start" x="12" y="-280.5" font-family="Helvetica,sans-Serif" font-size="10.00">TTL_layout_t</text>
<text text-anchor="start" x="4.5" y="-265.5" font-family="Helvetica,sans-Serif" font-size="10.00">+</text>
<text text-anchor="start" x="14.5" y="-265.5" font-family="Helvetica,sans-Serif" font-size="10.00">row_spacing</text>
<text text-anchor="start" x="4.5" y="-250.5" font-family="Helvetica,sans-Serif" font-size="10.00">+</text>
<text text-anchor="start" x="14.5" y="-250.5" font-family="Helvetica,sans-Serif" font-size="10.00">plane_spacing</text>
<text text-anchor="start" x="39" y="-235.5" font-family="Helvetica,sans-Serif" font-size="10.00"> </text>
<polygon fill="#666666" stroke="#666666" points="0.5,-277 0.5,-277 80.5,-277 80.5,-277 0.5,-277"/>
<polygon fill="#666666" stroke="#666666" points="0.5,-247 0.5,-247 12.5,-247 12.5,-247 0.5,-247"/>
<polygon fill="#666666" stroke="#666666" points="12.5,-247 12.5,-247 80.5,-247 80.5,-247 12.5,-247"/>
<polygon fill="none" stroke="#666666" points="0.5,-230 0.5,-294 80.5,-294 80.5,-230 0.5,-230"/>
</a>
</g>
</g>
<!-- Node3&#45;&gt;Node2 -->
<g id="edge2_Node000002_Node000003" class="edge">
<title>Node3&#45;&gt;Node2</title>
<g id="a_edge2_Node000002_Node000003"><a xlink:title=" ">
<path fill="none" stroke="#63b8ff" d="M39.64,-230.2C39.69,-218.58 40.2,-205.27 41.75,-193.25 42.31,-188.91 43.08,-184.43 43.96,-179.97"/>
<polygon fill="none" stroke="#63b8ff" points="43.91,-180.2 41.3,-173.48 46.5,-168.48 49.11,-175.21 43.91,-180.2"/>
</a>
</g>
<text text-anchor="middle" x="59.38" y="-195" font-family="Helvetica,sans-Serif" font-size="10.00" fill="grey"> +layout</text>
</g>
<!-- Node4 -->
<g id="Node000004" class="node">
<title>Node4</title>
<g id="a_Node000004"><a xlink:href="structTTL__shape__t.html" target="_top" xlink:title="Description of a Shape.">
<polygon fill="white" stroke="none" points="173,-301.5 106,-301.5 106,-222.5 173,-222.5 173,-301.5"/>
<text text-anchor="start" x="110.62" y="-288" font-family="Helvetica,sans-Serif" font-size="10.00">TTL_shape_t</text>
<text text-anchor="start" x="115.5" y="-273" font-family="Helvetica,sans-Serif" font-size="10.00">+</text>
<text text-anchor="start" x="131" y="-273" font-family="Helvetica,sans-Serif" font-size="10.00">width</text>
<text text-anchor="start" x="115.5" y="-258" font-family="Helvetica,sans-Serif" font-size="10.00">+</text>
<text text-anchor="start" x="131" y="-258" font-family="Helvetica,sans-Serif" font-size="10.00">height</text>
<text text-anchor="start" x="115.5" y="-243" font-family="Helvetica,sans-Serif" font-size="10.00">+</text>
<text text-anchor="start" x="131" y="-243" font-family="Helvetica,sans-Serif" font-size="10.00">depth</text>
<text text-anchor="start" x="138" y="-228" font-family="Helvetica,sans-Serif" font-size="10.00"> </text>
<polygon fill="#666666" stroke="#666666" points="106,-284.5 106,-284.5 173,-284.5 173,-284.5 106,-284.5"/>
<polygon fill="#666666" stroke="#666666" points="106,-239.5 106,-239.5 129,-239.5 129,-239.5 106,-239.5"/>
<polygon fill="#666666" stroke="#666666" points="129,-239.5 129,-239.5 173,-239.5 173,-239.5 129,-239.5"/>
<polygon fill="none" stroke="#666666" points="106,-222.5 106,-301.5 173,-301.5 173,-222.5 106,-222.5"/>
</a>
</g>
</g>
<!-- Node4&#45;&gt;Node1 -->
<g id="edge4_Node000001_Node000004" class="edge">
<title>Node4&#45;&gt;Node1</title>
<g id="a_edge4_Node000001_Node000004"><a xlink:title=" ">
<path fill="none" stroke="#63b8ff" d="M140.8,-222.64C142.32,-178.09 144.79,-105.15 146.27,-61.59"/>
<polygon fill="none" stroke="#63b8ff" points="146.27,-61.71 142.48,-55.58 146.68,-49.72 150.47,-55.85 146.27,-61.71"/>
</a>
</g>
<text text-anchor="middle" x="162.75" y="-131.88" font-family="Helvetica,sans-Serif" font-size="10.00" fill="grey"> +shape</text>
</g>
<!-- Node4&#45;&gt;Node2 -->
<g id="edge3_Node000002_Node000004" class="edge">
<title>Node4&#45;&gt;Node2</title>
<g id="a_edge3_Node000002_Node000004"><a xlink:title=" ">
<path fill="none" stroke="#63b8ff" d="M111.57,-222.59C107.31,-216.57 103,-210.39 99,-204.5 93.31,-196.12 87.36,-187.07 81.75,-178.38"/>
<polygon fill="none" stroke="#63b8ff" points="81.84,-178.52 75.24,-175.63 75.36,-168.42 81.97,-171.31 81.84,-178.52"/>
</a>
</g>
<text text-anchor="middle" x="116.75" y="-195" font-family="Helvetica,sans-Serif" font-size="10.00" fill="grey"> +shape</text>
</g>
<!-- Node5 -->
<g id="Node000005" class="node">
<title>Node5</title>
<g id="a_Node000005"><a xlink:href="structTTL__offset__t.html" target="_top" xlink:title="Description of the 3D offset of an object.">
<polygon fill="white" stroke="none" points="265,-175.25 200,-175.25 200,-96.25 265,-96.25 265,-175.25"/>
<text text-anchor="start" x="204.75" y="-161.75" font-family="Helvetica,sans-Serif" font-size="10.00">TTL_offset_t</text>
<text text-anchor="start" x="214.5" y="-146.75" font-family="Helvetica,sans-Serif" font-size="10.00">+</text>
<text text-anchor="start" x="235" y="-146.75" font-family="Helvetica,sans-Serif" font-size="10.00">x</text>
<text text-anchor="start" x="214.5" y="-131.75" font-family="Helvetica,sans-Serif" font-size="10.00">+</text>
<text text-anchor="start" x="235" y="-131.75" font-family="Helvetica,sans-Serif" font-size="10.00">y</text>
<text text-anchor="start" x="214.5" y="-116.75" font-family="Helvetica,sans-Serif" font-size="10.00">+</text>
<text text-anchor="start" x="235" y="-116.75" font-family="Helvetica,sans-Serif" font-size="10.00">z</text>
<text text-anchor="start" x="231" y="-101.75" font-family="Helvetica,sans-Serif" font-size="10.00"> </text>
<polygon fill="#666666" stroke="#666666" points="200,-158.25 200,-158.25 265,-158.25 265,-158.25 200,-158.25"/>
<polygon fill="#666666" stroke="#666666" points="200,-113.25 200,-113.25 233,-113.25 233,-113.25 200,-113.25"/>
<polygon fill="#666666" stroke="#666666" points="233,-113.25 233,-113.25 265,-113.25 265,-113.25 233,-113.25"/>
<polygon fill="none" stroke="#666666" points="200,-96.25 200,-175.25 265,-175.25 265,-96.25 200,-96.25"/>
</a>
</g>
</g>
<!-- Node5&#45;&gt;Node1 -->
<g id="edge5_Node000001_Node000005" class="edge">
<title>Node5&#45;&gt;Node1</title>
<g id="a_edge5_Node000001_Node000005"><a xlink:title=" ">
<path fill="none" stroke="#63b8ff" d="M202.77,-96.54C193.22,-84.26 182.72,-70.76 173.46,-58.86"/>
<polygon fill="none" stroke="#63b8ff" points="173.61,-59.06 166.77,-56.79 166.25,-49.59 173.09,-51.87 173.61,-59.06"/>
</a>
</g>
<text text-anchor="middle" x="213.12" y="-68.75" font-family="Helvetica,sans-Serif" font-size="10.00" fill="grey"> +sub_offset</text>
</g>
</g>
</svg>
