<?xml version="1.0" encoding="UTF-8" standalone="no"?>
<!DOCTYPE svg PUBLIC "-//W3C//DTD SVG 1.1//EN"
 "http://www.w3.org/Graphics/SVG/1.1/DTD/svg11.dtd">
<!-- Generated by graphviz version 12.0.0 (20240704.0754)
 -->
<!-- Title: TTL_simplex_const_ushort_tensor_buffering_t Pages: 1 -->
<svg width="476pt" height="488pt"
 viewBox="0.00 0.00 475.50 487.75" xmlns="http://www.w3.org/2000/svg" xmlns:xlink="http://www.w3.org/1999/xlink">
<g id="graph0" class="graph" transform="scale(1 1) rotate(0) translate(4 483.75)">
<title>TTL_simplex_const_ushort_tensor_buffering_t</title>
<!-- Node1 -->
<g id="Node000001" class="node">
<title>Node1</title>
<g id="a_Node000001"><a xlink:title=" ">
<polygon fill="#999999" stroke="none" points="351.5,-120 224.5,-120 224.5,0 351.5,0 351.5,-120"/>
<text text-anchor="start" x="229.12" y="-106.5" font-family="Helvetica,sans-Serif" font-size="10.00">TTL_simplex_const_ushort</text>
<text text-anchor="start" x="246.75" y="-95.25" font-family="Helvetica,sans-Serif" font-size="10.00">_tensor_buffering_t</text>
<text text-anchor="start" x="245" y="-80.5" font-family="Helvetica,sans-Serif" font-size="10.00">+</text>
<text text-anchor="start" x="271.5" y="-80.5" font-family="Helvetica,sans-Serif" font-size="10.00">index</text>
<text text-anchor="start" x="245" y="-65.5" font-family="Helvetica,sans-Serif" font-size="10.00">+</text>
<text text-anchor="start" x="271.5" y="-65.5" font-family="Helvetica,sans-Serif" font-size="10.00">int_base</text>
<text text-anchor="start" x="245" y="-50.5" font-family="Helvetica,sans-Serif" font-size="10.00">+</text>
<text text-anchor="start" x="271.5" y="-50.5" font-family="Helvetica,sans-Serif" font-size="10.00">common</text>
<text text-anchor="start" x="245" y="-35.5" font-family="Helvetica,sans-Serif" font-size="10.00">+</text>
<text text-anchor="start" x="271.5" y="-35.5" font-family="Helvetica,sans-Serif" font-size="10.00">event_in</text>
<text text-anchor="start" x="245" y="-20.5" font-family="Helvetica,sans-Serif" font-size="10.00">+</text>
<text text-anchor="start" x="271.5" y="-20.5" font-family="Helvetica,sans-Serif" font-size="10.00">event_out</text>
<text text-anchor="start" x="286.5" y="-5.5" font-family="Helvetica,sans-Serif" font-size="10.00"> </text>
<polygon fill="#666666" stroke="#666666" points="224.5,-92 224.5,-92 351.5,-92 351.5,-92 224.5,-92"/>
<polygon fill="#666666" stroke="#666666" points="224.5,-17 224.5,-17 269.5,-17 269.5,-17 224.5,-17"/>
<polygon fill="#666666" stroke="#666666" points="269.5,-17 269.5,-17 351.5,-17 351.5,-17 269.5,-17"/>
<polygon fill="none" stroke="#666666" points="224.5,0 224.5,-120 351.5,-120 351.5,0 224.5,0"/>
</a>
</g>
</g>
<!-- Node2 -->
<g id="Node000002" class="node">
<title>Node2</title>
<g id="a_Node000002"><a xlink:href="structTTL__ext__ushort__tensor__t.html" target="_top" xlink:title="const and non&#45;const tensors in the appropriate address space">
<polygon fill="white" stroke="none" points="118,-346 0,-346 0,-282 118,-282 118,-346"/>
<text text-anchor="start" x="4.62" y="-332.5" font-family="Helvetica,sans-Serif" font-size="10.00">TTL_ext_ushort_tensor_t</text>
<text text-anchor="start" x="18" y="-317.5" font-family="Helvetica,sans-Serif" font-size="10.00">+</text>
<text text-anchor="start" x="42" y="-317.5" font-family="Helvetica,sans-Serif" font-size="10.00">base</text>
<text text-anchor="start" x="18" y="-302.5" font-family="Helvetica,sans-Serif" font-size="10.00">+</text>
<text text-anchor="start" x="42" y="-302.5" font-family="Helvetica,sans-Serif" font-size="10.00">elem_size</text>
<text text-anchor="start" x="57.5" y="-287.5" font-family="Helvetica,sans-Serif" font-size="10.00"> </text>
<polygon fill="#666666" stroke="#666666" points="0,-329 0,-329 118,-329 118,-329 0,-329"/>
<polygon fill="#666666" stroke="#666666" points="0,-299 0,-299 40,-299 40,-299 0,-299"/>
<polygon fill="#666666" stroke="#666666" points="40,-299 40,-299 118,-299 118,-299 40,-299"/>
<polygon fill="none" stroke="#666666" points="0,-282 0,-346 118,-346 118,-282 0,-282"/>
</a>
</g>
</g>
<!-- Node2&#45;&gt;Node1 -->
<g id="edge1_Node000001_Node000002" class="edge">
<title>Node2&#45;&gt;Node1</title>
<g id="a_edge1_Node000001_Node000002"><a xlink:title=" ">
<path fill="none" stroke="#63b8ff" d="M77.25,-282.26C96.23,-251.51 127.81,-203.69 161.25,-167.25 177.46,-149.59 196.58,-132.14 214.98,-116.65"/>
<polygon fill="none" stroke="#63b8ff" points="214.89,-116.73 216.95,-109.83 224.12,-109.08 222.06,-115.99 214.89,-116.73"/>
</a>
</g>
<text text-anchor="middle" x="195.88" y="-199" font-family="Helvetica,sans-Serif" font-size="10.00" fill="grey"> +ext_tensor_in</text>
<text text-anchor="middle" x="195.88" y="-187.75" font-family="Helvetica,sans-Serif" font-size="10.00" fill="grey">+ext_tensor_out</text>
</g>
<!-- Node3 -->
<g id="Node000003" class="node">
<title>Node3</title>
<g id="a_Node000003"><a xlink:href="structTTL__layout__t.html" target="_top" xlink:title="Description of a Tensor layout in memory.">
<polygon fill="white" stroke="none" points="171,-472.25 91,-472.25 91,-408.25 171,-408.25 171,-472.25"/>
<text text-anchor="start" x="102.5" y="-458.75" font-family="Helvetica,sans-Serif" font-size="10.00">TTL_layout_t</text>
<text text-anchor="start" x="95" y="-443.75" font-family="Helvetica,sans-Serif" font-size="10.00">+</text>
<text text-anchor="start" x="105" y="-443.75" font-family="Helvetica,sans-Serif" font-size="10.00">row_spacing</text>
<text text-anchor="start" x="95" y="-428.75" font-family="Helvetica,sans-Serif" font-size="10.00">+</text>
<text text-anchor="start" x="105" y="-428.75" font-family="Helvetica,sans-Serif" font-size="10.00">plane_spacing</text>
<text text-anchor="start" x="129.5" y="-413.75" font-family="Helvetica,sans-Serif" font-size="10.00"> </text>
<polygon fill="#666666" stroke="#666666" points="91,-455.25 91,-455.25 171,-455.25 171,-455.25 91,-455.25"/>
<polygon fill="#666666" stroke="#666666" points="91,-425.25 91,-425.25 103,-425.25 103,-425.25 91,-425.25"/>
<polygon fill="#666666" stroke="#666666" points="103,-425.25 103,-425.25 171,-425.25 171,-425.25 103,-425.25"/>
<polygon fill="none" stroke="#666666" points="91,-408.25 91,-472.25 171,-472.25 171,-408.25 91,-408.25"/>
</a>
</g>
</g>
<!-- Node3&#45;&gt;Node2 -->
<g id="edge2_Node000002_Node000003" class="edge">
<title>Node3&#45;&gt;Node2</title>
<g id="a_edge2_Node000002_Node000003"><a xlink:title=" ">
<path fill="none" stroke="#63b8ff" d="M91.05,-414.13C80.57,-405.51 70.47,-394.91 64.25,-382.75 60.48,-375.37 58.38,-366.95 57.32,-358.6"/>
<polygon fill="none" stroke="#63b8ff" points="57.32,-358.59 52.91,-352.88 56.49,-346.61 60.89,-352.32 57.32,-358.59"/>
</a>
</g>
<text text-anchor="middle" x="80.88" y="-373.25" font-family="Helvetica,sans-Serif" font-size="10.00" fill="grey"> +layout</text>
</g>
<!-- Node8 -->
<g id="Node000008" class="node">
<title>Node8</title>
<g id="a_Node000008"><a xlink:href="structTTL__int__ushort__tensor__t.html" target="_top" xlink:title="const and non&#45;const tensors in the appropriate address space">
<polygon fill="white" stroke="none" points="252,-346 136,-346 136,-282 252,-282 252,-346"/>
<text text-anchor="start" x="140.75" y="-332.5" font-family="Helvetica,sans-Serif" font-size="10.00">TTL_int_ushort_tensor_t</text>
<text text-anchor="start" x="153.5" y="-317.5" font-family="Helvetica,sans-Serif" font-size="10.00">+</text>
<text text-anchor="start" x="177" y="-317.5" font-family="Helvetica,sans-Serif" font-size="10.00">base</text>
<text text-anchor="start" x="153.5" y="-302.5" font-family="Helvetica,sans-Serif" font-size="10.00">+</text>
<text text-anchor="start" x="177" y="-302.5" font-family="Helvetica,sans-Serif" font-size="10.00">elem_size</text>
<text text-anchor="start" x="192.5" y="-287.5" font-family="Helvetica,sans-Serif" font-size="10.00"> </text>
<polygon fill="#666666" stroke="#666666" points="136,-329 136,-329 252,-329 252,-329 136,-329"/>
<polygon fill="#666666" stroke="#666666" points="136,-299 136,-299 175,-299 175,-299 136,-299"/>
<polygon fill="#666666" stroke="#666666" points="175,-299 175,-299 252,-299 252,-299 175,-299"/>
<polygon fill="none" stroke="#666666" points="136,-282 136,-346 252,-346 252,-282 136,-282"/>
</a>
</g>
</g>
<!-- Node3&#45;&gt;Node8 -->
<g id="edge9_Node000008_Node000003" class="edge">
<title>Node3&#45;&gt;Node8</title>
<g id="a_edge9_Node000008_Node000003"><a xlink:title=" ">
<path fill="none" stroke="#63b8ff" d="M146.57,-408.54C154.45,-393.01 164.13,-373.92 172.68,-357.05"/>
<polygon fill="none" stroke="#63b8ff" points="172.55,-357.3 171.7,-350.14 177.98,-346.59 178.83,-353.76 172.55,-357.3"/>
</a>
</g>
<text text-anchor="middle" x="180.88" y="-373.25" font-family="Helvetica,sans-Serif" font-size="10.00" fill="grey"> +layout</text>
</g>
<!-- Node4 -->
<g id="Node000004" class="node">
<title>Node4</title>
<g id="a_Node000004"><a xlink:href="structTTL__shape__t.html" target="_top" xlink:title="Description of a Shape.">
<polygon fill="white" stroke="none" points="296.5,-479.75 229.5,-479.75 229.5,-400.75 296.5,-400.75 296.5,-479.75"/>
<text text-anchor="start" x="234.12" y="-466.25" font-family="Helvetica,sans-Serif" font-size="10.00">TTL_shape_t</text>
<text text-anchor="start" x="239" y="-451.25" font-family="Helvetica,sans-Serif" font-size="10.00">+</text>
<text text-anchor="start" x="254.5" y="-451.25" font-family="Helvetica,sans-Serif" font-size="10.00">width</text>
<text text-anchor="start" x="239" y="-436.25" font-family="Helvetica,sans-Serif" font-size="10.00">+</text>
<text text-anchor="start" x="254.5" y="-436.25" font-family="Helvetica,sans-Serif" font-size="10.00">height</text>
<text text-anchor="start" x="239" y="-421.25" font-family="Helvetica,sans-Serif" font-size="10.00">+</text>
<text text-anchor="start" x="254.5" y="-421.25" font-family="Helvetica,sans-Serif" font-size="10.00">depth</text>
<text text-anchor="start" x="261.5" y="-406.25" font-family="Helvetica,sans-Serif" font-size="10.00"> </text>
<polygon fill="#666666" stroke="#666666" points="229.5,-462.75 229.5,-462.75 296.5,-462.75 296.5,-462.75 229.5,-462.75"/>
<polygon fill="#666666" stroke="#666666" points="229.5,-417.75 229.5,-417.75 252.5,-417.75 252.5,-417.75 229.5,-417.75"/>
<polygon fill="#666666" stroke="#666666" points="252.5,-417.75 252.5,-417.75 296.5,-417.75 296.5,-417.75 252.5,-417.75"/>
<polygon fill="none" stroke="#666666" points="229.5,-400.75 229.5,-479.75 296.5,-479.75 296.5,-400.75 229.5,-400.75"/>
</a>
</g>
</g>
<!-- Node4&#45;&gt;Node2 -->
<g id="edge3_Node000002_Node000004" class="edge">
<title>Node4&#45;&gt;Node2</title>
<g id="a_edge3_Node000002_Node000004"><a xlink:title=" ">
<path fill="none" stroke="#63b8ff" d="M229.53,-422.46C214.57,-415.29 196.61,-407.12 180,-400.75 154.6,-391 144.52,-397.25 121.5,-382.75 109.9,-375.45 99.07,-365.45 89.79,-355.38"/>
<polygon fill="none" stroke="#63b8ff" points="89.89,-355.49 82.93,-353.61 81.99,-346.46 88.95,-348.34 89.89,-355.49"/>
</a>
</g>
<text text-anchor="middle" x="138.25" y="-373.25" font-family="Helvetica,sans-Serif" font-size="10.00" fill="grey"> +shape</text>
</g>
<!-- Node5 -->
<g id="Node000005" class="node">
<title>Node5</title>
<g id="a_Node000005"><a xlink:href="structTTL__tile__t.html" target="_top" xlink:title=" ">
<polygon fill="white" stroke="none" points="424,-221.75 370,-221.75 370,-172.75 424,-172.75 424,-221.75"/>
<text text-anchor="start" x="374.88" y="-208.25" font-family="Helvetica,sans-Serif" font-size="10.00">TTL_tile_t</text>
<text text-anchor="start" x="395.5" y="-193.25" font-family="Helvetica,sans-Serif" font-size="10.00"> </text>
<text text-anchor="start" x="395.5" y="-178.25" font-family="Helvetica,sans-Serif" font-size="10.00"> </text>
<polygon fill="#666666" stroke="#666666" points="370,-204.75 370,-204.75 424,-204.75 424,-204.75 370,-204.75"/>
<polygon fill="#666666" stroke="#666666" points="370,-189.75 370,-189.75 424,-189.75 424,-189.75 370,-189.75"/>
<polygon fill="none" stroke="#666666" points="370,-172.75 370,-221.75 424,-221.75 424,-172.75 370,-172.75"/>
</a>
</g>
</g>
<!-- Node4&#45;&gt;Node5 -->
<g id="edge5_Node000005_Node000004" class="edge">
<title>Node4&#45;&gt;Node5</title>
<g id="a_edge5_Node000005_Node000004"><a xlink:title=" ">
<path fill="none" stroke="#63b8ff" d="M296.38,-430.73C332.61,-419.55 388.89,-396.16 416,-353.5 441.85,-312.81 435.05,-291.93 423,-245.25 421.95,-241.19 420.47,-237.1 418.73,-233.12"/>
<polygon fill="none" stroke="#63b8ff" points="418.77,-233.18 412.5,-229.62 413.38,-222.46 419.65,-226.03 418.77,-233.18"/>
</a>
</g>
<text text-anchor="middle" x="450.25" y="-310.12" font-family="Helvetica,sans-Serif" font-size="10.00" fill="grey"> +shape</text>
</g>
<!-- Node7 -->
<g id="Node000007" class="node">
<title>Node7</title>
<g id="a_Node000007"><a xlink:href="structTTL__int__ushort__sub__tensor__t.html" target="_top" xlink:title="const and non&#45;const sub tensors in the appropriate address space">
<polygon fill="white" stroke="none" points="336.5,-227.25 239.5,-227.25 239.5,-167.25 336.5,-167.25 336.5,-227.25"/>
<text text-anchor="start" x="244.5" y="-213.75" font-family="Helvetica,sans-Serif" font-size="10.00">TTL_int_ushort_sub</text>
<text text-anchor="start" x="267.75" y="-202.5" font-family="Helvetica,sans-Serif" font-size="10.00">_tensor_t</text>
<text text-anchor="start" x="257.5" y="-187.75" font-family="Helvetica,sans-Serif" font-size="10.00">+</text>
<text text-anchor="start" x="281.5" y="-187.75" font-family="Helvetica,sans-Serif" font-size="10.00">origin</text>
<text text-anchor="start" x="286.5" y="-172.75" font-family="Helvetica,sans-Serif" font-size="10.00"> </text>
<polygon fill="#666666" stroke="#666666" points="239.5,-199.25 239.5,-199.25 336.5,-199.25 336.5,-199.25 239.5,-199.25"/>
<polygon fill="#666666" stroke="#666666" points="239.5,-184.25 239.5,-184.25 279.5,-184.25 279.5,-184.25 239.5,-184.25"/>
<polygon fill="#666666" stroke="#666666" points="279.5,-184.25 279.5,-184.25 336.5,-184.25 336.5,-184.25 279.5,-184.25"/>
<polygon fill="none" stroke="#666666" points="239.5,-167.25 239.5,-227.25 336.5,-227.25 336.5,-167.25 239.5,-167.25"/>
</a>
</g>
</g>
<!-- Node4&#45;&gt;Node7 -->
<g id="edge11_Node000007_Node000004" class="edge">
<title>Node4&#45;&gt;Node7</title>
<g id="a_edge11_Node000007_Node000004"><a xlink:title=" ">
<path fill="none" stroke="#63b8ff" d="M267.08,-400.96C267.73,-394.87 268.38,-388.64 269,-382.75 274.13,-333.69 279.92,-277.28 283.75,-239.88"/>
<polygon fill="none" stroke="#63b8ff" points="283.75,-239.85 280.39,-233.47 284.97,-227.91 288.34,-234.29 283.75,-239.85"/>
</a>
</g>
<text text-anchor="middle" x="297.25" y="-310.12" font-family="Helvetica,sans-Serif" font-size="10.00" fill="grey"> +shape</text>
</g>
<!-- Node4&#45;&gt;Node8 -->
<g id="edge10_Node000008_Node000004" class="edge">
<title>Node4&#45;&gt;Node8</title>
<g id="a_edge10_Node000008_Node000004"><a xlink:title=" ">
<path fill="none" stroke="#63b8ff" d="M241.73,-400.96C233.99,-387 225.19,-371.16 217.27,-356.91"/>
<polygon fill="none" stroke="#63b8ff" points="217.42,-357.17 211.01,-353.86 211.59,-346.68 218,-349.98 217.42,-357.17"/>
</a>
</g>
<text text-anchor="middle" x="247.25" y="-373.25" font-family="Helvetica,sans-Serif" font-size="10.00" fill="grey"> +shape</text>
</g>
<!-- Node5&#45;&gt;Node1 -->
<g id="edge4_Node000001_Node000005" class="edge">
<title>Node5&#45;&gt;Node1</title>
<g id="a_edge4_Node000001_Node000005"><a xlink:title=" ">
<path fill="none" stroke="#63b8ff" d="M391.03,-172.87C387.48,-161.7 382.24,-148.5 375,-138 370.57,-131.57 365.48,-125.32 360.05,-119.35"/>
<polygon fill="none" stroke="#63b8ff" points="360.2,-119.51 353.16,-117.96 351.89,-110.86 358.93,-112.42 360.2,-119.51"/>
</a>
</g>
<text text-anchor="middle" x="424.12" y="-139.75" font-family="Helvetica,sans-Serif" font-size="10.00" fill="grey"> +next_exported_tile</text>
</g>
<!-- Node6 -->
<g id="Node000006" class="node">
<title>Node6</title>
<g id="a_Node000006"><a xlink:href="structTTL__offset__t.html" target="_top" xlink:title="Description of the 3D offset of an object.">
<polygon fill="white" stroke="none" points="406.5,-353.5 341.5,-353.5 341.5,-274.5 406.5,-274.5 406.5,-353.5"/>
<text text-anchor="start" x="346.25" y="-340" font-family="Helvetica,sans-Serif" font-size="10.00">TTL_offset_t</text>
<text text-anchor="start" x="356" y="-325" font-family="Helvetica,sans-Serif" font-size="10.00">+</text>
<text text-anchor="start" x="376.5" y="-325" font-family="Helvetica,sans-Serif" font-size="10.00">x</text>
<text text-anchor="start" x="356" y="-310" font-family="Helvetica,sans-Serif" font-size="10.00">+</text>
<text text-anchor="start" x="376.5" y="-310" font-family="Helvetica,sans-Serif" font-size="10.00">y</text>
<text text-anchor="start" x="356" y="-295" font-family="Helvetica,sans-Serif" font-size="10.00">+</text>
<text text-anchor="start" x="376.5" y="-295" font-family="Helvetica,sans-Serif" font-size="10.00">z</text>
<text text-anchor="start" x="372.5" y="-280" font-family="Helvetica,sans-Serif" font-size="10.00"> </text>
<polygon fill="#666666" stroke="#666666" points="341.5,-336.5 341.5,-336.5 406.5,-336.5 406.5,-336.5 341.5,-336.5"/>
<polygon fill="#666666" stroke="#666666" points="341.5,-291.5 341.5,-291.5 374.5,-291.5 374.5,-291.5 341.5,-291.5"/>
<polygon fill="#666666" stroke="#666666" points="374.5,-291.5 374.5,-291.5 406.5,-291.5 406.5,-291.5 374.5,-291.5"/>
<polygon fill="none" stroke="#666666" points="341.5,-274.5 341.5,-353.5 406.5,-353.5 406.5,-274.5 341.5,-274.5"/>
</a>
</g>
</g>
<!-- Node6&#45;&gt;Node5 -->
<g id="edge6_Node000005_Node000006" class="edge">
<title>Node6&#45;&gt;Node5</title>
<g id="a_edge6_Node000005_Node000006"><a xlink:title=" ">
<path fill="none" stroke="#63b8ff" d="M381.66,-274.79C384.28,-261.73 387.2,-247.16 389.78,-234.28"/>
<polygon fill="none" stroke="#63b8ff" points="389.79,-234.24 387.04,-227.57 392.15,-222.47 394.89,-229.14 389.79,-234.24"/>
</a>
</g>
<text text-anchor="middle" x="403.12" y="-247" font-family="Helvetica,sans-Serif" font-size="10.00" fill="grey"> +offset</text>
</g>
<!-- Node6&#45;&gt;Node7 -->
<g id="edge12_Node000007_Node000006" class="edge">
<title>Node6&#45;&gt;Node7</title>
<g id="a_edge12_Node000007_Node000006"><a xlink:title=" ">
<path fill="none" stroke="#63b8ff" d="M341.95,-274.76C337.1,-268.72 332.23,-262.49 327.75,-256.5 323.24,-250.47 318.6,-243.98 314.16,-237.59"/>
<polygon fill="none" stroke="#63b8ff" points="314.22,-237.68 307.53,-235 307.43,-227.78 314.12,-230.47 314.22,-237.68"/>
</a>
</g>
<text text-anchor="middle" x="353.62" y="-247" font-family="Helvetica,sans-Serif" font-size="10.00" fill="grey"> +sub_offset</text>
</g>
<!-- Node7&#45;&gt;Node1 -->
<g id="edge7_Node000001_Node000007" class="edge">
<title>Node7&#45;&gt;Node1</title>
<g id="a_edge7_Node000001_Node000007"><a xlink:title=" ">
<path fill="none" stroke="#63b8ff" d="M288,-167.57C288,-157.27 288,-145.13 288,-132.82"/>
<polygon fill="none" stroke="#63b8ff" points="288,-132.89 284,-126.89 288,-120.89 292,-126.89 288,-132.89"/>
</a>
</g>
<text text-anchor="middle" x="330.75" y="-139.75" font-family="Helvetica,sans-Serif" font-size="10.00" fill="grey"> +int_prev_imported</text>
</g>
<!-- Node8&#45;&gt;Node7 -->
<g id="edge8_Node000007_Node000008" class="edge">
<title>Node8&#45;&gt;Node7</title>
<g id="a_edge8_Node000007_Node000008"><a xlink:title=" ">
<path fill="none" stroke="#63b8ff" d="M212.22,-282.29C219.85,-270.3 229.17,-256.71 238.75,-245.25 241.25,-242.26 243.92,-239.27 246.67,-236.31"/>
<polygon fill="none" stroke="#63b8ff" points="246.66,-236.32 247.99,-229.24 255.04,-227.73 253.71,-234.82 246.66,-236.32"/>
</a>
</g>
<text text-anchor="middle" x="255.62" y="-247" font-family="Helvetica,sans-Serif" font-size="10.00" fill="grey"> +tensor</text>
</g>
</g>
</svg>
