<?xml version="1.0" encoding="UTF-8" standalone="no"?>
<!DOCTYPE svg PUBLIC "-//W3C//DTD SVG 1.1//EN"
 "http://www.w3.org/Graphics/SVG/1.1/DTD/svg11.dtd">
<!-- Generated by graphviz version 12.2.1 (20241206.2353)
 -->
<!-- Title: TTL_export_double_const_long_tensor_buffering_t Pages: 1 -->
<svg width="254pt" height="366pt"
 viewBox="0.00 0.00 253.88 365.75" xmlns="http://www.w3.org/2000/svg" xmlns:xlink="http://www.w3.org/1999/xlink">
<g id="graph0" class="graph" transform="scale(1 1) rotate(0) translate(4 361.75)">
<title>TTL_export_double_const_long_tensor_buffering_t</title>
<!-- Node1 -->
<g id="Node000001" class="node">
<title>Node1</title>
<g id="a_Node000001"><a xlink:title="Data required to perform double buffer pipelining.">
<polygon fill="#999999" stroke="none" points="186.38,-106.75 65.88,-106.75 65.88,0 186.38,0 186.38,-106.75"/>
<text text-anchor="start" x="69.88" y="-93.25" font-family="Helvetica,sans-Serif" font-size="10.00">TTL_export_double_const</text>
<text text-anchor="start" x="73.25" y="-82" font-family="Helvetica,sans-Serif" font-size="10.00">_long_tensor_buffering_t</text>
<text text-anchor="start" x="86.12" y="-66.75" font-family="Helvetica,sans-Serif" font-size="10.00">+</text>
<text text-anchor="start" x="112.38" y="-66.75" font-family="Helvetica,sans-Serif" font-size="10.00">index</text>
<text text-anchor="start" x="86.12" y="-51.5" font-family="Helvetica,sans-Serif" font-size="10.00">+</text>
<text text-anchor="start" x="112.38" y="-51.5" font-family="Helvetica,sans-Serif" font-size="10.00">int_base</text>
<text text-anchor="start" x="86.12" y="-36.25" font-family="Helvetica,sans-Serif" font-size="10.00">+</text>
<text text-anchor="start" x="112.38" y="-36.25" font-family="Helvetica,sans-Serif" font-size="10.00">common</text>
<text text-anchor="start" x="86.12" y="-21" font-family="Helvetica,sans-Serif" font-size="10.00">+</text>
<text text-anchor="start" x="112.38" y="-21" font-family="Helvetica,sans-Serif" font-size="10.00">event</text>
<text text-anchor="start" x="124.62" y="-5.75" font-family="Helvetica,sans-Serif" font-size="10.00"> </text>
<polygon fill="#666666" stroke="#666666" points="65.88,-78.25 65.88,-78.25 186.38,-78.25 186.38,-78.25 65.88,-78.25"/>
<polygon fill="#666666" stroke="#666666" points="65.88,-17.25 65.88,-17.25 110.38,-17.25 110.38,-17.25 65.88,-17.25"/>
<polygon fill="#666666" stroke="#666666" points="110.38,-17.25 110.38,-17.25 186.38,-17.25 186.38,-17.25 110.38,-17.25"/>
<polygon fill="none" stroke="#666666" points="65.88,0 65.88,-106.75 186.38,-106.75 186.38,0 65.88,0"/>
</a>
</g>
</g>
<!-- Node2 -->
<g id="Node000002" class="node">
<title>Node2</title>
<g id="a_Node000002"><a xlink:href="structTTL__ext__long__tensor__t.html" target="_top" xlink:title="const and non&#45;const tensors in the appropriate address space">
<polygon fill="white" stroke="none" points="132,-230.25 24.25,-230.25 24.25,-165.25 132,-165.25 132,-230.25"/>
<text text-anchor="start" x="28.25" y="-216.75" font-family="Helvetica,sans-Serif" font-size="10.00">TTL_ext_long_tensor_t</text>
<text text-anchor="start" x="39.81" y="-201.5" font-family="Helvetica,sans-Serif" font-size="10.00">+</text>
<text text-anchor="start" x="61.38" y="-201.5" font-family="Helvetica,sans-Serif" font-size="10.00">base</text>
<text text-anchor="start" x="39.81" y="-186.25" font-family="Helvetica,sans-Serif" font-size="10.00">+</text>
<text text-anchor="start" x="61.38" y="-186.25" font-family="Helvetica,sans-Serif" font-size="10.00">elem_size</text>
<text text-anchor="start" x="76.62" y="-171" font-family="Helvetica,sans-Serif" font-size="10.00"> </text>
<polygon fill="#666666" stroke="#666666" points="24.25,-213 24.25,-213 132,-213 132,-213 24.25,-213"/>
<polygon fill="#666666" stroke="#666666" points="24.25,-182.5 24.25,-182.5 59.38,-182.5 59.38,-182.5 24.25,-182.5"/>
<polygon fill="#666666" stroke="#666666" points="59.38,-182.5 59.38,-182.5 132,-182.5 132,-182.5 59.38,-182.5"/>
<polygon fill="none" stroke="#666666" points="24.25,-165.25 24.25,-230.25 132,-230.25 132,-165.25 24.25,-165.25"/>
</a>
</g>
</g>
<!-- Node2&#45;&gt;Node1 -->
<g id="edge1_Node000001_Node000002" class="edge">
<title>Node2&#45;&gt;Node1</title>
<g id="a_edge1_Node000001_Node000002"><a xlink:title=" ">
<path fill="none" stroke="#63b8ff" d="M76.64,-165.3C76.88,-152.47 78.28,-137.64 82.38,-124.75 83.08,-122.53 83.87,-120.31 84.73,-118.1"/>
<polygon fill="none" stroke="#63b8ff" points="84.69,-118.2 83.48,-111.09 89.58,-107.24 90.79,-114.35 84.69,-118.2"/>
</a>
</g>
<text text-anchor="middle" x="117.25" y="-137.75" font-family="Helvetica,sans-Serif" font-size="10.00" fill="grey"> +ext_tensor_in</text>
<text text-anchor="middle" x="117.25" y="-126.5" font-family="Helvetica,sans-Serif" font-size="10.00" fill="grey">+ext_tensor_out</text>
</g>
<!-- Node3 -->
<g id="Node000003" class="node">
<title>Node3</title>
<g id="a_Node000003"><a xlink:href="structTTL__layout__t.html" target="_top" xlink:title="Description of a Tensor layout in memory.">
<polygon fill="white" stroke="none" points="80.25,-350.12 0,-350.12 0,-285.12 80.25,-285.12 80.25,-350.12"/>
<text text-anchor="start" x="11.62" y="-336.62" font-family="Helvetica,sans-Serif" font-size="10.00">TTL_layout_t</text>
<text text-anchor="start" x="4" y="-321.38" font-family="Helvetica,sans-Serif" font-size="10.00">+</text>
<text text-anchor="start" x="14" y="-321.38" font-family="Helvetica,sans-Serif" font-size="10.00">row_spacing</text>
<text text-anchor="start" x="4" y="-306.12" font-family="Helvetica,sans-Serif" font-size="10.00">+</text>
<text text-anchor="start" x="14" y="-306.12" font-family="Helvetica,sans-Serif" font-size="10.00">plane_spacing</text>
<text text-anchor="start" x="38.62" y="-290.88" font-family="Helvetica,sans-Serif" font-size="10.00"> </text>
<polygon fill="#666666" stroke="#666666" points="0,-332.88 0,-332.88 80.25,-332.88 80.25,-332.88 0,-332.88"/>
<polygon fill="#666666" stroke="#666666" points="0,-302.38 0,-302.38 12,-302.38 12,-302.38 0,-302.38"/>
<polygon fill="#666666" stroke="#666666" points="12,-302.38 12,-302.38 80.25,-302.38 80.25,-302.38 12,-302.38"/>
<polygon fill="none" stroke="#666666" points="0,-285.12 0,-350.12 80.25,-350.12 80.25,-285.12 0,-285.12"/>
</a>
</g>
</g>
<!-- Node3&#45;&gt;Node2 -->
<g id="edge2_Node000002_Node000003" class="edge">
<title>Node3&#45;&gt;Node2</title>
<g id="a_edge2_Node000002_Node000003"><a xlink:title=" ">
<path fill="none" stroke="#63b8ff" d="M37.34,-285.3C37.26,-273.42 38.38,-259.94 42.38,-248.25 43.14,-246.01 44.04,-243.79 45.05,-241.6"/>
<polygon fill="none" stroke="#63b8ff" points="45.09,-241.53 44.48,-234.35 50.88,-231.02 51.49,-238.21 45.09,-241.53"/>
</a>
</g>
<text text-anchor="middle" x="59.25" y="-250" font-family="Helvetica,sans-Serif" font-size="10.00" fill="grey"> +layout</text>
</g>
<!-- Node4 -->
<g id="Node000004" class="node">
<title>Node4</title>
<g id="a_Node000004"><a xlink:href="structTTL__shape__t.html" target="_top" xlink:title="Description of a Shape.">
<polygon fill="white" stroke="none" points="164,-357.75 98.25,-357.75 98.25,-277.5 164,-277.5 164,-357.75"/>
<text text-anchor="start" x="102.25" y="-344.25" font-family="Helvetica,sans-Serif" font-size="10.00">TTL_shape_t</text>
<text text-anchor="start" x="107.62" y="-329" font-family="Helvetica,sans-Serif" font-size="10.00">+</text>
<text text-anchor="start" x="123" y="-329" font-family="Helvetica,sans-Serif" font-size="10.00">width</text>
<text text-anchor="start" x="107.62" y="-313.75" font-family="Helvetica,sans-Serif" font-size="10.00">+</text>
<text text-anchor="start" x="123" y="-313.75" font-family="Helvetica,sans-Serif" font-size="10.00">height</text>
<text text-anchor="start" x="107.62" y="-298.5" font-family="Helvetica,sans-Serif" font-size="10.00">+</text>
<text text-anchor="start" x="123" y="-298.5" font-family="Helvetica,sans-Serif" font-size="10.00">depth</text>
<text text-anchor="start" x="129.62" y="-283.25" font-family="Helvetica,sans-Serif" font-size="10.00"> </text>
<polygon fill="#666666" stroke="#666666" points="98.25,-340.5 98.25,-340.5 164,-340.5 164,-340.5 98.25,-340.5"/>
<polygon fill="#666666" stroke="#666666" points="98.25,-294.75 98.25,-294.75 121,-294.75 121,-294.75 98.25,-294.75"/>
<polygon fill="#666666" stroke="#666666" points="121,-294.75 121,-294.75 164,-294.75 164,-294.75 121,-294.75"/>
<polygon fill="none" stroke="#666666" points="98.25,-277.5 98.25,-357.75 164,-357.75 164,-277.5 98.25,-277.5"/>
</a>
</g>
</g>
<!-- Node4&#45;&gt;Node2 -->
<g id="edge3_Node000002_Node000004" class="edge">
<title>Node4&#45;&gt;Node2</title>
<g id="a_edge3_Node000002_Node000004"><a xlink:title=" ">
<path fill="none" stroke="#63b8ff" d="M113.62,-277.7C108.48,-266.25 102.82,-253.66 97.56,-241.97"/>
<polygon fill="none" stroke="#63b8ff" points="97.55,-241.95 91.44,-238.12 92.63,-231 98.74,-234.84 97.55,-241.95"/>
</a>
</g>
<text text-anchor="middle" x="121.88" y="-250" font-family="Helvetica,sans-Serif" font-size="10.00" fill="grey"> +shape</text>
</g>
<!-- Node5 -->
<g id="Node000005" class="node">
<title>Node5</title>
<g id="a_Node000005"><a xlink:href="structTTL__tile__t.html" target="_top" xlink:title=" ">
<polygon fill="white" stroke="none" points="202.25,-222.62 150,-222.62 150,-172.88 202.25,-172.88 202.25,-222.62"/>
<text text-anchor="start" x="154" y="-209.12" font-family="Helvetica,sans-Serif" font-size="10.00">TTL_tile_t</text>
<text text-anchor="start" x="174.62" y="-193.88" font-family="Helvetica,sans-Serif" font-size="10.00"> </text>
<text text-anchor="start" x="174.62" y="-178.62" font-family="Helvetica,sans-Serif" font-size="10.00"> </text>
<polygon fill="#666666" stroke="#666666" points="150,-205.38 150,-205.38 202.25,-205.38 202.25,-205.38 150,-205.38"/>
<polygon fill="#666666" stroke="#666666" points="150,-190.12 150,-190.12 202.25,-190.12 202.25,-190.12 150,-190.12"/>
<polygon fill="none" stroke="#666666" points="150,-172.88 150,-222.62 202.25,-222.62 202.25,-172.88 150,-172.88"/>
</a>
</g>
</g>
<!-- Node4&#45;&gt;Node5 -->
<g id="edge5_Node000005_Node000004" class="edge">
<title>Node4&#45;&gt;Node5</title>
<g id="a_edge5_Node000005_Node000004"><a xlink:title=" ">
<path fill="none" stroke="#63b8ff" d="M143.13,-277.67C146.34,-267.99 149.94,-257.68 153.62,-248.25 155.47,-243.54 157.52,-238.63 159.62,-233.81"/>
<polygon fill="none" stroke="#63b8ff" points="159.55,-233.96 158.36,-226.85 164.47,-223.02 165.66,-230.13 159.55,-233.96"/>
</a>
</g>
<text text-anchor="middle" x="170.88" y="-250" font-family="Helvetica,sans-Serif" font-size="10.00" fill="grey"> +shape</text>
</g>
<!-- Node5&#45;&gt;Node1 -->
<g id="edge4_Node000001_Node000005" class="edge">
<title>Node5&#45;&gt;Node1</title>
<g id="a_edge4_Node000001_Node000005"><a xlink:title=" ">
<path fill="none" stroke="#63b8ff" d="M168.42,-173.01C163.81,-158.94 157.76,-140.79 152.12,-124.75 151.41,-122.72 150.68,-120.66 149.94,-118.59"/>
<polygon fill="none" stroke="#63b8ff" points="149.99,-118.71 144.19,-114.42 145.93,-107.42 151.72,-111.71 149.99,-118.71"/>
</a>
</g>
<text text-anchor="middle" x="182.09" y="-132.12" font-family="Helvetica,sans-Serif" font-size="10.00" fill="grey"> +prev_tile</text>
</g>
<!-- Node6 -->
<g id="Node000006" class="node">
<title>Node6</title>
<g id="a_Node000006"><a xlink:href="structTTL__offset__t.html" target="_top" xlink:title="Description of the 3D offset of an object.">
<polygon fill="white" stroke="none" points="245.88,-357.75 182.38,-357.75 182.38,-277.5 245.88,-277.5 245.88,-357.75"/>
<text text-anchor="start" x="186.38" y="-344.25" font-family="Helvetica,sans-Serif" font-size="10.00">TTL_offset_t</text>
<text text-anchor="start" x="196.62" y="-329" font-family="Helvetica,sans-Serif" font-size="10.00">+</text>
<text text-anchor="start" x="216.88" y="-329" font-family="Helvetica,sans-Serif" font-size="10.00">x</text>
<text text-anchor="start" x="196.62" y="-313.75" font-family="Helvetica,sans-Serif" font-size="10.00">+</text>
<text text-anchor="start" x="216.88" y="-313.75" font-family="Helvetica,sans-Serif" font-size="10.00">y</text>
<text text-anchor="start" x="196.62" y="-298.5" font-family="Helvetica,sans-Serif" font-size="10.00">+</text>
<text text-anchor="start" x="216.88" y="-298.5" font-family="Helvetica,sans-Serif" font-size="10.00">z</text>
<text text-anchor="start" x="212.62" y="-283.25" font-family="Helvetica,sans-Serif" font-size="10.00"> </text>
<polygon fill="#666666" stroke="#666666" points="182.38,-340.5 182.38,-340.5 245.88,-340.5 245.88,-340.5 182.38,-340.5"/>
<polygon fill="#666666" stroke="#666666" points="182.38,-294.75 182.38,-294.75 214.88,-294.75 214.88,-294.75 182.38,-294.75"/>
<polygon fill="#666666" stroke="#666666" points="214.88,-294.75 214.88,-294.75 245.88,-294.75 245.88,-294.75 214.88,-294.75"/>
<polygon fill="none" stroke="#666666" points="182.38,-277.5 182.38,-357.75 245.88,-357.75 245.88,-277.5 182.38,-277.5"/>
</a>
</g>
</g>
<!-- Node6&#45;&gt;Node5 -->
<g id="edge6_Node000005_Node000006" class="edge">
<title>Node6&#45;&gt;Node5</title>
<g id="a_edge6_Node000005_Node000006"><a xlink:title=" ">
<path fill="none" stroke="#63b8ff" d="M201.57,-277.57C198.48,-267.98 195.19,-257.74 192.12,-248.25 190.72,-243.91 189.25,-239.35 187.79,-234.83"/>
<polygon fill="none" stroke="#63b8ff" points="187.75,-234.69 182.1,-230.21 184.06,-223.27 189.71,-227.75 187.75,-234.69"/>
</a>
</g>
<text text-anchor="middle" x="211.86" y="-250" font-family="Helvetica,sans-Serif" font-size="10.00" fill="grey"> +offset</text>
</g>
</g>
</svg>
