<?xml version="1.0" encoding="UTF-8" standalone="no"?>
<!DOCTYPE svg PUBLIC "-//W3C//DTD SVG 1.1//EN"
 "http://www.w3.org/Graphics/SVG/1.1/DTD/svg11.dtd">
<!-- Generated by graphviz version 12.2.1 (20241206.2353)
 -->
<!-- Title: TTL_ext_void_tensor_t Pages: 1 -->
<svg width="172pt" height="201pt"
 viewBox="0.00 0.00 172.00 200.50" xmlns="http://www.w3.org/2000/svg" xmlns:xlink="http://www.w3.org/1999/xlink">
<g id="graph0" class="graph" transform="scale(1 1) rotate(0) translate(4 196.5)">
<title>TTL_ext_void_tensor_t</title>
<!-- Node1 -->
<g id="Node000001" class="node">
<title>Node1</title>
<g id="a_Node000001"><a xlink:title="const and non&#45;const tensors in the appropriate address space">
<polygon fill="#999999" stroke="none" points="139,-65 31.25,-65 31.25,0 139,0 139,-65"/>
<text text-anchor="start" x="35.25" y="-51.5" font-family="Helvetica,sans-Serif" font-size="10.00">TTL_ext_void_tensor_t</text>
<text text-anchor="start" x="46.81" y="-36.25" font-family="Helvetica,sans-Serif" font-size="10.00">+</text>
<text text-anchor="start" x="68.38" y="-36.25" font-family="Helvetica,sans-Serif" font-size="10.00">base</text>
<text text-anchor="start" x="46.81" y="-21" font-family="Helvetica,sans-Serif" font-size="10.00">+</text>
<text text-anchor="start" x="68.38" y="-21" font-family="Helvetica,sans-Serif" font-size="10.00">elem_size</text>
<text text-anchor="start" x="83.62" y="-5.75" font-family="Helvetica,sans-Serif" font-size="10.00"> </text>
<polygon fill="#666666" stroke="#666666" points="31.25,-47.75 31.25,-47.75 139,-47.75 139,-47.75 31.25,-47.75"/>
<polygon fill="#666666" stroke="#666666" points="31.25,-17.25 31.25,-17.25 66.38,-17.25 66.38,-17.25 31.25,-17.25"/>
<polygon fill="#666666" stroke="#666666" points="66.38,-17.25 66.38,-17.25 139,-17.25 139,-17.25 66.38,-17.25"/>
<polygon fill="none" stroke="#666666" points="31.25,0 31.25,-65 139,-65 139,0 31.25,0"/>
</a>
</g>
</g>
<!-- Node2 -->
<g id="Node000002" class="node">
<title>Node2</title>
<g id="a_Node000002"><a xlink:href="structTTL__layout__t.html" target="_top" xlink:title="Description of a Tensor layout in memory.">
<polygon fill="white" stroke="none" points="80.25,-184.88 0,-184.88 0,-119.88 80.25,-119.88 80.25,-184.88"/>
<text text-anchor="start" x="11.62" y="-171.38" font-family="Helvetica,sans-Serif" font-size="10.00">TTL_layout_t</text>
<text text-anchor="start" x="4" y="-156.12" font-family="Helvetica,sans-Serif" font-size="10.00">+</text>
<text text-anchor="start" x="14" y="-156.12" font-family="Helvetica,sans-Serif" font-size="10.00">row_spacing</text>
<text text-anchor="start" x="4" y="-140.88" font-family="Helvetica,sans-Serif" font-size="10.00">+</text>
<text text-anchor="start" x="14" y="-140.88" font-family="Helvetica,sans-Serif" font-size="10.00">plane_spacing</text>
<text text-anchor="start" x="38.62" y="-125.62" font-family="Helvetica,sans-Serif" font-size="10.00"> </text>
<polygon fill="#666666" stroke="#666666" points="0,-167.62 0,-167.62 80.25,-167.62 80.25,-167.62 0,-167.62"/>
<polygon fill="#666666" stroke="#666666" points="0,-137.12 0,-137.12 12,-137.12 12,-137.12 0,-137.12"/>
<polygon fill="#666666" stroke="#666666" points="12,-137.12 12,-137.12 80.25,-137.12 80.25,-137.12 12,-137.12"/>
<polygon fill="none" stroke="#666666" points="0,-119.88 0,-184.88 80.25,-184.88 80.25,-119.88 0,-119.88"/>
</a>
</g>
</g>
<!-- Node2&#45;&gt;Node1 -->
<g id="edge1_Node000001_Node000002" class="edge">
<title>Node2&#45;&gt;Node1</title>
<g id="a_edge1_Node000001_Node000002"><a xlink:title=" ">
<path fill="none" stroke="#63b8ff" d="M52.07,-120.1C57.1,-106.91 63.05,-91.33 68.5,-77.05"/>
<polygon fill="none" stroke="#63b8ff" points="68.53,-76.98 66.93,-69.95 72.81,-65.77 74.4,-72.8 68.53,-76.98"/>
</a>
</g>
<text text-anchor="middle" x="82.19" y="-84.75" font-family="Helvetica,sans-Serif" font-size="10.00" fill="grey"> +layout</text>
</g>
<!-- Node3 -->
<g id="Node000003" class="node">
<title>Node3</title>
<g id="a_Node000003"><a xlink:href="structTTL__shape__t.html" target="_top" xlink:title="Description of a Shape.">
<polygon fill="white" stroke="none" points="164,-192.5 98.25,-192.5 98.25,-112.25 164,-112.25 164,-192.5"/>
<text text-anchor="start" x="102.25" y="-179" font-family="Helvetica,sans-Serif" font-size="10.00">TTL_shape_t</text>
<text text-anchor="start" x="107.62" y="-163.75" font-family="Helvetica,sans-Serif" font-size="10.00">+</text>
<text text-anchor="start" x="123" y="-163.75" font-family="Helvetica,sans-Serif" font-size="10.00">width</text>
<text text-anchor="start" x="107.62" y="-148.5" font-family="Helvetica,sans-Serif" font-size="10.00">+</text>
<text text-anchor="start" x="123" y="-148.5" font-family="Helvetica,sans-Serif" font-size="10.00">height</text>
<text text-anchor="start" x="107.62" y="-133.25" font-family="Helvetica,sans-Serif" font-size="10.00">+</text>
<text text-anchor="start" x="123" y="-133.25" font-family="Helvetica,sans-Serif" font-size="10.00">depth</text>
<text text-anchor="start" x="129.62" y="-118" font-family="Helvetica,sans-Serif" font-size="10.00"> </text>
<polygon fill="#666666" stroke="#666666" points="98.25,-175.25 98.25,-175.25 164,-175.25 164,-175.25 98.25,-175.25"/>
<polygon fill="#666666" stroke="#666666" points="98.25,-129.5 98.25,-129.5 121,-129.5 121,-129.5 98.25,-129.5"/>
<polygon fill="#666666" stroke="#666666" points="121,-129.5 121,-129.5 164,-129.5 164,-129.5 121,-129.5"/>
<polygon fill="none" stroke="#666666" points="98.25,-112.25 98.25,-192.5 164,-192.5 164,-112.25 98.25,-112.25"/>
</a>
</g>
</g>
<!-- Node3&#45;&gt;Node1 -->
<g id="edge2_Node000001_Node000003" class="edge">
<title>Node3&#45;&gt;Node1</title>
<g id="a_edge2_Node000001_Node000003"><a xlink:title=" ">
<path fill="none" stroke="#63b8ff" d="M115.94,-112.45C111.52,-101.12 106.66,-88.68 102.13,-77.09"/>
<polygon fill="none" stroke="#63b8ff" points="102.08,-76.95 96.17,-72.82 97.72,-65.77 103.63,-69.91 102.08,-76.95"/>
</a>
</g>
<text text-anchor="middle" x="125.38" y="-84.75" font-family="Helvetica,sans-Serif" font-size="10.00" fill="grey"> +shape</text>
</g>
</g>
</svg>
