<?xml version="1.0" encoding="UTF-8" standalone="no"?>
<!DOCTYPE svg PUBLIC "-//W3C//DTD SVG 1.1//EN"
 "http://www.w3.org/Graphics/SVG/1.1/DTD/svg11.dtd">
<!-- Generated by graphviz version 12.2.1 (20241206.2353)
 -->
<!-- Title: TTL_duplex_const_long_tensor_buffering_t Pages: 1 -->
<svg width="236pt" height="404pt"
 viewBox="0.00 0.00 235.52 403.50" xmlns="http://www.w3.org/2000/svg" xmlns:xlink="http://www.w3.org/1999/xlink">
<g id="graph0" class="graph" transform="scale(1 1) rotate(0) translate(4 399.5)">
<title>TTL_duplex_const_long_tensor_buffering_t</title>
<!-- Node1 -->
<g id="Node000001" class="node">
<title>Node1</title>
<g id="a_Node000001"><a xlink:title="Data required to perform duplex buffer pipelining.">
<polygon fill="#999999" stroke="none" points="168.62,-122 57.12,-122 57.12,0 168.62,0 168.62,-122"/>
<text text-anchor="start" x="61.12" y="-108.5" font-family="Helvetica,sans-Serif" font-size="10.00">TTL_duplex_const_long</text>
<text text-anchor="start" x="71.62" y="-97.25" font-family="Helvetica,sans-Serif" font-size="10.00">_tensor_buffering_t</text>
<text text-anchor="start" x="65.75" y="-82" font-family="Helvetica,sans-Serif" font-size="10.00">+</text>
<text text-anchor="start" x="80.38" y="-82" font-family="Helvetica,sans-Serif" font-size="10.00">index</text>
<text text-anchor="start" x="65.75" y="-66.75" font-family="Helvetica,sans-Serif" font-size="10.00">+</text>
<text text-anchor="start" x="80.38" y="-66.75" font-family="Helvetica,sans-Serif" font-size="10.00">int_base</text>
<text text-anchor="start" x="65.75" y="-51.5" font-family="Helvetica,sans-Serif" font-size="10.00">+</text>
<text text-anchor="start" x="80.38" y="-51.5" font-family="Helvetica,sans-Serif" font-size="10.00">common</text>
<text text-anchor="start" x="65.75" y="-36.25" font-family="Helvetica,sans-Serif" font-size="10.00">+</text>
<text text-anchor="start" x="80.38" y="-36.25" font-family="Helvetica,sans-Serif" font-size="10.00">events</text>
<text text-anchor="start" x="65.75" y="-21" font-family="Helvetica,sans-Serif" font-size="10.00">+</text>
<text text-anchor="start" x="80.38" y="-21" font-family="Helvetica,sans-Serif" font-size="10.00">prev_out_tensors</text>
<text text-anchor="start" x="111.38" y="-5.75" font-family="Helvetica,sans-Serif" font-size="10.00"> </text>
<polygon fill="#666666" stroke="#666666" points="57.12,-93.5 57.12,-93.5 168.62,-93.5 168.62,-93.5 57.12,-93.5"/>
<polygon fill="#666666" stroke="#666666" points="57.12,-17.25 57.12,-17.25 78.38,-17.25 78.38,-17.25 57.12,-17.25"/>
<polygon fill="#666666" stroke="#666666" points="78.38,-17.25 78.38,-17.25 168.62,-17.25 168.62,-17.25 78.38,-17.25"/>
<polygon fill="none" stroke="#666666" points="57.12,0 57.12,-122 168.62,-122 168.62,0 57.12,0"/>
</a>
</g>
</g>
<!-- Node2 -->
<g id="Node000002" class="node">
<title>Node2</title>
<g id="a_Node000002"><a xlink:href="structTTL__ext__long__tensor__t.html" target="_top" xlink:title="const and non&#45;const tensors in the appropriate address space">
<polygon fill="white" stroke="none" points="107.75,-262.38 0,-262.38 0,-197.38 107.75,-197.38 107.75,-262.38"/>
<text text-anchor="start" x="4" y="-248.88" font-family="Helvetica,sans-Serif" font-size="10.00">TTL_ext_long_tensor_t</text>
<text text-anchor="start" x="15.56" y="-233.62" font-family="Helvetica,sans-Serif" font-size="10.00">+</text>
<text text-anchor="start" x="37.12" y="-233.62" font-family="Helvetica,sans-Serif" font-size="10.00">base</text>
<text text-anchor="start" x="15.56" y="-218.38" font-family="Helvetica,sans-Serif" font-size="10.00">+</text>
<text text-anchor="start" x="37.12" y="-218.38" font-family="Helvetica,sans-Serif" font-size="10.00">elem_size</text>
<text text-anchor="start" x="52.38" y="-203.12" font-family="Helvetica,sans-Serif" font-size="10.00"> </text>
<polygon fill="#666666" stroke="#666666" points="0,-245.12 0,-245.12 107.75,-245.12 107.75,-245.12 0,-245.12"/>
<polygon fill="#666666" stroke="#666666" points="0,-214.62 0,-214.62 35.12,-214.62 35.12,-214.62 0,-214.62"/>
<polygon fill="#666666" stroke="#666666" points="35.12,-214.62 35.12,-214.62 107.75,-214.62 107.75,-214.62 35.12,-214.62"/>
<polygon fill="none" stroke="#666666" points="0,-197.38 0,-262.38 107.75,-262.38 107.75,-197.38 0,-197.38"/>
</a>
</g>
</g>
<!-- Node2&#45;&gt;Node1 -->
<g id="edge1_Node000001_Node000002" class="edge">
<title>Node2&#45;&gt;Node1</title>
<g id="a_edge1_Node000001_Node000002"><a xlink:title=" ">
<path fill="none" stroke="#63b8ff" d="M59.14,-197.51C62.5,-180.26 67.48,-158.63 74.12,-140 74.86,-137.94 75.63,-135.87 76.44,-133.79"/>
<polygon fill="none" stroke="#63b8ff" points="76.45,-133.77 75.05,-126.7 81.04,-122.68 82.44,-129.76 76.45,-133.77"/>
</a>
</g>
<text text-anchor="middle" x="109" y="-164.25" font-family="Helvetica,sans-Serif" font-size="10.00" fill="grey"> +ext_tensor_in</text>
<text text-anchor="middle" x="109" y="-153" font-family="Helvetica,sans-Serif" font-size="10.00" fill="grey">+ext_tensor_out</text>
<text text-anchor="middle" x="109" y="-141.75" font-family="Helvetica,sans-Serif" font-size="10.00" fill="grey">+to_export_to</text>
</g>
<!-- Node3 -->
<g id="Node000003" class="node">
<title>Node3</title>
<g id="a_Node000003"><a xlink:href="structTTL__layout__t.html" target="_top" xlink:title="Description of a Tensor layout in memory.">
<polygon fill="white" stroke="none" points="102,-387.88 21.75,-387.88 21.75,-322.88 102,-322.88 102,-387.88"/>
<text text-anchor="start" x="33.38" y="-374.38" font-family="Helvetica,sans-Serif" font-size="10.00">TTL_layout_t</text>
<text text-anchor="start" x="25.75" y="-359.12" font-family="Helvetica,sans-Serif" font-size="10.00">+</text>
<text text-anchor="start" x="35.75" y="-359.12" font-family="Helvetica,sans-Serif" font-size="10.00">row_spacing</text>
<text text-anchor="start" x="25.75" y="-343.88" font-family="Helvetica,sans-Serif" font-size="10.00">+</text>
<text text-anchor="start" x="35.75" y="-343.88" font-family="Helvetica,sans-Serif" font-size="10.00">plane_spacing</text>
<text text-anchor="start" x="60.38" y="-328.62" font-family="Helvetica,sans-Serif" font-size="10.00"> </text>
<polygon fill="#666666" stroke="#666666" points="21.75,-370.62 21.75,-370.62 102,-370.62 102,-370.62 21.75,-370.62"/>
<polygon fill="#666666" stroke="#666666" points="21.75,-340.12 21.75,-340.12 33.75,-340.12 33.75,-340.12 21.75,-340.12"/>
<polygon fill="#666666" stroke="#666666" points="33.75,-340.12 33.75,-340.12 102,-340.12 102,-340.12 33.75,-340.12"/>
<polygon fill="none" stroke="#666666" points="21.75,-322.88 21.75,-387.88 102,-387.88 102,-322.88 21.75,-322.88"/>
</a>
</g>
</g>
<!-- Node3&#45;&gt;Node2 -->
<g id="edge2_Node000002_Node000003" class="edge">
<title>Node3&#45;&gt;Node2</title>
<g id="a_edge2_Node000002_Node000003"><a xlink:title=" ">
<path fill="none" stroke="#63b8ff" d="M40.06,-323.03C35.56,-314.98 31.48,-306.09 29.12,-297.25 27.14,-289.79 27.61,-282 29.46,-274.48"/>
<polygon fill="none" stroke="#63b8ff" points="29.49,-274.41 27.66,-267.43 33.39,-263.06 35.22,-270.03 29.49,-274.41"/>
</a>
</g>
<text text-anchor="middle" x="46" y="-287.75" font-family="Helvetica,sans-Serif" font-size="10.00" fill="grey"> +layout</text>
</g>
<!-- Node5 -->
<g id="Node000005" class="node">
<title>Node5</title>
<g id="a_Node000005"><a xlink:href="structTTL__const__int__long__tensor__t.html" target="_top" xlink:title=" ">
<polygon fill="white" stroke="none" points="220,-268 125.75,-268 125.75,-191.75 220,-191.75 220,-268"/>
<text text-anchor="start" x="129.75" y="-254.5" font-family="Helvetica,sans-Serif" font-size="10.00">TTL_const_int_long</text>
<text text-anchor="start" x="152.62" y="-243.25" font-family="Helvetica,sans-Serif" font-size="10.00">_tensor_t</text>
<text text-anchor="start" x="137.94" y="-228" font-family="Helvetica,sans-Serif" font-size="10.00">+</text>
<text text-anchor="start" x="156.12" y="-228" font-family="Helvetica,sans-Serif" font-size="10.00">base</text>
<text text-anchor="start" x="137.94" y="-212.75" font-family="Helvetica,sans-Serif" font-size="10.00">+</text>
<text text-anchor="start" x="156.12" y="-212.75" font-family="Helvetica,sans-Serif" font-size="10.00">elem_size</text>
<text text-anchor="start" x="171.38" y="-197.5" font-family="Helvetica,sans-Serif" font-size="10.00"> </text>
<polygon fill="#666666" stroke="#666666" points="125.75,-239.5 125.75,-239.5 220,-239.5 220,-239.5 125.75,-239.5"/>
<polygon fill="#666666" stroke="#666666" points="125.75,-209 125.75,-209 154.12,-209 154.12,-209 125.75,-209"/>
<polygon fill="#666666" stroke="#666666" points="154.12,-209 154.12,-209 220,-209 220,-209 154.12,-209"/>
<polygon fill="none" stroke="#666666" points="125.75,-191.75 125.75,-268 220,-268 220,-191.75 125.75,-191.75"/>
</a>
</g>
</g>
<!-- Node3&#45;&gt;Node5 -->
<g id="edge5_Node000005_Node000003" class="edge">
<title>Node3&#45;&gt;Node5</title>
<g id="a_edge5_Node000005_Node000003"><a xlink:title=" ">
<path fill="none" stroke="#63b8ff" d="M65.74,-322.92C68.58,-310.34 73.53,-296.4 82.12,-286 91.3,-274.89 98.83,-275.89 114.87,-268.39"/>
<polygon fill="none" stroke="#63b8ff" points="114.66,-268.5 118.08,-262.15 125.26,-262.87 121.84,-269.21 114.66,-268.5"/>
</a>
</g>
<text text-anchor="middle" x="99" y="-287.75" font-family="Helvetica,sans-Serif" font-size="10.00" fill="grey"> +layout</text>
</g>
<!-- Node4 -->
<g id="Node000004" class="node">
<title>Node4</title>
<g id="a_Node000004"><a xlink:href="structTTL__shape__t.html" target="_top" xlink:title="Description of a Shape.">
<polygon fill="white" stroke="none" points="196.75,-395.5 131,-395.5 131,-315.25 196.75,-315.25 196.75,-395.5"/>
<text text-anchor="start" x="135" y="-382" font-family="Helvetica,sans-Serif" font-size="10.00">TTL_shape_t</text>
<text text-anchor="start" x="140.38" y="-366.75" font-family="Helvetica,sans-Serif" font-size="10.00">+</text>
<text text-anchor="start" x="155.75" y="-366.75" font-family="Helvetica,sans-Serif" font-size="10.00">width</text>
<text text-anchor="start" x="140.38" y="-351.5" font-family="Helvetica,sans-Serif" font-size="10.00">+</text>
<text text-anchor="start" x="155.75" y="-351.5" font-family="Helvetica,sans-Serif" font-size="10.00">height</text>
<text text-anchor="start" x="140.38" y="-336.25" font-family="Helvetica,sans-Serif" font-size="10.00">+</text>
<text text-anchor="start" x="155.75" y="-336.25" font-family="Helvetica,sans-Serif" font-size="10.00">depth</text>
<text text-anchor="start" x="162.38" y="-321" font-family="Helvetica,sans-Serif" font-size="10.00"> </text>
<polygon fill="#666666" stroke="#666666" points="131,-378.25 131,-378.25 196.75,-378.25 196.75,-378.25 131,-378.25"/>
<polygon fill="#666666" stroke="#666666" points="131,-332.5 131,-332.5 153.75,-332.5 153.75,-332.5 131,-332.5"/>
<polygon fill="#666666" stroke="#666666" points="153.75,-332.5 153.75,-332.5 196.75,-332.5 196.75,-332.5 153.75,-332.5"/>
<polygon fill="none" stroke="#666666" points="131,-315.25 131,-395.5 196.75,-395.5 196.75,-315.25 131,-315.25"/>
</a>
</g>
</g>
<!-- Node4&#45;&gt;Node2 -->
<g id="edge3_Node000002_Node000004" class="edge">
<title>Node4&#45;&gt;Node2</title>
<g id="a_edge3_Node000002_Node000004"><a xlink:title=" ">
<path fill="none" stroke="#63b8ff" d="M141.61,-315.29C135.16,-305.31 127.72,-294.89 119.88,-286 115.3,-280.82 110.23,-275.72 104.99,-270.83"/>
<polygon fill="none" stroke="#63b8ff" points="105.05,-270.89 97.91,-269.87 96.1,-262.89 103.24,-263.9 105.05,-270.89"/>
</a>
</g>
<text text-anchor="middle" x="145.54" y="-287.75" font-family="Helvetica,sans-Serif" font-size="10.00" fill="grey"> +shape</text>
</g>
<!-- Node4&#45;&gt;Node5 -->
<g id="edge6_Node000005_Node000004" class="edge">
<title>Node4&#45;&gt;Node5</title>
<g id="a_edge6_Node000005_Node000004"><a xlink:title=" ">
<path fill="none" stroke="#63b8ff" d="M174.77,-315.27C176.06,-309.28 177.17,-303.13 177.88,-297.25 178.52,-291.89 178.77,-286.28 178.73,-280.69"/>
<polygon fill="none" stroke="#63b8ff" points="178.73,-280.69 174.5,-274.85 178.25,-268.7 182.49,-274.53 178.73,-280.69"/>
</a>
</g>
<text text-anchor="middle" x="195.91" y="-287.75" font-family="Helvetica,sans-Serif" font-size="10.00" fill="grey"> +shape</text>
</g>
<!-- Node5&#45;&gt;Node1 -->
<g id="edge4_Node000001_Node000005" class="edge">
<title>Node5&#45;&gt;Node1</title>
<g id="a_edge4_Node000001_Node000005"><a xlink:title=" ">
<path fill="none" stroke="#63b8ff" d="M161.4,-191.94C156.26,-175.9 150,-156.94 143.88,-140 143.14,-137.97 142.39,-135.92 141.63,-133.85"/>
<polygon fill="none" stroke="#63b8ff" points="141.67,-133.97 135.81,-129.77 137.44,-122.74 143.3,-126.95 141.67,-133.97"/>
</a>
</g>
<text text-anchor="middle" x="191.14" y="-153" font-family="Helvetica,sans-Serif" font-size="10.00" fill="grey"> +to_export_from</text>
</g>
</g>
</svg>
