<?xml version="1.0" encoding="UTF-8" standalone="no"?>
<!DOCTYPE svg PUBLIC "-//W3C//DTD SVG 1.1//EN"
 "http://www.w3.org/Graphics/SVG/1.1/DTD/svg11.dtd">
<!-- Generated by graphviz version 12.0.0 (20240704.0754)
 -->
<!-- Title: TTL_int_long_tensor_t Pages: 1 -->
<svg width="174pt" height="198pt"
 viewBox="0.00 0.00 173.50 198.25" xmlns="http://www.w3.org/2000/svg" xmlns:xlink="http://www.w3.org/1999/xlink">
<g id="graph0" class="graph" transform="scale(1 1) rotate(0) translate(4 194.25)">
<title>TTL_int_long_tensor_t</title>
<!-- Node1 -->
<g id="Node000001" class="node">
<title>Node1</title>
<g id="a_Node000001"><a xlink:title="const and non&#45;const tensors in the appropriate address space">
<polygon fill="#999999" stroke="none" points="139.5,-64 32.5,-64 32.5,0 139.5,0 139.5,-64"/>
<text text-anchor="start" x="37.25" y="-50.5" font-family="Helvetica,sans-Serif" font-size="10.00">TTL_int_long_tensor_t</text>
<text text-anchor="start" x="48" y="-35.5" font-family="Helvetica,sans-Serif" font-size="10.00">+</text>
<text text-anchor="start" x="69.5" y="-35.5" font-family="Helvetica,sans-Serif" font-size="10.00">base</text>
<text text-anchor="start" x="48" y="-20.5" font-family="Helvetica,sans-Serif" font-size="10.00">+</text>
<text text-anchor="start" x="69.5" y="-20.5" font-family="Helvetica,sans-Serif" font-size="10.00">elem_size</text>
<text text-anchor="start" x="84.5" y="-5.5" font-family="Helvetica,sans-Serif" font-size="10.00"> </text>
<polygon fill="#666666" stroke="#666666" points="32.5,-47 32.5,-47 139.5,-47 139.5,-47 32.5,-47"/>
<polygon fill="#666666" stroke="#666666" points="32.5,-17 32.5,-17 67.5,-17 67.5,-17 32.5,-17"/>
<polygon fill="#666666" stroke="#666666" points="67.5,-17 67.5,-17 139.5,-17 139.5,-17 67.5,-17"/>
<polygon fill="none" stroke="#666666" points="32.5,0 32.5,-64 139.5,-64 139.5,0 32.5,0"/>
</a>
</g>
</g>
<!-- Node2 -->
<g id="Node000002" class="node">
<title>Node2</title>
<g id="a_Node000002"><a xlink:href="structTTL__layout__t.html" target="_top" xlink:title="Description of a Tensor layout in memory.">
<polygon fill="white" stroke="none" points="80,-182.75 0,-182.75 0,-118.75 80,-118.75 80,-182.75"/>
<text text-anchor="start" x="11.5" y="-169.25" font-family="Helvetica,sans-Serif" font-size="10.00">TTL_layout_t</text>
<text text-anchor="start" x="4" y="-154.25" font-family="Helvetica,sans-Serif" font-size="10.00">+</text>
<text text-anchor="start" x="14" y="-154.25" font-family="Helvetica,sans-Serif" font-size="10.00">row_spacing</text>
<text text-anchor="start" x="4" y="-139.25" font-family="Helvetica,sans-Serif" font-size="10.00">+</text>
<text text-anchor="start" x="14" y="-139.25" font-family="Helvetica,sans-Serif" font-size="10.00">plane_spacing</text>
<text text-anchor="start" x="38.5" y="-124.25" font-family="Helvetica,sans-Serif" font-size="10.00"> </text>
<polygon fill="#666666" stroke="#666666" points="0,-165.75 0,-165.75 80,-165.75 80,-165.75 0,-165.75"/>
<polygon fill="#666666" stroke="#666666" points="0,-135.75 0,-135.75 12,-135.75 12,-135.75 0,-135.75"/>
<polygon fill="#666666" stroke="#666666" points="12,-135.75 12,-135.75 80,-135.75 80,-135.75 12,-135.75"/>
<polygon fill="none" stroke="#666666" points="0,-118.75 0,-182.75 80,-182.75 80,-118.75 0,-118.75"/>
</a>
</g>
</g>
<!-- Node2&#45;&gt;Node1 -->
<g id="edge1_Node000001_Node000002" class="edge">
<title>Node2&#45;&gt;Node1</title>
<g id="a_edge1_Node000001_Node000002"><a xlink:title=" ">
<path fill="none" stroke="#63b8ff" d="M52.21,-118.77C57.39,-105.6 63.53,-90.03 69.14,-75.79"/>
<polygon fill="none" stroke="#63b8ff" points="69.17,-75.72 67.64,-68.67 73.57,-64.56 75.09,-71.61 69.17,-75.72"/>
</a>
</g>
<text text-anchor="middle" x="82.88" y="-83.75" font-family="Helvetica,sans-Serif" font-size="10.00" fill="grey"> +layout</text>
</g>
<!-- Node3 -->
<g id="Node000003" class="node">
<title>Node3</title>
<g id="a_Node000003"><a xlink:href="structTTL__shape__t.html" target="_top" xlink:title="Description of a Shape.">
<polygon fill="white" stroke="none" points="165.5,-190.25 98.5,-190.25 98.5,-111.25 165.5,-111.25 165.5,-190.25"/>
<text text-anchor="start" x="103.12" y="-176.75" font-family="Helvetica,sans-Serif" font-size="10.00">TTL_shape_t</text>
<text text-anchor="start" x="108" y="-161.75" font-family="Helvetica,sans-Serif" font-size="10.00">+</text>
<text text-anchor="start" x="123.5" y="-161.75" font-family="Helvetica,sans-Serif" font-size="10.00">width</text>
<text text-anchor="start" x="108" y="-146.75" font-family="Helvetica,sans-Serif" font-size="10.00">+</text>
<text text-anchor="start" x="123.5" y="-146.75" font-family="Helvetica,sans-Serif" font-size="10.00">height</text>
<text text-anchor="start" x="108" y="-131.75" font-family="Helvetica,sans-Serif" font-size="10.00">+</text>
<text text-anchor="start" x="123.5" y="-131.75" font-family="Helvetica,sans-Serif" font-size="10.00">depth</text>
<text text-anchor="start" x="130.5" y="-116.75" font-family="Helvetica,sans-Serif" font-size="10.00"> </text>
<polygon fill="#666666" stroke="#666666" points="98.5,-173.25 98.5,-173.25 165.5,-173.25 165.5,-173.25 98.5,-173.25"/>
<polygon fill="#666666" stroke="#666666" points="98.5,-128.25 98.5,-128.25 121.5,-128.25 121.5,-128.25 98.5,-128.25"/>
<polygon fill="#666666" stroke="#666666" points="121.5,-128.25 121.5,-128.25 165.5,-128.25 165.5,-128.25 121.5,-128.25"/>
<polygon fill="none" stroke="#666666" points="98.5,-111.25 98.5,-190.25 165.5,-190.25 165.5,-111.25 98.5,-111.25"/>
</a>
</g>
</g>
<!-- Node3&#45;&gt;Node1 -->
<g id="edge2_Node000001_Node000003" class="edge">
<title>Node3&#45;&gt;Node1</title>
<g id="a_edge2_Node000001_Node000003"><a xlink:title=" ">
<path fill="none" stroke="#63b8ff" d="M116.94,-111.52C112.43,-100.07 107.45,-87.44 102.83,-75.72"/>
<polygon fill="none" stroke="#63b8ff" points="102.91,-75.93 96.99,-71.81 98.51,-64.76 104.44,-68.88 102.91,-75.93"/>
</a>
</g>
<text text-anchor="middle" x="126.25" y="-83.75" font-family="Helvetica,sans-Serif" font-size="10.00" fill="grey"> +shape</text>
</g>
</g>
</svg>
