<?xml version="1.0" encoding="UTF-8" standalone="no"?>
<!DOCTYPE svg PUBLIC "-//W3C//DTD SVG 1.1//EN"
 "http://www.w3.org/Graphics/SVG/1.1/DTD/svg11.dtd">
<!-- Generated by graphviz version 12.2.1 (20241206.2353)
 -->
<!-- Title: TTL_duplex_const_char_tensor_buffering_t Pages: 1 -->
<svg width="237pt" height="404pt"
 viewBox="0.00 0.00 236.99 403.50" xmlns="http://www.w3.org/2000/svg" xmlns:xlink="http://www.w3.org/1999/xlink">
<g id="graph0" class="graph" transform="scale(1 1) rotate(0) translate(4 399.5)">
<title>TTL_duplex_const_char_tensor_buffering_t</title>
<!-- Node1 -->
<g id="Node000001" class="node">
<title>Node1</title>
<g id="a_Node000001"><a xlink:title="Data required to perform duplex buffer pipelining.">
<polygon fill="#999999" stroke="none" points="169.38,-122 57.12,-122 57.12,0 169.38,0 169.38,-122"/>
<text text-anchor="start" x="61.12" y="-108.5" font-family="Helvetica,sans-Serif" font-size="10.00">TTL_duplex_const_char</text>
<text text-anchor="start" x="72" y="-97.25" font-family="Helvetica,sans-Serif" font-size="10.00">_tensor_buffering_t</text>
<text text-anchor="start" x="65.94" y="-82" font-family="Helvetica,sans-Serif" font-size="10.00">+</text>
<text text-anchor="start" x="80.75" y="-82" font-family="Helvetica,sans-Serif" font-size="10.00">index</text>
<text text-anchor="start" x="65.94" y="-66.75" font-family="Helvetica,sans-Serif" font-size="10.00">+</text>
<text text-anchor="start" x="80.75" y="-66.75" font-family="Helvetica,sans-Serif" font-size="10.00">int_base</text>
<text text-anchor="start" x="65.94" y="-51.5" font-family="Helvetica,sans-Serif" font-size="10.00">+</text>
<text text-anchor="start" x="80.75" y="-51.5" font-family="Helvetica,sans-Serif" font-size="10.00">common</text>
<text text-anchor="start" x="65.94" y="-36.25" font-family="Helvetica,sans-Serif" font-size="10.00">+</text>
<text text-anchor="start" x="80.75" y="-36.25" font-family="Helvetica,sans-Serif" font-size="10.00">events</text>
<text text-anchor="start" x="65.94" y="-21" font-family="Helvetica,sans-Serif" font-size="10.00">+</text>
<text text-anchor="start" x="80.75" y="-21" font-family="Helvetica,sans-Serif" font-size="10.00">prev_out_tensors</text>
<text text-anchor="start" x="111.75" y="-5.75" font-family="Helvetica,sans-Serif" font-size="10.00"> </text>
<polygon fill="#666666" stroke="#666666" points="57.12,-93.5 57.12,-93.5 169.38,-93.5 169.38,-93.5 57.12,-93.5"/>
<polygon fill="#666666" stroke="#666666" points="57.12,-17.25 57.12,-17.25 78.75,-17.25 78.75,-17.25 57.12,-17.25"/>
<polygon fill="#666666" stroke="#666666" points="78.75,-17.25 78.75,-17.25 169.38,-17.25 169.38,-17.25 78.75,-17.25"/>
<polygon fill="none" stroke="#666666" points="57.12,0 57.12,-122 169.38,-122 169.38,0 57.12,0"/>
</a>
</g>
</g>
<!-- Node2 -->
<g id="Node000002" class="node">
<title>Node2</title>
<g id="a_Node000002"><a xlink:href="structTTL__ext__char__tensor__t.html" target="_top" xlink:title="const and non&#45;const tensors in the appropriate address space">
<polygon fill="white" stroke="none" points="108.5,-262.38 0,-262.38 0,-197.38 108.5,-197.38 108.5,-262.38"/>
<text text-anchor="start" x="4" y="-248.88" font-family="Helvetica,sans-Serif" font-size="10.00">TTL_ext_char_tensor_t</text>
<text text-anchor="start" x="15.75" y="-233.62" font-family="Helvetica,sans-Serif" font-size="10.00">+</text>
<text text-anchor="start" x="37.5" y="-233.62" font-family="Helvetica,sans-Serif" font-size="10.00">base</text>
<text text-anchor="start" x="15.75" y="-218.38" font-family="Helvetica,sans-Serif" font-size="10.00">+</text>
<text text-anchor="start" x="37.5" y="-218.38" font-family="Helvetica,sans-Serif" font-size="10.00">elem_size</text>
<text text-anchor="start" x="52.75" y="-203.12" font-family="Helvetica,sans-Serif" font-size="10.00"> </text>
<polygon fill="#666666" stroke="#666666" points="0,-245.12 0,-245.12 108.5,-245.12 108.5,-245.12 0,-245.12"/>
<polygon fill="#666666" stroke="#666666" points="0,-214.62 0,-214.62 35.5,-214.62 35.5,-214.62 0,-214.62"/>
<polygon fill="#666666" stroke="#666666" points="35.5,-214.62 35.5,-214.62 108.5,-214.62 108.5,-214.62 35.5,-214.62"/>
<polygon fill="none" stroke="#666666" points="0,-197.38 0,-262.38 108.5,-262.38 108.5,-197.38 0,-197.38"/>
</a>
</g>
</g>
<!-- Node2&#45;&gt;Node1 -->
<g id="edge1_Node000001_Node000002" class="edge">
<title>Node2&#45;&gt;Node1</title>
<g id="a_edge1_Node000001_Node000002"><a xlink:title=" ">
<path fill="none" stroke="#63b8ff" d="M60.01,-197.55C63.61,-180.3 68.84,-158.68 75.5,-140 76.23,-137.95 77,-135.89 77.8,-133.82"/>
<polygon fill="none" stroke="#63b8ff" points="77.78,-133.86 76.35,-126.79 82.32,-122.75 83.76,-129.82 77.78,-133.86"/>
</a>
</g>
<text text-anchor="middle" x="110.38" y="-164.25" font-family="Helvetica,sans-Serif" font-size="10.00" fill="grey"> +ext_tensor_in</text>
<text text-anchor="middle" x="110.38" y="-153" font-family="Helvetica,sans-Serif" font-size="10.00" fill="grey">+ext_tensor_out</text>
<text text-anchor="middle" x="110.38" y="-141.75" font-family="Helvetica,sans-Serif" font-size="10.00" fill="grey">+to_export_to</text>
</g>
<!-- Node3 -->
<g id="Node000003" class="node">
<title>Node3</title>
<g id="a_Node000003"><a xlink:href="structTTL__layout__t.html" target="_top" xlink:title="Description of a Tensor layout in memory.">
<polygon fill="white" stroke="none" points="102.38,-387.88 22.12,-387.88 22.12,-322.88 102.38,-322.88 102.38,-387.88"/>
<text text-anchor="start" x="33.75" y="-374.38" font-family="Helvetica,sans-Serif" font-size="10.00">TTL_layout_t</text>
<text text-anchor="start" x="26.12" y="-359.12" font-family="Helvetica,sans-Serif" font-size="10.00">+</text>
<text text-anchor="start" x="36.12" y="-359.12" font-family="Helvetica,sans-Serif" font-size="10.00">row_spacing</text>
<text text-anchor="start" x="26.12" y="-343.88" font-family="Helvetica,sans-Serif" font-size="10.00">+</text>
<text text-anchor="start" x="36.12" y="-343.88" font-family="Helvetica,sans-Serif" font-size="10.00">plane_spacing</text>
<text text-anchor="start" x="60.75" y="-328.62" font-family="Helvetica,sans-Serif" font-size="10.00"> </text>
<polygon fill="#666666" stroke="#666666" points="22.12,-370.62 22.12,-370.62 102.38,-370.62 102.38,-370.62 22.12,-370.62"/>
<polygon fill="#666666" stroke="#666666" points="22.12,-340.12 22.12,-340.12 34.12,-340.12 34.12,-340.12 22.12,-340.12"/>
<polygon fill="#666666" stroke="#666666" points="34.12,-340.12 34.12,-340.12 102.38,-340.12 102.38,-340.12 34.12,-340.12"/>
<polygon fill="none" stroke="#666666" points="22.12,-322.88 22.12,-387.88 102.38,-387.88 102.38,-322.88 22.12,-322.88"/>
</a>
</g>
</g>
<!-- Node3&#45;&gt;Node2 -->
<g id="edge2_Node000002_Node000003" class="edge">
<title>Node3&#45;&gt;Node2</title>
<g id="a_edge2_Node000002_Node000003"><a xlink:title=" ">
<path fill="none" stroke="#63b8ff" d="M40.43,-323.03C35.93,-314.98 31.85,-306.09 29.5,-297.25 27.51,-289.79 27.99,-282 29.84,-274.48"/>
<polygon fill="none" stroke="#63b8ff" points="29.86,-274.41 28.03,-267.43 33.77,-263.06 35.6,-270.03 29.86,-274.41"/>
</a>
</g>
<text text-anchor="middle" x="46.38" y="-287.75" font-family="Helvetica,sans-Serif" font-size="10.00" fill="grey"> +layout</text>
</g>
<!-- Node5 -->
<g id="Node000005" class="node">
<title>Node5</title>
<g id="a_Node000005"><a xlink:href="structTTL__const__int__char__tensor__t.html" target="_top" xlink:title=" ">
<polygon fill="white" stroke="none" points="221.75,-268 126.75,-268 126.75,-191.75 221.75,-191.75 221.75,-268"/>
<text text-anchor="start" x="130.75" y="-254.5" font-family="Helvetica,sans-Serif" font-size="10.00">TTL_const_int_char</text>
<text text-anchor="start" x="154" y="-243.25" font-family="Helvetica,sans-Serif" font-size="10.00">_tensor_t</text>
<text text-anchor="start" x="139.12" y="-228" font-family="Helvetica,sans-Serif" font-size="10.00">+</text>
<text text-anchor="start" x="157.5" y="-228" font-family="Helvetica,sans-Serif" font-size="10.00">base</text>
<text text-anchor="start" x="139.12" y="-212.75" font-family="Helvetica,sans-Serif" font-size="10.00">+</text>
<text text-anchor="start" x="157.5" y="-212.75" font-family="Helvetica,sans-Serif" font-size="10.00">elem_size</text>
<text text-anchor="start" x="172.75" y="-197.5" font-family="Helvetica,sans-Serif" font-size="10.00"> </text>
<polygon fill="#666666" stroke="#666666" points="126.75,-239.5 126.75,-239.5 221.75,-239.5 221.75,-239.5 126.75,-239.5"/>
<polygon fill="#666666" stroke="#666666" points="126.75,-209 126.75,-209 155.5,-209 155.5,-209 126.75,-209"/>
<polygon fill="#666666" stroke="#666666" points="155.5,-209 155.5,-209 221.75,-209 221.75,-209 155.5,-209"/>
<polygon fill="none" stroke="#666666" points="126.75,-191.75 126.75,-268 221.75,-268 221.75,-191.75 126.75,-191.75"/>
</a>
</g>
</g>
<!-- Node3&#45;&gt;Node5 -->
<g id="edge5_Node000005_Node000003" class="edge">
<title>Node3&#45;&gt;Node5</title>
<g id="a_edge5_Node000005_Node000003"><a xlink:title=" ">
<path fill="none" stroke="#63b8ff" d="M66.11,-322.92C68.96,-310.34 73.91,-296.4 82.5,-286 91.67,-274.89 99.18,-275.84 115.49,-268.25"/>
<polygon fill="none" stroke="#63b8ff" points="115.48,-268.25 118.91,-261.91 126.09,-262.65 122.65,-268.99 115.48,-268.25"/>
</a>
</g>
<text text-anchor="middle" x="99.38" y="-287.75" font-family="Helvetica,sans-Serif" font-size="10.00" fill="grey"> +layout</text>
</g>
<!-- Node4 -->
<g id="Node000004" class="node">
<title>Node4</title>
<g id="a_Node000004"><a xlink:href="structTTL__shape__t.html" target="_top" xlink:title="Description of a Shape.">
<polygon fill="white" stroke="none" points="197.12,-395.5 131.38,-395.5 131.38,-315.25 197.12,-315.25 197.12,-395.5"/>
<text text-anchor="start" x="135.38" y="-382" font-family="Helvetica,sans-Serif" font-size="10.00">TTL_shape_t</text>
<text text-anchor="start" x="140.75" y="-366.75" font-family="Helvetica,sans-Serif" font-size="10.00">+</text>
<text text-anchor="start" x="156.12" y="-366.75" font-family="Helvetica,sans-Serif" font-size="10.00">width</text>
<text text-anchor="start" x="140.75" y="-351.5" font-family="Helvetica,sans-Serif" font-size="10.00">+</text>
<text text-anchor="start" x="156.12" y="-351.5" font-family="Helvetica,sans-Serif" font-size="10.00">height</text>
<text text-anchor="start" x="140.75" y="-336.25" font-family="Helvetica,sans-Serif" font-size="10.00">+</text>
<text text-anchor="start" x="156.12" y="-336.25" font-family="Helvetica,sans-Serif" font-size="10.00">depth</text>
<text text-anchor="start" x="162.75" y="-321" font-family="Helvetica,sans-Serif" font-size="10.00"> </text>
<polygon fill="#666666" stroke="#666666" points="131.38,-378.25 131.38,-378.25 197.12,-378.25 197.12,-378.25 131.38,-378.25"/>
<polygon fill="#666666" stroke="#666666" points="131.38,-332.5 131.38,-332.5 154.12,-332.5 154.12,-332.5 131.38,-332.5"/>
<polygon fill="#666666" stroke="#666666" points="154.12,-332.5 154.12,-332.5 197.12,-332.5 197.12,-332.5 154.12,-332.5"/>
<polygon fill="none" stroke="#666666" points="131.38,-315.25 131.38,-395.5 197.12,-395.5 197.12,-315.25 131.38,-315.25"/>
</a>
</g>
</g>
<!-- Node4&#45;&gt;Node2 -->
<g id="edge3_Node000002_Node000004" class="edge">
<title>Node4&#45;&gt;Node2</title>
<g id="a_edge3_Node000002_Node000004"><a xlink:title=" ">
<path fill="none" stroke="#63b8ff" d="M141.98,-315.29C135.53,-305.31 128.1,-294.89 120.25,-286 115.68,-280.82 110.61,-275.72 105.36,-270.83"/>
<polygon fill="none" stroke="#63b8ff" points="105.42,-270.89 98.29,-269.87 96.48,-262.89 103.62,-263.9 105.42,-270.89"/>
</a>
</g>
<text text-anchor="middle" x="145.92" y="-287.75" font-family="Helvetica,sans-Serif" font-size="10.00" fill="grey"> +shape</text>
</g>
<!-- Node4&#45;&gt;Node5 -->
<g id="edge6_Node000005_Node000004" class="edge">
<title>Node4&#45;&gt;Node5</title>
<g id="a_edge6_Node000005_Node000004"><a xlink:title=" ">
<path fill="none" stroke="#63b8ff" d="M175.15,-315.27C176.43,-309.28 177.54,-303.13 178.25,-297.25 178.9,-291.9 179.17,-286.29 179.2,-280.7"/>
<polygon fill="none" stroke="#63b8ff" points="179.2,-280.71 175.03,-274.82 178.86,-268.71 183.03,-274.6 179.2,-280.71"/>
</a>
</g>
<text text-anchor="middle" x="196.33" y="-287.75" font-family="Helvetica,sans-Serif" font-size="10.00" fill="grey"> +shape</text>
</g>
<!-- Node5&#45;&gt;Node1 -->
<g id="edge4_Node000001_Node000005" class="edge">
<title>Node5&#45;&gt;Node1</title>
<g id="a_edge4_Node000001_Node000005"><a xlink:title=" ">
<path fill="none" stroke="#63b8ff" d="M162.86,-191.91C157.75,-175.86 151.47,-156.91 145.25,-140 144.5,-137.97 143.74,-135.91 142.95,-133.84"/>
<polygon fill="none" stroke="#63b8ff" points="142.98,-133.91 137.09,-129.75 138.66,-122.71 144.55,-126.87 142.98,-133.91"/>
</a>
</g>
<text text-anchor="middle" x="192.61" y="-153" font-family="Helvetica,sans-Serif" font-size="10.00" fill="grey"> +to_export_from</text>
</g>
</g>
</svg>
