<?xml version="1.0" encoding="UTF-8" standalone="no"?>
<!DOCTYPE svg PUBLIC "-//W3C//DTD SVG 1.1//EN"
 "http://www.w3.org/Graphics/SVG/1.1/DTD/svg11.dtd">
<!-- Generated by graphviz version 12.2.1 (20241206.2353)
 -->
<!-- Title: TTL_export_double_const_int_tensor_buffering_t Pages: 1 -->
<svg width="254pt" height="366pt"
 viewBox="0.00 0.00 253.88 365.75" xmlns="http://www.w3.org/2000/svg" xmlns:xlink="http://www.w3.org/1999/xlink">
<g id="graph0" class="graph" transform="scale(1 1) rotate(0) translate(4 361.75)">
<title>TTL_export_double_const_int_tensor_buffering_t</title>
<!-- Node1 -->
<g id="Node000001" class="node">
<title>Node1</title>
<g id="a_Node000001"><a xlink:title="Data required to perform double buffer pipelining.">
<polygon fill="#999999" stroke="none" points="186.38,-106.75 65.88,-106.75 65.88,0 186.38,0 186.38,-106.75"/>
<text text-anchor="start" x="69.88" y="-93.25" font-family="Helvetica,sans-Serif" font-size="10.00">TTL_export_double_const</text>
<text text-anchor="start" x="77" y="-82" font-family="Helvetica,sans-Serif" font-size="10.00">_int_tensor_buffering_t</text>
<text text-anchor="start" x="86.12" y="-66.75" font-family="Helvetica,sans-Serif" font-size="10.00">+</text>
<text text-anchor="start" x="112.38" y="-66.75" font-family="Helvetica,sans-Serif" font-size="10.00">index</text>
<text text-anchor="start" x="86.12" y="-51.5" font-family="Helvetica,sans-Serif" font-size="10.00">+</text>
<text text-anchor="start" x="112.38" y="-51.5" font-family="Helvetica,sans-Serif" font-size="10.00">int_base</text>
<text text-anchor="start" x="86.12" y="-36.25" font-family="Helvetica,sans-Serif" font-size="10.00">+</text>
<text text-anchor="start" x="112.38" y="-36.25" font-family="Helvetica,sans-Serif" font-size="10.00">common</text>
<text text-anchor="start" x="86.12" y="-21" font-family="Helvetica,sans-Serif" font-size="10.00">+</text>
<text text-anchor="start" x="112.38" y="-21" font-family="Helvetica,sans-Serif" font-size="10.00">event</text>
<text text-anchor="start" x="124.62" y="-5.75" font-family="Helvetica,sans-Serif" font-size="10.00"> </text>
<polygon fill="#666666" stroke="#666666" points="65.88,-78.25 65.88,-78.25 186.38,-78.25 186.38,-78.25 65.88,-78.25"/>
<polygon fill="#666666" stroke="#666666" points="65.88,-17.25 65.88,-17.25 110.38,-17.25 110.38,-17.25 65.88,-17.25"/>
<polygon fill="#666666" stroke="#666666" points="110.38,-17.25 110.38,-17.25 186.38,-17.25 186.38,-17.25 110.38,-17.25"/>
<polygon fill="none" stroke="#666666" points="65.88,0 65.88,-106.75 186.38,-106.75 186.38,0 65.88,0"/>
</a>
</g>
</g>
<!-- Node2 -->
<g id="Node000002" class="node">
<title>Node2</title>
<g id="a_Node000002"><a xlink:href="structTTL__ext__int__tensor__t.html" target="_top" xlink:title="const and non&#45;const tensors in the appropriate address space">
<polygon fill="white" stroke="none" points="130.25,-230.25 30,-230.25 30,-165.25 130.25,-165.25 130.25,-230.25"/>
<text text-anchor="start" x="34" y="-216.75" font-family="Helvetica,sans-Serif" font-size="10.00">TTL_ext_int_tensor_t</text>
<text text-anchor="start" x="43.69" y="-201.5" font-family="Helvetica,sans-Serif" font-size="10.00">+</text>
<text text-anchor="start" x="63.38" y="-201.5" font-family="Helvetica,sans-Serif" font-size="10.00">base</text>
<text text-anchor="start" x="43.69" y="-186.25" font-family="Helvetica,sans-Serif" font-size="10.00">+</text>
<text text-anchor="start" x="63.38" y="-186.25" font-family="Helvetica,sans-Serif" font-size="10.00">elem_size</text>
<text text-anchor="start" x="78.62" y="-171" font-family="Helvetica,sans-Serif" font-size="10.00"> </text>
<polygon fill="#666666" stroke="#666666" points="30,-213 30,-213 130.25,-213 130.25,-213 30,-213"/>
<polygon fill="#666666" stroke="#666666" points="30,-182.5 30,-182.5 61.38,-182.5 61.38,-182.5 30,-182.5"/>
<polygon fill="#666666" stroke="#666666" points="61.38,-182.5 61.38,-182.5 130.25,-182.5 130.25,-182.5 61.38,-182.5"/>
<polygon fill="none" stroke="#666666" points="30,-165.25 30,-230.25 130.25,-230.25 130.25,-165.25 30,-165.25"/>
</a>
</g>
</g>
<!-- Node2&#45;&gt;Node1 -->
<g id="edge1_Node000001_Node000002" class="edge">
<title>Node2&#45;&gt;Node1</title>
<g id="a_edge1_Node000001_Node000002"><a xlink:title=" ">
<path fill="none" stroke="#63b8ff" d="M77,-165.35C76.66,-152.52 77.49,-137.68 81.38,-124.75 82.01,-122.65 82.72,-120.56 83.5,-118.47"/>
<polygon fill="none" stroke="#63b8ff" points="83.49,-118.5 82.23,-111.4 88.3,-107.5 89.56,-114.6 83.49,-118.5"/>
</a>
</g>
<text text-anchor="middle" x="116.25" y="-137.75" font-family="Helvetica,sans-Serif" font-size="10.00" fill="grey"> +ext_tensor_in</text>
<text text-anchor="middle" x="116.25" y="-126.5" font-family="Helvetica,sans-Serif" font-size="10.00" fill="grey">+ext_tensor_out</text>
</g>
<!-- Node3 -->
<g id="Node000003" class="node">
<title>Node3</title>
<g id="a_Node000003"><a xlink:href="structTTL__layout__t.html" target="_top" xlink:title="Description of a Tensor layout in memory.">
<polygon fill="white" stroke="none" points="80.25,-350.12 0,-350.12 0,-285.12 80.25,-285.12 80.25,-350.12"/>
<text text-anchor="start" x="11.62" y="-336.62" font-family="Helvetica,sans-Serif" font-size="10.00">TTL_layout_t</text>
<text text-anchor="start" x="4" y="-321.38" font-family="Helvetica,sans-Serif" font-size="10.00">+</text>
<text text-anchor="start" x="14" y="-321.38" font-family="Helvetica,sans-Serif" font-size="10.00">row_spacing</text>
<text text-anchor="start" x="4" y="-306.12" font-family="Helvetica,sans-Serif" font-size="10.00">+</text>
<text text-anchor="start" x="14" y="-306.12" font-family="Helvetica,sans-Serif" font-size="10.00">plane_spacing</text>
<text text-anchor="start" x="38.62" y="-290.88" font-family="Helvetica,sans-Serif" font-size="10.00"> </text>
<polygon fill="#666666" stroke="#666666" points="0,-332.88 0,-332.88 80.25,-332.88 80.25,-332.88 0,-332.88"/>
<polygon fill="#666666" stroke="#666666" points="0,-302.38 0,-302.38 12,-302.38 12,-302.38 0,-302.38"/>
<polygon fill="#666666" stroke="#666666" points="12,-302.38 12,-302.38 80.25,-302.38 80.25,-302.38 12,-302.38"/>
<polygon fill="none" stroke="#666666" points="0,-285.12 0,-350.12 80.25,-350.12 80.25,-285.12 0,-285.12"/>
</a>
</g>
</g>
<!-- Node3&#45;&gt;Node2 -->
<g id="edge2_Node000002_Node000003" class="edge">
<title>Node3&#45;&gt;Node2</title>
<g id="a_edge2_Node000002_Node000003"><a xlink:title=" ">
<path fill="none" stroke="#63b8ff" d="M37.18,-285.24C37.08,-273.35 38.23,-259.89 42.38,-248.25 43.22,-245.88 44.22,-243.54 45.34,-241.23"/>
<polygon fill="none" stroke="#63b8ff" points="45.34,-241.23 44.9,-234.03 51.37,-230.85 51.81,-238.05 45.34,-241.23"/>
</a>
</g>
<text text-anchor="middle" x="59.25" y="-250" font-family="Helvetica,sans-Serif" font-size="10.00" fill="grey"> +layout</text>
</g>
<!-- Node4 -->
<g id="Node000004" class="node">
<title>Node4</title>
<g id="a_Node000004"><a xlink:href="structTTL__shape__t.html" target="_top" xlink:title="Description of a Shape.">
<polygon fill="white" stroke="none" points="164,-357.75 98.25,-357.75 98.25,-277.5 164,-277.5 164,-357.75"/>
<text text-anchor="start" x="102.25" y="-344.25" font-family="Helvetica,sans-Serif" font-size="10.00">TTL_shape_t</text>
<text text-anchor="start" x="107.62" y="-329" font-family="Helvetica,sans-Serif" font-size="10.00">+</text>
<text text-anchor="start" x="123" y="-329" font-family="Helvetica,sans-Serif" font-size="10.00">width</text>
<text text-anchor="start" x="107.62" y="-313.75" font-family="Helvetica,sans-Serif" font-size="10.00">+</text>
<text text-anchor="start" x="123" y="-313.75" font-family="Helvetica,sans-Serif" font-size="10.00">height</text>
<text text-anchor="start" x="107.62" y="-298.5" font-family="Helvetica,sans-Serif" font-size="10.00">+</text>
<text text-anchor="start" x="123" y="-298.5" font-family="Helvetica,sans-Serif" font-size="10.00">depth</text>
<text text-anchor="start" x="129.62" y="-283.25" font-family="Helvetica,sans-Serif" font-size="10.00"> </text>
<polygon fill="#666666" stroke="#666666" points="98.25,-340.5 98.25,-340.5 164,-340.5 164,-340.5 98.25,-340.5"/>
<polygon fill="#666666" stroke="#666666" points="98.25,-294.75 98.25,-294.75 121,-294.75 121,-294.75 98.25,-294.75"/>
<polygon fill="#666666" stroke="#666666" points="121,-294.75 121,-294.75 164,-294.75 164,-294.75 121,-294.75"/>
<polygon fill="none" stroke="#666666" points="98.25,-277.5 98.25,-357.75 164,-357.75 164,-277.5 98.25,-277.5"/>
</a>
</g>
</g>
<!-- Node4&#45;&gt;Node2 -->
<g id="edge3_Node000002_Node000004" class="edge">
<title>Node4&#45;&gt;Node2</title>
<g id="a_edge3_Node000002_Node000004"><a xlink:title=" ">
<path fill="none" stroke="#63b8ff" d="M114.28,-277.7C109.33,-266.25 103.88,-253.66 98.82,-241.97"/>
<polygon fill="none" stroke="#63b8ff" points="98.85,-242.02 92.79,-238.1 94.08,-231.01 100.14,-234.93 98.85,-242.02"/>
</a>
</g>
<text text-anchor="middle" x="122.88" y="-250" font-family="Helvetica,sans-Serif" font-size="10.00" fill="grey"> +shape</text>
</g>
<!-- Node5 -->
<g id="Node000005" class="node">
<title>Node5</title>
<g id="a_Node000005"><a xlink:href="structTTL__tile__t.html" target="_top" xlink:title=" ">
<polygon fill="white" stroke="none" points="200.25,-222.62 148,-222.62 148,-172.88 200.25,-172.88 200.25,-222.62"/>
<text text-anchor="start" x="152" y="-209.12" font-family="Helvetica,sans-Serif" font-size="10.00">TTL_tile_t</text>
<text text-anchor="start" x="172.62" y="-193.88" font-family="Helvetica,sans-Serif" font-size="10.00"> </text>
<text text-anchor="start" x="172.62" y="-178.62" font-family="Helvetica,sans-Serif" font-size="10.00"> </text>
<polygon fill="#666666" stroke="#666666" points="148,-205.38 148,-205.38 200.25,-205.38 200.25,-205.38 148,-205.38"/>
<polygon fill="#666666" stroke="#666666" points="148,-190.12 148,-190.12 200.25,-190.12 200.25,-190.12 148,-190.12"/>
<polygon fill="none" stroke="#666666" points="148,-172.88 148,-222.62 200.25,-222.62 200.25,-172.88 148,-172.88"/>
</a>
</g>
</g>
<!-- Node4&#45;&gt;Node5 -->
<g id="edge5_Node000005_Node000004" class="edge">
<title>Node4&#45;&gt;Node5</title>
<g id="a_edge5_Node000005_Node000004"><a xlink:title=" ">
<path fill="none" stroke="#63b8ff" d="M143.36,-277.76C146.56,-268.07 150.1,-257.74 153.62,-248.25 155.31,-243.71 157.16,-238.97 159.03,-234.3"/>
<polygon fill="none" stroke="#63b8ff" points="159.07,-234.21 157.64,-227.14 163.62,-223.11 165.04,-230.18 159.07,-234.21"/>
</a>
</g>
<text text-anchor="middle" x="170.88" y="-250" font-family="Helvetica,sans-Serif" font-size="10.00" fill="grey"> +shape</text>
</g>
<!-- Node5&#45;&gt;Node1 -->
<g id="edge4_Node000001_Node000005" class="edge">
<title>Node5&#45;&gt;Node1</title>
<g id="a_edge4_Node000001_Node000005"><a xlink:title=" ">
<path fill="none" stroke="#63b8ff" d="M166.75,-173.01C162.33,-158.95 156.53,-140.79 151.12,-124.75 150.47,-122.81 149.81,-120.85 149.13,-118.87"/>
<polygon fill="none" stroke="#63b8ff" points="149.09,-118.77 143.35,-114.41 145.17,-107.43 150.91,-111.79 149.09,-118.77"/>
</a>
</g>
<text text-anchor="middle" x="180.79" y="-132.12" font-family="Helvetica,sans-Serif" font-size="10.00" fill="grey"> +prev_tile</text>
</g>
<!-- Node6 -->
<g id="Node000006" class="node">
<title>Node6</title>
<g id="a_Node000006"><a xlink:href="structTTL__offset__t.html" target="_top" xlink:title="Description of the 3D offset of an object.">
<polygon fill="white" stroke="none" points="245.88,-357.75 182.38,-357.75 182.38,-277.5 245.88,-277.5 245.88,-357.75"/>
<text text-anchor="start" x="186.38" y="-344.25" font-family="Helvetica,sans-Serif" font-size="10.00">TTL_offset_t</text>
<text text-anchor="start" x="196.62" y="-329" font-family="Helvetica,sans-Serif" font-size="10.00">+</text>
<text text-anchor="start" x="216.88" y="-329" font-family="Helvetica,sans-Serif" font-size="10.00">x</text>
<text text-anchor="start" x="196.62" y="-313.75" font-family="Helvetica,sans-Serif" font-size="10.00">+</text>
<text text-anchor="start" x="216.88" y="-313.75" font-family="Helvetica,sans-Serif" font-size="10.00">y</text>
<text text-anchor="start" x="196.62" y="-298.5" font-family="Helvetica,sans-Serif" font-size="10.00">+</text>
<text text-anchor="start" x="216.88" y="-298.5" font-family="Helvetica,sans-Serif" font-size="10.00">z</text>
<text text-anchor="start" x="212.62" y="-283.25" font-family="Helvetica,sans-Serif" font-size="10.00"> </text>
<polygon fill="#666666" stroke="#666666" points="182.38,-340.5 182.38,-340.5 245.88,-340.5 245.88,-340.5 182.38,-340.5"/>
<polygon fill="#666666" stroke="#666666" points="182.38,-294.75 182.38,-294.75 214.88,-294.75 214.88,-294.75 182.38,-294.75"/>
<polygon fill="#666666" stroke="#666666" points="214.88,-294.75 214.88,-294.75 245.88,-294.75 245.88,-294.75 214.88,-294.75"/>
<polygon fill="none" stroke="#666666" points="182.38,-277.5 182.38,-357.75 245.88,-357.75 245.88,-277.5 182.38,-277.5"/>
</a>
</g>
</g>
<!-- Node6&#45;&gt;Node5 -->
<g id="edge6_Node000005_Node000006" class="edge">
<title>Node6&#45;&gt;Node5</title>
<g id="a_edge6_Node000005_Node000006"><a xlink:title=" ">
<path fill="none" stroke="#63b8ff" d="M201.93,-277.85C198.8,-268.16 195.4,-257.81 192.12,-248.25 190.58,-243.75 188.92,-239.03 187.26,-234.37"/>
<polygon fill="none" stroke="#63b8ff" points="187.3,-234.49 181.5,-230.2 183.22,-223.2 189.02,-227.48 187.3,-234.49"/>
</a>
</g>
<text text-anchor="middle" x="212.01" y="-250" font-family="Helvetica,sans-Serif" font-size="10.00" fill="grey"> +offset</text>
</g>
</g>
</svg>
