<?xml version="1.0" encoding="UTF-8" standalone="no"?>
<!DOCTYPE svg PUBLIC "-//W3C//DTD SVG 1.1//EN"
 "http://www.w3.org/Graphics/SVG/1.1/DTD/svg11.dtd">
<!-- Generated by graphviz version 12.0.0 (20240704.0754)
 -->
<!-- Title: TTL_tiler_t Pages: 1 -->
<svg width="285pt" height="315pt"
 viewBox="0.00 0.00 284.50 314.50" xmlns="http://www.w3.org/2000/svg" xmlns:xlink="http://www.w3.org/1999/xlink">
<g id="graph0" class="graph" transform="scale(1 1) rotate(0) translate(4 310.5)">
<title>TTL_tiler_t</title>
<!-- Node1 -->
<g id="Node000001" class="node">
<title>Node1</title>
<g id="a_Node000001"><a xlink:title="TTL_tiler_t is the basic unit that describes how a tile is subdivided.">
<polygon fill="#999999" stroke="none" points="165,-124 78,-124 78,0 165,0 165,-124"/>
<text text-anchor="start" x="97.88" y="-110.5" font-family="Helvetica,sans-Serif" font-size="10.00">TTL_tiler_t</text>
<text text-anchor="start" x="82" y="-95.5" font-family="Helvetica,sans-Serif" font-size="10.00">+</text>
<text text-anchor="start" x="92" y="-95.5" font-family="Helvetica,sans-Serif" font-size="10.00">number_of_tiles</text>
<text text-anchor="start" x="82" y="-80.5" font-family="Helvetica,sans-Serif" font-size="10.00">+</text>
<text text-anchor="start" x="92" y="-80.5" font-family="Helvetica,sans-Serif" font-size="10.00">tiles_in_width</text>
<text text-anchor="start" x="82" y="-65.5" font-family="Helvetica,sans-Serif" font-size="10.00">+</text>
<text text-anchor="start" x="92" y="-65.5" font-family="Helvetica,sans-Serif" font-size="10.00">tiles_in_height</text>
<text text-anchor="start" x="82" y="-50.5" font-family="Helvetica,sans-Serif" font-size="10.00">+</text>
<text text-anchor="start" x="92" y="-50.5" font-family="Helvetica,sans-Serif" font-size="10.00">tiles_in_depth</text>
<text text-anchor="start" x="82" y="-35.5" font-family="Helvetica,sans-Serif" font-size="10.00">+</text>
<text text-anchor="start" x="92" y="-35.5" font-family="Helvetica,sans-Serif" font-size="10.00">tiles_in_plane</text>
<text text-anchor="start" x="82" y="-20.5" font-family="Helvetica,sans-Serif" font-size="10.00">+</text>
<text text-anchor="start" x="92" y="-20.5" font-family="Helvetica,sans-Serif" font-size="10.00">cache</text>
<text text-anchor="start" x="120" y="-5.5" font-family="Helvetica,sans-Serif" font-size="10.00"> </text>
<polygon fill="#666666" stroke="#666666" points="78,-107 78,-107 165,-107 165,-107 78,-107"/>
<polygon fill="#666666" stroke="#666666" points="78,-17 78,-17 90,-17 90,-17 78,-17"/>
<polygon fill="#666666" stroke="#666666" points="90,-17 90,-17 165,-17 165,-17 90,-17"/>
<polygon fill="none" stroke="#666666" points="78,0 78,-124 165,-124 165,0 78,0"/>
</a>
</g>
</g>
<!-- Node2 -->
<g id="Node000002" class="node">
<title>Node2</title>
<g id="a_Node000002"><a xlink:href="structTTL__shape__t.html" target="_top" xlink:title="Description of a Shape.">
<polygon fill="white" stroke="none" points="67,-284 0,-284 0,-205 67,-205 67,-284"/>
<text text-anchor="start" x="4.62" y="-270.5" font-family="Helvetica,sans-Serif" font-size="10.00">TTL_shape_t</text>
<text text-anchor="start" x="9.5" y="-255.5" font-family="Helvetica,sans-Serif" font-size="10.00">+</text>
<text text-anchor="start" x="25" y="-255.5" font-family="Helvetica,sans-Serif" font-size="10.00">width</text>
<text text-anchor="start" x="9.5" y="-240.5" font-family="Helvetica,sans-Serif" font-size="10.00">+</text>
<text text-anchor="start" x="25" y="-240.5" font-family="Helvetica,sans-Serif" font-size="10.00">height</text>
<text text-anchor="start" x="9.5" y="-225.5" font-family="Helvetica,sans-Serif" font-size="10.00">+</text>
<text text-anchor="start" x="25" y="-225.5" font-family="Helvetica,sans-Serif" font-size="10.00">depth</text>
<text text-anchor="start" x="32" y="-210.5" font-family="Helvetica,sans-Serif" font-size="10.00"> </text>
<polygon fill="#666666" stroke="#666666" points="0,-267 0,-267 67,-267 67,-267 0,-267"/>
<polygon fill="#666666" stroke="#666666" points="0,-222 0,-222 23,-222 23,-222 0,-222"/>
<polygon fill="#666666" stroke="#666666" points="23,-222 23,-222 67,-222 67,-222 23,-222"/>
<polygon fill="none" stroke="#666666" points="0,-205 0,-284 67,-284 67,-205 0,-205"/>
</a>
</g>
</g>
<!-- Node2&#45;&gt;Node1 -->
<g id="edge1_Node000001_Node000002" class="edge">
<title>Node2&#45;&gt;Node1</title>
<g id="a_edge1_Node000001_Node000002"><a xlink:title=" ">
<path fill="none" stroke="#63b8ff" d="M52.16,-205.22C62.05,-184.94 74.52,-159.36 86.16,-135.5"/>
<polygon fill="none" stroke="#63b8ff" points="86.13,-135.55 85.16,-128.4 91.39,-124.76 92.35,-131.91 86.13,-135.55"/>
</a>
</g>
<text text-anchor="middle" x="100.75" y="-155" font-family="Helvetica,sans-Serif" font-size="10.00" fill="grey"> +space</text>
<text text-anchor="middle" x="100.75" y="-143.75" font-family="Helvetica,sans-Serif" font-size="10.00" fill="grey">+tile</text>
</g>
<!-- Node3 -->
<g id="Node000003" class="node">
<title>Node3</title>
<g id="a_Node000003"><a xlink:href="structTTL__overlap__t.html" target="_top" xlink:title="Description of the overlap in 3D space of adjacent tiles.">
<polygon fill="white" stroke="none" points="158,-284 85,-284 85,-205 158,-205 158,-284"/>
<text text-anchor="start" x="90" y="-270.5" font-family="Helvetica,sans-Serif" font-size="10.00">TTL_overlap_t</text>
<text text-anchor="start" x="96" y="-255.5" font-family="Helvetica,sans-Serif" font-size="10.00">+</text>
<text text-anchor="start" x="113" y="-255.5" font-family="Helvetica,sans-Serif" font-size="10.00">width</text>
<text text-anchor="start" x="96" y="-240.5" font-family="Helvetica,sans-Serif" font-size="10.00">+</text>
<text text-anchor="start" x="113" y="-240.5" font-family="Helvetica,sans-Serif" font-size="10.00">height</text>
<text text-anchor="start" x="96" y="-225.5" font-family="Helvetica,sans-Serif" font-size="10.00">+</text>
<text text-anchor="start" x="113" y="-225.5" font-family="Helvetica,sans-Serif" font-size="10.00">depth</text>
<text text-anchor="start" x="120" y="-210.5" font-family="Helvetica,sans-Serif" font-size="10.00"> </text>
<polygon fill="#666666" stroke="#666666" points="85,-267 85,-267 158,-267 158,-267 85,-267"/>
<polygon fill="#666666" stroke="#666666" points="85,-222 85,-222 111,-222 111,-222 85,-222"/>
<polygon fill="#666666" stroke="#666666" points="111,-222 111,-222 158,-222 158,-222 111,-222"/>
<polygon fill="none" stroke="#666666" points="85,-205 85,-284 158,-284 158,-205 85,-205"/>
</a>
</g>
</g>
<!-- Node3&#45;&gt;Node1 -->
<g id="edge2_Node000001_Node000003" class="edge">
<title>Node3&#45;&gt;Node1</title>
<g id="a_edge2_Node000001_Node000003"><a xlink:title=" ">
<path fill="none" stroke="#63b8ff" d="M121.5,-205.22C121.5,-185.31 121.5,-160.29 121.5,-136.8"/>
<polygon fill="none" stroke="#63b8ff" points="121.5,-136.85 117.5,-130.85 121.5,-124.85 125.5,-130.85 121.5,-136.85"/>
</a>
</g>
<text text-anchor="middle" x="141.38" y="-149.38" font-family="Helvetica,sans-Serif" font-size="10.00" fill="grey"> +overlap</text>
</g>
<!-- Node4 -->
<g id="Node000004" class="node">
<title>Node4</title>
<g id="a_Node000004"><a xlink:href="structTTL__augmentation__t.html" target="_top" xlink:title="3D description of the augmented margins">
<polygon fill="white" stroke="none" points="276.5,-306.5 176.5,-306.5 176.5,-182.5 276.5,-182.5 276.5,-306.5"/>
<text text-anchor="start" x="181.5" y="-293" font-family="Helvetica,sans-Serif" font-size="10.00">TTL_augmentation_t</text>
<text text-anchor="start" x="193.5" y="-278" font-family="Helvetica,sans-Serif" font-size="10.00">+</text>
<text text-anchor="start" x="216.5" y="-278" font-family="Helvetica,sans-Serif" font-size="10.00">left</text>
<text text-anchor="start" x="193.5" y="-263" font-family="Helvetica,sans-Serif" font-size="10.00">+</text>
<text text-anchor="start" x="216.5" y="-263" font-family="Helvetica,sans-Serif" font-size="10.00">right</text>
<text text-anchor="start" x="193.5" y="-248" font-family="Helvetica,sans-Serif" font-size="10.00">+</text>
<text text-anchor="start" x="216.5" y="-248" font-family="Helvetica,sans-Serif" font-size="10.00">top</text>
<text text-anchor="start" x="193.5" y="-233" font-family="Helvetica,sans-Serif" font-size="10.00">+</text>
<text text-anchor="start" x="216.5" y="-233" font-family="Helvetica,sans-Serif" font-size="10.00">bottom</text>
<text text-anchor="start" x="193.5" y="-218" font-family="Helvetica,sans-Serif" font-size="10.00">+</text>
<text text-anchor="start" x="216.5" y="-218" font-family="Helvetica,sans-Serif" font-size="10.00">front</text>
<text text-anchor="start" x="193.5" y="-203" font-family="Helvetica,sans-Serif" font-size="10.00">+</text>
<text text-anchor="start" x="216.5" y="-203" font-family="Helvetica,sans-Serif" font-size="10.00">back</text>
<text text-anchor="start" x="225" y="-188" font-family="Helvetica,sans-Serif" font-size="10.00"> </text>
<polygon fill="#666666" stroke="#666666" points="176.5,-289.5 176.5,-289.5 276.5,-289.5 276.5,-289.5 176.5,-289.5"/>
<polygon fill="#666666" stroke="#666666" points="176.5,-199.5 176.5,-199.5 214.5,-199.5 214.5,-199.5 176.5,-199.5"/>
<polygon fill="#666666" stroke="#666666" points="214.5,-199.5 214.5,-199.5 276.5,-199.5 276.5,-199.5 214.5,-199.5"/>
<polygon fill="none" stroke="#666666" points="176.5,-182.5 176.5,-306.5 276.5,-306.5 276.5,-182.5 176.5,-182.5"/>
</a>
</g>
</g>
<!-- Node4&#45;&gt;Node1 -->
<g id="edge3_Node000001_Node000004" class="edge">
<title>Node4&#45;&gt;Node1</title>
<g id="a_edge3_Node000001_Node000004"><a xlink:title=" ">
<path fill="none" stroke="#63b8ff" d="M191.1,-182.64C182.15,-167.26 172.46,-150.6 163.23,-134.73"/>
<polygon fill="none" stroke="#63b8ff" points="163.41,-135.05 156.94,-131.88 157.38,-124.68 163.85,-127.85 163.41,-135.05"/>
</a>
</g>
<text text-anchor="middle" x="212.88" y="-149.38" font-family="Helvetica,sans-Serif" font-size="10.00" fill="grey"> +augmentation</text>
</g>
</g>
</svg>
