<?xml version="1.0" encoding="UTF-8" standalone="no"?>
<!DOCTYPE svg PUBLIC "-//W3C//DTD SVG 1.1//EN"
 "http://www.w3.org/Graphics/SVG/1.1/DTD/svg11.dtd">
<!-- Generated by graphviz version 12.0.0 (20240704.0754)
 -->
<!-- Title: TTL_simplex_const_ulong_tensor_buffering_t Pages: 1 -->
<svg width="471pt" height="477pt"
 viewBox="0.00 0.00 471.00 476.75" xmlns="http://www.w3.org/2000/svg" xmlns:xlink="http://www.w3.org/1999/xlink">
<g id="graph0" class="graph" transform="scale(1 1) rotate(0) translate(4 472.75)">
<title>TTL_simplex_const_ulong_tensor_buffering_t</title>
<!-- Node1 -->
<g id="Node000001" class="node">
<title>Node1</title>
<g id="a_Node000001"><a xlink:title=" ">
<polygon fill="#999999" stroke="none" points="342.5,-120 218.5,-120 218.5,0 342.5,0 342.5,-120"/>
<text text-anchor="start" x="223.5" y="-106.5" font-family="Helvetica,sans-Serif" font-size="10.00">TTL_simplex_const_ulong</text>
<text text-anchor="start" x="239.25" y="-95.25" font-family="Helvetica,sans-Serif" font-size="10.00">_tensor_buffering_t</text>
<text text-anchor="start" x="238.5" y="-80.5" font-family="Helvetica,sans-Serif" font-size="10.00">+</text>
<text text-anchor="start" x="264.5" y="-80.5" font-family="Helvetica,sans-Serif" font-size="10.00">index</text>
<text text-anchor="start" x="238.5" y="-65.5" font-family="Helvetica,sans-Serif" font-size="10.00">+</text>
<text text-anchor="start" x="264.5" y="-65.5" font-family="Helvetica,sans-Serif" font-size="10.00">int_base</text>
<text text-anchor="start" x="238.5" y="-50.5" font-family="Helvetica,sans-Serif" font-size="10.00">+</text>
<text text-anchor="start" x="264.5" y="-50.5" font-family="Helvetica,sans-Serif" font-size="10.00">common</text>
<text text-anchor="start" x="238.5" y="-35.5" font-family="Helvetica,sans-Serif" font-size="10.00">+</text>
<text text-anchor="start" x="264.5" y="-35.5" font-family="Helvetica,sans-Serif" font-size="10.00">event_in</text>
<text text-anchor="start" x="238.5" y="-20.5" font-family="Helvetica,sans-Serif" font-size="10.00">+</text>
<text text-anchor="start" x="264.5" y="-20.5" font-family="Helvetica,sans-Serif" font-size="10.00">event_out</text>
<text text-anchor="start" x="279" y="-5.5" font-family="Helvetica,sans-Serif" font-size="10.00"> </text>
<polygon fill="#666666" stroke="#666666" points="218.5,-92 218.5,-92 342.5,-92 342.5,-92 218.5,-92"/>
<polygon fill="#666666" stroke="#666666" points="218.5,-17 218.5,-17 262.5,-17 262.5,-17 218.5,-17"/>
<polygon fill="#666666" stroke="#666666" points="262.5,-17 262.5,-17 342.5,-17 342.5,-17 262.5,-17"/>
<polygon fill="none" stroke="#666666" points="218.5,0 218.5,-120 342.5,-120 342.5,0 218.5,0"/>
</a>
</g>
</g>
<!-- Node2 -->
<g id="Node000002" class="node">
<title>Node2</title>
<g id="a_Node000002"><a xlink:href="structTTL__ext__ulong__tensor__t.html" target="_top" xlink:title="const and non&#45;const tensors in the appropriate address space">
<polygon fill="white" stroke="none" points="115,-335 0,-335 0,-271 115,-271 115,-335"/>
<text text-anchor="start" x="5" y="-321.5" font-family="Helvetica,sans-Serif" font-size="10.00">TTL_ext_ulong_tensor_t</text>
<text text-anchor="start" x="17.5" y="-306.5" font-family="Helvetica,sans-Serif" font-size="10.00">+</text>
<text text-anchor="start" x="41" y="-306.5" font-family="Helvetica,sans-Serif" font-size="10.00">base</text>
<text text-anchor="start" x="17.5" y="-291.5" font-family="Helvetica,sans-Serif" font-size="10.00">+</text>
<text text-anchor="start" x="41" y="-291.5" font-family="Helvetica,sans-Serif" font-size="10.00">elem_size</text>
<text text-anchor="start" x="56" y="-276.5" font-family="Helvetica,sans-Serif" font-size="10.00"> </text>
<polygon fill="#666666" stroke="#666666" points="0,-318 0,-318 115,-318 115,-318 0,-318"/>
<polygon fill="#666666" stroke="#666666" points="0,-288 0,-288 39,-288 39,-288 0,-288"/>
<polygon fill="#666666" stroke="#666666" points="39,-288 39,-288 115,-288 115,-288 39,-288"/>
<polygon fill="none" stroke="#666666" points="0,-271 0,-335 115,-335 115,-271 0,-271"/>
</a>
</g>
</g>
<!-- Node2&#45;&gt;Node1 -->
<g id="edge1_Node000001_Node000002" class="edge">
<title>Node2&#45;&gt;Node1</title>
<g id="a_edge1_Node000001_Node000002"><a xlink:title=" ">
<path fill="none" stroke="#63b8ff" d="M70.95,-271.03C84.51,-242.09 107.46,-198.75 135.75,-167.25 156.62,-144.02 183.33,-122.69 208.1,-105.35"/>
<polygon fill="none" stroke="#63b8ff" points="207.94,-105.46 210.63,-98.76 217.84,-98.67 215.15,-105.36 207.94,-105.46"/>
</a>
</g>
<text text-anchor="middle" x="170.38" y="-193.5" font-family="Helvetica,sans-Serif" font-size="10.00" fill="grey"> +ext_tensor_in</text>
<text text-anchor="middle" x="170.38" y="-182.25" font-family="Helvetica,sans-Serif" font-size="10.00" fill="grey">+ext_tensor_out</text>
</g>
<!-- Node3 -->
<g id="Node000003" class="node">
<title>Node3</title>
<g id="a_Node000003"><a xlink:href="structTTL__layout__t.html" target="_top" xlink:title="Description of a Tensor layout in memory.">
<polygon fill="white" stroke="none" points="164.5,-461.25 84.5,-461.25 84.5,-397.25 164.5,-397.25 164.5,-461.25"/>
<text text-anchor="start" x="96" y="-447.75" font-family="Helvetica,sans-Serif" font-size="10.00">TTL_layout_t</text>
<text text-anchor="start" x="88.5" y="-432.75" font-family="Helvetica,sans-Serif" font-size="10.00">+</text>
<text text-anchor="start" x="98.5" y="-432.75" font-family="Helvetica,sans-Serif" font-size="10.00">row_spacing</text>
<text text-anchor="start" x="88.5" y="-417.75" font-family="Helvetica,sans-Serif" font-size="10.00">+</text>
<text text-anchor="start" x="98.5" y="-417.75" font-family="Helvetica,sans-Serif" font-size="10.00">plane_spacing</text>
<text text-anchor="start" x="123" y="-402.75" font-family="Helvetica,sans-Serif" font-size="10.00"> </text>
<polygon fill="#666666" stroke="#666666" points="84.5,-444.25 84.5,-444.25 164.5,-444.25 164.5,-444.25 84.5,-444.25"/>
<polygon fill="#666666" stroke="#666666" points="84.5,-414.25 84.5,-414.25 96.5,-414.25 96.5,-414.25 84.5,-414.25"/>
<polygon fill="#666666" stroke="#666666" points="96.5,-414.25 96.5,-414.25 164.5,-414.25 164.5,-414.25 96.5,-414.25"/>
<polygon fill="none" stroke="#666666" points="84.5,-397.25 84.5,-461.25 164.5,-461.25 164.5,-397.25 84.5,-397.25"/>
</a>
</g>
</g>
<!-- Node3&#45;&gt;Node2 -->
<g id="edge2_Node000002_Node000003" class="edge">
<title>Node3&#45;&gt;Node2</title>
<g id="a_edge2_Node000002_Node000003"><a xlink:title=" ">
<path fill="none" stroke="#63b8ff" d="M84.77,-401.77C75.24,-393.36 66.25,-383.22 60.75,-371.75 57.21,-364.36 55.36,-355.99 54.53,-347.71"/>
<polygon fill="none" stroke="#63b8ff" points="54.53,-347.82 50.28,-341.99 54.02,-335.83 58.28,-341.65 54.53,-347.82"/>
</a>
</g>
<text text-anchor="middle" x="77.38" y="-362.25" font-family="Helvetica,sans-Serif" font-size="10.00" fill="grey"> +layout</text>
</g>
<!-- Node8 -->
<g id="Node000008" class="node">
<title>Node8</title>
<g id="a_Node000008"><a xlink:href="structTTL__int__ulong__tensor__t.html" target="_top" xlink:title="const and non&#45;const tensors in the appropriate address space">
<polygon fill="white" stroke="none" points="245.5,-335 133.5,-335 133.5,-271 245.5,-271 245.5,-335"/>
<text text-anchor="start" x="138.12" y="-321.5" font-family="Helvetica,sans-Serif" font-size="10.00">TTL_int_ulong_tensor_t</text>
<text text-anchor="start" x="150" y="-306.5" font-family="Helvetica,sans-Serif" font-size="10.00">+</text>
<text text-anchor="start" x="172.5" y="-306.5" font-family="Helvetica,sans-Serif" font-size="10.00">base</text>
<text text-anchor="start" x="150" y="-291.5" font-family="Helvetica,sans-Serif" font-size="10.00">+</text>
<text text-anchor="start" x="172.5" y="-291.5" font-family="Helvetica,sans-Serif" font-size="10.00">elem_size</text>
<text text-anchor="start" x="188" y="-276.5" font-family="Helvetica,sans-Serif" font-size="10.00"> </text>
<polygon fill="#666666" stroke="#666666" points="133.5,-318 133.5,-318 245.5,-318 245.5,-318 133.5,-318"/>
<polygon fill="#666666" stroke="#666666" points="133.5,-288 133.5,-288 170.5,-288 170.5,-288 133.5,-288"/>
<polygon fill="#666666" stroke="#666666" points="170.5,-288 170.5,-288 245.5,-288 245.5,-288 170.5,-288"/>
<polygon fill="none" stroke="#666666" points="133.5,-271 133.5,-335 245.5,-335 245.5,-271 133.5,-271"/>
</a>
</g>
</g>
<!-- Node3&#45;&gt;Node8 -->
<g id="edge9_Node000008_Node000003" class="edge">
<title>Node3&#45;&gt;Node8</title>
<g id="a_edge9_Node000008_Node000003"><a xlink:title=" ">
<path fill="none" stroke="#63b8ff" d="M140.57,-397.54C148.69,-382.01 158.68,-362.92 167.5,-346.05"/>
<polygon fill="none" stroke="#63b8ff" points="167.41,-346.22 166.65,-339.05 172.97,-335.59 173.74,-342.76 167.41,-346.22"/>
</a>
</g>
<text text-anchor="middle" x="175.38" y="-362.25" font-family="Helvetica,sans-Serif" font-size="10.00" fill="grey"> +layout</text>
</g>
<!-- Node4 -->
<g id="Node000004" class="node">
<title>Node4</title>
<g id="a_Node000004"><a xlink:href="structTTL__shape__t.html" target="_top" xlink:title="Description of a Shape.">
<polygon fill="white" stroke="none" points="290,-468.75 223,-468.75 223,-389.75 290,-389.75 290,-468.75"/>
<text text-anchor="start" x="227.62" y="-455.25" font-family="Helvetica,sans-Serif" font-size="10.00">TTL_shape_t</text>
<text text-anchor="start" x="232.5" y="-440.25" font-family="Helvetica,sans-Serif" font-size="10.00">+</text>
<text text-anchor="start" x="248" y="-440.25" font-family="Helvetica,sans-Serif" font-size="10.00">width</text>
<text text-anchor="start" x="232.5" y="-425.25" font-family="Helvetica,sans-Serif" font-size="10.00">+</text>
<text text-anchor="start" x="248" y="-425.25" font-family="Helvetica,sans-Serif" font-size="10.00">height</text>
<text text-anchor="start" x="232.5" y="-410.25" font-family="Helvetica,sans-Serif" font-size="10.00">+</text>
<text text-anchor="start" x="248" y="-410.25" font-family="Helvetica,sans-Serif" font-size="10.00">depth</text>
<text text-anchor="start" x="255" y="-395.25" font-family="Helvetica,sans-Serif" font-size="10.00"> </text>
<polygon fill="#666666" stroke="#666666" points="223,-451.75 223,-451.75 290,-451.75 290,-451.75 223,-451.75"/>
<polygon fill="#666666" stroke="#666666" points="223,-406.75 223,-406.75 246,-406.75 246,-406.75 223,-406.75"/>
<polygon fill="#666666" stroke="#666666" points="246,-406.75 246,-406.75 290,-406.75 290,-406.75 246,-406.75"/>
<polygon fill="none" stroke="#666666" points="223,-389.75 223,-468.75 290,-468.75 290,-389.75 223,-389.75"/>
</a>
</g>
</g>
<!-- Node4&#45;&gt;Node2 -->
<g id="edge3_Node000002_Node000004" class="edge">
<title>Node4&#45;&gt;Node2</title>
<g id="a_edge3_Node000002_Node000004"><a xlink:title=" ">
<path fill="none" stroke="#63b8ff" d="M223.01,-411.5C208.06,-404.34 190.09,-396.16 173.5,-389.75 148.52,-380.1 138.39,-386.45 116,-371.75 104.99,-364.52 94.86,-354.65 86.23,-344.69"/>
<polygon fill="none" stroke="#63b8ff" points="86.3,-344.77 79.4,-342.66 78.7,-335.48 85.59,-337.59 86.3,-344.77"/>
</a>
</g>
<text text-anchor="middle" x="132.75" y="-362.25" font-family="Helvetica,sans-Serif" font-size="10.00" fill="grey"> +shape</text>
</g>
<!-- Node5 -->
<g id="Node000005" class="node">
<title>Node5</title>
<g id="a_Node000005"><a xlink:href="structTTL__tile__t.html" target="_top" xlink:title=" ">
<polygon fill="white" stroke="none" points="419.5,-216.25 365.5,-216.25 365.5,-167.25 419.5,-167.25 419.5,-216.25"/>
<text text-anchor="start" x="370.38" y="-202.75" font-family="Helvetica,sans-Serif" font-size="10.00">TTL_tile_t</text>
<text text-anchor="start" x="391" y="-187.75" font-family="Helvetica,sans-Serif" font-size="10.00"> </text>
<text text-anchor="start" x="391" y="-172.75" font-family="Helvetica,sans-Serif" font-size="10.00"> </text>
<polygon fill="#666666" stroke="#666666" points="365.5,-199.25 365.5,-199.25 419.5,-199.25 419.5,-199.25 365.5,-199.25"/>
<polygon fill="#666666" stroke="#666666" points="365.5,-184.25 365.5,-184.25 419.5,-184.25 419.5,-184.25 365.5,-184.25"/>
<polygon fill="none" stroke="#666666" points="365.5,-167.25 365.5,-216.25 419.5,-216.25 419.5,-167.25 365.5,-167.25"/>
</a>
</g>
</g>
<!-- Node4&#45;&gt;Node5 -->
<g id="edge5_Node000005_Node000004" class="edge">
<title>Node4&#45;&gt;Node5</title>
<g id="a_edge5_Node000005_Node000004"><a xlink:title=" ">
<path fill="none" stroke="#63b8ff" d="M289.72,-419.62C325.8,-408.36 381.96,-384.88 409.5,-342.5 435.8,-302.02 431.83,-280.65 418.5,-234.25 417.86,-232.02 417.06,-229.79 416.14,-227.59"/>
<polygon fill="none" stroke="#63b8ff" points="416.21,-227.73 409.92,-224.2 410.75,-217.04 417.04,-220.56 416.21,-227.73"/>
</a>
</g>
<text text-anchor="middle" x="445.75" y="-299.12" font-family="Helvetica,sans-Serif" font-size="10.00" fill="grey"> +shape</text>
</g>
<!-- Node7 -->
<g id="Node000007" class="node">
<title>Node7</title>
<g id="a_Node000007"><a xlink:href="structTTL__int__ulong__sub__tensor__t.html" target="_top" xlink:title="const and non&#45;const sub tensors in the appropriate address space">
<polygon fill="white" stroke="none" points="347,-216.25 214,-216.25 214,-167.25 347,-167.25 347,-216.25"/>
<text text-anchor="start" x="218.62" y="-202.75" font-family="Helvetica,sans-Serif" font-size="10.00">TTL_int_ulong_sub_tensor_t</text>
<text text-anchor="start" x="241" y="-187.75" font-family="Helvetica,sans-Serif" font-size="10.00">+</text>
<text text-anchor="start" x="274" y="-187.75" font-family="Helvetica,sans-Serif" font-size="10.00">origin</text>
<text text-anchor="start" x="279" y="-172.75" font-family="Helvetica,sans-Serif" font-size="10.00"> </text>
<polygon fill="#666666" stroke="#666666" points="214,-199.25 214,-199.25 347,-199.25 347,-199.25 214,-199.25"/>
<polygon fill="#666666" stroke="#666666" points="214,-184.25 214,-184.25 272,-184.25 272,-184.25 214,-184.25"/>
<polygon fill="#666666" stroke="#666666" points="272,-184.25 272,-184.25 347,-184.25 347,-184.25 272,-184.25"/>
<polygon fill="none" stroke="#666666" points="214,-167.25 214,-216.25 347,-216.25 347,-167.25 214,-167.25"/>
</a>
</g>
</g>
<!-- Node4&#45;&gt;Node7 -->
<g id="edge11_Node000007_Node000004" class="edge">
<title>Node4&#45;&gt;Node7</title>
<g id="a_edge11_Node000007_Node000004"><a xlink:title=" ">
<path fill="none" stroke="#63b8ff" d="M261.39,-389.97C262.13,-383.88 262.86,-377.65 263.5,-371.75 268.9,-322.36 274.16,-265.19 277.36,-229.01"/>
<polygon fill="none" stroke="#63b8ff" points="277.36,-229.08 273.9,-222.75 278.41,-217.13 281.87,-223.45 277.36,-229.08"/>
</a>
</g>
<text text-anchor="middle" x="290.75" y="-299.12" font-family="Helvetica,sans-Serif" font-size="10.00" fill="grey"> +shape</text>
</g>
<!-- Node4&#45;&gt;Node8 -->
<g id="edge10_Node000008_Node000004" class="edge">
<title>Node4&#45;&gt;Node8</title>
<g id="a_edge10_Node000008_Node000004"><a xlink:title=" ">
<path fill="none" stroke="#63b8ff" d="M235.85,-389.96C228.4,-376.14 219.95,-360.47 212.33,-346.33"/>
<polygon fill="none" stroke="#63b8ff" points="212.28,-346.24 205.91,-342.86 206.58,-335.68 212.95,-339.06 212.28,-346.24"/>
</a>
</g>
<text text-anchor="middle" x="241.75" y="-362.25" font-family="Helvetica,sans-Serif" font-size="10.00" fill="grey"> +shape</text>
</g>
<!-- Node5&#45;&gt;Node1 -->
<g id="edge4_Node000001_Node000005" class="edge">
<title>Node5&#45;&gt;Node1</title>
<g id="a_edge4_Node000001_Node000005"><a xlink:title=" ">
<path fill="none" stroke="#63b8ff" d="M384.32,-167.25C380.37,-157.67 375.04,-146.8 368.5,-138 363.37,-131.11 357.53,-124.39 351.36,-117.97"/>
<polygon fill="none" stroke="#63b8ff" points="351.28,-117.89 344.2,-116.51 342.76,-109.44 349.84,-110.83 351.28,-117.89"/>
</a>
</g>
<text text-anchor="middle" x="417.62" y="-139.75" font-family="Helvetica,sans-Serif" font-size="10.00" fill="grey"> +next_exported_tile</text>
</g>
<!-- Node6 -->
<g id="Node000006" class="node">
<title>Node6</title>
<g id="a_Node000006"><a xlink:href="structTTL__offset__t.html" target="_top" xlink:title="Description of the 3D offset of an object.">
<polygon fill="white" stroke="none" points="400,-342.5 335,-342.5 335,-263.5 400,-263.5 400,-342.5"/>
<text text-anchor="start" x="339.75" y="-329" font-family="Helvetica,sans-Serif" font-size="10.00">TTL_offset_t</text>
<text text-anchor="start" x="349.5" y="-314" font-family="Helvetica,sans-Serif" font-size="10.00">+</text>
<text text-anchor="start" x="370" y="-314" font-family="Helvetica,sans-Serif" font-size="10.00">x</text>
<text text-anchor="start" x="349.5" y="-299" font-family="Helvetica,sans-Serif" font-size="10.00">+</text>
<text text-anchor="start" x="370" y="-299" font-family="Helvetica,sans-Serif" font-size="10.00">y</text>
<text text-anchor="start" x="349.5" y="-284" font-family="Helvetica,sans-Serif" font-size="10.00">+</text>
<text text-anchor="start" x="370" y="-284" font-family="Helvetica,sans-Serif" font-size="10.00">z</text>
<text text-anchor="start" x="366" y="-269" font-family="Helvetica,sans-Serif" font-size="10.00"> </text>
<polygon fill="#666666" stroke="#666666" points="335,-325.5 335,-325.5 400,-325.5 400,-325.5 335,-325.5"/>
<polygon fill="#666666" stroke="#666666" points="335,-280.5 335,-280.5 368,-280.5 368,-280.5 335,-280.5"/>
<polygon fill="#666666" stroke="#666666" points="368,-280.5 368,-280.5 400,-280.5 400,-280.5 368,-280.5"/>
<polygon fill="none" stroke="#666666" points="335,-263.5 335,-342.5 400,-342.5 400,-263.5 335,-263.5"/>
</a>
</g>
</g>
<!-- Node6&#45;&gt;Node5 -->
<g id="edge6_Node000005_Node000006" class="edge">
<title>Node6&#45;&gt;Node5</title>
<g id="a_edge6_Node000005_Node000006"><a xlink:title=" ">
<path fill="none" stroke="#63b8ff" d="M376.24,-263.79C378.85,-252.38 381.71,-239.92 384.28,-228.66"/>
<polygon fill="none" stroke="#63b8ff" points="384.27,-228.71 381.71,-221.97 386.95,-217.01 389.51,-223.75 384.27,-228.71"/>
</a>
</g>
<text text-anchor="middle" x="398.62" y="-236" font-family="Helvetica,sans-Serif" font-size="10.00" fill="grey"> +offset</text>
</g>
<!-- Node6&#45;&gt;Node7 -->
<g id="edge12_Node000007_Node000006" class="edge">
<title>Node6&#45;&gt;Node7</title>
<g id="a_edge12_Node000007_Node000006"><a xlink:title=" ">
<path fill="none" stroke="#63b8ff" d="M337.07,-263.79C327.29,-251.51 316.54,-238.01 307.07,-226.11"/>
<polygon fill="none" stroke="#63b8ff" points="307.16,-226.22 300.29,-224.02 299.68,-216.84 306.55,-219.04 307.16,-226.22"/>
</a>
</g>
<text text-anchor="middle" x="347.12" y="-236" font-family="Helvetica,sans-Serif" font-size="10.00" fill="grey"> +sub_offset</text>
</g>
<!-- Node7&#45;&gt;Node1 -->
<g id="edge7_Node000001_Node000007" class="edge">
<title>Node7&#45;&gt;Node1</title>
<g id="a_edge7_Node000001_Node000007"><a xlink:title=" ">
<path fill="none" stroke="#63b8ff" d="M280.5,-167.25C280.5,-157.39 280.5,-145.33 280.5,-132.93"/>
<polygon fill="none" stroke="#63b8ff" points="280.5,-132.86 276.5,-126.86 280.5,-120.86 284.5,-126.86 280.5,-132.86"/>
</a>
</g>
<text text-anchor="middle" x="323.25" y="-139.75" font-family="Helvetica,sans-Serif" font-size="10.00" fill="grey"> +int_prev_imported</text>
</g>
<!-- Node8&#45;&gt;Node7 -->
<g id="edge8_Node000007_Node000008" class="edge">
<title>Node8&#45;&gt;Node7</title>
<g id="a_edge8_Node000007_Node000008"><a xlink:title=" ">
<path fill="none" stroke="#63b8ff" d="M206.21,-271.32C213.47,-259.2 222.53,-245.52 232.25,-234.25 234.96,-231.11 237.9,-228 240.97,-224.98"/>
<polygon fill="none" stroke="#63b8ff" points="240.92,-225.03 242.59,-218.01 249.7,-216.85 248.04,-223.87 240.92,-225.03"/>
</a>
</g>
<text text-anchor="middle" x="249.12" y="-236" font-family="Helvetica,sans-Serif" font-size="10.00" fill="grey"> +tensor</text>
</g>
</g>
</svg>
