<?xml version="1.0" encoding="UTF-8" standalone="no"?>
<!DOCTYPE svg PUBLIC "-//W3C//DTD SVG 1.1//EN"
 "http://www.w3.org/Graphics/SVG/1.1/DTD/svg11.dtd">
<!-- Generated by graphviz version 12.0.0 (20240704.0754)
 -->
<!-- Title: TTL_duplex_const_ulong_tensor_buffering_t Pages: 1 -->
<svg width="244pt" height="399pt"
 viewBox="0.00 0.00 244.25 399.00" xmlns="http://www.w3.org/2000/svg" xmlns:xlink="http://www.w3.org/1999/xlink">
<g id="graph0" class="graph" transform="scale(1 1) rotate(0) translate(4 395)">
<title>TTL_duplex_const_ulong_tensor_buffering_t</title>
<!-- Node1 -->
<g id="Node000001" class="node">
<title>Node1</title>
<g id="a_Node000001"><a xlink:title="Data required to perform duplex buffer pipelining.">
<polygon fill="#999999" stroke="none" points="178.5,-120 60.5,-120 60.5,0 178.5,0 178.5,-120"/>
<text text-anchor="start" x="65.12" y="-106.5" font-family="Helvetica,sans-Serif" font-size="10.00">TTL_duplex_const_ulong</text>
<text text-anchor="start" x="78.25" y="-95.25" font-family="Helvetica,sans-Serif" font-size="10.00">_tensor_buffering_t</text>
<text text-anchor="start" x="70.5" y="-80.5" font-family="Helvetica,sans-Serif" font-size="10.00">+</text>
<text text-anchor="start" x="86.5" y="-80.5" font-family="Helvetica,sans-Serif" font-size="10.00">index</text>
<text text-anchor="start" x="70.5" y="-65.5" font-family="Helvetica,sans-Serif" font-size="10.00">+</text>
<text text-anchor="start" x="86.5" y="-65.5" font-family="Helvetica,sans-Serif" font-size="10.00">int_base</text>
<text text-anchor="start" x="70.5" y="-50.5" font-family="Helvetica,sans-Serif" font-size="10.00">+</text>
<text text-anchor="start" x="86.5" y="-50.5" font-family="Helvetica,sans-Serif" font-size="10.00">common</text>
<text text-anchor="start" x="70.5" y="-35.5" font-family="Helvetica,sans-Serif" font-size="10.00">+</text>
<text text-anchor="start" x="86.5" y="-35.5" font-family="Helvetica,sans-Serif" font-size="10.00">events</text>
<text text-anchor="start" x="70.5" y="-20.5" font-family="Helvetica,sans-Serif" font-size="10.00">+</text>
<text text-anchor="start" x="86.5" y="-20.5" font-family="Helvetica,sans-Serif" font-size="10.00">prev_out_tensors</text>
<text text-anchor="start" x="118" y="-5.5" font-family="Helvetica,sans-Serif" font-size="10.00"> </text>
<polygon fill="#666666" stroke="#666666" points="60.5,-92 60.5,-92 178.5,-92 178.5,-92 60.5,-92"/>
<polygon fill="#666666" stroke="#666666" points="60.5,-17 60.5,-17 84.5,-17 84.5,-17 60.5,-17"/>
<polygon fill="#666666" stroke="#666666" points="84.5,-17 84.5,-17 178.5,-17 178.5,-17 84.5,-17"/>
<polygon fill="none" stroke="#666666" points="60.5,0 60.5,-120 178.5,-120 178.5,0 60.5,0"/>
</a>
</g>
</g>
<!-- Node2 -->
<g id="Node000002" class="node">
<title>Node2</title>
<g id="a_Node000002"><a xlink:href="structTTL__ext__ulong__tensor__t.html" target="_top" xlink:title="const and non&#45;const tensors in the appropriate address space">
<polygon fill="white" stroke="none" points="115,-259.25 0,-259.25 0,-195.25 115,-195.25 115,-259.25"/>
<text text-anchor="start" x="5" y="-245.75" font-family="Helvetica,sans-Serif" font-size="10.00">TTL_ext_ulong_tensor_t</text>
<text text-anchor="start" x="17.5" y="-230.75" font-family="Helvetica,sans-Serif" font-size="10.00">+</text>
<text text-anchor="start" x="41" y="-230.75" font-family="Helvetica,sans-Serif" font-size="10.00">base</text>
<text text-anchor="start" x="17.5" y="-215.75" font-family="Helvetica,sans-Serif" font-size="10.00">+</text>
<text text-anchor="start" x="41" y="-215.75" font-family="Helvetica,sans-Serif" font-size="10.00">elem_size</text>
<text text-anchor="start" x="56" y="-200.75" font-family="Helvetica,sans-Serif" font-size="10.00"> </text>
<polygon fill="#666666" stroke="#666666" points="0,-242.25 0,-242.25 115,-242.25 115,-242.25 0,-242.25"/>
<polygon fill="#666666" stroke="#666666" points="0,-212.25 0,-212.25 39,-212.25 39,-212.25 0,-212.25"/>
<polygon fill="#666666" stroke="#666666" points="39,-212.25 39,-212.25 115,-212.25 115,-212.25 39,-212.25"/>
<polygon fill="none" stroke="#666666" points="0,-195.25 0,-259.25 115,-259.25 115,-195.25 0,-195.25"/>
</a>
</g>
</g>
<!-- Node2&#45;&gt;Node1 -->
<g id="edge1_Node000001_Node000002" class="edge">
<title>Node2&#45;&gt;Node1</title>
<g id="a_edge1_Node000001_Node000002"><a xlink:title=" ">
<path fill="none" stroke="#63b8ff" d="M64.92,-195.62C69.41,-178.45 75.64,-156.78 82.75,-138 83.53,-135.95 84.33,-133.88 85.17,-131.81"/>
<polygon fill="none" stroke="#63b8ff" points="85.2,-131.74 83.84,-124.65 89.85,-120.67 91.21,-127.75 85.2,-131.74"/>
</a>
</g>
<text text-anchor="middle" x="117.38" y="-162.25" font-family="Helvetica,sans-Serif" font-size="10.00" fill="grey"> +ext_tensor_in</text>
<text text-anchor="middle" x="117.38" y="-151" font-family="Helvetica,sans-Serif" font-size="10.00" fill="grey">+ext_tensor_out</text>
<text text-anchor="middle" x="117.38" y="-139.75" font-family="Helvetica,sans-Serif" font-size="10.00" fill="grey">+to_export_to</text>
</g>
<!-- Node3 -->
<g id="Node000003" class="node">
<title>Node3</title>
<g id="a_Node000003"><a xlink:href="structTTL__layout__t.html" target="_top" xlink:title="Description of a Tensor layout in memory.">
<polygon fill="white" stroke="none" points="108.5,-383.5 28.5,-383.5 28.5,-319.5 108.5,-319.5 108.5,-383.5"/>
<text text-anchor="start" x="40" y="-370" font-family="Helvetica,sans-Serif" font-size="10.00">TTL_layout_t</text>
<text text-anchor="start" x="32.5" y="-355" font-family="Helvetica,sans-Serif" font-size="10.00">+</text>
<text text-anchor="start" x="42.5" y="-355" font-family="Helvetica,sans-Serif" font-size="10.00">row_spacing</text>
<text text-anchor="start" x="32.5" y="-340" font-family="Helvetica,sans-Serif" font-size="10.00">+</text>
<text text-anchor="start" x="42.5" y="-340" font-family="Helvetica,sans-Serif" font-size="10.00">plane_spacing</text>
<text text-anchor="start" x="67" y="-325" font-family="Helvetica,sans-Serif" font-size="10.00"> </text>
<polygon fill="#666666" stroke="#666666" points="28.5,-366.5 28.5,-366.5 108.5,-366.5 108.5,-366.5 28.5,-366.5"/>
<polygon fill="#666666" stroke="#666666" points="28.5,-336.5 28.5,-336.5 40.5,-336.5 40.5,-336.5 28.5,-336.5"/>
<polygon fill="#666666" stroke="#666666" points="40.5,-336.5 40.5,-336.5 108.5,-336.5 108.5,-336.5 40.5,-336.5"/>
<polygon fill="none" stroke="#666666" points="28.5,-319.5 28.5,-383.5 108.5,-383.5 108.5,-319.5 28.5,-319.5"/>
</a>
</g>
</g>
<!-- Node3&#45;&gt;Node2 -->
<g id="edge2_Node000002_Node000003" class="edge">
<title>Node3&#45;&gt;Node2</title>
<g id="a_edge2_Node000002_Node000003"><a xlink:title=" ">
<path fill="none" stroke="#63b8ff" d="M46.69,-319.52C42.19,-311.56 38.11,-302.76 35.75,-294 33.77,-286.64 34.11,-278.89 35.73,-271.39"/>
<polygon fill="none" stroke="#63b8ff" points="35.71,-271.47 33.65,-264.56 39.24,-260 41.3,-266.91 35.71,-271.47"/>
</a>
</g>
<text text-anchor="middle" x="53.38" y="-284.5" font-family="Helvetica,sans-Serif" font-size="10.00" fill="grey"> +layout</text>
</g>
<!-- Node5 -->
<g id="Node000005" class="node">
<title>Node5</title>
<g id="a_Node000005"><a xlink:href="structTTL__const__int__ulong__tensor__t.html" target="_top" xlink:title=" ">
<polygon fill="white" stroke="none" points="234,-264.75 133,-264.75 133,-189.75 234,-189.75 234,-264.75"/>
<text text-anchor="start" x="137.75" y="-251.25" font-family="Helvetica,sans-Serif" font-size="10.00">TTL_const_int_ulong</text>
<text text-anchor="start" x="163.25" y="-240" font-family="Helvetica,sans-Serif" font-size="10.00">_tensor_t</text>
<text text-anchor="start" x="147" y="-225.25" font-family="Helvetica,sans-Serif" font-size="10.00">+</text>
<text text-anchor="start" x="167" y="-225.25" font-family="Helvetica,sans-Serif" font-size="10.00">base</text>
<text text-anchor="start" x="147" y="-210.25" font-family="Helvetica,sans-Serif" font-size="10.00">+</text>
<text text-anchor="start" x="167" y="-210.25" font-family="Helvetica,sans-Serif" font-size="10.00">elem_size</text>
<text text-anchor="start" x="182" y="-195.25" font-family="Helvetica,sans-Serif" font-size="10.00"> </text>
<polygon fill="#666666" stroke="#666666" points="133,-236.75 133,-236.75 234,-236.75 234,-236.75 133,-236.75"/>
<polygon fill="#666666" stroke="#666666" points="133,-206.75 133,-206.75 165,-206.75 165,-206.75 133,-206.75"/>
<polygon fill="#666666" stroke="#666666" points="165,-206.75 165,-206.75 234,-206.75 234,-206.75 165,-206.75"/>
<polygon fill="none" stroke="#666666" points="133,-189.75 133,-264.75 234,-264.75 234,-189.75 133,-189.75"/>
</a>
</g>
</g>
<!-- Node3&#45;&gt;Node5 -->
<g id="edge5_Node000005_Node000003" class="edge">
<title>Node3&#45;&gt;Node5</title>
<g id="a_edge5_Node000005_Node000003"><a xlink:title=" ">
<path fill="none" stroke="#63b8ff" d="M72.28,-319.63C75.12,-307.07 80.08,-293.1 88.75,-282.75 98.12,-271.56 105.73,-272.46 121.5,-265.62"/>
<polygon fill="none" stroke="#63b8ff" points="121.6,-265.57 125.18,-259.31 132.34,-260.21 128.76,-266.47 121.6,-265.57"/>
</a>
</g>
<text text-anchor="middle" x="105.38" y="-284.5" font-family="Helvetica,sans-Serif" font-size="10.00" fill="grey"> +layout</text>
</g>
<!-- Node4 -->
<g id="Node000004" class="node">
<title>Node4</title>
<g id="a_Node000004"><a xlink:href="structTTL__shape__t.html" target="_top" xlink:title="Description of a Shape.">
<polygon fill="white" stroke="none" points="205,-391 138,-391 138,-312 205,-312 205,-391"/>
<text text-anchor="start" x="142.62" y="-377.5" font-family="Helvetica,sans-Serif" font-size="10.00">TTL_shape_t</text>
<text text-anchor="start" x="147.5" y="-362.5" font-family="Helvetica,sans-Serif" font-size="10.00">+</text>
<text text-anchor="start" x="163" y="-362.5" font-family="Helvetica,sans-Serif" font-size="10.00">width</text>
<text text-anchor="start" x="147.5" y="-347.5" font-family="Helvetica,sans-Serif" font-size="10.00">+</text>
<text text-anchor="start" x="163" y="-347.5" font-family="Helvetica,sans-Serif" font-size="10.00">height</text>
<text text-anchor="start" x="147.5" y="-332.5" font-family="Helvetica,sans-Serif" font-size="10.00">+</text>
<text text-anchor="start" x="163" y="-332.5" font-family="Helvetica,sans-Serif" font-size="10.00">depth</text>
<text text-anchor="start" x="170" y="-317.5" font-family="Helvetica,sans-Serif" font-size="10.00"> </text>
<polygon fill="#666666" stroke="#666666" points="138,-374 138,-374 205,-374 205,-374 138,-374"/>
<polygon fill="#666666" stroke="#666666" points="138,-329 138,-329 161,-329 161,-329 138,-329"/>
<polygon fill="#666666" stroke="#666666" points="161,-329 161,-329 205,-329 205,-329 161,-329"/>
<polygon fill="none" stroke="#666666" points="138,-312 138,-391 205,-391 205,-312 138,-312"/>
</a>
</g>
</g>
<!-- Node4&#45;&gt;Node2 -->
<g id="edge3_Node000002_Node000004" class="edge">
<title>Node4&#45;&gt;Node2</title>
<g id="a_edge3_Node000002_Node000004"><a xlink:title=" ">
<path fill="none" stroke="#63b8ff" d="M148.97,-312.01C142.32,-302.01 134.63,-291.58 126.5,-282.75 121.6,-277.43 116.14,-272.21 110.51,-267.23"/>
<polygon fill="none" stroke="#63b8ff" points="110.78,-267.46 103.62,-266.63 101.62,-259.7 108.79,-260.53 110.78,-267.46"/>
</a>
</g>
<text text-anchor="middle" x="151.75" y="-284.5" font-family="Helvetica,sans-Serif" font-size="10.00" fill="grey"> +shape</text>
</g>
<!-- Node4&#45;&gt;Node5 -->
<g id="edge6_Node000005_Node000004" class="edge">
<title>Node4&#45;&gt;Node5</title>
<g id="a_edge6_Node000005_Node000004"><a xlink:title=" ">
<path fill="none" stroke="#63b8ff" d="M181.56,-312.1C182.78,-306.08 183.83,-299.9 184.5,-294 185.11,-288.64 185.46,-283.02 185.62,-277.42"/>
<polygon fill="none" stroke="#63b8ff" points="185.62,-277.41 181.67,-271.38 185.71,-265.41 189.67,-271.43 185.62,-277.41"/>
</a>
</g>
<text text-anchor="middle" x="201.75" y="-284.5" font-family="Helvetica,sans-Serif" font-size="10.00" fill="grey"> +shape</text>
</g>
<!-- Node5&#45;&gt;Node1 -->
<g id="edge4_Node000001_Node000005" class="edge">
<title>Node5&#45;&gt;Node1</title>
<g id="a_edge4_Node000001_Node000005"><a xlink:title=" ">
<path fill="none" stroke="#63b8ff" d="M171.37,-189.98C165.86,-173.96 159.1,-154.95 152.5,-138 151.7,-135.95 150.88,-133.87 150.05,-131.78"/>
<polygon fill="none" stroke="#63b8ff" points="149.99,-131.64 144.03,-127.59 145.47,-120.52 151.44,-124.58 149.99,-131.64"/>
</a>
</g>
<text text-anchor="middle" x="199.88" y="-151" font-family="Helvetica,sans-Serif" font-size="10.00" fill="grey"> +to_export_from</text>
</g>
</g>
</svg>
