<?xml version="1.0" encoding="UTF-8" standalone="no"?>
<!DOCTYPE svg PUBLIC "-//W3C//DTD SVG 1.1//EN"
 "http://www.w3.org/Graphics/SVG/1.1/DTD/svg11.dtd">
<!-- Generated by graphviz version 12.2.1 (20241206.2353)
 -->
<!-- Title: TTL_import_double_const_int_tensor_buffering_t Pages: 1 -->
<svg width="254pt" height="366pt"
 viewBox="0.00 0.00 253.88 365.75" xmlns="http://www.w3.org/2000/svg" xmlns:xlink="http://www.w3.org/1999/xlink">
<g id="graph0" class="graph" transform="scale(1 1) rotate(0) translate(4 361.75)">
<title>TTL_import_double_const_int_tensor_buffering_t</title>
<!-- Node1 -->
<g id="Node000001" class="node">
<title>Node1</title>
<g id="a_Node000001"><a xlink:title="Data required to perform double buffer pipelining.">
<polygon fill="#999999" stroke="none" points="186.75,-106.75 65.5,-106.75 65.5,0 186.75,0 186.75,-106.75"/>
<text text-anchor="start" x="69.5" y="-93.25" font-family="Helvetica,sans-Serif" font-size="10.00">TTL_import_double_const</text>
<text text-anchor="start" x="77" y="-82" font-family="Helvetica,sans-Serif" font-size="10.00">_int_tensor_buffering_t</text>
<text text-anchor="start" x="85.94" y="-66.75" font-family="Helvetica,sans-Serif" font-size="10.00">+</text>
<text text-anchor="start" x="112.38" y="-66.75" font-family="Helvetica,sans-Serif" font-size="10.00">index</text>
<text text-anchor="start" x="85.94" y="-51.5" font-family="Helvetica,sans-Serif" font-size="10.00">+</text>
<text text-anchor="start" x="112.38" y="-51.5" font-family="Helvetica,sans-Serif" font-size="10.00">int_base</text>
<text text-anchor="start" x="85.94" y="-36.25" font-family="Helvetica,sans-Serif" font-size="10.00">+</text>
<text text-anchor="start" x="112.38" y="-36.25" font-family="Helvetica,sans-Serif" font-size="10.00">common</text>
<text text-anchor="start" x="85.94" y="-21" font-family="Helvetica,sans-Serif" font-size="10.00">+</text>
<text text-anchor="start" x="112.38" y="-21" font-family="Helvetica,sans-Serif" font-size="10.00">event</text>
<text text-anchor="start" x="124.62" y="-5.75" font-family="Helvetica,sans-Serif" font-size="10.00"> </text>
<polygon fill="#666666" stroke="#666666" points="65.5,-78.25 65.5,-78.25 186.75,-78.25 186.75,-78.25 65.5,-78.25"/>
<polygon fill="#666666" stroke="#666666" points="65.5,-17.25 65.5,-17.25 110.38,-17.25 110.38,-17.25 65.5,-17.25"/>
<polygon fill="#666666" stroke="#666666" points="110.38,-17.25 110.38,-17.25 186.75,-17.25 186.75,-17.25 110.38,-17.25"/>
<polygon fill="none" stroke="#666666" points="65.5,0 65.5,-106.75 186.75,-106.75 186.75,0 65.5,0"/>
</a>
</g>
</g>
<!-- Node2 -->
<g id="Node000002" class="node">
<title>Node2</title>
<g id="a_Node000002"><a xlink:href="structTTL__const__ext__int__tensor__t.html" target="_top" xlink:title=" ">
<polygon fill="white" stroke="none" points="136.88,-230.25 7.38,-230.25 7.38,-165.25 136.88,-165.25 136.88,-230.25"/>
<text text-anchor="start" x="11.38" y="-216.75" font-family="Helvetica,sans-Serif" font-size="10.00">TTL_const_ext_int_tensor_t</text>
<text text-anchor="start" x="28.38" y="-201.5" font-family="Helvetica,sans-Serif" font-size="10.00">+</text>
<text text-anchor="start" x="55.38" y="-201.5" font-family="Helvetica,sans-Serif" font-size="10.00">base</text>
<text text-anchor="start" x="28.38" y="-186.25" font-family="Helvetica,sans-Serif" font-size="10.00">+</text>
<text text-anchor="start" x="55.38" y="-186.25" font-family="Helvetica,sans-Serif" font-size="10.00">elem_size</text>
<text text-anchor="start" x="70.62" y="-171" font-family="Helvetica,sans-Serif" font-size="10.00"> </text>
<polygon fill="#666666" stroke="#666666" points="7.38,-213 7.38,-213 136.88,-213 136.88,-213 7.38,-213"/>
<polygon fill="#666666" stroke="#666666" points="7.38,-182.5 7.38,-182.5 53.38,-182.5 53.38,-182.5 7.38,-182.5"/>
<polygon fill="#666666" stroke="#666666" points="53.38,-182.5 53.38,-182.5 136.88,-182.5 136.88,-182.5 53.38,-182.5"/>
<polygon fill="none" stroke="#666666" points="7.38,-165.25 7.38,-230.25 136.88,-230.25 136.88,-165.25 7.38,-165.25"/>
</a>
</g>
</g>
<!-- Node2&#45;&gt;Node1 -->
<g id="edge1_Node000001_Node000002" class="edge">
<title>Node2&#45;&gt;Node1</title>
<g id="a_edge1_Node000001_Node000002"><a xlink:title=" ">
<path fill="none" stroke="#63b8ff" d="M75.53,-165.29C77.52,-152.45 80.62,-137.63 85.38,-124.75 86.18,-122.56 87.06,-120.36 87.98,-118.16"/>
<polygon fill="none" stroke="#63b8ff" points="87.98,-118.16 86.86,-111.04 93.01,-107.27 94.13,-114.39 87.98,-118.16"/>
</a>
</g>
<text text-anchor="middle" x="120.25" y="-137.75" font-family="Helvetica,sans-Serif" font-size="10.00" fill="grey"> +ext_tensor_in</text>
<text text-anchor="middle" x="120.25" y="-126.5" font-family="Helvetica,sans-Serif" font-size="10.00" fill="grey">+ext_tensor_out</text>
</g>
<!-- Node3 -->
<g id="Node000003" class="node">
<title>Node3</title>
<g id="a_Node000003"><a xlink:href="structTTL__layout__t.html" target="_top" xlink:title="Description of a Tensor layout in memory.">
<polygon fill="white" stroke="none" points="80.25,-350.12 0,-350.12 0,-285.12 80.25,-285.12 80.25,-350.12"/>
<text text-anchor="start" x="11.62" y="-336.62" font-family="Helvetica,sans-Serif" font-size="10.00">TTL_layout_t</text>
<text text-anchor="start" x="4" y="-321.38" font-family="Helvetica,sans-Serif" font-size="10.00">+</text>
<text text-anchor="start" x="14" y="-321.38" font-family="Helvetica,sans-Serif" font-size="10.00">row_spacing</text>
<text text-anchor="start" x="4" y="-306.12" font-family="Helvetica,sans-Serif" font-size="10.00">+</text>
<text text-anchor="start" x="14" y="-306.12" font-family="Helvetica,sans-Serif" font-size="10.00">plane_spacing</text>
<text text-anchor="start" x="38.62" y="-290.88" font-family="Helvetica,sans-Serif" font-size="10.00"> </text>
<polygon fill="#666666" stroke="#666666" points="0,-332.88 0,-332.88 80.25,-332.88 80.25,-332.88 0,-332.88"/>
<polygon fill="#666666" stroke="#666666" points="0,-302.38 0,-302.38 12,-302.38 12,-302.38 0,-302.38"/>
<polygon fill="#666666" stroke="#666666" points="12,-302.38 12,-302.38 80.25,-302.38 80.25,-302.38 12,-302.38"/>
<polygon fill="none" stroke="#666666" points="0,-285.12 0,-350.12 80.25,-350.12 80.25,-285.12 0,-285.12"/>
</a>
</g>
</g>
<!-- Node3&#45;&gt;Node2 -->
<g id="edge2_Node000002_Node000003" class="edge">
<title>Node3&#45;&gt;Node2</title>
<g id="a_edge2_Node000002_Node000003"><a xlink:title=" ">
<path fill="none" stroke="#63b8ff" d="M37.86,-285.46C37.85,-273.6 38.88,-260.1 42.38,-248.25 43,-246.13 43.74,-244.02 44.56,-241.91"/>
<polygon fill="none" stroke="#63b8ff" points="44.61,-241.81 43.54,-234.68 49.71,-230.95 50.78,-238.08 44.61,-241.81"/>
</a>
</g>
<text text-anchor="middle" x="59.25" y="-250" font-family="Helvetica,sans-Serif" font-size="10.00" fill="grey"> +layout</text>
</g>
<!-- Node4 -->
<g id="Node000004" class="node">
<title>Node4</title>
<g id="a_Node000004"><a xlink:href="structTTL__shape__t.html" target="_top" xlink:title="Description of a Shape.">
<polygon fill="white" stroke="none" points="164,-357.75 98.25,-357.75 98.25,-277.5 164,-277.5 164,-357.75"/>
<text text-anchor="start" x="102.25" y="-344.25" font-family="Helvetica,sans-Serif" font-size="10.00">TTL_shape_t</text>
<text text-anchor="start" x="107.62" y="-329" font-family="Helvetica,sans-Serif" font-size="10.00">+</text>
<text text-anchor="start" x="123" y="-329" font-family="Helvetica,sans-Serif" font-size="10.00">width</text>
<text text-anchor="start" x="107.62" y="-313.75" font-family="Helvetica,sans-Serif" font-size="10.00">+</text>
<text text-anchor="start" x="123" y="-313.75" font-family="Helvetica,sans-Serif" font-size="10.00">height</text>
<text text-anchor="start" x="107.62" y="-298.5" font-family="Helvetica,sans-Serif" font-size="10.00">+</text>
<text text-anchor="start" x="123" y="-298.5" font-family="Helvetica,sans-Serif" font-size="10.00">depth</text>
<text text-anchor="start" x="129.62" y="-283.25" font-family="Helvetica,sans-Serif" font-size="10.00"> </text>
<polygon fill="#666666" stroke="#666666" points="98.25,-340.5 98.25,-340.5 164,-340.5 164,-340.5 98.25,-340.5"/>
<polygon fill="#666666" stroke="#666666" points="98.25,-294.75 98.25,-294.75 121,-294.75 121,-294.75 98.25,-294.75"/>
<polygon fill="#666666" stroke="#666666" points="121,-294.75 121,-294.75 164,-294.75 164,-294.75 121,-294.75"/>
<polygon fill="none" stroke="#666666" points="98.25,-277.5 98.25,-357.75 164,-357.75 164,-277.5 98.25,-277.5"/>
</a>
</g>
</g>
<!-- Node4&#45;&gt;Node2 -->
<g id="edge3_Node000002_Node000004" class="edge">
<title>Node4&#45;&gt;Node2</title>
<g id="a_edge3_Node000002_Node000004"><a xlink:title=" ">
<path fill="none" stroke="#63b8ff" d="M111.64,-277.7C105.85,-266.13 99.48,-253.4 93.57,-241.6"/>
<polygon fill="none" stroke="#63b8ff" points="93.63,-241.72 87.37,-238.14 88.26,-230.99 94.52,-234.56 93.63,-241.72"/>
</a>
</g>
<text text-anchor="middle" x="118.88" y="-250" font-family="Helvetica,sans-Serif" font-size="10.00" fill="grey"> +shape</text>
</g>
<!-- Node5 -->
<g id="Node000005" class="node">
<title>Node5</title>
<g id="a_Node000005"><a xlink:href="structTTL__tile__t.html" target="_top" xlink:title=" ">
<polygon fill="white" stroke="none" points="207.25,-222.62 155,-222.62 155,-172.88 207.25,-172.88 207.25,-222.62"/>
<text text-anchor="start" x="159" y="-209.12" font-family="Helvetica,sans-Serif" font-size="10.00">TTL_tile_t</text>
<text text-anchor="start" x="179.62" y="-193.88" font-family="Helvetica,sans-Serif" font-size="10.00"> </text>
<text text-anchor="start" x="179.62" y="-178.62" font-family="Helvetica,sans-Serif" font-size="10.00"> </text>
<polygon fill="#666666" stroke="#666666" points="155,-205.38 155,-205.38 207.25,-205.38 207.25,-205.38 155,-205.38"/>
<polygon fill="#666666" stroke="#666666" points="155,-190.12 155,-190.12 207.25,-190.12 207.25,-190.12 155,-190.12"/>
<polygon fill="none" stroke="#666666" points="155,-172.88 155,-222.62 207.25,-222.62 207.25,-172.88 155,-172.88"/>
</a>
</g>
</g>
<!-- Node4&#45;&gt;Node5 -->
<g id="edge5_Node000005_Node000004" class="edge">
<title>Node4&#45;&gt;Node5</title>
<g id="a_edge5_Node000005_Node000004"><a xlink:title=" ">
<path fill="none" stroke="#63b8ff" d="M145.63,-277.73C149.4,-268.04 153.55,-257.72 157.62,-248.25 159.64,-243.57 161.84,-238.68 164.06,-233.87"/>
<polygon fill="none" stroke="#63b8ff" points="164.04,-233.93 162.97,-226.8 169.15,-223.07 170.21,-230.2 164.04,-233.93"/>
</a>
</g>
<text text-anchor="middle" x="174.88" y="-250" font-family="Helvetica,sans-Serif" font-size="10.00" fill="grey"> +shape</text>
</g>
<!-- Node5&#45;&gt;Node1 -->
<g id="edge4_Node000001_Node000005" class="edge">
<title>Node5&#45;&gt;Node1</title>
<g id="a_edge4_Node000001_Node000005"><a xlink:title=" ">
<path fill="none" stroke="#63b8ff" d="M172.84,-172.98C167.86,-158.9 161.3,-140.74 155.12,-124.75 154.34,-122.72 153.53,-120.65 152.72,-118.57"/>
<polygon fill="none" stroke="#63b8ff" points="152.7,-118.52 146.76,-114.43 148.25,-107.37 154.19,-111.47 152.7,-118.52"/>
</a>
</g>
<text text-anchor="middle" x="185.77" y="-132.12" font-family="Helvetica,sans-Serif" font-size="10.00" fill="grey"> +prev_tile</text>
</g>
<!-- Node6 -->
<g id="Node000006" class="node">
<title>Node6</title>
<g id="a_Node000006"><a xlink:href="structTTL__offset__t.html" target="_top" xlink:title="Description of the 3D offset of an object.">
<polygon fill="white" stroke="none" points="245.88,-357.75 182.38,-357.75 182.38,-277.5 245.88,-277.5 245.88,-357.75"/>
<text text-anchor="start" x="186.38" y="-344.25" font-family="Helvetica,sans-Serif" font-size="10.00">TTL_offset_t</text>
<text text-anchor="start" x="196.62" y="-329" font-family="Helvetica,sans-Serif" font-size="10.00">+</text>
<text text-anchor="start" x="216.88" y="-329" font-family="Helvetica,sans-Serif" font-size="10.00">x</text>
<text text-anchor="start" x="196.62" y="-313.75" font-family="Helvetica,sans-Serif" font-size="10.00">+</text>
<text text-anchor="start" x="216.88" y="-313.75" font-family="Helvetica,sans-Serif" font-size="10.00">y</text>
<text text-anchor="start" x="196.62" y="-298.5" font-family="Helvetica,sans-Serif" font-size="10.00">+</text>
<text text-anchor="start" x="216.88" y="-298.5" font-family="Helvetica,sans-Serif" font-size="10.00">z</text>
<text text-anchor="start" x="212.62" y="-283.25" font-family="Helvetica,sans-Serif" font-size="10.00"> </text>
<polygon fill="#666666" stroke="#666666" points="182.38,-340.5 182.38,-340.5 245.88,-340.5 245.88,-340.5 182.38,-340.5"/>
<polygon fill="#666666" stroke="#666666" points="182.38,-294.75 182.38,-294.75 214.88,-294.75 214.88,-294.75 182.38,-294.75"/>
<polygon fill="#666666" stroke="#666666" points="214.88,-294.75 214.88,-294.75 245.88,-294.75 245.88,-294.75 214.88,-294.75"/>
<polygon fill="none" stroke="#666666" points="182.38,-277.5 182.38,-357.75 245.88,-357.75 245.88,-277.5 182.38,-277.5"/>
</a>
</g>
</g>
<!-- Node6&#45;&gt;Node5 -->
<g id="edge6_Node000005_Node000006" class="edge">
<title>Node6&#45;&gt;Node5</title>
<g id="a_edge6_Node000005_Node000006"><a xlink:title=" ">
<path fill="none" stroke="#63b8ff" d="M203.23,-277.7C199.36,-263.88 195.02,-248.39 191.22,-234.82"/>
<polygon fill="none" stroke="#63b8ff" points="191.25,-234.93 185.78,-230.23 188.02,-223.37 193.49,-228.07 191.25,-234.93"/>
</a>
</g>
<text text-anchor="middle" x="213.75" y="-250" font-family="Helvetica,sans-Serif" font-size="10.00" fill="grey"> +offset</text>
</g>
</g>
</svg>
