<?xml version="1.0" encoding="UTF-8" standalone="no"?>
<!DOCTYPE svg PUBLIC "-//W3C//DTD SVG 1.1//EN"
 "http://www.w3.org/Graphics/SVG/1.1/DTD/svg11.dtd">
<!-- Generated by graphviz version 12.2.1 (20241206.2353)
 -->
<!-- Title: TTL_io_short_tensor_t Pages: 1 -->
<svg width="271pt" height="421pt"
 viewBox="0.00 0.00 270.88 421.00" xmlns="http://www.w3.org/2000/svg" xmlns:xlink="http://www.w3.org/1999/xlink">
<g id="graph0" class="graph" transform="scale(1 1) rotate(0) translate(4 417)">
<title>TTL_io_short_tensor_t</title>
<!-- Node1 -->
<g id="Node000001" class="node">
<title>Node1</title>
<g id="a_Node000001"><a xlink:title="Describes a pair of internal Tensors after an operation.">
<polygon fill="#999999" stroke="none" points="200.25,-49.75 94,-49.75 94,0 200.25,0 200.25,-49.75"/>
<text text-anchor="start" x="98" y="-36.25" font-family="Helvetica,sans-Serif" font-size="10.00">TTL_io_short_tensor_t</text>
<text text-anchor="start" x="145.62" y="-21" font-family="Helvetica,sans-Serif" font-size="10.00"> </text>
<text text-anchor="start" x="145.62" y="-5.75" font-family="Helvetica,sans-Serif" font-size="10.00"> </text>
<polygon fill="#666666" stroke="#666666" points="94,-32.5 94,-32.5 200.25,-32.5 200.25,-32.5 94,-32.5"/>
<polygon fill="#666666" stroke="#666666" points="94,-17.25 94,-17.25 200.25,-17.25 200.25,-17.25 94,-17.25"/>
<polygon fill="none" stroke="#666666" points="94,0 94,-49.75 200.25,-49.75 200.25,0 94,0"/>
</a>
</g>
</g>
<!-- Node2 -->
<g id="Node000002" class="node">
<title>Node2</title>
<g id="a_Node000002"><a xlink:href="structTTL__int__short__sub__tensor__t.html" target="_top" xlink:title="const and non&#45;const sub tensors in the appropriate address space">
<polygon fill="white" stroke="none" points="212.25,-158 82,-158 82,-108.25 212.25,-108.25 212.25,-158"/>
<text text-anchor="start" x="86" y="-144.5" font-family="Helvetica,sans-Serif" font-size="10.00">TTL_int_short_sub_tensor_t</text>
<text text-anchor="start" x="108.25" y="-129.25" font-family="Helvetica,sans-Serif" font-size="10.00">+</text>
<text text-anchor="start" x="140.5" y="-129.25" font-family="Helvetica,sans-Serif" font-size="10.00">origin</text>
<text text-anchor="start" x="145.62" y="-114" font-family="Helvetica,sans-Serif" font-size="10.00"> </text>
<polygon fill="#666666" stroke="#666666" points="82,-140.75 82,-140.75 212.25,-140.75 212.25,-140.75 82,-140.75"/>
<polygon fill="#666666" stroke="#666666" points="82,-125.5 82,-125.5 138.5,-125.5 138.5,-125.5 82,-125.5"/>
<polygon fill="#666666" stroke="#666666" points="138.5,-125.5 138.5,-125.5 212.25,-125.5 212.25,-125.5 138.5,-125.5"/>
<polygon fill="none" stroke="#666666" points="82,-108.25 82,-158 212.25,-158 212.25,-108.25 82,-108.25"/>
</a>
</g>
</g>
<!-- Node2&#45;&gt;Node1 -->
<g id="edge1_Node000001_Node000002" class="edge">
<title>Node2&#45;&gt;Node1</title>
<g id="a_edge1_Node000001_Node000002"><a xlink:title=" ">
<path fill="none" stroke="#63b8ff" d="M147.12,-108.28C147.12,-94.75 147.12,-77.53 147.12,-62.33"/>
<polygon fill="none" stroke="#63b8ff" points="147.13,-62.54 143.13,-56.54 147.13,-50.54 151.13,-56.54 147.13,-62.54"/>
</a>
</g>
<text text-anchor="middle" x="182.38" y="-80.75" font-family="Helvetica,sans-Serif" font-size="10.00" fill="grey"> +imported_to</text>
<text text-anchor="middle" x="182.38" y="-69.5" font-family="Helvetica,sans-Serif" font-size="10.00" fill="grey">+to_export_from</text>
</g>
<!-- Node3 -->
<g id="Node000003" class="node">
<title>Node3</title>
<g id="a_Node000003"><a xlink:href="structTTL__int__short__tensor__t.html" target="_top" xlink:title="const and non&#45;const tensors in the appropriate address space">
<polygon fill="white" stroke="none" points="110.75,-277.88 1.5,-277.88 1.5,-212.88 110.75,-212.88 110.75,-277.88"/>
<text text-anchor="start" x="5.5" y="-264.38" font-family="Helvetica,sans-Serif" font-size="10.00">TTL_int_short_tensor_t</text>
<text text-anchor="start" x="17.44" y="-249.12" font-family="Helvetica,sans-Serif" font-size="10.00">+</text>
<text text-anchor="start" x="39.38" y="-249.12" font-family="Helvetica,sans-Serif" font-size="10.00">base</text>
<text text-anchor="start" x="17.44" y="-233.88" font-family="Helvetica,sans-Serif" font-size="10.00">+</text>
<text text-anchor="start" x="39.38" y="-233.88" font-family="Helvetica,sans-Serif" font-size="10.00">elem_size</text>
<text text-anchor="start" x="54.62" y="-218.62" font-family="Helvetica,sans-Serif" font-size="10.00"> </text>
<polygon fill="#666666" stroke="#666666" points="1.5,-260.62 1.5,-260.62 110.75,-260.62 110.75,-260.62 1.5,-260.62"/>
<polygon fill="#666666" stroke="#666666" points="1.5,-230.12 1.5,-230.12 37.38,-230.12 37.38,-230.12 1.5,-230.12"/>
<polygon fill="#666666" stroke="#666666" points="37.38,-230.12 37.38,-230.12 110.75,-230.12 110.75,-230.12 37.38,-230.12"/>
<polygon fill="none" stroke="#666666" points="1.5,-212.88 1.5,-277.88 110.75,-277.88 110.75,-212.88 1.5,-212.88"/>
</a>
</g>
</g>
<!-- Node3&#45;&gt;Node2 -->
<g id="edge2_Node000002_Node000003" class="edge">
<title>Node3&#45;&gt;Node2</title>
<g id="a_edge2_Node000002_Node000003"><a xlink:title=" ">
<path fill="none" stroke="#63b8ff" d="M72.46,-213C79.49,-200.86 88.3,-187.21 97.88,-176 100.57,-172.84 103.52,-169.72 106.59,-166.7"/>
<polygon fill="none" stroke="#63b8ff" points="106.56,-166.72 108.24,-159.71 115.36,-158.57 113.68,-165.58 106.56,-166.72"/>
</a>
</g>
<text text-anchor="middle" x="115.5" y="-177.75" font-family="Helvetica,sans-Serif" font-size="10.00" fill="grey"> +tensor</text>
</g>
<!-- Node4 -->
<g id="Node000004" class="node">
<title>Node4</title>
<g id="a_Node000004"><a xlink:href="structTTL__layout__t.html" target="_top" xlink:title="Description of a Tensor layout in memory.">
<polygon fill="white" stroke="none" points="80.25,-405.38 0,-405.38 0,-340.38 80.25,-340.38 80.25,-405.38"/>
<text text-anchor="start" x="11.62" y="-391.88" font-family="Helvetica,sans-Serif" font-size="10.00">TTL_layout_t</text>
<text text-anchor="start" x="4" y="-376.62" font-family="Helvetica,sans-Serif" font-size="10.00">+</text>
<text text-anchor="start" x="14" y="-376.62" font-family="Helvetica,sans-Serif" font-size="10.00">row_spacing</text>
<text text-anchor="start" x="4" y="-361.38" font-family="Helvetica,sans-Serif" font-size="10.00">+</text>
<text text-anchor="start" x="14" y="-361.38" font-family="Helvetica,sans-Serif" font-size="10.00">plane_spacing</text>
<text text-anchor="start" x="38.62" y="-346.12" font-family="Helvetica,sans-Serif" font-size="10.00"> </text>
<polygon fill="#666666" stroke="#666666" points="0,-388.12 0,-388.12 80.25,-388.12 80.25,-388.12 0,-388.12"/>
<polygon fill="#666666" stroke="#666666" points="0,-357.62 0,-357.62 12,-357.62 12,-357.62 0,-357.62"/>
<polygon fill="#666666" stroke="#666666" points="12,-357.62 12,-357.62 80.25,-357.62 80.25,-357.62 12,-357.62"/>
<polygon fill="none" stroke="#666666" points="0,-340.38 0,-405.38 80.25,-405.38 80.25,-340.38 0,-340.38"/>
</a>
</g>
</g>
<!-- Node4&#45;&gt;Node3 -->
<g id="edge3_Node000003_Node000004" class="edge">
<title>Node4&#45;&gt;Node3</title>
<g id="a_edge3_Node000003_Node000004"><a xlink:title=" ">
<path fill="none" stroke="#63b8ff" d="M39.16,-340.44C39.21,-328.79 39.74,-315.5 41.38,-303.5 41.97,-299.16 42.77,-294.67 43.71,-290.21"/>
<polygon fill="none" stroke="#63b8ff" points="43.66,-290.4 41.13,-283.65 46.39,-278.72 48.92,-285.47 43.66,-290.4"/>
</a>
</g>
<text text-anchor="middle" x="58.25" y="-305.25" font-family="Helvetica,sans-Serif" font-size="10.00" fill="grey"> +layout</text>
</g>
<!-- Node5 -->
<g id="Node000005" class="node">
<title>Node5</title>
<g id="a_Node000005"><a xlink:href="structTTL__shape__t.html" target="_top" xlink:title="Description of a Shape.">
<polygon fill="white" stroke="none" points="172,-413 106.25,-413 106.25,-332.75 172,-332.75 172,-413"/>
<text text-anchor="start" x="110.25" y="-399.5" font-family="Helvetica,sans-Serif" font-size="10.00">TTL_shape_t</text>
<text text-anchor="start" x="115.62" y="-384.25" font-family="Helvetica,sans-Serif" font-size="10.00">+</text>
<text text-anchor="start" x="131" y="-384.25" font-family="Helvetica,sans-Serif" font-size="10.00">width</text>
<text text-anchor="start" x="115.62" y="-369" font-family="Helvetica,sans-Serif" font-size="10.00">+</text>
<text text-anchor="start" x="131" y="-369" font-family="Helvetica,sans-Serif" font-size="10.00">height</text>
<text text-anchor="start" x="115.62" y="-353.75" font-family="Helvetica,sans-Serif" font-size="10.00">+</text>
<text text-anchor="start" x="131" y="-353.75" font-family="Helvetica,sans-Serif" font-size="10.00">depth</text>
<text text-anchor="start" x="137.62" y="-338.5" font-family="Helvetica,sans-Serif" font-size="10.00"> </text>
<polygon fill="#666666" stroke="#666666" points="106.25,-395.75 106.25,-395.75 172,-395.75 172,-395.75 106.25,-395.75"/>
<polygon fill="#666666" stroke="#666666" points="106.25,-350 106.25,-350 129,-350 129,-350 106.25,-350"/>
<polygon fill="#666666" stroke="#666666" points="129,-350 129,-350 172,-350 172,-350 129,-350"/>
<polygon fill="none" stroke="#666666" points="106.25,-332.75 106.25,-413 172,-413 172,-332.75 106.25,-332.75"/>
</a>
</g>
</g>
<!-- Node5&#45;&gt;Node2 -->
<g id="edge5_Node000002_Node000005" class="edge">
<title>Node5&#45;&gt;Node2</title>
<g id="a_edge5_Node000002_Node000005"><a xlink:title=" ">
<path fill="none" stroke="#63b8ff" d="M140.44,-332.88C141.95,-287.97 144.41,-214.75 145.89,-170.83"/>
<polygon fill="none" stroke="#63b8ff" points="145.89,-170.83 142.09,-164.7 146.29,-158.83 150.09,-164.97 145.89,-170.83"/>
</a>
</g>
<text text-anchor="middle" x="161.94" y="-241.5" font-family="Helvetica,sans-Serif" font-size="10.00" fill="grey"> +shape</text>
</g>
<!-- Node5&#45;&gt;Node3 -->
<g id="edge4_Node000003_Node000005" class="edge">
<title>Node5&#45;&gt;Node3</title>
<g id="a_edge4_Node000003_Node000005"><a xlink:title=" ">
<path fill="none" stroke="#63b8ff" d="M110.92,-332.76C106.74,-326.77 102.53,-320.62 98.62,-314.75 93.02,-306.32 87.19,-297.19 81.7,-288.42"/>
<polygon fill="none" stroke="#63b8ff" points="81.79,-288.56 75.23,-285.57 75.46,-278.37 82.02,-281.35 81.79,-288.56"/>
</a>
</g>
<text text-anchor="middle" x="115.88" y="-305.25" font-family="Helvetica,sans-Serif" font-size="10.00" fill="grey"> +shape</text>
</g>
<!-- Node6 -->
<g id="Node000006" class="node">
<title>Node6</title>
<g id="a_Node000006"><a xlink:href="structTTL__offset__t.html" target="_top" xlink:title="Description of the 3D offset of an object.">
<polygon fill="white" stroke="none" points="262.88,-285.5 199.38,-285.5 199.38,-205.25 262.88,-205.25 262.88,-285.5"/>
<text text-anchor="start" x="203.38" y="-272" font-family="Helvetica,sans-Serif" font-size="10.00">TTL_offset_t</text>
<text text-anchor="start" x="213.62" y="-256.75" font-family="Helvetica,sans-Serif" font-size="10.00">+</text>
<text text-anchor="start" x="233.88" y="-256.75" font-family="Helvetica,sans-Serif" font-size="10.00">x</text>
<text text-anchor="start" x="213.62" y="-241.5" font-family="Helvetica,sans-Serif" font-size="10.00">+</text>
<text text-anchor="start" x="233.88" y="-241.5" font-family="Helvetica,sans-Serif" font-size="10.00">y</text>
<text text-anchor="start" x="213.62" y="-226.25" font-family="Helvetica,sans-Serif" font-size="10.00">+</text>
<text text-anchor="start" x="233.88" y="-226.25" font-family="Helvetica,sans-Serif" font-size="10.00">z</text>
<text text-anchor="start" x="229.62" y="-211" font-family="Helvetica,sans-Serif" font-size="10.00"> </text>
<polygon fill="#666666" stroke="#666666" points="199.38,-268.25 199.38,-268.25 262.88,-268.25 262.88,-268.25 199.38,-268.25"/>
<polygon fill="#666666" stroke="#666666" points="199.38,-222.5 199.38,-222.5 231.88,-222.5 231.88,-222.5 199.38,-222.5"/>
<polygon fill="#666666" stroke="#666666" points="231.88,-222.5 231.88,-222.5 262.88,-222.5 262.88,-222.5 231.88,-222.5"/>
<polygon fill="none" stroke="#666666" points="199.38,-205.25 199.38,-285.5 262.88,-285.5 262.88,-205.25 199.38,-205.25"/>
</a>
</g>
</g>
<!-- Node6&#45;&gt;Node2 -->
<g id="edge6_Node000002_Node000006" class="edge">
<title>Node6&#45;&gt;Node2</title>
<g id="a_edge6_Node000002_Node000006"><a xlink:title=" ">
<path fill="none" stroke="#63b8ff" d="M201.51,-205.5C192.25,-193.35 182.11,-180.05 173.12,-168.25"/>
<polygon fill="none" stroke="#63b8ff" points="173.07,-168.17 166.25,-165.83 165.79,-158.63 172.61,-160.98 173.07,-168.17"/>
</a>
</g>
<text text-anchor="middle" x="213.23" y="-177.75" font-family="Helvetica,sans-Serif" font-size="10.00" fill="grey"> +sub_offset</text>
</g>
</g>
</svg>
