<?xml version="1.0" encoding="UTF-8" standalone="no"?>
<!DOCTYPE svg PUBLIC "-//W3C//DTD SVG 1.1//EN"
 "http://www.w3.org/Graphics/SVG/1.1/DTD/svg11.dtd">
<!-- Generated by graphviz version 12.2.1 (20241206.2353)
 -->
<!-- Title: TTL_duplex_const_uchar_tensor_buffering_t Pages: 1 -->
<svg width="244pt" height="404pt"
 viewBox="0.00 0.00 243.98 403.50" xmlns="http://www.w3.org/2000/svg" xmlns:xlink="http://www.w3.org/1999/xlink">
<g id="graph0" class="graph" transform="scale(1 1) rotate(0) translate(4 399.5)">
<title>TTL_duplex_const_uchar_tensor_buffering_t</title>
<!-- Node1 -->
<g id="Node000001" class="node">
<title>Node1</title>
<g id="a_Node000001"><a xlink:title="Data required to perform duplex buffer pipelining.">
<polygon fill="#999999" stroke="none" points="177.62,-122 60.12,-122 60.12,0 177.62,0 177.62,-122"/>
<text text-anchor="start" x="64.12" y="-108.5" font-family="Helvetica,sans-Serif" font-size="10.00">TTL_duplex_const_uchar</text>
<text text-anchor="start" x="77.62" y="-97.25" font-family="Helvetica,sans-Serif" font-size="10.00">_tensor_buffering_t</text>
<text text-anchor="start" x="70.25" y="-82" font-family="Helvetica,sans-Serif" font-size="10.00">+</text>
<text text-anchor="start" x="86.38" y="-82" font-family="Helvetica,sans-Serif" font-size="10.00">index</text>
<text text-anchor="start" x="70.25" y="-66.75" font-family="Helvetica,sans-Serif" font-size="10.00">+</text>
<text text-anchor="start" x="86.38" y="-66.75" font-family="Helvetica,sans-Serif" font-size="10.00">int_base</text>
<text text-anchor="start" x="70.25" y="-51.5" font-family="Helvetica,sans-Serif" font-size="10.00">+</text>
<text text-anchor="start" x="86.38" y="-51.5" font-family="Helvetica,sans-Serif" font-size="10.00">common</text>
<text text-anchor="start" x="70.25" y="-36.25" font-family="Helvetica,sans-Serif" font-size="10.00">+</text>
<text text-anchor="start" x="86.38" y="-36.25" font-family="Helvetica,sans-Serif" font-size="10.00">events</text>
<text text-anchor="start" x="70.25" y="-21" font-family="Helvetica,sans-Serif" font-size="10.00">+</text>
<text text-anchor="start" x="86.38" y="-21" font-family="Helvetica,sans-Serif" font-size="10.00">prev_out_tensors</text>
<text text-anchor="start" x="117.38" y="-5.75" font-family="Helvetica,sans-Serif" font-size="10.00"> </text>
<polygon fill="#666666" stroke="#666666" points="60.12,-93.5 60.12,-93.5 177.62,-93.5 177.62,-93.5 60.12,-93.5"/>
<polygon fill="#666666" stroke="#666666" points="60.12,-17.25 60.12,-17.25 84.38,-17.25 84.38,-17.25 60.12,-17.25"/>
<polygon fill="#666666" stroke="#666666" points="84.38,-17.25 84.38,-17.25 177.62,-17.25 177.62,-17.25 84.38,-17.25"/>
<polygon fill="none" stroke="#666666" points="60.12,0 60.12,-122 177.62,-122 177.62,0 60.12,0"/>
</a>
</g>
</g>
<!-- Node2 -->
<g id="Node000002" class="node">
<title>Node2</title>
<g id="a_Node000002"><a xlink:href="structTTL__ext__uchar__tensor__t.html" target="_top" xlink:title="const and non&#45;const tensors in the appropriate address space">
<polygon fill="white" stroke="none" points="113.75,-262.38 0,-262.38 0,-197.38 113.75,-197.38 113.75,-262.38"/>
<text text-anchor="start" x="4" y="-248.88" font-family="Helvetica,sans-Serif" font-size="10.00">TTL_ext_uchar_tensor_t</text>
<text text-anchor="start" x="17.06" y="-233.62" font-family="Helvetica,sans-Serif" font-size="10.00">+</text>
<text text-anchor="start" x="40.12" y="-233.62" font-family="Helvetica,sans-Serif" font-size="10.00">base</text>
<text text-anchor="start" x="17.06" y="-218.38" font-family="Helvetica,sans-Serif" font-size="10.00">+</text>
<text text-anchor="start" x="40.12" y="-218.38" font-family="Helvetica,sans-Serif" font-size="10.00">elem_size</text>
<text text-anchor="start" x="55.38" y="-203.12" font-family="Helvetica,sans-Serif" font-size="10.00"> </text>
<polygon fill="#666666" stroke="#666666" points="0,-245.12 0,-245.12 113.75,-245.12 113.75,-245.12 0,-245.12"/>
<polygon fill="#666666" stroke="#666666" points="0,-214.62 0,-214.62 38.12,-214.62 38.12,-214.62 0,-214.62"/>
<polygon fill="#666666" stroke="#666666" points="38.12,-214.62 38.12,-214.62 113.75,-214.62 113.75,-214.62 38.12,-214.62"/>
<polygon fill="none" stroke="#666666" points="0,-197.38 0,-262.38 113.75,-262.38 113.75,-197.38 0,-197.38"/>
</a>
</g>
</g>
<!-- Node2&#45;&gt;Node1 -->
<g id="edge1_Node000001_Node000002" class="edge">
<title>Node2&#45;&gt;Node1</title>
<g id="a_edge1_Node000001_Node000002"><a xlink:title=" ">
<path fill="none" stroke="#63b8ff" d="M64.42,-197.62C68.9,-180.4 75.09,-158.78 82.12,-140 82.94,-137.83 83.78,-135.65 84.66,-133.44"/>
<polygon fill="none" stroke="#63b8ff" points="84.62,-133.53 83.23,-126.46 89.23,-122.45 90.62,-129.53 84.62,-133.53"/>
</a>
</g>
<text text-anchor="middle" x="117" y="-164.25" font-family="Helvetica,sans-Serif" font-size="10.00" fill="grey"> +ext_tensor_in</text>
<text text-anchor="middle" x="117" y="-153" font-family="Helvetica,sans-Serif" font-size="10.00" fill="grey">+ext_tensor_out</text>
<text text-anchor="middle" x="117" y="-141.75" font-family="Helvetica,sans-Serif" font-size="10.00" fill="grey">+to_export_to</text>
</g>
<!-- Node3 -->
<g id="Node000003" class="node">
<title>Node3</title>
<g id="a_Node000003"><a xlink:href="structTTL__layout__t.html" target="_top" xlink:title="Description of a Tensor layout in memory.">
<polygon fill="white" stroke="none" points="108,-387.88 27.75,-387.88 27.75,-322.88 108,-322.88 108,-387.88"/>
<text text-anchor="start" x="39.38" y="-374.38" font-family="Helvetica,sans-Serif" font-size="10.00">TTL_layout_t</text>
<text text-anchor="start" x="31.75" y="-359.12" font-family="Helvetica,sans-Serif" font-size="10.00">+</text>
<text text-anchor="start" x="41.75" y="-359.12" font-family="Helvetica,sans-Serif" font-size="10.00">row_spacing</text>
<text text-anchor="start" x="31.75" y="-343.88" font-family="Helvetica,sans-Serif" font-size="10.00">+</text>
<text text-anchor="start" x="41.75" y="-343.88" font-family="Helvetica,sans-Serif" font-size="10.00">plane_spacing</text>
<text text-anchor="start" x="66.38" y="-328.62" font-family="Helvetica,sans-Serif" font-size="10.00"> </text>
<polygon fill="#666666" stroke="#666666" points="27.75,-370.62 27.75,-370.62 108,-370.62 108,-370.62 27.75,-370.62"/>
<polygon fill="#666666" stroke="#666666" points="27.75,-340.12 27.75,-340.12 39.75,-340.12 39.75,-340.12 27.75,-340.12"/>
<polygon fill="#666666" stroke="#666666" points="39.75,-340.12 39.75,-340.12 108,-340.12 108,-340.12 39.75,-340.12"/>
<polygon fill="none" stroke="#666666" points="27.75,-322.88 27.75,-387.88 108,-387.88 108,-322.88 27.75,-322.88"/>
</a>
</g>
</g>
<!-- Node3&#45;&gt;Node2 -->
<g id="edge2_Node000002_Node000003" class="edge">
<title>Node3&#45;&gt;Node2</title>
<g id="a_edge2_Node000002_Node000003"><a xlink:title=" ">
<path fill="none" stroke="#63b8ff" d="M46.06,-323.03C41.56,-314.98 37.48,-306.09 35.12,-297.25 33.15,-289.82 33.48,-282 35.11,-274.43"/>
<polygon fill="none" stroke="#63b8ff" points="35.12,-274.4 33.04,-267.49 38.62,-262.92 40.69,-269.83 35.12,-274.4"/>
</a>
</g>
<text text-anchor="middle" x="52" y="-287.75" font-family="Helvetica,sans-Serif" font-size="10.00" fill="grey"> +layout</text>
</g>
<!-- Node5 -->
<g id="Node000005" class="node">
<title>Node5</title>
<g id="a_Node000005"><a xlink:href="structTTL__const__int__uchar__tensor__t.html" target="_top" xlink:title=" ">
<polygon fill="white" stroke="none" points="232,-268 131.75,-268 131.75,-191.75 232,-191.75 232,-268"/>
<text text-anchor="start" x="135.75" y="-254.5" font-family="Helvetica,sans-Serif" font-size="10.00">TTL_const_int_uchar</text>
<text text-anchor="start" x="161.62" y="-243.25" font-family="Helvetica,sans-Serif" font-size="10.00">_tensor_t</text>
<text text-anchor="start" x="145.44" y="-228" font-family="Helvetica,sans-Serif" font-size="10.00">+</text>
<text text-anchor="start" x="165.12" y="-228" font-family="Helvetica,sans-Serif" font-size="10.00">base</text>
<text text-anchor="start" x="145.44" y="-212.75" font-family="Helvetica,sans-Serif" font-size="10.00">+</text>
<text text-anchor="start" x="165.12" y="-212.75" font-family="Helvetica,sans-Serif" font-size="10.00">elem_size</text>
<text text-anchor="start" x="180.38" y="-197.5" font-family="Helvetica,sans-Serif" font-size="10.00"> </text>
<polygon fill="#666666" stroke="#666666" points="131.75,-239.5 131.75,-239.5 232,-239.5 232,-239.5 131.75,-239.5"/>
<polygon fill="#666666" stroke="#666666" points="131.75,-209 131.75,-209 163.12,-209 163.12,-209 131.75,-209"/>
<polygon fill="#666666" stroke="#666666" points="163.12,-209 163.12,-209 232,-209 232,-209 163.12,-209"/>
<polygon fill="none" stroke="#666666" points="131.75,-191.75 131.75,-268 232,-268 232,-191.75 131.75,-191.75"/>
</a>
</g>
</g>
<!-- Node3&#45;&gt;Node5 -->
<g id="edge5_Node000005_Node000003" class="edge">
<title>Node3&#45;&gt;Node5</title>
<g id="a_edge5_Node000005_Node000003"><a xlink:title=" ">
<path fill="none" stroke="#63b8ff" d="M71.74,-322.92C74.58,-310.34 79.53,-296.4 88.12,-286 97.21,-275 104.62,-275.75 120.26,-268.71"/>
<polygon fill="none" stroke="#63b8ff" points="120.36,-268.66 123.87,-262.36 131.04,-263.17 127.53,-269.47 120.36,-268.66"/>
</a>
</g>
<text text-anchor="middle" x="105" y="-287.75" font-family="Helvetica,sans-Serif" font-size="10.00" fill="grey"> +layout</text>
</g>
<!-- Node4 -->
<g id="Node000004" class="node">
<title>Node4</title>
<g id="a_Node000004"><a xlink:href="structTTL__shape__t.html" target="_top" xlink:title="Description of a Shape.">
<polygon fill="white" stroke="none" points="202.75,-395.5 137,-395.5 137,-315.25 202.75,-315.25 202.75,-395.5"/>
<text text-anchor="start" x="141" y="-382" font-family="Helvetica,sans-Serif" font-size="10.00">TTL_shape_t</text>
<text text-anchor="start" x="146.38" y="-366.75" font-family="Helvetica,sans-Serif" font-size="10.00">+</text>
<text text-anchor="start" x="161.75" y="-366.75" font-family="Helvetica,sans-Serif" font-size="10.00">width</text>
<text text-anchor="start" x="146.38" y="-351.5" font-family="Helvetica,sans-Serif" font-size="10.00">+</text>
<text text-anchor="start" x="161.75" y="-351.5" font-family="Helvetica,sans-Serif" font-size="10.00">height</text>
<text text-anchor="start" x="146.38" y="-336.25" font-family="Helvetica,sans-Serif" font-size="10.00">+</text>
<text text-anchor="start" x="161.75" y="-336.25" font-family="Helvetica,sans-Serif" font-size="10.00">depth</text>
<text text-anchor="start" x="168.38" y="-321" font-family="Helvetica,sans-Serif" font-size="10.00"> </text>
<polygon fill="#666666" stroke="#666666" points="137,-378.25 137,-378.25 202.75,-378.25 202.75,-378.25 137,-378.25"/>
<polygon fill="#666666" stroke="#666666" points="137,-332.5 137,-332.5 159.75,-332.5 159.75,-332.5 137,-332.5"/>
<polygon fill="#666666" stroke="#666666" points="159.75,-332.5 159.75,-332.5 202.75,-332.5 202.75,-332.5 159.75,-332.5"/>
<polygon fill="none" stroke="#666666" points="137,-315.25 137,-395.5 202.75,-395.5 202.75,-315.25 137,-315.25"/>
</a>
</g>
</g>
<!-- Node4&#45;&gt;Node2 -->
<g id="edge3_Node000002_Node000004" class="edge">
<title>Node4&#45;&gt;Node2</title>
<g id="a_edge3_Node000002_Node000004"><a xlink:title=" ">
<path fill="none" stroke="#63b8ff" d="M147.97,-315.53C141.47,-305.44 133.91,-294.91 125.88,-286 121.19,-280.81 115.98,-275.71 110.59,-270.85"/>
<polygon fill="none" stroke="#63b8ff" points="110.52,-270.79 103.36,-269.91 101.43,-262.96 108.59,-263.85 110.52,-270.79"/>
</a>
</g>
<text text-anchor="middle" x="151.62" y="-287.75" font-family="Helvetica,sans-Serif" font-size="10.00" fill="grey"> +shape</text>
</g>
<!-- Node4&#45;&gt;Node5 -->
<g id="edge6_Node000005_Node000004" class="edge">
<title>Node4&#45;&gt;Node5</title>
<g id="a_edge6_Node000005_Node000004"><a xlink:title=" ">
<path fill="none" stroke="#63b8ff" d="M180.77,-315.27C182.06,-309.28 183.17,-303.13 183.88,-297.25 184.52,-291.91 184.86,-286.3 184.99,-280.72"/>
<polygon fill="none" stroke="#63b8ff" points="184.99,-280.73 180.97,-274.74 184.96,-268.73 188.97,-274.72 184.99,-280.73"/>
</a>
</g>
<text text-anchor="middle" x="202.03" y="-287.75" font-family="Helvetica,sans-Serif" font-size="10.00" fill="grey"> +shape</text>
</g>
<!-- Node5&#45;&gt;Node1 -->
<g id="edge4_Node000001_Node000005" class="edge">
<title>Node5&#45;&gt;Node1</title>
<g id="a_edge4_Node000001_Node000005"><a xlink:title=" ">
<path fill="none" stroke="#63b8ff" d="M170.08,-191.9C164.78,-175.85 158.29,-156.9 151.88,-140 151.1,-137.97 150.31,-135.91 149.5,-133.84"/>
<polygon fill="none" stroke="#63b8ff" points="149.51,-133.85 143.57,-129.75 145.07,-122.7 151,-126.79 149.51,-133.85"/>
</a>
</g>
<text text-anchor="middle" x="199.6" y="-153" font-family="Helvetica,sans-Serif" font-size="10.00" fill="grey"> +to_export_from</text>
</g>
</g>
</svg>
