<?xml version="1.0" encoding="UTF-8" standalone="no"?>
<!DOCTYPE svg PUBLIC "-//W3C//DTD SVG 1.1//EN"
 "http://www.w3.org/Graphics/SVG/1.1/DTD/svg11.dtd">
<!-- Generated by graphviz version 12.0.0 (20240704.0754)
 -->
<!-- Title: TTL_simplex_const_void_tensor_buffering_t Pages: 1 -->
<svg width="459pt" height="477pt"
 viewBox="0.00 0.00 459.00 476.75" xmlns="http://www.w3.org/2000/svg" xmlns:xlink="http://www.w3.org/1999/xlink">
<g id="graph0" class="graph" transform="scale(1 1) rotate(0) translate(4 472.75)">
<title>TTL_simplex_const_void_tensor_buffering_t</title>
<!-- Node1 -->
<g id="Node000001" class="node">
<title>Node1</title>
<g id="a_Node000001"><a xlink:title=" ">
<polygon fill="#999999" stroke="none" points="329.5,-120 211.5,-120 211.5,0 329.5,0 329.5,-120"/>
<text text-anchor="start" x="216.12" y="-106.5" font-family="Helvetica,sans-Serif" font-size="10.00">TTL_simplex_const_void</text>
<text text-anchor="start" x="229.25" y="-95.25" font-family="Helvetica,sans-Serif" font-size="10.00">_tensor_buffering_t</text>
<text text-anchor="start" x="230" y="-80.5" font-family="Helvetica,sans-Serif" font-size="10.00">+</text>
<text text-anchor="start" x="254.5" y="-80.5" font-family="Helvetica,sans-Serif" font-size="10.00">index</text>
<text text-anchor="start" x="230" y="-65.5" font-family="Helvetica,sans-Serif" font-size="10.00">+</text>
<text text-anchor="start" x="254.5" y="-65.5" font-family="Helvetica,sans-Serif" font-size="10.00">int_base</text>
<text text-anchor="start" x="230" y="-50.5" font-family="Helvetica,sans-Serif" font-size="10.00">+</text>
<text text-anchor="start" x="254.5" y="-50.5" font-family="Helvetica,sans-Serif" font-size="10.00">common</text>
<text text-anchor="start" x="230" y="-35.5" font-family="Helvetica,sans-Serif" font-size="10.00">+</text>
<text text-anchor="start" x="254.5" y="-35.5" font-family="Helvetica,sans-Serif" font-size="10.00">event_in</text>
<text text-anchor="start" x="230" y="-20.5" font-family="Helvetica,sans-Serif" font-size="10.00">+</text>
<text text-anchor="start" x="254.5" y="-20.5" font-family="Helvetica,sans-Serif" font-size="10.00">event_out</text>
<text text-anchor="start" x="269" y="-5.5" font-family="Helvetica,sans-Serif" font-size="10.00"> </text>
<polygon fill="#666666" stroke="#666666" points="211.5,-92 211.5,-92 329.5,-92 329.5,-92 211.5,-92"/>
<polygon fill="#666666" stroke="#666666" points="211.5,-17 211.5,-17 252.5,-17 252.5,-17 211.5,-17"/>
<polygon fill="#666666" stroke="#666666" points="252.5,-17 252.5,-17 329.5,-17 329.5,-17 252.5,-17"/>
<polygon fill="none" stroke="#666666" points="211.5,0 211.5,-120 329.5,-120 329.5,0 211.5,0"/>
</a>
</g>
</g>
<!-- Node2 -->
<g id="Node000002" class="node">
<title>Node2</title>
<g id="a_Node000002"><a xlink:href="structTTL__ext__void__tensor__t.html" target="_top" xlink:title="const and non&#45;const tensors in the appropriate address space">
<polygon fill="white" stroke="none" points="109,-335 0,-335 0,-271 109,-271 109,-335"/>
<text text-anchor="start" x="4.62" y="-321.5" font-family="Helvetica,sans-Serif" font-size="10.00">TTL_ext_void_tensor_t</text>
<text text-anchor="start" x="16" y="-306.5" font-family="Helvetica,sans-Serif" font-size="10.00">+</text>
<text text-anchor="start" x="38" y="-306.5" font-family="Helvetica,sans-Serif" font-size="10.00">base</text>
<text text-anchor="start" x="16" y="-291.5" font-family="Helvetica,sans-Serif" font-size="10.00">+</text>
<text text-anchor="start" x="38" y="-291.5" font-family="Helvetica,sans-Serif" font-size="10.00">elem_size</text>
<text text-anchor="start" x="53" y="-276.5" font-family="Helvetica,sans-Serif" font-size="10.00"> </text>
<polygon fill="#666666" stroke="#666666" points="0,-318 0,-318 109,-318 109,-318 0,-318"/>
<polygon fill="#666666" stroke="#666666" points="0,-288 0,-288 36,-288 36,-288 0,-288"/>
<polygon fill="#666666" stroke="#666666" points="36,-288 36,-288 109,-288 109,-288 36,-288"/>
<polygon fill="none" stroke="#666666" points="0,-271 0,-335 109,-335 109,-271 0,-271"/>
</a>
</g>
</g>
<!-- Node2&#45;&gt;Node1 -->
<g id="edge1_Node000001_Node000002" class="edge">
<title>Node2&#45;&gt;Node1</title>
<g id="a_edge1_Node000001_Node000002"><a xlink:title=" ">
<path fill="none" stroke="#63b8ff" d="M66.72,-271.02C79.15,-242.08 100.45,-198.73 127.75,-167.25 148.65,-143.15 175.91,-121.21 201,-103.6"/>
<polygon fill="none" stroke="#63b8ff" points="200.96,-103.63 203.65,-96.94 210.86,-96.84 208.17,-103.53 200.96,-103.63"/>
</a>
</g>
<text text-anchor="middle" x="162.38" y="-193.5" font-family="Helvetica,sans-Serif" font-size="10.00" fill="grey"> +ext_tensor_in</text>
<text text-anchor="middle" x="162.38" y="-182.25" font-family="Helvetica,sans-Serif" font-size="10.00" fill="grey">+ext_tensor_out</text>
</g>
<!-- Node3 -->
<g id="Node000003" class="node">
<title>Node3</title>
<g id="a_Node000003"><a xlink:href="structTTL__layout__t.html" target="_top" xlink:title="Description of a Tensor layout in memory.">
<polygon fill="white" stroke="none" points="153.5,-461.25 73.5,-461.25 73.5,-397.25 153.5,-397.25 153.5,-461.25"/>
<text text-anchor="start" x="85" y="-447.75" font-family="Helvetica,sans-Serif" font-size="10.00">TTL_layout_t</text>
<text text-anchor="start" x="77.5" y="-432.75" font-family="Helvetica,sans-Serif" font-size="10.00">+</text>
<text text-anchor="start" x="87.5" y="-432.75" font-family="Helvetica,sans-Serif" font-size="10.00">row_spacing</text>
<text text-anchor="start" x="77.5" y="-417.75" font-family="Helvetica,sans-Serif" font-size="10.00">+</text>
<text text-anchor="start" x="87.5" y="-417.75" font-family="Helvetica,sans-Serif" font-size="10.00">plane_spacing</text>
<text text-anchor="start" x="112" y="-402.75" font-family="Helvetica,sans-Serif" font-size="10.00"> </text>
<polygon fill="#666666" stroke="#666666" points="73.5,-444.25 73.5,-444.25 153.5,-444.25 153.5,-444.25 73.5,-444.25"/>
<polygon fill="#666666" stroke="#666666" points="73.5,-414.25 73.5,-414.25 85.5,-414.25 85.5,-414.25 73.5,-414.25"/>
<polygon fill="#666666" stroke="#666666" points="85.5,-414.25 85.5,-414.25 153.5,-414.25 153.5,-414.25 85.5,-414.25"/>
<polygon fill="none" stroke="#666666" points="73.5,-397.25 73.5,-461.25 153.5,-461.25 153.5,-397.25 73.5,-397.25"/>
</a>
</g>
</g>
<!-- Node3&#45;&gt;Node2 -->
<g id="edge2_Node000002_Node000003" class="edge">
<title>Node3&#45;&gt;Node2</title>
<g id="a_edge2_Node000002_Node000003"><a xlink:title=" ">
<path fill="none" stroke="#63b8ff" d="M73.74,-402.23C64.08,-393.77 55.03,-383.48 49.75,-371.75 46.38,-364.27 45.2,-355.85 45.26,-347.56"/>
<polygon fill="none" stroke="#63b8ff" points="45.25,-347.65 41.72,-341.36 46.17,-335.68 49.7,-341.97 45.25,-347.65"/>
</a>
</g>
<text text-anchor="middle" x="67.38" y="-362.25" font-family="Helvetica,sans-Serif" font-size="10.00" fill="grey"> +layout</text>
</g>
<!-- Node8 -->
<g id="Node000008" class="node">
<title>Node8</title>
<g id="a_Node000008"><a xlink:href="structTTL__int__void__tensor__t.html" target="_top" xlink:title="const and non&#45;const tensors in the appropriate address space">
<polygon fill="white" stroke="none" points="234,-335 127,-335 127,-271 234,-271 234,-335"/>
<text text-anchor="start" x="131.75" y="-321.5" font-family="Helvetica,sans-Serif" font-size="10.00">TTL_int_void_tensor_t</text>
<text text-anchor="start" x="142.5" y="-306.5" font-family="Helvetica,sans-Serif" font-size="10.00">+</text>
<text text-anchor="start" x="164" y="-306.5" font-family="Helvetica,sans-Serif" font-size="10.00">base</text>
<text text-anchor="start" x="142.5" y="-291.5" font-family="Helvetica,sans-Serif" font-size="10.00">+</text>
<text text-anchor="start" x="164" y="-291.5" font-family="Helvetica,sans-Serif" font-size="10.00">elem_size</text>
<text text-anchor="start" x="179" y="-276.5" font-family="Helvetica,sans-Serif" font-size="10.00"> </text>
<polygon fill="#666666" stroke="#666666" points="127,-318 127,-318 234,-318 234,-318 127,-318"/>
<polygon fill="#666666" stroke="#666666" points="127,-288 127,-288 162,-288 162,-288 127,-288"/>
<polygon fill="#666666" stroke="#666666" points="162,-288 162,-288 234,-288 234,-288 162,-288"/>
<polygon fill="none" stroke="#666666" points="127,-271 127,-335 234,-335 234,-271 127,-271"/>
</a>
</g>
</g>
<!-- Node3&#45;&gt;Node8 -->
<g id="edge9_Node000008_Node000003" class="edge">
<title>Node3&#45;&gt;Node8</title>
<g id="a_edge9_Node000008_Node000003"><a xlink:title=" ">
<path fill="none" stroke="#63b8ff" d="M130.06,-397.54C138.44,-382.01 148.73,-362.92 157.83,-346.05"/>
<polygon fill="none" stroke="#63b8ff" points="157.77,-346.15 157.1,-338.97 163.47,-335.58 164.14,-342.76 157.77,-346.15"/>
</a>
</g>
<text text-anchor="middle" x="165.38" y="-362.25" font-family="Helvetica,sans-Serif" font-size="10.00" fill="grey"> +layout</text>
</g>
<!-- Node4 -->
<g id="Node000004" class="node">
<title>Node4</title>
<g id="a_Node000004"><a xlink:href="structTTL__shape__t.html" target="_top" xlink:title="Description of a Shape.">
<polygon fill="white" stroke="none" points="279,-468.75 212,-468.75 212,-389.75 279,-389.75 279,-468.75"/>
<text text-anchor="start" x="216.62" y="-455.25" font-family="Helvetica,sans-Serif" font-size="10.00">TTL_shape_t</text>
<text text-anchor="start" x="221.5" y="-440.25" font-family="Helvetica,sans-Serif" font-size="10.00">+</text>
<text text-anchor="start" x="237" y="-440.25" font-family="Helvetica,sans-Serif" font-size="10.00">width</text>
<text text-anchor="start" x="221.5" y="-425.25" font-family="Helvetica,sans-Serif" font-size="10.00">+</text>
<text text-anchor="start" x="237" y="-425.25" font-family="Helvetica,sans-Serif" font-size="10.00">height</text>
<text text-anchor="start" x="221.5" y="-410.25" font-family="Helvetica,sans-Serif" font-size="10.00">+</text>
<text text-anchor="start" x="237" y="-410.25" font-family="Helvetica,sans-Serif" font-size="10.00">depth</text>
<text text-anchor="start" x="244" y="-395.25" font-family="Helvetica,sans-Serif" font-size="10.00"> </text>
<polygon fill="#666666" stroke="#666666" points="212,-451.75 212,-451.75 279,-451.75 279,-451.75 212,-451.75"/>
<polygon fill="#666666" stroke="#666666" points="212,-406.75 212,-406.75 235,-406.75 235,-406.75 212,-406.75"/>
<polygon fill="#666666" stroke="#666666" points="235,-406.75 235,-406.75 279,-406.75 279,-406.75 235,-406.75"/>
<polygon fill="none" stroke="#666666" points="212,-389.75 212,-468.75 279,-468.75 279,-389.75 212,-389.75"/>
</a>
</g>
</g>
<!-- Node4&#45;&gt;Node2 -->
<g id="edge3_Node000002_Node000004" class="edge">
<title>Node4&#45;&gt;Node2</title>
<g id="a_edge3_Node000002_Node000004"><a xlink:title=" ">
<path fill="none" stroke="#63b8ff" d="M212.4,-411.73C197.36,-404.53 179.23,-396.26 162.5,-389.75 137.94,-380.19 127.53,-386.95 106,-371.75 95.98,-364.68 87.05,-355.07 79.55,-345.32"/>
<polygon fill="none" stroke="#63b8ff" points="79.51,-345.27 72.76,-342.73 72.51,-335.52 79.26,-338.06 79.51,-345.27"/>
</a>
</g>
<text text-anchor="middle" x="122.75" y="-362.25" font-family="Helvetica,sans-Serif" font-size="10.00" fill="grey"> +shape</text>
</g>
<!-- Node5 -->
<g id="Node000005" class="node">
<title>Node5</title>
<g id="a_Node000005"><a xlink:href="structTTL__tile__t.html" target="_top" xlink:title=" ">
<polygon fill="white" stroke="none" points="406.5,-216.25 352.5,-216.25 352.5,-167.25 406.5,-167.25 406.5,-216.25"/>
<text text-anchor="start" x="357.38" y="-202.75" font-family="Helvetica,sans-Serif" font-size="10.00">TTL_tile_t</text>
<text text-anchor="start" x="378" y="-187.75" font-family="Helvetica,sans-Serif" font-size="10.00"> </text>
<text text-anchor="start" x="378" y="-172.75" font-family="Helvetica,sans-Serif" font-size="10.00"> </text>
<polygon fill="#666666" stroke="#666666" points="352.5,-199.25 352.5,-199.25 406.5,-199.25 406.5,-199.25 352.5,-199.25"/>
<polygon fill="#666666" stroke="#666666" points="352.5,-184.25 352.5,-184.25 406.5,-184.25 406.5,-184.25 352.5,-184.25"/>
<polygon fill="none" stroke="#666666" points="352.5,-167.25 352.5,-216.25 406.5,-216.25 406.5,-167.25 352.5,-167.25"/>
</a>
</g>
</g>
<!-- Node4&#45;&gt;Node5 -->
<g id="edge5_Node000005_Node000004" class="edge">
<title>Node4&#45;&gt;Node5</title>
<g id="a_edge5_Node000005_Node000004"><a xlink:title=" ">
<path fill="none" stroke="#63b8ff" d="M278.8,-419.67C314.96,-408.46 371.18,-385.02 398.5,-342.5 424.58,-301.91 420.22,-280.5 406.5,-234.25 405.83,-232 405,-229.76 404.05,-227.55"/>
<polygon fill="none" stroke="#63b8ff" points="404.05,-227.56 397.71,-224.13 398.44,-216.96 404.78,-220.39 404.05,-227.56"/>
</a>
</g>
<text text-anchor="middle" x="433.75" y="-299.12" font-family="Helvetica,sans-Serif" font-size="10.00" fill="grey"> +shape</text>
</g>
<!-- Node7 -->
<g id="Node000007" class="node">
<title>Node7</title>
<g id="a_Node000007"><a xlink:href="structTTL__int__void__sub__tensor__t.html" target="_top" xlink:title="const and non&#45;const sub tensors in the appropriate address space">
<polygon fill="white" stroke="none" points="334.5,-216.25 206.5,-216.25 206.5,-167.25 334.5,-167.25 334.5,-216.25"/>
<text text-anchor="start" x="211.25" y="-202.75" font-family="Helvetica,sans-Serif" font-size="10.00">TTL_int_void_sub_tensor_t</text>
<text text-anchor="start" x="232" y="-187.75" font-family="Helvetica,sans-Serif" font-size="10.00">+</text>
<text text-anchor="start" x="263.5" y="-187.75" font-family="Helvetica,sans-Serif" font-size="10.00">origin</text>
<text text-anchor="start" x="269" y="-172.75" font-family="Helvetica,sans-Serif" font-size="10.00"> </text>
<polygon fill="#666666" stroke="#666666" points="206.5,-199.25 206.5,-199.25 334.5,-199.25 334.5,-199.25 206.5,-199.25"/>
<polygon fill="#666666" stroke="#666666" points="206.5,-184.25 206.5,-184.25 261.5,-184.25 261.5,-184.25 206.5,-184.25"/>
<polygon fill="#666666" stroke="#666666" points="261.5,-184.25 261.5,-184.25 334.5,-184.25 334.5,-184.25 261.5,-184.25"/>
<polygon fill="none" stroke="#666666" points="206.5,-167.25 206.5,-216.25 334.5,-216.25 334.5,-167.25 206.5,-167.25"/>
</a>
</g>
</g>
<!-- Node4&#45;&gt;Node7 -->
<g id="edge11_Node000007_Node000004" class="edge">
<title>Node4&#45;&gt;Node7</title>
<g id="a_edge11_Node000007_Node000004"><a xlink:title=" ">
<path fill="none" stroke="#63b8ff" d="M251.16,-389.99C251.99,-383.89 252.8,-377.65 253.5,-371.75 259.33,-322.41 264.48,-265.23 267.55,-229.03"/>
<polygon fill="none" stroke="#63b8ff" points="267.54,-229.1 264.05,-222.79 268.54,-217.14 272.03,-223.45 267.54,-229.1"/>
</a>
</g>
<text text-anchor="middle" x="280.75" y="-299.12" font-family="Helvetica,sans-Serif" font-size="10.00" fill="grey"> +shape</text>
</g>
<!-- Node4&#45;&gt;Node8 -->
<g id="edge10_Node000008_Node000004" class="edge">
<title>Node4&#45;&gt;Node8</title>
<g id="a_edge10_Node000008_Node000004"><a xlink:title=" ">
<path fill="none" stroke="#63b8ff" d="M225.47,-389.96C218.24,-376.14 210.04,-360.47 202.65,-346.33"/>
<polygon fill="none" stroke="#63b8ff" points="202.64,-346.32 196.31,-342.86 197.08,-335.69 203.4,-339.15 202.64,-346.32"/>
</a>
</g>
<text text-anchor="middle" x="231.75" y="-362.25" font-family="Helvetica,sans-Serif" font-size="10.00" fill="grey"> +shape</text>
</g>
<!-- Node5&#45;&gt;Node1 -->
<g id="edge4_Node000001_Node000005" class="edge">
<title>Node5&#45;&gt;Node1</title>
<g id="a_edge4_Node000001_Node000005"><a xlink:title=" ">
<path fill="none" stroke="#63b8ff" d="M372.39,-167.51C368.8,-157.87 363.85,-146.88 357.5,-138 351.89,-130.16 345.34,-122.55 338.4,-115.38"/>
<polygon fill="none" stroke="#63b8ff" points="338.62,-115.6 331.54,-114.23 330.08,-107.17 337.16,-108.54 338.62,-115.6"/>
</a>
</g>
<text text-anchor="middle" x="406.62" y="-139.75" font-family="Helvetica,sans-Serif" font-size="10.00" fill="grey"> +next_exported_tile</text>
</g>
<!-- Node6 -->
<g id="Node000006" class="node">
<title>Node6</title>
<g id="a_Node000006"><a xlink:href="structTTL__offset__t.html" target="_top" xlink:title="Description of the 3D offset of an object.">
<polygon fill="white" stroke="none" points="389,-342.5 324,-342.5 324,-263.5 389,-263.5 389,-342.5"/>
<text text-anchor="start" x="328.75" y="-329" font-family="Helvetica,sans-Serif" font-size="10.00">TTL_offset_t</text>
<text text-anchor="start" x="338.5" y="-314" font-family="Helvetica,sans-Serif" font-size="10.00">+</text>
<text text-anchor="start" x="359" y="-314" font-family="Helvetica,sans-Serif" font-size="10.00">x</text>
<text text-anchor="start" x="338.5" y="-299" font-family="Helvetica,sans-Serif" font-size="10.00">+</text>
<text text-anchor="start" x="359" y="-299" font-family="Helvetica,sans-Serif" font-size="10.00">y</text>
<text text-anchor="start" x="338.5" y="-284" font-family="Helvetica,sans-Serif" font-size="10.00">+</text>
<text text-anchor="start" x="359" y="-284" font-family="Helvetica,sans-Serif" font-size="10.00">z</text>
<text text-anchor="start" x="355" y="-269" font-family="Helvetica,sans-Serif" font-size="10.00"> </text>
<polygon fill="#666666" stroke="#666666" points="324,-325.5 324,-325.5 389,-325.5 389,-325.5 324,-325.5"/>
<polygon fill="#666666" stroke="#666666" points="324,-280.5 324,-280.5 357,-280.5 357,-280.5 324,-280.5"/>
<polygon fill="#666666" stroke="#666666" points="357,-280.5 357,-280.5 389,-280.5 389,-280.5 357,-280.5"/>
<polygon fill="none" stroke="#666666" points="324,-263.5 324,-342.5 389,-342.5 389,-263.5 324,-263.5"/>
</a>
</g>
</g>
<!-- Node6&#45;&gt;Node5 -->
<g id="edge6_Node000005_Node000006" class="edge">
<title>Node6&#45;&gt;Node5</title>
<g id="a_edge6_Node000005_Node000006"><a xlink:title=" ">
<path fill="none" stroke="#63b8ff" d="M364.54,-263.79C366.95,-252.38 369.57,-239.92 371.94,-228.66"/>
<polygon fill="none" stroke="#63b8ff" points="371.92,-228.76 369.24,-222.06 374.39,-217.01 377.07,-223.71 371.92,-228.76"/>
</a>
</g>
<text text-anchor="middle" x="386.62" y="-236" font-family="Helvetica,sans-Serif" font-size="10.00" fill="grey"> +offset</text>
</g>
<!-- Node6&#45;&gt;Node7 -->
<g id="edge12_Node000007_Node000006" class="edge">
<title>Node6&#45;&gt;Node7</title>
<g id="a_edge12_Node000007_Node000006"><a xlink:title=" ">
<path fill="none" stroke="#63b8ff" d="M325.74,-263.78C320.87,-257.68 315.91,-251.43 311.25,-245.5 306.44,-239.38 301.34,-232.84 296.44,-226.51"/>
<polygon fill="none" stroke="#63b8ff" points="296.35,-226.4 289.52,-224.1 289.02,-216.9 295.85,-219.21 296.35,-226.4"/>
</a>
</g>
<text text-anchor="middle" x="337.12" y="-236" font-family="Helvetica,sans-Serif" font-size="10.00" fill="grey"> +sub_offset</text>
</g>
<!-- Node7&#45;&gt;Node1 -->
<g id="edge7_Node000001_Node000007" class="edge">
<title>Node7&#45;&gt;Node1</title>
<g id="a_edge7_Node000001_Node000007"><a xlink:title=" ">
<path fill="none" stroke="#63b8ff" d="M270.5,-167.25C270.5,-157.39 270.5,-145.33 270.5,-132.93"/>
<polygon fill="none" stroke="#63b8ff" points="270.5,-132.86 266.5,-126.86 270.5,-120.86 274.5,-126.86 270.5,-132.86"/>
</a>
</g>
<text text-anchor="middle" x="313.25" y="-139.75" font-family="Helvetica,sans-Serif" font-size="10.00" fill="grey"> +int_prev_imported</text>
</g>
<!-- Node8&#45;&gt;Node7 -->
<g id="edge8_Node000007_Node000008" class="edge">
<title>Node8&#45;&gt;Node7</title>
<g id="a_edge8_Node000007_Node000008"><a xlink:title=" ">
<path fill="none" stroke="#63b8ff" d="M196.16,-271.22C203.04,-259.09 211.72,-245.43 221.25,-234.25 223.97,-231.06 226.95,-227.91 230.06,-224.87"/>
<polygon fill="none" stroke="#63b8ff" points="230.12,-224.81 231.83,-217.81 238.95,-216.69 237.24,-223.7 230.12,-224.81"/>
</a>
</g>
<text text-anchor="middle" x="238.12" y="-236" font-family="Helvetica,sans-Serif" font-size="10.00" fill="grey"> +tensor</text>
</g>
</g>
</svg>
