<?xml version="1.0" encoding="UTF-8" standalone="no"?>
<!DOCTYPE svg PUBLIC "-//W3C//DTD SVG 1.1//EN"
 "http://www.w3.org/Graphics/SVG/1.1/DTD/svg11.dtd">
<!-- Generated by graphviz version 3.0.0 (20221109.1736)
 -->
<!-- Title: TTL_simplex_const_TTL_TENSOR_TYPE_tensor_buffering_t Pages: 1 -->
<svg width="184pt" height="331pt"
 viewBox="0.00 0.00 184.00 331.00" xmlns="http://www.w3.org/2000/svg" xmlns:xlink="http://www.w3.org/1999/xlink">
<g id="graph0" class="graph" transform="scale(1 1) rotate(0) translate(4 327)">
<title>TTL_simplex_const_TTL_TENSOR_TYPE_tensor_buffering_t</title>
<polygon fill="white" stroke="transparent" points="-4,4 -4,-327 180,-327 180,4 -4,4"/>
<!-- Node1 -->
<g id="node1" class="node">
<title>Node1</title>
<g id="a_node1"><a xlink:title=" ">
<polygon fill="#bfbfbf" stroke="black" points="0,-0.5 0,-90.5 176,-90.5 176,-0.5 0,-0.5"/>
<text text-anchor="start" x="8" y="-78.5" font-family="Helvetica,sans-Serif" font-size="10.00">TTL_simplex_const_TTL</text>
<text text-anchor="middle" x="88" y="-67.5" font-family="Helvetica,sans-Serif" font-size="10.00">_TENSOR_TYPE_tensor_buffering_t</text>
<polyline fill="none" stroke="black" points="0,-60.5 176,-60.5 "/>
<text text-anchor="start" x="8" y="-48.5" font-family="Helvetica,sans-Serif" font-size="10.00">+ event_in</text>
<text text-anchor="start" x="8" y="-37.5" font-family="Helvetica,sans-Serif" font-size="10.00">+ event_out</text>
<text text-anchor="start" x="8" y="-26.5" font-family="Helvetica,sans-Serif" font-size="10.00">+ int_prev_imported</text>
<polyline fill="none" stroke="black" points="0,-19.5 176,-19.5 "/>
<text text-anchor="start" x="8" y="-7.5" font-family="Helvetica,sans-Serif" font-size="10.00">+ TTL_common_buffering_t()</text>
</a>
</g>
</g>
<!-- Node2 -->
<g id="node2" class="node">
<title>Node2</title>
<g id="a_node2"><a xlink:href="structTTL__tile__t.html" target="_top" xlink:title=" ">
<polygon fill="white" stroke="black" points="57.5,-138.5 57.5,-195.5 118.5,-195.5 118.5,-138.5 57.5,-138.5"/>
<text text-anchor="middle" x="88" y="-183.5" font-family="Helvetica,sans-Serif" font-size="10.00">TTL_tile_t</text>
<polyline fill="none" stroke="black" points="57.5,-176.5 118.5,-176.5 "/>
<text text-anchor="middle" x="88" y="-164.5" font-family="Helvetica,sans-Serif" font-size="10.00"> </text>
<polyline fill="none" stroke="black" points="57.5,-157.5 118.5,-157.5 "/>
<text text-anchor="middle" x="88" y="-145.5" font-family="Helvetica,sans-Serif" font-size="10.00"> </text>
</a>
</g>
</g>
<!-- Node2&#45;&gt;Node1 -->
<g id="edge1" class="edge">
<title>Node2&#45;&gt;Node1</title>
<path fill="none" stroke="#404040" d="M88,-138.28C88,-127.73 88,-115.29 88,-103.03"/>
<polygon fill="none" stroke="#404040" points="88,-102.91 84,-96.91 88,-90.91 92,-96.91 88,-102.91"/>
<text text-anchor="middle" x="131.5" y="-112" font-family="Helvetica,sans-Serif" font-size="10.00"> +next_exported_tile</text>
</g>
<!-- Node3 -->
<g id="node3" class="node">
<title>Node3</title>
<g id="a_node3"><a xlink:href="structTTL__shape__t.html" target="_top" xlink:title="Description of a Shape.">
<polygon fill="white" stroke="black" points="6,-243.5 6,-322.5 80,-322.5 80,-243.5 6,-243.5"/>
<text text-anchor="middle" x="43" y="-310.5" font-family="Helvetica,sans-Serif" font-size="10.00">TTL_shape_t</text>
<polyline fill="none" stroke="black" points="6,-303.5 80,-303.5 "/>
<text text-anchor="start" x="14" y="-291.5" font-family="Helvetica,sans-Serif" font-size="10.00">+ width</text>
<text text-anchor="start" x="14" y="-280.5" font-family="Helvetica,sans-Serif" font-size="10.00">+ height</text>
<text text-anchor="start" x="14" y="-269.5" font-family="Helvetica,sans-Serif" font-size="10.00">+ depth</text>
<polyline fill="none" stroke="black" points="6,-262.5 80,-262.5 "/>
<text text-anchor="middle" x="43" y="-250.5" font-family="Helvetica,sans-Serif" font-size="10.00"> </text>
</a>
</g>
</g>
<!-- Node3&#45;&gt;Node2 -->
<g id="edge2" class="edge">
<title>Node3&#45;&gt;Node2</title>
<path fill="none" stroke="#404040" d="M58.23,-243.4C62.86,-231.68 67.95,-218.79 72.59,-207.04"/>
<polygon fill="none" stroke="#404040" points="72.64,-206.91 71.12,-199.86 77.05,-195.75 78.56,-202.8 72.64,-206.91"/>
<text text-anchor="middle" x="87.5" y="-217" font-family="Helvetica,sans-Serif" font-size="10.00"> +shape</text>
</g>
<!-- Node4 -->
<g id="node4" class="node">
<title>Node4</title>
<g id="a_node4"><a xlink:href="structTTL__offset__t.html" target="_top" xlink:title="Description of the 3D offset of an object.">
<polygon fill="white" stroke="black" points="98,-243.5 98,-322.5 170,-322.5 170,-243.5 98,-243.5"/>
<text text-anchor="middle" x="134" y="-310.5" font-family="Helvetica,sans-Serif" font-size="10.00">TTL_offset_t</text>
<polyline fill="none" stroke="black" points="98,-303.5 170,-303.5 "/>
<text text-anchor="start" x="106" y="-291.5" font-family="Helvetica,sans-Serif" font-size="10.00">+ x</text>
<text text-anchor="start" x="106" y="-280.5" font-family="Helvetica,sans-Serif" font-size="10.00">+ y</text>
<text text-anchor="start" x="106" y="-269.5" font-family="Helvetica,sans-Serif" font-size="10.00">+ z</text>
<polyline fill="none" stroke="black" points="98,-262.5 170,-262.5 "/>
<text text-anchor="middle" x="134" y="-250.5" font-family="Helvetica,sans-Serif" font-size="10.00"> </text>
</a>
</g>
</g>
<!-- Node4&#45;&gt;Node2 -->
<g id="edge3" class="edge">
<title>Node4&#45;&gt;Node2</title>
<path fill="none" stroke="#404040" d="M120.36,-243.32C116.8,-233.69 112.88,-223.42 109,-214 108.03,-211.65 107.02,-209.25 105.98,-206.83"/>
<polygon fill="none" stroke="#404040" points="105.86,-206.56 99.77,-202.69 101,-195.58 107.09,-199.45 105.86,-206.56"/>
<text text-anchor="middle" x="128.5" y="-217" font-family="Helvetica,sans-Serif" font-size="10.00"> +offset</text>
</g>
</g>
</svg>
