<?xml version="1.0" encoding="UTF-8" standalone="no"?>
<!DOCTYPE svg PUBLIC "-//W3C//DTD SVG 1.1//EN"
 "http://www.w3.org/Graphics/SVG/1.1/DTD/svg11.dtd">
<!-- Generated by graphviz version 12.0.0 (20240704.0754)
 -->
<!-- Title: TTL_import_double_const_char_tensor_buffering_t Pages: 1 -->
<svg width="257pt" height="373pt"
 viewBox="0.00 0.00 256.50 372.75" xmlns="http://www.w3.org/2000/svg" xmlns:xlink="http://www.w3.org/1999/xlink">
<g id="graph0" class="graph" transform="scale(1 1) rotate(0) translate(4 368.75)">
<title>TTL_import_double_const_char_tensor_buffering_t</title>
<!-- Node1 -->
<g id="Node000001" class="node">
<title>Node1</title>
<g id="a_Node000001"><a xlink:title="Data required to perform double buffer pipelining.">
<polygon fill="#999999" stroke="none" points="188.5,-105 65.5,-105 65.5,0 188.5,0 188.5,-105"/>
<text text-anchor="start" x="70.38" y="-91.5" font-family="Helvetica,sans-Serif" font-size="10.00">TTL_import_double_const</text>
<text text-anchor="start" x="73.75" y="-80.25" font-family="Helvetica,sans-Serif" font-size="10.00">_char_tensor_buffering_t</text>
<text text-anchor="start" x="86.5" y="-65.5" font-family="Helvetica,sans-Serif" font-size="10.00">+</text>
<text text-anchor="start" x="113.5" y="-65.5" font-family="Helvetica,sans-Serif" font-size="10.00">index</text>
<text text-anchor="start" x="86.5" y="-50.5" font-family="Helvetica,sans-Serif" font-size="10.00">+</text>
<text text-anchor="start" x="113.5" y="-50.5" font-family="Helvetica,sans-Serif" font-size="10.00">int_base</text>
<text text-anchor="start" x="86.5" y="-35.5" font-family="Helvetica,sans-Serif" font-size="10.00">+</text>
<text text-anchor="start" x="113.5" y="-35.5" font-family="Helvetica,sans-Serif" font-size="10.00">common</text>
<text text-anchor="start" x="86.5" y="-20.5" font-family="Helvetica,sans-Serif" font-size="10.00">+</text>
<text text-anchor="start" x="113.5" y="-20.5" font-family="Helvetica,sans-Serif" font-size="10.00">event</text>
<text text-anchor="start" x="125.5" y="-5.5" font-family="Helvetica,sans-Serif" font-size="10.00"> </text>
<polygon fill="#666666" stroke="#666666" points="65.5,-77 65.5,-77 188.5,-77 188.5,-77 65.5,-77"/>
<polygon fill="#666666" stroke="#666666" points="65.5,-17 65.5,-17 111.5,-17 111.5,-17 65.5,-17"/>
<polygon fill="#666666" stroke="#666666" points="111.5,-17 111.5,-17 188.5,-17 188.5,-17 111.5,-17"/>
<polygon fill="none" stroke="#666666" points="65.5,0 65.5,-105 188.5,-105 188.5,0 65.5,0"/>
</a>
</g>
</g>
<!-- Node2 -->
<g id="Node000002" class="node">
<title>Node2</title>
<g id="a_Node000002"><a xlink:href="structTTL__const__ext__char__tensor__t.html" target="_top" xlink:title=" ">
<polygon fill="white" stroke="none" points="129.5,-238.5 30.5,-238.5 30.5,-163.5 129.5,-163.5 129.5,-238.5"/>
<text text-anchor="start" x="35.38" y="-225" font-family="Helvetica,sans-Serif" font-size="10.00">TTL_const_ext_char</text>
<text text-anchor="start" x="59.75" y="-213.75" font-family="Helvetica,sans-Serif" font-size="10.00">_tensor_t</text>
<text text-anchor="start" x="44" y="-199" font-family="Helvetica,sans-Serif" font-size="10.00">+</text>
<text text-anchor="start" x="63.5" y="-199" font-family="Helvetica,sans-Serif" font-size="10.00">base</text>
<text text-anchor="start" x="44" y="-184" font-family="Helvetica,sans-Serif" font-size="10.00">+</text>
<text text-anchor="start" x="63.5" y="-184" font-family="Helvetica,sans-Serif" font-size="10.00">elem_size</text>
<text text-anchor="start" x="78.5" y="-169" font-family="Helvetica,sans-Serif" font-size="10.00"> </text>
<polygon fill="#666666" stroke="#666666" points="30.5,-210.5 30.5,-210.5 129.5,-210.5 129.5,-210.5 30.5,-210.5"/>
<polygon fill="#666666" stroke="#666666" points="30.5,-180.5 30.5,-180.5 61.5,-180.5 61.5,-180.5 30.5,-180.5"/>
<polygon fill="#666666" stroke="#666666" points="61.5,-180.5 61.5,-180.5 129.5,-180.5 129.5,-180.5 61.5,-180.5"/>
<polygon fill="none" stroke="#666666" points="30.5,-163.5 30.5,-238.5 129.5,-238.5 129.5,-163.5 30.5,-163.5"/>
</a>
</g>
</g>
<!-- Node2&#45;&gt;Node1 -->
<g id="edge1_Node000001_Node000002" class="edge">
<title>Node2&#45;&gt;Node1</title>
<g id="a_edge1_Node000001_Node000002"><a xlink:title=" ">
<path fill="none" stroke="#63b8ff" d="M77.08,-163.69C77.06,-150.61 78.25,-135.9 82.25,-123 82.94,-120.78 83.72,-118.57 84.57,-116.37"/>
<polygon fill="none" stroke="#63b8ff" points="84.51,-116.5 83.33,-109.39 89.44,-105.56 90.62,-112.68 84.51,-116.5"/>
</a>
</g>
<text text-anchor="middle" x="116.88" y="-136" font-family="Helvetica,sans-Serif" font-size="10.00" fill="grey"> +ext_tensor_in</text>
<text text-anchor="middle" x="116.88" y="-124.75" font-family="Helvetica,sans-Serif" font-size="10.00" fill="grey">+ext_tensor_out</text>
</g>
<!-- Node3 -->
<g id="Node000003" class="node">
<title>Node3</title>
<g id="a_Node000003"><a xlink:href="structTTL__layout__t.html" target="_top" xlink:title="Description of a Tensor layout in memory.">
<polygon fill="white" stroke="none" points="80,-357.25 0,-357.25 0,-293.25 80,-293.25 80,-357.25"/>
<text text-anchor="start" x="11.5" y="-343.75" font-family="Helvetica,sans-Serif" font-size="10.00">TTL_layout_t</text>
<text text-anchor="start" x="4" y="-328.75" font-family="Helvetica,sans-Serif" font-size="10.00">+</text>
<text text-anchor="start" x="14" y="-328.75" font-family="Helvetica,sans-Serif" font-size="10.00">row_spacing</text>
<text text-anchor="start" x="4" y="-313.75" font-family="Helvetica,sans-Serif" font-size="10.00">+</text>
<text text-anchor="start" x="14" y="-313.75" font-family="Helvetica,sans-Serif" font-size="10.00">plane_spacing</text>
<text text-anchor="start" x="38.5" y="-298.75" font-family="Helvetica,sans-Serif" font-size="10.00"> </text>
<polygon fill="#666666" stroke="#666666" points="0,-340.25 0,-340.25 80,-340.25 80,-340.25 0,-340.25"/>
<polygon fill="#666666" stroke="#666666" points="0,-310.25 0,-310.25 12,-310.25 12,-310.25 0,-310.25"/>
<polygon fill="#666666" stroke="#666666" points="12,-310.25 12,-310.25 80,-310.25 80,-310.25 12,-310.25"/>
<polygon fill="none" stroke="#666666" points="0,-293.25 0,-357.25 80,-357.25 80,-293.25 0,-293.25"/>
</a>
</g>
</g>
<!-- Node3&#45;&gt;Node2 -->
<g id="edge2_Node000002_Node000003" class="edge">
<title>Node3&#45;&gt;Node2</title>
<g id="a_edge2_Node000002_Node000003"><a xlink:title=" ">
<path fill="none" stroke="#63b8ff" d="M37.37,-293.59C37.29,-281.74 38.37,-268.23 42.25,-256.5 42.99,-254.26 43.85,-252.03 44.82,-249.83"/>
<polygon fill="none" stroke="#63b8ff" points="44.85,-249.77 44.05,-242.6 50.35,-239.11 51.15,-246.27 44.85,-249.77"/>
</a>
</g>
<text text-anchor="middle" x="58.88" y="-258.25" font-family="Helvetica,sans-Serif" font-size="10.00" fill="grey"> +layout</text>
</g>
<!-- Node4 -->
<g id="Node000004" class="node">
<title>Node4</title>
<g id="a_Node000004"><a xlink:href="structTTL__shape__t.html" target="_top" xlink:title="Description of a Shape.">
<polygon fill="white" stroke="none" points="165.5,-364.75 98.5,-364.75 98.5,-285.75 165.5,-285.75 165.5,-364.75"/>
<text text-anchor="start" x="103.12" y="-351.25" font-family="Helvetica,sans-Serif" font-size="10.00">TTL_shape_t</text>
<text text-anchor="start" x="108" y="-336.25" font-family="Helvetica,sans-Serif" font-size="10.00">+</text>
<text text-anchor="start" x="123.5" y="-336.25" font-family="Helvetica,sans-Serif" font-size="10.00">width</text>
<text text-anchor="start" x="108" y="-321.25" font-family="Helvetica,sans-Serif" font-size="10.00">+</text>
<text text-anchor="start" x="123.5" y="-321.25" font-family="Helvetica,sans-Serif" font-size="10.00">height</text>
<text text-anchor="start" x="108" y="-306.25" font-family="Helvetica,sans-Serif" font-size="10.00">+</text>
<text text-anchor="start" x="123.5" y="-306.25" font-family="Helvetica,sans-Serif" font-size="10.00">depth</text>
<text text-anchor="start" x="130.5" y="-291.25" font-family="Helvetica,sans-Serif" font-size="10.00"> </text>
<polygon fill="#666666" stroke="#666666" points="98.5,-347.75 98.5,-347.75 165.5,-347.75 165.5,-347.75 98.5,-347.75"/>
<polygon fill="#666666" stroke="#666666" points="98.5,-302.75 98.5,-302.75 121.5,-302.75 121.5,-302.75 98.5,-302.75"/>
<polygon fill="#666666" stroke="#666666" points="121.5,-302.75 121.5,-302.75 165.5,-302.75 165.5,-302.75 121.5,-302.75"/>
<polygon fill="none" stroke="#666666" points="98.5,-285.75 98.5,-364.75 165.5,-364.75 165.5,-285.75 98.5,-285.75"/>
</a>
</g>
</g>
<!-- Node4&#45;&gt;Node2 -->
<g id="edge3_Node000002_Node000004" class="edge">
<title>Node4&#45;&gt;Node2</title>
<g id="a_edge3_Node000002_Node000004"><a xlink:title=" ">
<path fill="none" stroke="#63b8ff" d="M115.69,-285.9C110.82,-274.46 105.42,-261.76 100.33,-249.79"/>
<polygon fill="none" stroke="#63b8ff" points="100.42,-250 94.39,-246.04 95.72,-238.95 101.75,-242.91 100.42,-250"/>
</a>
</g>
<text text-anchor="middle" x="124.25" y="-258.25" font-family="Helvetica,sans-Serif" font-size="10.00" fill="grey"> +shape</text>
</g>
<!-- Node5 -->
<g id="Node000005" class="node">
<title>Node5</title>
<g id="a_Node000005"><a xlink:href="structTTL__tile__t.html" target="_top" xlink:title=" ">
<polygon fill="white" stroke="none" points="202,-225.5 148,-225.5 148,-176.5 202,-176.5 202,-225.5"/>
<text text-anchor="start" x="152.88" y="-212" font-family="Helvetica,sans-Serif" font-size="10.00">TTL_tile_t</text>
<text text-anchor="start" x="173.5" y="-197" font-family="Helvetica,sans-Serif" font-size="10.00"> </text>
<text text-anchor="start" x="173.5" y="-182" font-family="Helvetica,sans-Serif" font-size="10.00"> </text>
<polygon fill="#666666" stroke="#666666" points="148,-208.5 148,-208.5 202,-208.5 202,-208.5 148,-208.5"/>
<polygon fill="#666666" stroke="#666666" points="148,-193.5 148,-193.5 202,-193.5 202,-193.5 148,-193.5"/>
<polygon fill="none" stroke="#666666" points="148,-176.5 148,-225.5 202,-225.5 202,-176.5 148,-176.5"/>
</a>
</g>
</g>
<!-- Node4&#45;&gt;Node5 -->
<g id="edge5_Node000005_Node000004" class="edge">
<title>Node4&#45;&gt;Node5</title>
<g id="a_edge5_Node000005_Node000004"><a xlink:title=" ">
<path fill="none" stroke="#63b8ff" d="M145.23,-285.89C148.57,-276.29 152.15,-266.01 155.5,-256.5 157.7,-250.26 160.05,-243.63 162.34,-237.22"/>
<polygon fill="none" stroke="#63b8ff" points="162.25,-237.47 160.51,-230.47 166.3,-226.17 168.04,-233.17 162.25,-237.47"/>
</a>
</g>
<text text-anchor="middle" x="172.25" y="-258.25" font-family="Helvetica,sans-Serif" font-size="10.00" fill="grey"> +shape</text>
</g>
<!-- Node5&#45;&gt;Node1 -->
<g id="edge4_Node000001_Node000005" class="edge">
<title>Node5&#45;&gt;Node1</title>
<g id="a_edge4_Node000001_Node000005"><a xlink:title=" ">
<path fill="none" stroke="#63b8ff" d="M168.39,-176.65C163.96,-161.33 157.89,-140.89 152,-123 151.33,-120.95 150.63,-118.87 149.92,-116.77"/>
<polygon fill="none" stroke="#63b8ff" points="149.94,-116.83 144.21,-112.46 146.04,-105.48 151.78,-109.86 149.94,-116.83"/>
</a>
</g>
<text text-anchor="middle" x="180.5" y="-130.38" font-family="Helvetica,sans-Serif" font-size="10.00" fill="grey"> +prev_tile</text>
</g>
<!-- Node6 -->
<g id="Node000006" class="node">
<title>Node6</title>
<g id="a_Node000006"><a xlink:href="structTTL__offset__t.html" target="_top" xlink:title="Description of the 3D offset of an object.">
<polygon fill="white" stroke="none" points="248.5,-364.75 183.5,-364.75 183.5,-285.75 248.5,-285.75 248.5,-364.75"/>
<text text-anchor="start" x="188.25" y="-351.25" font-family="Helvetica,sans-Serif" font-size="10.00">TTL_offset_t</text>
<text text-anchor="start" x="198" y="-336.25" font-family="Helvetica,sans-Serif" font-size="10.00">+</text>
<text text-anchor="start" x="218.5" y="-336.25" font-family="Helvetica,sans-Serif" font-size="10.00">x</text>
<text text-anchor="start" x="198" y="-321.25" font-family="Helvetica,sans-Serif" font-size="10.00">+</text>
<text text-anchor="start" x="218.5" y="-321.25" font-family="Helvetica,sans-Serif" font-size="10.00">y</text>
<text text-anchor="start" x="198" y="-306.25" font-family="Helvetica,sans-Serif" font-size="10.00">+</text>
<text text-anchor="start" x="218.5" y="-306.25" font-family="Helvetica,sans-Serif" font-size="10.00">z</text>
<text text-anchor="start" x="214.5" y="-291.25" font-family="Helvetica,sans-Serif" font-size="10.00"> </text>
<polygon fill="#666666" stroke="#666666" points="183.5,-347.75 183.5,-347.75 248.5,-347.75 248.5,-347.75 183.5,-347.75"/>
<polygon fill="#666666" stroke="#666666" points="183.5,-302.75 183.5,-302.75 216.5,-302.75 216.5,-302.75 183.5,-302.75"/>
<polygon fill="#666666" stroke="#666666" points="216.5,-302.75 216.5,-302.75 248.5,-302.75 248.5,-302.75 216.5,-302.75"/>
<polygon fill="none" stroke="#666666" points="183.5,-285.75 183.5,-364.75 248.5,-364.75 248.5,-285.75 183.5,-285.75"/>
</a>
</g>
</g>
<!-- Node6&#45;&gt;Node5 -->
<g id="edge6_Node000005_Node000006" class="edge">
<title>Node6&#45;&gt;Node5</title>
<g id="a_edge6_Node000005_Node000006"><a xlink:title=" ">
<path fill="none" stroke="#63b8ff" d="M203.69,-285.86C200.57,-276.26 197.2,-265.99 194,-256.5 191.9,-250.25 189.62,-243.61 187.39,-237.2"/>
<polygon fill="none" stroke="#63b8ff" points="187.49,-237.48 181.74,-233.13 183.54,-226.15 189.3,-230.5 187.49,-237.48"/>
</a>
</g>
<text text-anchor="middle" x="213.12" y="-258.25" font-family="Helvetica,sans-Serif" font-size="10.00" fill="grey"> +offset</text>
</g>
</g>
</svg>
