<?xml version="1.0" encoding="UTF-8" standalone="no"?>
<!DOCTYPE svg PUBLIC "-//W3C//DTD SVG 1.1//EN"
 "http://www.w3.org/Graphics/SVG/1.1/DTD/svg11.dtd">
<!-- Generated by graphviz version 12.0.0 (20240704.0754)
 -->
<!-- Title: TTL_io_ushort_tensor_t Pages: 1 -->
<svg width="278pt" height="428pt"
 viewBox="0.00 0.00 277.50 428.00" xmlns="http://www.w3.org/2000/svg" xmlns:xlink="http://www.w3.org/1999/xlink">
<g id="graph0" class="graph" transform="scale(1 1) rotate(0) translate(4 424)">
<title>TTL_io_ushort_tensor_t</title>
<!-- Node1 -->
<g id="Node000001" class="node">
<title>Node1</title>
<g id="a_Node000001"><a xlink:title="Describes a pair of internal Tensors after an operation.">
<polygon fill="#999999" stroke="none" points="208.5,-49 95.5,-49 95.5,0 208.5,0 208.5,-49"/>
<text text-anchor="start" x="100.25" y="-35.5" font-family="Helvetica,sans-Serif" font-size="10.00">TTL_io_ushort_tensor_t</text>
<text text-anchor="start" x="150.5" y="-20.5" font-family="Helvetica,sans-Serif" font-size="10.00"> </text>
<text text-anchor="start" x="150.5" y="-5.5" font-family="Helvetica,sans-Serif" font-size="10.00"> </text>
<polygon fill="#666666" stroke="#666666" points="95.5,-32 95.5,-32 208.5,-32 208.5,-32 95.5,-32"/>
<polygon fill="#666666" stroke="#666666" points="95.5,-17 95.5,-17 208.5,-17 208.5,-17 95.5,-17"/>
<polygon fill="none" stroke="#666666" points="95.5,0 95.5,-49 208.5,-49 208.5,0 95.5,0"/>
</a>
</g>
</g>
<!-- Node2 -->
<g id="Node000002" class="node">
<title>Node2</title>
<g id="a_Node000002"><a xlink:href="structTTL__int__ushort__sub__tensor__t.html" target="_top" xlink:title="const and non&#45;const sub tensors in the appropriate address space">
<polygon fill="white" stroke="none" points="200.5,-167.5 103.5,-167.5 103.5,-107.5 200.5,-107.5 200.5,-167.5"/>
<text text-anchor="start" x="108.5" y="-154" font-family="Helvetica,sans-Serif" font-size="10.00">TTL_int_ushort_sub</text>
<text text-anchor="start" x="131.75" y="-142.75" font-family="Helvetica,sans-Serif" font-size="10.00">_tensor_t</text>
<text text-anchor="start" x="121.5" y="-128" font-family="Helvetica,sans-Serif" font-size="10.00">+</text>
<text text-anchor="start" x="145.5" y="-128" font-family="Helvetica,sans-Serif" font-size="10.00">origin</text>
<text text-anchor="start" x="150.5" y="-113" font-family="Helvetica,sans-Serif" font-size="10.00"> </text>
<polygon fill="#666666" stroke="#666666" points="103.5,-139.5 103.5,-139.5 200.5,-139.5 200.5,-139.5 103.5,-139.5"/>
<polygon fill="#666666" stroke="#666666" points="103.5,-124.5 103.5,-124.5 143.5,-124.5 143.5,-124.5 103.5,-124.5"/>
<polygon fill="#666666" stroke="#666666" points="143.5,-124.5 143.5,-124.5 200.5,-124.5 200.5,-124.5 143.5,-124.5"/>
<polygon fill="none" stroke="#666666" points="103.5,-107.5 103.5,-167.5 200.5,-167.5 200.5,-107.5 103.5,-107.5"/>
</a>
</g>
</g>
<!-- Node2&#45;&gt;Node1 -->
<g id="edge1_Node000001_Node000002" class="edge">
<title>Node2&#45;&gt;Node1</title>
<g id="a_edge1_Node000001_Node000002"><a xlink:title=" ">
<path fill="none" stroke="#63b8ff" d="M152,-107.63C152,-93.66 152,-76.74 152,-61.9"/>
<polygon fill="none" stroke="#63b8ff" points="152,-61.9 148,-55.9 152,-49.9 156,-55.9 152,-61.9"/>
</a>
</g>
<text text-anchor="middle" x="187.25" y="-80" font-family="Helvetica,sans-Serif" font-size="10.00" fill="grey"> +imported_to</text>
<text text-anchor="middle" x="187.25" y="-68.75" font-family="Helvetica,sans-Serif" font-size="10.00" fill="grey">+to_export_from</text>
</g>
<!-- Node3 -->
<g id="Node000003" class="node">
<title>Node3</title>
<g id="a_Node000003"><a xlink:href="structTTL__int__ushort__tensor__t.html" target="_top" xlink:title="const and non&#45;const tensors in the appropriate address space">
<polygon fill="white" stroke="none" points="116,-286.25 0,-286.25 0,-222.25 116,-222.25 116,-286.25"/>
<text text-anchor="start" x="4.75" y="-272.75" font-family="Helvetica,sans-Serif" font-size="10.00">TTL_int_ushort_tensor_t</text>
<text text-anchor="start" x="17.5" y="-257.75" font-family="Helvetica,sans-Serif" font-size="10.00">+</text>
<text text-anchor="start" x="41" y="-257.75" font-family="Helvetica,sans-Serif" font-size="10.00">base</text>
<text text-anchor="start" x="17.5" y="-242.75" font-family="Helvetica,sans-Serif" font-size="10.00">+</text>
<text text-anchor="start" x="41" y="-242.75" font-family="Helvetica,sans-Serif" font-size="10.00">elem_size</text>
<text text-anchor="start" x="56.5" y="-227.75" font-family="Helvetica,sans-Serif" font-size="10.00"> </text>
<polygon fill="#666666" stroke="#666666" points="0,-269.25 0,-269.25 116,-269.25 116,-269.25 0,-269.25"/>
<polygon fill="#666666" stroke="#666666" points="0,-239.25 0,-239.25 39,-239.25 39,-239.25 0,-239.25"/>
<polygon fill="#666666" stroke="#666666" points="39,-239.25 39,-239.25 116,-239.25 116,-239.25 39,-239.25"/>
<polygon fill="none" stroke="#666666" points="0,-222.25 0,-286.25 116,-286.25 116,-222.25 0,-222.25"/>
</a>
</g>
</g>
<!-- Node3&#45;&gt;Node2 -->
<g id="edge2_Node000002_Node000003" class="edge">
<title>Node3&#45;&gt;Node2</title>
<g id="a_edge2_Node000002_Node000003"><a xlink:title=" ">
<path fill="none" stroke="#63b8ff" d="M76.22,-222.54C83.85,-210.55 93.17,-196.96 102.75,-185.5 105.25,-182.51 107.92,-179.52 110.67,-176.56"/>
<polygon fill="none" stroke="#63b8ff" points="110.66,-176.57 111.99,-169.49 119.04,-167.98 117.71,-175.07 110.66,-176.57"/>
</a>
</g>
<text text-anchor="middle" x="120.62" y="-187.25" font-family="Helvetica,sans-Serif" font-size="10.00" fill="grey"> +tensor</text>
</g>
<!-- Node4 -->
<g id="Node000004" class="node">
<title>Node4</title>
<g id="a_Node000004"><a xlink:href="structTTL__layout__t.html" target="_top" xlink:title="Description of a Tensor layout in memory.">
<polygon fill="white" stroke="none" points="85,-412.5 5,-412.5 5,-348.5 85,-348.5 85,-412.5"/>
<text text-anchor="start" x="16.5" y="-399" font-family="Helvetica,sans-Serif" font-size="10.00">TTL_layout_t</text>
<text text-anchor="start" x="9" y="-384" font-family="Helvetica,sans-Serif" font-size="10.00">+</text>
<text text-anchor="start" x="19" y="-384" font-family="Helvetica,sans-Serif" font-size="10.00">row_spacing</text>
<text text-anchor="start" x="9" y="-369" font-family="Helvetica,sans-Serif" font-size="10.00">+</text>
<text text-anchor="start" x="19" y="-369" font-family="Helvetica,sans-Serif" font-size="10.00">plane_spacing</text>
<text text-anchor="start" x="43.5" y="-354" font-family="Helvetica,sans-Serif" font-size="10.00"> </text>
<polygon fill="#666666" stroke="#666666" points="5,-395.5 5,-395.5 85,-395.5 85,-395.5 5,-395.5"/>
<polygon fill="#666666" stroke="#666666" points="5,-365.5 5,-365.5 17,-365.5 17,-365.5 5,-365.5"/>
<polygon fill="#666666" stroke="#666666" points="17,-365.5 17,-365.5 85,-365.5 85,-365.5 17,-365.5"/>
<polygon fill="none" stroke="#666666" points="5,-348.5 5,-412.5 85,-412.5 85,-348.5 5,-348.5"/>
</a>
</g>
</g>
<!-- Node4&#45;&gt;Node3 -->
<g id="edge3_Node000003_Node000004" class="edge">
<title>Node4&#45;&gt;Node3</title>
<g id="a_edge3_Node000003_Node000004"><a xlink:title=" ">
<path fill="none" stroke="#63b8ff" d="M44.36,-348.73C44.43,-337.11 44.9,-323.79 46.25,-311.75 46.72,-307.57 47.35,-303.24 48.08,-298.92"/>
<polygon fill="none" stroke="#63b8ff" points="48.09,-298.84 45.28,-292.21 50.32,-287.05 53.14,-293.69 48.09,-298.84"/>
</a>
</g>
<text text-anchor="middle" x="63.88" y="-313.5" font-family="Helvetica,sans-Serif" font-size="10.00" fill="grey"> +layout</text>
</g>
<!-- Node5 -->
<g id="Node000005" class="node">
<title>Node5</title>
<g id="a_Node000005"><a xlink:href="structTTL__shape__t.html" target="_top" xlink:title="Description of a Shape.">
<polygon fill="white" stroke="none" points="177.5,-420 110.5,-420 110.5,-341 177.5,-341 177.5,-420"/>
<text text-anchor="start" x="115.12" y="-406.5" font-family="Helvetica,sans-Serif" font-size="10.00">TTL_shape_t</text>
<text text-anchor="start" x="120" y="-391.5" font-family="Helvetica,sans-Serif" font-size="10.00">+</text>
<text text-anchor="start" x="135.5" y="-391.5" font-family="Helvetica,sans-Serif" font-size="10.00">width</text>
<text text-anchor="start" x="120" y="-376.5" font-family="Helvetica,sans-Serif" font-size="10.00">+</text>
<text text-anchor="start" x="135.5" y="-376.5" font-family="Helvetica,sans-Serif" font-size="10.00">height</text>
<text text-anchor="start" x="120" y="-361.5" font-family="Helvetica,sans-Serif" font-size="10.00">+</text>
<text text-anchor="start" x="135.5" y="-361.5" font-family="Helvetica,sans-Serif" font-size="10.00">depth</text>
<text text-anchor="start" x="142.5" y="-346.5" font-family="Helvetica,sans-Serif" font-size="10.00"> </text>
<polygon fill="#666666" stroke="#666666" points="110.5,-403 110.5,-403 177.5,-403 177.5,-403 110.5,-403"/>
<polygon fill="#666666" stroke="#666666" points="110.5,-358 110.5,-358 133.5,-358 133.5,-358 110.5,-358"/>
<polygon fill="#666666" stroke="#666666" points="133.5,-358 133.5,-358 177.5,-358 177.5,-358 133.5,-358"/>
<polygon fill="none" stroke="#666666" points="110.5,-341 110.5,-420 177.5,-420 177.5,-341 110.5,-341"/>
</a>
</g>
</g>
<!-- Node5&#45;&gt;Node2 -->
<g id="edge5_Node000002_Node000005" class="edge">
<title>Node5&#45;&gt;Node2</title>
<g id="a_edge5_Node000002_Node000005"><a xlink:title=" ">
<path fill="none" stroke="#63b8ff" d="M145.28,-341.05C146.73,-297.11 149.11,-225.47 150.62,-180.22"/>
<polygon fill="none" stroke="#63b8ff" points="150.61,-180.26 146.82,-174.13 151.01,-168.26 154.81,-174.39 150.61,-180.26"/>
</a>
</g>
<text text-anchor="middle" x="167.25" y="-250.38" font-family="Helvetica,sans-Serif" font-size="10.00" fill="grey"> +shape</text>
</g>
<!-- Node5&#45;&gt;Node3 -->
<g id="edge4_Node000003_Node000005" class="edge">
<title>Node5&#45;&gt;Node3</title>
<g id="a_edge4_Node000003_Node000005"><a xlink:title=" ">
<path fill="none" stroke="#63b8ff" d="M116.17,-341.01C111.9,-335 107.56,-328.85 103.5,-323 97.65,-314.57 91.47,-305.49 85.61,-296.8"/>
<polygon fill="none" stroke="#63b8ff" points="85.6,-296.79 78.94,-294.03 78.92,-286.82 85.58,-289.58 85.6,-296.79"/>
</a>
</g>
<text text-anchor="middle" x="121.25" y="-313.5" font-family="Helvetica,sans-Serif" font-size="10.00" fill="grey"> +shape</text>
</g>
<!-- Node6 -->
<g id="Node000006" class="node">
<title>Node6</title>
<g id="a_Node000006"><a xlink:href="structTTL__offset__t.html" target="_top" xlink:title="Description of the 3D offset of an object.">
<polygon fill="white" stroke="none" points="269.5,-293.75 204.5,-293.75 204.5,-214.75 269.5,-214.75 269.5,-293.75"/>
<text text-anchor="start" x="209.25" y="-280.25" font-family="Helvetica,sans-Serif" font-size="10.00">TTL_offset_t</text>
<text text-anchor="start" x="219" y="-265.25" font-family="Helvetica,sans-Serif" font-size="10.00">+</text>
<text text-anchor="start" x="239.5" y="-265.25" font-family="Helvetica,sans-Serif" font-size="10.00">x</text>
<text text-anchor="start" x="219" y="-250.25" font-family="Helvetica,sans-Serif" font-size="10.00">+</text>
<text text-anchor="start" x="239.5" y="-250.25" font-family="Helvetica,sans-Serif" font-size="10.00">y</text>
<text text-anchor="start" x="219" y="-235.25" font-family="Helvetica,sans-Serif" font-size="10.00">+</text>
<text text-anchor="start" x="239.5" y="-235.25" font-family="Helvetica,sans-Serif" font-size="10.00">z</text>
<text text-anchor="start" x="235.5" y="-220.25" font-family="Helvetica,sans-Serif" font-size="10.00"> </text>
<polygon fill="#666666" stroke="#666666" points="204.5,-276.75 204.5,-276.75 269.5,-276.75 269.5,-276.75 204.5,-276.75"/>
<polygon fill="#666666" stroke="#666666" points="204.5,-231.75 204.5,-231.75 237.5,-231.75 237.5,-231.75 204.5,-231.75"/>
<polygon fill="#666666" stroke="#666666" points="237.5,-231.75 237.5,-231.75 269.5,-231.75 269.5,-231.75 237.5,-231.75"/>
<polygon fill="none" stroke="#666666" points="204.5,-214.75 204.5,-293.75 269.5,-293.75 269.5,-214.75 204.5,-214.75"/>
</a>
</g>
</g>
<!-- Node6&#45;&gt;Node2 -->
<g id="edge6_Node000002_Node000006" class="edge">
<title>Node6&#45;&gt;Node2</title>
<g id="a_edge6_Node000002_Node000006"><a xlink:title=" ">
<path fill="none" stroke="#63b8ff" d="M208.7,-215.04C199.81,-203.04 189.98,-189.77 181.04,-177.7"/>
<polygon fill="none" stroke="#63b8ff" points="181.14,-177.83 174.35,-175.39 173.99,-168.19 180.78,-170.63 181.14,-177.83"/>
</a>
</g>
<text text-anchor="middle" x="220.62" y="-187.25" font-family="Helvetica,sans-Serif" font-size="10.00" fill="grey"> +sub_offset</text>
</g>
</g>
</svg>
