<?xml version="1.0" encoding="UTF-8" standalone="no"?>
<!DOCTYPE svg PUBLIC "-//W3C//DTD SVG 1.1//EN"
 "http://www.w3.org/Graphics/SVG/1.1/DTD/svg11.dtd">
<!-- Generated by graphviz version 12.0.0 (20240704.0754)
 -->
<!-- Title: TTL_simplex_const_short_tensor_buffering_t Pages: 1 -->
<svg width="467pt" height="477pt"
 viewBox="0.00 0.00 467.00 476.75" xmlns="http://www.w3.org/2000/svg" xmlns:xlink="http://www.w3.org/1999/xlink">
<g id="graph0" class="graph" transform="scale(1 1) rotate(0) translate(4 472.75)">
<title>TTL_simplex_const_short_tensor_buffering_t</title>
<!-- Node1 -->
<g id="Node000001" class="node">
<title>Node1</title>
<g id="a_Node000001"><a xlink:title=" ">
<polygon fill="#999999" stroke="none" points="338.5,-120 216.5,-120 216.5,0 338.5,0 338.5,-120"/>
<text text-anchor="start" x="221.25" y="-106.5" font-family="Helvetica,sans-Serif" font-size="10.00">TTL_simplex_const_short</text>
<text text-anchor="start" x="236.25" y="-95.25" font-family="Helvetica,sans-Serif" font-size="10.00">_tensor_buffering_t</text>
<text text-anchor="start" x="236" y="-80.5" font-family="Helvetica,sans-Serif" font-size="10.00">+</text>
<text text-anchor="start" x="261.5" y="-80.5" font-family="Helvetica,sans-Serif" font-size="10.00">index</text>
<text text-anchor="start" x="236" y="-65.5" font-family="Helvetica,sans-Serif" font-size="10.00">+</text>
<text text-anchor="start" x="261.5" y="-65.5" font-family="Helvetica,sans-Serif" font-size="10.00">int_base</text>
<text text-anchor="start" x="236" y="-50.5" font-family="Helvetica,sans-Serif" font-size="10.00">+</text>
<text text-anchor="start" x="261.5" y="-50.5" font-family="Helvetica,sans-Serif" font-size="10.00">common</text>
<text text-anchor="start" x="236" y="-35.5" font-family="Helvetica,sans-Serif" font-size="10.00">+</text>
<text text-anchor="start" x="261.5" y="-35.5" font-family="Helvetica,sans-Serif" font-size="10.00">event_in</text>
<text text-anchor="start" x="236" y="-20.5" font-family="Helvetica,sans-Serif" font-size="10.00">+</text>
<text text-anchor="start" x="261.5" y="-20.5" font-family="Helvetica,sans-Serif" font-size="10.00">event_out</text>
<text text-anchor="start" x="276" y="-5.5" font-family="Helvetica,sans-Serif" font-size="10.00"> </text>
<polygon fill="#666666" stroke="#666666" points="216.5,-92 216.5,-92 338.5,-92 338.5,-92 216.5,-92"/>
<polygon fill="#666666" stroke="#666666" points="216.5,-17 216.5,-17 259.5,-17 259.5,-17 216.5,-17"/>
<polygon fill="#666666" stroke="#666666" points="259.5,-17 259.5,-17 338.5,-17 338.5,-17 259.5,-17"/>
<polygon fill="none" stroke="#666666" points="216.5,0 216.5,-120 338.5,-120 338.5,0 216.5,0"/>
</a>
</g>
</g>
<!-- Node2 -->
<g id="Node000002" class="node">
<title>Node2</title>
<g id="a_Node000002"><a xlink:href="structTTL__ext__short__tensor__t.html" target="_top" xlink:title="const and non&#45;const tensors in the appropriate address space">
<polygon fill="white" stroke="none" points="113,-335 0,-335 0,-271 113,-271 113,-335"/>
<text text-anchor="start" x="4.75" y="-321.5" font-family="Helvetica,sans-Serif" font-size="10.00">TTL_ext_short_tensor_t</text>
<text text-anchor="start" x="17" y="-306.5" font-family="Helvetica,sans-Serif" font-size="10.00">+</text>
<text text-anchor="start" x="40" y="-306.5" font-family="Helvetica,sans-Serif" font-size="10.00">base</text>
<text text-anchor="start" x="17" y="-291.5" font-family="Helvetica,sans-Serif" font-size="10.00">+</text>
<text text-anchor="start" x="40" y="-291.5" font-family="Helvetica,sans-Serif" font-size="10.00">elem_size</text>
<text text-anchor="start" x="55" y="-276.5" font-family="Helvetica,sans-Serif" font-size="10.00"> </text>
<polygon fill="#666666" stroke="#666666" points="0,-318 0,-318 113,-318 113,-318 0,-318"/>
<polygon fill="#666666" stroke="#666666" points="0,-288 0,-288 38,-288 38,-288 0,-288"/>
<polygon fill="#666666" stroke="#666666" points="38,-288 38,-288 113,-288 113,-288 38,-288"/>
<polygon fill="none" stroke="#666666" points="0,-271 0,-335 113,-335 113,-271 0,-271"/>
</a>
</g>
</g>
<!-- Node2&#45;&gt;Node1 -->
<g id="edge1_Node000001_Node000002" class="edge">
<title>Node2&#45;&gt;Node1</title>
<g id="a_edge1_Node000001_Node000002"><a xlink:title=" ">
<path fill="none" stroke="#63b8ff" d="M69.44,-271.01C82.54,-242.06 104.81,-198.7 132.75,-167.25 153.76,-143.59 180.87,-121.99 205.93,-104.54"/>
<polygon fill="none" stroke="#63b8ff" points="205.86,-104.58 208.57,-97.9 215.78,-97.82 213.07,-104.51 205.86,-104.58"/>
</a>
</g>
<text text-anchor="middle" x="167.38" y="-193.5" font-family="Helvetica,sans-Serif" font-size="10.00" fill="grey"> +ext_tensor_in</text>
<text text-anchor="middle" x="167.38" y="-182.25" font-family="Helvetica,sans-Serif" font-size="10.00" fill="grey">+ext_tensor_out</text>
</g>
<!-- Node3 -->
<g id="Node000003" class="node">
<title>Node3</title>
<g id="a_Node000003"><a xlink:href="structTTL__layout__t.html" target="_top" xlink:title="Description of a Tensor layout in memory.">
<polygon fill="white" stroke="none" points="161.5,-461.25 81.5,-461.25 81.5,-397.25 161.5,-397.25 161.5,-461.25"/>
<text text-anchor="start" x="93" y="-447.75" font-family="Helvetica,sans-Serif" font-size="10.00">TTL_layout_t</text>
<text text-anchor="start" x="85.5" y="-432.75" font-family="Helvetica,sans-Serif" font-size="10.00">+</text>
<text text-anchor="start" x="95.5" y="-432.75" font-family="Helvetica,sans-Serif" font-size="10.00">row_spacing</text>
<text text-anchor="start" x="85.5" y="-417.75" font-family="Helvetica,sans-Serif" font-size="10.00">+</text>
<text text-anchor="start" x="95.5" y="-417.75" font-family="Helvetica,sans-Serif" font-size="10.00">plane_spacing</text>
<text text-anchor="start" x="120" y="-402.75" font-family="Helvetica,sans-Serif" font-size="10.00"> </text>
<polygon fill="#666666" stroke="#666666" points="81.5,-444.25 81.5,-444.25 161.5,-444.25 161.5,-444.25 81.5,-444.25"/>
<polygon fill="#666666" stroke="#666666" points="81.5,-414.25 81.5,-414.25 93.5,-414.25 93.5,-414.25 81.5,-414.25"/>
<polygon fill="#666666" stroke="#666666" points="93.5,-414.25 93.5,-414.25 161.5,-414.25 161.5,-414.25 93.5,-414.25"/>
<polygon fill="none" stroke="#666666" points="81.5,-397.25 81.5,-461.25 161.5,-461.25 161.5,-397.25 81.5,-397.25"/>
</a>
</g>
</g>
<!-- Node3&#45;&gt;Node2 -->
<g id="edge2_Node000002_Node000003" class="edge">
<title>Node3&#45;&gt;Node2</title>
<g id="a_edge2_Node000002_Node000003"><a xlink:title=" ">
<path fill="none" stroke="#63b8ff" d="M81.54,-401.87C72.02,-393.47 63.08,-383.3 57.75,-371.75 54.32,-364.32 52.67,-355.92 52.07,-347.64"/>
<polygon fill="none" stroke="#63b8ff" points="52.07,-347.76 48,-341.81 51.92,-335.76 56,-341.71 52.07,-347.76"/>
</a>
</g>
<text text-anchor="middle" x="74.38" y="-362.25" font-family="Helvetica,sans-Serif" font-size="10.00" fill="grey"> +layout</text>
</g>
<!-- Node8 -->
<g id="Node000008" class="node">
<title>Node8</title>
<g id="a_Node000008"><a xlink:href="structTTL__int__short__tensor__t.html" target="_top" xlink:title="const and non&#45;const tensors in the appropriate address space">
<polygon fill="white" stroke="none" points="242,-335 131,-335 131,-271 242,-271 242,-335"/>
<text text-anchor="start" x="135.88" y="-321.5" font-family="Helvetica,sans-Serif" font-size="10.00">TTL_int_short_tensor_t</text>
<text text-anchor="start" x="147.5" y="-306.5" font-family="Helvetica,sans-Serif" font-size="10.00">+</text>
<text text-anchor="start" x="170" y="-306.5" font-family="Helvetica,sans-Serif" font-size="10.00">base</text>
<text text-anchor="start" x="147.5" y="-291.5" font-family="Helvetica,sans-Serif" font-size="10.00">+</text>
<text text-anchor="start" x="170" y="-291.5" font-family="Helvetica,sans-Serif" font-size="10.00">elem_size</text>
<text text-anchor="start" x="185" y="-276.5" font-family="Helvetica,sans-Serif" font-size="10.00"> </text>
<polygon fill="#666666" stroke="#666666" points="131,-318 131,-318 242,-318 242,-318 131,-318"/>
<polygon fill="#666666" stroke="#666666" points="131,-288 131,-288 168,-288 168,-288 131,-288"/>
<polygon fill="#666666" stroke="#666666" points="168,-288 168,-288 242,-288 242,-288 168,-288"/>
<polygon fill="none" stroke="#666666" points="131,-271 131,-335 242,-335 242,-271 131,-271"/>
</a>
</g>
</g>
<!-- Node3&#45;&gt;Node8 -->
<g id="edge9_Node000008_Node000003" class="edge">
<title>Node3&#45;&gt;Node8</title>
<g id="a_edge9_Node000008_Node000003"><a xlink:title=" ">
<path fill="none" stroke="#63b8ff" d="M137.57,-397.54C145.69,-382.01 155.68,-362.92 164.5,-346.05"/>
<polygon fill="none" stroke="#63b8ff" points="164.41,-346.22 163.65,-339.05 169.97,-335.59 170.74,-342.76 164.41,-346.22"/>
</a>
</g>
<text text-anchor="middle" x="172.38" y="-362.25" font-family="Helvetica,sans-Serif" font-size="10.00" fill="grey"> +layout</text>
</g>
<!-- Node4 -->
<g id="Node000004" class="node">
<title>Node4</title>
<g id="a_Node000004"><a xlink:href="structTTL__shape__t.html" target="_top" xlink:title="Description of a Shape.">
<polygon fill="white" stroke="none" points="287,-468.75 220,-468.75 220,-389.75 287,-389.75 287,-468.75"/>
<text text-anchor="start" x="224.62" y="-455.25" font-family="Helvetica,sans-Serif" font-size="10.00">TTL_shape_t</text>
<text text-anchor="start" x="229.5" y="-440.25" font-family="Helvetica,sans-Serif" font-size="10.00">+</text>
<text text-anchor="start" x="245" y="-440.25" font-family="Helvetica,sans-Serif" font-size="10.00">width</text>
<text text-anchor="start" x="229.5" y="-425.25" font-family="Helvetica,sans-Serif" font-size="10.00">+</text>
<text text-anchor="start" x="245" y="-425.25" font-family="Helvetica,sans-Serif" font-size="10.00">height</text>
<text text-anchor="start" x="229.5" y="-410.25" font-family="Helvetica,sans-Serif" font-size="10.00">+</text>
<text text-anchor="start" x="245" y="-410.25" font-family="Helvetica,sans-Serif" font-size="10.00">depth</text>
<text text-anchor="start" x="252" y="-395.25" font-family="Helvetica,sans-Serif" font-size="10.00"> </text>
<polygon fill="#666666" stroke="#666666" points="220,-451.75 220,-451.75 287,-451.75 287,-451.75 220,-451.75"/>
<polygon fill="#666666" stroke="#666666" points="220,-406.75 220,-406.75 243,-406.75 243,-406.75 220,-406.75"/>
<polygon fill="#666666" stroke="#666666" points="243,-406.75 243,-406.75 287,-406.75 287,-406.75 243,-406.75"/>
<polygon fill="none" stroke="#666666" points="220,-389.75 220,-468.75 287,-468.75 287,-389.75 220,-389.75"/>
</a>
</g>
</g>
<!-- Node4&#45;&gt;Node2 -->
<g id="edge3_Node000002_Node000004" class="edge">
<title>Node4&#45;&gt;Node2</title>
<g id="a_edge3_Node000002_Node000004"><a xlink:title=" ">
<path fill="none" stroke="#63b8ff" d="M220.01,-411.5C205.06,-404.34 187.09,-396.16 170.5,-389.75 145.52,-380.1 135.26,-386.64 113,-371.75 102.32,-364.61 92.58,-354.88 84.3,-345.01"/>
<polygon fill="none" stroke="#63b8ff" points="84.23,-344.92 77.37,-342.69 76.79,-335.5 83.64,-337.73 84.23,-344.92"/>
</a>
</g>
<text text-anchor="middle" x="129.75" y="-362.25" font-family="Helvetica,sans-Serif" font-size="10.00" fill="grey"> +shape</text>
</g>
<!-- Node5 -->
<g id="Node000005" class="node">
<title>Node5</title>
<g id="a_Node000005"><a xlink:href="structTTL__tile__t.html" target="_top" xlink:title=" ">
<polygon fill="white" stroke="none" points="415.5,-216.25 361.5,-216.25 361.5,-167.25 415.5,-167.25 415.5,-216.25"/>
<text text-anchor="start" x="366.38" y="-202.75" font-family="Helvetica,sans-Serif" font-size="10.00">TTL_tile_t</text>
<text text-anchor="start" x="387" y="-187.75" font-family="Helvetica,sans-Serif" font-size="10.00"> </text>
<text text-anchor="start" x="387" y="-172.75" font-family="Helvetica,sans-Serif" font-size="10.00"> </text>
<polygon fill="#666666" stroke="#666666" points="361.5,-199.25 361.5,-199.25 415.5,-199.25 415.5,-199.25 361.5,-199.25"/>
<polygon fill="#666666" stroke="#666666" points="361.5,-184.25 361.5,-184.25 415.5,-184.25 415.5,-184.25 361.5,-184.25"/>
<polygon fill="none" stroke="#666666" points="361.5,-167.25 361.5,-216.25 415.5,-216.25 415.5,-167.25 361.5,-167.25"/>
</a>
</g>
</g>
<!-- Node4&#45;&gt;Node5 -->
<g id="edge5_Node000005_Node000004" class="edge">
<title>Node4&#45;&gt;Node5</title>
<g id="a_edge5_Node000005_Node000004"><a xlink:title=" ">
<path fill="none" stroke="#63b8ff" d="M286.8,-419.67C322.96,-408.46 379.18,-385.02 406.5,-342.5 432.58,-301.91 427.82,-280.62 414.5,-234.25 413.86,-232.02 413.06,-229.79 412.14,-227.59"/>
<polygon fill="none" stroke="#63b8ff" points="412.21,-227.73 405.92,-224.2 406.75,-217.04 413.04,-220.56 412.21,-227.73"/>
</a>
</g>
<text text-anchor="middle" x="441.75" y="-299.12" font-family="Helvetica,sans-Serif" font-size="10.00" fill="grey"> +shape</text>
</g>
<!-- Node7 -->
<g id="Node000007" class="node">
<title>Node7</title>
<g id="a_Node000007"><a xlink:href="structTTL__int__short__sub__tensor__t.html" target="_top" xlink:title="const and non&#45;const sub tensors in the appropriate address space">
<polygon fill="white" stroke="none" points="343.5,-216.25 211.5,-216.25 211.5,-167.25 343.5,-167.25 343.5,-216.25"/>
<text text-anchor="start" x="216.38" y="-202.75" font-family="Helvetica,sans-Serif" font-size="10.00">TTL_int_short_sub_tensor_t</text>
<text text-anchor="start" x="238" y="-187.75" font-family="Helvetica,sans-Serif" font-size="10.00">+</text>
<text text-anchor="start" x="270.5" y="-187.75" font-family="Helvetica,sans-Serif" font-size="10.00">origin</text>
<text text-anchor="start" x="276" y="-172.75" font-family="Helvetica,sans-Serif" font-size="10.00"> </text>
<polygon fill="#666666" stroke="#666666" points="211.5,-199.25 211.5,-199.25 343.5,-199.25 343.5,-199.25 211.5,-199.25"/>
<polygon fill="#666666" stroke="#666666" points="211.5,-184.25 211.5,-184.25 268.5,-184.25 268.5,-184.25 211.5,-184.25"/>
<polygon fill="#666666" stroke="#666666" points="268.5,-184.25 268.5,-184.25 343.5,-184.25 343.5,-184.25 268.5,-184.25"/>
<polygon fill="none" stroke="#666666" points="211.5,-167.25 211.5,-216.25 343.5,-216.25 343.5,-167.25 211.5,-167.25"/>
</a>
</g>
</g>
<!-- Node4&#45;&gt;Node7 -->
<g id="edge11_Node000007_Node000004" class="edge">
<title>Node4&#45;&gt;Node7</title>
<g id="a_edge11_Node000007_Node000004"><a xlink:title=" ">
<path fill="none" stroke="#63b8ff" d="M258.39,-389.97C259.13,-383.88 259.86,-377.65 260.5,-371.75 265.9,-322.36 271.16,-265.19 274.36,-229.01"/>
<polygon fill="none" stroke="#63b8ff" points="274.36,-229.08 270.9,-222.75 275.41,-217.13 278.87,-223.45 274.36,-229.08"/>
</a>
</g>
<text text-anchor="middle" x="287.75" y="-299.12" font-family="Helvetica,sans-Serif" font-size="10.00" fill="grey"> +shape</text>
</g>
<!-- Node4&#45;&gt;Node8 -->
<g id="edge10_Node000008_Node000004" class="edge">
<title>Node4&#45;&gt;Node8</title>
<g id="a_edge10_Node000008_Node000004"><a xlink:title=" ">
<path fill="none" stroke="#63b8ff" d="M232.85,-389.96C225.4,-376.14 216.95,-360.47 209.33,-346.33"/>
<polygon fill="none" stroke="#63b8ff" points="209.28,-346.24 202.91,-342.86 203.58,-335.68 209.95,-339.06 209.28,-346.24"/>
</a>
</g>
<text text-anchor="middle" x="238.75" y="-362.25" font-family="Helvetica,sans-Serif" font-size="10.00" fill="grey"> +shape</text>
</g>
<!-- Node5&#45;&gt;Node1 -->
<g id="edge4_Node000001_Node000005" class="edge">
<title>Node5&#45;&gt;Node1</title>
<g id="a_edge4_Node000001_Node000005"><a xlink:title=" ">
<path fill="none" stroke="#63b8ff" d="M380.92,-167.5C377.15,-157.86 371.99,-146.87 365.5,-138 360.14,-130.68 353.98,-123.57 347.44,-116.81"/>
<polygon fill="none" stroke="#63b8ff" points="347.54,-116.9 340.45,-115.54 338.99,-108.48 346.07,-109.84 347.54,-116.9"/>
</a>
</g>
<text text-anchor="middle" x="414.62" y="-139.75" font-family="Helvetica,sans-Serif" font-size="10.00" fill="grey"> +next_exported_tile</text>
</g>
<!-- Node6 -->
<g id="Node000006" class="node">
<title>Node6</title>
<g id="a_Node000006"><a xlink:href="structTTL__offset__t.html" target="_top" xlink:title="Description of the 3D offset of an object.">
<polygon fill="white" stroke="none" points="397,-342.5 332,-342.5 332,-263.5 397,-263.5 397,-342.5"/>
<text text-anchor="start" x="336.75" y="-329" font-family="Helvetica,sans-Serif" font-size="10.00">TTL_offset_t</text>
<text text-anchor="start" x="346.5" y="-314" font-family="Helvetica,sans-Serif" font-size="10.00">+</text>
<text text-anchor="start" x="367" y="-314" font-family="Helvetica,sans-Serif" font-size="10.00">x</text>
<text text-anchor="start" x="346.5" y="-299" font-family="Helvetica,sans-Serif" font-size="10.00">+</text>
<text text-anchor="start" x="367" y="-299" font-family="Helvetica,sans-Serif" font-size="10.00">y</text>
<text text-anchor="start" x="346.5" y="-284" font-family="Helvetica,sans-Serif" font-size="10.00">+</text>
<text text-anchor="start" x="367" y="-284" font-family="Helvetica,sans-Serif" font-size="10.00">z</text>
<text text-anchor="start" x="363" y="-269" font-family="Helvetica,sans-Serif" font-size="10.00"> </text>
<polygon fill="#666666" stroke="#666666" points="332,-325.5 332,-325.5 397,-325.5 397,-325.5 332,-325.5"/>
<polygon fill="#666666" stroke="#666666" points="332,-280.5 332,-280.5 365,-280.5 365,-280.5 332,-280.5"/>
<polygon fill="#666666" stroke="#666666" points="365,-280.5 365,-280.5 397,-280.5 397,-280.5 365,-280.5"/>
<polygon fill="none" stroke="#666666" points="332,-263.5 332,-342.5 397,-342.5 397,-263.5 332,-263.5"/>
</a>
</g>
</g>
<!-- Node6&#45;&gt;Node5 -->
<g id="edge6_Node000005_Node000006" class="edge">
<title>Node6&#45;&gt;Node5</title>
<g id="a_edge6_Node000005_Node000006"><a xlink:title=" ">
<path fill="none" stroke="#63b8ff" d="M372.89,-263.79C375.4,-252.38 378.14,-239.92 380.61,-228.66"/>
<polygon fill="none" stroke="#63b8ff" points="380.6,-228.73 377.98,-222.01 383.17,-217.01 385.79,-223.73 380.6,-228.73"/>
</a>
</g>
<text text-anchor="middle" x="394.62" y="-236" font-family="Helvetica,sans-Serif" font-size="10.00" fill="grey"> +offset</text>
</g>
<!-- Node6&#45;&gt;Node7 -->
<g id="edge12_Node000007_Node000006" class="edge">
<title>Node6&#45;&gt;Node7</title>
<g id="a_edge12_Node000007_Node000006"><a xlink:title=" ">
<path fill="none" stroke="#63b8ff" d="M333.8,-263.73C328.93,-257.64 323.95,-251.4 319.25,-245.5 314.24,-239.2 308.9,-232.48 303.77,-226"/>
<polygon fill="none" stroke="#63b8ff" points="303.97,-226.26 297.11,-224.04 296.53,-216.85 303.39,-219.07 303.97,-226.26"/>
</a>
</g>
<text text-anchor="middle" x="345.12" y="-236" font-family="Helvetica,sans-Serif" font-size="10.00" fill="grey"> +sub_offset</text>
</g>
<!-- Node7&#45;&gt;Node1 -->
<g id="edge7_Node000001_Node000007" class="edge">
<title>Node7&#45;&gt;Node1</title>
<g id="a_edge7_Node000001_Node000007"><a xlink:title=" ">
<path fill="none" stroke="#63b8ff" d="M277.5,-167.25C277.5,-157.39 277.5,-145.33 277.5,-132.93"/>
<polygon fill="none" stroke="#63b8ff" points="277.5,-132.86 273.5,-126.86 277.5,-120.86 281.5,-126.86 277.5,-132.86"/>
</a>
</g>
<text text-anchor="middle" x="320.25" y="-139.75" font-family="Helvetica,sans-Serif" font-size="10.00" fill="grey"> +int_prev_imported</text>
</g>
<!-- Node8&#45;&gt;Node7 -->
<g id="edge8_Node000007_Node000008" class="edge">
<title>Node8&#45;&gt;Node7</title>
<g id="a_edge8_Node000007_Node000008"><a xlink:title=" ">
<path fill="none" stroke="#63b8ff" d="M203.21,-271.32C210.47,-259.2 219.53,-245.52 229.25,-234.25 231.96,-231.11 234.9,-228 237.97,-224.98"/>
<polygon fill="none" stroke="#63b8ff" points="237.92,-225.03 239.59,-218.01 246.7,-216.85 245.04,-223.87 237.92,-225.03"/>
</a>
</g>
<text text-anchor="middle" x="246.12" y="-236" font-family="Helvetica,sans-Serif" font-size="10.00" fill="grey"> +tensor</text>
</g>
</g>
</svg>
