<?xml version="1.0" encoding="UTF-8" standalone="no"?>
<!DOCTYPE svg PUBLIC "-//W3C//DTD SVG 1.1//EN"
 "http://www.w3.org/Graphics/SVG/1.1/DTD/svg11.dtd">
<!-- Generated by graphviz version 12.2.1 (20241206.2353)
 -->
<!-- Title: TTL_tile_t Pages: 1 -->
<svg width="156pt" height="185pt"
 viewBox="0.00 0.00 155.62 185.25" xmlns="http://www.w3.org/2000/svg" xmlns:xlink="http://www.w3.org/1999/xlink">
<g id="graph0" class="graph" transform="scale(1 1) rotate(0) translate(4 181.25)">
<title>TTL_tile_t</title>
<!-- Node1 -->
<g id="Node000001" class="node">
<title>Node1</title>
<g id="a_Node000001"><a xlink:title=" ">
<polygon fill="#999999" stroke="none" points="100,-49.75 47.75,-49.75 47.75,0 100,0 100,-49.75"/>
<text text-anchor="start" x="51.75" y="-36.25" font-family="Helvetica,sans-Serif" font-size="10.00">TTL_tile_t</text>
<text text-anchor="start" x="72.38" y="-21" font-family="Helvetica,sans-Serif" font-size="10.00"> </text>
<text text-anchor="start" x="72.38" y="-5.75" font-family="Helvetica,sans-Serif" font-size="10.00"> </text>
<polygon fill="#666666" stroke="#666666" points="47.75,-32.5 47.75,-32.5 100,-32.5 100,-32.5 47.75,-32.5"/>
<polygon fill="#666666" stroke="#666666" points="47.75,-17.25 47.75,-17.25 100,-17.25 100,-17.25 47.75,-17.25"/>
<polygon fill="none" stroke="#666666" points="47.75,0 47.75,-49.75 100,-49.75 100,0 47.75,0"/>
</a>
</g>
</g>
<!-- Node2 -->
<g id="Node000002" class="node">
<title>Node2</title>
<g id="a_Node000002"><a xlink:href="structTTL__shape__t.html" target="_top" xlink:title="Description of a Shape.">
<polygon fill="white" stroke="none" points="65.75,-177.25 0,-177.25 0,-97 65.75,-97 65.75,-177.25"/>
<text text-anchor="start" x="4" y="-163.75" font-family="Helvetica,sans-Serif" font-size="10.00">TTL_shape_t</text>
<text text-anchor="start" x="9.38" y="-148.5" font-family="Helvetica,sans-Serif" font-size="10.00">+</text>
<text text-anchor="start" x="24.75" y="-148.5" font-family="Helvetica,sans-Serif" font-size="10.00">width</text>
<text text-anchor="start" x="9.38" y="-133.25" font-family="Helvetica,sans-Serif" font-size="10.00">+</text>
<text text-anchor="start" x="24.75" y="-133.25" font-family="Helvetica,sans-Serif" font-size="10.00">height</text>
<text text-anchor="start" x="9.38" y="-118" font-family="Helvetica,sans-Serif" font-size="10.00">+</text>
<text text-anchor="start" x="24.75" y="-118" font-family="Helvetica,sans-Serif" font-size="10.00">depth</text>
<text text-anchor="start" x="31.38" y="-102.75" font-family="Helvetica,sans-Serif" font-size="10.00"> </text>
<polygon fill="#666666" stroke="#666666" points="0,-160 0,-160 65.75,-160 65.75,-160 0,-160"/>
<polygon fill="#666666" stroke="#666666" points="0,-114.25 0,-114.25 22.75,-114.25 22.75,-114.25 0,-114.25"/>
<polygon fill="#666666" stroke="#666666" points="22.75,-114.25 22.75,-114.25 65.75,-114.25 65.75,-114.25 22.75,-114.25"/>
<polygon fill="none" stroke="#666666" points="0,-97 0,-177.25 65.75,-177.25 65.75,-97 0,-97"/>
</a>
</g>
</g>
<!-- Node2&#45;&gt;Node1 -->
<g id="edge1_Node000001_Node000002" class="edge">
<title>Node2&#45;&gt;Node1</title>
<g id="a_edge1_Node000001_Node000002"><a xlink:title=" ">
<path fill="none" stroke="#63b8ff" d="M47.33,-97.25C51.62,-85.72 56.29,-73.15 60.51,-61.81"/>
<polygon fill="none" stroke="#63b8ff" points="60.53,-61.75 58.87,-54.74 64.71,-50.51 66.37,-57.52 60.53,-61.75"/>
</a>
</g>
<text text-anchor="middle" x="75.5" y="-69.5" font-family="Helvetica,sans-Serif" font-size="10.00" fill="grey"> +shape</text>
</g>
<!-- Node3 -->
<g id="Node000003" class="node">
<title>Node3</title>
<g id="a_Node000003"><a xlink:href="structTTL__offset__t.html" target="_top" xlink:title="Description of the 3D offset of an object.">
<polygon fill="white" stroke="none" points="147.62,-177.25 84.12,-177.25 84.12,-97 147.62,-97 147.62,-177.25"/>
<text text-anchor="start" x="88.12" y="-163.75" font-family="Helvetica,sans-Serif" font-size="10.00">TTL_offset_t</text>
<text text-anchor="start" x="98.38" y="-148.5" font-family="Helvetica,sans-Serif" font-size="10.00">+</text>
<text text-anchor="start" x="118.62" y="-148.5" font-family="Helvetica,sans-Serif" font-size="10.00">x</text>
<text text-anchor="start" x="98.38" y="-133.25" font-family="Helvetica,sans-Serif" font-size="10.00">+</text>
<text text-anchor="start" x="118.62" y="-133.25" font-family="Helvetica,sans-Serif" font-size="10.00">y</text>
<text text-anchor="start" x="98.38" y="-118" font-family="Helvetica,sans-Serif" font-size="10.00">+</text>
<text text-anchor="start" x="118.62" y="-118" font-family="Helvetica,sans-Serif" font-size="10.00">z</text>
<text text-anchor="start" x="114.38" y="-102.75" font-family="Helvetica,sans-Serif" font-size="10.00"> </text>
<polygon fill="#666666" stroke="#666666" points="84.12,-160 84.12,-160 147.62,-160 147.62,-160 84.12,-160"/>
<polygon fill="#666666" stroke="#666666" points="84.12,-114.25 84.12,-114.25 116.62,-114.25 116.62,-114.25 84.12,-114.25"/>
<polygon fill="#666666" stroke="#666666" points="116.62,-114.25 116.62,-114.25 147.62,-114.25 147.62,-114.25 116.62,-114.25"/>
<polygon fill="none" stroke="#666666" points="84.12,-97 84.12,-177.25 147.62,-177.25 147.62,-97 84.12,-97"/>
</a>
</g>
</g>
<!-- Node3&#45;&gt;Node1 -->
<g id="edge2_Node000001_Node000003" class="edge">
<title>Node3&#45;&gt;Node1</title>
<g id="a_edge2_Node000001_Node000003"><a xlink:title=" ">
<path fill="none" stroke="#63b8ff" d="M104.32,-97.11C101.18,-87.43 97.61,-77.14 93.88,-67.75 93.02,-65.6 92.1,-63.4 91.15,-61.2"/>
<polygon fill="none" stroke="#63b8ff" points="91.2,-61.29 85.07,-57.48 86.23,-50.37 92.36,-54.17 91.2,-61.29"/>
</a>
</g>
<text text-anchor="middle" x="114.16" y="-69.5" font-family="Helvetica,sans-Serif" font-size="10.00" fill="grey"> +offset</text>
</g>
</g>
</svg>
