<?xml version="1.0" encoding="UTF-8" standalone="no"?>
<!DOCTYPE svg PUBLIC "-//W3C//DTD SVG 1.1//EN"
 "http://www.w3.org/Graphics/SVG/1.1/DTD/svg11.dtd">
<!-- Generated by graphviz version 12.2.1 (20241206.2353)
 -->
<!-- Title: TTL_duplex_const_short_tensor_buffering_t Pages: 1 -->
<svg width="241pt" height="404pt"
 viewBox="0.00 0.00 240.76 403.50" xmlns="http://www.w3.org/2000/svg" xmlns:xlink="http://www.w3.org/1999/xlink">
<g id="graph0" class="graph" transform="scale(1 1) rotate(0) translate(4 399.5)">
<title>TTL_duplex_const_short_tensor_buffering_t</title>
<!-- Node1 -->
<g id="Node000001" class="node">
<title>Node1</title>
<g id="a_Node000001"><a xlink:title="Data required to perform duplex buffer pipelining.">
<polygon fill="#999999" stroke="none" points="174.38,-122 59.12,-122 59.12,0 174.38,0 174.38,-122"/>
<text text-anchor="start" x="63.12" y="-108.5" font-family="Helvetica,sans-Serif" font-size="10.00">TTL_duplex_const_short</text>
<text text-anchor="start" x="75.5" y="-97.25" font-family="Helvetica,sans-Serif" font-size="10.00">_tensor_buffering_t</text>
<text text-anchor="start" x="68.69" y="-82" font-family="Helvetica,sans-Serif" font-size="10.00">+</text>
<text text-anchor="start" x="84.25" y="-82" font-family="Helvetica,sans-Serif" font-size="10.00">index</text>
<text text-anchor="start" x="68.69" y="-66.75" font-family="Helvetica,sans-Serif" font-size="10.00">+</text>
<text text-anchor="start" x="84.25" y="-66.75" font-family="Helvetica,sans-Serif" font-size="10.00">int_base</text>
<text text-anchor="start" x="68.69" y="-51.5" font-family="Helvetica,sans-Serif" font-size="10.00">+</text>
<text text-anchor="start" x="84.25" y="-51.5" font-family="Helvetica,sans-Serif" font-size="10.00">common</text>
<text text-anchor="start" x="68.69" y="-36.25" font-family="Helvetica,sans-Serif" font-size="10.00">+</text>
<text text-anchor="start" x="84.25" y="-36.25" font-family="Helvetica,sans-Serif" font-size="10.00">events</text>
<text text-anchor="start" x="68.69" y="-21" font-family="Helvetica,sans-Serif" font-size="10.00">+</text>
<text text-anchor="start" x="84.25" y="-21" font-family="Helvetica,sans-Serif" font-size="10.00">prev_out_tensors</text>
<text text-anchor="start" x="115.25" y="-5.75" font-family="Helvetica,sans-Serif" font-size="10.00"> </text>
<polygon fill="#666666" stroke="#666666" points="59.12,-93.5 59.12,-93.5 174.38,-93.5 174.38,-93.5 59.12,-93.5"/>
<polygon fill="#666666" stroke="#666666" points="59.12,-17.25 59.12,-17.25 82.25,-17.25 82.25,-17.25 59.12,-17.25"/>
<polygon fill="#666666" stroke="#666666" points="82.25,-17.25 82.25,-17.25 174.38,-17.25 174.38,-17.25 82.25,-17.25"/>
<polygon fill="none" stroke="#666666" points="59.12,0 59.12,-122 174.38,-122 174.38,0 59.12,0"/>
</a>
</g>
</g>
<!-- Node2 -->
<g id="Node000002" class="node">
<title>Node2</title>
<g id="a_Node000002"><a xlink:href="structTTL__ext__short__tensor__t.html" target="_top" xlink:title="const and non&#45;const tensors in the appropriate address space">
<polygon fill="white" stroke="none" points="111.5,-262.38 0,-262.38 0,-197.38 111.5,-197.38 111.5,-262.38"/>
<text text-anchor="start" x="4" y="-248.88" font-family="Helvetica,sans-Serif" font-size="10.00">TTL_ext_short_tensor_t</text>
<text text-anchor="start" x="16.5" y="-233.62" font-family="Helvetica,sans-Serif" font-size="10.00">+</text>
<text text-anchor="start" x="39" y="-233.62" font-family="Helvetica,sans-Serif" font-size="10.00">base</text>
<text text-anchor="start" x="16.5" y="-218.38" font-family="Helvetica,sans-Serif" font-size="10.00">+</text>
<text text-anchor="start" x="39" y="-218.38" font-family="Helvetica,sans-Serif" font-size="10.00">elem_size</text>
<text text-anchor="start" x="54.25" y="-203.12" font-family="Helvetica,sans-Serif" font-size="10.00"> </text>
<polygon fill="#666666" stroke="#666666" points="0,-245.12 0,-245.12 111.5,-245.12 111.5,-245.12 0,-245.12"/>
<polygon fill="#666666" stroke="#666666" points="0,-214.62 0,-214.62 37,-214.62 37,-214.62 0,-214.62"/>
<polygon fill="#666666" stroke="#666666" points="37,-214.62 37,-214.62 111.5,-214.62 111.5,-214.62 37,-214.62"/>
<polygon fill="none" stroke="#666666" points="0,-197.38 0,-262.38 111.5,-262.38 111.5,-197.38 0,-197.38"/>
</a>
</g>
</g>
<!-- Node2&#45;&gt;Node1 -->
<g id="edge1_Node000001_Node000002" class="edge">
<title>Node2&#45;&gt;Node1</title>
<g id="a_edge1_Node000001_Node000002"><a xlink:title=" ">
<path fill="none" stroke="#63b8ff" d="M62.36,-197.57C66.4,-180.33 72.1,-158.7 79,-140 79.75,-137.96 80.54,-135.91 81.35,-133.84"/>
<polygon fill="none" stroke="#63b8ff" points="81.34,-133.87 79.95,-126.8 85.95,-122.79 87.34,-129.87 81.34,-133.87"/>
</a>
</g>
<text text-anchor="middle" x="113.88" y="-164.25" font-family="Helvetica,sans-Serif" font-size="10.00" fill="grey"> +ext_tensor_in</text>
<text text-anchor="middle" x="113.88" y="-153" font-family="Helvetica,sans-Serif" font-size="10.00" fill="grey">+ext_tensor_out</text>
<text text-anchor="middle" x="113.88" y="-141.75" font-family="Helvetica,sans-Serif" font-size="10.00" fill="grey">+to_export_to</text>
</g>
<!-- Node3 -->
<g id="Node000003" class="node">
<title>Node3</title>
<g id="a_Node000003"><a xlink:href="structTTL__layout__t.html" target="_top" xlink:title="Description of a Tensor layout in memory.">
<polygon fill="white" stroke="none" points="105.88,-387.88 25.62,-387.88 25.62,-322.88 105.88,-322.88 105.88,-387.88"/>
<text text-anchor="start" x="37.25" y="-374.38" font-family="Helvetica,sans-Serif" font-size="10.00">TTL_layout_t</text>
<text text-anchor="start" x="29.62" y="-359.12" font-family="Helvetica,sans-Serif" font-size="10.00">+</text>
<text text-anchor="start" x="39.62" y="-359.12" font-family="Helvetica,sans-Serif" font-size="10.00">row_spacing</text>
<text text-anchor="start" x="29.62" y="-343.88" font-family="Helvetica,sans-Serif" font-size="10.00">+</text>
<text text-anchor="start" x="39.62" y="-343.88" font-family="Helvetica,sans-Serif" font-size="10.00">plane_spacing</text>
<text text-anchor="start" x="64.25" y="-328.62" font-family="Helvetica,sans-Serif" font-size="10.00"> </text>
<polygon fill="#666666" stroke="#666666" points="25.62,-370.62 25.62,-370.62 105.88,-370.62 105.88,-370.62 25.62,-370.62"/>
<polygon fill="#666666" stroke="#666666" points="25.62,-340.12 25.62,-340.12 37.62,-340.12 37.62,-340.12 25.62,-340.12"/>
<polygon fill="#666666" stroke="#666666" points="37.62,-340.12 37.62,-340.12 105.88,-340.12 105.88,-340.12 37.62,-340.12"/>
<polygon fill="none" stroke="#666666" points="25.62,-322.88 25.62,-387.88 105.88,-387.88 105.88,-322.88 25.62,-322.88"/>
</a>
</g>
</g>
<!-- Node3&#45;&gt;Node2 -->
<g id="edge2_Node000002_Node000003" class="edge">
<title>Node3&#45;&gt;Node2</title>
<g id="a_edge2_Node000002_Node000003"><a xlink:title=" ">
<path fill="none" stroke="#63b8ff" d="M43.93,-323.03C39.43,-314.98 35.35,-306.09 33,-297.25 31.03,-289.86 31.4,-282.1 33.07,-274.6"/>
<polygon fill="none" stroke="#63b8ff" points="33.06,-274.64 31.05,-267.71 36.67,-263.19 38.68,-270.12 33.06,-274.64"/>
</a>
</g>
<text text-anchor="middle" x="49.88" y="-287.75" font-family="Helvetica,sans-Serif" font-size="10.00" fill="grey"> +layout</text>
</g>
<!-- Node5 -->
<g id="Node000005" class="node">
<title>Node5</title>
<g id="a_Node000005"><a xlink:href="structTTL__const__int__short__tensor__t.html" target="_top" xlink:title=" ">
<polygon fill="white" stroke="none" points="227.75,-268 129.75,-268 129.75,-191.75 227.75,-191.75 227.75,-268"/>
<text text-anchor="start" x="133.75" y="-254.5" font-family="Helvetica,sans-Serif" font-size="10.00">TTL_const_int_short</text>
<text text-anchor="start" x="158.5" y="-243.25" font-family="Helvetica,sans-Serif" font-size="10.00">_tensor_t</text>
<text text-anchor="start" x="142.88" y="-228" font-family="Helvetica,sans-Serif" font-size="10.00">+</text>
<text text-anchor="start" x="162" y="-228" font-family="Helvetica,sans-Serif" font-size="10.00">base</text>
<text text-anchor="start" x="142.88" y="-212.75" font-family="Helvetica,sans-Serif" font-size="10.00">+</text>
<text text-anchor="start" x="162" y="-212.75" font-family="Helvetica,sans-Serif" font-size="10.00">elem_size</text>
<text text-anchor="start" x="177.25" y="-197.5" font-family="Helvetica,sans-Serif" font-size="10.00"> </text>
<polygon fill="#666666" stroke="#666666" points="129.75,-239.5 129.75,-239.5 227.75,-239.5 227.75,-239.5 129.75,-239.5"/>
<polygon fill="#666666" stroke="#666666" points="129.75,-209 129.75,-209 160,-209 160,-209 129.75,-209"/>
<polygon fill="#666666" stroke="#666666" points="160,-209 160,-209 227.75,-209 227.75,-209 160,-209"/>
<polygon fill="none" stroke="#666666" points="129.75,-191.75 129.75,-268 227.75,-268 227.75,-191.75 129.75,-191.75"/>
</a>
</g>
</g>
<!-- Node3&#45;&gt;Node5 -->
<g id="edge5_Node000005_Node000003" class="edge">
<title>Node3&#45;&gt;Node5</title>
<g id="a_edge5_Node000005_Node000003"><a xlink:title=" ">
<path fill="none" stroke="#63b8ff" d="M69.61,-322.92C72.46,-310.34 77.41,-296.4 86,-286 95.17,-274.89 102.65,-275.8 118.7,-268.43"/>
<polygon fill="none" stroke="#63b8ff" points="118.46,-268.56 121.93,-262.24 129.1,-263.01 125.63,-269.33 118.46,-268.56"/>
</a>
</g>
<text text-anchor="middle" x="102.88" y="-287.75" font-family="Helvetica,sans-Serif" font-size="10.00" fill="grey"> +layout</text>
</g>
<!-- Node4 -->
<g id="Node000004" class="node">
<title>Node4</title>
<g id="a_Node000004"><a xlink:href="structTTL__shape__t.html" target="_top" xlink:title="Description of a Shape.">
<polygon fill="white" stroke="none" points="200.62,-395.5 134.88,-395.5 134.88,-315.25 200.62,-315.25 200.62,-395.5"/>
<text text-anchor="start" x="138.88" y="-382" font-family="Helvetica,sans-Serif" font-size="10.00">TTL_shape_t</text>
<text text-anchor="start" x="144.25" y="-366.75" font-family="Helvetica,sans-Serif" font-size="10.00">+</text>
<text text-anchor="start" x="159.62" y="-366.75" font-family="Helvetica,sans-Serif" font-size="10.00">width</text>
<text text-anchor="start" x="144.25" y="-351.5" font-family="Helvetica,sans-Serif" font-size="10.00">+</text>
<text text-anchor="start" x="159.62" y="-351.5" font-family="Helvetica,sans-Serif" font-size="10.00">height</text>
<text text-anchor="start" x="144.25" y="-336.25" font-family="Helvetica,sans-Serif" font-size="10.00">+</text>
<text text-anchor="start" x="159.62" y="-336.25" font-family="Helvetica,sans-Serif" font-size="10.00">depth</text>
<text text-anchor="start" x="166.25" y="-321" font-family="Helvetica,sans-Serif" font-size="10.00"> </text>
<polygon fill="#666666" stroke="#666666" points="134.88,-378.25 134.88,-378.25 200.62,-378.25 200.62,-378.25 134.88,-378.25"/>
<polygon fill="#666666" stroke="#666666" points="134.88,-332.5 134.88,-332.5 157.62,-332.5 157.62,-332.5 134.88,-332.5"/>
<polygon fill="#666666" stroke="#666666" points="157.62,-332.5 157.62,-332.5 200.62,-332.5 200.62,-332.5 157.62,-332.5"/>
<polygon fill="none" stroke="#666666" points="134.88,-315.25 134.88,-395.5 200.62,-395.5 200.62,-315.25 134.88,-315.25"/>
</a>
</g>
</g>
<!-- Node4&#45;&gt;Node2 -->
<g id="edge3_Node000002_Node000004" class="edge">
<title>Node4&#45;&gt;Node2</title>
<g id="a_edge3_Node000002_Node000004"><a xlink:title=" ">
<path fill="none" stroke="#63b8ff" d="M145.8,-315.57C139.3,-305.48 131.76,-294.94 123.75,-286 119.06,-280.77 113.84,-275.62 108.45,-270.71"/>
<polygon fill="none" stroke="#63b8ff" points="108.34,-270.62 101.19,-269.69 99.29,-262.74 106.44,-263.66 108.34,-270.62"/>
</a>
</g>
<text text-anchor="middle" x="149.47" y="-287.75" font-family="Helvetica,sans-Serif" font-size="10.00" fill="grey"> +shape</text>
</g>
<!-- Node4&#45;&gt;Node5 -->
<g id="edge6_Node000005_Node000004" class="edge">
<title>Node4&#45;&gt;Node5</title>
<g id="a_edge6_Node000005_Node000004"><a xlink:title=" ">
<path fill="none" stroke="#63b8ff" d="M178.65,-315.27C179.93,-309.28 181.04,-303.13 181.75,-297.25 182.4,-291.9 182.71,-286.3 182.78,-280.71"/>
<polygon fill="none" stroke="#63b8ff" points="182.78,-280.72 178.69,-274.78 182.59,-268.72 186.69,-274.66 182.78,-280.72"/>
</a>
</g>
<text text-anchor="middle" x="199.87" y="-287.75" font-family="Helvetica,sans-Serif" font-size="10.00" fill="grey"> +shape</text>
</g>
<!-- Node5&#45;&gt;Node1 -->
<g id="edge4_Node000001_Node000005" class="edge">
<title>Node5&#45;&gt;Node1</title>
<g id="a_edge4_Node000001_Node000005"><a xlink:title=" ">
<path fill="none" stroke="#63b8ff" d="M166.87,-191.93C161.55,-175.89 155.07,-156.93 148.75,-140 147.99,-137.97 147.22,-135.92 146.43,-133.85"/>
<polygon fill="none" stroke="#63b8ff" points="146.45,-133.92 140.55,-129.77 142.1,-122.73 148,-126.87 146.45,-133.92"/>
</a>
</g>
<text text-anchor="middle" x="196.38" y="-153" font-family="Helvetica,sans-Serif" font-size="10.00" fill="grey"> +to_export_from</text>
</g>
</g>
</svg>
