<?xml version="1.0" encoding="UTF-8" standalone="no"?>
<!DOCTYPE svg PUBLIC "-//W3C//DTD SVG 1.1//EN"
 "http://www.w3.org/Graphics/SVG/1.1/DTD/svg11.dtd">
<!-- Generated by graphviz version 3.0.0 (20221109.1736)
 -->
<!-- Title: TTL_tile_t Pages: 1 -->
<svg width="172pt" height="193pt"
 viewBox="0.00 0.00 172.00 193.00" xmlns="http://www.w3.org/2000/svg" xmlns:xlink="http://www.w3.org/1999/xlink">
<g id="graph0" class="graph" transform="scale(1 1) rotate(0) translate(4 189)">
<title>TTL_tile_t</title>
<polygon fill="white" stroke="transparent" points="-4,4 -4,-189 168,-189 168,4 -4,4"/>
<!-- Node1 -->
<g id="node1" class="node">
<title>Node1</title>
<g id="a_node1"><a xlink:title=" ">
<polygon fill="#bfbfbf" stroke="black" points="51.5,-0.5 51.5,-57.5 112.5,-57.5 112.5,-0.5 51.5,-0.5"/>
<text text-anchor="middle" x="82" y="-45.5" font-family="Helvetica,sans-Serif" font-size="10.00">TTL_tile_t</text>
<polyline fill="none" stroke="black" points="51.5,-38.5 112.5,-38.5 "/>
<text text-anchor="middle" x="82" y="-26.5" font-family="Helvetica,sans-Serif" font-size="10.00"> </text>
<polyline fill="none" stroke="black" points="51.5,-19.5 112.5,-19.5 "/>
<text text-anchor="middle" x="82" y="-7.5" font-family="Helvetica,sans-Serif" font-size="10.00"> </text>
</a>
</g>
</g>
<!-- Node2 -->
<g id="node2" class="node">
<title>Node2</title>
<g id="a_node2"><a xlink:href="structTTL__shape__t.html" target="_top" xlink:title="Description of a Shape.">
<polygon fill="white" stroke="black" points="0,-105.5 0,-184.5 74,-184.5 74,-105.5 0,-105.5"/>
<text text-anchor="middle" x="37" y="-172.5" font-family="Helvetica,sans-Serif" font-size="10.00">TTL_shape_t</text>
<polyline fill="none" stroke="black" points="0,-165.5 74,-165.5 "/>
<text text-anchor="start" x="8" y="-153.5" font-family="Helvetica,sans-Serif" font-size="10.00">+ width</text>
<text text-anchor="start" x="8" y="-142.5" font-family="Helvetica,sans-Serif" font-size="10.00">+ height</text>
<text text-anchor="start" x="8" y="-131.5" font-family="Helvetica,sans-Serif" font-size="10.00">+ depth</text>
<polyline fill="none" stroke="black" points="0,-124.5 74,-124.5 "/>
<text text-anchor="middle" x="37" y="-112.5" font-family="Helvetica,sans-Serif" font-size="10.00"> </text>
</a>
</g>
</g>
<!-- Node2&#45;&gt;Node1 -->
<g id="edge1" class="edge">
<title>Node2&#45;&gt;Node1</title>
<path fill="none" stroke="#404040" d="M52.23,-105.4C56.86,-93.68 61.95,-80.79 66.59,-69.04"/>
<polygon fill="none" stroke="#404040" points="66.64,-68.91 65.12,-61.86 71.05,-57.75 72.56,-64.8 66.64,-68.91"/>
<text text-anchor="middle" x="81.5" y="-79" font-family="Helvetica,sans-Serif" font-size="10.00"> +shape</text>
</g>
<!-- Node3 -->
<g id="node3" class="node">
<title>Node3</title>
<g id="a_node3"><a xlink:href="structTTL__offset__t.html" target="_top" xlink:title="Description of the 3D offset of an object.">
<polygon fill="white" stroke="black" points="92,-105.5 92,-184.5 164,-184.5 164,-105.5 92,-105.5"/>
<text text-anchor="middle" x="128" y="-172.5" font-family="Helvetica,sans-Serif" font-size="10.00">TTL_offset_t</text>
<polyline fill="none" stroke="black" points="92,-165.5 164,-165.5 "/>
<text text-anchor="start" x="100" y="-153.5" font-family="Helvetica,sans-Serif" font-size="10.00">+ x</text>
<text text-anchor="start" x="100" y="-142.5" font-family="Helvetica,sans-Serif" font-size="10.00">+ y</text>
<text text-anchor="start" x="100" y="-131.5" font-family="Helvetica,sans-Serif" font-size="10.00">+ z</text>
<polyline fill="none" stroke="black" points="92,-124.5 164,-124.5 "/>
<text text-anchor="middle" x="128" y="-112.5" font-family="Helvetica,sans-Serif" font-size="10.00"> </text>
</a>
</g>
</g>
<!-- Node3&#45;&gt;Node1 -->
<g id="edge2" class="edge">
<title>Node3&#45;&gt;Node1</title>
<path fill="none" stroke="#404040" d="M114.36,-105.32C110.8,-95.69 106.88,-85.42 103,-76 102.03,-73.65 101.02,-71.25 99.98,-68.83"/>
<polygon fill="none" stroke="#404040" points="99.86,-68.56 93.77,-64.69 95,-57.58 101.09,-61.45 99.86,-68.56"/>
<text text-anchor="middle" x="122.5" y="-79" font-family="Helvetica,sans-Serif" font-size="10.00"> +offset</text>
</g>
</g>
</svg>
