<?xml version="1.0" encoding="UTF-8" standalone="no"?>
<!DOCTYPE svg PUBLIC "-//W3C//DTD SVG 1.1//EN"
 "http://www.w3.org/Graphics/SVG/1.1/DTD/svg11.dtd">
<!-- Generated by graphviz version 12.2.1 (20241206.2353)
 -->
<!-- Title: TTL_simplex_const_short_tensor_buffering_t Pages: 1 -->
<svg width="464pt" height="482pt"
 viewBox="0.00 0.00 463.91 482.00" xmlns="http://www.w3.org/2000/svg" xmlns:xlink="http://www.w3.org/1999/xlink">
<g id="graph0" class="graph" transform="scale(1 1) rotate(0) translate(4 478)">
<title>TTL_simplex_const_short_tensor_buffering_t</title>
<!-- Node1 -->
<g id="Node000001" class="node">
<title>Node1</title>
<g id="a_Node000001"><a xlink:title=" ">
<polygon fill="#999999" stroke="none" points="335,-122 214.5,-122 214.5,0 335,0 335,-122"/>
<text text-anchor="start" x="218.5" y="-108.5" font-family="Helvetica,sans-Serif" font-size="10.00">TTL_simplex_const_short</text>
<text text-anchor="start" x="233.5" y="-97.25" font-family="Helvetica,sans-Serif" font-size="10.00">_tensor_buffering_t</text>
<text text-anchor="start" x="233.44" y="-82" font-family="Helvetica,sans-Serif" font-size="10.00">+</text>
<text text-anchor="start" x="258.38" y="-82" font-family="Helvetica,sans-Serif" font-size="10.00">index</text>
<text text-anchor="start" x="233.44" y="-66.75" font-family="Helvetica,sans-Serif" font-size="10.00">+</text>
<text text-anchor="start" x="258.38" y="-66.75" font-family="Helvetica,sans-Serif" font-size="10.00">int_base</text>
<text text-anchor="start" x="233.44" y="-51.5" font-family="Helvetica,sans-Serif" font-size="10.00">+</text>
<text text-anchor="start" x="258.38" y="-51.5" font-family="Helvetica,sans-Serif" font-size="10.00">common</text>
<text text-anchor="start" x="233.44" y="-36.25" font-family="Helvetica,sans-Serif" font-size="10.00">+</text>
<text text-anchor="start" x="258.38" y="-36.25" font-family="Helvetica,sans-Serif" font-size="10.00">event_in</text>
<text text-anchor="start" x="233.44" y="-21" font-family="Helvetica,sans-Serif" font-size="10.00">+</text>
<text text-anchor="start" x="258.38" y="-21" font-family="Helvetica,sans-Serif" font-size="10.00">event_out</text>
<text text-anchor="start" x="273.25" y="-5.75" font-family="Helvetica,sans-Serif" font-size="10.00"> </text>
<polygon fill="#666666" stroke="#666666" points="214.5,-93.5 214.5,-93.5 335,-93.5 335,-93.5 214.5,-93.5"/>
<polygon fill="#666666" stroke="#666666" points="214.5,-17.25 214.5,-17.25 256.38,-17.25 256.38,-17.25 214.5,-17.25"/>
<polygon fill="#666666" stroke="#666666" points="256.38,-17.25 256.38,-17.25 335,-17.25 335,-17.25 256.38,-17.25"/>
<polygon fill="none" stroke="#666666" points="214.5,0 214.5,-122 335,-122 335,0 214.5,0"/>
</a>
</g>
</g>
<!-- Node2 -->
<g id="Node000002" class="node">
<title>Node2</title>
<g id="a_Node000002"><a xlink:href="structTTL__ext__short__tensor__t.html" target="_top" xlink:title="const and non&#45;const tensors in the appropriate address space">
<polygon fill="white" stroke="none" points="111.5,-338.88 0,-338.88 0,-273.88 111.5,-273.88 111.5,-338.88"/>
<text text-anchor="start" x="4" y="-325.38" font-family="Helvetica,sans-Serif" font-size="10.00">TTL_ext_short_tensor_t</text>
<text text-anchor="start" x="16.5" y="-310.12" font-family="Helvetica,sans-Serif" font-size="10.00">+</text>
<text text-anchor="start" x="39" y="-310.12" font-family="Helvetica,sans-Serif" font-size="10.00">base</text>
<text text-anchor="start" x="16.5" y="-294.88" font-family="Helvetica,sans-Serif" font-size="10.00">+</text>
<text text-anchor="start" x="39" y="-294.88" font-family="Helvetica,sans-Serif" font-size="10.00">elem_size</text>
<text text-anchor="start" x="54.25" y="-279.62" font-family="Helvetica,sans-Serif" font-size="10.00"> </text>
<polygon fill="#666666" stroke="#666666" points="0,-321.62 0,-321.62 111.5,-321.62 111.5,-321.62 0,-321.62"/>
<polygon fill="#666666" stroke="#666666" points="0,-291.12 0,-291.12 37,-291.12 37,-291.12 0,-291.12"/>
<polygon fill="#666666" stroke="#666666" points="37,-291.12 37,-291.12 111.5,-291.12 111.5,-291.12 37,-291.12"/>
<polygon fill="none" stroke="#666666" points="0,-273.88 0,-338.88 111.5,-338.88 111.5,-273.88 0,-273.88"/>
</a>
</g>
</g>
<!-- Node2&#45;&gt;Node1 -->
<g id="edge1_Node000001_Node000002" class="edge">
<title>Node2&#45;&gt;Node1</title>
<g id="a_edge1_Node000001_Node000002"><a xlink:title=" ">
<path fill="none" stroke="#63b8ff" d="M68.43,-274.1C81.28,-244.88 103.22,-201.09 131,-169.25 151.96,-145.23 179.14,-123.27 204.22,-105.56"/>
<polygon fill="none" stroke="#63b8ff" points="204.2,-105.58 206.86,-98.87 214.07,-98.75 211.41,-105.46 204.2,-105.58"/>
</a>
</g>
<text text-anchor="middle" x="165.88" y="-195.88" font-family="Helvetica,sans-Serif" font-size="10.00" fill="grey"> +ext_tensor_in</text>
<text text-anchor="middle" x="165.88" y="-184.62" font-family="Helvetica,sans-Serif" font-size="10.00" fill="grey">+ext_tensor_out</text>
</g>
<!-- Node3 -->
<g id="Node000003" class="node">
<title>Node3</title>
<g id="a_Node000003"><a xlink:href="structTTL__layout__t.html" target="_top" xlink:title="Description of a Tensor layout in memory.">
<polygon fill="white" stroke="none" points="158.88,-466.38 78.62,-466.38 78.62,-401.38 158.88,-401.38 158.88,-466.38"/>
<text text-anchor="start" x="90.25" y="-452.88" font-family="Helvetica,sans-Serif" font-size="10.00">TTL_layout_t</text>
<text text-anchor="start" x="82.62" y="-437.62" font-family="Helvetica,sans-Serif" font-size="10.00">+</text>
<text text-anchor="start" x="92.62" y="-437.62" font-family="Helvetica,sans-Serif" font-size="10.00">row_spacing</text>
<text text-anchor="start" x="82.62" y="-422.38" font-family="Helvetica,sans-Serif" font-size="10.00">+</text>
<text text-anchor="start" x="92.62" y="-422.38" font-family="Helvetica,sans-Serif" font-size="10.00">plane_spacing</text>
<text text-anchor="start" x="117.25" y="-407.12" font-family="Helvetica,sans-Serif" font-size="10.00"> </text>
<polygon fill="#666666" stroke="#666666" points="78.62,-449.12 78.62,-449.12 158.88,-449.12 158.88,-449.12 78.62,-449.12"/>
<polygon fill="#666666" stroke="#666666" points="78.62,-418.62 78.62,-418.62 90.62,-418.62 90.62,-418.62 78.62,-418.62"/>
<polygon fill="#666666" stroke="#666666" points="90.62,-418.62 90.62,-418.62 158.88,-418.62 158.88,-418.62 90.62,-418.62"/>
<polygon fill="none" stroke="#666666" points="78.62,-401.38 78.62,-466.38 158.88,-466.38 158.88,-401.38 78.62,-401.38"/>
</a>
</g>
</g>
<!-- Node3&#45;&gt;Node2 -->
<g id="edge2_Node000002_Node000003" class="edge">
<title>Node3&#45;&gt;Node2</title>
<g id="a_edge2_Node000002_Node000003"><a xlink:title=" ">
<path fill="none" stroke="#63b8ff" d="M78.7,-406.89C68.77,-398.28 59.43,-387.77 54,-375.75 50.63,-368.29 49.21,-359.9 48.92,-351.61"/>
<polygon fill="none" stroke="#63b8ff" points="48.92,-351.71 45.09,-345.6 49.26,-339.72 53.09,-345.83 48.92,-351.71"/>
</a>
</g>
<text text-anchor="middle" x="70.88" y="-366.25" font-family="Helvetica,sans-Serif" font-size="10.00" fill="grey"> +layout</text>
</g>
<!-- Node8 -->
<g id="Node000008" class="node">
<title>Node8</title>
<g id="a_Node000008"><a xlink:href="structTTL__int__short__tensor__t.html" target="_top" xlink:title="const and non&#45;const tensors in the appropriate address space">
<polygon fill="white" stroke="none" points="238.38,-338.88 129.12,-338.88 129.12,-273.88 238.38,-273.88 238.38,-338.88"/>
<text text-anchor="start" x="133.12" y="-325.38" font-family="Helvetica,sans-Serif" font-size="10.00">TTL_int_short_tensor_t</text>
<text text-anchor="start" x="145.06" y="-310.12" font-family="Helvetica,sans-Serif" font-size="10.00">+</text>
<text text-anchor="start" x="167" y="-310.12" font-family="Helvetica,sans-Serif" font-size="10.00">base</text>
<text text-anchor="start" x="145.06" y="-294.88" font-family="Helvetica,sans-Serif" font-size="10.00">+</text>
<text text-anchor="start" x="167" y="-294.88" font-family="Helvetica,sans-Serif" font-size="10.00">elem_size</text>
<text text-anchor="start" x="182.25" y="-279.62" font-family="Helvetica,sans-Serif" font-size="10.00"> </text>
<polygon fill="#666666" stroke="#666666" points="129.12,-321.62 129.12,-321.62 238.38,-321.62 238.38,-321.62 129.12,-321.62"/>
<polygon fill="#666666" stroke="#666666" points="129.12,-291.12 129.12,-291.12 165,-291.12 165,-291.12 129.12,-291.12"/>
<polygon fill="#666666" stroke="#666666" points="165,-291.12 165,-291.12 238.38,-291.12 238.38,-291.12 165,-291.12"/>
<polygon fill="none" stroke="#666666" points="129.12,-273.88 129.12,-338.88 238.38,-338.88 238.38,-273.88 129.12,-273.88"/>
</a>
</g>
</g>
<!-- Node3&#45;&gt;Node8 -->
<g id="edge9_Node000008_Node000003" class="edge">
<title>Node3&#45;&gt;Node8</title>
<g id="a_edge9_Node000008_Node000003"><a xlink:title=" ">
<path fill="none" stroke="#63b8ff" d="M134.98,-401.53C143.05,-385.96 152.92,-366.91 161.66,-350.03"/>
<polygon fill="none" stroke="#63b8ff" points="161.56,-350.21 160.77,-343.04 167.08,-339.56 167.87,-346.72 161.56,-350.21"/>
</a>
</g>
<text text-anchor="middle" x="170.07" y="-366.25" font-family="Helvetica,sans-Serif" font-size="10.00" fill="grey"> +layout</text>
</g>
<!-- Node4 -->
<g id="Node000004" class="node">
<title>Node4</title>
<g id="a_Node000004"><a xlink:href="structTTL__shape__t.html" target="_top" xlink:title="Description of a Shape.">
<polygon fill="white" stroke="none" points="282.62,-474 216.88,-474 216.88,-393.75 282.62,-393.75 282.62,-474"/>
<text text-anchor="start" x="220.88" y="-460.5" font-family="Helvetica,sans-Serif" font-size="10.00">TTL_shape_t</text>
<text text-anchor="start" x="226.25" y="-445.25" font-family="Helvetica,sans-Serif" font-size="10.00">+</text>
<text text-anchor="start" x="241.62" y="-445.25" font-family="Helvetica,sans-Serif" font-size="10.00">width</text>
<text text-anchor="start" x="226.25" y="-430" font-family="Helvetica,sans-Serif" font-size="10.00">+</text>
<text text-anchor="start" x="241.62" y="-430" font-family="Helvetica,sans-Serif" font-size="10.00">height</text>
<text text-anchor="start" x="226.25" y="-414.75" font-family="Helvetica,sans-Serif" font-size="10.00">+</text>
<text text-anchor="start" x="241.62" y="-414.75" font-family="Helvetica,sans-Serif" font-size="10.00">depth</text>
<text text-anchor="start" x="248.25" y="-399.5" font-family="Helvetica,sans-Serif" font-size="10.00"> </text>
<polygon fill="#666666" stroke="#666666" points="216.88,-456.75 216.88,-456.75 282.62,-456.75 282.62,-456.75 216.88,-456.75"/>
<polygon fill="#666666" stroke="#666666" points="216.88,-411 216.88,-411 239.62,-411 239.62,-411 216.88,-411"/>
<polygon fill="#666666" stroke="#666666" points="239.62,-411 239.62,-411 282.62,-411 282.62,-411 239.62,-411"/>
<polygon fill="none" stroke="#666666" points="216.88,-393.75 216.88,-474 282.62,-474 282.62,-393.75 216.88,-393.75"/>
</a>
</g>
</g>
<!-- Node4&#45;&gt;Node2 -->
<g id="edge3_Node000002_Node000004" class="edge">
<title>Node4&#45;&gt;Node2</title>
<g id="a_edge3_Node000002_Node000004"><a xlink:title=" ">
<path fill="none" stroke="#63b8ff" d="M217.09,-416.03C202.24,-408.7 184.32,-400.31 167.75,-393.75 143.24,-384.05 133.02,-390.6 111.25,-375.75 100.75,-368.59 91.22,-358.87 83.13,-349.01"/>
<polygon fill="none" stroke="#63b8ff" points="83.13,-349 76.29,-346.69 75.8,-339.49 82.63,-341.8 83.13,-349"/>
</a>
</g>
<text text-anchor="middle" x="128.5" y="-366.25" font-family="Helvetica,sans-Serif" font-size="10.00" fill="grey"> +shape</text>
</g>
<!-- Node5 -->
<g id="Node000005" class="node">
<title>Node5</title>
<g id="a_Node000005"><a xlink:href="structTTL__tile__t.html" target="_top" xlink:title=" ">
<polygon fill="white" stroke="none" points="409.88,-219 357.62,-219 357.62,-169.25 409.88,-169.25 409.88,-219"/>
<text text-anchor="start" x="361.62" y="-205.5" font-family="Helvetica,sans-Serif" font-size="10.00">TTL_tile_t</text>
<text text-anchor="start" x="382.25" y="-190.25" font-family="Helvetica,sans-Serif" font-size="10.00"> </text>
<text text-anchor="start" x="382.25" y="-175" font-family="Helvetica,sans-Serif" font-size="10.00"> </text>
<polygon fill="#666666" stroke="#666666" points="357.62,-201.75 357.62,-201.75 409.88,-201.75 409.88,-201.75 357.62,-201.75"/>
<polygon fill="#666666" stroke="#666666" points="357.62,-186.5 357.62,-186.5 409.88,-186.5 409.88,-186.5 357.62,-186.5"/>
<polygon fill="none" stroke="#666666" points="357.62,-169.25 357.62,-219 409.88,-219 409.88,-169.25 357.62,-169.25"/>
</a>
</g>
</g>
<!-- Node4&#45;&gt;Node5 -->
<g id="edge5_Node000005_Node000004" class="edge">
<title>Node4&#45;&gt;Node5</title>
<g id="a_edge5_Node000005_Node000004"><a xlink:title=" ">
<path fill="none" stroke="#63b8ff" d="M282.45,-424.16C318.3,-412.74 374.36,-388.97 401.75,-346.5 428.21,-305.46 424.54,-283.84 410.75,-237 410.08,-234.73 409.25,-232.47 408.3,-230.25"/>
<polygon fill="none" stroke="#63b8ff" points="408.27,-230.19 401.94,-226.74 402.69,-219.56 409.02,-223.02 408.27,-230.19"/>
</a>
</g>
<text text-anchor="middle" x="438.66" y="-302.5" font-family="Helvetica,sans-Serif" font-size="10.00" fill="grey"> +shape</text>
</g>
<!-- Node7 -->
<g id="Node000007" class="node">
<title>Node7</title>
<g id="a_Node000007"><a xlink:href="structTTL__int__short__sub__tensor__t.html" target="_top" xlink:title="const and non&#45;const sub tensors in the appropriate address space">
<polygon fill="white" stroke="none" points="339.88,-219 209.62,-219 209.62,-169.25 339.88,-169.25 339.88,-219"/>
<text text-anchor="start" x="213.62" y="-205.5" font-family="Helvetica,sans-Serif" font-size="10.00">TTL_int_short_sub_tensor_t</text>
<text text-anchor="start" x="235.88" y="-190.25" font-family="Helvetica,sans-Serif" font-size="10.00">+</text>
<text text-anchor="start" x="268.12" y="-190.25" font-family="Helvetica,sans-Serif" font-size="10.00">origin</text>
<text text-anchor="start" x="273.25" y="-175" font-family="Helvetica,sans-Serif" font-size="10.00"> </text>
<polygon fill="#666666" stroke="#666666" points="209.62,-201.75 209.62,-201.75 339.88,-201.75 339.88,-201.75 209.62,-201.75"/>
<polygon fill="#666666" stroke="#666666" points="209.62,-186.5 209.62,-186.5 266.12,-186.5 266.12,-186.5 209.62,-186.5"/>
<polygon fill="#666666" stroke="#666666" points="266.12,-186.5 266.12,-186.5 339.88,-186.5 339.88,-186.5 266.12,-186.5"/>
<polygon fill="none" stroke="#666666" points="209.62,-169.25 209.62,-219 339.88,-219 339.88,-169.25 209.62,-169.25"/>
</a>
</g>
</g>
<!-- Node4&#45;&gt;Node7 -->
<g id="edge11_Node000007_Node000004" class="edge">
<title>Node4&#45;&gt;Node7</title>
<g id="a_edge11_Node000007_Node000004"><a xlink:title=" ">
<path fill="none" stroke="#63b8ff" d="M254.65,-393.86C255.38,-387.8 256.1,-381.61 256.75,-375.75 262.29,-325.9 267.9,-268.21 271.35,-231.71"/>
<polygon fill="none" stroke="#63b8ff" points="271.35,-231.66 267.93,-225.31 272.48,-219.71 275.9,-226.06 271.35,-231.66"/>
</a>
</g>
<text text-anchor="middle" x="285.17" y="-302.5" font-family="Helvetica,sans-Serif" font-size="10.00" fill="grey"> +shape</text>
</g>
<!-- Node4&#45;&gt;Node8 -->
<g id="edge10_Node000008_Node000004" class="edge">
<title>Node4&#45;&gt;Node8</title>
<g id="a_edge10_Node000008_Node000004"><a xlink:title=" ">
<path fill="none" stroke="#63b8ff" d="M229.23,-393.85C221.96,-380.03 213.74,-364.39 206.3,-350.26"/>
<polygon fill="none" stroke="#63b8ff" points="206.29,-350.23 199.96,-346.78 200.7,-339.61 207.04,-343.06 206.29,-350.23"/>
</a>
</g>
<text text-anchor="middle" x="235.98" y="-366.25" font-family="Helvetica,sans-Serif" font-size="10.00" fill="grey"> +shape</text>
</g>
<!-- Node5&#45;&gt;Node1 -->
<g id="edge4_Node000001_Node000005" class="edge">
<title>Node5&#45;&gt;Node1</title>
<g id="a_edge4_Node000001_Node000005"><a xlink:title=" ">
<path fill="none" stroke="#63b8ff" d="M376.54,-169.48C372.96,-159.83 368.04,-148.88 361.75,-140 356.43,-132.49 350.26,-125.19 343.72,-118.26"/>
<polygon fill="none" stroke="#63b8ff" points="343.68,-118.23 336.61,-116.78 335.23,-109.7 342.3,-111.15 343.68,-118.23"/>
</a>
</g>
<text text-anchor="middle" x="411.39" y="-141.75" font-family="Helvetica,sans-Serif" font-size="10.00" fill="grey"> +next_exported_tile</text>
</g>
<!-- Node6 -->
<g id="Node000006" class="node">
<title>Node6</title>
<g id="a_Node000006"><a xlink:href="structTTL__offset__t.html" target="_top" xlink:title="Description of the 3D offset of an object.">
<polygon fill="white" stroke="none" points="392.5,-346.5 329,-346.5 329,-266.25 392.5,-266.25 392.5,-346.5"/>
<text text-anchor="start" x="333" y="-333" font-family="Helvetica,sans-Serif" font-size="10.00">TTL_offset_t</text>
<text text-anchor="start" x="343.25" y="-317.75" font-family="Helvetica,sans-Serif" font-size="10.00">+</text>
<text text-anchor="start" x="363.5" y="-317.75" font-family="Helvetica,sans-Serif" font-size="10.00">x</text>
<text text-anchor="start" x="343.25" y="-302.5" font-family="Helvetica,sans-Serif" font-size="10.00">+</text>
<text text-anchor="start" x="363.5" y="-302.5" font-family="Helvetica,sans-Serif" font-size="10.00">y</text>
<text text-anchor="start" x="343.25" y="-287.25" font-family="Helvetica,sans-Serif" font-size="10.00">+</text>
<text text-anchor="start" x="363.5" y="-287.25" font-family="Helvetica,sans-Serif" font-size="10.00">z</text>
<text text-anchor="start" x="359.25" y="-272" font-family="Helvetica,sans-Serif" font-size="10.00"> </text>
<polygon fill="#666666" stroke="#666666" points="329,-329.25 329,-329.25 392.5,-329.25 392.5,-329.25 329,-329.25"/>
<polygon fill="#666666" stroke="#666666" points="329,-283.5 329,-283.5 361.5,-283.5 361.5,-283.5 329,-283.5"/>
<polygon fill="#666666" stroke="#666666" points="361.5,-283.5 361.5,-283.5 392.5,-283.5 392.5,-283.5 361.5,-283.5"/>
<polygon fill="none" stroke="#666666" points="329,-266.25 329,-346.5 392.5,-346.5 392.5,-266.25 329,-266.25"/>
</a>
</g>
</g>
<!-- Node6&#45;&gt;Node5 -->
<g id="edge6_Node000005_Node000006" class="edge">
<title>Node6&#45;&gt;Node5</title>
<g id="a_edge6_Node000005_Node000006"><a xlink:title=" ">
<path fill="none" stroke="#63b8ff" d="M368.86,-266.5C371.24,-255.1 373.83,-242.67 376.18,-231.43"/>
<polygon fill="none" stroke="#63b8ff" points="376.15,-231.54 373.46,-224.85 378.6,-219.79 381.29,-226.48 376.15,-231.54"/>
</a>
</g>
<text text-anchor="middle" x="391.11" y="-238.75" font-family="Helvetica,sans-Serif" font-size="10.00" fill="grey"> +offset</text>
</g>
<!-- Node6&#45;&gt;Node7 -->
<g id="edge12_Node000007_Node000006" class="edge">
<title>Node6&#45;&gt;Node7</title>
<g id="a_edge12_Node000007_Node000006"><a xlink:title=" ">
<path fill="none" stroke="#63b8ff" d="M329.76,-266.41C324.97,-260.35 320.09,-254.14 315.5,-248.25 310.74,-242.14 305.7,-235.62 300.84,-229.3"/>
<polygon fill="none" stroke="#63b8ff" points="300.78,-229.22 293.95,-226.9 293.48,-219.7 300.3,-222.03 300.78,-229.22"/>
</a>
</g>
<text text-anchor="middle" x="342.12" y="-238.75" font-family="Helvetica,sans-Serif" font-size="10.00" fill="grey"> +sub_offset</text>
</g>
<!-- Node7&#45;&gt;Node1 -->
<g id="edge7_Node000001_Node000007" class="edge">
<title>Node7&#45;&gt;Node1</title>
<g id="a_edge7_Node000001_Node000007"><a xlink:title=" ">
<path fill="none" stroke="#63b8ff" d="M274.75,-169.38C274.75,-159.46 274.75,-147.36 274.75,-134.9"/>
<polygon fill="none" stroke="#63b8ff" points="274.75,-134.76 270.75,-128.76 274.75,-122.76 278.75,-128.76 274.75,-134.76"/>
</a>
</g>
<text text-anchor="middle" x="317.5" y="-141.75" font-family="Helvetica,sans-Serif" font-size="10.00" fill="grey"> +int_prev_imported</text>
</g>
<!-- Node8&#45;&gt;Node7 -->
<g id="edge8_Node000007_Node000008" class="edge">
<title>Node8&#45;&gt;Node7</title>
<g id="a_edge8_Node000007_Node000008"><a xlink:title=" ">
<path fill="none" stroke="#63b8ff" d="M200.09,-274C207.12,-261.86 215.92,-248.21 225.5,-237 228.2,-233.84 231.14,-230.72 234.21,-227.7"/>
<polygon fill="none" stroke="#63b8ff" points="234.19,-227.72 235.87,-220.71 242.99,-219.57 241.31,-226.58 234.19,-227.72"/>
</a>
</g>
<text text-anchor="middle" x="243.12" y="-238.75" font-family="Helvetica,sans-Serif" font-size="10.00" fill="grey"> +tensor</text>
</g>
</g>
</svg>
