<?xml version="1.0" encoding="UTF-8" standalone="no"?>
<!DOCTYPE svg PUBLIC "-//W3C//DTD SVG 1.1//EN"
 "http://www.w3.org/Graphics/SVG/1.1/DTD/svg11.dtd">
<!-- Generated by graphviz version 12.2.1 (20241206.2353)
 -->
<!-- Title: TTL_augmentation_t Pages: 1 -->
<svg width="106pt" height="134pt"
 viewBox="0.00 0.00 106.00 134.00" xmlns="http://www.w3.org/2000/svg" xmlns:xlink="http://www.w3.org/1999/xlink">
<g id="graph0" class="graph" transform="scale(1 1) rotate(0) translate(4 130)">
<title>TTL_augmentation_t</title>
<!-- Node1 -->
<g id="Node000001" class="node">
<title>Node1</title>
<g id="a_Node000001"><a xlink:title="3D description of the augmented margins">
<polygon fill="#999999" stroke="none" points="98,-126 0,-126 0,0 98,0 98,-126"/>
<text text-anchor="start" x="4" y="-112.5" font-family="Helvetica,sans-Serif" font-size="10.00">TTL_augmentation_t</text>
<text text-anchor="start" x="16.5" y="-97.25" font-family="Helvetica,sans-Serif" font-size="10.00">+</text>
<text text-anchor="start" x="39" y="-97.25" font-family="Helvetica,sans-Serif" font-size="10.00">left</text>
<text text-anchor="start" x="16.5" y="-82" font-family="Helvetica,sans-Serif" font-size="10.00">+</text>
<text text-anchor="start" x="39" y="-82" font-family="Helvetica,sans-Serif" font-size="10.00">right</text>
<text text-anchor="start" x="16.5" y="-66.75" font-family="Helvetica,sans-Serif" font-size="10.00">+</text>
<text text-anchor="start" x="39" y="-66.75" font-family="Helvetica,sans-Serif" font-size="10.00">top</text>
<text text-anchor="start" x="16.5" y="-51.5" font-family="Helvetica,sans-Serif" font-size="10.00">+</text>
<text text-anchor="start" x="39" y="-51.5" font-family="Helvetica,sans-Serif" font-size="10.00">bottom</text>
<text text-anchor="start" x="16.5" y="-36.25" font-family="Helvetica,sans-Serif" font-size="10.00">+</text>
<text text-anchor="start" x="39" y="-36.25" font-family="Helvetica,sans-Serif" font-size="10.00">front</text>
<text text-anchor="start" x="16.5" y="-21" font-family="Helvetica,sans-Serif" font-size="10.00">+</text>
<text text-anchor="start" x="39" y="-21" font-family="Helvetica,sans-Serif" font-size="10.00">back</text>
<text text-anchor="start" x="47.5" y="-5.75" font-family="Helvetica,sans-Serif" font-size="10.00"> </text>
<polygon fill="#666666" stroke="#666666" points="0,-108.75 0,-108.75 98,-108.75 98,-108.75 0,-108.75"/>
<polygon fill="#666666" stroke="#666666" points="0,-17.25 0,-17.25 37,-17.25 37,-17.25 0,-17.25"/>
<polygon fill="#666666" stroke="#666666" points="37,-17.25 37,-17.25 98,-17.25 98,-17.25 37,-17.25"/>
<polygon fill="none" stroke="#666666" points="0,0 0,-126 98,-126 98,0 0,0"/>
</a>
</g>
</g>
</g>
</svg>
