<?xml version="1.0" encoding="UTF-8" standalone="no"?>
<!DOCTYPE svg PUBLIC "-//W3C//DTD SVG 1.1//EN"
 "http://www.w3.org/Graphics/SVG/1.1/DTD/svg11.dtd">
<!-- Generated by graphviz version 3.0.0 (20221109.1736)
 -->
<!-- Title: TTL_const_TENSOR_LOCATIONTTL_TENSOR_TYPE_sub_tensor_t Pages: 1 -->
<svg width="353pt" height="331pt"
 viewBox="0.00 0.00 353.00 331.00" xmlns="http://www.w3.org/2000/svg" xmlns:xlink="http://www.w3.org/1999/xlink">
<g id="graph0" class="graph" transform="scale(1 1) rotate(0) translate(4 327)">
<title>TTL_const_TENSOR_LOCATIONTTL_TENSOR_TYPE_sub_tensor_t</title>
<polygon fill="white" stroke="transparent" points="-4,4 -4,-327 349,-327 349,4 -4,4"/>
<!-- Node1 -->
<g id="node1" class="node">
<title>Node1</title>
<g id="a_node1"><a xlink:title=" ">
<polygon fill="#bfbfbf" stroke="black" points="128,-0.5 128,-68.5 312,-68.5 312,-0.5 128,-0.5"/>
<text text-anchor="start" x="136" y="-56.5" font-family="Helvetica,sans-Serif" font-size="10.00">TTL_const_TENSOR_LOCATIONTTL</text>
<text text-anchor="middle" x="220" y="-45.5" font-family="Helvetica,sans-Serif" font-size="10.00">_TENSOR_TYPE_sub_tensor_t</text>
<polyline fill="none" stroke="black" points="128,-38.5 312,-38.5 "/>
<text text-anchor="start" x="136" y="-26.5" font-family="Helvetica,sans-Serif" font-size="10.00">+ origin</text>
<polyline fill="none" stroke="black" points="128,-19.5 312,-19.5 "/>
<text text-anchor="middle" x="220" y="-7.5" font-family="Helvetica,sans-Serif" font-size="10.00"> </text>
</a>
</g>
</g>
<!-- Node2 -->
<g id="node2" class="node">
<title>Node2</title>
<g id="a_node2"><a xlink:href="structTTL__const__TENSOR__LOCATIONTTL__TENSOR__TYPE__tensor__t.html" target="_top" xlink:title=" ">
<polygon fill="white" stroke="black" points="0,-122 0,-190 184,-190 184,-122 0,-122"/>
<text text-anchor="start" x="8" y="-178" font-family="Helvetica,sans-Serif" font-size="10.00">TTL_const_TENSOR_LOCATIONTTL</text>
<text text-anchor="middle" x="92" y="-167" font-family="Helvetica,sans-Serif" font-size="10.00">_TENSOR_TYPE_tensor_t</text>
<polyline fill="none" stroke="black" points="0,-160 184,-160 "/>
<text text-anchor="start" x="8" y="-148" font-family="Helvetica,sans-Serif" font-size="10.00">+ elem_size</text>
<polyline fill="none" stroke="black" points="0,-141 184,-141 "/>
<text text-anchor="start" x="8" y="-129" font-family="Helvetica,sans-Serif" font-size="10.00">+ TENSOR_ADDRESS()</text>
</a>
</g>
</g>
<!-- Node2&#45;&gt;Node1 -->
<g id="edge1" class="edge">
<title>Node2&#45;&gt;Node1</title>
<path fill="none" stroke="#404040" d="M127.66,-121.71C142.5,-107.86 159.89,-91.62 175.55,-77"/>
<polygon fill="none" stroke="#404040" points="175.76,-76.8 177.42,-69.78 184.54,-68.61 182.88,-75.63 175.76,-76.8"/>
<text text-anchor="middle" x="182" y="-90" font-family="Helvetica,sans-Serif" font-size="10.00"> +tensor</text>
</g>
<!-- Node3 -->
<g id="node3" class="node">
<title>Node3</title>
<g id="a_node3"><a xlink:href="structTTL__layout__t.html" target="_top" xlink:title="Description of a Tensor layout in memory.">
<polygon fill="white" stroke="black" points="48.5,-249 48.5,-317 135.5,-317 135.5,-249 48.5,-249"/>
<text text-anchor="middle" x="92" y="-305" font-family="Helvetica,sans-Serif" font-size="10.00">TTL_layout_t</text>
<polyline fill="none" stroke="black" points="48.5,-298 135.5,-298 "/>
<text text-anchor="start" x="56.5" y="-286" font-family="Helvetica,sans-Serif" font-size="10.00">+ row_spacing</text>
<text text-anchor="start" x="56.5" y="-275" font-family="Helvetica,sans-Serif" font-size="10.00">+ plane_spacing</text>
<polyline fill="none" stroke="black" points="48.5,-268 135.5,-268 "/>
<text text-anchor="middle" x="92" y="-256" font-family="Helvetica,sans-Serif" font-size="10.00"> </text>
</a>
</g>
</g>
<!-- Node3&#45;&gt;Node2 -->
<g id="edge2" class="edge">
<title>Node3&#45;&gt;Node2</title>
<path fill="none" stroke="#404040" d="M92,-248.83C92,-234.7 92,-217.99 92,-202.72"/>
<polygon fill="none" stroke="#404040" points="92,-202.32 88,-196.32 92,-190.32 96,-196.32 92,-202.32"/>
<text text-anchor="middle" x="109" y="-217" font-family="Helvetica,sans-Serif" font-size="10.00"> +layout</text>
</g>
<!-- Node4 -->
<g id="node4" class="node">
<title>Node4</title>
<g id="a_node4"><a xlink:href="structTTL__shape__t.html" target="_top" xlink:title="Description of a Shape.">
<polygon fill="white" stroke="black" points="168,-243.5 168,-322.5 242,-322.5 242,-243.5 168,-243.5"/>
<text text-anchor="middle" x="205" y="-310.5" font-family="Helvetica,sans-Serif" font-size="10.00">TTL_shape_t</text>
<polyline fill="none" stroke="black" points="168,-303.5 242,-303.5 "/>
<text text-anchor="start" x="176" y="-291.5" font-family="Helvetica,sans-Serif" font-size="10.00">+ width</text>
<text text-anchor="start" x="176" y="-280.5" font-family="Helvetica,sans-Serif" font-size="10.00">+ height</text>
<text text-anchor="start" x="176" y="-269.5" font-family="Helvetica,sans-Serif" font-size="10.00">+ depth</text>
<polyline fill="none" stroke="black" points="168,-262.5 242,-262.5 "/>
<text text-anchor="middle" x="205" y="-250.5" font-family="Helvetica,sans-Serif" font-size="10.00"> </text>
</a>
</g>
</g>
<!-- Node4&#45;&gt;Node1 -->
<g id="edge4" class="edge">
<title>Node4&#45;&gt;Node1</title>
<path fill="none" stroke="#404040" d="M207.34,-243.48C210.02,-199.45 214.4,-127.45 217.24,-80.78"/>
<polygon fill="none" stroke="#404040" points="217.26,-80.59 213.63,-74.36 217.98,-68.62 221.61,-74.85 217.26,-80.59"/>
<text text-anchor="middle" x="232.5" y="-153.5" font-family="Helvetica,sans-Serif" font-size="10.00"> +shape</text>
</g>
<!-- Node4&#45;&gt;Node2 -->
<g id="edge3" class="edge">
<title>Node4&#45;&gt;Node2</title>
<path fill="none" stroke="#404040" d="M170.17,-243.48C157.51,-229.47 143.14,-213.57 130.2,-199.26"/>
<polygon fill="none" stroke="#404040" points="129.99,-199.02 123,-197.26 121.94,-190.12 128.93,-191.89 129.99,-199.02"/>
<text text-anchor="middle" x="169.5" y="-217" font-family="Helvetica,sans-Serif" font-size="10.00"> +shape</text>
</g>
<!-- Node5 -->
<g id="node5" class="node">
<title>Node5</title>
<g id="a_node5"><a xlink:href="structTTL__offset__t.html" target="_top" xlink:title="Description of the 3D offset of an object.">
<polygon fill="white" stroke="black" points="273,-116.5 273,-195.5 345,-195.5 345,-116.5 273,-116.5"/>
<text text-anchor="middle" x="309" y="-183.5" font-family="Helvetica,sans-Serif" font-size="10.00">TTL_offset_t</text>
<polyline fill="none" stroke="black" points="273,-176.5 345,-176.5 "/>
<text text-anchor="start" x="281" y="-164.5" font-family="Helvetica,sans-Serif" font-size="10.00">+ x</text>
<text text-anchor="start" x="281" y="-153.5" font-family="Helvetica,sans-Serif" font-size="10.00">+ y</text>
<text text-anchor="start" x="281" y="-142.5" font-family="Helvetica,sans-Serif" font-size="10.00">+ z</text>
<polyline fill="none" stroke="black" points="273,-135.5 345,-135.5 "/>
<text text-anchor="middle" x="309" y="-123.5" font-family="Helvetica,sans-Serif" font-size="10.00"> </text>
</a>
</g>
</g>
<!-- Node5&#45;&gt;Node1 -->
<g id="edge5" class="edge">
<title>Node5&#45;&gt;Node1</title>
<path fill="none" stroke="#404040" d="M280.1,-116.2C271.22,-104.28 261.39,-91.07 252.29,-78.86"/>
<polygon fill="none" stroke="#404040" points="252.03,-78.51 245.24,-76.09 244.87,-68.89 251.66,-71.31 252.03,-78.51"/>
<text text-anchor="middle" x="291" y="-90" font-family="Helvetica,sans-Serif" font-size="10.00"> +sub_offset</text>
</g>
</g>
</svg>
