<?xml version="1.0" encoding="UTF-8" standalone="no"?>
<!DOCTYPE svg PUBLIC "-//W3C//DTD SVG 1.1//EN"
 "http://www.w3.org/Graphics/SVG/1.1/DTD/svg11.dtd">
<!-- Generated by graphviz version 12.0.0 (20240704.0754)
 -->
<!-- Title: TTL_int_ulong_sub_tensor_t Pages: 1 -->
<svg width="274pt" height="310pt"
 viewBox="0.00 0.00 273.50 309.50" xmlns="http://www.w3.org/2000/svg" xmlns:xlink="http://www.w3.org/1999/xlink">
<g id="graph0" class="graph" transform="scale(1 1) rotate(0) translate(4 305.5)">
<title>TTL_int_ulong_sub_tensor_t</title>
<!-- Node1 -->
<g id="Node000001" class="node">
<title>Node1</title>
<g id="a_Node000001"><a xlink:title="const and non&#45;const sub tensors in the appropriate address space">
<polygon fill="#999999" stroke="none" points="214.5,-49 81.5,-49 81.5,0 214.5,0 214.5,-49"/>
<text text-anchor="start" x="86.12" y="-35.5" font-family="Helvetica,sans-Serif" font-size="10.00">TTL_int_ulong_sub_tensor_t</text>
<text text-anchor="start" x="108.5" y="-20.5" font-family="Helvetica,sans-Serif" font-size="10.00">+</text>
<text text-anchor="start" x="141.5" y="-20.5" font-family="Helvetica,sans-Serif" font-size="10.00">origin</text>
<text text-anchor="start" x="146.5" y="-5.5" font-family="Helvetica,sans-Serif" font-size="10.00"> </text>
<polygon fill="#666666" stroke="#666666" points="81.5,-32 81.5,-32 214.5,-32 214.5,-32 81.5,-32"/>
<polygon fill="#666666" stroke="#666666" points="81.5,-17 81.5,-17 139.5,-17 139.5,-17 81.5,-17"/>
<polygon fill="#666666" stroke="#666666" points="139.5,-17 139.5,-17 214.5,-17 214.5,-17 139.5,-17"/>
<polygon fill="none" stroke="#666666" points="81.5,0 81.5,-49 214.5,-49 214.5,0 81.5,0"/>
</a>
</g>
</g>
<!-- Node2 -->
<g id="Node000002" class="node">
<title>Node2</title>
<g id="a_Node000002"><a xlink:href="structTTL__int__ulong__tensor__t.html" target="_top" xlink:title="const and non&#45;const tensors in the appropriate address space">
<polygon fill="white" stroke="none" points="112,-167.75 0,-167.75 0,-103.75 112,-103.75 112,-167.75"/>
<text text-anchor="start" x="4.62" y="-154.25" font-family="Helvetica,sans-Serif" font-size="10.00">TTL_int_ulong_tensor_t</text>
<text text-anchor="start" x="16.5" y="-139.25" font-family="Helvetica,sans-Serif" font-size="10.00">+</text>
<text text-anchor="start" x="39" y="-139.25" font-family="Helvetica,sans-Serif" font-size="10.00">base</text>
<text text-anchor="start" x="16.5" y="-124.25" font-family="Helvetica,sans-Serif" font-size="10.00">+</text>
<text text-anchor="start" x="39" y="-124.25" font-family="Helvetica,sans-Serif" font-size="10.00">elem_size</text>
<text text-anchor="start" x="54.5" y="-109.25" font-family="Helvetica,sans-Serif" font-size="10.00"> </text>
<polygon fill="#666666" stroke="#666666" points="0,-150.75 0,-150.75 112,-150.75 112,-150.75 0,-150.75"/>
<polygon fill="#666666" stroke="#666666" points="0,-120.75 0,-120.75 37,-120.75 37,-120.75 0,-120.75"/>
<polygon fill="#666666" stroke="#666666" points="37,-120.75 37,-120.75 112,-120.75 112,-120.75 37,-120.75"/>
<polygon fill="none" stroke="#666666" points="0,-103.75 0,-167.75 112,-167.75 112,-103.75 0,-103.75"/>
</a>
</g>
</g>
<!-- Node2&#45;&gt;Node1 -->
<g id="edge1_Node000001_Node000002" class="edge">
<title>Node2&#45;&gt;Node1</title>
<g id="a_edge1_Node000001_Node000002"><a xlink:title=" ">
<path fill="none" stroke="#63b8ff" d="M72.65,-104.02C79.9,-91.9 88.97,-78.22 98.75,-67 101.5,-63.84 104.51,-60.71 107.63,-57.68"/>
<polygon fill="none" stroke="#63b8ff" points="107.69,-57.62 109.42,-50.62 116.55,-49.53 114.82,-56.53 107.69,-57.62"/>
</a>
</g>
<text text-anchor="middle" x="116.62" y="-68.75" font-family="Helvetica,sans-Serif" font-size="10.00" fill="grey"> +tensor</text>
</g>
<!-- Node3 -->
<g id="Node000003" class="node">
<title>Node3</title>
<g id="a_Node000003"><a xlink:href="structTTL__layout__t.html" target="_top" xlink:title="Description of a Tensor layout in memory.">
<polygon fill="white" stroke="none" points="81,-294 1,-294 1,-230 81,-230 81,-294"/>
<text text-anchor="start" x="12.5" y="-280.5" font-family="Helvetica,sans-Serif" font-size="10.00">TTL_layout_t</text>
<text text-anchor="start" x="5" y="-265.5" font-family="Helvetica,sans-Serif" font-size="10.00">+</text>
<text text-anchor="start" x="15" y="-265.5" font-family="Helvetica,sans-Serif" font-size="10.00">row_spacing</text>
<text text-anchor="start" x="5" y="-250.5" font-family="Helvetica,sans-Serif" font-size="10.00">+</text>
<text text-anchor="start" x="15" y="-250.5" font-family="Helvetica,sans-Serif" font-size="10.00">plane_spacing</text>
<text text-anchor="start" x="39.5" y="-235.5" font-family="Helvetica,sans-Serif" font-size="10.00"> </text>
<polygon fill="#666666" stroke="#666666" points="1,-277 1,-277 81,-277 81,-277 1,-277"/>
<polygon fill="#666666" stroke="#666666" points="1,-247 1,-247 13,-247 13,-247 1,-247"/>
<polygon fill="#666666" stroke="#666666" points="13,-247 13,-247 81,-247 81,-247 13,-247"/>
<polygon fill="none" stroke="#666666" points="1,-230 1,-294 81,-294 81,-230 1,-230"/>
</a>
</g>
</g>
<!-- Node3&#45;&gt;Node2 -->
<g id="edge2_Node000002_Node000003" class="edge">
<title>Node3&#45;&gt;Node2</title>
<g id="a_edge2_Node000002_Node000003"><a xlink:title=" ">
<path fill="none" stroke="#63b8ff" d="M40.14,-230.2C40.19,-218.58 40.7,-205.27 42.25,-193.25 42.81,-188.91 43.58,-184.43 44.46,-179.97"/>
<polygon fill="none" stroke="#63b8ff" points="44.41,-180.2 41.8,-173.48 47,-168.48 49.61,-175.21 44.41,-180.2"/>
</a>
</g>
<text text-anchor="middle" x="59.88" y="-195" font-family="Helvetica,sans-Serif" font-size="10.00" fill="grey"> +layout</text>
</g>
<!-- Node4 -->
<g id="Node000004" class="node">
<title>Node4</title>
<g id="a_Node000004"><a xlink:href="structTTL__shape__t.html" target="_top" xlink:title="Description of a Shape.">
<polygon fill="white" stroke="none" points="173.5,-301.5 106.5,-301.5 106.5,-222.5 173.5,-222.5 173.5,-301.5"/>
<text text-anchor="start" x="111.12" y="-288" font-family="Helvetica,sans-Serif" font-size="10.00">TTL_shape_t</text>
<text text-anchor="start" x="116" y="-273" font-family="Helvetica,sans-Serif" font-size="10.00">+</text>
<text text-anchor="start" x="131.5" y="-273" font-family="Helvetica,sans-Serif" font-size="10.00">width</text>
<text text-anchor="start" x="116" y="-258" font-family="Helvetica,sans-Serif" font-size="10.00">+</text>
<text text-anchor="start" x="131.5" y="-258" font-family="Helvetica,sans-Serif" font-size="10.00">height</text>
<text text-anchor="start" x="116" y="-243" font-family="Helvetica,sans-Serif" font-size="10.00">+</text>
<text text-anchor="start" x="131.5" y="-243" font-family="Helvetica,sans-Serif" font-size="10.00">depth</text>
<text text-anchor="start" x="138.5" y="-228" font-family="Helvetica,sans-Serif" font-size="10.00"> </text>
<polygon fill="#666666" stroke="#666666" points="106.5,-284.5 106.5,-284.5 173.5,-284.5 173.5,-284.5 106.5,-284.5"/>
<polygon fill="#666666" stroke="#666666" points="106.5,-239.5 106.5,-239.5 129.5,-239.5 129.5,-239.5 106.5,-239.5"/>
<polygon fill="#666666" stroke="#666666" points="129.5,-239.5 129.5,-239.5 173.5,-239.5 173.5,-239.5 129.5,-239.5"/>
<polygon fill="none" stroke="#666666" points="106.5,-222.5 106.5,-301.5 173.5,-301.5 173.5,-222.5 106.5,-222.5"/>
</a>
</g>
</g>
<!-- Node4&#45;&gt;Node1 -->
<g id="edge4_Node000001_Node000004" class="edge">
<title>Node4&#45;&gt;Node1</title>
<g id="a_edge4_Node000001_Node000004"><a xlink:title=" ">
<path fill="none" stroke="#63b8ff" d="M141.3,-222.64C142.82,-178.09 145.29,-105.15 146.77,-61.59"/>
<polygon fill="none" stroke="#63b8ff" points="146.77,-61.71 142.98,-55.58 147.18,-49.72 150.97,-55.85 146.77,-61.71"/>
</a>
</g>
<text text-anchor="middle" x="163.25" y="-131.88" font-family="Helvetica,sans-Serif" font-size="10.00" fill="grey"> +shape</text>
</g>
<!-- Node4&#45;&gt;Node2 -->
<g id="edge3_Node000002_Node000004" class="edge">
<title>Node4&#45;&gt;Node2</title>
<g id="a_edge3_Node000002_Node000004"><a xlink:title=" ">
<path fill="none" stroke="#63b8ff" d="M112.07,-222.59C107.81,-216.57 103.5,-210.39 99.5,-204.5 93.81,-196.12 87.86,-187.07 82.25,-178.38"/>
<polygon fill="none" stroke="#63b8ff" points="82.34,-178.52 75.74,-175.63 75.86,-168.42 82.47,-171.31 82.34,-178.52"/>
</a>
</g>
<text text-anchor="middle" x="117.25" y="-195" font-family="Helvetica,sans-Serif" font-size="10.00" fill="grey"> +shape</text>
</g>
<!-- Node5 -->
<g id="Node000005" class="node">
<title>Node5</title>
<g id="a_Node000005"><a xlink:href="structTTL__offset__t.html" target="_top" xlink:title="Description of the 3D offset of an object.">
<polygon fill="white" stroke="none" points="265.5,-175.25 200.5,-175.25 200.5,-96.25 265.5,-96.25 265.5,-175.25"/>
<text text-anchor="start" x="205.25" y="-161.75" font-family="Helvetica,sans-Serif" font-size="10.00">TTL_offset_t</text>
<text text-anchor="start" x="215" y="-146.75" font-family="Helvetica,sans-Serif" font-size="10.00">+</text>
<text text-anchor="start" x="235.5" y="-146.75" font-family="Helvetica,sans-Serif" font-size="10.00">x</text>
<text text-anchor="start" x="215" y="-131.75" font-family="Helvetica,sans-Serif" font-size="10.00">+</text>
<text text-anchor="start" x="235.5" y="-131.75" font-family="Helvetica,sans-Serif" font-size="10.00">y</text>
<text text-anchor="start" x="215" y="-116.75" font-family="Helvetica,sans-Serif" font-size="10.00">+</text>
<text text-anchor="start" x="235.5" y="-116.75" font-family="Helvetica,sans-Serif" font-size="10.00">z</text>
<text text-anchor="start" x="231.5" y="-101.75" font-family="Helvetica,sans-Serif" font-size="10.00"> </text>
<polygon fill="#666666" stroke="#666666" points="200.5,-158.25 200.5,-158.25 265.5,-158.25 265.5,-158.25 200.5,-158.25"/>
<polygon fill="#666666" stroke="#666666" points="200.5,-113.25 200.5,-113.25 233.5,-113.25 233.5,-113.25 200.5,-113.25"/>
<polygon fill="#666666" stroke="#666666" points="233.5,-113.25 233.5,-113.25 265.5,-113.25 265.5,-113.25 233.5,-113.25"/>
<polygon fill="none" stroke="#666666" points="200.5,-96.25 200.5,-175.25 265.5,-175.25 265.5,-96.25 200.5,-96.25"/>
</a>
</g>
</g>
<!-- Node5&#45;&gt;Node1 -->
<g id="edge5_Node000001_Node000005" class="edge">
<title>Node5&#45;&gt;Node1</title>
<g id="a_edge5_Node000001_Node000005"><a xlink:title=" ">
<path fill="none" stroke="#63b8ff" d="M203.27,-96.54C193.72,-84.26 183.22,-70.76 173.96,-58.86"/>
<polygon fill="none" stroke="#63b8ff" points="174.11,-59.06 167.27,-56.79 166.75,-49.59 173.59,-51.87 174.11,-59.06"/>
</a>
</g>
<text text-anchor="middle" x="213.62" y="-68.75" font-family="Helvetica,sans-Serif" font-size="10.00" fill="grey"> +sub_offset</text>
</g>
</g>
</svg>
