<?xml version="1.0" encoding="UTF-8" standalone="no"?>
<!DOCTYPE svg PUBLIC "-//W3C//DTD SVG 1.1//EN"
 "http://www.w3.org/Graphics/SVG/1.1/DTD/svg11.dtd">
<!-- Generated by graphviz version 12.2.1 (20241206.2353)
 -->
<!-- Title: TTL_const_ext_ushort_tensor_t Pages: 1 -->
<svg width="172pt" height="212pt"
 viewBox="0.00 0.00 172.00 211.75" xmlns="http://www.w3.org/2000/svg" xmlns:xlink="http://www.w3.org/1999/xlink">
<g id="graph0" class="graph" transform="scale(1 1) rotate(0) translate(4 207.75)">
<title>TTL_const_ext_ushort_tensor_t</title>
<!-- Node1 -->
<g id="Node000001" class="node">
<title>Node1</title>
<g id="a_Node000001"><a xlink:title=" ">
<polygon fill="#999999" stroke="none" points="137.88,-76.25 32.38,-76.25 32.38,0 137.88,0 137.88,-76.25"/>
<text text-anchor="start" x="36.38" y="-62.75" font-family="Helvetica,sans-Serif" font-size="10.00">TTL_const_ext_ushort</text>
<text text-anchor="start" x="64.88" y="-51.5" font-family="Helvetica,sans-Serif" font-size="10.00">_tensor_t</text>
<text text-anchor="start" x="47.38" y="-36.25" font-family="Helvetica,sans-Serif" font-size="10.00">+</text>
<text text-anchor="start" x="68.38" y="-36.25" font-family="Helvetica,sans-Serif" font-size="10.00">base</text>
<text text-anchor="start" x="47.38" y="-21" font-family="Helvetica,sans-Serif" font-size="10.00">+</text>
<text text-anchor="start" x="68.38" y="-21" font-family="Helvetica,sans-Serif" font-size="10.00">elem_size</text>
<text text-anchor="start" x="83.62" y="-5.75" font-family="Helvetica,sans-Serif" font-size="10.00"> </text>
<polygon fill="#666666" stroke="#666666" points="32.38,-47.75 32.38,-47.75 137.88,-47.75 137.88,-47.75 32.38,-47.75"/>
<polygon fill="#666666" stroke="#666666" points="32.38,-17.25 32.38,-17.25 66.38,-17.25 66.38,-17.25 32.38,-17.25"/>
<polygon fill="#666666" stroke="#666666" points="66.38,-17.25 66.38,-17.25 137.88,-17.25 137.88,-17.25 66.38,-17.25"/>
<polygon fill="none" stroke="#666666" points="32.38,0 32.38,-76.25 137.88,-76.25 137.88,0 32.38,0"/>
</a>
</g>
</g>
<!-- Node2 -->
<g id="Node000002" class="node">
<title>Node2</title>
<g id="a_Node000002"><a xlink:href="structTTL__layout__t.html" target="_top" xlink:title="Description of a Tensor layout in memory.">
<polygon fill="white" stroke="none" points="80.25,-196.12 0,-196.12 0,-131.12 80.25,-131.12 80.25,-196.12"/>
<text text-anchor="start" x="11.62" y="-182.62" font-family="Helvetica,sans-Serif" font-size="10.00">TTL_layout_t</text>
<text text-anchor="start" x="4" y="-167.38" font-family="Helvetica,sans-Serif" font-size="10.00">+</text>
<text text-anchor="start" x="14" y="-167.38" font-family="Helvetica,sans-Serif" font-size="10.00">row_spacing</text>
<text text-anchor="start" x="4" y="-152.12" font-family="Helvetica,sans-Serif" font-size="10.00">+</text>
<text text-anchor="start" x="14" y="-152.12" font-family="Helvetica,sans-Serif" font-size="10.00">plane_spacing</text>
<text text-anchor="start" x="38.62" y="-136.88" font-family="Helvetica,sans-Serif" font-size="10.00"> </text>
<polygon fill="#666666" stroke="#666666" points="0,-178.88 0,-178.88 80.25,-178.88 80.25,-178.88 0,-178.88"/>
<polygon fill="#666666" stroke="#666666" points="0,-148.38 0,-148.38 12,-148.38 12,-148.38 0,-148.38"/>
<polygon fill="#666666" stroke="#666666" points="12,-148.38 12,-148.38 80.25,-148.38 80.25,-148.38 12,-148.38"/>
<polygon fill="none" stroke="#666666" points="0,-131.12 0,-196.12 80.25,-196.12 80.25,-131.12 0,-131.12"/>
</a>
</g>
</g>
<!-- Node2&#45;&gt;Node1 -->
<g id="edge1_Node000001_Node000002" class="edge">
<title>Node2&#45;&gt;Node1</title>
<g id="a_edge1_Node000001_Node000002"><a xlink:title=" ">
<path fill="none" stroke="#63b8ff" d="M51.6,-131.14C56.4,-117.96 62.09,-102.35 67.41,-87.75"/>
<polygon fill="none" stroke="#63b8ff" points="67.34,-87.93 65.64,-80.93 71.45,-76.66 73.15,-83.66 67.34,-87.93"/>
</a>
</g>
<text text-anchor="middle" x="80.85" y="-96" font-family="Helvetica,sans-Serif" font-size="10.00" fill="grey"> +layout</text>
</g>
<!-- Node3 -->
<g id="Node000003" class="node">
<title>Node3</title>
<g id="a_Node000003"><a xlink:href="structTTL__shape__t.html" target="_top" xlink:title="Description of a Shape.">
<polygon fill="white" stroke="none" points="164,-203.75 98.25,-203.75 98.25,-123.5 164,-123.5 164,-203.75"/>
<text text-anchor="start" x="102.25" y="-190.25" font-family="Helvetica,sans-Serif" font-size="10.00">TTL_shape_t</text>
<text text-anchor="start" x="107.62" y="-175" font-family="Helvetica,sans-Serif" font-size="10.00">+</text>
<text text-anchor="start" x="123" y="-175" font-family="Helvetica,sans-Serif" font-size="10.00">width</text>
<text text-anchor="start" x="107.62" y="-159.75" font-family="Helvetica,sans-Serif" font-size="10.00">+</text>
<text text-anchor="start" x="123" y="-159.75" font-family="Helvetica,sans-Serif" font-size="10.00">height</text>
<text text-anchor="start" x="107.62" y="-144.5" font-family="Helvetica,sans-Serif" font-size="10.00">+</text>
<text text-anchor="start" x="123" y="-144.5" font-family="Helvetica,sans-Serif" font-size="10.00">depth</text>
<text text-anchor="start" x="129.62" y="-129.25" font-family="Helvetica,sans-Serif" font-size="10.00"> </text>
<polygon fill="#666666" stroke="#666666" points="98.25,-186.5 98.25,-186.5 164,-186.5 164,-186.5 98.25,-186.5"/>
<polygon fill="#666666" stroke="#666666" points="98.25,-140.75 98.25,-140.75 121,-140.75 121,-140.75 98.25,-140.75"/>
<polygon fill="#666666" stroke="#666666" points="121,-140.75 121,-140.75 164,-140.75 164,-140.75 121,-140.75"/>
<polygon fill="none" stroke="#666666" points="98.25,-123.5 98.25,-203.75 164,-203.75 164,-123.5 98.25,-123.5"/>
</a>
</g>
</g>
<!-- Node3&#45;&gt;Node1 -->
<g id="edge2_Node000001_Node000003" class="edge">
<title>Node3&#45;&gt;Node1</title>
<g id="a_edge2_Node000001_Node000003"><a xlink:title=" ">
<path fill="none" stroke="#63b8ff" d="M116.57,-123.55C112.35,-112.22 107.69,-99.71 103.28,-87.87"/>
<polygon fill="none" stroke="#63b8ff" points="103.31,-87.93 97.46,-83.71 99.12,-76.69 104.96,-80.92 103.31,-87.93"/>
</a>
</g>
<text text-anchor="middle" x="126.75" y="-96" font-family="Helvetica,sans-Serif" font-size="10.00" fill="grey"> +shape</text>
</g>
</g>
</svg>
