<?xml version="1.0" encoding="UTF-8" standalone="no"?>
<!DOCTYPE svg PUBLIC "-//W3C//DTD SVG 1.1//EN"
 "http://www.w3.org/Graphics/SVG/1.1/DTD/svg11.dtd">
<!-- Generated by graphviz version 12.0.0 (20240704.0754)
 -->
<!-- Title: TTL_io_char_tensor_t Pages: 1 -->
<svg width="273pt" height="417pt"
 viewBox="0.00 0.00 272.50 417.00" xmlns="http://www.w3.org/2000/svg" xmlns:xlink="http://www.w3.org/1999/xlink">
<g id="graph0" class="graph" transform="scale(1 1) rotate(0) translate(4 413)">
<title>TTL_io_char_tensor_t</title>
<!-- Node1 -->
<g id="Node000001" class="node">
<title>Node1</title>
<g id="a_Node000001"><a xlink:title="Describes a pair of internal Tensors after an operation.">
<polygon fill="#999999" stroke="none" points="199.5,-49 94.5,-49 94.5,0 199.5,0 199.5,-49"/>
<text text-anchor="start" x="99.38" y="-35.5" font-family="Helvetica,sans-Serif" font-size="10.00">TTL_io_char_tensor_t</text>
<text text-anchor="start" x="145.5" y="-20.5" font-family="Helvetica,sans-Serif" font-size="10.00"> </text>
<text text-anchor="start" x="145.5" y="-5.5" font-family="Helvetica,sans-Serif" font-size="10.00"> </text>
<polygon fill="#666666" stroke="#666666" points="94.5,-32 94.5,-32 199.5,-32 199.5,-32 94.5,-32"/>
<polygon fill="#666666" stroke="#666666" points="94.5,-17 94.5,-17 199.5,-17 199.5,-17 94.5,-17"/>
<polygon fill="none" stroke="#666666" points="94.5,0 94.5,-49 199.5,-49 199.5,0 94.5,0"/>
</a>
</g>
</g>
<!-- Node2 -->
<g id="Node000002" class="node">
<title>Node2</title>
<g id="a_Node000002"><a xlink:href="structTTL__int__char__sub__tensor__t.html" target="_top" xlink:title="const and non&#45;const sub tensors in the appropriate address space">
<polygon fill="white" stroke="none" points="211.5,-156.5 82.5,-156.5 82.5,-107.5 211.5,-107.5 211.5,-156.5"/>
<text text-anchor="start" x="87.38" y="-143" font-family="Helvetica,sans-Serif" font-size="10.00">TTL_int_char_sub_tensor_t</text>
<text text-anchor="start" x="108.5" y="-128" font-family="Helvetica,sans-Serif" font-size="10.00">+</text>
<text text-anchor="start" x="140.5" y="-128" font-family="Helvetica,sans-Serif" font-size="10.00">origin</text>
<text text-anchor="start" x="145.5" y="-113" font-family="Helvetica,sans-Serif" font-size="10.00"> </text>
<polygon fill="#666666" stroke="#666666" points="82.5,-139.5 82.5,-139.5 211.5,-139.5 211.5,-139.5 82.5,-139.5"/>
<polygon fill="#666666" stroke="#666666" points="82.5,-124.5 82.5,-124.5 138.5,-124.5 138.5,-124.5 82.5,-124.5"/>
<polygon fill="#666666" stroke="#666666" points="138.5,-124.5 138.5,-124.5 211.5,-124.5 211.5,-124.5 138.5,-124.5"/>
<polygon fill="none" stroke="#666666" points="82.5,-107.5 82.5,-156.5 211.5,-156.5 211.5,-107.5 82.5,-107.5"/>
</a>
</g>
</g>
<!-- Node2&#45;&gt;Node1 -->
<g id="edge1_Node000001_Node000002" class="edge">
<title>Node2&#45;&gt;Node1</title>
<g id="a_edge1_Node000001_Node000002"><a xlink:title=" ">
<path fill="none" stroke="#63b8ff" d="M147,-107.59C147,-94.06 147,-76.77 147,-61.55"/>
<polygon fill="none" stroke="#63b8ff" points="147,-61.75 143,-55.75 147,-49.75 151,-55.75 147,-61.75"/>
</a>
</g>
<text text-anchor="middle" x="182.25" y="-80" font-family="Helvetica,sans-Serif" font-size="10.00" fill="grey"> +imported_to</text>
<text text-anchor="middle" x="182.25" y="-68.75" font-family="Helvetica,sans-Serif" font-size="10.00" fill="grey">+to_export_from</text>
</g>
<!-- Node3 -->
<g id="Node000003" class="node">
<title>Node3</title>
<g id="a_Node000003"><a xlink:href="structTTL__int__char__tensor__t.html" target="_top" xlink:title="const and non&#45;const tensors in the appropriate address space">
<polygon fill="white" stroke="none" points="111,-275.25 3,-275.25 3,-211.25 111,-211.25 111,-275.25"/>
<text text-anchor="start" x="7.88" y="-261.75" font-family="Helvetica,sans-Serif" font-size="10.00">TTL_int_char_tensor_t</text>
<text text-anchor="start" x="18.5" y="-246.75" font-family="Helvetica,sans-Serif" font-size="10.00">+</text>
<text text-anchor="start" x="40" y="-246.75" font-family="Helvetica,sans-Serif" font-size="10.00">base</text>
<text text-anchor="start" x="18.5" y="-231.75" font-family="Helvetica,sans-Serif" font-size="10.00">+</text>
<text text-anchor="start" x="40" y="-231.75" font-family="Helvetica,sans-Serif" font-size="10.00">elem_size</text>
<text text-anchor="start" x="55.5" y="-216.75" font-family="Helvetica,sans-Serif" font-size="10.00"> </text>
<polygon fill="#666666" stroke="#666666" points="3,-258.25 3,-258.25 111,-258.25 111,-258.25 3,-258.25"/>
<polygon fill="#666666" stroke="#666666" points="3,-228.25 3,-228.25 38,-228.25 38,-228.25 3,-228.25"/>
<polygon fill="#666666" stroke="#666666" points="38,-228.25 38,-228.25 111,-228.25 111,-228.25 38,-228.25"/>
<polygon fill="none" stroke="#666666" points="3,-211.25 3,-275.25 111,-275.25 111,-211.25 3,-211.25"/>
</a>
</g>
</g>
<!-- Node3&#45;&gt;Node2 -->
<g id="edge2_Node000002_Node000003" class="edge">
<title>Node3&#45;&gt;Node2</title>
<g id="a_edge2_Node000002_Node000003"><a xlink:title=" ">
<path fill="none" stroke="#63b8ff" d="M72.66,-211.47C79.54,-199.34 88.22,-185.68 97.75,-174.5 100.47,-171.31 103.45,-168.16 106.56,-165.12"/>
<polygon fill="none" stroke="#63b8ff" points="106.62,-165.06 108.33,-158.06 115.45,-156.94 113.74,-163.95 106.62,-165.06"/>
</a>
</g>
<text text-anchor="middle" x="115.62" y="-176.25" font-family="Helvetica,sans-Serif" font-size="10.00" fill="grey"> +tensor</text>
</g>
<!-- Node4 -->
<g id="Node000004" class="node">
<title>Node4</title>
<g id="a_Node000004"><a xlink:href="structTTL__layout__t.html" target="_top" xlink:title="Description of a Tensor layout in memory.">
<polygon fill="white" stroke="none" points="80,-401.5 0,-401.5 0,-337.5 80,-337.5 80,-401.5"/>
<text text-anchor="start" x="11.5" y="-388" font-family="Helvetica,sans-Serif" font-size="10.00">TTL_layout_t</text>
<text text-anchor="start" x="4" y="-373" font-family="Helvetica,sans-Serif" font-size="10.00">+</text>
<text text-anchor="start" x="14" y="-373" font-family="Helvetica,sans-Serif" font-size="10.00">row_spacing</text>
<text text-anchor="start" x="4" y="-358" font-family="Helvetica,sans-Serif" font-size="10.00">+</text>
<text text-anchor="start" x="14" y="-358" font-family="Helvetica,sans-Serif" font-size="10.00">plane_spacing</text>
<text text-anchor="start" x="38.5" y="-343" font-family="Helvetica,sans-Serif" font-size="10.00"> </text>
<polygon fill="#666666" stroke="#666666" points="0,-384.5 0,-384.5 80,-384.5 80,-384.5 0,-384.5"/>
<polygon fill="#666666" stroke="#666666" points="0,-354.5 0,-354.5 12,-354.5 12,-354.5 0,-354.5"/>
<polygon fill="#666666" stroke="#666666" points="12,-354.5 12,-354.5 80,-354.5 80,-354.5 12,-354.5"/>
<polygon fill="none" stroke="#666666" points="0,-337.5 0,-401.5 80,-401.5 80,-337.5 0,-337.5"/>
</a>
</g>
</g>
<!-- Node4&#45;&gt;Node3 -->
<g id="edge3_Node000003_Node000004" class="edge">
<title>Node4&#45;&gt;Node3</title>
<g id="a_edge3_Node000003_Node000004"><a xlink:title=" ">
<path fill="none" stroke="#63b8ff" d="M38.93,-337.67C38.95,-326.05 39.5,-312.74 41.25,-300.75 41.89,-296.39 42.76,-291.88 43.77,-287.41"/>
<polygon fill="none" stroke="#63b8ff" points="43.74,-287.54 41.33,-280.74 46.68,-275.9 49.09,-282.7 43.74,-287.54"/>
</a>
</g>
<text text-anchor="middle" x="58.88" y="-302.5" font-family="Helvetica,sans-Serif" font-size="10.00" fill="grey"> +layout</text>
</g>
<!-- Node5 -->
<g id="Node000005" class="node">
<title>Node5</title>
<g id="a_Node000005"><a xlink:href="structTTL__shape__t.html" target="_top" xlink:title="Description of a Shape.">
<polygon fill="white" stroke="none" points="172.5,-409 105.5,-409 105.5,-330 172.5,-330 172.5,-409"/>
<text text-anchor="start" x="110.12" y="-395.5" font-family="Helvetica,sans-Serif" font-size="10.00">TTL_shape_t</text>
<text text-anchor="start" x="115" y="-380.5" font-family="Helvetica,sans-Serif" font-size="10.00">+</text>
<text text-anchor="start" x="130.5" y="-380.5" font-family="Helvetica,sans-Serif" font-size="10.00">width</text>
<text text-anchor="start" x="115" y="-365.5" font-family="Helvetica,sans-Serif" font-size="10.00">+</text>
<text text-anchor="start" x="130.5" y="-365.5" font-family="Helvetica,sans-Serif" font-size="10.00">height</text>
<text text-anchor="start" x="115" y="-350.5" font-family="Helvetica,sans-Serif" font-size="10.00">+</text>
<text text-anchor="start" x="130.5" y="-350.5" font-family="Helvetica,sans-Serif" font-size="10.00">depth</text>
<text text-anchor="start" x="137.5" y="-335.5" font-family="Helvetica,sans-Serif" font-size="10.00"> </text>
<polygon fill="#666666" stroke="#666666" points="105.5,-392 105.5,-392 172.5,-392 172.5,-392 105.5,-392"/>
<polygon fill="#666666" stroke="#666666" points="105.5,-347 105.5,-347 128.5,-347 128.5,-347 105.5,-347"/>
<polygon fill="#666666" stroke="#666666" points="128.5,-347 128.5,-347 172.5,-347 172.5,-347 128.5,-347"/>
<polygon fill="none" stroke="#666666" points="105.5,-330 105.5,-409 172.5,-409 172.5,-330 105.5,-330"/>
</a>
</g>
</g>
<!-- Node5&#45;&gt;Node2 -->
<g id="edge5_Node000002_Node000005" class="edge">
<title>Node5&#45;&gt;Node2</title>
<g id="a_edge5_Node000002_Node000005"><a xlink:title=" ">
<path fill="none" stroke="#63b8ff" d="M140.3,-330.14C141.82,-285.59 144.29,-212.65 145.77,-169.09"/>
<polygon fill="none" stroke="#63b8ff" points="145.77,-169.21 141.98,-163.08 146.18,-157.22 149.97,-163.35 145.77,-169.21"/>
</a>
</g>
<text text-anchor="middle" x="162.25" y="-239.38" font-family="Helvetica,sans-Serif" font-size="10.00" fill="grey"> +shape</text>
</g>
<!-- Node5&#45;&gt;Node3 -->
<g id="edge4_Node000003_Node000005" class="edge">
<title>Node5&#45;&gt;Node3</title>
<g id="a_edge4_Node000003_Node000005"><a xlink:title=" ">
<path fill="none" stroke="#63b8ff" d="M110.96,-330.16C106.71,-324.13 102.44,-317.93 98.5,-312 93.04,-303.77 87.39,-294.84 82.07,-286.25"/>
<polygon fill="none" stroke="#63b8ff" points="82.07,-286.24 75.53,-283.21 75.81,-276.01 82.35,-279.04 82.07,-286.24"/>
</a>
</g>
<text text-anchor="middle" x="116.25" y="-302.5" font-family="Helvetica,sans-Serif" font-size="10.00" fill="grey"> +shape</text>
</g>
<!-- Node6 -->
<g id="Node000006" class="node">
<title>Node6</title>
<g id="a_Node000006"><a xlink:href="structTTL__offset__t.html" target="_top" xlink:title="Description of the 3D offset of an object.">
<polygon fill="white" stroke="none" points="264.5,-282.75 199.5,-282.75 199.5,-203.75 264.5,-203.75 264.5,-282.75"/>
<text text-anchor="start" x="204.25" y="-269.25" font-family="Helvetica,sans-Serif" font-size="10.00">TTL_offset_t</text>
<text text-anchor="start" x="214" y="-254.25" font-family="Helvetica,sans-Serif" font-size="10.00">+</text>
<text text-anchor="start" x="234.5" y="-254.25" font-family="Helvetica,sans-Serif" font-size="10.00">x</text>
<text text-anchor="start" x="214" y="-239.25" font-family="Helvetica,sans-Serif" font-size="10.00">+</text>
<text text-anchor="start" x="234.5" y="-239.25" font-family="Helvetica,sans-Serif" font-size="10.00">y</text>
<text text-anchor="start" x="214" y="-224.25" font-family="Helvetica,sans-Serif" font-size="10.00">+</text>
<text text-anchor="start" x="234.5" y="-224.25" font-family="Helvetica,sans-Serif" font-size="10.00">z</text>
<text text-anchor="start" x="230.5" y="-209.25" font-family="Helvetica,sans-Serif" font-size="10.00"> </text>
<polygon fill="#666666" stroke="#666666" points="199.5,-265.75 199.5,-265.75 264.5,-265.75 264.5,-265.75 199.5,-265.75"/>
<polygon fill="#666666" stroke="#666666" points="199.5,-220.75 199.5,-220.75 232.5,-220.75 232.5,-220.75 199.5,-220.75"/>
<polygon fill="#666666" stroke="#666666" points="232.5,-220.75 232.5,-220.75 264.5,-220.75 264.5,-220.75 232.5,-220.75"/>
<polygon fill="none" stroke="#666666" points="199.5,-203.75 199.5,-282.75 264.5,-282.75 264.5,-203.75 199.5,-203.75"/>
</a>
</g>
</g>
<!-- Node6&#45;&gt;Node2 -->
<g id="edge6_Node000002_Node000006" class="edge">
<title>Node6&#45;&gt;Node2</title>
<g id="a_edge6_Node000002_Node000006"><a xlink:title=" ">
<path fill="none" stroke="#63b8ff" d="M202.27,-204.04C192.72,-191.76 182.22,-178.26 172.96,-166.36"/>
<polygon fill="none" stroke="#63b8ff" points="173.11,-166.56 166.27,-164.29 165.75,-157.09 172.59,-159.37 173.11,-166.56"/>
</a>
</g>
<text text-anchor="middle" x="212.62" y="-176.25" font-family="Helvetica,sans-Serif" font-size="10.00" fill="grey"> +sub_offset</text>
</g>
</g>
</svg>
