<?xml version="1.0" encoding="UTF-8" standalone="no"?>
<!DOCTYPE svg PUBLIC "-//W3C//DTD SVG 1.1//EN"
 "http://www.w3.org/Graphics/SVG/1.1/DTD/svg11.dtd">
<!-- Generated by graphviz version 12.0.0 (20240704.0754)
 -->
<!-- Title: TTL_import_double_const_long_tensor_buffering_t Pages: 1 -->
<svg width="257pt" height="373pt"
 viewBox="0.00 0.00 256.50 372.75" xmlns="http://www.w3.org/2000/svg" xmlns:xlink="http://www.w3.org/1999/xlink">
<g id="graph0" class="graph" transform="scale(1 1) rotate(0) translate(4 368.75)">
<title>TTL_import_double_const_long_tensor_buffering_t</title>
<!-- Node1 -->
<g id="Node000001" class="node">
<title>Node1</title>
<g id="a_Node000001"><a xlink:title="Data required to perform double buffer pipelining.">
<polygon fill="#999999" stroke="none" points="187.5,-105 64.5,-105 64.5,0 187.5,0 187.5,-105"/>
<text text-anchor="start" x="69.38" y="-91.5" font-family="Helvetica,sans-Serif" font-size="10.00">TTL_import_double_const</text>
<text text-anchor="start" x="73.12" y="-80.25" font-family="Helvetica,sans-Serif" font-size="10.00">_long_tensor_buffering_t</text>
<text text-anchor="start" x="85.5" y="-65.5" font-family="Helvetica,sans-Serif" font-size="10.00">+</text>
<text text-anchor="start" x="112.5" y="-65.5" font-family="Helvetica,sans-Serif" font-size="10.00">index</text>
<text text-anchor="start" x="85.5" y="-50.5" font-family="Helvetica,sans-Serif" font-size="10.00">+</text>
<text text-anchor="start" x="112.5" y="-50.5" font-family="Helvetica,sans-Serif" font-size="10.00">int_base</text>
<text text-anchor="start" x="85.5" y="-35.5" font-family="Helvetica,sans-Serif" font-size="10.00">+</text>
<text text-anchor="start" x="112.5" y="-35.5" font-family="Helvetica,sans-Serif" font-size="10.00">common</text>
<text text-anchor="start" x="85.5" y="-20.5" font-family="Helvetica,sans-Serif" font-size="10.00">+</text>
<text text-anchor="start" x="112.5" y="-20.5" font-family="Helvetica,sans-Serif" font-size="10.00">event</text>
<text text-anchor="start" x="124.5" y="-5.5" font-family="Helvetica,sans-Serif" font-size="10.00"> </text>
<polygon fill="#666666" stroke="#666666" points="64.5,-77 64.5,-77 187.5,-77 187.5,-77 64.5,-77"/>
<polygon fill="#666666" stroke="#666666" points="64.5,-17 64.5,-17 110.5,-17 110.5,-17 64.5,-17"/>
<polygon fill="#666666" stroke="#666666" points="110.5,-17 110.5,-17 187.5,-17 187.5,-17 110.5,-17"/>
<polygon fill="none" stroke="#666666" points="64.5,0 64.5,-105 187.5,-105 187.5,0 64.5,0"/>
</a>
</g>
</g>
<!-- Node2 -->
<g id="Node000002" class="node">
<title>Node2</title>
<g id="a_Node000002"><a xlink:href="structTTL__const__ext__long__tensor__t.html" target="_top" xlink:title=" ">
<polygon fill="white" stroke="none" points="129,-238.5 31,-238.5 31,-163.5 129,-163.5 129,-238.5"/>
<text text-anchor="start" x="35.75" y="-225" font-family="Helvetica,sans-Serif" font-size="10.00">TTL_const_ext_long</text>
<text text-anchor="start" x="59.75" y="-213.75" font-family="Helvetica,sans-Serif" font-size="10.00">_tensor_t</text>
<text text-anchor="start" x="44" y="-199" font-family="Helvetica,sans-Serif" font-size="10.00">+</text>
<text text-anchor="start" x="63" y="-199" font-family="Helvetica,sans-Serif" font-size="10.00">base</text>
<text text-anchor="start" x="44" y="-184" font-family="Helvetica,sans-Serif" font-size="10.00">+</text>
<text text-anchor="start" x="63" y="-184" font-family="Helvetica,sans-Serif" font-size="10.00">elem_size</text>
<text text-anchor="start" x="78.5" y="-169" font-family="Helvetica,sans-Serif" font-size="10.00"> </text>
<polygon fill="#666666" stroke="#666666" points="31,-210.5 31,-210.5 129,-210.5 129,-210.5 31,-210.5"/>
<polygon fill="#666666" stroke="#666666" points="31,-180.5 31,-180.5 61,-180.5 61,-180.5 31,-180.5"/>
<polygon fill="#666666" stroke="#666666" points="61,-180.5 61,-180.5 129,-180.5 129,-180.5 61,-180.5"/>
<polygon fill="none" stroke="#666666" points="31,-163.5 31,-238.5 129,-238.5 129,-163.5 31,-163.5"/>
</a>
</g>
</g>
<!-- Node2&#45;&gt;Node1 -->
<g id="edge1_Node000001_Node000002" class="edge">
<title>Node2&#45;&gt;Node1</title>
<g id="a_edge1_Node000001_Node000002"><a xlink:title=" ">
<path fill="none" stroke="#63b8ff" d="M76.51,-163.71C76.31,-150.64 77.33,-135.92 81.25,-123 81.89,-120.88 82.62,-118.75 83.42,-116.64"/>
<polygon fill="none" stroke="#63b8ff" points="83.49,-116.51 82.27,-109.4 88.36,-105.54 89.58,-112.65 83.49,-116.51"/>
</a>
</g>
<text text-anchor="middle" x="115.88" y="-136" font-family="Helvetica,sans-Serif" font-size="10.00" fill="grey"> +ext_tensor_in</text>
<text text-anchor="middle" x="115.88" y="-124.75" font-family="Helvetica,sans-Serif" font-size="10.00" fill="grey">+ext_tensor_out</text>
</g>
<!-- Node3 -->
<g id="Node000003" class="node">
<title>Node3</title>
<g id="a_Node000003"><a xlink:href="structTTL__layout__t.html" target="_top" xlink:title="Description of a Tensor layout in memory.">
<polygon fill="white" stroke="none" points="80,-357.25 0,-357.25 0,-293.25 80,-293.25 80,-357.25"/>
<text text-anchor="start" x="11.5" y="-343.75" font-family="Helvetica,sans-Serif" font-size="10.00">TTL_layout_t</text>
<text text-anchor="start" x="4" y="-328.75" font-family="Helvetica,sans-Serif" font-size="10.00">+</text>
<text text-anchor="start" x="14" y="-328.75" font-family="Helvetica,sans-Serif" font-size="10.00">row_spacing</text>
<text text-anchor="start" x="4" y="-313.75" font-family="Helvetica,sans-Serif" font-size="10.00">+</text>
<text text-anchor="start" x="14" y="-313.75" font-family="Helvetica,sans-Serif" font-size="10.00">plane_spacing</text>
<text text-anchor="start" x="38.5" y="-298.75" font-family="Helvetica,sans-Serif" font-size="10.00"> </text>
<polygon fill="#666666" stroke="#666666" points="0,-340.25 0,-340.25 80,-340.25 80,-340.25 0,-340.25"/>
<polygon fill="#666666" stroke="#666666" points="0,-310.25 0,-310.25 12,-310.25 12,-310.25 0,-310.25"/>
<polygon fill="#666666" stroke="#666666" points="12,-310.25 12,-310.25 80,-310.25 80,-310.25 12,-310.25"/>
<polygon fill="none" stroke="#666666" points="0,-293.25 0,-357.25 80,-357.25 80,-293.25 0,-293.25"/>
</a>
</g>
</g>
<!-- Node3&#45;&gt;Node2 -->
<g id="edge2_Node000002_Node000003" class="edge">
<title>Node3&#45;&gt;Node2</title>
<g id="a_edge2_Node000002_Node000003"><a xlink:title=" ">
<path fill="none" stroke="#63b8ff" d="M37.37,-293.59C37.29,-281.74 38.37,-268.23 42.25,-256.5 42.99,-254.26 43.85,-252.03 44.82,-249.83"/>
<polygon fill="none" stroke="#63b8ff" points="44.85,-249.77 44.05,-242.6 50.35,-239.11 51.15,-246.27 44.85,-249.77"/>
</a>
</g>
<text text-anchor="middle" x="58.88" y="-258.25" font-family="Helvetica,sans-Serif" font-size="10.00" fill="grey"> +layout</text>
</g>
<!-- Node4 -->
<g id="Node000004" class="node">
<title>Node4</title>
<g id="a_Node000004"><a xlink:href="structTTL__shape__t.html" target="_top" xlink:title="Description of a Shape.">
<polygon fill="white" stroke="none" points="165.5,-364.75 98.5,-364.75 98.5,-285.75 165.5,-285.75 165.5,-364.75"/>
<text text-anchor="start" x="103.12" y="-351.25" font-family="Helvetica,sans-Serif" font-size="10.00">TTL_shape_t</text>
<text text-anchor="start" x="108" y="-336.25" font-family="Helvetica,sans-Serif" font-size="10.00">+</text>
<text text-anchor="start" x="123.5" y="-336.25" font-family="Helvetica,sans-Serif" font-size="10.00">width</text>
<text text-anchor="start" x="108" y="-321.25" font-family="Helvetica,sans-Serif" font-size="10.00">+</text>
<text text-anchor="start" x="123.5" y="-321.25" font-family="Helvetica,sans-Serif" font-size="10.00">height</text>
<text text-anchor="start" x="108" y="-306.25" font-family="Helvetica,sans-Serif" font-size="10.00">+</text>
<text text-anchor="start" x="123.5" y="-306.25" font-family="Helvetica,sans-Serif" font-size="10.00">depth</text>
<text text-anchor="start" x="130.5" y="-291.25" font-family="Helvetica,sans-Serif" font-size="10.00"> </text>
<polygon fill="#666666" stroke="#666666" points="98.5,-347.75 98.5,-347.75 165.5,-347.75 165.5,-347.75 98.5,-347.75"/>
<polygon fill="#666666" stroke="#666666" points="98.5,-302.75 98.5,-302.75 121.5,-302.75 121.5,-302.75 98.5,-302.75"/>
<polygon fill="#666666" stroke="#666666" points="121.5,-302.75 121.5,-302.75 165.5,-302.75 165.5,-302.75 121.5,-302.75"/>
<polygon fill="none" stroke="#666666" points="98.5,-285.75 98.5,-364.75 165.5,-364.75 165.5,-285.75 98.5,-285.75"/>
</a>
</g>
</g>
<!-- Node4&#45;&gt;Node2 -->
<g id="edge3_Node000002_Node000004" class="edge">
<title>Node4&#45;&gt;Node2</title>
<g id="a_edge3_Node000002_Node000004"><a xlink:title=" ">
<path fill="none" stroke="#63b8ff" d="M115.69,-285.9C110.82,-274.46 105.42,-261.76 100.33,-249.79"/>
<polygon fill="none" stroke="#63b8ff" points="100.42,-250 94.39,-246.04 95.72,-238.95 101.75,-242.91 100.42,-250"/>
</a>
</g>
<text text-anchor="middle" x="124.25" y="-258.25" font-family="Helvetica,sans-Serif" font-size="10.00" fill="grey"> +shape</text>
</g>
<!-- Node5 -->
<g id="Node000005" class="node">
<title>Node5</title>
<g id="a_Node000005"><a xlink:href="structTTL__tile__t.html" target="_top" xlink:title=" ">
<polygon fill="white" stroke="none" points="201,-225.5 147,-225.5 147,-176.5 201,-176.5 201,-225.5"/>
<text text-anchor="start" x="151.88" y="-212" font-family="Helvetica,sans-Serif" font-size="10.00">TTL_tile_t</text>
<text text-anchor="start" x="172.5" y="-197" font-family="Helvetica,sans-Serif" font-size="10.00"> </text>
<text text-anchor="start" x="172.5" y="-182" font-family="Helvetica,sans-Serif" font-size="10.00"> </text>
<polygon fill="#666666" stroke="#666666" points="147,-208.5 147,-208.5 201,-208.5 201,-208.5 147,-208.5"/>
<polygon fill="#666666" stroke="#666666" points="147,-193.5 147,-193.5 201,-193.5 201,-193.5 147,-193.5"/>
<polygon fill="none" stroke="#666666" points="147,-176.5 147,-225.5 201,-225.5 201,-176.5 147,-176.5"/>
</a>
</g>
</g>
<!-- Node4&#45;&gt;Node5 -->
<g id="edge5_Node000005_Node000004" class="edge">
<title>Node4&#45;&gt;Node5</title>
<g id="a_edge5_Node000005_Node000004"><a xlink:title=" ">
<path fill="none" stroke="#63b8ff" d="M145.17,-285.9C150.51,-270.37 156.64,-252.54 161.86,-237.33"/>
<polygon fill="none" stroke="#63b8ff" points="161.81,-237.47 159.98,-230.49 165.71,-226.12 167.55,-233.09 161.81,-237.47"/>
</a>
</g>
<text text-anchor="middle" x="171.25" y="-258.25" font-family="Helvetica,sans-Serif" font-size="10.00" fill="grey"> +shape</text>
</g>
<!-- Node5&#45;&gt;Node1 -->
<g id="edge4_Node000001_Node000005" class="edge">
<title>Node5&#45;&gt;Node1</title>
<g id="a_edge4_Node000001_Node000005"><a xlink:title=" ">
<path fill="none" stroke="#63b8ff" d="M167.39,-176.65C162.96,-161.33 156.89,-140.89 151,-123 150.33,-120.95 149.63,-118.87 148.92,-116.77"/>
<polygon fill="none" stroke="#63b8ff" points="148.94,-116.83 143.21,-112.46 145.04,-105.48 150.78,-109.86 148.94,-116.83"/>
</a>
</g>
<text text-anchor="middle" x="179.5" y="-130.38" font-family="Helvetica,sans-Serif" font-size="10.00" fill="grey"> +prev_tile</text>
</g>
<!-- Node6 -->
<g id="Node000006" class="node">
<title>Node6</title>
<g id="a_Node000006"><a xlink:href="structTTL__offset__t.html" target="_top" xlink:title="Description of the 3D offset of an object.">
<polygon fill="white" stroke="none" points="248.5,-364.75 183.5,-364.75 183.5,-285.75 248.5,-285.75 248.5,-364.75"/>
<text text-anchor="start" x="188.25" y="-351.25" font-family="Helvetica,sans-Serif" font-size="10.00">TTL_offset_t</text>
<text text-anchor="start" x="198" y="-336.25" font-family="Helvetica,sans-Serif" font-size="10.00">+</text>
<text text-anchor="start" x="218.5" y="-336.25" font-family="Helvetica,sans-Serif" font-size="10.00">x</text>
<text text-anchor="start" x="198" y="-321.25" font-family="Helvetica,sans-Serif" font-size="10.00">+</text>
<text text-anchor="start" x="218.5" y="-321.25" font-family="Helvetica,sans-Serif" font-size="10.00">y</text>
<text text-anchor="start" x="198" y="-306.25" font-family="Helvetica,sans-Serif" font-size="10.00">+</text>
<text text-anchor="start" x="218.5" y="-306.25" font-family="Helvetica,sans-Serif" font-size="10.00">z</text>
<text text-anchor="start" x="214.5" y="-291.25" font-family="Helvetica,sans-Serif" font-size="10.00"> </text>
<polygon fill="#666666" stroke="#666666" points="183.5,-347.75 183.5,-347.75 248.5,-347.75 248.5,-347.75 183.5,-347.75"/>
<polygon fill="#666666" stroke="#666666" points="183.5,-302.75 183.5,-302.75 216.5,-302.75 216.5,-302.75 183.5,-302.75"/>
<polygon fill="#666666" stroke="#666666" points="216.5,-302.75 216.5,-302.75 248.5,-302.75 248.5,-302.75 216.5,-302.75"/>
<polygon fill="none" stroke="#666666" points="183.5,-285.75 183.5,-364.75 248.5,-364.75 248.5,-285.75 183.5,-285.75"/>
</a>
</g>
</g>
<!-- Node6&#45;&gt;Node5 -->
<g id="edge6_Node000005_Node000006" class="edge">
<title>Node6&#45;&gt;Node5</title>
<g id="a_edge6_Node000005_Node000006"><a xlink:title=" ">
<path fill="none" stroke="#63b8ff" d="M203.04,-285.89C199.78,-276.29 196.27,-266.01 193,-256.5 190.85,-250.26 188.56,-243.63 186.33,-237.22"/>
<polygon fill="none" stroke="#63b8ff" points="186.43,-237.51 180.67,-233.16 182.48,-226.18 188.23,-230.52 186.43,-237.51"/>
</a>
</g>
<text text-anchor="middle" x="212.12" y="-258.25" font-family="Helvetica,sans-Serif" font-size="10.00" fill="grey"> +offset</text>
</g>
</g>
</svg>
