<?xml version="1.0" encoding="UTF-8" standalone="no"?>
<!DOCTYPE svg PUBLIC "-//W3C//DTD SVG 1.1//EN"
 "http://www.w3.org/Graphics/SVG/1.1/DTD/svg11.dtd">
<!-- Generated by graphviz version 12.0.0 (20240704.0754)
 -->
<!-- Title: TTL_ext_ushort_sub_tensor_t Pages: 1 -->
<svg width="280pt" height="321pt"
 viewBox="0.00 0.00 279.50 320.50" xmlns="http://www.w3.org/2000/svg" xmlns:xlink="http://www.w3.org/1999/xlink">
<g id="graph0" class="graph" transform="scale(1 1) rotate(0) translate(4 316.5)">
<title>TTL_ext_ushort_sub_tensor_t</title>
<!-- Node1 -->
<g id="Node000001" class="node">
<title>Node1</title>
<g id="a_Node000001"><a xlink:title="const and non&#45;const sub tensors in the appropriate address space">
<polygon fill="#999999" stroke="none" points="203.5,-60 104.5,-60 104.5,0 203.5,0 203.5,-60"/>
<text text-anchor="start" x="109.38" y="-46.5" font-family="Helvetica,sans-Serif" font-size="10.00">TTL_ext_ushort_sub</text>
<text text-anchor="start" x="133.75" y="-35.25" font-family="Helvetica,sans-Serif" font-size="10.00">_tensor_t</text>
<text text-anchor="start" x="123" y="-20.5" font-family="Helvetica,sans-Serif" font-size="10.00">+</text>
<text text-anchor="start" x="147.5" y="-20.5" font-family="Helvetica,sans-Serif" font-size="10.00">origin</text>
<text text-anchor="start" x="152.5" y="-5.5" font-family="Helvetica,sans-Serif" font-size="10.00"> </text>
<polygon fill="#666666" stroke="#666666" points="104.5,-32 104.5,-32 203.5,-32 203.5,-32 104.5,-32"/>
<polygon fill="#666666" stroke="#666666" points="104.5,-17 104.5,-17 145.5,-17 145.5,-17 104.5,-17"/>
<polygon fill="#666666" stroke="#666666" points="145.5,-17 145.5,-17 203.5,-17 203.5,-17 145.5,-17"/>
<polygon fill="none" stroke="#666666" points="104.5,0 104.5,-60 203.5,-60 203.5,0 104.5,0"/>
</a>
</g>
</g>
<!-- Node2 -->
<g id="Node000002" class="node">
<title>Node2</title>
<g id="a_Node000002"><a xlink:href="structTTL__ext__ushort__tensor__t.html" target="_top" xlink:title="const and non&#45;const tensors in the appropriate address space">
<polygon fill="white" stroke="none" points="118,-178.75 0,-178.75 0,-114.75 118,-114.75 118,-178.75"/>
<text text-anchor="start" x="4.62" y="-165.25" font-family="Helvetica,sans-Serif" font-size="10.00">TTL_ext_ushort_tensor_t</text>
<text text-anchor="start" x="18" y="-150.25" font-family="Helvetica,sans-Serif" font-size="10.00">+</text>
<text text-anchor="start" x="42" y="-150.25" font-family="Helvetica,sans-Serif" font-size="10.00">base</text>
<text text-anchor="start" x="18" y="-135.25" font-family="Helvetica,sans-Serif" font-size="10.00">+</text>
<text text-anchor="start" x="42" y="-135.25" font-family="Helvetica,sans-Serif" font-size="10.00">elem_size</text>
<text text-anchor="start" x="57.5" y="-120.25" font-family="Helvetica,sans-Serif" font-size="10.00"> </text>
<polygon fill="#666666" stroke="#666666" points="0,-161.75 0,-161.75 118,-161.75 118,-161.75 0,-161.75"/>
<polygon fill="#666666" stroke="#666666" points="0,-131.75 0,-131.75 40,-131.75 40,-131.75 0,-131.75"/>
<polygon fill="#666666" stroke="#666666" points="40,-131.75 40,-131.75 118,-131.75 118,-131.75 40,-131.75"/>
<polygon fill="none" stroke="#666666" points="0,-114.75 0,-178.75 118,-178.75 118,-114.75 0,-114.75"/>
</a>
</g>
</g>
<!-- Node2&#45;&gt;Node1 -->
<g id="edge1_Node000001_Node000002" class="edge">
<title>Node2&#45;&gt;Node1</title>
<g id="a_edge1_Node000001_Node000002"><a xlink:title=" ">
<path fill="none" stroke="#63b8ff" d="M77.72,-115.07C85.53,-103.08 95.04,-89.49 104.75,-78 107.26,-75.03 109.94,-72.04 112.71,-69.09"/>
<polygon fill="none" stroke="#63b8ff" points="112.7,-69.1 114.03,-62.02 121.09,-60.52 119.75,-67.61 112.7,-69.1"/>
</a>
</g>
<text text-anchor="middle" x="122.62" y="-79.75" font-family="Helvetica,sans-Serif" font-size="10.00" fill="grey"> +tensor</text>
</g>
<!-- Node3 -->
<g id="Node000003" class="node">
<title>Node3</title>
<g id="a_Node000003"><a xlink:href="structTTL__layout__t.html" target="_top" xlink:title="Description of a Tensor layout in memory.">
<polygon fill="white" stroke="none" points="87,-305 7,-305 7,-241 87,-241 87,-305"/>
<text text-anchor="start" x="18.5" y="-291.5" font-family="Helvetica,sans-Serif" font-size="10.00">TTL_layout_t</text>
<text text-anchor="start" x="11" y="-276.5" font-family="Helvetica,sans-Serif" font-size="10.00">+</text>
<text text-anchor="start" x="21" y="-276.5" font-family="Helvetica,sans-Serif" font-size="10.00">row_spacing</text>
<text text-anchor="start" x="11" y="-261.5" font-family="Helvetica,sans-Serif" font-size="10.00">+</text>
<text text-anchor="start" x="21" y="-261.5" font-family="Helvetica,sans-Serif" font-size="10.00">plane_spacing</text>
<text text-anchor="start" x="45.5" y="-246.5" font-family="Helvetica,sans-Serif" font-size="10.00"> </text>
<polygon fill="#666666" stroke="#666666" points="7,-288 7,-288 87,-288 87,-288 7,-288"/>
<polygon fill="#666666" stroke="#666666" points="7,-258 7,-258 19,-258 19,-258 7,-258"/>
<polygon fill="#666666" stroke="#666666" points="19,-258 19,-258 87,-258 87,-258 19,-258"/>
<polygon fill="none" stroke="#666666" points="7,-241 7,-305 87,-305 87,-241 7,-241"/>
</a>
</g>
</g>
<!-- Node3&#45;&gt;Node2 -->
<g id="edge2_Node000002_Node000003" class="edge">
<title>Node3&#45;&gt;Node2</title>
<g id="a_edge2_Node000002_Node000003"><a xlink:title=" ">
<path fill="none" stroke="#63b8ff" d="M46.47,-241.24C46.56,-229.62 47,-216.3 48.25,-204.25 48.68,-200.08 49.26,-195.76 49.93,-191.44"/>
<polygon fill="none" stroke="#63b8ff" points="49.93,-191.41 47.02,-184.81 51.98,-179.58 54.9,-186.18 49.93,-191.41"/>
</a>
</g>
<text text-anchor="middle" x="65.88" y="-206" font-family="Helvetica,sans-Serif" font-size="10.00" fill="grey"> +layout</text>
</g>
<!-- Node4 -->
<g id="Node000004" class="node">
<title>Node4</title>
<g id="a_Node000004"><a xlink:href="structTTL__shape__t.html" target="_top" xlink:title="Description of a Shape.">
<polygon fill="white" stroke="none" points="179.5,-312.5 112.5,-312.5 112.5,-233.5 179.5,-233.5 179.5,-312.5"/>
<text text-anchor="start" x="117.12" y="-299" font-family="Helvetica,sans-Serif" font-size="10.00">TTL_shape_t</text>
<text text-anchor="start" x="122" y="-284" font-family="Helvetica,sans-Serif" font-size="10.00">+</text>
<text text-anchor="start" x="137.5" y="-284" font-family="Helvetica,sans-Serif" font-size="10.00">width</text>
<text text-anchor="start" x="122" y="-269" font-family="Helvetica,sans-Serif" font-size="10.00">+</text>
<text text-anchor="start" x="137.5" y="-269" font-family="Helvetica,sans-Serif" font-size="10.00">height</text>
<text text-anchor="start" x="122" y="-254" font-family="Helvetica,sans-Serif" font-size="10.00">+</text>
<text text-anchor="start" x="137.5" y="-254" font-family="Helvetica,sans-Serif" font-size="10.00">depth</text>
<text text-anchor="start" x="144.5" y="-239" font-family="Helvetica,sans-Serif" font-size="10.00"> </text>
<polygon fill="#666666" stroke="#666666" points="112.5,-295.5 112.5,-295.5 179.5,-295.5 179.5,-295.5 112.5,-295.5"/>
<polygon fill="#666666" stroke="#666666" points="112.5,-250.5 112.5,-250.5 135.5,-250.5 135.5,-250.5 112.5,-250.5"/>
<polygon fill="#666666" stroke="#666666" points="135.5,-250.5 135.5,-250.5 179.5,-250.5 179.5,-250.5 135.5,-250.5"/>
<polygon fill="none" stroke="#666666" points="112.5,-233.5 112.5,-312.5 179.5,-312.5 179.5,-233.5 112.5,-233.5"/>
</a>
</g>
</g>
<!-- Node4&#45;&gt;Node1 -->
<g id="edge4_Node000001_Node000004" class="edge">
<title>Node4&#45;&gt;Node1</title>
<g id="a_edge4_Node000001_Node000004"><a xlink:title=" ">
<path fill="none" stroke="#63b8ff" d="M147.28,-233.55C148.73,-189.61 151.11,-117.97 152.62,-72.72"/>
<polygon fill="none" stroke="#63b8ff" points="152.61,-72.76 148.82,-66.63 153.01,-60.76 156.81,-66.89 152.61,-72.76"/>
</a>
</g>
<text text-anchor="middle" x="169.25" y="-142.88" font-family="Helvetica,sans-Serif" font-size="10.00" fill="grey"> +shape</text>
</g>
<!-- Node4&#45;&gt;Node2 -->
<g id="edge3_Node000002_Node000004" class="edge">
<title>Node4&#45;&gt;Node2</title>
<g id="a_edge3_Node000002_Node000004"><a xlink:title=" ">
<path fill="none" stroke="#63b8ff" d="M118.44,-233.78C114.09,-227.68 109.66,-221.43 105.5,-215.5 99.57,-207.04 93.27,-197.95 87.29,-189.25"/>
<polygon fill="none" stroke="#63b8ff" points="87.23,-189.17 80.54,-186.49 80.44,-179.28 87.14,-181.96 87.23,-189.17"/>
</a>
</g>
<text text-anchor="middle" x="123.25" y="-206" font-family="Helvetica,sans-Serif" font-size="10.00" fill="grey"> +shape</text>
</g>
<!-- Node5 -->
<g id="Node000005" class="node">
<title>Node5</title>
<g id="a_Node000005"><a xlink:href="structTTL__offset__t.html" target="_top" xlink:title="Description of the 3D offset of an object.">
<polygon fill="white" stroke="none" points="271.5,-186.25 206.5,-186.25 206.5,-107.25 271.5,-107.25 271.5,-186.25"/>
<text text-anchor="start" x="211.25" y="-172.75" font-family="Helvetica,sans-Serif" font-size="10.00">TTL_offset_t</text>
<text text-anchor="start" x="221" y="-157.75" font-family="Helvetica,sans-Serif" font-size="10.00">+</text>
<text text-anchor="start" x="241.5" y="-157.75" font-family="Helvetica,sans-Serif" font-size="10.00">x</text>
<text text-anchor="start" x="221" y="-142.75" font-family="Helvetica,sans-Serif" font-size="10.00">+</text>
<text text-anchor="start" x="241.5" y="-142.75" font-family="Helvetica,sans-Serif" font-size="10.00">y</text>
<text text-anchor="start" x="221" y="-127.75" font-family="Helvetica,sans-Serif" font-size="10.00">+</text>
<text text-anchor="start" x="241.5" y="-127.75" font-family="Helvetica,sans-Serif" font-size="10.00">z</text>
<text text-anchor="start" x="237.5" y="-112.75" font-family="Helvetica,sans-Serif" font-size="10.00"> </text>
<polygon fill="#666666" stroke="#666666" points="206.5,-169.25 206.5,-169.25 271.5,-169.25 271.5,-169.25 206.5,-169.25"/>
<polygon fill="#666666" stroke="#666666" points="206.5,-124.25 206.5,-124.25 239.5,-124.25 239.5,-124.25 206.5,-124.25"/>
<polygon fill="#666666" stroke="#666666" points="239.5,-124.25 239.5,-124.25 271.5,-124.25 271.5,-124.25 239.5,-124.25"/>
<polygon fill="none" stroke="#666666" points="206.5,-107.25 206.5,-186.25 271.5,-186.25 271.5,-107.25 206.5,-107.25"/>
</a>
</g>
</g>
<!-- Node5&#45;&gt;Node1 -->
<g id="edge5_Node000001_Node000005" class="edge">
<title>Node5&#45;&gt;Node1</title>
<g id="a_edge5_Node000001_Node000005"><a xlink:title=" ">
<path fill="none" stroke="#63b8ff" d="M210.7,-107.54C201.81,-95.54 191.98,-82.27 183.04,-70.2"/>
<polygon fill="none" stroke="#63b8ff" points="183.14,-70.33 176.35,-67.89 175.99,-60.69 182.78,-63.13 183.14,-70.33"/>
</a>
</g>
<text text-anchor="middle" x="222.62" y="-79.75" font-family="Helvetica,sans-Serif" font-size="10.00" fill="grey"> +sub_offset</text>
</g>
</g>
</svg>
