<?xml version="1.0" encoding="UTF-8" standalone="no"?>
<!DOCTYPE svg PUBLIC "-//W3C//DTD SVG 1.1//EN"
 "http://www.w3.org/Graphics/SVG/1.1/DTD/svg11.dtd">
<!-- Generated by graphviz version 12.0.0 (20240704.0754)
 -->
<!-- Title: TTL_duplex_const_short_tensor_buffering_t Pages: 1 -->
<svg width="244pt" height="399pt"
 viewBox="0.00 0.00 244.25 399.00" xmlns="http://www.w3.org/2000/svg" xmlns:xlink="http://www.w3.org/1999/xlink">
<g id="graph0" class="graph" transform="scale(1 1) rotate(0) translate(4 395)">
<title>TTL_duplex_const_short_tensor_buffering_t</title>
<!-- Node1 -->
<g id="Node000001" class="node">
<title>Node1</title>
<g id="a_Node000001"><a xlink:title="Data required to perform duplex buffer pipelining.">
<polygon fill="#999999" stroke="none" points="177,-120 60,-120 60,0 177,0 177,-120"/>
<text text-anchor="start" x="64.88" y="-106.5" font-family="Helvetica,sans-Serif" font-size="10.00">TTL_duplex_const_short</text>
<text text-anchor="start" x="77.25" y="-95.25" font-family="Helvetica,sans-Serif" font-size="10.00">_tensor_buffering_t</text>
<text text-anchor="start" x="70" y="-80.5" font-family="Helvetica,sans-Serif" font-size="10.00">+</text>
<text text-anchor="start" x="86" y="-80.5" font-family="Helvetica,sans-Serif" font-size="10.00">index</text>
<text text-anchor="start" x="70" y="-65.5" font-family="Helvetica,sans-Serif" font-size="10.00">+</text>
<text text-anchor="start" x="86" y="-65.5" font-family="Helvetica,sans-Serif" font-size="10.00">int_base</text>
<text text-anchor="start" x="70" y="-50.5" font-family="Helvetica,sans-Serif" font-size="10.00">+</text>
<text text-anchor="start" x="86" y="-50.5" font-family="Helvetica,sans-Serif" font-size="10.00">common</text>
<text text-anchor="start" x="70" y="-35.5" font-family="Helvetica,sans-Serif" font-size="10.00">+</text>
<text text-anchor="start" x="86" y="-35.5" font-family="Helvetica,sans-Serif" font-size="10.00">events</text>
<text text-anchor="start" x="70" y="-20.5" font-family="Helvetica,sans-Serif" font-size="10.00">+</text>
<text text-anchor="start" x="86" y="-20.5" font-family="Helvetica,sans-Serif" font-size="10.00">prev_out_tensors</text>
<text text-anchor="start" x="117" y="-5.5" font-family="Helvetica,sans-Serif" font-size="10.00"> </text>
<polygon fill="#666666" stroke="#666666" points="60,-92 60,-92 177,-92 177,-92 60,-92"/>
<polygon fill="#666666" stroke="#666666" points="60,-17 60,-17 84,-17 84,-17 60,-17"/>
<polygon fill="#666666" stroke="#666666" points="84,-17 84,-17 177,-17 177,-17 84,-17"/>
<polygon fill="none" stroke="#666666" points="60,0 60,-120 177,-120 177,0 60,0"/>
</a>
</g>
</g>
<!-- Node2 -->
<g id="Node000002" class="node">
<title>Node2</title>
<g id="a_Node000002"><a xlink:href="structTTL__ext__short__tensor__t.html" target="_top" xlink:title="const and non&#45;const tensors in the appropriate address space">
<polygon fill="white" stroke="none" points="113,-259.25 0,-259.25 0,-195.25 113,-195.25 113,-259.25"/>
<text text-anchor="start" x="4.75" y="-245.75" font-family="Helvetica,sans-Serif" font-size="10.00">TTL_ext_short_tensor_t</text>
<text text-anchor="start" x="17" y="-230.75" font-family="Helvetica,sans-Serif" font-size="10.00">+</text>
<text text-anchor="start" x="40" y="-230.75" font-family="Helvetica,sans-Serif" font-size="10.00">base</text>
<text text-anchor="start" x="17" y="-215.75" font-family="Helvetica,sans-Serif" font-size="10.00">+</text>
<text text-anchor="start" x="40" y="-215.75" font-family="Helvetica,sans-Serif" font-size="10.00">elem_size</text>
<text text-anchor="start" x="55" y="-200.75" font-family="Helvetica,sans-Serif" font-size="10.00"> </text>
<polygon fill="#666666" stroke="#666666" points="0,-242.25 0,-242.25 113,-242.25 113,-242.25 0,-242.25"/>
<polygon fill="#666666" stroke="#666666" points="0,-212.25 0,-212.25 38,-212.25 38,-212.25 0,-212.25"/>
<polygon fill="#666666" stroke="#666666" points="38,-212.25 38,-212.25 113,-212.25 113,-212.25 38,-212.25"/>
<polygon fill="none" stroke="#666666" points="0,-195.25 0,-259.25 113,-259.25 113,-195.25 0,-195.25"/>
</a>
</g>
</g>
<!-- Node2&#45;&gt;Node1 -->
<g id="edge1_Node000001_Node000002" class="edge">
<title>Node2&#45;&gt;Node1</title>
<g id="a_edge1_Node000001_Node000002"><a xlink:title=" ">
<path fill="none" stroke="#63b8ff" d="M63.92,-195.62C68.41,-178.45 74.64,-156.78 81.75,-138 82.53,-135.95 83.33,-133.88 84.17,-131.81"/>
<polygon fill="none" stroke="#63b8ff" points="84.2,-131.74 82.84,-124.65 88.85,-120.67 90.21,-127.75 84.2,-131.74"/>
</a>
</g>
<text text-anchor="middle" x="116.38" y="-162.25" font-family="Helvetica,sans-Serif" font-size="10.00" fill="grey"> +ext_tensor_in</text>
<text text-anchor="middle" x="116.38" y="-151" font-family="Helvetica,sans-Serif" font-size="10.00" fill="grey">+ext_tensor_out</text>
<text text-anchor="middle" x="116.38" y="-139.75" font-family="Helvetica,sans-Serif" font-size="10.00" fill="grey">+to_export_to</text>
</g>
<!-- Node3 -->
<g id="Node000003" class="node">
<title>Node3</title>
<g id="a_Node000003"><a xlink:href="structTTL__layout__t.html" target="_top" xlink:title="Description of a Tensor layout in memory.">
<polygon fill="white" stroke="none" points="107.5,-383.5 27.5,-383.5 27.5,-319.5 107.5,-319.5 107.5,-383.5"/>
<text text-anchor="start" x="39" y="-370" font-family="Helvetica,sans-Serif" font-size="10.00">TTL_layout_t</text>
<text text-anchor="start" x="31.5" y="-355" font-family="Helvetica,sans-Serif" font-size="10.00">+</text>
<text text-anchor="start" x="41.5" y="-355" font-family="Helvetica,sans-Serif" font-size="10.00">row_spacing</text>
<text text-anchor="start" x="31.5" y="-340" font-family="Helvetica,sans-Serif" font-size="10.00">+</text>
<text text-anchor="start" x="41.5" y="-340" font-family="Helvetica,sans-Serif" font-size="10.00">plane_spacing</text>
<text text-anchor="start" x="66" y="-325" font-family="Helvetica,sans-Serif" font-size="10.00"> </text>
<polygon fill="#666666" stroke="#666666" points="27.5,-366.5 27.5,-366.5 107.5,-366.5 107.5,-366.5 27.5,-366.5"/>
<polygon fill="#666666" stroke="#666666" points="27.5,-336.5 27.5,-336.5 39.5,-336.5 39.5,-336.5 27.5,-336.5"/>
<polygon fill="#666666" stroke="#666666" points="39.5,-336.5 39.5,-336.5 107.5,-336.5 107.5,-336.5 39.5,-336.5"/>
<polygon fill="none" stroke="#666666" points="27.5,-319.5 27.5,-383.5 107.5,-383.5 107.5,-319.5 27.5,-319.5"/>
</a>
</g>
</g>
<!-- Node3&#45;&gt;Node2 -->
<g id="edge2_Node000002_Node000003" class="edge">
<title>Node3&#45;&gt;Node2</title>
<g id="a_edge2_Node000002_Node000003"><a xlink:title=" ">
<path fill="none" stroke="#63b8ff" d="M45.69,-319.52C41.19,-311.56 37.11,-302.76 34.75,-294 32.77,-286.64 33.11,-278.89 34.73,-271.39"/>
<polygon fill="none" stroke="#63b8ff" points="34.71,-271.47 32.65,-264.56 38.24,-260 40.3,-266.91 34.71,-271.47"/>
</a>
</g>
<text text-anchor="middle" x="52.38" y="-284.5" font-family="Helvetica,sans-Serif" font-size="10.00" fill="grey"> +layout</text>
</g>
<!-- Node5 -->
<g id="Node000005" class="node">
<title>Node5</title>
<g id="a_Node000005"><a xlink:href="structTTL__const__int__short__tensor__t.html" target="_top" xlink:title=" ">
<polygon fill="white" stroke="none" points="231.5,-264.75 131.5,-264.75 131.5,-189.75 231.5,-189.75 231.5,-264.75"/>
<text text-anchor="start" x="136.5" y="-251.25" font-family="Helvetica,sans-Serif" font-size="10.00">TTL_const_int_short</text>
<text text-anchor="start" x="161.25" y="-240" font-family="Helvetica,sans-Serif" font-size="10.00">_tensor_t</text>
<text text-anchor="start" x="145" y="-225.25" font-family="Helvetica,sans-Serif" font-size="10.00">+</text>
<text text-anchor="start" x="164.5" y="-225.25" font-family="Helvetica,sans-Serif" font-size="10.00">base</text>
<text text-anchor="start" x="145" y="-210.25" font-family="Helvetica,sans-Serif" font-size="10.00">+</text>
<text text-anchor="start" x="164.5" y="-210.25" font-family="Helvetica,sans-Serif" font-size="10.00">elem_size</text>
<text text-anchor="start" x="180" y="-195.25" font-family="Helvetica,sans-Serif" font-size="10.00"> </text>
<polygon fill="#666666" stroke="#666666" points="131.5,-236.75 131.5,-236.75 231.5,-236.75 231.5,-236.75 131.5,-236.75"/>
<polygon fill="#666666" stroke="#666666" points="131.5,-206.75 131.5,-206.75 162.5,-206.75 162.5,-206.75 131.5,-206.75"/>
<polygon fill="#666666" stroke="#666666" points="162.5,-206.75 162.5,-206.75 231.5,-206.75 231.5,-206.75 162.5,-206.75"/>
<polygon fill="none" stroke="#666666" points="131.5,-189.75 131.5,-264.75 231.5,-264.75 231.5,-189.75 131.5,-189.75"/>
</a>
</g>
</g>
<!-- Node3&#45;&gt;Node5 -->
<g id="edge5_Node000005_Node000003" class="edge">
<title>Node3&#45;&gt;Node5</title>
<g id="a_edge5_Node000005_Node000003"><a xlink:title=" ">
<path fill="none" stroke="#63b8ff" d="M71.34,-319.68C74.19,-307.12 79.14,-293.15 87.75,-282.75 96.94,-271.66 104.36,-272.48 120.5,-265.17"/>
<polygon fill="none" stroke="#63b8ff" points="120.29,-265.28 123.8,-258.98 130.96,-259.8 127.45,-266.1 120.29,-265.28"/>
</a>
</g>
<text text-anchor="middle" x="104.38" y="-284.5" font-family="Helvetica,sans-Serif" font-size="10.00" fill="grey"> +layout</text>
</g>
<!-- Node4 -->
<g id="Node000004" class="node">
<title>Node4</title>
<g id="a_Node000004"><a xlink:href="structTTL__shape__t.html" target="_top" xlink:title="Description of a Shape.">
<polygon fill="white" stroke="none" points="204,-391 137,-391 137,-312 204,-312 204,-391"/>
<text text-anchor="start" x="141.62" y="-377.5" font-family="Helvetica,sans-Serif" font-size="10.00">TTL_shape_t</text>
<text text-anchor="start" x="146.5" y="-362.5" font-family="Helvetica,sans-Serif" font-size="10.00">+</text>
<text text-anchor="start" x="162" y="-362.5" font-family="Helvetica,sans-Serif" font-size="10.00">width</text>
<text text-anchor="start" x="146.5" y="-347.5" font-family="Helvetica,sans-Serif" font-size="10.00">+</text>
<text text-anchor="start" x="162" y="-347.5" font-family="Helvetica,sans-Serif" font-size="10.00">height</text>
<text text-anchor="start" x="146.5" y="-332.5" font-family="Helvetica,sans-Serif" font-size="10.00">+</text>
<text text-anchor="start" x="162" y="-332.5" font-family="Helvetica,sans-Serif" font-size="10.00">depth</text>
<text text-anchor="start" x="169" y="-317.5" font-family="Helvetica,sans-Serif" font-size="10.00"> </text>
<polygon fill="#666666" stroke="#666666" points="137,-374 137,-374 204,-374 204,-374 137,-374"/>
<polygon fill="#666666" stroke="#666666" points="137,-329 137,-329 160,-329 160,-329 137,-329"/>
<polygon fill="#666666" stroke="#666666" points="160,-329 160,-329 204,-329 204,-329 160,-329"/>
<polygon fill="none" stroke="#666666" points="137,-312 137,-391 204,-391 204,-312 137,-312"/>
</a>
</g>
</g>
<!-- Node4&#45;&gt;Node2 -->
<g id="edge3_Node000002_Node000004" class="edge">
<title>Node4&#45;&gt;Node2</title>
<g id="a_edge3_Node000002_Node000004"><a xlink:title=" ">
<path fill="none" stroke="#63b8ff" d="M147.97,-312.01C141.32,-302.01 133.63,-291.58 125.5,-282.75 120.6,-277.43 115.14,-272.21 109.51,-267.23"/>
<polygon fill="none" stroke="#63b8ff" points="109.78,-267.46 102.62,-266.63 100.62,-259.7 107.79,-260.53 109.78,-267.46"/>
</a>
</g>
<text text-anchor="middle" x="150.75" y="-284.5" font-family="Helvetica,sans-Serif" font-size="10.00" fill="grey"> +shape</text>
</g>
<!-- Node4&#45;&gt;Node5 -->
<g id="edge6_Node000005_Node000004" class="edge">
<title>Node4&#45;&gt;Node5</title>
<g id="a_edge6_Node000005_Node000004"><a xlink:title=" ">
<path fill="none" stroke="#63b8ff" d="M180.56,-312.1C181.78,-306.08 182.83,-299.9 183.5,-294 184.11,-288.64 184.42,-283.02 184.54,-277.41"/>
<polygon fill="none" stroke="#63b8ff" points="184.54,-277.4 180.5,-271.42 184.47,-265.4 188.5,-271.38 184.54,-277.4"/>
</a>
</g>
<text text-anchor="middle" x="200.75" y="-284.5" font-family="Helvetica,sans-Serif" font-size="10.00" fill="grey"> +shape</text>
</g>
<!-- Node5&#45;&gt;Node1 -->
<g id="edge4_Node000001_Node000005" class="edge">
<title>Node5&#45;&gt;Node1</title>
<g id="a_edge4_Node000001_Node000005"><a xlink:title=" ">
<path fill="none" stroke="#63b8ff" d="M169.86,-189.96C164.54,-173.93 157.99,-154.92 151.5,-138 150.71,-135.95 149.9,-133.87 149.08,-131.77"/>
<polygon fill="none" stroke="#63b8ff" points="149.02,-131.63 143.07,-127.56 144.53,-120.5 150.49,-124.57 149.02,-131.63"/>
</a>
</g>
<text text-anchor="middle" x="199.88" y="-151" font-family="Helvetica,sans-Serif" font-size="10.00" fill="grey"> +to_export_from</text>
</g>
</g>
</svg>
