<?xml version="1.0" encoding="UTF-8" standalone="no"?>
<!DOCTYPE svg PUBLIC "-//W3C//DTD SVG 1.1//EN"
 "http://www.w3.org/Graphics/SVG/1.1/DTD/svg11.dtd">
<!-- Generated by graphviz version 12.0.0 (20240704.0754)
 -->
<!-- Title: TTL_export_double_const_long_tensor_buffering_t Pages: 1 -->
<svg width="257pt" height="362pt"
 viewBox="0.00 0.00 256.50 361.75" xmlns="http://www.w3.org/2000/svg" xmlns:xlink="http://www.w3.org/1999/xlink">
<g id="graph0" class="graph" transform="scale(1 1) rotate(0) translate(4 357.75)">
<title>TTL_export_double_const_long_tensor_buffering_t</title>
<!-- Node1 -->
<g id="Node000001" class="node">
<title>Node1</title>
<g id="a_Node000001"><a xlink:title="Data required to perform double buffer pipelining.">
<polygon fill="#999999" stroke="none" points="187,-105 65,-105 65,0 187,0 187,-105"/>
<text text-anchor="start" x="69.75" y="-91.5" font-family="Helvetica,sans-Serif" font-size="10.00">TTL_export_double_const</text>
<text text-anchor="start" x="73.12" y="-80.25" font-family="Helvetica,sans-Serif" font-size="10.00">_long_tensor_buffering_t</text>
<text text-anchor="start" x="85.5" y="-65.5" font-family="Helvetica,sans-Serif" font-size="10.00">+</text>
<text text-anchor="start" x="112" y="-65.5" font-family="Helvetica,sans-Serif" font-size="10.00">index</text>
<text text-anchor="start" x="85.5" y="-50.5" font-family="Helvetica,sans-Serif" font-size="10.00">+</text>
<text text-anchor="start" x="112" y="-50.5" font-family="Helvetica,sans-Serif" font-size="10.00">int_base</text>
<text text-anchor="start" x="85.5" y="-35.5" font-family="Helvetica,sans-Serif" font-size="10.00">+</text>
<text text-anchor="start" x="112" y="-35.5" font-family="Helvetica,sans-Serif" font-size="10.00">common</text>
<text text-anchor="start" x="85.5" y="-20.5" font-family="Helvetica,sans-Serif" font-size="10.00">+</text>
<text text-anchor="start" x="112" y="-20.5" font-family="Helvetica,sans-Serif" font-size="10.00">event</text>
<text text-anchor="start" x="124.5" y="-5.5" font-family="Helvetica,sans-Serif" font-size="10.00"> </text>
<polygon fill="#666666" stroke="#666666" points="65,-77 65,-77 187,-77 187,-77 65,-77"/>
<polygon fill="#666666" stroke="#666666" points="65,-17 65,-17 110,-17 110,-17 65,-17"/>
<polygon fill="#666666" stroke="#666666" points="110,-17 110,-17 187,-17 187,-17 110,-17"/>
<polygon fill="none" stroke="#666666" points="65,0 65,-105 187,-105 187,0 65,0"/>
</a>
</g>
</g>
<!-- Node2 -->
<g id="Node000002" class="node">
<title>Node2</title>
<g id="a_Node000002"><a xlink:href="structTTL__ext__long__tensor__t.html" target="_top" xlink:title="const and non&#45;const tensors in the appropriate address space">
<polygon fill="white" stroke="none" points="131.5,-227.5 22.5,-227.5 22.5,-163.5 131.5,-163.5 131.5,-227.5"/>
<text text-anchor="start" x="27.12" y="-214" font-family="Helvetica,sans-Serif" font-size="10.00">TTL_ext_long_tensor_t</text>
<text text-anchor="start" x="38.5" y="-199" font-family="Helvetica,sans-Serif" font-size="10.00">+</text>
<text text-anchor="start" x="60.5" y="-199" font-family="Helvetica,sans-Serif" font-size="10.00">base</text>
<text text-anchor="start" x="38.5" y="-184" font-family="Helvetica,sans-Serif" font-size="10.00">+</text>
<text text-anchor="start" x="60.5" y="-184" font-family="Helvetica,sans-Serif" font-size="10.00">elem_size</text>
<text text-anchor="start" x="75.5" y="-169" font-family="Helvetica,sans-Serif" font-size="10.00"> </text>
<polygon fill="#666666" stroke="#666666" points="22.5,-210.5 22.5,-210.5 131.5,-210.5 131.5,-210.5 22.5,-210.5"/>
<polygon fill="#666666" stroke="#666666" points="22.5,-180.5 22.5,-180.5 58.5,-180.5 58.5,-180.5 22.5,-180.5"/>
<polygon fill="#666666" stroke="#666666" points="58.5,-180.5 58.5,-180.5 131.5,-180.5 131.5,-180.5 58.5,-180.5"/>
<polygon fill="none" stroke="#666666" points="22.5,-163.5 22.5,-227.5 131.5,-227.5 131.5,-163.5 22.5,-163.5"/>
</a>
</g>
</g>
<!-- Node2&#45;&gt;Node1 -->
<g id="edge1_Node000001_Node000002" class="edge">
<title>Node2&#45;&gt;Node1</title>
<g id="a_edge1_Node000001_Node000002"><a xlink:title=" ">
<path fill="none" stroke="#63b8ff" d="M76.6,-163.6C77.22,-150.77 78.99,-135.9 83.25,-123 83.94,-120.92 84.7,-118.84 85.52,-116.76"/>
<polygon fill="none" stroke="#63b8ff" points="85.53,-116.74 84.35,-109.63 90.46,-105.8 91.64,-112.91 85.53,-116.74"/>
</a>
</g>
<text text-anchor="middle" x="117.88" y="-136" font-family="Helvetica,sans-Serif" font-size="10.00" fill="grey"> +ext_tensor_in</text>
<text text-anchor="middle" x="117.88" y="-124.75" font-family="Helvetica,sans-Serif" font-size="10.00" fill="grey">+ext_tensor_out</text>
</g>
<!-- Node3 -->
<g id="Node000003" class="node">
<title>Node3</title>
<g id="a_Node000003"><a xlink:href="structTTL__layout__t.html" target="_top" xlink:title="Description of a Tensor layout in memory.">
<polygon fill="white" stroke="none" points="80,-346.25 0,-346.25 0,-282.25 80,-282.25 80,-346.25"/>
<text text-anchor="start" x="11.5" y="-332.75" font-family="Helvetica,sans-Serif" font-size="10.00">TTL_layout_t</text>
<text text-anchor="start" x="4" y="-317.75" font-family="Helvetica,sans-Serif" font-size="10.00">+</text>
<text text-anchor="start" x="14" y="-317.75" font-family="Helvetica,sans-Serif" font-size="10.00">row_spacing</text>
<text text-anchor="start" x="4" y="-302.75" font-family="Helvetica,sans-Serif" font-size="10.00">+</text>
<text text-anchor="start" x="14" y="-302.75" font-family="Helvetica,sans-Serif" font-size="10.00">plane_spacing</text>
<text text-anchor="start" x="38.5" y="-287.75" font-family="Helvetica,sans-Serif" font-size="10.00"> </text>
<polygon fill="#666666" stroke="#666666" points="0,-329.25 0,-329.25 80,-329.25 80,-329.25 0,-329.25"/>
<polygon fill="#666666" stroke="#666666" points="0,-299.25 0,-299.25 12,-299.25 12,-299.25 0,-299.25"/>
<polygon fill="#666666" stroke="#666666" points="12,-299.25 12,-299.25 80,-299.25 80,-299.25 12,-299.25"/>
<polygon fill="none" stroke="#666666" points="0,-282.25 0,-346.25 80,-346.25 80,-282.25 0,-282.25"/>
</a>
</g>
</g>
<!-- Node3&#45;&gt;Node2 -->
<g id="edge2_Node000002_Node000003" class="edge">
<title>Node3&#45;&gt;Node2</title>
<g id="a_edge2_Node000002_Node000003"><a xlink:title=" ">
<path fill="none" stroke="#63b8ff" d="M37.31,-282.57C37.22,-270.71 38.3,-257.21 42.25,-245.5 43,-243.26 43.9,-241.04 44.9,-238.84"/>
<polygon fill="none" stroke="#63b8ff" points="44.93,-238.77 44.29,-231.59 50.67,-228.23 51.32,-235.42 44.93,-238.77"/>
</a>
</g>
<text text-anchor="middle" x="58.88" y="-247.25" font-family="Helvetica,sans-Serif" font-size="10.00" fill="grey"> +layout</text>
</g>
<!-- Node4 -->
<g id="Node000004" class="node">
<title>Node4</title>
<g id="a_Node000004"><a xlink:href="structTTL__shape__t.html" target="_top" xlink:title="Description of a Shape.">
<polygon fill="white" stroke="none" points="165.5,-353.75 98.5,-353.75 98.5,-274.75 165.5,-274.75 165.5,-353.75"/>
<text text-anchor="start" x="103.12" y="-340.25" font-family="Helvetica,sans-Serif" font-size="10.00">TTL_shape_t</text>
<text text-anchor="start" x="108" y="-325.25" font-family="Helvetica,sans-Serif" font-size="10.00">+</text>
<text text-anchor="start" x="123.5" y="-325.25" font-family="Helvetica,sans-Serif" font-size="10.00">width</text>
<text text-anchor="start" x="108" y="-310.25" font-family="Helvetica,sans-Serif" font-size="10.00">+</text>
<text text-anchor="start" x="123.5" y="-310.25" font-family="Helvetica,sans-Serif" font-size="10.00">height</text>
<text text-anchor="start" x="108" y="-295.25" font-family="Helvetica,sans-Serif" font-size="10.00">+</text>
<text text-anchor="start" x="123.5" y="-295.25" font-family="Helvetica,sans-Serif" font-size="10.00">depth</text>
<text text-anchor="start" x="130.5" y="-280.25" font-family="Helvetica,sans-Serif" font-size="10.00"> </text>
<polygon fill="#666666" stroke="#666666" points="98.5,-336.75 98.5,-336.75 165.5,-336.75 165.5,-336.75 98.5,-336.75"/>
<polygon fill="#666666" stroke="#666666" points="98.5,-291.75 98.5,-291.75 121.5,-291.75 121.5,-291.75 98.5,-291.75"/>
<polygon fill="#666666" stroke="#666666" points="121.5,-291.75 121.5,-291.75 165.5,-291.75 165.5,-291.75 121.5,-291.75"/>
<polygon fill="none" stroke="#666666" points="98.5,-274.75 98.5,-353.75 165.5,-353.75 165.5,-274.75 98.5,-274.75"/>
</a>
</g>
</g>
<!-- Node4&#45;&gt;Node2 -->
<g id="edge3_Node000002_Node000004" class="edge">
<title>Node4&#45;&gt;Node2</title>
<g id="a_edge3_Node000002_Node000004"><a xlink:title=" ">
<path fill="none" stroke="#63b8ff" d="M113.99,-275.02C108.6,-263.57 102.65,-250.94 97.13,-239.22"/>
<polygon fill="none" stroke="#63b8ff" points="97.07,-239.09 90.89,-235.37 91.95,-228.24 98.13,-231.96 97.07,-239.09"/>
</a>
</g>
<text text-anchor="middle" x="121.25" y="-247.25" font-family="Helvetica,sans-Serif" font-size="10.00" fill="grey"> +shape</text>
</g>
<!-- Node5 -->
<g id="Node000005" class="node">
<title>Node5</title>
<g id="a_Node000005"><a xlink:href="structTTL__tile__t.html" target="_top" xlink:title=" ">
<polygon fill="white" stroke="none" points="204,-220 150,-220 150,-171 204,-171 204,-220"/>
<text text-anchor="start" x="154.88" y="-206.5" font-family="Helvetica,sans-Serif" font-size="10.00">TTL_tile_t</text>
<text text-anchor="start" x="175.5" y="-191.5" font-family="Helvetica,sans-Serif" font-size="10.00"> </text>
<text text-anchor="start" x="175.5" y="-176.5" font-family="Helvetica,sans-Serif" font-size="10.00"> </text>
<polygon fill="#666666" stroke="#666666" points="150,-203 150,-203 204,-203 204,-203 150,-203"/>
<polygon fill="#666666" stroke="#666666" points="150,-188 150,-188 204,-188 204,-188 150,-188"/>
<polygon fill="none" stroke="#666666" points="150,-171 150,-220 204,-220 204,-171 150,-171"/>
</a>
</g>
</g>
<!-- Node4&#45;&gt;Node5 -->
<g id="edge5_Node000005_Node000004" class="edge">
<title>Node4&#45;&gt;Node5</title>
<g id="a_edge5_Node000005_Node000004"><a xlink:title=" ">
<path fill="none" stroke="#63b8ff" d="M144.65,-275.07C148.02,-265.37 151.77,-255 155.5,-245.5 157.27,-241 159.2,-236.3 161.17,-231.67"/>
<polygon fill="none" stroke="#63b8ff" points="161.2,-231.6 159.92,-224.51 165.98,-220.6 167.26,-227.69 161.2,-231.6"/>
</a>
</g>
<text text-anchor="middle" x="172.25" y="-247.25" font-family="Helvetica,sans-Serif" font-size="10.00" fill="grey"> +shape</text>
</g>
<!-- Node5&#45;&gt;Node1 -->
<g id="edge4_Node000001_Node000005" class="edge">
<title>Node5&#45;&gt;Node1</title>
<g id="a_edge4_Node000001_Node000005"><a xlink:title=" ">
<path fill="none" stroke="#63b8ff" d="M169.49,-171.22C164.89,-157.19 158.79,-139.01 153,-123 152.26,-120.95 151.5,-118.87 150.72,-116.77"/>
<polygon fill="none" stroke="#63b8ff" points="150.7,-116.72 144.85,-112.5 146.49,-105.48 152.34,-109.7 150.7,-116.72"/>
</a>
</g>
<text text-anchor="middle" x="182.5" y="-130.38" font-family="Helvetica,sans-Serif" font-size="10.00" fill="grey"> +prev_tile</text>
</g>
<!-- Node6 -->
<g id="Node000006" class="node">
<title>Node6</title>
<g id="a_Node000006"><a xlink:href="structTTL__offset__t.html" target="_top" xlink:title="Description of the 3D offset of an object.">
<polygon fill="white" stroke="none" points="248.5,-353.75 183.5,-353.75 183.5,-274.75 248.5,-274.75 248.5,-353.75"/>
<text text-anchor="start" x="188.25" y="-340.25" font-family="Helvetica,sans-Serif" font-size="10.00">TTL_offset_t</text>
<text text-anchor="start" x="198" y="-325.25" font-family="Helvetica,sans-Serif" font-size="10.00">+</text>
<text text-anchor="start" x="218.5" y="-325.25" font-family="Helvetica,sans-Serif" font-size="10.00">x</text>
<text text-anchor="start" x="198" y="-310.25" font-family="Helvetica,sans-Serif" font-size="10.00">+</text>
<text text-anchor="start" x="218.5" y="-310.25" font-family="Helvetica,sans-Serif" font-size="10.00">y</text>
<text text-anchor="start" x="198" y="-295.25" font-family="Helvetica,sans-Serif" font-size="10.00">+</text>
<text text-anchor="start" x="218.5" y="-295.25" font-family="Helvetica,sans-Serif" font-size="10.00">z</text>
<text text-anchor="start" x="214.5" y="-280.25" font-family="Helvetica,sans-Serif" font-size="10.00"> </text>
<polygon fill="#666666" stroke="#666666" points="183.5,-336.75 183.5,-336.75 248.5,-336.75 248.5,-336.75 183.5,-336.75"/>
<polygon fill="#666666" stroke="#666666" points="183.5,-291.75 183.5,-291.75 216.5,-291.75 216.5,-291.75 183.5,-291.75"/>
<polygon fill="#666666" stroke="#666666" points="216.5,-291.75 216.5,-291.75 248.5,-291.75 248.5,-291.75 216.5,-291.75"/>
<polygon fill="none" stroke="#666666" points="183.5,-274.75 183.5,-353.75 248.5,-353.75 248.5,-274.75 183.5,-274.75"/>
</a>
</g>
</g>
<!-- Node6&#45;&gt;Node5 -->
<g id="edge6_Node000005_Node000006" class="edge">
<title>Node6&#45;&gt;Node5</title>
<g id="a_edge6_Node000005_Node000006"><a xlink:title=" ">
<path fill="none" stroke="#63b8ff" d="M203.68,-274.87C200.56,-265.27 197.19,-255 194,-245.5 192.55,-241.19 191.01,-236.67 189.48,-232.19"/>
<polygon fill="none" stroke="#63b8ff" points="189.44,-232.09 183.7,-227.73 185.52,-220.75 191.26,-225.11 189.44,-232.09"/>
</a>
</g>
<text text-anchor="middle" x="213.12" y="-247.25" font-family="Helvetica,sans-Serif" font-size="10.00" fill="grey"> +offset</text>
</g>
</g>
</svg>
