<?xml version="1.0" encoding="UTF-8" standalone="no"?>
<!DOCTYPE svg PUBLIC "-//W3C//DTD SVG 1.1//EN"
 "http://www.w3.org/Graphics/SVG/1.1/DTD/svg11.dtd">
<!-- Generated by graphviz version 12.0.0 (20240704.0754)
 -->
<!-- Title: TTL_ext_ulong_sub_tensor_t Pages: 1 -->
<svg width="277pt" height="310pt"
 viewBox="0.00 0.00 277.00 309.50" xmlns="http://www.w3.org/2000/svg" xmlns:xlink="http://www.w3.org/1999/xlink">
<g id="graph0" class="graph" transform="scale(1 1) rotate(0) translate(4 305.5)">
<title>TTL_ext_ulong_sub_tensor_t</title>
<!-- Node1 -->
<g id="Node000001" class="node">
<title>Node1</title>
<g id="a_Node000001"><a xlink:title="const and non&#45;const sub tensors in the appropriate address space">
<polygon fill="#999999" stroke="none" points="219.5,-49 83.5,-49 83.5,0 219.5,0 219.5,-49"/>
<text text-anchor="start" x="88.5" y="-35.5" font-family="Helvetica,sans-Serif" font-size="10.00">TTL_ext_ulong_sub_tensor_t</text>
<text text-anchor="start" x="111" y="-20.5" font-family="Helvetica,sans-Serif" font-size="10.00">+</text>
<text text-anchor="start" x="144.5" y="-20.5" font-family="Helvetica,sans-Serif" font-size="10.00">origin</text>
<text text-anchor="start" x="150" y="-5.5" font-family="Helvetica,sans-Serif" font-size="10.00"> </text>
<polygon fill="#666666" stroke="#666666" points="83.5,-32 83.5,-32 219.5,-32 219.5,-32 83.5,-32"/>
<polygon fill="#666666" stroke="#666666" points="83.5,-17 83.5,-17 142.5,-17 142.5,-17 83.5,-17"/>
<polygon fill="#666666" stroke="#666666" points="142.5,-17 142.5,-17 219.5,-17 219.5,-17 142.5,-17"/>
<polygon fill="none" stroke="#666666" points="83.5,0 83.5,-49 219.5,-49 219.5,0 83.5,0"/>
</a>
</g>
</g>
<!-- Node2 -->
<g id="Node000002" class="node">
<title>Node2</title>
<g id="a_Node000002"><a xlink:href="structTTL__ext__ulong__tensor__t.html" target="_top" xlink:title="const and non&#45;const tensors in the appropriate address space">
<polygon fill="white" stroke="none" points="115,-167.75 0,-167.75 0,-103.75 115,-103.75 115,-167.75"/>
<text text-anchor="start" x="5" y="-154.25" font-family="Helvetica,sans-Serif" font-size="10.00">TTL_ext_ulong_tensor_t</text>
<text text-anchor="start" x="17.5" y="-139.25" font-family="Helvetica,sans-Serif" font-size="10.00">+</text>
<text text-anchor="start" x="41" y="-139.25" font-family="Helvetica,sans-Serif" font-size="10.00">base</text>
<text text-anchor="start" x="17.5" y="-124.25" font-family="Helvetica,sans-Serif" font-size="10.00">+</text>
<text text-anchor="start" x="41" y="-124.25" font-family="Helvetica,sans-Serif" font-size="10.00">elem_size</text>
<text text-anchor="start" x="56" y="-109.25" font-family="Helvetica,sans-Serif" font-size="10.00"> </text>
<polygon fill="#666666" stroke="#666666" points="0,-150.75 0,-150.75 115,-150.75 115,-150.75 0,-150.75"/>
<polygon fill="#666666" stroke="#666666" points="0,-120.75 0,-120.75 39,-120.75 39,-120.75 0,-120.75"/>
<polygon fill="#666666" stroke="#666666" points="39,-120.75 39,-120.75 115,-120.75 115,-120.75 39,-120.75"/>
<polygon fill="none" stroke="#666666" points="0,-103.75 0,-167.75 115,-167.75 115,-103.75 0,-103.75"/>
</a>
</g>
</g>
<!-- Node2&#45;&gt;Node1 -->
<g id="edge1_Node000001_Node000002" class="edge">
<title>Node2&#45;&gt;Node1</title>
<g id="a_edge1_Node000001_Node000002"><a xlink:title=" ">
<path fill="none" stroke="#63b8ff" d="M75.14,-104.06C82.76,-91.95 92.22,-78.27 102.25,-67 105.16,-63.73 108.34,-60.48 111.63,-57.34"/>
<polygon fill="none" stroke="#63b8ff" points="111.51,-57.44 113.27,-50.45 120.4,-49.39 118.64,-56.38 111.51,-57.44"/>
</a>
</g>
<text text-anchor="middle" x="120.12" y="-68.75" font-family="Helvetica,sans-Serif" font-size="10.00" fill="grey"> +tensor</text>
</g>
<!-- Node3 -->
<g id="Node000003" class="node">
<title>Node3</title>
<g id="a_Node000003"><a xlink:href="structTTL__layout__t.html" target="_top" xlink:title="Description of a Tensor layout in memory.">
<polygon fill="white" stroke="none" points="84.5,-294 4.5,-294 4.5,-230 84.5,-230 84.5,-294"/>
<text text-anchor="start" x="16" y="-280.5" font-family="Helvetica,sans-Serif" font-size="10.00">TTL_layout_t</text>
<text text-anchor="start" x="8.5" y="-265.5" font-family="Helvetica,sans-Serif" font-size="10.00">+</text>
<text text-anchor="start" x="18.5" y="-265.5" font-family="Helvetica,sans-Serif" font-size="10.00">row_spacing</text>
<text text-anchor="start" x="8.5" y="-250.5" font-family="Helvetica,sans-Serif" font-size="10.00">+</text>
<text text-anchor="start" x="18.5" y="-250.5" font-family="Helvetica,sans-Serif" font-size="10.00">plane_spacing</text>
<text text-anchor="start" x="43" y="-235.5" font-family="Helvetica,sans-Serif" font-size="10.00"> </text>
<polygon fill="#666666" stroke="#666666" points="4.5,-277 4.5,-277 84.5,-277 84.5,-277 4.5,-277"/>
<polygon fill="#666666" stroke="#666666" points="4.5,-247 4.5,-247 16.5,-247 16.5,-247 4.5,-247"/>
<polygon fill="#666666" stroke="#666666" points="16.5,-247 16.5,-247 84.5,-247 84.5,-247 16.5,-247"/>
<polygon fill="none" stroke="#666666" points="4.5,-230 4.5,-294 84.5,-294 84.5,-230 4.5,-230"/>
</a>
</g>
</g>
<!-- Node3&#45;&gt;Node2 -->
<g id="edge2_Node000002_Node000003" class="edge">
<title>Node3&#45;&gt;Node2</title>
<g id="a_edge2_Node000002_Node000003"><a xlink:title=" ">
<path fill="none" stroke="#63b8ff" d="M43.86,-230.23C43.93,-218.61 44.4,-205.29 45.75,-193.25 46.22,-189.07 46.85,-184.74 47.58,-180.42"/>
<polygon fill="none" stroke="#63b8ff" points="47.59,-180.34 44.78,-173.71 49.82,-168.55 52.64,-175.19 47.59,-180.34"/>
</a>
</g>
<text text-anchor="middle" x="63.38" y="-195" font-family="Helvetica,sans-Serif" font-size="10.00" fill="grey"> +layout</text>
</g>
<!-- Node4 -->
<g id="Node000004" class="node">
<title>Node4</title>
<g id="a_Node000004"><a xlink:href="structTTL__shape__t.html" target="_top" xlink:title="Description of a Shape.">
<polygon fill="white" stroke="none" points="177,-301.5 110,-301.5 110,-222.5 177,-222.5 177,-301.5"/>
<text text-anchor="start" x="114.62" y="-288" font-family="Helvetica,sans-Serif" font-size="10.00">TTL_shape_t</text>
<text text-anchor="start" x="119.5" y="-273" font-family="Helvetica,sans-Serif" font-size="10.00">+</text>
<text text-anchor="start" x="135" y="-273" font-family="Helvetica,sans-Serif" font-size="10.00">width</text>
<text text-anchor="start" x="119.5" y="-258" font-family="Helvetica,sans-Serif" font-size="10.00">+</text>
<text text-anchor="start" x="135" y="-258" font-family="Helvetica,sans-Serif" font-size="10.00">height</text>
<text text-anchor="start" x="119.5" y="-243" font-family="Helvetica,sans-Serif" font-size="10.00">+</text>
<text text-anchor="start" x="135" y="-243" font-family="Helvetica,sans-Serif" font-size="10.00">depth</text>
<text text-anchor="start" x="142" y="-228" font-family="Helvetica,sans-Serif" font-size="10.00"> </text>
<polygon fill="#666666" stroke="#666666" points="110,-284.5 110,-284.5 177,-284.5 177,-284.5 110,-284.5"/>
<polygon fill="#666666" stroke="#666666" points="110,-239.5 110,-239.5 133,-239.5 133,-239.5 110,-239.5"/>
<polygon fill="#666666" stroke="#666666" points="133,-239.5 133,-239.5 177,-239.5 177,-239.5 133,-239.5"/>
<polygon fill="none" stroke="#666666" points="110,-222.5 110,-301.5 177,-301.5 177,-222.5 110,-222.5"/>
</a>
</g>
</g>
<!-- Node4&#45;&gt;Node1 -->
<g id="edge4_Node000001_Node000004" class="edge">
<title>Node4&#45;&gt;Node1</title>
<g id="a_edge4_Node000001_Node000004"><a xlink:title=" ">
<path fill="none" stroke="#63b8ff" d="M144.8,-222.64C146.32,-178.09 148.79,-105.15 150.27,-61.59"/>
<polygon fill="none" stroke="#63b8ff" points="150.27,-61.71 146.48,-55.58 150.68,-49.72 154.47,-55.85 150.27,-61.71"/>
</a>
</g>
<text text-anchor="middle" x="166.75" y="-131.88" font-family="Helvetica,sans-Serif" font-size="10.00" fill="grey"> +shape</text>
</g>
<!-- Node4&#45;&gt;Node2 -->
<g id="edge3_Node000002_Node000004" class="edge">
<title>Node4&#45;&gt;Node2</title>
<g id="a_edge3_Node000002_Node000004"><a xlink:title=" ">
<path fill="none" stroke="#63b8ff" d="M115.67,-222.51C111.4,-216.5 107.06,-210.35 103,-204.5 97.15,-196.07 90.97,-186.99 85.11,-178.3"/>
<polygon fill="none" stroke="#63b8ff" points="85.1,-178.29 78.44,-175.53 78.42,-168.32 85.08,-171.08 85.1,-178.29"/>
</a>
</g>
<text text-anchor="middle" x="120.75" y="-195" font-family="Helvetica,sans-Serif" font-size="10.00" fill="grey"> +shape</text>
</g>
<!-- Node5 -->
<g id="Node000005" class="node">
<title>Node5</title>
<g id="a_Node000005"><a xlink:href="structTTL__offset__t.html" target="_top" xlink:title="Description of the 3D offset of an object.">
<polygon fill="white" stroke="none" points="269,-175.25 204,-175.25 204,-96.25 269,-96.25 269,-175.25"/>
<text text-anchor="start" x="208.75" y="-161.75" font-family="Helvetica,sans-Serif" font-size="10.00">TTL_offset_t</text>
<text text-anchor="start" x="218.5" y="-146.75" font-family="Helvetica,sans-Serif" font-size="10.00">+</text>
<text text-anchor="start" x="239" y="-146.75" font-family="Helvetica,sans-Serif" font-size="10.00">x</text>
<text text-anchor="start" x="218.5" y="-131.75" font-family="Helvetica,sans-Serif" font-size="10.00">+</text>
<text text-anchor="start" x="239" y="-131.75" font-family="Helvetica,sans-Serif" font-size="10.00">y</text>
<text text-anchor="start" x="218.5" y="-116.75" font-family="Helvetica,sans-Serif" font-size="10.00">+</text>
<text text-anchor="start" x="239" y="-116.75" font-family="Helvetica,sans-Serif" font-size="10.00">z</text>
<text text-anchor="start" x="235" y="-101.75" font-family="Helvetica,sans-Serif" font-size="10.00"> </text>
<polygon fill="#666666" stroke="#666666" points="204,-158.25 204,-158.25 269,-158.25 269,-158.25 204,-158.25"/>
<polygon fill="#666666" stroke="#666666" points="204,-113.25 204,-113.25 237,-113.25 237,-113.25 204,-113.25"/>
<polygon fill="#666666" stroke="#666666" points="237,-113.25 237,-113.25 269,-113.25 269,-113.25 237,-113.25"/>
<polygon fill="none" stroke="#666666" points="204,-96.25 204,-175.25 269,-175.25 269,-96.25 204,-96.25"/>
</a>
</g>
</g>
<!-- Node5&#45;&gt;Node1 -->
<g id="edge5_Node000001_Node000005" class="edge">
<title>Node5&#45;&gt;Node1</title>
<g id="a_edge5_Node000001_Node000005"><a xlink:title=" ">
<path fill="none" stroke="#63b8ff" d="M206.77,-96.54C197.22,-84.26 186.72,-70.76 177.46,-58.86"/>
<polygon fill="none" stroke="#63b8ff" points="177.61,-59.06 170.77,-56.79 170.25,-49.59 177.09,-51.87 177.61,-59.06"/>
</a>
</g>
<text text-anchor="middle" x="217.12" y="-68.75" font-family="Helvetica,sans-Serif" font-size="10.00" fill="grey"> +sub_offset</text>
</g>
</g>
</svg>
