<?xml version="1.0" encoding="UTF-8" standalone="no"?>
<!DOCTYPE svg PUBLIC "-//W3C//DTD SVG 1.1//EN"
 "http://www.w3.org/Graphics/SVG/1.1/DTD/svg11.dtd">
<!-- Generated by graphviz version 12.0.0 (20240704.0754)
 -->
<!-- Title: TTL_const_int_int_sub_tensor_t Pages: 1 -->
<svg width="291pt" height="321pt"
 viewBox="0.00 0.00 291.00 320.50" xmlns="http://www.w3.org/2000/svg" xmlns:xlink="http://www.w3.org/1999/xlink">
<g id="graph0" class="graph" transform="scale(1 1) rotate(0) translate(4 316.5)">
<title>TTL_const_int_int_sub_tensor_t</title>
<!-- Node1 -->
<g id="Node000001" class="node">
<title>Node1</title>
<g id="a_Node000001"><a xlink:title=" ">
<polygon fill="#999999" stroke="none" points="220,-60 111,-60 111,0 220,0 220,-60"/>
<text text-anchor="start" x="115.62" y="-46.5" font-family="Helvetica,sans-Serif" font-size="10.00">TTL_const_int_int_sub</text>
<text text-anchor="start" x="145.25" y="-35.25" font-family="Helvetica,sans-Serif" font-size="10.00">_tensor_t</text>
<text text-anchor="start" x="132" y="-20.5" font-family="Helvetica,sans-Serif" font-size="10.00">+</text>
<text text-anchor="start" x="159" y="-20.5" font-family="Helvetica,sans-Serif" font-size="10.00">origin</text>
<text text-anchor="start" x="164" y="-5.5" font-family="Helvetica,sans-Serif" font-size="10.00"> </text>
<polygon fill="#666666" stroke="#666666" points="111,-32 111,-32 220,-32 220,-32 111,-32"/>
<polygon fill="#666666" stroke="#666666" points="111,-17 111,-17 157,-17 157,-17 111,-17"/>
<polygon fill="#666666" stroke="#666666" points="157,-17 157,-17 220,-17 220,-17 157,-17"/>
<polygon fill="none" stroke="#666666" points="111,0 111,-60 220,-60 220,0 111,0"/>
</a>
</g>
</g>
<!-- Node2 -->
<g id="Node000002" class="node">
<title>Node2</title>
<g id="a_Node000002"><a xlink:href="structTTL__const__int__int__tensor__t.html" target="_top" xlink:title=" ">
<polygon fill="white" stroke="none" points="129,-178.75 0,-178.75 0,-114.75 129,-114.75 129,-178.75"/>
<text text-anchor="start" x="4.88" y="-165.25" font-family="Helvetica,sans-Serif" font-size="10.00">TTL_const_int_int_tensor_t</text>
<text text-anchor="start" x="21" y="-150.25" font-family="Helvetica,sans-Serif" font-size="10.00">+</text>
<text text-anchor="start" x="48" y="-150.25" font-family="Helvetica,sans-Serif" font-size="10.00">base</text>
<text text-anchor="start" x="21" y="-135.25" font-family="Helvetica,sans-Serif" font-size="10.00">+</text>
<text text-anchor="start" x="48" y="-135.25" font-family="Helvetica,sans-Serif" font-size="10.00">elem_size</text>
<text text-anchor="start" x="63" y="-120.25" font-family="Helvetica,sans-Serif" font-size="10.00"> </text>
<polygon fill="#666666" stroke="#666666" points="0,-161.75 0,-161.75 129,-161.75 129,-161.75 0,-161.75"/>
<polygon fill="#666666" stroke="#666666" points="0,-131.75 0,-131.75 46,-131.75 46,-131.75 0,-131.75"/>
<polygon fill="#666666" stroke="#666666" points="46,-131.75 46,-131.75 129,-131.75 129,-131.75 46,-131.75"/>
<polygon fill="none" stroke="#666666" points="0,-114.75 0,-178.75 129,-178.75 129,-114.75 0,-114.75"/>
</a>
</g>
</g>
<!-- Node2&#45;&gt;Node1 -->
<g id="edge1_Node000001_Node000002" class="edge">
<title>Node2&#45;&gt;Node1</title>
<g id="a_edge1_Node000001_Node000002"><a xlink:title=" ">
<path fill="none" stroke="#63b8ff" d="M86.45,-114.92C95.31,-103.05 105.88,-89.58 116.25,-78 118.97,-74.96 121.85,-71.89 124.8,-68.85"/>
<polygon fill="none" stroke="#63b8ff" points="124.65,-69 126.06,-61.93 133.13,-60.51 131.72,-67.58 124.65,-69"/>
</a>
</g>
<text text-anchor="middle" x="134.12" y="-79.75" font-family="Helvetica,sans-Serif" font-size="10.00" fill="grey"> +tensor</text>
</g>
<!-- Node3 -->
<g id="Node000003" class="node">
<title>Node3</title>
<g id="a_Node000003"><a xlink:href="structTTL__layout__t.html" target="_top" xlink:title="Description of a Tensor layout in memory.">
<polygon fill="white" stroke="none" points="98.5,-305 18.5,-305 18.5,-241 98.5,-241 98.5,-305"/>
<text text-anchor="start" x="30" y="-291.5" font-family="Helvetica,sans-Serif" font-size="10.00">TTL_layout_t</text>
<text text-anchor="start" x="22.5" y="-276.5" font-family="Helvetica,sans-Serif" font-size="10.00">+</text>
<text text-anchor="start" x="32.5" y="-276.5" font-family="Helvetica,sans-Serif" font-size="10.00">row_spacing</text>
<text text-anchor="start" x="22.5" y="-261.5" font-family="Helvetica,sans-Serif" font-size="10.00">+</text>
<text text-anchor="start" x="32.5" y="-261.5" font-family="Helvetica,sans-Serif" font-size="10.00">plane_spacing</text>
<text text-anchor="start" x="57" y="-246.5" font-family="Helvetica,sans-Serif" font-size="10.00"> </text>
<polygon fill="#666666" stroke="#666666" points="18.5,-288 18.5,-288 98.5,-288 98.5,-288 18.5,-288"/>
<polygon fill="#666666" stroke="#666666" points="18.5,-258 18.5,-258 30.5,-258 30.5,-258 18.5,-258"/>
<polygon fill="#666666" stroke="#666666" points="30.5,-258 30.5,-258 98.5,-258 98.5,-258 30.5,-258"/>
<polygon fill="none" stroke="#666666" points="18.5,-241 18.5,-305 98.5,-305 98.5,-241 18.5,-241"/>
</a>
</g>
</g>
<!-- Node3&#45;&gt;Node2 -->
<g id="edge2_Node000002_Node000003" class="edge">
<title>Node3&#45;&gt;Node2</title>
<g id="a_edge2_Node000002_Node000003"><a xlink:title=" ">
<path fill="none" stroke="#63b8ff" d="M58.64,-241.29C58.81,-229.68 59.13,-216.35 59.75,-204.25 59.96,-200.07 60.24,-195.72 60.55,-191.38"/>
<polygon fill="none" stroke="#63b8ff" points="60.55,-191.38 57.02,-185.09 61.48,-179.41 65,-185.71 60.55,-191.38"/>
</a>
</g>
<text text-anchor="middle" x="77.38" y="-206" font-family="Helvetica,sans-Serif" font-size="10.00" fill="grey"> +layout</text>
</g>
<!-- Node4 -->
<g id="Node000004" class="node">
<title>Node4</title>
<g id="a_Node000004"><a xlink:href="structTTL__shape__t.html" target="_top" xlink:title="Description of a Shape.">
<polygon fill="white" stroke="none" points="191,-312.5 124,-312.5 124,-233.5 191,-233.5 191,-312.5"/>
<text text-anchor="start" x="128.62" y="-299" font-family="Helvetica,sans-Serif" font-size="10.00">TTL_shape_t</text>
<text text-anchor="start" x="133.5" y="-284" font-family="Helvetica,sans-Serif" font-size="10.00">+</text>
<text text-anchor="start" x="149" y="-284" font-family="Helvetica,sans-Serif" font-size="10.00">width</text>
<text text-anchor="start" x="133.5" y="-269" font-family="Helvetica,sans-Serif" font-size="10.00">+</text>
<text text-anchor="start" x="149" y="-269" font-family="Helvetica,sans-Serif" font-size="10.00">height</text>
<text text-anchor="start" x="133.5" y="-254" font-family="Helvetica,sans-Serif" font-size="10.00">+</text>
<text text-anchor="start" x="149" y="-254" font-family="Helvetica,sans-Serif" font-size="10.00">depth</text>
<text text-anchor="start" x="156" y="-239" font-family="Helvetica,sans-Serif" font-size="10.00"> </text>
<polygon fill="#666666" stroke="#666666" points="124,-295.5 124,-295.5 191,-295.5 191,-295.5 124,-295.5"/>
<polygon fill="#666666" stroke="#666666" points="124,-250.5 124,-250.5 147,-250.5 147,-250.5 124,-250.5"/>
<polygon fill="#666666" stroke="#666666" points="147,-250.5 147,-250.5 191,-250.5 191,-250.5 147,-250.5"/>
<polygon fill="none" stroke="#666666" points="124,-233.5 124,-312.5 191,-312.5 191,-233.5 124,-233.5"/>
</a>
</g>
</g>
<!-- Node4&#45;&gt;Node1 -->
<g id="edge4_Node000001_Node000004" class="edge">
<title>Node4&#45;&gt;Node1</title>
<g id="a_edge4_Node000001_Node000004"><a xlink:title=" ">
<path fill="none" stroke="#63b8ff" d="M158.78,-233.55C160.23,-189.61 162.61,-117.97 164.12,-72.72"/>
<polygon fill="none" stroke="#63b8ff" points="164.11,-72.76 160.32,-66.63 164.51,-60.76 168.31,-66.89 164.11,-72.76"/>
</a>
</g>
<text text-anchor="middle" x="180.75" y="-142.88" font-family="Helvetica,sans-Serif" font-size="10.00" fill="grey"> +shape</text>
</g>
<!-- Node4&#45;&gt;Node2 -->
<g id="edge3_Node000002_Node000004" class="edge">
<title>Node4&#45;&gt;Node2</title>
<g id="a_edge3_Node000002_Node000004"><a xlink:title=" ">
<path fill="none" stroke="#63b8ff" d="M128.84,-233.71C118.19,-219.48 106.07,-203.28 95.24,-188.81"/>
<polygon fill="none" stroke="#63b8ff" points="95.35,-188.97 88.55,-186.56 88.16,-179.36 94.96,-181.77 95.35,-188.97"/>
</a>
</g>
<text text-anchor="middle" x="131.75" y="-206" font-family="Helvetica,sans-Serif" font-size="10.00" fill="grey"> +shape</text>
</g>
<!-- Node5 -->
<g id="Node000005" class="node">
<title>Node5</title>
<g id="a_Node000005"><a xlink:href="structTTL__offset__t.html" target="_top" xlink:title="Description of the 3D offset of an object.">
<polygon fill="white" stroke="none" points="283,-186.25 218,-186.25 218,-107.25 283,-107.25 283,-186.25"/>
<text text-anchor="start" x="222.75" y="-172.75" font-family="Helvetica,sans-Serif" font-size="10.00">TTL_offset_t</text>
<text text-anchor="start" x="232.5" y="-157.75" font-family="Helvetica,sans-Serif" font-size="10.00">+</text>
<text text-anchor="start" x="253" y="-157.75" font-family="Helvetica,sans-Serif" font-size="10.00">x</text>
<text text-anchor="start" x="232.5" y="-142.75" font-family="Helvetica,sans-Serif" font-size="10.00">+</text>
<text text-anchor="start" x="253" y="-142.75" font-family="Helvetica,sans-Serif" font-size="10.00">y</text>
<text text-anchor="start" x="232.5" y="-127.75" font-family="Helvetica,sans-Serif" font-size="10.00">+</text>
<text text-anchor="start" x="253" y="-127.75" font-family="Helvetica,sans-Serif" font-size="10.00">z</text>
<text text-anchor="start" x="249" y="-112.75" font-family="Helvetica,sans-Serif" font-size="10.00"> </text>
<polygon fill="#666666" stroke="#666666" points="218,-169.25 218,-169.25 283,-169.25 283,-169.25 218,-169.25"/>
<polygon fill="#666666" stroke="#666666" points="218,-124.25 218,-124.25 251,-124.25 251,-124.25 218,-124.25"/>
<polygon fill="#666666" stroke="#666666" points="251,-124.25 251,-124.25 283,-124.25 283,-124.25 251,-124.25"/>
<polygon fill="none" stroke="#666666" points="218,-107.25 218,-186.25 283,-186.25 283,-107.25 218,-107.25"/>
</a>
</g>
</g>
<!-- Node5&#45;&gt;Node1 -->
<g id="edge5_Node000001_Node000005" class="edge">
<title>Node5&#45;&gt;Node1</title>
<g id="a_edge5_Node000001_Node000005"><a xlink:title=" ">
<path fill="none" stroke="#63b8ff" d="M222.2,-107.54C213.31,-95.54 203.48,-82.27 194.54,-70.2"/>
<polygon fill="none" stroke="#63b8ff" points="194.64,-70.33 187.85,-67.89 187.49,-60.69 194.28,-63.13 194.64,-70.33"/>
</a>
</g>
<text text-anchor="middle" x="234.12" y="-79.75" font-family="Helvetica,sans-Serif" font-size="10.00" fill="grey"> +sub_offset</text>
</g>
</g>
</svg>
