<?xml version="1.0" encoding="UTF-8" standalone="no"?>
<!DOCTYPE svg PUBLIC "-//W3C//DTD SVG 1.1//EN"
 "http://www.w3.org/Graphics/SVG/1.1/DTD/svg11.dtd">
<!-- Generated by graphviz version 12.2.1 (20241206.2353)
 -->
<!-- Title: TTL_const_int_uint_sub_tensor_t Pages: 1 -->
<svg width="271pt" height="324pt"
 viewBox="0.00 0.00 270.88 324.00" xmlns="http://www.w3.org/2000/svg" xmlns:xlink="http://www.w3.org/1999/xlink">
<g id="graph0" class="graph" transform="scale(1 1) rotate(0) translate(4 320)">
<title>TTL_const_int_uint_sub_tensor_t</title>
<!-- Node1 -->
<g id="Node000001" class="node">
<title>Node1</title>
<g id="a_Node000001"><a xlink:title=" ">
<polygon fill="#999999" stroke="none" points="193.12,-61 101.12,-61 101.12,0 193.12,0 193.12,-61"/>
<text text-anchor="start" x="105.12" y="-47.5" font-family="Helvetica,sans-Serif" font-size="10.00">TTL_const_int_uint</text>
<text text-anchor="start" x="116.38" y="-36.25" font-family="Helvetica,sans-Serif" font-size="10.00">_sub_tensor_t</text>
<text text-anchor="start" x="117.81" y="-21" font-family="Helvetica,sans-Serif" font-size="10.00">+</text>
<text text-anchor="start" x="140.5" y="-21" font-family="Helvetica,sans-Serif" font-size="10.00">origin</text>
<text text-anchor="start" x="145.62" y="-5.75" font-family="Helvetica,sans-Serif" font-size="10.00"> </text>
<polygon fill="#666666" stroke="#666666" points="101.12,-32.5 101.12,-32.5 193.12,-32.5 193.12,-32.5 101.12,-32.5"/>
<polygon fill="#666666" stroke="#666666" points="101.12,-17.25 101.12,-17.25 138.5,-17.25 138.5,-17.25 101.12,-17.25"/>
<polygon fill="#666666" stroke="#666666" points="138.5,-17.25 138.5,-17.25 193.12,-17.25 193.12,-17.25 138.5,-17.25"/>
<polygon fill="none" stroke="#666666" points="101.12,0 101.12,-61 193.12,-61 193.12,0 101.12,0"/>
</a>
</g>
</g>
<!-- Node2 -->
<g id="Node000002" class="node">
<title>Node2</title>
<g id="a_Node000002"><a xlink:href="structTTL__const__int__uint__tensor__t.html" target="_top" xlink:title=" ">
<polygon fill="white" stroke="none" points="111.12,-186.5 19.12,-186.5 19.12,-110.25 111.12,-110.25 111.12,-186.5"/>
<text text-anchor="start" x="23.12" y="-173" font-family="Helvetica,sans-Serif" font-size="10.00">TTL_const_int_uint</text>
<text text-anchor="start" x="44.88" y="-161.75" font-family="Helvetica,sans-Serif" font-size="10.00">_tensor_t</text>
<text text-anchor="start" x="30.75" y="-146.5" font-family="Helvetica,sans-Serif" font-size="10.00">+</text>
<text text-anchor="start" x="48.38" y="-146.5" font-family="Helvetica,sans-Serif" font-size="10.00">base</text>
<text text-anchor="start" x="30.75" y="-131.25" font-family="Helvetica,sans-Serif" font-size="10.00">+</text>
<text text-anchor="start" x="48.38" y="-131.25" font-family="Helvetica,sans-Serif" font-size="10.00">elem_size</text>
<text text-anchor="start" x="63.62" y="-116" font-family="Helvetica,sans-Serif" font-size="10.00"> </text>
<polygon fill="#666666" stroke="#666666" points="19.12,-158 19.12,-158 111.12,-158 111.12,-158 19.12,-158"/>
<polygon fill="#666666" stroke="#666666" points="19.12,-127.5 19.12,-127.5 46.38,-127.5 46.38,-127.5 19.12,-127.5"/>
<polygon fill="#666666" stroke="#666666" points="46.38,-127.5 46.38,-127.5 111.12,-127.5 111.12,-127.5 46.38,-127.5"/>
<polygon fill="none" stroke="#666666" points="19.12,-110.25 19.12,-186.5 111.12,-186.5 111.12,-110.25 19.12,-110.25"/>
</a>
</g>
</g>
<!-- Node2&#45;&gt;Node1 -->
<g id="edge1_Node000001_Node000002" class="edge">
<title>Node2&#45;&gt;Node1</title>
<g id="a_edge1_Node000001_Node000002"><a xlink:title=" ">
<path fill="none" stroke="#63b8ff" d="M79.83,-110.53C84.84,-99.91 90.94,-88.61 97.88,-79 99.99,-76.06 102.3,-73.16 104.73,-70.31"/>
<polygon fill="none" stroke="#63b8ff" points="104.62,-70.43 105.72,-63.3 112.72,-61.58 111.62,-68.7 104.62,-70.43"/>
</a>
</g>
<text text-anchor="middle" x="115.5" y="-80.75" font-family="Helvetica,sans-Serif" font-size="10.00" fill="grey"> +tensor</text>
</g>
<!-- Node3 -->
<g id="Node000003" class="node">
<title>Node3</title>
<g id="a_Node000003"><a xlink:href="structTTL__layout__t.html" target="_top" xlink:title="Description of a Tensor layout in memory.">
<polygon fill="white" stroke="none" points="80.25,-308.38 0,-308.38 0,-243.38 80.25,-243.38 80.25,-308.38"/>
<text text-anchor="start" x="11.62" y="-294.88" font-family="Helvetica,sans-Serif" font-size="10.00">TTL_layout_t</text>
<text text-anchor="start" x="4" y="-279.62" font-family="Helvetica,sans-Serif" font-size="10.00">+</text>
<text text-anchor="start" x="14" y="-279.62" font-family="Helvetica,sans-Serif" font-size="10.00">row_spacing</text>
<text text-anchor="start" x="4" y="-264.38" font-family="Helvetica,sans-Serif" font-size="10.00">+</text>
<text text-anchor="start" x="14" y="-264.38" font-family="Helvetica,sans-Serif" font-size="10.00">plane_spacing</text>
<text text-anchor="start" x="38.62" y="-249.12" font-family="Helvetica,sans-Serif" font-size="10.00"> </text>
<polygon fill="#666666" stroke="#666666" points="0,-291.12 0,-291.12 80.25,-291.12 80.25,-291.12 0,-291.12"/>
<polygon fill="#666666" stroke="#666666" points="0,-260.62 0,-260.62 12,-260.62 12,-260.62 0,-260.62"/>
<polygon fill="#666666" stroke="#666666" points="12,-260.62 12,-260.62 80.25,-260.62 80.25,-260.62 12,-260.62"/>
<polygon fill="none" stroke="#666666" points="0,-243.38 0,-308.38 80.25,-308.38 80.25,-243.38 0,-243.38"/>
</a>
</g>
</g>
<!-- Node3&#45;&gt;Node2 -->
<g id="edge2_Node000002_Node000003" class="edge">
<title>Node3&#45;&gt;Node2</title>
<g id="a_edge2_Node000002_Node000003"><a xlink:title=" ">
<path fill="none" stroke="#63b8ff" d="M38.25,-243.63C38.18,-231.88 38.87,-218.47 41.38,-206.5 41.92,-203.87 42.59,-201.21 43.35,-198.55"/>
<polygon fill="none" stroke="#63b8ff" points="43.38,-198.46 41.48,-191.5 47.18,-187.08 49.07,-194.03 43.38,-198.46"/>
</a>
</g>
<text text-anchor="middle" x="58.25" y="-208.25" font-family="Helvetica,sans-Serif" font-size="10.00" fill="grey"> +layout</text>
</g>
<!-- Node4 -->
<g id="Node000004" class="node">
<title>Node4</title>
<g id="a_Node000004"><a xlink:href="structTTL__shape__t.html" target="_top" xlink:title="Description of a Shape.">
<polygon fill="white" stroke="none" points="172,-316 106.25,-316 106.25,-235.75 172,-235.75 172,-316"/>
<text text-anchor="start" x="110.25" y="-302.5" font-family="Helvetica,sans-Serif" font-size="10.00">TTL_shape_t</text>
<text text-anchor="start" x="115.62" y="-287.25" font-family="Helvetica,sans-Serif" font-size="10.00">+</text>
<text text-anchor="start" x="131" y="-287.25" font-family="Helvetica,sans-Serif" font-size="10.00">width</text>
<text text-anchor="start" x="115.62" y="-272" font-family="Helvetica,sans-Serif" font-size="10.00">+</text>
<text text-anchor="start" x="131" y="-272" font-family="Helvetica,sans-Serif" font-size="10.00">height</text>
<text text-anchor="start" x="115.62" y="-256.75" font-family="Helvetica,sans-Serif" font-size="10.00">+</text>
<text text-anchor="start" x="131" y="-256.75" font-family="Helvetica,sans-Serif" font-size="10.00">depth</text>
<text text-anchor="start" x="137.62" y="-241.5" font-family="Helvetica,sans-Serif" font-size="10.00"> </text>
<polygon fill="#666666" stroke="#666666" points="106.25,-298.75 106.25,-298.75 172,-298.75 172,-298.75 106.25,-298.75"/>
<polygon fill="#666666" stroke="#666666" points="106.25,-253 106.25,-253 129,-253 129,-253 106.25,-253"/>
<polygon fill="#666666" stroke="#666666" points="129,-253 129,-253 172,-253 172,-253 129,-253"/>
<polygon fill="none" stroke="#666666" points="106.25,-235.75 106.25,-316 172,-316 172,-235.75 106.25,-235.75"/>
</a>
</g>
</g>
<!-- Node4&#45;&gt;Node1 -->
<g id="edge4_Node000001_Node000004" class="edge">
<title>Node4&#45;&gt;Node1</title>
<g id="a_edge4_Node000001_Node000004"><a xlink:title=" ">
<path fill="none" stroke="#63b8ff" d="M140.41,-235.77C141.87,-191.47 144.23,-119.53 145.73,-73.91"/>
<polygon fill="none" stroke="#63b8ff" points="145.73,-73.83 141.93,-67.7 146.13,-61.84 149.93,-67.97 145.73,-73.83"/>
</a>
</g>
<text text-anchor="middle" x="161.81" y="-144.5" font-family="Helvetica,sans-Serif" font-size="10.00" fill="grey"> +shape</text>
</g>
<!-- Node4&#45;&gt;Node2 -->
<g id="edge3_Node000002_Node000004" class="edge">
<title>Node4&#45;&gt;Node2</title>
<g id="a_edge3_Node000002_Node000004"><a xlink:title=" ">
<path fill="none" stroke="#63b8ff" d="M110.17,-235.78C106.14,-229.84 102.16,-223.71 98.62,-217.75 94.82,-211.34 91.06,-204.44 87.52,-197.58"/>
<polygon fill="none" stroke="#63b8ff" points="87.57,-197.68 81.31,-194.11 82.2,-186.95 88.46,-190.52 87.57,-197.68"/>
</a>
</g>
<text text-anchor="middle" x="115.88" y="-208.25" font-family="Helvetica,sans-Serif" font-size="10.00" fill="grey"> +shape</text>
</g>
<!-- Node5 -->
<g id="Node000005" class="node">
<title>Node5</title>
<g id="a_Node000005"><a xlink:href="structTTL__offset__t.html" target="_top" xlink:title="Description of the 3D offset of an object.">
<polygon fill="white" stroke="none" points="262.88,-188.5 199.38,-188.5 199.38,-108.25 262.88,-108.25 262.88,-188.5"/>
<text text-anchor="start" x="203.38" y="-175" font-family="Helvetica,sans-Serif" font-size="10.00">TTL_offset_t</text>
<text text-anchor="start" x="213.62" y="-159.75" font-family="Helvetica,sans-Serif" font-size="10.00">+</text>
<text text-anchor="start" x="233.88" y="-159.75" font-family="Helvetica,sans-Serif" font-size="10.00">x</text>
<text text-anchor="start" x="213.62" y="-144.5" font-family="Helvetica,sans-Serif" font-size="10.00">+</text>
<text text-anchor="start" x="233.88" y="-144.5" font-family="Helvetica,sans-Serif" font-size="10.00">y</text>
<text text-anchor="start" x="213.62" y="-129.25" font-family="Helvetica,sans-Serif" font-size="10.00">+</text>
<text text-anchor="start" x="233.88" y="-129.25" font-family="Helvetica,sans-Serif" font-size="10.00">z</text>
<text text-anchor="start" x="229.62" y="-114" font-family="Helvetica,sans-Serif" font-size="10.00"> </text>
<polygon fill="#666666" stroke="#666666" points="199.38,-171.25 199.38,-171.25 262.88,-171.25 262.88,-171.25 199.38,-171.25"/>
<polygon fill="#666666" stroke="#666666" points="199.38,-125.5 199.38,-125.5 231.88,-125.5 231.88,-125.5 199.38,-125.5"/>
<polygon fill="#666666" stroke="#666666" points="231.88,-125.5 231.88,-125.5 262.88,-125.5 262.88,-125.5 231.88,-125.5"/>
<polygon fill="none" stroke="#666666" points="199.38,-108.25 199.38,-188.5 262.88,-188.5 262.88,-108.25 199.38,-108.25"/>
</a>
</g>
</g>
<!-- Node5&#45;&gt;Node1 -->
<g id="edge5_Node000001_Node000005" class="edge">
<title>Node5&#45;&gt;Node1</title>
<g id="a_edge5_Node000001_Node000005"><a xlink:title=" ">
<path fill="none" stroke="#63b8ff" d="M202.92,-108.47C194.22,-96.47 184.63,-83.24 175.9,-71.19"/>
<polygon fill="none" stroke="#63b8ff" points="176.05,-71.4 169.29,-68.89 169.01,-61.69 175.77,-64.2 176.05,-71.4"/>
</a>
</g>
<text text-anchor="middle" x="215.75" y="-80.75" font-family="Helvetica,sans-Serif" font-size="10.00" fill="grey"> +sub_offset</text>
</g>
</g>
</svg>
