<?xml version="1.0" encoding="UTF-8" standalone="no"?>
<!DOCTYPE svg PUBLIC "-//W3C//DTD SVG 1.1//EN"
 "http://www.w3.org/Graphics/SVG/1.1/DTD/svg11.dtd">
<!-- Generated by graphviz version 12.2.1 (20241206.2353)
 -->
<!-- Title: TTL_simplex_const_uchar_tensor_buffering_t Pages: 1 -->
<svg width="470pt" height="482pt"
 viewBox="0.00 0.00 469.68 482.00" xmlns="http://www.w3.org/2000/svg" xmlns:xlink="http://www.w3.org/1999/xlink">
<g id="graph0" class="graph" transform="scale(1 1) rotate(0) translate(4 478)">
<title>TTL_simplex_const_uchar_tensor_buffering_t</title>
<!-- Node1 -->
<g id="Node000001" class="node">
<title>Node1</title>
<g id="a_Node000001"><a xlink:title=" ">
<polygon fill="#999999" stroke="none" points="341.25,-122 218.5,-122 218.5,0 341.25,0 341.25,-122"/>
<text text-anchor="start" x="222.5" y="-108.5" font-family="Helvetica,sans-Serif" font-size="10.00">TTL_simplex_const_uchar</text>
<text text-anchor="start" x="238.62" y="-97.25" font-family="Helvetica,sans-Serif" font-size="10.00">_tensor_buffering_t</text>
<text text-anchor="start" x="238" y="-82" font-family="Helvetica,sans-Serif" font-size="10.00">+</text>
<text text-anchor="start" x="263.5" y="-82" font-family="Helvetica,sans-Serif" font-size="10.00">index</text>
<text text-anchor="start" x="238" y="-66.75" font-family="Helvetica,sans-Serif" font-size="10.00">+</text>
<text text-anchor="start" x="263.5" y="-66.75" font-family="Helvetica,sans-Serif" font-size="10.00">int_base</text>
<text text-anchor="start" x="238" y="-51.5" font-family="Helvetica,sans-Serif" font-size="10.00">+</text>
<text text-anchor="start" x="263.5" y="-51.5" font-family="Helvetica,sans-Serif" font-size="10.00">common</text>
<text text-anchor="start" x="238" y="-36.25" font-family="Helvetica,sans-Serif" font-size="10.00">+</text>
<text text-anchor="start" x="263.5" y="-36.25" font-family="Helvetica,sans-Serif" font-size="10.00">event_in</text>
<text text-anchor="start" x="238" y="-21" font-family="Helvetica,sans-Serif" font-size="10.00">+</text>
<text text-anchor="start" x="263.5" y="-21" font-family="Helvetica,sans-Serif" font-size="10.00">event_out</text>
<text text-anchor="start" x="278.38" y="-5.75" font-family="Helvetica,sans-Serif" font-size="10.00"> </text>
<polygon fill="#666666" stroke="#666666" points="218.5,-93.5 218.5,-93.5 341.25,-93.5 341.25,-93.5 218.5,-93.5"/>
<polygon fill="#666666" stroke="#666666" points="218.5,-17.25 218.5,-17.25 261.5,-17.25 261.5,-17.25 218.5,-17.25"/>
<polygon fill="#666666" stroke="#666666" points="261.5,-17.25 261.5,-17.25 341.25,-17.25 341.25,-17.25 261.5,-17.25"/>
<polygon fill="none" stroke="#666666" points="218.5,0 218.5,-122 341.25,-122 341.25,0 218.5,0"/>
</a>
</g>
</g>
<!-- Node2 -->
<g id="Node000002" class="node">
<title>Node2</title>
<g id="a_Node000002"><a xlink:href="structTTL__ext__uchar__tensor__t.html" target="_top" xlink:title="const and non&#45;const tensors in the appropriate address space">
<polygon fill="white" stroke="none" points="113.75,-338.88 0,-338.88 0,-273.88 113.75,-273.88 113.75,-338.88"/>
<text text-anchor="start" x="4" y="-325.38" font-family="Helvetica,sans-Serif" font-size="10.00">TTL_ext_uchar_tensor_t</text>
<text text-anchor="start" x="17.06" y="-310.12" font-family="Helvetica,sans-Serif" font-size="10.00">+</text>
<text text-anchor="start" x="40.12" y="-310.12" font-family="Helvetica,sans-Serif" font-size="10.00">base</text>
<text text-anchor="start" x="17.06" y="-294.88" font-family="Helvetica,sans-Serif" font-size="10.00">+</text>
<text text-anchor="start" x="40.12" y="-294.88" font-family="Helvetica,sans-Serif" font-size="10.00">elem_size</text>
<text text-anchor="start" x="55.38" y="-279.62" font-family="Helvetica,sans-Serif" font-size="10.00"> </text>
<polygon fill="#666666" stroke="#666666" points="0,-321.62 0,-321.62 113.75,-321.62 113.75,-321.62 0,-321.62"/>
<polygon fill="#666666" stroke="#666666" points="0,-291.12 0,-291.12 38.12,-291.12 38.12,-291.12 0,-291.12"/>
<polygon fill="#666666" stroke="#666666" points="38.12,-291.12 38.12,-291.12 113.75,-291.12 113.75,-291.12 38.12,-291.12"/>
<polygon fill="none" stroke="#666666" points="0,-273.88 0,-338.88 113.75,-338.88 113.75,-273.88 0,-273.88"/>
</a>
</g>
</g>
<!-- Node2&#45;&gt;Node1 -->
<g id="edge1_Node000001_Node000002" class="edge">
<title>Node2&#45;&gt;Node1</title>
<g id="a_edge1_Node000001_Node000002"><a xlink:title=" ">
<path fill="none" stroke="#63b8ff" d="M70.29,-274.11C83.83,-244.89 106.76,-201.11 135.12,-169.25 156.14,-145.64 183.13,-123.96 208.09,-106.36"/>
<polygon fill="none" stroke="#63b8ff" points="208.02,-106.41 210.69,-99.7 217.9,-99.59 215.23,-106.29 208.02,-106.41"/>
</a>
</g>
<text text-anchor="middle" x="170" y="-195.88" font-family="Helvetica,sans-Serif" font-size="10.00" fill="grey"> +ext_tensor_in</text>
<text text-anchor="middle" x="170" y="-184.62" font-family="Helvetica,sans-Serif" font-size="10.00" fill="grey">+ext_tensor_out</text>
</g>
<!-- Node3 -->
<g id="Node000003" class="node">
<title>Node3</title>
<g id="a_Node000003"><a xlink:href="structTTL__layout__t.html" target="_top" xlink:title="Description of a Tensor layout in memory.">
<polygon fill="white" stroke="none" points="164,-466.38 83.75,-466.38 83.75,-401.38 164,-401.38 164,-466.38"/>
<text text-anchor="start" x="95.38" y="-452.88" font-family="Helvetica,sans-Serif" font-size="10.00">TTL_layout_t</text>
<text text-anchor="start" x="87.75" y="-437.62" font-family="Helvetica,sans-Serif" font-size="10.00">+</text>
<text text-anchor="start" x="97.75" y="-437.62" font-family="Helvetica,sans-Serif" font-size="10.00">row_spacing</text>
<text text-anchor="start" x="87.75" y="-422.38" font-family="Helvetica,sans-Serif" font-size="10.00">+</text>
<text text-anchor="start" x="97.75" y="-422.38" font-family="Helvetica,sans-Serif" font-size="10.00">plane_spacing</text>
<text text-anchor="start" x="122.38" y="-407.12" font-family="Helvetica,sans-Serif" font-size="10.00"> </text>
<polygon fill="#666666" stroke="#666666" points="83.75,-449.12 83.75,-449.12 164,-449.12 164,-449.12 83.75,-449.12"/>
<polygon fill="#666666" stroke="#666666" points="83.75,-418.62 83.75,-418.62 95.75,-418.62 95.75,-418.62 83.75,-418.62"/>
<polygon fill="#666666" stroke="#666666" points="95.75,-418.62 95.75,-418.62 164,-418.62 164,-418.62 95.75,-418.62"/>
<polygon fill="none" stroke="#666666" points="83.75,-401.38 83.75,-466.38 164,-466.38 164,-401.38 83.75,-401.38"/>
</a>
</g>
</g>
<!-- Node3&#45;&gt;Node2 -->
<g id="edge2_Node000002_Node000003" class="edge">
<title>Node3&#45;&gt;Node2</title>
<g id="a_edge2_Node000002_Node000003"><a xlink:title=" ">
<path fill="none" stroke="#63b8ff" d="M84.08,-406.78C74.16,-398.16 64.75,-387.68 59.12,-375.75 55.6,-368.28 53.83,-359.82 53.11,-351.46"/>
<polygon fill="none" stroke="#63b8ff" points="53.11,-351.46 48.95,-345.57 52.78,-339.46 56.95,-345.35 53.11,-351.46"/>
</a>
</g>
<text text-anchor="middle" x="76" y="-366.25" font-family="Helvetica,sans-Serif" font-size="10.00" fill="grey"> +layout</text>
</g>
<!-- Node8 -->
<g id="Node000008" class="node">
<title>Node8</title>
<g id="a_Node000008"><a xlink:href="structTTL__int__uchar__tensor__t.html" target="_top" xlink:title="const and non&#45;const tensors in the appropriate address space">
<polygon fill="white" stroke="none" points="243.62,-338.88 132.12,-338.88 132.12,-273.88 243.62,-273.88 243.62,-338.88"/>
<text text-anchor="start" x="136.12" y="-325.38" font-family="Helvetica,sans-Serif" font-size="10.00">TTL_int_uchar_tensor_t</text>
<text text-anchor="start" x="148.62" y="-310.12" font-family="Helvetica,sans-Serif" font-size="10.00">+</text>
<text text-anchor="start" x="171.12" y="-310.12" font-family="Helvetica,sans-Serif" font-size="10.00">base</text>
<text text-anchor="start" x="148.62" y="-294.88" font-family="Helvetica,sans-Serif" font-size="10.00">+</text>
<text text-anchor="start" x="171.12" y="-294.88" font-family="Helvetica,sans-Serif" font-size="10.00">elem_size</text>
<text text-anchor="start" x="186.38" y="-279.62" font-family="Helvetica,sans-Serif" font-size="10.00"> </text>
<polygon fill="#666666" stroke="#666666" points="132.12,-321.62 132.12,-321.62 243.62,-321.62 243.62,-321.62 132.12,-321.62"/>
<polygon fill="#666666" stroke="#666666" points="132.12,-291.12 132.12,-291.12 169.12,-291.12 169.12,-291.12 132.12,-291.12"/>
<polygon fill="#666666" stroke="#666666" points="169.12,-291.12 169.12,-291.12 243.62,-291.12 243.62,-291.12 169.12,-291.12"/>
<polygon fill="none" stroke="#666666" points="132.12,-273.88 132.12,-338.88 243.62,-338.88 243.62,-273.88 132.12,-273.88"/>
</a>
</g>
</g>
<!-- Node3&#45;&gt;Node8 -->
<g id="edge9_Node000008_Node000003" class="edge">
<title>Node3&#45;&gt;Node8</title>
<g id="a_edge9_Node000008_Node000003"><a xlink:title=" ">
<path fill="none" stroke="#63b8ff" d="M139.86,-401.53C147.8,-385.96 157.52,-366.91 166.12,-350.03"/>
<polygon fill="none" stroke="#63b8ff" points="166.01,-350.25 165.17,-343.09 171.46,-339.56 172.3,-346.72 166.01,-350.25"/>
</a>
</g>
<text text-anchor="middle" x="174.67" y="-366.25" font-family="Helvetica,sans-Serif" font-size="10.00" fill="grey"> +layout</text>
</g>
<!-- Node4 -->
<g id="Node000004" class="node">
<title>Node4</title>
<g id="a_Node000004"><a xlink:href="structTTL__shape__t.html" target="_top" xlink:title="Description of a Shape.">
<polygon fill="white" stroke="none" points="287.75,-474 222,-474 222,-393.75 287.75,-393.75 287.75,-474"/>
<text text-anchor="start" x="226" y="-460.5" font-family="Helvetica,sans-Serif" font-size="10.00">TTL_shape_t</text>
<text text-anchor="start" x="231.38" y="-445.25" font-family="Helvetica,sans-Serif" font-size="10.00">+</text>
<text text-anchor="start" x="246.75" y="-445.25" font-family="Helvetica,sans-Serif" font-size="10.00">width</text>
<text text-anchor="start" x="231.38" y="-430" font-family="Helvetica,sans-Serif" font-size="10.00">+</text>
<text text-anchor="start" x="246.75" y="-430" font-family="Helvetica,sans-Serif" font-size="10.00">height</text>
<text text-anchor="start" x="231.38" y="-414.75" font-family="Helvetica,sans-Serif" font-size="10.00">+</text>
<text text-anchor="start" x="246.75" y="-414.75" font-family="Helvetica,sans-Serif" font-size="10.00">depth</text>
<text text-anchor="start" x="253.38" y="-399.5" font-family="Helvetica,sans-Serif" font-size="10.00"> </text>
<polygon fill="#666666" stroke="#666666" points="222,-456.75 222,-456.75 287.75,-456.75 287.75,-456.75 222,-456.75"/>
<polygon fill="#666666" stroke="#666666" points="222,-411 222,-411 244.75,-411 244.75,-411 222,-411"/>
<polygon fill="#666666" stroke="#666666" points="244.75,-411 244.75,-411 287.75,-411 287.75,-411 244.75,-411"/>
<polygon fill="none" stroke="#666666" points="222,-393.75 222,-474 287.75,-474 287.75,-393.75 222,-393.75"/>
</a>
</g>
</g>
<!-- Node4&#45;&gt;Node2 -->
<g id="edge3_Node000002_Node000004" class="edge">
<title>Node4&#45;&gt;Node2</title>
<g id="a_edge3_Node000002_Node000004"><a xlink:title=" ">
<path fill="none" stroke="#63b8ff" d="M222.23,-415.99C207.39,-408.65 189.47,-400.27 172.88,-393.75 147.95,-383.96 137.73,-390.5 115.38,-375.75 104.42,-368.52 94.36,-358.68 85.78,-348.71"/>
<polygon fill="none" stroke="#63b8ff" points="85.86,-348.8 78.97,-346.67 78.29,-339.49 85.17,-341.62 85.86,-348.8"/>
</a>
</g>
<text text-anchor="middle" x="132.62" y="-366.25" font-family="Helvetica,sans-Serif" font-size="10.00" fill="grey"> +shape</text>
</g>
<!-- Node5 -->
<g id="Node000005" class="node">
<title>Node5</title>
<g id="a_Node000005"><a xlink:href="structTTL__tile__t.html" target="_top" xlink:title=" ">
<polygon fill="white" stroke="none" points="416,-219 363.75,-219 363.75,-169.25 416,-169.25 416,-219"/>
<text text-anchor="start" x="367.75" y="-205.5" font-family="Helvetica,sans-Serif" font-size="10.00">TTL_tile_t</text>
<text text-anchor="start" x="388.38" y="-190.25" font-family="Helvetica,sans-Serif" font-size="10.00"> </text>
<text text-anchor="start" x="388.38" y="-175" font-family="Helvetica,sans-Serif" font-size="10.00"> </text>
<polygon fill="#666666" stroke="#666666" points="363.75,-201.75 363.75,-201.75 416,-201.75 416,-201.75 363.75,-201.75"/>
<polygon fill="#666666" stroke="#666666" points="363.75,-186.5 363.75,-186.5 416,-186.5 416,-186.5 363.75,-186.5"/>
<polygon fill="none" stroke="#666666" points="363.75,-169.25 363.75,-219 416,-219 416,-169.25 363.75,-169.25"/>
</a>
</g>
</g>
<!-- Node4&#45;&gt;Node5 -->
<g id="edge5_Node000005_Node000004" class="edge">
<title>Node4&#45;&gt;Node5</title>
<g id="a_edge5_Node000005_Node000004"><a xlink:title=" ">
<path fill="none" stroke="#63b8ff" d="M287.5,-424.11C323.28,-412.64 379.28,-388.83 406.88,-346.5 433.56,-305.56 430.68,-283.88 416.88,-237 416.21,-234.73 415.38,-232.47 414.42,-230.25"/>
<polygon fill="none" stroke="#63b8ff" points="414.39,-230.19 408.06,-226.74 408.81,-219.56 415.14,-223.02 414.39,-230.19"/>
</a>
</g>
<text text-anchor="middle" x="444.43" y="-302.5" font-family="Helvetica,sans-Serif" font-size="10.00" fill="grey"> +shape</text>
</g>
<!-- Node7 -->
<g id="Node000007" class="node">
<title>Node7</title>
<g id="a_Node000007"><a xlink:href="structTTL__int__uchar__sub__tensor__t.html" target="_top" xlink:title="const and non&#45;const sub tensors in the appropriate address space">
<polygon fill="white" stroke="none" points="346.12,-219 213.62,-219 213.62,-169.25 346.12,-169.25 346.12,-219"/>
<text text-anchor="start" x="217.62" y="-205.5" font-family="Helvetica,sans-Serif" font-size="10.00">TTL_int_uchar_sub_tensor_t</text>
<text text-anchor="start" x="240.44" y="-190.25" font-family="Helvetica,sans-Serif" font-size="10.00">+</text>
<text text-anchor="start" x="273.25" y="-190.25" font-family="Helvetica,sans-Serif" font-size="10.00">origin</text>
<text text-anchor="start" x="278.38" y="-175" font-family="Helvetica,sans-Serif" font-size="10.00"> </text>
<polygon fill="#666666" stroke="#666666" points="213.62,-201.75 213.62,-201.75 346.12,-201.75 346.12,-201.75 213.62,-201.75"/>
<polygon fill="#666666" stroke="#666666" points="213.62,-186.5 213.62,-186.5 271.25,-186.5 271.25,-186.5 213.62,-186.5"/>
<polygon fill="#666666" stroke="#666666" points="271.25,-186.5 271.25,-186.5 346.12,-186.5 346.12,-186.5 271.25,-186.5"/>
<polygon fill="none" stroke="#666666" points="213.62,-169.25 213.62,-219 346.12,-219 346.12,-169.25 213.62,-169.25"/>
</a>
</g>
</g>
<!-- Node4&#45;&gt;Node7 -->
<g id="edge11_Node000007_Node000004" class="edge">
<title>Node4&#45;&gt;Node7</title>
<g id="a_edge11_Node000007_Node000004"><a xlink:title=" ">
<path fill="none" stroke="#63b8ff" d="M259.77,-393.86C260.5,-387.8 261.22,-381.61 261.88,-375.75 267.41,-325.9 273.02,-268.21 276.47,-231.71"/>
<polygon fill="none" stroke="#63b8ff" points="276.48,-231.66 273.06,-225.31 277.6,-219.71 281.02,-226.06 276.48,-231.66"/>
</a>
</g>
<text text-anchor="middle" x="290.3" y="-302.5" font-family="Helvetica,sans-Serif" font-size="10.00" fill="grey"> +shape</text>
</g>
<!-- Node4&#45;&gt;Node8 -->
<g id="edge10_Node000008_Node000004" class="edge">
<title>Node4&#45;&gt;Node8</title>
<g id="a_edge10_Node000008_Node000004"><a xlink:title=" ">
<path fill="none" stroke="#63b8ff" d="M234.04,-393.85C226.66,-380.03 218.32,-364.39 210.77,-350.26"/>
<polygon fill="none" stroke="#63b8ff" points="210.74,-350.19 204.38,-346.79 205.08,-339.61 211.44,-343.02 210.74,-350.19"/>
</a>
</g>
<text text-anchor="middle" x="240.63" y="-366.25" font-family="Helvetica,sans-Serif" font-size="10.00" fill="grey"> +shape</text>
</g>
<!-- Node5&#45;&gt;Node1 -->
<g id="edge4_Node000001_Node000005" class="edge">
<title>Node5&#45;&gt;Node1</title>
<g id="a_edge4_Node000001_Node000005"><a xlink:title=" ">
<path fill="none" stroke="#63b8ff" d="M382.17,-169.48C378.4,-159.84 373.28,-148.89 366.88,-140 361.86,-133.03 356.12,-126.24 350.04,-119.75"/>
<polygon fill="none" stroke="#63b8ff" points="349.97,-119.67 342.91,-118.2 341.56,-111.11 348.61,-112.59 349.97,-119.67"/>
</a>
</g>
<text text-anchor="middle" x="416.67" y="-141.75" font-family="Helvetica,sans-Serif" font-size="10.00" fill="grey"> +next_exported_tile</text>
</g>
<!-- Node6 -->
<g id="Node000006" class="node">
<title>Node6</title>
<g id="a_Node000006"><a xlink:href="structTTL__offset__t.html" target="_top" xlink:title="Description of the 3D offset of an object.">
<polygon fill="white" stroke="none" points="397.62,-346.5 334.12,-346.5 334.12,-266.25 397.62,-266.25 397.62,-346.5"/>
<text text-anchor="start" x="338.12" y="-333" font-family="Helvetica,sans-Serif" font-size="10.00">TTL_offset_t</text>
<text text-anchor="start" x="348.38" y="-317.75" font-family="Helvetica,sans-Serif" font-size="10.00">+</text>
<text text-anchor="start" x="368.62" y="-317.75" font-family="Helvetica,sans-Serif" font-size="10.00">x</text>
<text text-anchor="start" x="348.38" y="-302.5" font-family="Helvetica,sans-Serif" font-size="10.00">+</text>
<text text-anchor="start" x="368.62" y="-302.5" font-family="Helvetica,sans-Serif" font-size="10.00">y</text>
<text text-anchor="start" x="348.38" y="-287.25" font-family="Helvetica,sans-Serif" font-size="10.00">+</text>
<text text-anchor="start" x="368.62" y="-287.25" font-family="Helvetica,sans-Serif" font-size="10.00">z</text>
<text text-anchor="start" x="364.38" y="-272" font-family="Helvetica,sans-Serif" font-size="10.00"> </text>
<polygon fill="#666666" stroke="#666666" points="334.12,-329.25 334.12,-329.25 397.62,-329.25 397.62,-329.25 334.12,-329.25"/>
<polygon fill="#666666" stroke="#666666" points="334.12,-283.5 334.12,-283.5 366.62,-283.5 366.62,-283.5 334.12,-283.5"/>
<polygon fill="#666666" stroke="#666666" points="366.62,-283.5 366.62,-283.5 397.62,-283.5 397.62,-283.5 366.62,-283.5"/>
<polygon fill="none" stroke="#666666" points="334.12,-266.25 334.12,-346.5 397.62,-346.5 397.62,-266.25 334.12,-266.25"/>
</a>
</g>
</g>
<!-- Node6&#45;&gt;Node5 -->
<g id="edge6_Node000005_Node000006" class="edge">
<title>Node6&#45;&gt;Node5</title>
<g id="a_edge6_Node000005_Node000006"><a xlink:title=" ">
<path fill="none" stroke="#63b8ff" d="M374.34,-266.5C376.82,-255.1 379.52,-242.67 381.97,-231.43"/>
<polygon fill="none" stroke="#63b8ff" points="381.95,-231.52 379.32,-224.8 384.51,-219.79 387.14,-226.51 381.95,-231.52"/>
</a>
</g>
<text text-anchor="middle" x="396.86" y="-238.75" font-family="Helvetica,sans-Serif" font-size="10.00" fill="grey"> +offset</text>
</g>
<!-- Node6&#45;&gt;Node7 -->
<g id="edge12_Node000007_Node000006" class="edge">
<title>Node6&#45;&gt;Node7</title>
<g id="a_edge12_Node000007_Node000006"><a xlink:title=" ">
<path fill="none" stroke="#63b8ff" d="M335.55,-266.5C325.98,-254.23 315.48,-240.77 306.21,-228.89"/>
<polygon fill="none" stroke="#63b8ff" points="306.36,-229.08 299.52,-226.81 298.98,-219.62 305.83,-221.89 306.36,-229.08"/>
</a>
</g>
<text text-anchor="middle" x="346.92" y="-238.75" font-family="Helvetica,sans-Serif" font-size="10.00" fill="grey"> +sub_offset</text>
</g>
<!-- Node7&#45;&gt;Node1 -->
<g id="edge7_Node000001_Node000007" class="edge">
<title>Node7&#45;&gt;Node1</title>
<g id="a_edge7_Node000001_Node000007"><a xlink:title=" ">
<path fill="none" stroke="#63b8ff" d="M279.88,-169.38C279.88,-159.46 279.88,-147.36 279.88,-134.9"/>
<polygon fill="none" stroke="#63b8ff" points="279.88,-134.76 275.88,-128.76 279.88,-122.76 283.88,-128.76 279.88,-134.76"/>
</a>
</g>
<text text-anchor="middle" x="322.62" y="-141.75" font-family="Helvetica,sans-Serif" font-size="10.00" fill="grey"> +int_prev_imported</text>
</g>
<!-- Node8&#45;&gt;Node7 -->
<g id="edge8_Node000007_Node000008" class="edge">
<title>Node8&#45;&gt;Node7</title>
<g id="a_edge8_Node000007_Node000008"><a xlink:title=" ">
<path fill="none" stroke="#63b8ff" d="M204.71,-274.03C211.93,-261.88 220.92,-248.23 230.62,-237 233.34,-233.86 236.3,-230.75 239.37,-227.73"/>
<polygon fill="none" stroke="#63b8ff" points="239.35,-227.75 241.04,-220.74 248.16,-219.61 246.47,-226.62 239.35,-227.75"/>
</a>
</g>
<text text-anchor="middle" x="248.25" y="-238.75" font-family="Helvetica,sans-Serif" font-size="10.00" fill="grey"> +tensor</text>
</g>
</g>
</svg>
