<?xml version="1.0" encoding="UTF-8" standalone="no"?>
<!DOCTYPE svg PUBLIC "-//W3C//DTD SVG 1.1//EN"
 "http://www.w3.org/Graphics/SVG/1.1/DTD/svg11.dtd">
<!-- Generated by graphviz version 12.2.1 (20241206.2353)
 -->
<!-- Title: TTL_ext_uchar_sub_tensor_t Pages: 1 -->
<svg width="274pt" height="313pt"
 viewBox="0.00 0.00 273.62 312.75" xmlns="http://www.w3.org/2000/svg" xmlns:xlink="http://www.w3.org/1999/xlink">
<g id="graph0" class="graph" transform="scale(1 1) rotate(0) translate(4 308.75)">
<title>TTL_ext_uchar_sub_tensor_t</title>
<!-- Node1 -->
<g id="Node000001" class="node">
<title>Node1</title>
<g id="a_Node000001"><a xlink:title="const and non&#45;const sub tensors in the appropriate address space">
<polygon fill="#999999" stroke="none" points="217.25,-49.75 82.5,-49.75 82.5,0 217.25,0 217.25,-49.75"/>
<text text-anchor="start" x="86.5" y="-36.25" font-family="Helvetica,sans-Serif" font-size="10.00">TTL_ext_uchar_sub_tensor_t</text>
<text text-anchor="start" x="109.88" y="-21" font-family="Helvetica,sans-Serif" font-size="10.00">+</text>
<text text-anchor="start" x="143.25" y="-21" font-family="Helvetica,sans-Serif" font-size="10.00">origin</text>
<text text-anchor="start" x="148.38" y="-5.75" font-family="Helvetica,sans-Serif" font-size="10.00"> </text>
<polygon fill="#666666" stroke="#666666" points="82.5,-32.5 82.5,-32.5 217.25,-32.5 217.25,-32.5 82.5,-32.5"/>
<polygon fill="#666666" stroke="#666666" points="82.5,-17.25 82.5,-17.25 141.25,-17.25 141.25,-17.25 82.5,-17.25"/>
<polygon fill="#666666" stroke="#666666" points="141.25,-17.25 141.25,-17.25 217.25,-17.25 217.25,-17.25 141.25,-17.25"/>
<polygon fill="none" stroke="#666666" points="82.5,0 82.5,-49.75 217.25,-49.75 217.25,0 82.5,0"/>
</a>
</g>
</g>
<!-- Node2 -->
<g id="Node000002" class="node">
<title>Node2</title>
<g id="a_Node000002"><a xlink:href="structTTL__ext__uchar__tensor__t.html" target="_top" xlink:title="const and non&#45;const tensors in the appropriate address space">
<polygon fill="white" stroke="none" points="113.75,-169.62 0,-169.62 0,-104.62 113.75,-104.62 113.75,-169.62"/>
<text text-anchor="start" x="4" y="-156.12" font-family="Helvetica,sans-Serif" font-size="10.00">TTL_ext_uchar_tensor_t</text>
<text text-anchor="start" x="17.06" y="-140.88" font-family="Helvetica,sans-Serif" font-size="10.00">+</text>
<text text-anchor="start" x="40.12" y="-140.88" font-family="Helvetica,sans-Serif" font-size="10.00">base</text>
<text text-anchor="start" x="17.06" y="-125.62" font-family="Helvetica,sans-Serif" font-size="10.00">+</text>
<text text-anchor="start" x="40.12" y="-125.62" font-family="Helvetica,sans-Serif" font-size="10.00">elem_size</text>
<text text-anchor="start" x="55.38" y="-110.38" font-family="Helvetica,sans-Serif" font-size="10.00"> </text>
<polygon fill="#666666" stroke="#666666" points="0,-152.38 0,-152.38 113.75,-152.38 113.75,-152.38 0,-152.38"/>
<polygon fill="#666666" stroke="#666666" points="0,-121.88 0,-121.88 38.12,-121.88 38.12,-121.88 0,-121.88"/>
<polygon fill="#666666" stroke="#666666" points="38.12,-121.88 38.12,-121.88 113.75,-121.88 113.75,-121.88 38.12,-121.88"/>
<polygon fill="none" stroke="#666666" points="0,-104.62 0,-169.62 113.75,-169.62 113.75,-104.62 0,-104.62"/>
</a>
</g>
</g>
<!-- Node2&#45;&gt;Node1 -->
<g id="edge1_Node000001_Node000002" class="edge">
<title>Node2&#45;&gt;Node1</title>
<g id="a_edge1_Node000001_Node000002"><a xlink:title=" ">
<path fill="none" stroke="#63b8ff" d="M74.22,-104.8C81.61,-92.66 90.8,-79 100.62,-67.75 103.39,-64.58 106.41,-61.44 109.53,-58.39"/>
<polygon fill="none" stroke="#63b8ff" points="109.63,-58.3 111.34,-51.29 118.47,-50.17 116.76,-57.18 109.63,-58.3"/>
</a>
</g>
<text text-anchor="middle" x="118.25" y="-69.5" font-family="Helvetica,sans-Serif" font-size="10.00" fill="grey"> +tensor</text>
</g>
<!-- Node3 -->
<g id="Node000003" class="node">
<title>Node3</title>
<g id="a_Node000003"><a xlink:href="structTTL__layout__t.html" target="_top" xlink:title="Description of a Tensor layout in memory.">
<polygon fill="white" stroke="none" points="83,-297.12 2.75,-297.12 2.75,-232.12 83,-232.12 83,-297.12"/>
<text text-anchor="start" x="14.38" y="-283.62" font-family="Helvetica,sans-Serif" font-size="10.00">TTL_layout_t</text>
<text text-anchor="start" x="6.75" y="-268.38" font-family="Helvetica,sans-Serif" font-size="10.00">+</text>
<text text-anchor="start" x="16.75" y="-268.38" font-family="Helvetica,sans-Serif" font-size="10.00">row_spacing</text>
<text text-anchor="start" x="6.75" y="-253.12" font-family="Helvetica,sans-Serif" font-size="10.00">+</text>
<text text-anchor="start" x="16.75" y="-253.12" font-family="Helvetica,sans-Serif" font-size="10.00">plane_spacing</text>
<text text-anchor="start" x="41.38" y="-237.88" font-family="Helvetica,sans-Serif" font-size="10.00"> </text>
<polygon fill="#666666" stroke="#666666" points="2.75,-279.88 2.75,-279.88 83,-279.88 83,-279.88 2.75,-279.88"/>
<polygon fill="#666666" stroke="#666666" points="2.75,-249.38 2.75,-249.38 14.75,-249.38 14.75,-249.38 2.75,-249.38"/>
<polygon fill="#666666" stroke="#666666" points="14.75,-249.38 14.75,-249.38 83,-249.38 83,-249.38 14.75,-249.38"/>
<polygon fill="none" stroke="#666666" points="2.75,-232.12 2.75,-297.12 83,-297.12 83,-232.12 2.75,-232.12"/>
</a>
</g>
</g>
<!-- Node3&#45;&gt;Node2 -->
<g id="edge2_Node000002_Node000003" class="edge">
<title>Node3&#45;&gt;Node2</title>
<g id="a_edge2_Node000002_Node000003"><a xlink:title=" ">
<path fill="none" stroke="#63b8ff" d="M42.13,-232.22C42.2,-220.57 42.69,-207.27 44.12,-195.25 44.65,-190.88 45.36,-186.35 46.18,-181.85"/>
<polygon fill="none" stroke="#63b8ff" points="46.15,-182 43.42,-175.32 48.53,-170.24 51.26,-176.92 46.15,-182"/>
</a>
</g>
<text text-anchor="middle" x="61" y="-197" font-family="Helvetica,sans-Serif" font-size="10.00" fill="grey"> +layout</text>
</g>
<!-- Node4 -->
<g id="Node000004" class="node">
<title>Node4</title>
<g id="a_Node000004"><a xlink:href="structTTL__shape__t.html" target="_top" xlink:title="Description of a Shape.">
<polygon fill="white" stroke="none" points="174.75,-304.75 109,-304.75 109,-224.5 174.75,-224.5 174.75,-304.75"/>
<text text-anchor="start" x="113" y="-291.25" font-family="Helvetica,sans-Serif" font-size="10.00">TTL_shape_t</text>
<text text-anchor="start" x="118.38" y="-276" font-family="Helvetica,sans-Serif" font-size="10.00">+</text>
<text text-anchor="start" x="133.75" y="-276" font-family="Helvetica,sans-Serif" font-size="10.00">width</text>
<text text-anchor="start" x="118.38" y="-260.75" font-family="Helvetica,sans-Serif" font-size="10.00">+</text>
<text text-anchor="start" x="133.75" y="-260.75" font-family="Helvetica,sans-Serif" font-size="10.00">height</text>
<text text-anchor="start" x="118.38" y="-245.5" font-family="Helvetica,sans-Serif" font-size="10.00">+</text>
<text text-anchor="start" x="133.75" y="-245.5" font-family="Helvetica,sans-Serif" font-size="10.00">depth</text>
<text text-anchor="start" x="140.38" y="-230.25" font-family="Helvetica,sans-Serif" font-size="10.00"> </text>
<polygon fill="#666666" stroke="#666666" points="109,-287.5 109,-287.5 174.75,-287.5 174.75,-287.5 109,-287.5"/>
<polygon fill="#666666" stroke="#666666" points="109,-241.75 109,-241.75 131.75,-241.75 131.75,-241.75 109,-241.75"/>
<polygon fill="#666666" stroke="#666666" points="131.75,-241.75 131.75,-241.75 174.75,-241.75 174.75,-241.75 131.75,-241.75"/>
<polygon fill="none" stroke="#666666" points="109,-224.5 109,-304.75 174.75,-304.75 174.75,-224.5 109,-224.5"/>
</a>
</g>
</g>
<!-- Node4&#45;&gt;Node1 -->
<g id="edge4_Node000001_Node000004" class="edge">
<title>Node4&#45;&gt;Node1</title>
<g id="a_edge4_Node000001_Node000004"><a xlink:title=" ">
<path fill="none" stroke="#63b8ff" d="M143.19,-224.63C144.7,-179.72 147.16,-106.5 148.64,-62.58"/>
<polygon fill="none" stroke="#63b8ff" points="148.64,-62.58 144.84,-56.45 149.04,-50.58 152.84,-56.72 148.64,-62.58"/>
</a>
</g>
<text text-anchor="middle" x="164.69" y="-133.25" font-family="Helvetica,sans-Serif" font-size="10.00" fill="grey"> +shape</text>
</g>
<!-- Node4&#45;&gt;Node2 -->
<g id="edge3_Node000002_Node000004" class="edge">
<title>Node4&#45;&gt;Node2</title>
<g id="a_edge3_Node000002_Node000004"><a xlink:title=" ">
<path fill="none" stroke="#63b8ff" d="M114,-224.74C109.73,-218.66 105.41,-212.43 101.38,-206.5 95.67,-198.1 89.66,-189.04 83.98,-180.35"/>
<polygon fill="none" stroke="#63b8ff" points="84.03,-180.43 77.41,-177.58 77.49,-170.37 84.11,-173.22 84.03,-180.43"/>
</a>
</g>
<text text-anchor="middle" x="118.62" y="-197" font-family="Helvetica,sans-Serif" font-size="10.00" fill="grey"> +shape</text>
</g>
<!-- Node5 -->
<g id="Node000005" class="node">
<title>Node5</title>
<g id="a_Node000005"><a xlink:href="structTTL__offset__t.html" target="_top" xlink:title="Description of the 3D offset of an object.">
<polygon fill="white" stroke="none" points="265.62,-177.25 202.12,-177.25 202.12,-97 265.62,-97 265.62,-177.25"/>
<text text-anchor="start" x="206.12" y="-163.75" font-family="Helvetica,sans-Serif" font-size="10.00">TTL_offset_t</text>
<text text-anchor="start" x="216.38" y="-148.5" font-family="Helvetica,sans-Serif" font-size="10.00">+</text>
<text text-anchor="start" x="236.62" y="-148.5" font-family="Helvetica,sans-Serif" font-size="10.00">x</text>
<text text-anchor="start" x="216.38" y="-133.25" font-family="Helvetica,sans-Serif" font-size="10.00">+</text>
<text text-anchor="start" x="236.62" y="-133.25" font-family="Helvetica,sans-Serif" font-size="10.00">y</text>
<text text-anchor="start" x="216.38" y="-118" font-family="Helvetica,sans-Serif" font-size="10.00">+</text>
<text text-anchor="start" x="236.62" y="-118" font-family="Helvetica,sans-Serif" font-size="10.00">z</text>
<text text-anchor="start" x="232.38" y="-102.75" font-family="Helvetica,sans-Serif" font-size="10.00"> </text>
<polygon fill="#666666" stroke="#666666" points="202.12,-160 202.12,-160 265.62,-160 265.62,-160 202.12,-160"/>
<polygon fill="#666666" stroke="#666666" points="202.12,-114.25 202.12,-114.25 234.62,-114.25 234.62,-114.25 202.12,-114.25"/>
<polygon fill="#666666" stroke="#666666" points="234.62,-114.25 234.62,-114.25 265.62,-114.25 265.62,-114.25 234.62,-114.25"/>
<polygon fill="none" stroke="#666666" points="202.12,-97 202.12,-177.25 265.62,-177.25 265.62,-97 202.12,-97"/>
</a>
</g>
</g>
<!-- Node5&#45;&gt;Node1 -->
<g id="edge5_Node000001_Node000005" class="edge">
<title>Node5&#45;&gt;Node1</title>
<g id="a_edge5_Node000001_Node000005"><a xlink:title=" ">
<path fill="none" stroke="#63b8ff" d="M204.26,-97.25C195,-85.1 184.86,-71.8 175.87,-60"/>
<polygon fill="none" stroke="#63b8ff" points="175.82,-59.92 169,-57.58 168.54,-50.38 175.36,-52.73 175.82,-59.92"/>
</a>
</g>
<text text-anchor="middle" x="215.98" y="-69.5" font-family="Helvetica,sans-Serif" font-size="10.00" fill="grey"> +sub_offset</text>
</g>
</g>
</svg>
