<?xml version="1.0" encoding="UTF-8" standalone="no"?>
<!DOCTYPE svg PUBLIC "-//W3C//DTD SVG 1.1//EN"
 "http://www.w3.org/Graphics/SVG/1.1/DTD/svg11.dtd">
<!-- Generated by graphviz version 12.2.1 (20241206.2353)
 -->
<!-- Title: TTL_io_ushort_tensor_t Pages: 1 -->
<svg width="274pt" height="432pt"
 viewBox="0.00 0.00 274.00 432.25" xmlns="http://www.w3.org/2000/svg" xmlns:xlink="http://www.w3.org/1999/xlink">
<g id="graph0" class="graph" transform="scale(1 1) rotate(0) translate(4 428.25)">
<title>TTL_io_ushort_tensor_t</title>
<!-- Node1 -->
<g id="Node000001" class="node">
<title>Node1</title>
<g id="a_Node000001"><a xlink:title="Describes a pair of internal Tensors after an operation.">
<polygon fill="#999999" stroke="none" points="206,-49.75 94.5,-49.75 94.5,0 206,0 206,-49.75"/>
<text text-anchor="start" x="98.5" y="-36.25" font-family="Helvetica,sans-Serif" font-size="10.00">TTL_io_ushort_tensor_t</text>
<text text-anchor="start" x="148.75" y="-21" font-family="Helvetica,sans-Serif" font-size="10.00"> </text>
<text text-anchor="start" x="148.75" y="-5.75" font-family="Helvetica,sans-Serif" font-size="10.00"> </text>
<polygon fill="#666666" stroke="#666666" points="94.5,-32.5 94.5,-32.5 206,-32.5 206,-32.5 94.5,-32.5"/>
<polygon fill="#666666" stroke="#666666" points="94.5,-17.25 94.5,-17.25 206,-17.25 206,-17.25 94.5,-17.25"/>
<polygon fill="none" stroke="#666666" points="94.5,0 94.5,-49.75 206,-49.75 206,0 94.5,0"/>
</a>
</g>
</g>
<!-- Node2 -->
<g id="Node000002" class="node">
<title>Node2</title>
<g id="a_Node000002"><a xlink:href="structTTL__int__ushort__sub__tensor__t.html" target="_top" xlink:title="const and non&#45;const sub tensors in the appropriate address space">
<polygon fill="white" stroke="none" points="197.75,-169.25 102.75,-169.25 102.75,-108.25 197.75,-108.25 197.75,-169.25"/>
<text text-anchor="start" x="106.75" y="-155.75" font-family="Helvetica,sans-Serif" font-size="10.00">TTL_int_ushort_sub</text>
<text text-anchor="start" x="130" y="-144.5" font-family="Helvetica,sans-Serif" font-size="10.00">_tensor_t</text>
<text text-anchor="start" x="120.19" y="-129.25" font-family="Helvetica,sans-Serif" font-size="10.00">+</text>
<text text-anchor="start" x="143.62" y="-129.25" font-family="Helvetica,sans-Serif" font-size="10.00">origin</text>
<text text-anchor="start" x="148.75" y="-114" font-family="Helvetica,sans-Serif" font-size="10.00"> </text>
<polygon fill="#666666" stroke="#666666" points="102.75,-140.75 102.75,-140.75 197.75,-140.75 197.75,-140.75 102.75,-140.75"/>
<polygon fill="#666666" stroke="#666666" points="102.75,-125.5 102.75,-125.5 141.62,-125.5 141.62,-125.5 102.75,-125.5"/>
<polygon fill="#666666" stroke="#666666" points="141.62,-125.5 141.62,-125.5 197.75,-125.5 197.75,-125.5 141.62,-125.5"/>
<polygon fill="none" stroke="#666666" points="102.75,-108.25 102.75,-169.25 197.75,-169.25 197.75,-108.25 102.75,-108.25"/>
</a>
</g>
</g>
<!-- Node2&#45;&gt;Node1 -->
<g id="edge1_Node000001_Node000002" class="edge">
<title>Node2&#45;&gt;Node1</title>
<g id="a_edge1_Node000001_Node000002"><a xlink:title=" ">
<path fill="none" stroke="#63b8ff" d="M150.25,-108.36C150.25,-94.28 150.25,-77.28 150.25,-62.39"/>
<polygon fill="none" stroke="#63b8ff" points="150.25,-62.34 146.25,-56.34 150.25,-50.34 154.25,-56.34 150.25,-62.34"/>
</a>
</g>
<text text-anchor="middle" x="185.5" y="-80.75" font-family="Helvetica,sans-Serif" font-size="10.00" fill="grey"> +imported_to</text>
<text text-anchor="middle" x="185.5" y="-69.5" font-family="Helvetica,sans-Serif" font-size="10.00" fill="grey">+to_export_from</text>
</g>
<!-- Node3 -->
<g id="Node000003" class="node">
<title>Node3</title>
<g id="a_Node000003"><a xlink:href="structTTL__int__ushort__tensor__t.html" target="_top" xlink:title="const and non&#45;const tensors in the appropriate address space">
<polygon fill="white" stroke="none" points="114.5,-289.12 0,-289.12 0,-224.12 114.5,-224.12 114.5,-289.12"/>
<text text-anchor="start" x="4" y="-275.62" font-family="Helvetica,sans-Serif" font-size="10.00">TTL_int_ushort_tensor_t</text>
<text text-anchor="start" x="17.25" y="-260.38" font-family="Helvetica,sans-Serif" font-size="10.00">+</text>
<text text-anchor="start" x="40.5" y="-260.38" font-family="Helvetica,sans-Serif" font-size="10.00">base</text>
<text text-anchor="start" x="17.25" y="-245.12" font-family="Helvetica,sans-Serif" font-size="10.00">+</text>
<text text-anchor="start" x="40.5" y="-245.12" font-family="Helvetica,sans-Serif" font-size="10.00">elem_size</text>
<text text-anchor="start" x="55.75" y="-229.88" font-family="Helvetica,sans-Serif" font-size="10.00"> </text>
<polygon fill="#666666" stroke="#666666" points="0,-271.88 0,-271.88 114.5,-271.88 114.5,-271.88 0,-271.88"/>
<polygon fill="#666666" stroke="#666666" points="0,-241.38 0,-241.38 38.5,-241.38 38.5,-241.38 0,-241.38"/>
<polygon fill="#666666" stroke="#666666" points="38.5,-241.38 38.5,-241.38 114.5,-241.38 114.5,-241.38 38.5,-241.38"/>
<polygon fill="none" stroke="#666666" points="0,-224.12 0,-289.12 114.5,-289.12 114.5,-224.12 0,-224.12"/>
</a>
</g>
</g>
<!-- Node3&#45;&gt;Node2 -->
<g id="edge2_Node000002_Node000003" class="edge">
<title>Node3&#45;&gt;Node2</title>
<g id="a_edge2_Node000002_Node000003"><a xlink:title=" ">
<path fill="none" stroke="#63b8ff" d="M75.17,-224.27C82.58,-212.26 91.62,-198.7 101,-187.25 103.44,-184.27 106.06,-181.28 108.76,-178.33"/>
<polygon fill="none" stroke="#63b8ff" points="108.67,-178.43 109.94,-171.33 116.98,-169.77 115.71,-176.87 108.67,-178.43"/>
</a>
</g>
<text text-anchor="middle" x="118.62" y="-189" font-family="Helvetica,sans-Serif" font-size="10.00" fill="grey"> +tensor</text>
</g>
<!-- Node4 -->
<g id="Node000004" class="node">
<title>Node4</title>
<g id="a_Node000004"><a xlink:href="structTTL__layout__t.html" target="_top" xlink:title="Description of a Tensor layout in memory.">
<polygon fill="white" stroke="none" points="83.38,-416.62 3.12,-416.62 3.12,-351.62 83.38,-351.62 83.38,-416.62"/>
<text text-anchor="start" x="14.75" y="-403.12" font-family="Helvetica,sans-Serif" font-size="10.00">TTL_layout_t</text>
<text text-anchor="start" x="7.12" y="-387.88" font-family="Helvetica,sans-Serif" font-size="10.00">+</text>
<text text-anchor="start" x="17.12" y="-387.88" font-family="Helvetica,sans-Serif" font-size="10.00">row_spacing</text>
<text text-anchor="start" x="7.12" y="-372.62" font-family="Helvetica,sans-Serif" font-size="10.00">+</text>
<text text-anchor="start" x="17.12" y="-372.62" font-family="Helvetica,sans-Serif" font-size="10.00">plane_spacing</text>
<text text-anchor="start" x="41.75" y="-357.38" font-family="Helvetica,sans-Serif" font-size="10.00"> </text>
<polygon fill="#666666" stroke="#666666" points="3.12,-399.38 3.12,-399.38 83.38,-399.38 83.38,-399.38 3.12,-399.38"/>
<polygon fill="#666666" stroke="#666666" points="3.12,-368.88 3.12,-368.88 15.12,-368.88 15.12,-368.88 3.12,-368.88"/>
<polygon fill="#666666" stroke="#666666" points="15.12,-368.88 15.12,-368.88 83.38,-368.88 83.38,-368.88 15.12,-368.88"/>
<polygon fill="none" stroke="#666666" points="3.12,-351.62 3.12,-416.62 83.38,-416.62 83.38,-351.62 3.12,-351.62"/>
</a>
</g>
</g>
<!-- Node4&#45;&gt;Node3 -->
<g id="edge3_Node000003_Node000004" class="edge">
<title>Node4&#45;&gt;Node3</title>
<g id="a_edge3_Node000003_Node000004"><a xlink:title=" ">
<path fill="none" stroke="#63b8ff" d="M42.5,-351.72C42.57,-340.07 43.06,-326.77 44.5,-314.75 45.02,-310.38 45.73,-305.85 46.55,-301.35"/>
<polygon fill="none" stroke="#63b8ff" points="46.52,-301.5 43.8,-294.82 48.91,-289.74 51.64,-296.42 46.52,-301.5"/>
</a>
</g>
<text text-anchor="middle" x="61.38" y="-316.5" font-family="Helvetica,sans-Serif" font-size="10.00" fill="grey"> +layout</text>
</g>
<!-- Node5 -->
<g id="Node000005" class="node">
<title>Node5</title>
<g id="a_Node000005"><a xlink:href="structTTL__shape__t.html" target="_top" xlink:title="Description of a Shape.">
<polygon fill="white" stroke="none" points="175.12,-424.25 109.38,-424.25 109.38,-344 175.12,-344 175.12,-424.25"/>
<text text-anchor="start" x="113.38" y="-410.75" font-family="Helvetica,sans-Serif" font-size="10.00">TTL_shape_t</text>
<text text-anchor="start" x="118.75" y="-395.5" font-family="Helvetica,sans-Serif" font-size="10.00">+</text>
<text text-anchor="start" x="134.12" y="-395.5" font-family="Helvetica,sans-Serif" font-size="10.00">width</text>
<text text-anchor="start" x="118.75" y="-380.25" font-family="Helvetica,sans-Serif" font-size="10.00">+</text>
<text text-anchor="start" x="134.12" y="-380.25" font-family="Helvetica,sans-Serif" font-size="10.00">height</text>
<text text-anchor="start" x="118.75" y="-365" font-family="Helvetica,sans-Serif" font-size="10.00">+</text>
<text text-anchor="start" x="134.12" y="-365" font-family="Helvetica,sans-Serif" font-size="10.00">depth</text>
<text text-anchor="start" x="140.75" y="-349.75" font-family="Helvetica,sans-Serif" font-size="10.00"> </text>
<polygon fill="#666666" stroke="#666666" points="109.38,-407 109.38,-407 175.12,-407 175.12,-407 109.38,-407"/>
<polygon fill="#666666" stroke="#666666" points="109.38,-361.25 109.38,-361.25 132.12,-361.25 132.12,-361.25 109.38,-361.25"/>
<polygon fill="#666666" stroke="#666666" points="132.12,-361.25 132.12,-361.25 175.12,-361.25 175.12,-361.25 132.12,-361.25"/>
<polygon fill="none" stroke="#666666" points="109.38,-344 109.38,-424.25 175.12,-424.25 175.12,-344 109.38,-344"/>
</a>
</g>
</g>
<!-- Node5&#45;&gt;Node2 -->
<g id="edge5_Node000002_Node000005" class="edge">
<title>Node5&#45;&gt;Node2</title>
<g id="a_edge5_Node000002_Node000005"><a xlink:title=" ">
<path fill="none" stroke="#63b8ff" d="M143.54,-344.02C144.99,-299.72 147.36,-227.78 148.86,-182.16"/>
<polygon fill="none" stroke="#63b8ff" points="148.86,-182.08 145.06,-175.95 149.25,-170.09 153.05,-176.22 148.86,-182.08"/>
</a>
</g>
<text text-anchor="middle" x="164.94" y="-252.75" font-family="Helvetica,sans-Serif" font-size="10.00" fill="grey"> +shape</text>
</g>
<!-- Node5&#45;&gt;Node3 -->
<g id="edge4_Node000003_Node000005" class="edge">
<title>Node5&#45;&gt;Node3</title>
<g id="a_edge4_Node000003_Node000005"><a xlink:title=" ">
<path fill="none" stroke="#63b8ff" d="M114.37,-344.24C110.11,-338.16 105.78,-331.93 101.75,-326 96.04,-317.6 90.04,-308.54 84.35,-299.85"/>
<polygon fill="none" stroke="#63b8ff" points="84.41,-299.93 77.78,-297.08 77.86,-289.87 84.49,-292.72 84.41,-299.93"/>
</a>
</g>
<text text-anchor="middle" x="119" y="-316.5" font-family="Helvetica,sans-Serif" font-size="10.00" fill="grey"> +shape</text>
</g>
<!-- Node6 -->
<g id="Node000006" class="node">
<title>Node6</title>
<g id="a_Node000006"><a xlink:href="structTTL__offset__t.html" target="_top" xlink:title="Description of the 3D offset of an object.">
<polygon fill="white" stroke="none" points="266,-296.75 202.5,-296.75 202.5,-216.5 266,-216.5 266,-296.75"/>
<text text-anchor="start" x="206.5" y="-283.25" font-family="Helvetica,sans-Serif" font-size="10.00">TTL_offset_t</text>
<text text-anchor="start" x="216.75" y="-268" font-family="Helvetica,sans-Serif" font-size="10.00">+</text>
<text text-anchor="start" x="237" y="-268" font-family="Helvetica,sans-Serif" font-size="10.00">x</text>
<text text-anchor="start" x="216.75" y="-252.75" font-family="Helvetica,sans-Serif" font-size="10.00">+</text>
<text text-anchor="start" x="237" y="-252.75" font-family="Helvetica,sans-Serif" font-size="10.00">y</text>
<text text-anchor="start" x="216.75" y="-237.5" font-family="Helvetica,sans-Serif" font-size="10.00">+</text>
<text text-anchor="start" x="237" y="-237.5" font-family="Helvetica,sans-Serif" font-size="10.00">z</text>
<text text-anchor="start" x="232.75" y="-222.25" font-family="Helvetica,sans-Serif" font-size="10.00"> </text>
<polygon fill="#666666" stroke="#666666" points="202.5,-279.5 202.5,-279.5 266,-279.5 266,-279.5 202.5,-279.5"/>
<polygon fill="#666666" stroke="#666666" points="202.5,-233.75 202.5,-233.75 235,-233.75 235,-233.75 202.5,-233.75"/>
<polygon fill="#666666" stroke="#666666" points="235,-233.75 235,-233.75 266,-233.75 266,-233.75 235,-233.75"/>
<polygon fill="none" stroke="#666666" points="202.5,-216.5 202.5,-296.75 266,-296.75 266,-216.5 202.5,-216.5"/>
</a>
</g>
</g>
<!-- Node6&#45;&gt;Node2 -->
<g id="edge6_Node000002_Node000006" class="edge">
<title>Node6&#45;&gt;Node2</title>
<g id="a_edge6_Node000002_Node000006"><a xlink:title=" ">
<path fill="none" stroke="#63b8ff" d="M206.05,-216.72C197.35,-204.72 187.76,-191.49 179.02,-179.44"/>
<polygon fill="none" stroke="#63b8ff" points="179.18,-179.65 172.42,-177.14 172.13,-169.94 178.89,-172.45 179.18,-179.65"/>
</a>
</g>
<text text-anchor="middle" x="218.88" y="-189" font-family="Helvetica,sans-Serif" font-size="10.00" fill="grey"> +sub_offset</text>
</g>
</g>
</svg>
