<?xml version="1.0" encoding="UTF-8" standalone="no"?>
<!DOCTYPE svg PUBLIC "-//W3C//DTD SVG 1.1//EN"
 "http://www.w3.org/Graphics/SVG/1.1/DTD/svg11.dtd">
<!-- Generated by graphviz version 12.0.0 (20240704.0754)
 -->
<!-- Title: TTL_int_uint_sub_tensor_t Pages: 1 -->
<svg width="273pt" height="310pt"
 viewBox="0.00 0.00 272.50 309.50" xmlns="http://www.w3.org/2000/svg" xmlns:xlink="http://www.w3.org/1999/xlink">
<g id="graph0" class="graph" transform="scale(1 1) rotate(0) translate(4 305.5)">
<title>TTL_int_uint_sub_tensor_t</title>
<!-- Node1 -->
<g id="Node000001" class="node">
<title>Node1</title>
<g id="a_Node000001"><a xlink:title="const and non&#45;const sub tensors in the appropriate address space">
<polygon fill="#999999" stroke="none" points="210,-49 84,-49 84,0 210,0 210,-49"/>
<text text-anchor="start" x="88.88" y="-35.5" font-family="Helvetica,sans-Serif" font-size="10.00">TTL_int_uint_sub_tensor_t</text>
<text text-anchor="start" x="109" y="-20.5" font-family="Helvetica,sans-Serif" font-size="10.00">+</text>
<text text-anchor="start" x="140" y="-20.5" font-family="Helvetica,sans-Serif" font-size="10.00">origin</text>
<text text-anchor="start" x="145.5" y="-5.5" font-family="Helvetica,sans-Serif" font-size="10.00"> </text>
<polygon fill="#666666" stroke="#666666" points="84,-32 84,-32 210,-32 210,-32 84,-32"/>
<polygon fill="#666666" stroke="#666666" points="84,-17 84,-17 138,-17 138,-17 84,-17"/>
<polygon fill="#666666" stroke="#666666" points="138,-17 138,-17 210,-17 210,-17 138,-17"/>
<polygon fill="none" stroke="#666666" points="84,0 84,-49 210,-49 210,0 84,0"/>
</a>
</g>
</g>
<!-- Node2 -->
<g id="Node000002" class="node">
<title>Node2</title>
<g id="a_Node000002"><a xlink:href="structTTL__int__uint__tensor__t.html" target="_top" xlink:title="const and non&#45;const tensors in the appropriate address space">
<polygon fill="white" stroke="none" points="110.5,-167.75 5.5,-167.75 5.5,-103.75 110.5,-103.75 110.5,-167.75"/>
<text text-anchor="start" x="10.38" y="-154.25" font-family="Helvetica,sans-Serif" font-size="10.00">TTL_int_uint_tensor_t</text>
<text text-anchor="start" x="20.5" y="-139.25" font-family="Helvetica,sans-Serif" font-size="10.00">+</text>
<text text-anchor="start" x="41.5" y="-139.25" font-family="Helvetica,sans-Serif" font-size="10.00">base</text>
<text text-anchor="start" x="20.5" y="-124.25" font-family="Helvetica,sans-Serif" font-size="10.00">+</text>
<text text-anchor="start" x="41.5" y="-124.25" font-family="Helvetica,sans-Serif" font-size="10.00">elem_size</text>
<text text-anchor="start" x="56.5" y="-109.25" font-family="Helvetica,sans-Serif" font-size="10.00"> </text>
<polygon fill="#666666" stroke="#666666" points="5.5,-150.75 5.5,-150.75 110.5,-150.75 110.5,-150.75 5.5,-150.75"/>
<polygon fill="#666666" stroke="#666666" points="5.5,-120.75 5.5,-120.75 39.5,-120.75 39.5,-120.75 5.5,-120.75"/>
<polygon fill="#666666" stroke="#666666" points="39.5,-120.75 39.5,-120.75 110.5,-120.75 110.5,-120.75 39.5,-120.75"/>
<polygon fill="none" stroke="#666666" points="5.5,-103.75 5.5,-167.75 110.5,-167.75 110.5,-103.75 5.5,-103.75"/>
</a>
</g>
</g>
<!-- Node2&#45;&gt;Node1 -->
<g id="edge1_Node000001_Node000002" class="edge">
<title>Node2&#45;&gt;Node1</title>
<g id="a_edge1_Node000001_Node000002"><a xlink:title=" ">
<path fill="none" stroke="#63b8ff" d="M73.16,-103.95C79.86,-91.82 88.34,-78.15 97.75,-67 100.45,-63.79 103.42,-60.64 106.52,-57.58"/>
<polygon fill="none" stroke="#63b8ff" points="106.58,-57.53 108.28,-50.52 115.4,-49.4 113.7,-56.41 106.58,-57.53"/>
</a>
</g>
<text text-anchor="middle" x="115.62" y="-68.75" font-family="Helvetica,sans-Serif" font-size="10.00" fill="grey"> +tensor</text>
</g>
<!-- Node3 -->
<g id="Node000003" class="node">
<title>Node3</title>
<g id="a_Node000003"><a xlink:href="structTTL__layout__t.html" target="_top" xlink:title="Description of a Tensor layout in memory.">
<polygon fill="white" stroke="none" points="80,-294 0,-294 0,-230 80,-230 80,-294"/>
<text text-anchor="start" x="11.5" y="-280.5" font-family="Helvetica,sans-Serif" font-size="10.00">TTL_layout_t</text>
<text text-anchor="start" x="4" y="-265.5" font-family="Helvetica,sans-Serif" font-size="10.00">+</text>
<text text-anchor="start" x="14" y="-265.5" font-family="Helvetica,sans-Serif" font-size="10.00">row_spacing</text>
<text text-anchor="start" x="4" y="-250.5" font-family="Helvetica,sans-Serif" font-size="10.00">+</text>
<text text-anchor="start" x="14" y="-250.5" font-family="Helvetica,sans-Serif" font-size="10.00">plane_spacing</text>
<text text-anchor="start" x="38.5" y="-235.5" font-family="Helvetica,sans-Serif" font-size="10.00"> </text>
<polygon fill="#666666" stroke="#666666" points="0,-277 0,-277 80,-277 80,-277 0,-277"/>
<polygon fill="#666666" stroke="#666666" points="0,-247 0,-247 12,-247 12,-247 0,-247"/>
<polygon fill="#666666" stroke="#666666" points="12,-247 12,-247 80,-247 80,-247 12,-247"/>
<polygon fill="none" stroke="#666666" points="0,-230 0,-294 80,-294 80,-230 0,-230"/>
</a>
</g>
</g>
<!-- Node3&#45;&gt;Node2 -->
<g id="edge2_Node000002_Node000003" class="edge">
<title>Node3&#45;&gt;Node2</title>
<g id="a_edge2_Node000002_Node000003"><a xlink:title=" ">
<path fill="none" stroke="#63b8ff" d="M38.82,-230.16C38.84,-218.53 39.4,-205.22 41.25,-193.25 41.93,-188.87 42.85,-184.36 43.93,-179.88"/>
<polygon fill="none" stroke="#63b8ff" points="43.91,-179.95 41.6,-173.12 47.02,-168.36 49.33,-175.19 43.91,-179.95"/>
</a>
</g>
<text text-anchor="middle" x="58.88" y="-195" font-family="Helvetica,sans-Serif" font-size="10.00" fill="grey"> +layout</text>
</g>
<!-- Node4 -->
<g id="Node000004" class="node">
<title>Node4</title>
<g id="a_Node000004"><a xlink:href="structTTL__shape__t.html" target="_top" xlink:title="Description of a Shape.">
<polygon fill="white" stroke="none" points="172.5,-301.5 105.5,-301.5 105.5,-222.5 172.5,-222.5 172.5,-301.5"/>
<text text-anchor="start" x="110.12" y="-288" font-family="Helvetica,sans-Serif" font-size="10.00">TTL_shape_t</text>
<text text-anchor="start" x="115" y="-273" font-family="Helvetica,sans-Serif" font-size="10.00">+</text>
<text text-anchor="start" x="130.5" y="-273" font-family="Helvetica,sans-Serif" font-size="10.00">width</text>
<text text-anchor="start" x="115" y="-258" font-family="Helvetica,sans-Serif" font-size="10.00">+</text>
<text text-anchor="start" x="130.5" y="-258" font-family="Helvetica,sans-Serif" font-size="10.00">height</text>
<text text-anchor="start" x="115" y="-243" font-family="Helvetica,sans-Serif" font-size="10.00">+</text>
<text text-anchor="start" x="130.5" y="-243" font-family="Helvetica,sans-Serif" font-size="10.00">depth</text>
<text text-anchor="start" x="137.5" y="-228" font-family="Helvetica,sans-Serif" font-size="10.00"> </text>
<polygon fill="#666666" stroke="#666666" points="105.5,-284.5 105.5,-284.5 172.5,-284.5 172.5,-284.5 105.5,-284.5"/>
<polygon fill="#666666" stroke="#666666" points="105.5,-239.5 105.5,-239.5 128.5,-239.5 128.5,-239.5 105.5,-239.5"/>
<polygon fill="#666666" stroke="#666666" points="128.5,-239.5 128.5,-239.5 172.5,-239.5 172.5,-239.5 128.5,-239.5"/>
<polygon fill="none" stroke="#666666" points="105.5,-222.5 105.5,-301.5 172.5,-301.5 172.5,-222.5 105.5,-222.5"/>
</a>
</g>
</g>
<!-- Node4&#45;&gt;Node1 -->
<g id="edge4_Node000001_Node000004" class="edge">
<title>Node4&#45;&gt;Node1</title>
<g id="a_edge4_Node000001_Node000004"><a xlink:title=" ">
<path fill="none" stroke="#63b8ff" d="M140.3,-222.64C141.82,-178.09 144.29,-105.15 145.77,-61.59"/>
<polygon fill="none" stroke="#63b8ff" points="145.77,-61.71 141.98,-55.58 146.18,-49.72 149.97,-55.85 145.77,-61.71"/>
</a>
</g>
<text text-anchor="middle" x="162.25" y="-131.88" font-family="Helvetica,sans-Serif" font-size="10.00" fill="grey"> +shape</text>
</g>
<!-- Node4&#45;&gt;Node2 -->
<g id="edge3_Node000002_Node000004" class="edge">
<title>Node4&#45;&gt;Node2</title>
<g id="a_edge3_Node000002_Node000004"><a xlink:title=" ">
<path fill="none" stroke="#63b8ff" d="M110.9,-222.7C106.66,-216.67 102.4,-210.45 98.5,-204.5 93.07,-196.21 87.47,-187.2 82.24,-178.54"/>
<polygon fill="none" stroke="#63b8ff" points="82.23,-178.51 75.72,-175.41 76.08,-168.21 82.59,-171.31 82.23,-178.51"/>
</a>
</g>
<text text-anchor="middle" x="116.25" y="-195" font-family="Helvetica,sans-Serif" font-size="10.00" fill="grey"> +shape</text>
</g>
<!-- Node5 -->
<g id="Node000005" class="node">
<title>Node5</title>
<g id="a_Node000005"><a xlink:href="structTTL__offset__t.html" target="_top" xlink:title="Description of the 3D offset of an object.">
<polygon fill="white" stroke="none" points="264.5,-175.25 199.5,-175.25 199.5,-96.25 264.5,-96.25 264.5,-175.25"/>
<text text-anchor="start" x="204.25" y="-161.75" font-family="Helvetica,sans-Serif" font-size="10.00">TTL_offset_t</text>
<text text-anchor="start" x="214" y="-146.75" font-family="Helvetica,sans-Serif" font-size="10.00">+</text>
<text text-anchor="start" x="234.5" y="-146.75" font-family="Helvetica,sans-Serif" font-size="10.00">x</text>
<text text-anchor="start" x="214" y="-131.75" font-family="Helvetica,sans-Serif" font-size="10.00">+</text>
<text text-anchor="start" x="234.5" y="-131.75" font-family="Helvetica,sans-Serif" font-size="10.00">y</text>
<text text-anchor="start" x="214" y="-116.75" font-family="Helvetica,sans-Serif" font-size="10.00">+</text>
<text text-anchor="start" x="234.5" y="-116.75" font-family="Helvetica,sans-Serif" font-size="10.00">z</text>
<text text-anchor="start" x="230.5" y="-101.75" font-family="Helvetica,sans-Serif" font-size="10.00"> </text>
<polygon fill="#666666" stroke="#666666" points="199.5,-158.25 199.5,-158.25 264.5,-158.25 264.5,-158.25 199.5,-158.25"/>
<polygon fill="#666666" stroke="#666666" points="199.5,-113.25 199.5,-113.25 232.5,-113.25 232.5,-113.25 199.5,-113.25"/>
<polygon fill="#666666" stroke="#666666" points="232.5,-113.25 232.5,-113.25 264.5,-113.25 264.5,-113.25 232.5,-113.25"/>
<polygon fill="none" stroke="#666666" points="199.5,-96.25 199.5,-175.25 264.5,-175.25 264.5,-96.25 199.5,-96.25"/>
</a>
</g>
</g>
<!-- Node5&#45;&gt;Node1 -->
<g id="edge5_Node000001_Node000005" class="edge">
<title>Node5&#45;&gt;Node1</title>
<g id="a_edge5_Node000001_Node000005"><a xlink:title=" ">
<path fill="none" stroke="#63b8ff" d="M202.27,-96.54C192.72,-84.26 182.22,-70.76 172.96,-58.86"/>
<polygon fill="none" stroke="#63b8ff" points="173.11,-59.06 166.27,-56.79 165.75,-49.59 172.59,-51.87 173.11,-59.06"/>
</a>
</g>
<text text-anchor="middle" x="212.62" y="-68.75" font-family="Helvetica,sans-Serif" font-size="10.00" fill="grey"> +sub_offset</text>
</g>
</g>
</svg>
