<?xml version="1.0" encoding="UTF-8" standalone="no"?>
<!DOCTYPE svg PUBLIC "-//W3C//DTD SVG 1.1//EN"
 "http://www.w3.org/Graphics/SVG/1.1/DTD/svg11.dtd">
<!-- Generated by graphviz version 12.2.1 (20241206.2353)
 -->
<!-- Title: TTL_export_double_const_uint_tensor_buffering_t Pages: 1 -->
<svg width="254pt" height="366pt"
 viewBox="0.00 0.00 253.88 365.75" xmlns="http://www.w3.org/2000/svg" xmlns:xlink="http://www.w3.org/1999/xlink">
<g id="graph0" class="graph" transform="scale(1 1) rotate(0) translate(4 361.75)">
<title>TTL_export_double_const_uint_tensor_buffering_t</title>
<!-- Node1 -->
<g id="Node000001" class="node">
<title>Node1</title>
<g id="a_Node000001"><a xlink:title="Data required to perform double buffer pipelining.">
<polygon fill="#999999" stroke="none" points="186.38,-106.75 65.88,-106.75 65.88,0 186.38,0 186.38,-106.75"/>
<text text-anchor="start" x="69.88" y="-93.25" font-family="Helvetica,sans-Serif" font-size="10.00">TTL_export_double_const</text>
<text text-anchor="start" x="74.38" y="-82" font-family="Helvetica,sans-Serif" font-size="10.00">_uint_tensor_buffering_t</text>
<text text-anchor="start" x="86.12" y="-66.75" font-family="Helvetica,sans-Serif" font-size="10.00">+</text>
<text text-anchor="start" x="112.38" y="-66.75" font-family="Helvetica,sans-Serif" font-size="10.00">index</text>
<text text-anchor="start" x="86.12" y="-51.5" font-family="Helvetica,sans-Serif" font-size="10.00">+</text>
<text text-anchor="start" x="112.38" y="-51.5" font-family="Helvetica,sans-Serif" font-size="10.00">int_base</text>
<text text-anchor="start" x="86.12" y="-36.25" font-family="Helvetica,sans-Serif" font-size="10.00">+</text>
<text text-anchor="start" x="112.38" y="-36.25" font-family="Helvetica,sans-Serif" font-size="10.00">common</text>
<text text-anchor="start" x="86.12" y="-21" font-family="Helvetica,sans-Serif" font-size="10.00">+</text>
<text text-anchor="start" x="112.38" y="-21" font-family="Helvetica,sans-Serif" font-size="10.00">event</text>
<text text-anchor="start" x="124.62" y="-5.75" font-family="Helvetica,sans-Serif" font-size="10.00"> </text>
<polygon fill="#666666" stroke="#666666" points="65.88,-78.25 65.88,-78.25 186.38,-78.25 186.38,-78.25 65.88,-78.25"/>
<polygon fill="#666666" stroke="#666666" points="65.88,-17.25 65.88,-17.25 110.38,-17.25 110.38,-17.25 65.88,-17.25"/>
<polygon fill="#666666" stroke="#666666" points="110.38,-17.25 110.38,-17.25 186.38,-17.25 186.38,-17.25 110.38,-17.25"/>
<polygon fill="none" stroke="#666666" points="65.88,0 65.88,-106.75 186.38,-106.75 186.38,0 65.88,0"/>
</a>
</g>
</g>
<!-- Node2 -->
<g id="Node000002" class="node">
<title>Node2</title>
<g id="a_Node000002"><a xlink:href="structTTL__ext__uint__tensor__t.html" target="_top" xlink:title="const and non&#45;const tensors in the appropriate address space">
<polygon fill="white" stroke="none" points="130.88,-230.25 25.38,-230.25 25.38,-165.25 130.88,-165.25 130.88,-230.25"/>
<text text-anchor="start" x="29.38" y="-216.75" font-family="Helvetica,sans-Serif" font-size="10.00">TTL_ext_uint_tensor_t</text>
<text text-anchor="start" x="40.38" y="-201.5" font-family="Helvetica,sans-Serif" font-size="10.00">+</text>
<text text-anchor="start" x="61.38" y="-201.5" font-family="Helvetica,sans-Serif" font-size="10.00">base</text>
<text text-anchor="start" x="40.38" y="-186.25" font-family="Helvetica,sans-Serif" font-size="10.00">+</text>
<text text-anchor="start" x="61.38" y="-186.25" font-family="Helvetica,sans-Serif" font-size="10.00">elem_size</text>
<text text-anchor="start" x="76.62" y="-171" font-family="Helvetica,sans-Serif" font-size="10.00"> </text>
<polygon fill="#666666" stroke="#666666" points="25.38,-213 25.38,-213 130.88,-213 130.88,-213 25.38,-213"/>
<polygon fill="#666666" stroke="#666666" points="25.38,-182.5 25.38,-182.5 59.38,-182.5 59.38,-182.5 25.38,-182.5"/>
<polygon fill="#666666" stroke="#666666" points="59.38,-182.5 59.38,-182.5 130.88,-182.5 130.88,-182.5 59.38,-182.5"/>
<polygon fill="none" stroke="#666666" points="25.38,-165.25 25.38,-230.25 130.88,-230.25 130.88,-165.25 25.38,-165.25"/>
</a>
</g>
</g>
<!-- Node2&#45;&gt;Node1 -->
<g id="edge1_Node000001_Node000002" class="edge">
<title>Node2&#45;&gt;Node1</title>
<g id="a_edge1_Node000001_Node000002"><a xlink:title=" ">
<path fill="none" stroke="#63b8ff" d="M76.64,-165.3C76.88,-152.47 78.28,-137.64 82.38,-124.75 83.08,-122.53 83.87,-120.31 84.73,-118.1"/>
<polygon fill="none" stroke="#63b8ff" points="84.69,-118.2 83.48,-111.09 89.58,-107.24 90.79,-114.35 84.69,-118.2"/>
</a>
</g>
<text text-anchor="middle" x="117.25" y="-137.75" font-family="Helvetica,sans-Serif" font-size="10.00" fill="grey"> +ext_tensor_in</text>
<text text-anchor="middle" x="117.25" y="-126.5" font-family="Helvetica,sans-Serif" font-size="10.00" fill="grey">+ext_tensor_out</text>
</g>
<!-- Node3 -->
<g id="Node000003" class="node">
<title>Node3</title>
<g id="a_Node000003"><a xlink:href="structTTL__layout__t.html" target="_top" xlink:title="Description of a Tensor layout in memory.">
<polygon fill="white" stroke="none" points="80.25,-350.12 0,-350.12 0,-285.12 80.25,-285.12 80.25,-350.12"/>
<text text-anchor="start" x="11.62" y="-336.62" font-family="Helvetica,sans-Serif" font-size="10.00">TTL_layout_t</text>
<text text-anchor="start" x="4" y="-321.38" font-family="Helvetica,sans-Serif" font-size="10.00">+</text>
<text text-anchor="start" x="14" y="-321.38" font-family="Helvetica,sans-Serif" font-size="10.00">row_spacing</text>
<text text-anchor="start" x="4" y="-306.12" font-family="Helvetica,sans-Serif" font-size="10.00">+</text>
<text text-anchor="start" x="14" y="-306.12" font-family="Helvetica,sans-Serif" font-size="10.00">plane_spacing</text>
<text text-anchor="start" x="38.62" y="-290.88" font-family="Helvetica,sans-Serif" font-size="10.00"> </text>
<polygon fill="#666666" stroke="#666666" points="0,-332.88 0,-332.88 80.25,-332.88 80.25,-332.88 0,-332.88"/>
<polygon fill="#666666" stroke="#666666" points="0,-302.38 0,-302.38 12,-302.38 12,-302.38 0,-302.38"/>
<polygon fill="#666666" stroke="#666666" points="12,-302.38 12,-302.38 80.25,-302.38 80.25,-302.38 12,-302.38"/>
<polygon fill="none" stroke="#666666" points="0,-285.12 0,-350.12 80.25,-350.12 80.25,-285.12 0,-285.12"/>
</a>
</g>
</g>
<!-- Node3&#45;&gt;Node2 -->
<g id="edge2_Node000002_Node000003" class="edge">
<title>Node3&#45;&gt;Node2</title>
<g id="a_edge2_Node000002_Node000003"><a xlink:title=" ">
<path fill="none" stroke="#63b8ff" d="M37.34,-285.3C37.26,-273.42 38.38,-259.94 42.38,-248.25 43.14,-246.01 44.04,-243.79 45.05,-241.6"/>
<polygon fill="none" stroke="#63b8ff" points="45.09,-241.53 44.48,-234.35 50.88,-231.02 51.49,-238.21 45.09,-241.53"/>
</a>
</g>
<text text-anchor="middle" x="59.25" y="-250" font-family="Helvetica,sans-Serif" font-size="10.00" fill="grey"> +layout</text>
</g>
<!-- Node4 -->
<g id="Node000004" class="node">
<title>Node4</title>
<g id="a_Node000004"><a xlink:href="structTTL__shape__t.html" target="_top" xlink:title="Description of a Shape.">
<polygon fill="white" stroke="none" points="164,-357.75 98.25,-357.75 98.25,-277.5 164,-277.5 164,-357.75"/>
<text text-anchor="start" x="102.25" y="-344.25" font-family="Helvetica,sans-Serif" font-size="10.00">TTL_shape_t</text>
<text text-anchor="start" x="107.62" y="-329" font-family="Helvetica,sans-Serif" font-size="10.00">+</text>
<text text-anchor="start" x="123" y="-329" font-family="Helvetica,sans-Serif" font-size="10.00">width</text>
<text text-anchor="start" x="107.62" y="-313.75" font-family="Helvetica,sans-Serif" font-size="10.00">+</text>
<text text-anchor="start" x="123" y="-313.75" font-family="Helvetica,sans-Serif" font-size="10.00">height</text>
<text text-anchor="start" x="107.62" y="-298.5" font-family="Helvetica,sans-Serif" font-size="10.00">+</text>
<text text-anchor="start" x="123" y="-298.5" font-family="Helvetica,sans-Serif" font-size="10.00">depth</text>
<text text-anchor="start" x="129.62" y="-283.25" font-family="Helvetica,sans-Serif" font-size="10.00"> </text>
<polygon fill="#666666" stroke="#666666" points="98.25,-340.5 98.25,-340.5 164,-340.5 164,-340.5 98.25,-340.5"/>
<polygon fill="#666666" stroke="#666666" points="98.25,-294.75 98.25,-294.75 121,-294.75 121,-294.75 98.25,-294.75"/>
<polygon fill="#666666" stroke="#666666" points="121,-294.75 121,-294.75 164,-294.75 164,-294.75 121,-294.75"/>
<polygon fill="none" stroke="#666666" points="98.25,-277.5 98.25,-357.75 164,-357.75 164,-277.5 98.25,-277.5"/>
</a>
</g>
</g>
<!-- Node4&#45;&gt;Node2 -->
<g id="edge3_Node000002_Node000004" class="edge">
<title>Node4&#45;&gt;Node2</title>
<g id="a_edge3_Node000002_Node000004"><a xlink:title=" ">
<path fill="none" stroke="#63b8ff" d="M113.62,-277.7C108.48,-266.25 102.82,-253.66 97.56,-241.97"/>
<polygon fill="none" stroke="#63b8ff" points="97.55,-241.95 91.44,-238.12 92.63,-231 98.74,-234.84 97.55,-241.95"/>
</a>
</g>
<text text-anchor="middle" x="121.88" y="-250" font-family="Helvetica,sans-Serif" font-size="10.00" fill="grey"> +shape</text>
</g>
<!-- Node5 -->
<g id="Node000005" class="node">
<title>Node5</title>
<g id="a_Node000005"><a xlink:href="structTTL__tile__t.html" target="_top" xlink:title=" ">
<polygon fill="white" stroke="none" points="201.25,-222.62 149,-222.62 149,-172.88 201.25,-172.88 201.25,-222.62"/>
<text text-anchor="start" x="153" y="-209.12" font-family="Helvetica,sans-Serif" font-size="10.00">TTL_tile_t</text>
<text text-anchor="start" x="173.62" y="-193.88" font-family="Helvetica,sans-Serif" font-size="10.00"> </text>
<text text-anchor="start" x="173.62" y="-178.62" font-family="Helvetica,sans-Serif" font-size="10.00"> </text>
<polygon fill="#666666" stroke="#666666" points="149,-205.38 149,-205.38 201.25,-205.38 201.25,-205.38 149,-205.38"/>
<polygon fill="#666666" stroke="#666666" points="149,-190.12 149,-190.12 201.25,-190.12 201.25,-190.12 149,-190.12"/>
<polygon fill="none" stroke="#666666" points="149,-172.88 149,-222.62 201.25,-222.62 201.25,-172.88 149,-172.88"/>
</a>
</g>
</g>
<!-- Node4&#45;&gt;Node5 -->
<g id="edge5_Node000005_Node000004" class="edge">
<title>Node4&#45;&gt;Node5</title>
<g id="a_edge5_Node000005_Node000004"><a xlink:title=" ">
<path fill="none" stroke="#63b8ff" d="M143.24,-277.72C146.45,-268.03 150.02,-257.71 153.62,-248.25 155.41,-243.56 157.39,-238.66 159.41,-233.85"/>
<polygon fill="none" stroke="#63b8ff" points="159.31,-234.09 158,-227 164.04,-223.06 165.35,-230.16 159.31,-234.09"/>
</a>
</g>
<text text-anchor="middle" x="170.88" y="-250" font-family="Helvetica,sans-Serif" font-size="10.00" fill="grey"> +shape</text>
</g>
<!-- Node5&#45;&gt;Node1 -->
<g id="edge4_Node000001_Node000005" class="edge">
<title>Node5&#45;&gt;Node1</title>
<g id="a_edge4_Node000001_Node000005"><a xlink:title=" ">
<path fill="none" stroke="#63b8ff" d="M167.83,-172.99C163.43,-158.91 157.64,-140.76 152.12,-124.75 151.43,-122.72 150.71,-120.66 149.98,-118.57"/>
<polygon fill="none" stroke="#63b8ff" points="150.02,-118.7 144.24,-114.39 146,-107.4 151.78,-111.71 150.02,-118.7"/>
</a>
</g>
<text text-anchor="middle" x="181.87" y="-132.12" font-family="Helvetica,sans-Serif" font-size="10.00" fill="grey"> +prev_tile</text>
</g>
<!-- Node6 -->
<g id="Node000006" class="node">
<title>Node6</title>
<g id="a_Node000006"><a xlink:href="structTTL__offset__t.html" target="_top" xlink:title="Description of the 3D offset of an object.">
<polygon fill="white" stroke="none" points="245.88,-357.75 182.38,-357.75 182.38,-277.5 245.88,-277.5 245.88,-357.75"/>
<text text-anchor="start" x="186.38" y="-344.25" font-family="Helvetica,sans-Serif" font-size="10.00">TTL_offset_t</text>
<text text-anchor="start" x="196.62" y="-329" font-family="Helvetica,sans-Serif" font-size="10.00">+</text>
<text text-anchor="start" x="216.88" y="-329" font-family="Helvetica,sans-Serif" font-size="10.00">x</text>
<text text-anchor="start" x="196.62" y="-313.75" font-family="Helvetica,sans-Serif" font-size="10.00">+</text>
<text text-anchor="start" x="216.88" y="-313.75" font-family="Helvetica,sans-Serif" font-size="10.00">y</text>
<text text-anchor="start" x="196.62" y="-298.5" font-family="Helvetica,sans-Serif" font-size="10.00">+</text>
<text text-anchor="start" x="216.88" y="-298.5" font-family="Helvetica,sans-Serif" font-size="10.00">z</text>
<text text-anchor="start" x="212.62" y="-283.25" font-family="Helvetica,sans-Serif" font-size="10.00"> </text>
<polygon fill="#666666" stroke="#666666" points="182.38,-340.5 182.38,-340.5 245.88,-340.5 245.88,-340.5 182.38,-340.5"/>
<polygon fill="#666666" stroke="#666666" points="182.38,-294.75 182.38,-294.75 214.88,-294.75 214.88,-294.75 182.38,-294.75"/>
<polygon fill="#666666" stroke="#666666" points="214.88,-294.75 214.88,-294.75 245.88,-294.75 245.88,-294.75 214.88,-294.75"/>
<polygon fill="none" stroke="#666666" points="182.38,-277.5 182.38,-357.75 245.88,-357.75 245.88,-277.5 182.38,-277.5"/>
</a>
</g>
</g>
<!-- Node6&#45;&gt;Node5 -->
<g id="edge6_Node000005_Node000006" class="edge">
<title>Node6&#45;&gt;Node5</title>
<g id="a_edge6_Node000005_Node000006"><a xlink:title=" ">
<path fill="none" stroke="#63b8ff" d="M201.69,-277.53C198.6,-267.94 195.27,-257.72 192.12,-248.25 190.63,-243.76 189.04,-239.05 187.46,-234.39"/>
<polygon fill="none" stroke="#63b8ff" points="187.53,-234.59 181.8,-230.21 183.64,-223.24 189.37,-227.62 187.53,-234.59"/>
</a>
</g>
<text text-anchor="middle" x="211.93" y="-250" font-family="Helvetica,sans-Serif" font-size="10.00" fill="grey"> +offset</text>
</g>
</g>
</svg>
