<?xml version="1.0" encoding="UTF-8" standalone="no"?>
<!DOCTYPE svg PUBLIC "-//W3C//DTD SVG 1.1//EN"
 "http://www.w3.org/Graphics/SVG/1.1/DTD/svg11.dtd">
<!-- Generated by graphviz version 12.2.1 (20241206.2353)
 -->
<!-- Title: TTL_const_int_int_sub_tensor_t Pages: 1 -->
<svg width="287pt" height="324pt"
 viewBox="0.00 0.00 287.38 324.00" xmlns="http://www.w3.org/2000/svg" xmlns:xlink="http://www.w3.org/1999/xlink">
<g id="graph0" class="graph" transform="scale(1 1) rotate(0) translate(4 320)">
<title>TTL_const_int_int_sub_tensor_t</title>
<!-- Node1 -->
<g id="Node000001" class="node">
<title>Node1</title>
<g id="a_Node000001"><a xlink:title=" ">
<polygon fill="#999999" stroke="none" points="217.5,-61 109.75,-61 109.75,0 217.5,0 217.5,-61"/>
<text text-anchor="start" x="113.75" y="-47.5" font-family="Helvetica,sans-Serif" font-size="10.00">TTL_const_int_int_sub</text>
<text text-anchor="start" x="143.38" y="-36.25" font-family="Helvetica,sans-Serif" font-size="10.00">_tensor_t</text>
<text text-anchor="start" x="130.38" y="-21" font-family="Helvetica,sans-Serif" font-size="10.00">+</text>
<text text-anchor="start" x="157" y="-21" font-family="Helvetica,sans-Serif" font-size="10.00">origin</text>
<text text-anchor="start" x="162.12" y="-5.75" font-family="Helvetica,sans-Serif" font-size="10.00"> </text>
<polygon fill="#666666" stroke="#666666" points="109.75,-32.5 109.75,-32.5 217.5,-32.5 217.5,-32.5 109.75,-32.5"/>
<polygon fill="#666666" stroke="#666666" points="109.75,-17.25 109.75,-17.25 155,-17.25 155,-17.25 109.75,-17.25"/>
<polygon fill="#666666" stroke="#666666" points="155,-17.25 155,-17.25 217.5,-17.25 217.5,-17.25 155,-17.25"/>
<polygon fill="none" stroke="#666666" points="109.75,0 109.75,-61 217.5,-61 217.5,0 109.75,0"/>
</a>
</g>
</g>
<!-- Node2 -->
<g id="Node000002" class="node">
<title>Node2</title>
<g id="a_Node000002"><a xlink:href="structTTL__const__int__int__tensor__t.html" target="_top" xlink:title=" ">
<polygon fill="white" stroke="none" points="127.25,-180.88 0,-180.88 0,-115.88 127.25,-115.88 127.25,-180.88"/>
<text text-anchor="start" x="4" y="-167.38" font-family="Helvetica,sans-Serif" font-size="10.00">TTL_const_int_int_tensor_t</text>
<text text-anchor="start" x="20.44" y="-152.12" font-family="Helvetica,sans-Serif" font-size="10.00">+</text>
<text text-anchor="start" x="46.88" y="-152.12" font-family="Helvetica,sans-Serif" font-size="10.00">base</text>
<text text-anchor="start" x="20.44" y="-136.88" font-family="Helvetica,sans-Serif" font-size="10.00">+</text>
<text text-anchor="start" x="46.88" y="-136.88" font-family="Helvetica,sans-Serif" font-size="10.00">elem_size</text>
<text text-anchor="start" x="62.12" y="-121.62" font-family="Helvetica,sans-Serif" font-size="10.00"> </text>
<polygon fill="#666666" stroke="#666666" points="0,-163.62 0,-163.62 127.25,-163.62 127.25,-163.62 0,-163.62"/>
<polygon fill="#666666" stroke="#666666" points="0,-133.12 0,-133.12 44.88,-133.12 44.88,-133.12 0,-133.12"/>
<polygon fill="#666666" stroke="#666666" points="44.88,-133.12 44.88,-133.12 127.25,-133.12 127.25,-133.12 44.88,-133.12"/>
<polygon fill="none" stroke="#666666" points="0,-115.88 0,-180.88 127.25,-180.88 127.25,-115.88 0,-115.88"/>
</a>
</g>
</g>
<!-- Node2&#45;&gt;Node1 -->
<g id="edge1_Node000001_Node000002" class="edge">
<title>Node2&#45;&gt;Node1</title>
<g id="a_edge1_Node000001_Node000002"><a xlink:title=" ">
<path fill="none" stroke="#63b8ff" d="M85.32,-115.9C93.95,-104 104.23,-90.55 114.38,-79 116.96,-76.06 119.69,-73.09 122.49,-70.15"/>
<polygon fill="none" stroke="#63b8ff" points="122.53,-70.11 123.89,-63.03 130.95,-61.55 129.59,-68.63 122.53,-70.11"/>
</a>
</g>
<text text-anchor="middle" x="132" y="-80.75" font-family="Helvetica,sans-Serif" font-size="10.00" fill="grey"> +tensor</text>
</g>
<!-- Node3 -->
<g id="Node000003" class="node">
<title>Node3</title>
<g id="a_Node000003"><a xlink:href="structTTL__layout__t.html" target="_top" xlink:title="Description of a Tensor layout in memory.">
<polygon fill="white" stroke="none" points="96.75,-308.38 16.5,-308.38 16.5,-243.38 96.75,-243.38 96.75,-308.38"/>
<text text-anchor="start" x="28.12" y="-294.88" font-family="Helvetica,sans-Serif" font-size="10.00">TTL_layout_t</text>
<text text-anchor="start" x="20.5" y="-279.62" font-family="Helvetica,sans-Serif" font-size="10.00">+</text>
<text text-anchor="start" x="30.5" y="-279.62" font-family="Helvetica,sans-Serif" font-size="10.00">row_spacing</text>
<text text-anchor="start" x="20.5" y="-264.38" font-family="Helvetica,sans-Serif" font-size="10.00">+</text>
<text text-anchor="start" x="30.5" y="-264.38" font-family="Helvetica,sans-Serif" font-size="10.00">plane_spacing</text>
<text text-anchor="start" x="55.12" y="-249.12" font-family="Helvetica,sans-Serif" font-size="10.00"> </text>
<polygon fill="#666666" stroke="#666666" points="16.5,-291.12 16.5,-291.12 96.75,-291.12 96.75,-291.12 16.5,-291.12"/>
<polygon fill="#666666" stroke="#666666" points="16.5,-260.62 16.5,-260.62 28.5,-260.62 28.5,-260.62 16.5,-260.62"/>
<polygon fill="#666666" stroke="#666666" points="28.5,-260.62 28.5,-260.62 96.75,-260.62 96.75,-260.62 28.5,-260.62"/>
<polygon fill="none" stroke="#666666" points="16.5,-243.38 16.5,-308.38 96.75,-308.38 96.75,-243.38 16.5,-243.38"/>
</a>
</g>
</g>
<!-- Node3&#45;&gt;Node2 -->
<g id="edge2_Node000002_Node000003" class="edge">
<title>Node3&#45;&gt;Node2</title>
<g id="a_edge2_Node000002_Node000003"><a xlink:title=" ">
<path fill="none" stroke="#63b8ff" d="M56.66,-243.54C56.81,-231.9 57.16,-218.59 57.88,-206.5 58.12,-202.32 58.44,-197.98 58.81,-193.63"/>
<polygon fill="none" stroke="#63b8ff" points="58.81,-193.61 55.38,-187.27 59.91,-181.66 63.35,-188.01 58.81,-193.61"/>
</a>
</g>
<text text-anchor="middle" x="74.75" y="-208.25" font-family="Helvetica,sans-Serif" font-size="10.00" fill="grey"> +layout</text>
</g>
<!-- Node4 -->
<g id="Node000004" class="node">
<title>Node4</title>
<g id="a_Node000004"><a xlink:href="structTTL__shape__t.html" target="_top" xlink:title="Description of a Shape.">
<polygon fill="white" stroke="none" points="188.5,-316 122.75,-316 122.75,-235.75 188.5,-235.75 188.5,-316"/>
<text text-anchor="start" x="126.75" y="-302.5" font-family="Helvetica,sans-Serif" font-size="10.00">TTL_shape_t</text>
<text text-anchor="start" x="132.12" y="-287.25" font-family="Helvetica,sans-Serif" font-size="10.00">+</text>
<text text-anchor="start" x="147.5" y="-287.25" font-family="Helvetica,sans-Serif" font-size="10.00">width</text>
<text text-anchor="start" x="132.12" y="-272" font-family="Helvetica,sans-Serif" font-size="10.00">+</text>
<text text-anchor="start" x="147.5" y="-272" font-family="Helvetica,sans-Serif" font-size="10.00">height</text>
<text text-anchor="start" x="132.12" y="-256.75" font-family="Helvetica,sans-Serif" font-size="10.00">+</text>
<text text-anchor="start" x="147.5" y="-256.75" font-family="Helvetica,sans-Serif" font-size="10.00">depth</text>
<text text-anchor="start" x="154.12" y="-241.5" font-family="Helvetica,sans-Serif" font-size="10.00"> </text>
<polygon fill="#666666" stroke="#666666" points="122.75,-298.75 122.75,-298.75 188.5,-298.75 188.5,-298.75 122.75,-298.75"/>
<polygon fill="#666666" stroke="#666666" points="122.75,-253 122.75,-253 145.5,-253 145.5,-253 122.75,-253"/>
<polygon fill="#666666" stroke="#666666" points="145.5,-253 145.5,-253 188.5,-253 188.5,-253 145.5,-253"/>
<polygon fill="none" stroke="#666666" points="122.75,-235.75 122.75,-316 188.5,-316 188.5,-235.75 122.75,-235.75"/>
</a>
</g>
</g>
<!-- Node4&#45;&gt;Node1 -->
<g id="edge4_Node000001_Node000004" class="edge">
<title>Node4&#45;&gt;Node1</title>
<g id="a_edge4_Node000001_Node000004"><a xlink:title=" ">
<path fill="none" stroke="#63b8ff" d="M156.91,-235.77C158.37,-191.47 160.73,-119.53 162.23,-73.91"/>
<polygon fill="none" stroke="#63b8ff" points="162.23,-73.83 158.43,-67.7 162.63,-61.84 166.43,-67.97 162.23,-73.83"/>
</a>
</g>
<text text-anchor="middle" x="178.31" y="-144.5" font-family="Helvetica,sans-Serif" font-size="10.00" fill="grey"> +shape</text>
</g>
<!-- Node4&#45;&gt;Node2 -->
<g id="edge3_Node000002_Node000004" class="edge">
<title>Node4&#45;&gt;Node2</title>
<g id="a_edge3_Node000002_Node000004"><a xlink:title=" ">
<path fill="none" stroke="#63b8ff" d="M127.02,-235.85C116.58,-221.61 104.73,-205.45 94.13,-190.99"/>
<polygon fill="none" stroke="#63b8ff" points="94.3,-191.22 87.53,-188.74 87.2,-181.54 93.98,-184.01 94.3,-191.22"/>
</a>
</g>
<text text-anchor="middle" x="129.63" y="-208.25" font-family="Helvetica,sans-Serif" font-size="10.00" fill="grey"> +shape</text>
</g>
<!-- Node5 -->
<g id="Node000005" class="node">
<title>Node5</title>
<g id="a_Node000005"><a xlink:href="structTTL__offset__t.html" target="_top" xlink:title="Description of the 3D offset of an object.">
<polygon fill="white" stroke="none" points="279.38,-188.5 215.88,-188.5 215.88,-108.25 279.38,-108.25 279.38,-188.5"/>
<text text-anchor="start" x="219.88" y="-175" font-family="Helvetica,sans-Serif" font-size="10.00">TTL_offset_t</text>
<text text-anchor="start" x="230.12" y="-159.75" font-family="Helvetica,sans-Serif" font-size="10.00">+</text>
<text text-anchor="start" x="250.38" y="-159.75" font-family="Helvetica,sans-Serif" font-size="10.00">x</text>
<text text-anchor="start" x="230.12" y="-144.5" font-family="Helvetica,sans-Serif" font-size="10.00">+</text>
<text text-anchor="start" x="250.38" y="-144.5" font-family="Helvetica,sans-Serif" font-size="10.00">y</text>
<text text-anchor="start" x="230.12" y="-129.25" font-family="Helvetica,sans-Serif" font-size="10.00">+</text>
<text text-anchor="start" x="250.38" y="-129.25" font-family="Helvetica,sans-Serif" font-size="10.00">z</text>
<text text-anchor="start" x="246.12" y="-114" font-family="Helvetica,sans-Serif" font-size="10.00"> </text>
<polygon fill="#666666" stroke="#666666" points="215.88,-171.25 215.88,-171.25 279.38,-171.25 279.38,-171.25 215.88,-171.25"/>
<polygon fill="#666666" stroke="#666666" points="215.88,-125.5 215.88,-125.5 248.38,-125.5 248.38,-125.5 215.88,-125.5"/>
<polygon fill="#666666" stroke="#666666" points="248.38,-125.5 248.38,-125.5 279.38,-125.5 279.38,-125.5 248.38,-125.5"/>
<polygon fill="none" stroke="#666666" points="215.88,-108.25 215.88,-188.5 279.38,-188.5 279.38,-108.25 215.88,-108.25"/>
</a>
</g>
</g>
<!-- Node5&#45;&gt;Node1 -->
<g id="edge5_Node000001_Node000005" class="edge">
<title>Node5&#45;&gt;Node1</title>
<g id="a_edge5_Node000001_Node000005"><a xlink:title=" ">
<path fill="none" stroke="#63b8ff" d="M219.42,-108.47C210.72,-96.47 201.13,-83.24 192.4,-71.19"/>
<polygon fill="none" stroke="#63b8ff" points="192.55,-71.4 185.79,-68.89 185.51,-61.69 192.27,-64.2 192.55,-71.4"/>
</a>
</g>
<text text-anchor="middle" x="232.25" y="-80.75" font-family="Helvetica,sans-Serif" font-size="10.00" fill="grey"> +sub_offset</text>
</g>
</g>
</svg>
