<?xml version="1.0" encoding="UTF-8" standalone="no"?>
<!DOCTYPE svg PUBLIC "-//W3C//DTD SVG 1.1//EN"
 "http://www.w3.org/Graphics/SVG/1.1/DTD/svg11.dtd">
<!-- Generated by graphviz version 12.2.1 (20241206.2353)
 -->
<!-- Title: TTL_int_ushort_sub_tensor_t Pages: 1 -->
<svg width="274pt" height="324pt"
 viewBox="0.00 0.00 274.00 324.00" xmlns="http://www.w3.org/2000/svg" xmlns:xlink="http://www.w3.org/1999/xlink">
<g id="graph0" class="graph" transform="scale(1 1) rotate(0) translate(4 320)">
<title>TTL_int_ushort_sub_tensor_t</title>
<!-- Node1 -->
<g id="Node000001" class="node">
<title>Node1</title>
<g id="a_Node000001"><a xlink:title="const and non&#45;const sub tensors in the appropriate address space">
<polygon fill="#999999" stroke="none" points="197.75,-61 102.75,-61 102.75,0 197.75,0 197.75,-61"/>
<text text-anchor="start" x="106.75" y="-47.5" font-family="Helvetica,sans-Serif" font-size="10.00">TTL_int_ushort_sub</text>
<text text-anchor="start" x="130" y="-36.25" font-family="Helvetica,sans-Serif" font-size="10.00">_tensor_t</text>
<text text-anchor="start" x="120.19" y="-21" font-family="Helvetica,sans-Serif" font-size="10.00">+</text>
<text text-anchor="start" x="143.62" y="-21" font-family="Helvetica,sans-Serif" font-size="10.00">origin</text>
<text text-anchor="start" x="148.75" y="-5.75" font-family="Helvetica,sans-Serif" font-size="10.00"> </text>
<polygon fill="#666666" stroke="#666666" points="102.75,-32.5 102.75,-32.5 197.75,-32.5 197.75,-32.5 102.75,-32.5"/>
<polygon fill="#666666" stroke="#666666" points="102.75,-17.25 102.75,-17.25 141.62,-17.25 141.62,-17.25 102.75,-17.25"/>
<polygon fill="#666666" stroke="#666666" points="141.62,-17.25 141.62,-17.25 197.75,-17.25 197.75,-17.25 141.62,-17.25"/>
<polygon fill="none" stroke="#666666" points="102.75,0 102.75,-61 197.75,-61 197.75,0 102.75,0"/>
</a>
</g>
</g>
<!-- Node2 -->
<g id="Node000002" class="node">
<title>Node2</title>
<g id="a_Node000002"><a xlink:href="structTTL__int__ushort__tensor__t.html" target="_top" xlink:title="const and non&#45;const tensors in the appropriate address space">
<polygon fill="white" stroke="none" points="114.5,-180.88 0,-180.88 0,-115.88 114.5,-115.88 114.5,-180.88"/>
<text text-anchor="start" x="4" y="-167.38" font-family="Helvetica,sans-Serif" font-size="10.00">TTL_int_ushort_tensor_t</text>
<text text-anchor="start" x="17.25" y="-152.12" font-family="Helvetica,sans-Serif" font-size="10.00">+</text>
<text text-anchor="start" x="40.5" y="-152.12" font-family="Helvetica,sans-Serif" font-size="10.00">base</text>
<text text-anchor="start" x="17.25" y="-136.88" font-family="Helvetica,sans-Serif" font-size="10.00">+</text>
<text text-anchor="start" x="40.5" y="-136.88" font-family="Helvetica,sans-Serif" font-size="10.00">elem_size</text>
<text text-anchor="start" x="55.75" y="-121.62" font-family="Helvetica,sans-Serif" font-size="10.00"> </text>
<polygon fill="#666666" stroke="#666666" points="0,-163.62 0,-163.62 114.5,-163.62 114.5,-163.62 0,-163.62"/>
<polygon fill="#666666" stroke="#666666" points="0,-133.12 0,-133.12 38.5,-133.12 38.5,-133.12 0,-133.12"/>
<polygon fill="#666666" stroke="#666666" points="38.5,-133.12 38.5,-133.12 114.5,-133.12 114.5,-133.12 38.5,-133.12"/>
<polygon fill="none" stroke="#666666" points="0,-115.88 0,-180.88 114.5,-180.88 114.5,-115.88 0,-115.88"/>
</a>
</g>
</g>
<!-- Node2&#45;&gt;Node1 -->
<g id="edge1_Node000001_Node000002" class="edge">
<title>Node2&#45;&gt;Node1</title>
<g id="a_edge1_Node000001_Node000002"><a xlink:title=" ">
<path fill="none" stroke="#63b8ff" d="M75.17,-116.02C82.58,-104.01 91.62,-90.45 101,-79 103.44,-76.02 106.06,-73.03 108.76,-70.08"/>
<polygon fill="none" stroke="#63b8ff" points="108.67,-70.18 109.94,-63.08 116.98,-61.52 115.71,-68.62 108.67,-70.18"/>
</a>
</g>
<text text-anchor="middle" x="118.62" y="-80.75" font-family="Helvetica,sans-Serif" font-size="10.00" fill="grey"> +tensor</text>
</g>
<!-- Node3 -->
<g id="Node000003" class="node">
<title>Node3</title>
<g id="a_Node000003"><a xlink:href="structTTL__layout__t.html" target="_top" xlink:title="Description of a Tensor layout in memory.">
<polygon fill="white" stroke="none" points="83.38,-308.38 3.12,-308.38 3.12,-243.38 83.38,-243.38 83.38,-308.38"/>
<text text-anchor="start" x="14.75" y="-294.88" font-family="Helvetica,sans-Serif" font-size="10.00">TTL_layout_t</text>
<text text-anchor="start" x="7.12" y="-279.62" font-family="Helvetica,sans-Serif" font-size="10.00">+</text>
<text text-anchor="start" x="17.12" y="-279.62" font-family="Helvetica,sans-Serif" font-size="10.00">row_spacing</text>
<text text-anchor="start" x="7.12" y="-264.38" font-family="Helvetica,sans-Serif" font-size="10.00">+</text>
<text text-anchor="start" x="17.12" y="-264.38" font-family="Helvetica,sans-Serif" font-size="10.00">plane_spacing</text>
<text text-anchor="start" x="41.75" y="-249.12" font-family="Helvetica,sans-Serif" font-size="10.00"> </text>
<polygon fill="#666666" stroke="#666666" points="3.12,-291.12 3.12,-291.12 83.38,-291.12 83.38,-291.12 3.12,-291.12"/>
<polygon fill="#666666" stroke="#666666" points="3.12,-260.62 3.12,-260.62 15.12,-260.62 15.12,-260.62 3.12,-260.62"/>
<polygon fill="#666666" stroke="#666666" points="15.12,-260.62 15.12,-260.62 83.38,-260.62 83.38,-260.62 15.12,-260.62"/>
<polygon fill="none" stroke="#666666" points="3.12,-243.38 3.12,-308.38 83.38,-308.38 83.38,-243.38 3.12,-243.38"/>
</a>
</g>
</g>
<!-- Node3&#45;&gt;Node2 -->
<g id="edge2_Node000002_Node000003" class="edge">
<title>Node3&#45;&gt;Node2</title>
<g id="a_edge2_Node000002_Node000003"><a xlink:title=" ">
<path fill="none" stroke="#63b8ff" d="M42.5,-243.47C42.57,-231.82 43.06,-218.52 44.5,-206.5 45.02,-202.13 45.73,-197.6 46.55,-193.1"/>
<polygon fill="none" stroke="#63b8ff" points="46.52,-193.25 43.8,-186.57 48.91,-181.49 51.64,-188.17 46.52,-193.25"/>
</a>
</g>
<text text-anchor="middle" x="61.38" y="-208.25" font-family="Helvetica,sans-Serif" font-size="10.00" fill="grey"> +layout</text>
</g>
<!-- Node4 -->
<g id="Node000004" class="node">
<title>Node4</title>
<g id="a_Node000004"><a xlink:href="structTTL__shape__t.html" target="_top" xlink:title="Description of a Shape.">
<polygon fill="white" stroke="none" points="175.12,-316 109.38,-316 109.38,-235.75 175.12,-235.75 175.12,-316"/>
<text text-anchor="start" x="113.38" y="-302.5" font-family="Helvetica,sans-Serif" font-size="10.00">TTL_shape_t</text>
<text text-anchor="start" x="118.75" y="-287.25" font-family="Helvetica,sans-Serif" font-size="10.00">+</text>
<text text-anchor="start" x="134.12" y="-287.25" font-family="Helvetica,sans-Serif" font-size="10.00">width</text>
<text text-anchor="start" x="118.75" y="-272" font-family="Helvetica,sans-Serif" font-size="10.00">+</text>
<text text-anchor="start" x="134.12" y="-272" font-family="Helvetica,sans-Serif" font-size="10.00">height</text>
<text text-anchor="start" x="118.75" y="-256.75" font-family="Helvetica,sans-Serif" font-size="10.00">+</text>
<text text-anchor="start" x="134.12" y="-256.75" font-family="Helvetica,sans-Serif" font-size="10.00">depth</text>
<text text-anchor="start" x="140.75" y="-241.5" font-family="Helvetica,sans-Serif" font-size="10.00"> </text>
<polygon fill="#666666" stroke="#666666" points="109.38,-298.75 109.38,-298.75 175.12,-298.75 175.12,-298.75 109.38,-298.75"/>
<polygon fill="#666666" stroke="#666666" points="109.38,-253 109.38,-253 132.12,-253 132.12,-253 109.38,-253"/>
<polygon fill="#666666" stroke="#666666" points="132.12,-253 132.12,-253 175.12,-253 175.12,-253 132.12,-253"/>
<polygon fill="none" stroke="#666666" points="109.38,-235.75 109.38,-316 175.12,-316 175.12,-235.75 109.38,-235.75"/>
</a>
</g>
</g>
<!-- Node4&#45;&gt;Node1 -->
<g id="edge4_Node000001_Node000004" class="edge">
<title>Node4&#45;&gt;Node1</title>
<g id="a_edge4_Node000001_Node000004"><a xlink:title=" ">
<path fill="none" stroke="#63b8ff" d="M143.54,-235.77C144.99,-191.47 147.36,-119.53 148.86,-73.91"/>
<polygon fill="none" stroke="#63b8ff" points="148.86,-73.83 145.06,-67.7 149.25,-61.84 153.05,-67.97 148.86,-73.83"/>
</a>
</g>
<text text-anchor="middle" x="164.94" y="-144.5" font-family="Helvetica,sans-Serif" font-size="10.00" fill="grey"> +shape</text>
</g>
<!-- Node4&#45;&gt;Node2 -->
<g id="edge3_Node000002_Node000004" class="edge">
<title>Node4&#45;&gt;Node2</title>
<g id="a_edge3_Node000002_Node000004"><a xlink:title=" ">
<path fill="none" stroke="#63b8ff" d="M114.37,-235.99C110.11,-229.91 105.78,-223.68 101.75,-217.75 96.04,-209.35 90.04,-200.29 84.35,-191.6"/>
<polygon fill="none" stroke="#63b8ff" points="84.41,-191.68 77.78,-188.83 77.86,-181.62 84.49,-184.47 84.41,-191.68"/>
</a>
</g>
<text text-anchor="middle" x="119" y="-208.25" font-family="Helvetica,sans-Serif" font-size="10.00" fill="grey"> +shape</text>
</g>
<!-- Node5 -->
<g id="Node000005" class="node">
<title>Node5</title>
<g id="a_Node000005"><a xlink:href="structTTL__offset__t.html" target="_top" xlink:title="Description of the 3D offset of an object.">
<polygon fill="white" stroke="none" points="266,-188.5 202.5,-188.5 202.5,-108.25 266,-108.25 266,-188.5"/>
<text text-anchor="start" x="206.5" y="-175" font-family="Helvetica,sans-Serif" font-size="10.00">TTL_offset_t</text>
<text text-anchor="start" x="216.75" y="-159.75" font-family="Helvetica,sans-Serif" font-size="10.00">+</text>
<text text-anchor="start" x="237" y="-159.75" font-family="Helvetica,sans-Serif" font-size="10.00">x</text>
<text text-anchor="start" x="216.75" y="-144.5" font-family="Helvetica,sans-Serif" font-size="10.00">+</text>
<text text-anchor="start" x="237" y="-144.5" font-family="Helvetica,sans-Serif" font-size="10.00">y</text>
<text text-anchor="start" x="216.75" y="-129.25" font-family="Helvetica,sans-Serif" font-size="10.00">+</text>
<text text-anchor="start" x="237" y="-129.25" font-family="Helvetica,sans-Serif" font-size="10.00">z</text>
<text text-anchor="start" x="232.75" y="-114" font-family="Helvetica,sans-Serif" font-size="10.00"> </text>
<polygon fill="#666666" stroke="#666666" points="202.5,-171.25 202.5,-171.25 266,-171.25 266,-171.25 202.5,-171.25"/>
<polygon fill="#666666" stroke="#666666" points="202.5,-125.5 202.5,-125.5 235,-125.5 235,-125.5 202.5,-125.5"/>
<polygon fill="#666666" stroke="#666666" points="235,-125.5 235,-125.5 266,-125.5 266,-125.5 235,-125.5"/>
<polygon fill="none" stroke="#666666" points="202.5,-108.25 202.5,-188.5 266,-188.5 266,-108.25 202.5,-108.25"/>
</a>
</g>
</g>
<!-- Node5&#45;&gt;Node1 -->
<g id="edge5_Node000001_Node000005" class="edge">
<title>Node5&#45;&gt;Node1</title>
<g id="a_edge5_Node000001_Node000005"><a xlink:title=" ">
<path fill="none" stroke="#63b8ff" d="M206.05,-108.47C197.35,-96.47 187.76,-83.24 179.02,-71.19"/>
<polygon fill="none" stroke="#63b8ff" points="179.18,-71.4 172.42,-68.89 172.13,-61.69 178.89,-64.2 179.18,-71.4"/>
</a>
</g>
<text text-anchor="middle" x="218.88" y="-80.75" font-family="Helvetica,sans-Serif" font-size="10.00" fill="grey"> +sub_offset</text>
</g>
</g>
</svg>
