<?xml version="1.0" encoding="UTF-8" standalone="no"?>
<!DOCTYPE svg PUBLIC "-//W3C//DTD SVG 1.1//EN"
 "http://www.w3.org/Graphics/SVG/1.1/DTD/svg11.dtd">
<!-- Generated by graphviz version 12.0.0 (20240704.0754)
 -->
<!-- Title: TTL_const_int_short_sub_tensor_t Pages: 1 -->
<svg width="273pt" height="321pt"
 viewBox="0.00 0.00 272.50 320.50" xmlns="http://www.w3.org/2000/svg" xmlns:xlink="http://www.w3.org/1999/xlink">
<g id="graph0" class="graph" transform="scale(1 1) rotate(0) translate(4 316.5)">
<title>TTL_const_int_short_sub_tensor_t</title>
<!-- Node1 -->
<g id="Node000001" class="node">
<title>Node1</title>
<g id="a_Node000001"><a xlink:title=" ">
<polygon fill="#999999" stroke="none" points="197,-60 97,-60 97,0 197,0 197,-60"/>
<text text-anchor="start" x="102" y="-46.5" font-family="Helvetica,sans-Serif" font-size="10.00">TTL_const_int_short</text>
<text text-anchor="start" x="116.25" y="-35.25" font-family="Helvetica,sans-Serif" font-size="10.00">_sub_tensor_t</text>
<text text-anchor="start" x="115.5" y="-20.5" font-family="Helvetica,sans-Serif" font-size="10.00">+</text>
<text text-anchor="start" x="140" y="-20.5" font-family="Helvetica,sans-Serif" font-size="10.00">origin</text>
<text text-anchor="start" x="145.5" y="-5.5" font-family="Helvetica,sans-Serif" font-size="10.00"> </text>
<polygon fill="#666666" stroke="#666666" points="97,-32 97,-32 197,-32 197,-32 97,-32"/>
<polygon fill="#666666" stroke="#666666" points="97,-17 97,-17 138,-17 138,-17 97,-17"/>
<polygon fill="#666666" stroke="#666666" points="138,-17 138,-17 197,-17 197,-17 138,-17"/>
<polygon fill="none" stroke="#666666" points="97,0 97,-60 197,-60 197,0 97,0"/>
</a>
</g>
</g>
<!-- Node2 -->
<g id="Node000002" class="node">
<title>Node2</title>
<g id="a_Node000002"><a xlink:href="structTTL__const__int__short__tensor__t.html" target="_top" xlink:title=" ">
<polygon fill="white" stroke="none" points="111,-184.25 11,-184.25 11,-109.25 111,-109.25 111,-184.25"/>
<text text-anchor="start" x="16" y="-170.75" font-family="Helvetica,sans-Serif" font-size="10.00">TTL_const_int_short</text>
<text text-anchor="start" x="40.75" y="-159.5" font-family="Helvetica,sans-Serif" font-size="10.00">_tensor_t</text>
<text text-anchor="start" x="24.5" y="-144.75" font-family="Helvetica,sans-Serif" font-size="10.00">+</text>
<text text-anchor="start" x="44" y="-144.75" font-family="Helvetica,sans-Serif" font-size="10.00">base</text>
<text text-anchor="start" x="24.5" y="-129.75" font-family="Helvetica,sans-Serif" font-size="10.00">+</text>
<text text-anchor="start" x="44" y="-129.75" font-family="Helvetica,sans-Serif" font-size="10.00">elem_size</text>
<text text-anchor="start" x="59.5" y="-114.75" font-family="Helvetica,sans-Serif" font-size="10.00"> </text>
<polygon fill="#666666" stroke="#666666" points="11,-156.25 11,-156.25 111,-156.25 111,-156.25 11,-156.25"/>
<polygon fill="#666666" stroke="#666666" points="11,-126.25 11,-126.25 42,-126.25 42,-126.25 11,-126.25"/>
<polygon fill="#666666" stroke="#666666" points="42,-126.25 42,-126.25 111,-126.25 111,-126.25 42,-126.25"/>
<polygon fill="none" stroke="#666666" points="11,-109.25 11,-184.25 111,-184.25 111,-109.25 11,-109.25"/>
</a>
</g>
</g>
<!-- Node2&#45;&gt;Node1 -->
<g id="edge1_Node000001_Node000002" class="edge">
<title>Node2&#45;&gt;Node1</title>
<g id="a_edge1_Node000001_Node000002"><a xlink:title=" ">
<path fill="none" stroke="#63b8ff" d="M78.09,-109.3C83.72,-98.78 90.43,-87.57 97.75,-78 99.97,-75.1 102.37,-72.21 104.88,-69.37"/>
<polygon fill="none" stroke="#63b8ff" points="104.87,-69.39 106.07,-62.28 113.1,-60.66 111.89,-67.77 104.87,-69.39"/>
</a>
</g>
<text text-anchor="middle" x="115.62" y="-79.75" font-family="Helvetica,sans-Serif" font-size="10.00" fill="grey"> +tensor</text>
</g>
<!-- Node3 -->
<g id="Node000003" class="node">
<title>Node3</title>
<g id="a_Node000003"><a xlink:href="structTTL__layout__t.html" target="_top" xlink:title="Description of a Tensor layout in memory.">
<polygon fill="white" stroke="none" points="80,-305 0,-305 0,-241 80,-241 80,-305"/>
<text text-anchor="start" x="11.5" y="-291.5" font-family="Helvetica,sans-Serif" font-size="10.00">TTL_layout_t</text>
<text text-anchor="start" x="4" y="-276.5" font-family="Helvetica,sans-Serif" font-size="10.00">+</text>
<text text-anchor="start" x="14" y="-276.5" font-family="Helvetica,sans-Serif" font-size="10.00">row_spacing</text>
<text text-anchor="start" x="4" y="-261.5" font-family="Helvetica,sans-Serif" font-size="10.00">+</text>
<text text-anchor="start" x="14" y="-261.5" font-family="Helvetica,sans-Serif" font-size="10.00">plane_spacing</text>
<text text-anchor="start" x="38.5" y="-246.5" font-family="Helvetica,sans-Serif" font-size="10.00"> </text>
<polygon fill="#666666" stroke="#666666" points="0,-288 0,-288 80,-288 80,-288 0,-288"/>
<polygon fill="#666666" stroke="#666666" points="0,-258 0,-258 12,-258 12,-258 0,-258"/>
<polygon fill="#666666" stroke="#666666" points="12,-258 12,-258 80,-258 80,-258 12,-258"/>
<polygon fill="none" stroke="#666666" points="0,-241 0,-305 80,-305 80,-241 0,-241"/>
</a>
</g>
</g>
<!-- Node3&#45;&gt;Node2 -->
<g id="edge2_Node000002_Node000003" class="edge">
<title>Node3&#45;&gt;Node2</title>
<g id="a_edge2_Node000002_Node000003"><a xlink:title=" ">
<path fill="none" stroke="#63b8ff" d="M38.51,-241.11C38.49,-229.47 39.11,-216.18 41.25,-204.25 41.72,-201.65 42.28,-199.02 42.93,-196.37"/>
<polygon fill="none" stroke="#63b8ff" points="42.9,-196.48 40.68,-189.62 46.17,-184.94 48.38,-191.8 42.9,-196.48"/>
</a>
</g>
<text text-anchor="middle" x="58.88" y="-206" font-family="Helvetica,sans-Serif" font-size="10.00" fill="grey"> +layout</text>
</g>
<!-- Node4 -->
<g id="Node000004" class="node">
<title>Node4</title>
<g id="a_Node000004"><a xlink:href="structTTL__shape__t.html" target="_top" xlink:title="Description of a Shape.">
<polygon fill="white" stroke="none" points="172.5,-312.5 105.5,-312.5 105.5,-233.5 172.5,-233.5 172.5,-312.5"/>
<text text-anchor="start" x="110.12" y="-299" font-family="Helvetica,sans-Serif" font-size="10.00">TTL_shape_t</text>
<text text-anchor="start" x="115" y="-284" font-family="Helvetica,sans-Serif" font-size="10.00">+</text>
<text text-anchor="start" x="130.5" y="-284" font-family="Helvetica,sans-Serif" font-size="10.00">width</text>
<text text-anchor="start" x="115" y="-269" font-family="Helvetica,sans-Serif" font-size="10.00">+</text>
<text text-anchor="start" x="130.5" y="-269" font-family="Helvetica,sans-Serif" font-size="10.00">height</text>
<text text-anchor="start" x="115" y="-254" font-family="Helvetica,sans-Serif" font-size="10.00">+</text>
<text text-anchor="start" x="130.5" y="-254" font-family="Helvetica,sans-Serif" font-size="10.00">depth</text>
<text text-anchor="start" x="137.5" y="-239" font-family="Helvetica,sans-Serif" font-size="10.00"> </text>
<polygon fill="#666666" stroke="#666666" points="105.5,-295.5 105.5,-295.5 172.5,-295.5 172.5,-295.5 105.5,-295.5"/>
<polygon fill="#666666" stroke="#666666" points="105.5,-250.5 105.5,-250.5 128.5,-250.5 128.5,-250.5 105.5,-250.5"/>
<polygon fill="#666666" stroke="#666666" points="128.5,-250.5 128.5,-250.5 172.5,-250.5 172.5,-250.5 128.5,-250.5"/>
<polygon fill="none" stroke="#666666" points="105.5,-233.5 105.5,-312.5 172.5,-312.5 172.5,-233.5 105.5,-233.5"/>
</a>
</g>
</g>
<!-- Node4&#45;&gt;Node1 -->
<g id="edge4_Node000001_Node000004" class="edge">
<title>Node4&#45;&gt;Node1</title>
<g id="a_edge4_Node000001_Node000004"><a xlink:title=" ">
<path fill="none" stroke="#63b8ff" d="M140.28,-233.55C141.73,-189.61 144.11,-117.97 145.62,-72.72"/>
<polygon fill="none" stroke="#63b8ff" points="145.61,-72.76 141.82,-66.63 146.01,-60.76 149.81,-66.89 145.61,-72.76"/>
</a>
</g>
<text text-anchor="middle" x="162.25" y="-142.88" font-family="Helvetica,sans-Serif" font-size="10.00" fill="grey"> +shape</text>
</g>
<!-- Node4&#45;&gt;Node2 -->
<g id="edge3_Node000002_Node000004" class="edge">
<title>Node4&#45;&gt;Node2</title>
<g id="a_edge3_Node000002_Node000004"><a xlink:title=" ">
<path fill="none" stroke="#63b8ff" d="M110.51,-233.5C106.36,-227.55 102.24,-221.42 98.5,-215.5 94.45,-209.09 90.37,-202.22 86.46,-195.4"/>
<polygon fill="none" stroke="#63b8ff" points="86.41,-195.31 79.98,-192.04 80.53,-184.85 86.95,-188.12 86.41,-195.31"/>
</a>
</g>
<text text-anchor="middle" x="116.25" y="-206" font-family="Helvetica,sans-Serif" font-size="10.00" fill="grey"> +shape</text>
</g>
<!-- Node5 -->
<g id="Node000005" class="node">
<title>Node5</title>
<g id="a_Node000005"><a xlink:href="structTTL__offset__t.html" target="_top" xlink:title="Description of the 3D offset of an object.">
<polygon fill="white" stroke="none" points="264.5,-186.25 199.5,-186.25 199.5,-107.25 264.5,-107.25 264.5,-186.25"/>
<text text-anchor="start" x="204.25" y="-172.75" font-family="Helvetica,sans-Serif" font-size="10.00">TTL_offset_t</text>
<text text-anchor="start" x="214" y="-157.75" font-family="Helvetica,sans-Serif" font-size="10.00">+</text>
<text text-anchor="start" x="234.5" y="-157.75" font-family="Helvetica,sans-Serif" font-size="10.00">x</text>
<text text-anchor="start" x="214" y="-142.75" font-family="Helvetica,sans-Serif" font-size="10.00">+</text>
<text text-anchor="start" x="234.5" y="-142.75" font-family="Helvetica,sans-Serif" font-size="10.00">y</text>
<text text-anchor="start" x="214" y="-127.75" font-family="Helvetica,sans-Serif" font-size="10.00">+</text>
<text text-anchor="start" x="234.5" y="-127.75" font-family="Helvetica,sans-Serif" font-size="10.00">z</text>
<text text-anchor="start" x="230.5" y="-112.75" font-family="Helvetica,sans-Serif" font-size="10.00"> </text>
<polygon fill="#666666" stroke="#666666" points="199.5,-169.25 199.5,-169.25 264.5,-169.25 264.5,-169.25 199.5,-169.25"/>
<polygon fill="#666666" stroke="#666666" points="199.5,-124.25 199.5,-124.25 232.5,-124.25 232.5,-124.25 199.5,-124.25"/>
<polygon fill="#666666" stroke="#666666" points="232.5,-124.25 232.5,-124.25 264.5,-124.25 264.5,-124.25 232.5,-124.25"/>
<polygon fill="none" stroke="#666666" points="199.5,-107.25 199.5,-186.25 264.5,-186.25 264.5,-107.25 199.5,-107.25"/>
</a>
</g>
</g>
<!-- Node5&#45;&gt;Node1 -->
<g id="edge5_Node000001_Node000005" class="edge">
<title>Node5&#45;&gt;Node1</title>
<g id="a_edge5_Node000001_Node000005"><a xlink:title=" ">
<path fill="none" stroke="#63b8ff" d="M203.7,-107.54C194.81,-95.54 184.98,-82.27 176.04,-70.2"/>
<polygon fill="none" stroke="#63b8ff" points="176.14,-70.33 169.35,-67.89 168.99,-60.69 175.78,-63.13 176.14,-70.33"/>
</a>
</g>
<text text-anchor="middle" x="215.62" y="-79.75" font-family="Helvetica,sans-Serif" font-size="10.00" fill="grey"> +sub_offset</text>
</g>
</g>
</svg>
