<?xml version="1.0" encoding="UTF-8" standalone="no"?>
<!DOCTYPE svg PUBLIC "-//W3C//DTD SVG 1.1//EN"
 "http://www.w3.org/Graphics/SVG/1.1/DTD/svg11.dtd">
<!-- Generated by graphviz version 12.2.1 (20241206.2353)
 -->
<!-- Title: TTL_io_uint_tensor_t Pages: 1 -->
<svg width="271pt" height="421pt"
 viewBox="0.00 0.00 270.88 421.00" xmlns="http://www.w3.org/2000/svg" xmlns:xlink="http://www.w3.org/1999/xlink">
<g id="graph0" class="graph" transform="scale(1 1) rotate(0) translate(4 417)">
<title>TTL_io_uint_tensor_t</title>
<!-- Node1 -->
<g id="Node000001" class="node">
<title>Node1</title>
<g id="a_Node000001"><a xlink:title="Describes a pair of internal Tensors after an operation.">
<polygon fill="#999999" stroke="none" points="197.25,-49.75 97,-49.75 97,0 197.25,0 197.25,-49.75"/>
<text text-anchor="start" x="101" y="-36.25" font-family="Helvetica,sans-Serif" font-size="10.00">TTL_io_uint_tensor_t</text>
<text text-anchor="start" x="145.62" y="-21" font-family="Helvetica,sans-Serif" font-size="10.00"> </text>
<text text-anchor="start" x="145.62" y="-5.75" font-family="Helvetica,sans-Serif" font-size="10.00"> </text>
<polygon fill="#666666" stroke="#666666" points="97,-32.5 97,-32.5 197.25,-32.5 197.25,-32.5 97,-32.5"/>
<polygon fill="#666666" stroke="#666666" points="97,-17.25 97,-17.25 197.25,-17.25 197.25,-17.25 97,-17.25"/>
<polygon fill="none" stroke="#666666" points="97,0 97,-49.75 197.25,-49.75 197.25,0 97,0"/>
</a>
</g>
</g>
<!-- Node2 -->
<g id="Node000002" class="node">
<title>Node2</title>
<g id="a_Node000002"><a xlink:href="structTTL__int__uint__sub__tensor__t.html" target="_top" xlink:title="const and non&#45;const sub tensors in the appropriate address space">
<polygon fill="white" stroke="none" points="209.25,-158 85,-158 85,-108.25 209.25,-108.25 209.25,-158"/>
<text text-anchor="start" x="89" y="-144.5" font-family="Helvetica,sans-Serif" font-size="10.00">TTL_int_uint_sub_tensor_t</text>
<text text-anchor="start" x="109.75" y="-129.25" font-family="Helvetica,sans-Serif" font-size="10.00">+</text>
<text text-anchor="start" x="140.5" y="-129.25" font-family="Helvetica,sans-Serif" font-size="10.00">origin</text>
<text text-anchor="start" x="145.62" y="-114" font-family="Helvetica,sans-Serif" font-size="10.00"> </text>
<polygon fill="#666666" stroke="#666666" points="85,-140.75 85,-140.75 209.25,-140.75 209.25,-140.75 85,-140.75"/>
<polygon fill="#666666" stroke="#666666" points="85,-125.5 85,-125.5 138.5,-125.5 138.5,-125.5 85,-125.5"/>
<polygon fill="#666666" stroke="#666666" points="138.5,-125.5 138.5,-125.5 209.25,-125.5 209.25,-125.5 138.5,-125.5"/>
<polygon fill="none" stroke="#666666" points="85,-108.25 85,-158 209.25,-158 209.25,-108.25 85,-108.25"/>
</a>
</g>
</g>
<!-- Node2&#45;&gt;Node1 -->
<g id="edge1_Node000001_Node000002" class="edge">
<title>Node2&#45;&gt;Node1</title>
<g id="a_edge1_Node000001_Node000002"><a xlink:title=" ">
<path fill="none" stroke="#63b8ff" d="M147.12,-108.28C147.12,-94.75 147.12,-77.53 147.12,-62.33"/>
<polygon fill="none" stroke="#63b8ff" points="147.13,-62.54 143.13,-56.54 147.13,-50.54 151.13,-56.54 147.13,-62.54"/>
</a>
</g>
<text text-anchor="middle" x="182.38" y="-80.75" font-family="Helvetica,sans-Serif" font-size="10.00" fill="grey"> +imported_to</text>
<text text-anchor="middle" x="182.38" y="-69.5" font-family="Helvetica,sans-Serif" font-size="10.00" fill="grey">+to_export_from</text>
</g>
<!-- Node3 -->
<g id="Node000003" class="node">
<title>Node3</title>
<g id="a_Node000003"><a xlink:href="structTTL__int__uint__tensor__t.html" target="_top" xlink:title="const and non&#45;const tensors in the appropriate address space">
<polygon fill="white" stroke="none" points="110.75,-277.88 7.5,-277.88 7.5,-212.88 110.75,-212.88 110.75,-277.88"/>
<text text-anchor="start" x="11.5" y="-264.38" font-family="Helvetica,sans-Serif" font-size="10.00">TTL_int_uint_tensor_t</text>
<text text-anchor="start" x="21.94" y="-249.12" font-family="Helvetica,sans-Serif" font-size="10.00">+</text>
<text text-anchor="start" x="42.38" y="-249.12" font-family="Helvetica,sans-Serif" font-size="10.00">base</text>
<text text-anchor="start" x="21.94" y="-233.88" font-family="Helvetica,sans-Serif" font-size="10.00">+</text>
<text text-anchor="start" x="42.38" y="-233.88" font-family="Helvetica,sans-Serif" font-size="10.00">elem_size</text>
<text text-anchor="start" x="57.62" y="-218.62" font-family="Helvetica,sans-Serif" font-size="10.00"> </text>
<polygon fill="#666666" stroke="#666666" points="7.5,-260.62 7.5,-260.62 110.75,-260.62 110.75,-260.62 7.5,-260.62"/>
<polygon fill="#666666" stroke="#666666" points="7.5,-230.12 7.5,-230.12 40.38,-230.12 40.38,-230.12 7.5,-230.12"/>
<polygon fill="#666666" stroke="#666666" points="40.38,-230.12 40.38,-230.12 110.75,-230.12 110.75,-230.12 40.38,-230.12"/>
<polygon fill="none" stroke="#666666" points="7.5,-212.88 7.5,-277.88 110.75,-277.88 110.75,-212.88 7.5,-212.88"/>
</a>
</g>
</g>
<!-- Node3&#45;&gt;Node2 -->
<g id="edge2_Node000002_Node000003" class="edge">
<title>Node3&#45;&gt;Node2</title>
<g id="a_edge2_Node000002_Node000003"><a xlink:title=" ">
<path fill="none" stroke="#63b8ff" d="M73.95,-212.94C80.43,-200.79 88.66,-187.15 97.88,-176 100.52,-172.8 103.43,-169.65 106.47,-166.6"/>
<polygon fill="none" stroke="#63b8ff" points="106.44,-166.63 108.09,-159.61 115.21,-158.44 113.56,-165.46 106.44,-166.63"/>
</a>
</g>
<text text-anchor="middle" x="115.5" y="-177.75" font-family="Helvetica,sans-Serif" font-size="10.00" fill="grey"> +tensor</text>
</g>
<!-- Node4 -->
<g id="Node000004" class="node">
<title>Node4</title>
<g id="a_Node000004"><a xlink:href="structTTL__layout__t.html" target="_top" xlink:title="Description of a Tensor layout in memory.">
<polygon fill="white" stroke="none" points="80.25,-405.38 0,-405.38 0,-340.38 80.25,-340.38 80.25,-405.38"/>
<text text-anchor="start" x="11.62" y="-391.88" font-family="Helvetica,sans-Serif" font-size="10.00">TTL_layout_t</text>
<text text-anchor="start" x="4" y="-376.62" font-family="Helvetica,sans-Serif" font-size="10.00">+</text>
<text text-anchor="start" x="14" y="-376.62" font-family="Helvetica,sans-Serif" font-size="10.00">row_spacing</text>
<text text-anchor="start" x="4" y="-361.38" font-family="Helvetica,sans-Serif" font-size="10.00">+</text>
<text text-anchor="start" x="14" y="-361.38" font-family="Helvetica,sans-Serif" font-size="10.00">plane_spacing</text>
<text text-anchor="start" x="38.62" y="-346.12" font-family="Helvetica,sans-Serif" font-size="10.00"> </text>
<polygon fill="#666666" stroke="#666666" points="0,-388.12 0,-388.12 80.25,-388.12 80.25,-388.12 0,-388.12"/>
<polygon fill="#666666" stroke="#666666" points="0,-357.62 0,-357.62 12,-357.62 12,-357.62 0,-357.62"/>
<polygon fill="#666666" stroke="#666666" points="12,-357.62 12,-357.62 80.25,-357.62 80.25,-357.62 12,-357.62"/>
<polygon fill="none" stroke="#666666" points="0,-340.38 0,-405.38 80.25,-405.38 80.25,-340.38 0,-340.38"/>
</a>
</g>
</g>
<!-- Node4&#45;&gt;Node3 -->
<g id="edge3_Node000003_Node000004" class="edge">
<title>Node4&#45;&gt;Node3</title>
<g id="a_edge3_Node000003_Node000004"><a xlink:title=" ">
<path fill="none" stroke="#63b8ff" d="M38.85,-340.39C38.86,-328.74 39.45,-315.46 41.38,-303.5 42.08,-299.11 43.05,-294.59 44.17,-290.11"/>
<polygon fill="none" stroke="#63b8ff" points="44.16,-290.14 41.93,-283.29 47.4,-278.59 49.63,-285.44 44.16,-290.14"/>
</a>
</g>
<text text-anchor="middle" x="58.25" y="-305.25" font-family="Helvetica,sans-Serif" font-size="10.00" fill="grey"> +layout</text>
</g>
<!-- Node5 -->
<g id="Node000005" class="node">
<title>Node5</title>
<g id="a_Node000005"><a xlink:href="structTTL__shape__t.html" target="_top" xlink:title="Description of a Shape.">
<polygon fill="white" stroke="none" points="172,-413 106.25,-413 106.25,-332.75 172,-332.75 172,-413"/>
<text text-anchor="start" x="110.25" y="-399.5" font-family="Helvetica,sans-Serif" font-size="10.00">TTL_shape_t</text>
<text text-anchor="start" x="115.62" y="-384.25" font-family="Helvetica,sans-Serif" font-size="10.00">+</text>
<text text-anchor="start" x="131" y="-384.25" font-family="Helvetica,sans-Serif" font-size="10.00">width</text>
<text text-anchor="start" x="115.62" y="-369" font-family="Helvetica,sans-Serif" font-size="10.00">+</text>
<text text-anchor="start" x="131" y="-369" font-family="Helvetica,sans-Serif" font-size="10.00">height</text>
<text text-anchor="start" x="115.62" y="-353.75" font-family="Helvetica,sans-Serif" font-size="10.00">+</text>
<text text-anchor="start" x="131" y="-353.75" font-family="Helvetica,sans-Serif" font-size="10.00">depth</text>
<text text-anchor="start" x="137.62" y="-338.5" font-family="Helvetica,sans-Serif" font-size="10.00"> </text>
<polygon fill="#666666" stroke="#666666" points="106.25,-395.75 106.25,-395.75 172,-395.75 172,-395.75 106.25,-395.75"/>
<polygon fill="#666666" stroke="#666666" points="106.25,-350 106.25,-350 129,-350 129,-350 106.25,-350"/>
<polygon fill="#666666" stroke="#666666" points="129,-350 129,-350 172,-350 172,-350 129,-350"/>
<polygon fill="none" stroke="#666666" points="106.25,-332.75 106.25,-413 172,-413 172,-332.75 106.25,-332.75"/>
</a>
</g>
</g>
<!-- Node5&#45;&gt;Node2 -->
<g id="edge5_Node000002_Node000005" class="edge">
<title>Node5&#45;&gt;Node2</title>
<g id="a_edge5_Node000002_Node000005"><a xlink:title=" ">
<path fill="none" stroke="#63b8ff" d="M140.44,-332.88C141.95,-287.97 144.41,-214.75 145.89,-170.83"/>
<polygon fill="none" stroke="#63b8ff" points="145.89,-170.83 142.09,-164.7 146.29,-158.83 150.09,-164.97 145.89,-170.83"/>
</a>
</g>
<text text-anchor="middle" x="161.94" y="-241.5" font-family="Helvetica,sans-Serif" font-size="10.00" fill="grey"> +shape</text>
</g>
<!-- Node5&#45;&gt;Node3 -->
<g id="edge4_Node000003_Node000005" class="edge">
<title>Node5&#45;&gt;Node3</title>
<g id="a_edge4_Node000003_Node000005"><a xlink:title=" ">
<path fill="none" stroke="#63b8ff" d="M110.75,-332.87C106.59,-326.86 102.43,-320.69 98.62,-314.75 93.32,-306.49 87.9,-297.49 82.83,-288.83"/>
<polygon fill="none" stroke="#63b8ff" points="82.87,-288.89 76.4,-285.69 76.87,-278.5 83.33,-281.69 82.87,-288.89"/>
</a>
</g>
<text text-anchor="middle" x="115.88" y="-305.25" font-family="Helvetica,sans-Serif" font-size="10.00" fill="grey"> +shape</text>
</g>
<!-- Node6 -->
<g id="Node000006" class="node">
<title>Node6</title>
<g id="a_Node000006"><a xlink:href="structTTL__offset__t.html" target="_top" xlink:title="Description of the 3D offset of an object.">
<polygon fill="white" stroke="none" points="262.88,-285.5 199.38,-285.5 199.38,-205.25 262.88,-205.25 262.88,-285.5"/>
<text text-anchor="start" x="203.38" y="-272" font-family="Helvetica,sans-Serif" font-size="10.00">TTL_offset_t</text>
<text text-anchor="start" x="213.62" y="-256.75" font-family="Helvetica,sans-Serif" font-size="10.00">+</text>
<text text-anchor="start" x="233.88" y="-256.75" font-family="Helvetica,sans-Serif" font-size="10.00">x</text>
<text text-anchor="start" x="213.62" y="-241.5" font-family="Helvetica,sans-Serif" font-size="10.00">+</text>
<text text-anchor="start" x="233.88" y="-241.5" font-family="Helvetica,sans-Serif" font-size="10.00">y</text>
<text text-anchor="start" x="213.62" y="-226.25" font-family="Helvetica,sans-Serif" font-size="10.00">+</text>
<text text-anchor="start" x="233.88" y="-226.25" font-family="Helvetica,sans-Serif" font-size="10.00">z</text>
<text text-anchor="start" x="229.62" y="-211" font-family="Helvetica,sans-Serif" font-size="10.00"> </text>
<polygon fill="#666666" stroke="#666666" points="199.38,-268.25 199.38,-268.25 262.88,-268.25 262.88,-268.25 199.38,-268.25"/>
<polygon fill="#666666" stroke="#666666" points="199.38,-222.5 199.38,-222.5 231.88,-222.5 231.88,-222.5 199.38,-222.5"/>
<polygon fill="#666666" stroke="#666666" points="231.88,-222.5 231.88,-222.5 262.88,-222.5 262.88,-222.5 231.88,-222.5"/>
<polygon fill="none" stroke="#666666" points="199.38,-205.25 199.38,-285.5 262.88,-285.5 262.88,-205.25 199.38,-205.25"/>
</a>
</g>
</g>
<!-- Node6&#45;&gt;Node2 -->
<g id="edge6_Node000002_Node000006" class="edge">
<title>Node6&#45;&gt;Node2</title>
<g id="a_edge6_Node000002_Node000006"><a xlink:title=" ">
<path fill="none" stroke="#63b8ff" d="M201.51,-205.5C192.25,-193.35 182.11,-180.05 173.12,-168.25"/>
<polygon fill="none" stroke="#63b8ff" points="173.07,-168.17 166.25,-165.83 165.79,-158.63 172.61,-160.98 173.07,-168.17"/>
</a>
</g>
<text text-anchor="middle" x="213.23" y="-177.75" font-family="Helvetica,sans-Serif" font-size="10.00" fill="grey"> +sub_offset</text>
</g>
</g>
</svg>
