<?xml version="1.0" encoding="UTF-8" standalone="no"?>
<!DOCTYPE svg PUBLIC "-//W3C//DTD SVG 1.1//EN"
 "http://www.w3.org/Graphics/SVG/1.1/DTD/svg11.dtd">
<!-- Generated by graphviz version 12.0.0 (20240704.0754)
 -->
<!-- Title: TTL_export_double_const_uchar_tensor_buffering_t Pages: 1 -->
<svg width="257pt" height="362pt"
 viewBox="0.00 0.00 256.50 361.75" xmlns="http://www.w3.org/2000/svg" xmlns:xlink="http://www.w3.org/1999/xlink">
<g id="graph0" class="graph" transform="scale(1 1) rotate(0) translate(4 357.75)">
<title>TTL_export_double_const_uchar_tensor_buffering_t</title>
<!-- Node1 -->
<g id="Node000001" class="node">
<title>Node1</title>
<g id="a_Node000001"><a xlink:title="Data required to perform double buffer pipelining.">
<polygon fill="#999999" stroke="none" points="188,-105 66,-105 66,0 188,0 188,-105"/>
<text text-anchor="start" x="70.75" y="-91.5" font-family="Helvetica,sans-Serif" font-size="10.00">TTL_export_double_const</text>
<text text-anchor="start" x="71.12" y="-80.25" font-family="Helvetica,sans-Serif" font-size="10.00">_uchar_tensor_buffering_t</text>
<text text-anchor="start" x="86.5" y="-65.5" font-family="Helvetica,sans-Serif" font-size="10.00">+</text>
<text text-anchor="start" x="113" y="-65.5" font-family="Helvetica,sans-Serif" font-size="10.00">index</text>
<text text-anchor="start" x="86.5" y="-50.5" font-family="Helvetica,sans-Serif" font-size="10.00">+</text>
<text text-anchor="start" x="113" y="-50.5" font-family="Helvetica,sans-Serif" font-size="10.00">int_base</text>
<text text-anchor="start" x="86.5" y="-35.5" font-family="Helvetica,sans-Serif" font-size="10.00">+</text>
<text text-anchor="start" x="113" y="-35.5" font-family="Helvetica,sans-Serif" font-size="10.00">common</text>
<text text-anchor="start" x="86.5" y="-20.5" font-family="Helvetica,sans-Serif" font-size="10.00">+</text>
<text text-anchor="start" x="113" y="-20.5" font-family="Helvetica,sans-Serif" font-size="10.00">event</text>
<text text-anchor="start" x="125.5" y="-5.5" font-family="Helvetica,sans-Serif" font-size="10.00"> </text>
<polygon fill="#666666" stroke="#666666" points="66,-77 66,-77 188,-77 188,-77 66,-77"/>
<polygon fill="#666666" stroke="#666666" points="66,-17 66,-17 111,-17 111,-17 66,-17"/>
<polygon fill="#666666" stroke="#666666" points="111,-17 111,-17 188,-17 188,-17 111,-17"/>
<polygon fill="none" stroke="#666666" points="66,0 66,-105 188,-105 188,0 66,0"/>
</a>
</g>
</g>
<!-- Node2 -->
<g id="Node000002" class="node">
<title>Node2</title>
<g id="a_Node000002"><a xlink:href="structTTL__ext__uchar__tensor__t.html" target="_top" xlink:title="const and non&#45;const tensors in the appropriate address space">
<polygon fill="white" stroke="none" points="133.5,-227.5 18.5,-227.5 18.5,-163.5 133.5,-163.5 133.5,-227.5"/>
<text text-anchor="start" x="23.12" y="-214" font-family="Helvetica,sans-Serif" font-size="10.00">TTL_ext_uchar_tensor_t</text>
<text text-anchor="start" x="36" y="-199" font-family="Helvetica,sans-Serif" font-size="10.00">+</text>
<text text-anchor="start" x="59.5" y="-199" font-family="Helvetica,sans-Serif" font-size="10.00">base</text>
<text text-anchor="start" x="36" y="-184" font-family="Helvetica,sans-Serif" font-size="10.00">+</text>
<text text-anchor="start" x="59.5" y="-184" font-family="Helvetica,sans-Serif" font-size="10.00">elem_size</text>
<text text-anchor="start" x="74.5" y="-169" font-family="Helvetica,sans-Serif" font-size="10.00"> </text>
<polygon fill="#666666" stroke="#666666" points="18.5,-210.5 18.5,-210.5 133.5,-210.5 133.5,-210.5 18.5,-210.5"/>
<polygon fill="#666666" stroke="#666666" points="18.5,-180.5 18.5,-180.5 57.5,-180.5 57.5,-180.5 18.5,-180.5"/>
<polygon fill="#666666" stroke="#666666" points="57.5,-180.5 57.5,-180.5 133.5,-180.5 133.5,-180.5 57.5,-180.5"/>
<polygon fill="none" stroke="#666666" points="18.5,-163.5 18.5,-227.5 133.5,-227.5 133.5,-163.5 18.5,-163.5"/>
</a>
</g>
</g>
<!-- Node2&#45;&gt;Node1 -->
<g id="edge1_Node000001_Node000002" class="edge">
<title>Node2&#45;&gt;Node1</title>
<g id="a_edge1_Node000001_Node000002"><a xlink:title=" ">
<path fill="none" stroke="#63b8ff" d="M76.63,-163.58C77.64,-150.74 79.8,-135.87 84.25,-123 85.02,-120.79 85.86,-118.57 86.77,-116.36"/>
<polygon fill="none" stroke="#63b8ff" points="86.78,-116.35 85.67,-109.22 91.82,-105.46 92.93,-112.59 86.78,-116.35"/>
</a>
</g>
<text text-anchor="middle" x="118.88" y="-136" font-family="Helvetica,sans-Serif" font-size="10.00" fill="grey"> +ext_tensor_in</text>
<text text-anchor="middle" x="118.88" y="-124.75" font-family="Helvetica,sans-Serif" font-size="10.00" fill="grey">+ext_tensor_out</text>
</g>
<!-- Node3 -->
<g id="Node000003" class="node">
<title>Node3</title>
<g id="a_Node000003"><a xlink:href="structTTL__layout__t.html" target="_top" xlink:title="Description of a Tensor layout in memory.">
<polygon fill="white" stroke="none" points="80,-346.25 0,-346.25 0,-282.25 80,-282.25 80,-346.25"/>
<text text-anchor="start" x="11.5" y="-332.75" font-family="Helvetica,sans-Serif" font-size="10.00">TTL_layout_t</text>
<text text-anchor="start" x="4" y="-317.75" font-family="Helvetica,sans-Serif" font-size="10.00">+</text>
<text text-anchor="start" x="14" y="-317.75" font-family="Helvetica,sans-Serif" font-size="10.00">row_spacing</text>
<text text-anchor="start" x="4" y="-302.75" font-family="Helvetica,sans-Serif" font-size="10.00">+</text>
<text text-anchor="start" x="14" y="-302.75" font-family="Helvetica,sans-Serif" font-size="10.00">plane_spacing</text>
<text text-anchor="start" x="38.5" y="-287.75" font-family="Helvetica,sans-Serif" font-size="10.00"> </text>
<polygon fill="#666666" stroke="#666666" points="0,-329.25 0,-329.25 80,-329.25 80,-329.25 0,-329.25"/>
<polygon fill="#666666" stroke="#666666" points="0,-299.25 0,-299.25 12,-299.25 12,-299.25 0,-299.25"/>
<polygon fill="#666666" stroke="#666666" points="12,-299.25 12,-299.25 80,-299.25 80,-299.25 12,-299.25"/>
<polygon fill="none" stroke="#666666" points="0,-282.25 0,-346.25 80,-346.25 80,-282.25 0,-282.25"/>
</a>
</g>
</g>
<!-- Node3&#45;&gt;Node2 -->
<g id="edge2_Node000002_Node000003" class="edge">
<title>Node3&#45;&gt;Node2</title>
<g id="a_edge2_Node000002_Node000003"><a xlink:title=" ">
<path fill="none" stroke="#63b8ff" d="M37.39,-282.25C37.33,-270.49 38.42,-257.13 42.25,-245.5 43.03,-243.15 43.95,-240.8 45,-238.49"/>
<polygon fill="none" stroke="#63b8ff" points="44.92,-238.62 44.23,-231.44 50.59,-228.04 51.28,-235.22 44.92,-238.62"/>
</a>
</g>
<text text-anchor="middle" x="58.88" y="-247.25" font-family="Helvetica,sans-Serif" font-size="10.00" fill="grey"> +layout</text>
</g>
<!-- Node4 -->
<g id="Node000004" class="node">
<title>Node4</title>
<g id="a_Node000004"><a xlink:href="structTTL__shape__t.html" target="_top" xlink:title="Description of a Shape.">
<polygon fill="white" stroke="none" points="165.5,-353.75 98.5,-353.75 98.5,-274.75 165.5,-274.75 165.5,-353.75"/>
<text text-anchor="start" x="103.12" y="-340.25" font-family="Helvetica,sans-Serif" font-size="10.00">TTL_shape_t</text>
<text text-anchor="start" x="108" y="-325.25" font-family="Helvetica,sans-Serif" font-size="10.00">+</text>
<text text-anchor="start" x="123.5" y="-325.25" font-family="Helvetica,sans-Serif" font-size="10.00">width</text>
<text text-anchor="start" x="108" y="-310.25" font-family="Helvetica,sans-Serif" font-size="10.00">+</text>
<text text-anchor="start" x="123.5" y="-310.25" font-family="Helvetica,sans-Serif" font-size="10.00">height</text>
<text text-anchor="start" x="108" y="-295.25" font-family="Helvetica,sans-Serif" font-size="10.00">+</text>
<text text-anchor="start" x="123.5" y="-295.25" font-family="Helvetica,sans-Serif" font-size="10.00">depth</text>
<text text-anchor="start" x="130.5" y="-280.25" font-family="Helvetica,sans-Serif" font-size="10.00"> </text>
<polygon fill="#666666" stroke="#666666" points="98.5,-336.75 98.5,-336.75 165.5,-336.75 165.5,-336.75 98.5,-336.75"/>
<polygon fill="#666666" stroke="#666666" points="98.5,-291.75 98.5,-291.75 121.5,-291.75 121.5,-291.75 98.5,-291.75"/>
<polygon fill="#666666" stroke="#666666" points="121.5,-291.75 121.5,-291.75 165.5,-291.75 165.5,-291.75 121.5,-291.75"/>
<polygon fill="none" stroke="#666666" points="98.5,-274.75 98.5,-353.75 165.5,-353.75 165.5,-274.75 98.5,-274.75"/>
</a>
</g>
</g>
<!-- Node4&#45;&gt;Node2 -->
<g id="edge3_Node000002_Node000004" class="edge">
<title>Node4&#45;&gt;Node2</title>
<g id="a_edge3_Node000002_Node000004"><a xlink:title=" ">
<path fill="none" stroke="#63b8ff" d="M113.66,-275.02C108.11,-263.45 101.99,-250.68 96.31,-238.85"/>
<polygon fill="none" stroke="#63b8ff" points="96.41,-239.06 90.21,-235.38 91.22,-228.24 97.42,-231.92 96.41,-239.06"/>
</a>
</g>
<text text-anchor="middle" x="121.25" y="-247.25" font-family="Helvetica,sans-Serif" font-size="10.00" fill="grey"> +shape</text>
</g>
<!-- Node5 -->
<g id="Node000005" class="node">
<title>Node5</title>
<g id="a_Node000005"><a xlink:href="structTTL__tile__t.html" target="_top" xlink:title=" ">
<polygon fill="white" stroke="none" points="206,-220 152,-220 152,-171 206,-171 206,-220"/>
<text text-anchor="start" x="156.88" y="-206.5" font-family="Helvetica,sans-Serif" font-size="10.00">TTL_tile_t</text>
<text text-anchor="start" x="177.5" y="-191.5" font-family="Helvetica,sans-Serif" font-size="10.00"> </text>
<text text-anchor="start" x="177.5" y="-176.5" font-family="Helvetica,sans-Serif" font-size="10.00"> </text>
<polygon fill="#666666" stroke="#666666" points="152,-203 152,-203 206,-203 206,-203 152,-203"/>
<polygon fill="#666666" stroke="#666666" points="152,-188 152,-188 206,-188 206,-188 152,-188"/>
<polygon fill="none" stroke="#666666" points="152,-171 152,-220 206,-220 206,-171 152,-171"/>
</a>
</g>
</g>
<!-- Node4&#45;&gt;Node5 -->
<g id="edge5_Node000005_Node000004" class="edge">
<title>Node4&#45;&gt;Node5</title>
<g id="a_edge5_Node000005_Node000004"><a xlink:title=" ">
<path fill="none" stroke="#63b8ff" d="M145.18,-275.05C148.7,-265.35 152.61,-254.99 156.5,-245.5 158.4,-240.86 160.49,-236.01 162.61,-231.25"/>
<polygon fill="none" stroke="#63b8ff" points="162.5,-231.5 161.34,-224.38 167.47,-220.57 168.62,-227.69 162.5,-231.5"/>
</a>
</g>
<text text-anchor="middle" x="173.25" y="-247.25" font-family="Helvetica,sans-Serif" font-size="10.00" fill="grey"> +shape</text>
</g>
<!-- Node5&#45;&gt;Node1 -->
<g id="edge4_Node000001_Node000005" class="edge">
<title>Node5&#45;&gt;Node1</title>
<g id="a_edge4_Node000001_Node000005"><a xlink:title=" ">
<path fill="none" stroke="#63b8ff" d="M171.09,-171.24C166.27,-157.23 159.92,-139.04 154,-123 153.25,-120.95 152.47,-118.88 151.69,-116.78"/>
<polygon fill="none" stroke="#63b8ff" points="151.67,-116.73 145.81,-112.53 147.42,-105.51 153.29,-109.7 151.67,-116.73"/>
</a>
</g>
<text text-anchor="middle" x="183.5" y="-130.38" font-family="Helvetica,sans-Serif" font-size="10.00" fill="grey"> +prev_tile</text>
</g>
<!-- Node6 -->
<g id="Node000006" class="node">
<title>Node6</title>
<g id="a_Node000006"><a xlink:href="structTTL__offset__t.html" target="_top" xlink:title="Description of the 3D offset of an object.">
<polygon fill="white" stroke="none" points="248.5,-353.75 183.5,-353.75 183.5,-274.75 248.5,-274.75 248.5,-353.75"/>
<text text-anchor="start" x="188.25" y="-340.25" font-family="Helvetica,sans-Serif" font-size="10.00">TTL_offset_t</text>
<text text-anchor="start" x="198" y="-325.25" font-family="Helvetica,sans-Serif" font-size="10.00">+</text>
<text text-anchor="start" x="218.5" y="-325.25" font-family="Helvetica,sans-Serif" font-size="10.00">x</text>
<text text-anchor="start" x="198" y="-310.25" font-family="Helvetica,sans-Serif" font-size="10.00">+</text>
<text text-anchor="start" x="218.5" y="-310.25" font-family="Helvetica,sans-Serif" font-size="10.00">y</text>
<text text-anchor="start" x="198" y="-295.25" font-family="Helvetica,sans-Serif" font-size="10.00">+</text>
<text text-anchor="start" x="218.5" y="-295.25" font-family="Helvetica,sans-Serif" font-size="10.00">z</text>
<text text-anchor="start" x="214.5" y="-280.25" font-family="Helvetica,sans-Serif" font-size="10.00"> </text>
<polygon fill="#666666" stroke="#666666" points="183.5,-336.75 183.5,-336.75 248.5,-336.75 248.5,-336.75 183.5,-336.75"/>
<polygon fill="#666666" stroke="#666666" points="183.5,-291.75 183.5,-291.75 216.5,-291.75 216.5,-291.75 183.5,-291.75"/>
<polygon fill="#666666" stroke="#666666" points="216.5,-291.75 216.5,-291.75 248.5,-291.75 248.5,-291.75 216.5,-291.75"/>
<polygon fill="none" stroke="#666666" points="183.5,-274.75 183.5,-353.75 248.5,-353.75 248.5,-274.75 183.5,-274.75"/>
</a>
</g>
</g>
<!-- Node6&#45;&gt;Node5 -->
<g id="edge6_Node000005_Node000006" class="edge">
<title>Node6&#45;&gt;Node5</title>
<g id="a_edge6_Node000005_Node000006"><a xlink:title=" ">
<path fill="none" stroke="#63b8ff" d="M203.88,-275.02C199.51,-261.21 194.59,-245.69 190.29,-232.11"/>
<polygon fill="none" stroke="#63b8ff" points="190.29,-232.11 184.66,-227.6 186.66,-220.67 192.29,-225.19 190.29,-232.11"/>
</a>
</g>
<text text-anchor="middle" x="213.12" y="-247.25" font-family="Helvetica,sans-Serif" font-size="10.00" fill="grey"> +offset</text>
</g>
</g>
</svg>
