<?xml version="1.0" encoding="UTF-8" standalone="no"?>
<!DOCTYPE svg PUBLIC "-//W3C//DTD SVG 1.1//EN"
 "http://www.w3.org/Graphics/SVG/1.1/DTD/svg11.dtd">
<!-- Generated by graphviz version 12.0.0 (20240704.0754)
 -->
<!-- Title: TTL_int_uchar_sub_tensor_t Pages: 1 -->
<svg width="275pt" height="310pt"
 viewBox="0.00 0.00 275.00 309.50" xmlns="http://www.w3.org/2000/svg" xmlns:xlink="http://www.w3.org/1999/xlink">
<g id="graph0" class="graph" transform="scale(1 1) rotate(0) translate(4 305.5)">
<title>TTL_int_uchar_sub_tensor_t</title>
<!-- Node1 -->
<g id="Node000001" class="node">
<title>Node1</title>
<g id="a_Node000001"><a xlink:title="const and non&#45;const sub tensors in the appropriate address space">
<polygon fill="#999999" stroke="none" points="216.5,-49 82.5,-49 82.5,0 216.5,0 216.5,-49"/>
<text text-anchor="start" x="87.25" y="-35.5" font-family="Helvetica,sans-Serif" font-size="10.00">TTL_int_uchar_sub_tensor_t</text>
<text text-anchor="start" x="109.5" y="-20.5" font-family="Helvetica,sans-Serif" font-size="10.00">+</text>
<text text-anchor="start" x="142.5" y="-20.5" font-family="Helvetica,sans-Serif" font-size="10.00">origin</text>
<text text-anchor="start" x="148" y="-5.5" font-family="Helvetica,sans-Serif" font-size="10.00"> </text>
<polygon fill="#666666" stroke="#666666" points="82.5,-32 82.5,-32 216.5,-32 216.5,-32 82.5,-32"/>
<polygon fill="#666666" stroke="#666666" points="82.5,-17 82.5,-17 140.5,-17 140.5,-17 82.5,-17"/>
<polygon fill="#666666" stroke="#666666" points="140.5,-17 140.5,-17 216.5,-17 216.5,-17 140.5,-17"/>
<polygon fill="none" stroke="#666666" points="82.5,0 82.5,-49 216.5,-49 216.5,0 82.5,0"/>
</a>
</g>
</g>
<!-- Node2 -->
<g id="Node000002" class="node">
<title>Node2</title>
<g id="a_Node000002"><a xlink:href="structTTL__int__uchar__tensor__t.html" target="_top" xlink:title="const and non&#45;const tensors in the appropriate address space">
<polygon fill="white" stroke="none" points="113,-167.75 0,-167.75 0,-103.75 113,-103.75 113,-167.75"/>
<text text-anchor="start" x="4.75" y="-154.25" font-family="Helvetica,sans-Serif" font-size="10.00">TTL_int_uchar_tensor_t</text>
<text text-anchor="start" x="17" y="-139.25" font-family="Helvetica,sans-Serif" font-size="10.00">+</text>
<text text-anchor="start" x="40" y="-139.25" font-family="Helvetica,sans-Serif" font-size="10.00">base</text>
<text text-anchor="start" x="17" y="-124.25" font-family="Helvetica,sans-Serif" font-size="10.00">+</text>
<text text-anchor="start" x="40" y="-124.25" font-family="Helvetica,sans-Serif" font-size="10.00">elem_size</text>
<text text-anchor="start" x="55" y="-109.25" font-family="Helvetica,sans-Serif" font-size="10.00"> </text>
<polygon fill="#666666" stroke="#666666" points="0,-150.75 0,-150.75 113,-150.75 113,-150.75 0,-150.75"/>
<polygon fill="#666666" stroke="#666666" points="0,-120.75 0,-120.75 38,-120.75 38,-120.75 0,-120.75"/>
<polygon fill="#666666" stroke="#666666" points="38,-120.75 38,-120.75 113,-120.75 113,-120.75 38,-120.75"/>
<polygon fill="none" stroke="#666666" points="0,-103.75 0,-167.75 113,-167.75 113,-103.75 0,-103.75"/>
</a>
</g>
</g>
<!-- Node2&#45;&gt;Node1 -->
<g id="edge1_Node000001_Node000002" class="edge">
<title>Node2&#45;&gt;Node1</title>
<g id="a_edge1_Node000001_Node000002"><a xlink:title=" ">
<path fill="none" stroke="#63b8ff" d="M73.65,-104.04C81.08,-91.92 90.35,-78.24 100.25,-67 103.02,-63.85 106.04,-60.74 109.17,-57.71"/>
<polygon fill="none" stroke="#63b8ff" points="109.23,-57.65 110.97,-50.66 118.1,-49.57 116.36,-56.57 109.23,-57.65"/>
</a>
</g>
<text text-anchor="middle" x="118.12" y="-68.75" font-family="Helvetica,sans-Serif" font-size="10.00" fill="grey"> +tensor</text>
</g>
<!-- Node3 -->
<g id="Node000003" class="node">
<title>Node3</title>
<g id="a_Node000003"><a xlink:href="structTTL__layout__t.html" target="_top" xlink:title="Description of a Tensor layout in memory.">
<polygon fill="white" stroke="none" points="82.5,-294 2.5,-294 2.5,-230 82.5,-230 82.5,-294"/>
<text text-anchor="start" x="14" y="-280.5" font-family="Helvetica,sans-Serif" font-size="10.00">TTL_layout_t</text>
<text text-anchor="start" x="6.5" y="-265.5" font-family="Helvetica,sans-Serif" font-size="10.00">+</text>
<text text-anchor="start" x="16.5" y="-265.5" font-family="Helvetica,sans-Serif" font-size="10.00">row_spacing</text>
<text text-anchor="start" x="6.5" y="-250.5" font-family="Helvetica,sans-Serif" font-size="10.00">+</text>
<text text-anchor="start" x="16.5" y="-250.5" font-family="Helvetica,sans-Serif" font-size="10.00">plane_spacing</text>
<text text-anchor="start" x="41" y="-235.5" font-family="Helvetica,sans-Serif" font-size="10.00"> </text>
<polygon fill="#666666" stroke="#666666" points="2.5,-277 2.5,-277 82.5,-277 82.5,-277 2.5,-277"/>
<polygon fill="#666666" stroke="#666666" points="2.5,-247 2.5,-247 14.5,-247 14.5,-247 2.5,-247"/>
<polygon fill="#666666" stroke="#666666" points="14.5,-247 14.5,-247 82.5,-247 82.5,-247 14.5,-247"/>
<polygon fill="none" stroke="#666666" points="2.5,-230 2.5,-294 82.5,-294 82.5,-230 2.5,-230"/>
</a>
</g>
</g>
<!-- Node3&#45;&gt;Node2 -->
<g id="edge2_Node000002_Node000003" class="edge">
<title>Node3&#45;&gt;Node2</title>
<g id="a_edge2_Node000002_Node000003"><a xlink:title=" ">
<path fill="none" stroke="#63b8ff" d="M41.75,-230.22C41.81,-218.6 42.3,-205.28 43.75,-193.25 44.26,-189.06 44.94,-184.72 45.73,-180.4"/>
<polygon fill="none" stroke="#63b8ff" points="45.75,-180.28 43.04,-173.6 48.16,-168.52 50.87,-175.2 45.75,-180.28"/>
</a>
</g>
<text text-anchor="middle" x="61.38" y="-195" font-family="Helvetica,sans-Serif" font-size="10.00" fill="grey"> +layout</text>
</g>
<!-- Node4 -->
<g id="Node000004" class="node">
<title>Node4</title>
<g id="a_Node000004"><a xlink:href="structTTL__shape__t.html" target="_top" xlink:title="Description of a Shape.">
<polygon fill="white" stroke="none" points="175,-301.5 108,-301.5 108,-222.5 175,-222.5 175,-301.5"/>
<text text-anchor="start" x="112.62" y="-288" font-family="Helvetica,sans-Serif" font-size="10.00">TTL_shape_t</text>
<text text-anchor="start" x="117.5" y="-273" font-family="Helvetica,sans-Serif" font-size="10.00">+</text>
<text text-anchor="start" x="133" y="-273" font-family="Helvetica,sans-Serif" font-size="10.00">width</text>
<text text-anchor="start" x="117.5" y="-258" font-family="Helvetica,sans-Serif" font-size="10.00">+</text>
<text text-anchor="start" x="133" y="-258" font-family="Helvetica,sans-Serif" font-size="10.00">height</text>
<text text-anchor="start" x="117.5" y="-243" font-family="Helvetica,sans-Serif" font-size="10.00">+</text>
<text text-anchor="start" x="133" y="-243" font-family="Helvetica,sans-Serif" font-size="10.00">depth</text>
<text text-anchor="start" x="140" y="-228" font-family="Helvetica,sans-Serif" font-size="10.00"> </text>
<polygon fill="#666666" stroke="#666666" points="108,-284.5 108,-284.5 175,-284.5 175,-284.5 108,-284.5"/>
<polygon fill="#666666" stroke="#666666" points="108,-239.5 108,-239.5 131,-239.5 131,-239.5 108,-239.5"/>
<polygon fill="#666666" stroke="#666666" points="131,-239.5 131,-239.5 175,-239.5 175,-239.5 131,-239.5"/>
<polygon fill="none" stroke="#666666" points="108,-222.5 108,-301.5 175,-301.5 175,-222.5 108,-222.5"/>
</a>
</g>
</g>
<!-- Node4&#45;&gt;Node1 -->
<g id="edge4_Node000001_Node000004" class="edge">
<title>Node4&#45;&gt;Node1</title>
<g id="a_edge4_Node000001_Node000004"><a xlink:title=" ">
<path fill="none" stroke="#63b8ff" d="M142.8,-222.64C144.32,-178.09 146.79,-105.15 148.27,-61.59"/>
<polygon fill="none" stroke="#63b8ff" points="148.27,-61.71 144.48,-55.58 148.68,-49.72 152.47,-55.85 148.27,-61.71"/>
</a>
</g>
<text text-anchor="middle" x="164.75" y="-131.88" font-family="Helvetica,sans-Serif" font-size="10.00" fill="grey"> +shape</text>
</g>
<!-- Node4&#45;&gt;Node2 -->
<g id="edge3_Node000002_Node000004" class="edge">
<title>Node4&#45;&gt;Node2</title>
<g id="a_edge3_Node000002_Node000004"><a xlink:title=" ">
<path fill="none" stroke="#63b8ff" d="M113.62,-222.55C109.35,-216.54 105.03,-210.37 101,-204.5 95.23,-196.1 89.17,-187.03 83.43,-178.34"/>
<polygon fill="none" stroke="#63b8ff" points="83.48,-178.4 76.84,-175.58 76.89,-168.37 83.53,-171.19 83.48,-178.4"/>
</a>
</g>
<text text-anchor="middle" x="118.75" y="-195" font-family="Helvetica,sans-Serif" font-size="10.00" fill="grey"> +shape</text>
</g>
<!-- Node5 -->
<g id="Node000005" class="node">
<title>Node5</title>
<g id="a_Node000005"><a xlink:href="structTTL__offset__t.html" target="_top" xlink:title="Description of the 3D offset of an object.">
<polygon fill="white" stroke="none" points="267,-175.25 202,-175.25 202,-96.25 267,-96.25 267,-175.25"/>
<text text-anchor="start" x="206.75" y="-161.75" font-family="Helvetica,sans-Serif" font-size="10.00">TTL_offset_t</text>
<text text-anchor="start" x="216.5" y="-146.75" font-family="Helvetica,sans-Serif" font-size="10.00">+</text>
<text text-anchor="start" x="237" y="-146.75" font-family="Helvetica,sans-Serif" font-size="10.00">x</text>
<text text-anchor="start" x="216.5" y="-131.75" font-family="Helvetica,sans-Serif" font-size="10.00">+</text>
<text text-anchor="start" x="237" y="-131.75" font-family="Helvetica,sans-Serif" font-size="10.00">y</text>
<text text-anchor="start" x="216.5" y="-116.75" font-family="Helvetica,sans-Serif" font-size="10.00">+</text>
<text text-anchor="start" x="237" y="-116.75" font-family="Helvetica,sans-Serif" font-size="10.00">z</text>
<text text-anchor="start" x="233" y="-101.75" font-family="Helvetica,sans-Serif" font-size="10.00"> </text>
<polygon fill="#666666" stroke="#666666" points="202,-158.25 202,-158.25 267,-158.25 267,-158.25 202,-158.25"/>
<polygon fill="#666666" stroke="#666666" points="202,-113.25 202,-113.25 235,-113.25 235,-113.25 202,-113.25"/>
<polygon fill="#666666" stroke="#666666" points="235,-113.25 235,-113.25 267,-113.25 267,-113.25 235,-113.25"/>
<polygon fill="none" stroke="#666666" points="202,-96.25 202,-175.25 267,-175.25 267,-96.25 202,-96.25"/>
</a>
</g>
</g>
<!-- Node5&#45;&gt;Node1 -->
<g id="edge5_Node000001_Node000005" class="edge">
<title>Node5&#45;&gt;Node1</title>
<g id="a_edge5_Node000001_Node000005"><a xlink:title=" ">
<path fill="none" stroke="#63b8ff" d="M204.77,-96.54C195.22,-84.26 184.72,-70.76 175.46,-58.86"/>
<polygon fill="none" stroke="#63b8ff" points="175.61,-59.06 168.77,-56.79 168.25,-49.59 175.09,-51.87 175.61,-59.06"/>
</a>
</g>
<text text-anchor="middle" x="215.12" y="-68.75" font-family="Helvetica,sans-Serif" font-size="10.00" fill="grey"> +sub_offset</text>
</g>
</g>
</svg>
