<?xml version="1.0" encoding="UTF-8" standalone="no"?>
<!DOCTYPE svg PUBLIC "-//W3C//DTD SVG 1.1//EN"
 "http://www.w3.org/Graphics/SVG/1.1/DTD/svg11.dtd">
<!-- Generated by graphviz version 12.0.0 (20240704.0754)
 -->
<!-- Title: TTL_duplex_const_ushort_tensor_buffering_t Pages: 1 -->
<svg width="250pt" height="399pt"
 viewBox="0.00 0.00 249.75 399.00" xmlns="http://www.w3.org/2000/svg" xmlns:xlink="http://www.w3.org/1999/xlink">
<g id="graph0" class="graph" transform="scale(1 1) rotate(0) translate(4 395)">
<title>TTL_duplex_const_ushort_tensor_buffering_t</title>
<!-- Node1 -->
<g id="Node000001" class="node">
<title>Node1</title>
<g id="a_Node000001"><a xlink:title="Data required to perform duplex buffer pipelining.">
<polygon fill="#999999" stroke="none" points="184,-120 62,-120 62,0 184,0 184,-120"/>
<text text-anchor="start" x="66.75" y="-106.5" font-family="Helvetica,sans-Serif" font-size="10.00">TTL_duplex_const_ushort</text>
<text text-anchor="start" x="81.75" y="-95.25" font-family="Helvetica,sans-Serif" font-size="10.00">_tensor_buffering_t</text>
<text text-anchor="start" x="73" y="-80.5" font-family="Helvetica,sans-Serif" font-size="10.00">+</text>
<text text-anchor="start" x="90" y="-80.5" font-family="Helvetica,sans-Serif" font-size="10.00">index</text>
<text text-anchor="start" x="73" y="-65.5" font-family="Helvetica,sans-Serif" font-size="10.00">+</text>
<text text-anchor="start" x="90" y="-65.5" font-family="Helvetica,sans-Serif" font-size="10.00">int_base</text>
<text text-anchor="start" x="73" y="-50.5" font-family="Helvetica,sans-Serif" font-size="10.00">+</text>
<text text-anchor="start" x="90" y="-50.5" font-family="Helvetica,sans-Serif" font-size="10.00">common</text>
<text text-anchor="start" x="73" y="-35.5" font-family="Helvetica,sans-Serif" font-size="10.00">+</text>
<text text-anchor="start" x="90" y="-35.5" font-family="Helvetica,sans-Serif" font-size="10.00">events</text>
<text text-anchor="start" x="73" y="-20.5" font-family="Helvetica,sans-Serif" font-size="10.00">+</text>
<text text-anchor="start" x="90" y="-20.5" font-family="Helvetica,sans-Serif" font-size="10.00">prev_out_tensors</text>
<text text-anchor="start" x="121.5" y="-5.5" font-family="Helvetica,sans-Serif" font-size="10.00"> </text>
<polygon fill="#666666" stroke="#666666" points="62,-92 62,-92 184,-92 184,-92 62,-92"/>
<polygon fill="#666666" stroke="#666666" points="62,-17 62,-17 88,-17 88,-17 62,-17"/>
<polygon fill="#666666" stroke="#666666" points="88,-17 88,-17 184,-17 184,-17 88,-17"/>
<polygon fill="none" stroke="#666666" points="62,0 62,-120 184,-120 184,0 62,0"/>
</a>
</g>
</g>
<!-- Node2 -->
<g id="Node000002" class="node">
<title>Node2</title>
<g id="a_Node000002"><a xlink:href="structTTL__ext__ushort__tensor__t.html" target="_top" xlink:title="const and non&#45;const tensors in the appropriate address space">
<polygon fill="white" stroke="none" points="118,-259.25 0,-259.25 0,-195.25 118,-195.25 118,-259.25"/>
<text text-anchor="start" x="4.62" y="-245.75" font-family="Helvetica,sans-Serif" font-size="10.00">TTL_ext_ushort_tensor_t</text>
<text text-anchor="start" x="18" y="-230.75" font-family="Helvetica,sans-Serif" font-size="10.00">+</text>
<text text-anchor="start" x="42" y="-230.75" font-family="Helvetica,sans-Serif" font-size="10.00">base</text>
<text text-anchor="start" x="18" y="-215.75" font-family="Helvetica,sans-Serif" font-size="10.00">+</text>
<text text-anchor="start" x="42" y="-215.75" font-family="Helvetica,sans-Serif" font-size="10.00">elem_size</text>
<text text-anchor="start" x="57.5" y="-200.75" font-family="Helvetica,sans-Serif" font-size="10.00"> </text>
<polygon fill="#666666" stroke="#666666" points="0,-242.25 0,-242.25 118,-242.25 118,-242.25 0,-242.25"/>
<polygon fill="#666666" stroke="#666666" points="0,-212.25 0,-212.25 40,-212.25 40,-212.25 0,-212.25"/>
<polygon fill="#666666" stroke="#666666" points="40,-212.25 40,-212.25 118,-212.25 118,-212.25 40,-212.25"/>
<polygon fill="none" stroke="#666666" points="0,-195.25 0,-259.25 118,-259.25 118,-195.25 0,-195.25"/>
</a>
</g>
</g>
<!-- Node2&#45;&gt;Node1 -->
<g id="edge1_Node000001_Node000002" class="edge">
<title>Node2&#45;&gt;Node1</title>
<g id="a_edge1_Node000001_Node000002"><a xlink:title=" ">
<path fill="none" stroke="#63b8ff" d="M67.88,-195.29C73.03,-178.21 79.94,-156.73 87.25,-138 88.04,-135.97 88.86,-133.92 89.7,-131.85"/>
<polygon fill="none" stroke="#63b8ff" points="89.71,-131.84 88.36,-124.76 94.37,-120.78 95.73,-127.87 89.71,-131.84"/>
</a>
</g>
<text text-anchor="middle" x="121.88" y="-162.25" font-family="Helvetica,sans-Serif" font-size="10.00" fill="grey"> +ext_tensor_in</text>
<text text-anchor="middle" x="121.88" y="-151" font-family="Helvetica,sans-Serif" font-size="10.00" fill="grey">+ext_tensor_out</text>
<text text-anchor="middle" x="121.88" y="-139.75" font-family="Helvetica,sans-Serif" font-size="10.00" fill="grey">+to_export_to</text>
</g>
<!-- Node3 -->
<g id="Node000003" class="node">
<title>Node3</title>
<g id="a_Node000003"><a xlink:href="structTTL__layout__t.html" target="_top" xlink:title="Description of a Tensor layout in memory.">
<polygon fill="white" stroke="none" points="112,-383.5 32,-383.5 32,-319.5 112,-319.5 112,-383.5"/>
<text text-anchor="start" x="43.5" y="-370" font-family="Helvetica,sans-Serif" font-size="10.00">TTL_layout_t</text>
<text text-anchor="start" x="36" y="-355" font-family="Helvetica,sans-Serif" font-size="10.00">+</text>
<text text-anchor="start" x="46" y="-355" font-family="Helvetica,sans-Serif" font-size="10.00">row_spacing</text>
<text text-anchor="start" x="36" y="-340" font-family="Helvetica,sans-Serif" font-size="10.00">+</text>
<text text-anchor="start" x="46" y="-340" font-family="Helvetica,sans-Serif" font-size="10.00">plane_spacing</text>
<text text-anchor="start" x="70.5" y="-325" font-family="Helvetica,sans-Serif" font-size="10.00"> </text>
<polygon fill="#666666" stroke="#666666" points="32,-366.5 32,-366.5 112,-366.5 112,-366.5 32,-366.5"/>
<polygon fill="#666666" stroke="#666666" points="32,-336.5 32,-336.5 44,-336.5 44,-336.5 32,-336.5"/>
<polygon fill="#666666" stroke="#666666" points="44,-336.5 44,-336.5 112,-336.5 112,-336.5 44,-336.5"/>
<polygon fill="none" stroke="#666666" points="32,-319.5 32,-383.5 112,-383.5 112,-319.5 32,-319.5"/>
</a>
</g>
</g>
<!-- Node3&#45;&gt;Node2 -->
<g id="edge2_Node000002_Node000003" class="edge">
<title>Node3&#45;&gt;Node2</title>
<g id="a_edge2_Node000002_Node000003"><a xlink:title=" ">
<path fill="none" stroke="#63b8ff" d="M50.19,-319.52C45.69,-311.56 41.61,-302.76 39.25,-294 37.31,-286.79 37.5,-279.17 38.9,-271.77"/>
<polygon fill="none" stroke="#63b8ff" points="38.93,-271.68 36.67,-264.83 42.13,-260.12 44.38,-266.97 38.93,-271.68"/>
</a>
</g>
<text text-anchor="middle" x="56.88" y="-284.5" font-family="Helvetica,sans-Serif" font-size="10.00" fill="grey"> +layout</text>
</g>
<!-- Node5 -->
<g id="Node000005" class="node">
<title>Node5</title>
<g id="a_Node000005"><a xlink:href="structTTL__const__int__ushort__tensor__t.html" target="_top" xlink:title=" ">
<polygon fill="white" stroke="none" points="241.5,-264.75 136.5,-264.75 136.5,-189.75 241.5,-189.75 241.5,-264.75"/>
<text text-anchor="start" x="141.38" y="-251.25" font-family="Helvetica,sans-Serif" font-size="10.00">TTL_const_int_ushort</text>
<text text-anchor="start" x="168.75" y="-240" font-family="Helvetica,sans-Serif" font-size="10.00">_tensor_t</text>
<text text-anchor="start" x="151.5" y="-225.25" font-family="Helvetica,sans-Serif" font-size="10.00">+</text>
<text text-anchor="start" x="172.5" y="-225.25" font-family="Helvetica,sans-Serif" font-size="10.00">base</text>
<text text-anchor="start" x="151.5" y="-210.25" font-family="Helvetica,sans-Serif" font-size="10.00">+</text>
<text text-anchor="start" x="172.5" y="-210.25" font-family="Helvetica,sans-Serif" font-size="10.00">elem_size</text>
<text text-anchor="start" x="187.5" y="-195.25" font-family="Helvetica,sans-Serif" font-size="10.00"> </text>
<polygon fill="#666666" stroke="#666666" points="136.5,-236.75 136.5,-236.75 241.5,-236.75 241.5,-236.75 136.5,-236.75"/>
<polygon fill="#666666" stroke="#666666" points="136.5,-206.75 136.5,-206.75 170.5,-206.75 170.5,-206.75 136.5,-206.75"/>
<polygon fill="#666666" stroke="#666666" points="170.5,-206.75 170.5,-206.75 241.5,-206.75 241.5,-206.75 170.5,-206.75"/>
<polygon fill="none" stroke="#666666" points="136.5,-189.75 136.5,-264.75 241.5,-264.75 241.5,-189.75 136.5,-189.75"/>
</a>
</g>
</g>
<!-- Node3&#45;&gt;Node5 -->
<g id="edge5_Node000005_Node000003" class="edge">
<title>Node3&#45;&gt;Node5</title>
<g id="a_edge5_Node000005_Node000003"><a xlink:title=" ">
<path fill="none" stroke="#63b8ff" d="M75.84,-319.68C78.69,-307.12 83.64,-293.15 92.25,-282.75 101.44,-271.66 108.8,-272.36 125.2,-265.07"/>
<polygon fill="none" stroke="#63b8ff" points="125.15,-265.1 128.72,-258.83 135.88,-259.72 132.31,-265.99 125.15,-265.1"/>
</a>
</g>
<text text-anchor="middle" x="108.88" y="-284.5" font-family="Helvetica,sans-Serif" font-size="10.00" fill="grey"> +layout</text>
</g>
<!-- Node4 -->
<g id="Node000004" class="node">
<title>Node4</title>
<g id="a_Node000004"><a xlink:href="structTTL__shape__t.html" target="_top" xlink:title="Description of a Shape.">
<polygon fill="white" stroke="none" points="208.5,-391 141.5,-391 141.5,-312 208.5,-312 208.5,-391"/>
<text text-anchor="start" x="146.12" y="-377.5" font-family="Helvetica,sans-Serif" font-size="10.00">TTL_shape_t</text>
<text text-anchor="start" x="151" y="-362.5" font-family="Helvetica,sans-Serif" font-size="10.00">+</text>
<text text-anchor="start" x="166.5" y="-362.5" font-family="Helvetica,sans-Serif" font-size="10.00">width</text>
<text text-anchor="start" x="151" y="-347.5" font-family="Helvetica,sans-Serif" font-size="10.00">+</text>
<text text-anchor="start" x="166.5" y="-347.5" font-family="Helvetica,sans-Serif" font-size="10.00">height</text>
<text text-anchor="start" x="151" y="-332.5" font-family="Helvetica,sans-Serif" font-size="10.00">+</text>
<text text-anchor="start" x="166.5" y="-332.5" font-family="Helvetica,sans-Serif" font-size="10.00">depth</text>
<text text-anchor="start" x="173.5" y="-317.5" font-family="Helvetica,sans-Serif" font-size="10.00"> </text>
<polygon fill="#666666" stroke="#666666" points="141.5,-374 141.5,-374 208.5,-374 208.5,-374 141.5,-374"/>
<polygon fill="#666666" stroke="#666666" points="141.5,-329 141.5,-329 164.5,-329 164.5,-329 141.5,-329"/>
<polygon fill="#666666" stroke="#666666" points="164.5,-329 164.5,-329 208.5,-329 208.5,-329 164.5,-329"/>
<polygon fill="none" stroke="#666666" points="141.5,-312 141.5,-391 208.5,-391 208.5,-312 141.5,-312"/>
</a>
</g>
</g>
<!-- Node4&#45;&gt;Node2 -->
<g id="edge3_Node000002_Node000004" class="edge">
<title>Node4&#45;&gt;Node2</title>
<g id="a_edge3_Node000002_Node000004"><a xlink:title=" ">
<path fill="none" stroke="#63b8ff" d="M152.79,-312.29C146.09,-302.18 138.29,-291.63 130,-282.75 124.97,-277.37 119.37,-272.11 113.58,-267.11"/>
<polygon fill="none" stroke="#63b8ff" points="113.68,-267.19 106.51,-266.46 104.43,-259.55 111.6,-260.29 113.68,-267.19"/>
</a>
</g>
<text text-anchor="middle" x="155.25" y="-284.5" font-family="Helvetica,sans-Serif" font-size="10.00" fill="grey"> +shape</text>
</g>
<!-- Node4&#45;&gt;Node5 -->
<g id="edge6_Node000005_Node000004" class="edge">
<title>Node4&#45;&gt;Node5</title>
<g id="a_edge6_Node000005_Node000004"><a xlink:title=" ">
<path fill="none" stroke="#63b8ff" d="M184.98,-312.09C186.21,-306.07 187.29,-299.9 188,-294 188.65,-288.65 189.09,-283.03 189.39,-277.43"/>
<polygon fill="none" stroke="#63b8ff" points="189.39,-277.41 185.59,-271.28 189.79,-265.42 193.58,-271.55 189.39,-277.41"/>
</a>
</g>
<text text-anchor="middle" x="206.25" y="-284.5" font-family="Helvetica,sans-Serif" font-size="10.00" fill="grey"> +shape</text>
</g>
<!-- Node5&#45;&gt;Node1 -->
<g id="edge4_Node000001_Node000005" class="edge">
<title>Node5&#45;&gt;Node1</title>
<g id="a_edge4_Node000001_Node000005"><a xlink:title=" ">
<path fill="none" stroke="#63b8ff" d="M176.47,-189.97C170.78,-173.95 163.8,-154.94 157,-138 156.14,-135.86 155.25,-133.68 154.35,-131.49"/>
<polygon fill="none" stroke="#63b8ff" points="154.39,-131.58 148.38,-127.59 149.75,-120.51 155.76,-124.5 154.39,-131.58"/>
</a>
</g>
<text text-anchor="middle" x="205.38" y="-151" font-family="Helvetica,sans-Serif" font-size="10.00" fill="grey"> +to_export_from</text>
</g>
</g>
</svg>
