<?xml version="1.0" encoding="UTF-8" standalone="no"?>
<!DOCTYPE svg PUBLIC "-//W3C//DTD SVG 1.1//EN"
 "http://www.w3.org/Graphics/SVG/1.1/DTD/svg11.dtd">
<!-- Generated by graphviz version 12.2.1 (20241206.2353)
 -->
<!-- Title: TTL_int_ulong_sub_tensor_t Pages: 1 -->
<svg width="271pt" height="313pt"
 viewBox="0.00 0.00 270.88 312.75" xmlns="http://www.w3.org/2000/svg" xmlns:xlink="http://www.w3.org/1999/xlink">
<g id="graph0" class="graph" transform="scale(1 1) rotate(0) translate(4 308.75)">
<title>TTL_int_ulong_sub_tensor_t</title>
<!-- Node1 -->
<g id="Node000001" class="node">
<title>Node1</title>
<g id="a_Node000001"><a xlink:title="const and non&#45;const sub tensors in the appropriate address space">
<polygon fill="#999999" stroke="none" points="213,-49.75 81.25,-49.75 81.25,0 213,0 213,-49.75"/>
<text text-anchor="start" x="85.25" y="-36.25" font-family="Helvetica,sans-Serif" font-size="10.00">TTL_int_ulong_sub_tensor_t</text>
<text text-anchor="start" x="107.88" y="-21" font-family="Helvetica,sans-Serif" font-size="10.00">+</text>
<text text-anchor="start" x="140.5" y="-21" font-family="Helvetica,sans-Serif" font-size="10.00">origin</text>
<text text-anchor="start" x="145.62" y="-5.75" font-family="Helvetica,sans-Serif" font-size="10.00"> </text>
<polygon fill="#666666" stroke="#666666" points="81.25,-32.5 81.25,-32.5 213,-32.5 213,-32.5 81.25,-32.5"/>
<polygon fill="#666666" stroke="#666666" points="81.25,-17.25 81.25,-17.25 138.5,-17.25 138.5,-17.25 81.25,-17.25"/>
<polygon fill="#666666" stroke="#666666" points="138.5,-17.25 138.5,-17.25 213,-17.25 213,-17.25 138.5,-17.25"/>
<polygon fill="none" stroke="#666666" points="81.25,0 81.25,-49.75 213,-49.75 213,0 81.25,0"/>
</a>
</g>
</g>
<!-- Node2 -->
<g id="Node000002" class="node">
<title>Node2</title>
<g id="a_Node000002"><a xlink:href="structTTL__int__ulong__tensor__t.html" target="_top" xlink:title="const and non&#45;const tensors in the appropriate address space">
<polygon fill="white" stroke="none" points="111.5,-169.62 0.75,-169.62 0.75,-104.62 111.5,-104.62 111.5,-169.62"/>
<text text-anchor="start" x="4.75" y="-156.12" font-family="Helvetica,sans-Serif" font-size="10.00">TTL_int_ulong_tensor_t</text>
<text text-anchor="start" x="17.06" y="-140.88" font-family="Helvetica,sans-Serif" font-size="10.00">+</text>
<text text-anchor="start" x="39.38" y="-140.88" font-family="Helvetica,sans-Serif" font-size="10.00">base</text>
<text text-anchor="start" x="17.06" y="-125.62" font-family="Helvetica,sans-Serif" font-size="10.00">+</text>
<text text-anchor="start" x="39.38" y="-125.62" font-family="Helvetica,sans-Serif" font-size="10.00">elem_size</text>
<text text-anchor="start" x="54.62" y="-110.38" font-family="Helvetica,sans-Serif" font-size="10.00"> </text>
<polygon fill="#666666" stroke="#666666" points="0.75,-152.38 0.75,-152.38 111.5,-152.38 111.5,-152.38 0.75,-152.38"/>
<polygon fill="#666666" stroke="#666666" points="0.75,-121.88 0.75,-121.88 37.38,-121.88 37.38,-121.88 0.75,-121.88"/>
<polygon fill="#666666" stroke="#666666" points="37.38,-121.88 37.38,-121.88 111.5,-121.88 111.5,-121.88 37.38,-121.88"/>
<polygon fill="none" stroke="#666666" points="0.75,-104.62 0.75,-169.62 111.5,-169.62 111.5,-104.62 0.75,-104.62"/>
</a>
</g>
</g>
<!-- Node2&#45;&gt;Node1 -->
<g id="edge1_Node000001_Node000002" class="edge">
<title>Node2&#45;&gt;Node1</title>
<g id="a_edge1_Node000001_Node000002"><a xlink:title=" ">
<path fill="none" stroke="#63b8ff" d="M72.46,-104.75C79.49,-92.61 88.3,-78.96 97.88,-67.75 100.57,-64.59 103.52,-61.47 106.59,-58.45"/>
<polygon fill="none" stroke="#63b8ff" points="106.56,-58.47 108.24,-51.46 115.36,-50.32 113.68,-57.33 106.56,-58.47"/>
</a>
</g>
<text text-anchor="middle" x="115.5" y="-69.5" font-family="Helvetica,sans-Serif" font-size="10.00" fill="grey"> +tensor</text>
</g>
<!-- Node3 -->
<g id="Node000003" class="node">
<title>Node3</title>
<g id="a_Node000003"><a xlink:href="structTTL__layout__t.html" target="_top" xlink:title="Description of a Tensor layout in memory.">
<polygon fill="white" stroke="none" points="80.25,-297.12 0,-297.12 0,-232.12 80.25,-232.12 80.25,-297.12"/>
<text text-anchor="start" x="11.62" y="-283.62" font-family="Helvetica,sans-Serif" font-size="10.00">TTL_layout_t</text>
<text text-anchor="start" x="4" y="-268.38" font-family="Helvetica,sans-Serif" font-size="10.00">+</text>
<text text-anchor="start" x="14" y="-268.38" font-family="Helvetica,sans-Serif" font-size="10.00">row_spacing</text>
<text text-anchor="start" x="4" y="-253.12" font-family="Helvetica,sans-Serif" font-size="10.00">+</text>
<text text-anchor="start" x="14" y="-253.12" font-family="Helvetica,sans-Serif" font-size="10.00">plane_spacing</text>
<text text-anchor="start" x="38.62" y="-237.88" font-family="Helvetica,sans-Serif" font-size="10.00"> </text>
<polygon fill="#666666" stroke="#666666" points="0,-279.88 0,-279.88 80.25,-279.88 80.25,-279.88 0,-279.88"/>
<polygon fill="#666666" stroke="#666666" points="0,-249.38 0,-249.38 12,-249.38 12,-249.38 0,-249.38"/>
<polygon fill="#666666" stroke="#666666" points="12,-249.38 12,-249.38 80.25,-249.38 80.25,-249.38 12,-249.38"/>
<polygon fill="none" stroke="#666666" points="0,-232.12 0,-297.12 80.25,-297.12 80.25,-232.12 0,-232.12"/>
</a>
</g>
</g>
<!-- Node3&#45;&gt;Node2 -->
<g id="edge2_Node000002_Node000003" class="edge">
<title>Node3&#45;&gt;Node2</title>
<g id="a_edge2_Node000002_Node000003"><a xlink:title=" ">
<path fill="none" stroke="#63b8ff" d="M39.16,-232.19C39.21,-220.54 39.74,-207.25 41.38,-195.25 41.97,-190.91 42.77,-186.42 43.71,-181.96"/>
<polygon fill="none" stroke="#63b8ff" points="43.66,-182.15 41.13,-175.4 46.39,-170.47 48.92,-177.22 43.66,-182.15"/>
</a>
</g>
<text text-anchor="middle" x="58.25" y="-197" font-family="Helvetica,sans-Serif" font-size="10.00" fill="grey"> +layout</text>
</g>
<!-- Node4 -->
<g id="Node000004" class="node">
<title>Node4</title>
<g id="a_Node000004"><a xlink:href="structTTL__shape__t.html" target="_top" xlink:title="Description of a Shape.">
<polygon fill="white" stroke="none" points="172,-304.75 106.25,-304.75 106.25,-224.5 172,-224.5 172,-304.75"/>
<text text-anchor="start" x="110.25" y="-291.25" font-family="Helvetica,sans-Serif" font-size="10.00">TTL_shape_t</text>
<text text-anchor="start" x="115.62" y="-276" font-family="Helvetica,sans-Serif" font-size="10.00">+</text>
<text text-anchor="start" x="131" y="-276" font-family="Helvetica,sans-Serif" font-size="10.00">width</text>
<text text-anchor="start" x="115.62" y="-260.75" font-family="Helvetica,sans-Serif" font-size="10.00">+</text>
<text text-anchor="start" x="131" y="-260.75" font-family="Helvetica,sans-Serif" font-size="10.00">height</text>
<text text-anchor="start" x="115.62" y="-245.5" font-family="Helvetica,sans-Serif" font-size="10.00">+</text>
<text text-anchor="start" x="131" y="-245.5" font-family="Helvetica,sans-Serif" font-size="10.00">depth</text>
<text text-anchor="start" x="137.62" y="-230.25" font-family="Helvetica,sans-Serif" font-size="10.00"> </text>
<polygon fill="#666666" stroke="#666666" points="106.25,-287.5 106.25,-287.5 172,-287.5 172,-287.5 106.25,-287.5"/>
<polygon fill="#666666" stroke="#666666" points="106.25,-241.75 106.25,-241.75 129,-241.75 129,-241.75 106.25,-241.75"/>
<polygon fill="#666666" stroke="#666666" points="129,-241.75 129,-241.75 172,-241.75 172,-241.75 129,-241.75"/>
<polygon fill="none" stroke="#666666" points="106.25,-224.5 106.25,-304.75 172,-304.75 172,-224.5 106.25,-224.5"/>
</a>
</g>
</g>
<!-- Node4&#45;&gt;Node1 -->
<g id="edge4_Node000001_Node000004" class="edge">
<title>Node4&#45;&gt;Node1</title>
<g id="a_edge4_Node000001_Node000004"><a xlink:title=" ">
<path fill="none" stroke="#63b8ff" d="M140.44,-224.63C141.95,-179.72 144.41,-106.5 145.89,-62.58"/>
<polygon fill="none" stroke="#63b8ff" points="145.89,-62.58 142.09,-56.45 146.29,-50.58 150.09,-56.72 145.89,-62.58"/>
</a>
</g>
<text text-anchor="middle" x="161.94" y="-133.25" font-family="Helvetica,sans-Serif" font-size="10.00" fill="grey"> +shape</text>
</g>
<!-- Node4&#45;&gt;Node2 -->
<g id="edge3_Node000002_Node000004" class="edge">
<title>Node4&#45;&gt;Node2</title>
<g id="a_edge3_Node000002_Node000004"><a xlink:title=" ">
<path fill="none" stroke="#63b8ff" d="M110.92,-224.51C106.74,-218.52 102.53,-212.37 98.62,-206.5 93.02,-198.07 87.19,-188.94 81.7,-180.17"/>
<polygon fill="none" stroke="#63b8ff" points="81.79,-180.31 75.23,-177.32 75.46,-170.12 82.02,-173.1 81.79,-180.31"/>
</a>
</g>
<text text-anchor="middle" x="115.88" y="-197" font-family="Helvetica,sans-Serif" font-size="10.00" fill="grey"> +shape</text>
</g>
<!-- Node5 -->
<g id="Node000005" class="node">
<title>Node5</title>
<g id="a_Node000005"><a xlink:href="structTTL__offset__t.html" target="_top" xlink:title="Description of the 3D offset of an object.">
<polygon fill="white" stroke="none" points="262.88,-177.25 199.38,-177.25 199.38,-97 262.88,-97 262.88,-177.25"/>
<text text-anchor="start" x="203.38" y="-163.75" font-family="Helvetica,sans-Serif" font-size="10.00">TTL_offset_t</text>
<text text-anchor="start" x="213.62" y="-148.5" font-family="Helvetica,sans-Serif" font-size="10.00">+</text>
<text text-anchor="start" x="233.88" y="-148.5" font-family="Helvetica,sans-Serif" font-size="10.00">x</text>
<text text-anchor="start" x="213.62" y="-133.25" font-family="Helvetica,sans-Serif" font-size="10.00">+</text>
<text text-anchor="start" x="233.88" y="-133.25" font-family="Helvetica,sans-Serif" font-size="10.00">y</text>
<text text-anchor="start" x="213.62" y="-118" font-family="Helvetica,sans-Serif" font-size="10.00">+</text>
<text text-anchor="start" x="233.88" y="-118" font-family="Helvetica,sans-Serif" font-size="10.00">z</text>
<text text-anchor="start" x="229.62" y="-102.75" font-family="Helvetica,sans-Serif" font-size="10.00"> </text>
<polygon fill="#666666" stroke="#666666" points="199.38,-160 199.38,-160 262.88,-160 262.88,-160 199.38,-160"/>
<polygon fill="#666666" stroke="#666666" points="199.38,-114.25 199.38,-114.25 231.88,-114.25 231.88,-114.25 199.38,-114.25"/>
<polygon fill="#666666" stroke="#666666" points="231.88,-114.25 231.88,-114.25 262.88,-114.25 262.88,-114.25 231.88,-114.25"/>
<polygon fill="none" stroke="#666666" points="199.38,-97 199.38,-177.25 262.88,-177.25 262.88,-97 199.38,-97"/>
</a>
</g>
</g>
<!-- Node5&#45;&gt;Node1 -->
<g id="edge5_Node000001_Node000005" class="edge">
<title>Node5&#45;&gt;Node1</title>
<g id="a_edge5_Node000001_Node000005"><a xlink:title=" ">
<path fill="none" stroke="#63b8ff" d="M201.51,-97.25C192.25,-85.1 182.11,-71.8 173.12,-60"/>
<polygon fill="none" stroke="#63b8ff" points="173.07,-59.92 166.25,-57.58 165.79,-50.38 172.61,-52.73 173.07,-59.92"/>
</a>
</g>
<text text-anchor="middle" x="213.23" y="-69.5" font-family="Helvetica,sans-Serif" font-size="10.00" fill="grey"> +sub_offset</text>
</g>
</g>
</svg>
