<?xml version="1.0" encoding="UTF-8" standalone="no"?>
<!DOCTYPE svg PUBLIC "-//W3C//DTD SVG 1.1//EN"
 "http://www.w3.org/Graphics/SVG/1.1/DTD/svg11.dtd">
<!-- Generated by graphviz version 3.0.0 (20221109.1736)
 -->
<!-- Title: TTL_int_ext_typed_tensors.h Pages: 1 -->
<svg width="185pt" height="196pt"
 viewBox="0.00 0.00 185.00 196.00" xmlns="http://www.w3.org/2000/svg" xmlns:xlink="http://www.w3.org/1999/xlink">
<g id="graph0" class="graph" transform="scale(1 1) rotate(0) translate(4 192)">
<title>TTL_int_ext_typed_tensors.h</title>
<polygon fill="white" stroke="transparent" points="-4,4 -4,-192 181,-192 181,4 -4,4"/>
<!-- Node1 -->
<g id="node1" class="node">
<title>Node1</title>
<g id="a_node1"><a xlink:title=" ">
<polygon fill="#bfbfbf" stroke="black" points="0,-168.5 0,-187.5 142,-187.5 142,-168.5 0,-168.5"/>
<text text-anchor="middle" x="71" y="-175.5" font-family="Helvetica,sans-Serif" font-size="10.00">TTL_int_ext_typed_tensors.h</text>
</a>
</g>
</g>
<!-- Node2 -->
<g id="node2" class="node">
<title>Node2</title>
<g id="a_node2"><a xlink:href="TTL__types_8h.html" target="_top" xlink:title=" ">
<polygon fill="white" stroke="black" points="10,-56.5 10,-75.5 88,-75.5 88,-56.5 10,-56.5"/>
<text text-anchor="middle" x="49" y="-63.5" font-family="Helvetica,sans-Serif" font-size="10.00">../TTL_types.h</text>
</a>
</g>
</g>
<!-- Node1&#45;&gt;Node2 -->
<g id="edge1" class="edge">
<title>Node1&#45;&gt;Node2</title>
<path fill="none" stroke="midnightblue" d="M64.37,-168.27C58.23,-159.61 49.54,-145.67 46,-132 42.05,-116.78 43.29,-98.89 45.23,-85.73"/>
<polygon fill="midnightblue" stroke="midnightblue" points="48.73,-86.03 47.02,-75.58 41.84,-84.83 48.73,-86.03"/>
</g>
<!-- Node4 -->
<g id="node4" class="node">
<title>Node4</title>
<g id="a_node4"><a xlink:href="TTL__tensors__common_8h.html" target="_top" xlink:title=" ">
<polygon fill="white" stroke="black" points="55,-112.5 55,-131.5 177,-131.5 177,-112.5 55,-112.5"/>
<text text-anchor="middle" x="116" y="-119.5" font-family="Helvetica,sans-Serif" font-size="10.00">TTL_tensors_common.h</text>
</a>
</g>
</g>
<!-- Node1&#45;&gt;Node4 -->
<g id="edge3" class="edge">
<title>Node1&#45;&gt;Node4</title>
<path fill="none" stroke="midnightblue" d="M78.43,-168.08C84.85,-160.38 94.31,-149.03 102.12,-139.65"/>
<polygon fill="midnightblue" stroke="midnightblue" points="104.99,-141.67 108.71,-131.75 99.62,-137.19 104.99,-141.67"/>
</g>
<!-- Node3 -->
<g id="node3" class="node">
<title>Node3</title>
<g id="a_node3"><a xlink:href="TTL__macros_8h.html" target="_top" xlink:title=" ">
<polygon fill="white" stroke="black" points="42,-0.5 42,-19.5 122,-19.5 122,-0.5 42,-0.5"/>
<text text-anchor="middle" x="82" y="-7.5" font-family="Helvetica,sans-Serif" font-size="10.00">TTL_macros.h</text>
</a>
</g>
</g>
<!-- Node2&#45;&gt;Node3 -->
<g id="edge2" class="edge">
<title>Node2&#45;&gt;Node3</title>
<path fill="none" stroke="midnightblue" d="M54.45,-56.08C59.01,-48.61 65.67,-37.72 71.29,-28.52"/>
<polygon fill="midnightblue" stroke="midnightblue" points="74.42,-30.11 76.65,-19.75 68.45,-26.46 74.42,-30.11"/>
</g>
<!-- Node4&#45;&gt;Node2 -->
<g id="edge5" class="edge">
<title>Node4&#45;&gt;Node2</title>
<path fill="none" stroke="midnightblue" d="M105.24,-112.32C95.23,-104.26 80.11,-92.08 68.07,-82.37"/>
<polygon fill="midnightblue" stroke="midnightblue" points="69.94,-79.38 59.96,-75.83 65.55,-84.83 69.94,-79.38"/>
</g>
<!-- Node4&#45;&gt;Node3 -->
<g id="edge4" class="edge">
<title>Node4&#45;&gt;Node3</title>
<path fill="none" stroke="midnightblue" d="M113.52,-112.14C109.99,-99.6 103.25,-75.97 97,-56 94.23,-47.15 91,-37.37 88.24,-29.2"/>
<polygon fill="midnightblue" stroke="midnightblue" points="91.51,-27.94 84.97,-19.6 84.88,-30.19 91.51,-27.94"/>
</g>
</g>
</svg>
