<?xml version="1.0" encoding="UTF-8" standalone="no"?>
<!DOCTYPE svg PUBLIC "-//W3C//DTD SVG 1.1//EN"
 "http://www.w3.org/Graphics/SVG/1.1/DTD/svg11.dtd">
<!-- Generated by graphviz version 3.0.0 (20221109.1736)
 -->
<!-- Title: TTL_debug.h Pages: 1 -->
<svg width="552pt" height="319pt"
 viewBox="0.00 0.00 552.44 319.00" xmlns="http://www.w3.org/2000/svg" xmlns:xlink="http://www.w3.org/1999/xlink">
<g id="graph0" class="graph" transform="scale(1 1) rotate(0) translate(4 315)">
<title>TTL_debug.h</title>
<polygon fill="white" stroke="transparent" points="-4,4 -4,-315 548.44,-315 548.44,4 -4,4"/>
<!-- Node1 -->
<g id="node1" class="node">
<title>Node1</title>
<g id="a_node1"><a xlink:title=" ">
<polygon fill="#bfbfbf" stroke="black" points="413.94,-291.5 413.94,-310.5 487.94,-310.5 487.94,-291.5 413.94,-291.5"/>
<text text-anchor="middle" x="450.94" y="-298.5" font-family="Helvetica,sans-Serif" font-size="10.00">TTL_debug.h</text>
</a>
</g>
</g>
<!-- Node2 -->
<g id="node2" class="node">
<title>Node2</title>
<g id="a_node2"><a xlink:href="TTL__tensors_8h.html" target="_top" xlink:title=" ">
<polygon fill="white" stroke="black" points="190.94,-235.5 190.94,-254.5 270.94,-254.5 270.94,-235.5 190.94,-235.5"/>
<text text-anchor="middle" x="230.94" y="-242.5" font-family="Helvetica,sans-Serif" font-size="10.00">TTL_tensors.h</text>
</a>
</g>
</g>
<!-- Node1&#45;&gt;Node2 -->
<g id="edge1" class="edge">
<title>Node1&#45;&gt;Node2</title>
<path fill="none" stroke="midnightblue" d="M416.08,-291.44C378.03,-282.1 316.99,-267.12 275.48,-256.93"/>
<polygon fill="midnightblue" stroke="midnightblue" points="276.19,-253.5 265.64,-254.52 274.52,-260.3 276.19,-253.5"/>
</g>
<!-- Node5 -->
<g id="node5" class="node">
<title>Node5</title>
<g id="a_node5"><a xlink:href="TTL__types_8h.html" target="_top" xlink:title=" ">
<polygon fill="white" stroke="black" points="407.94,-112.5 407.94,-131.5 485.94,-131.5 485.94,-112.5 407.94,-112.5"/>
<text text-anchor="middle" x="446.94" y="-119.5" font-family="Helvetica,sans-Serif" font-size="10.00">../TTL_types.h</text>
</a>
</g>
</g>
<!-- Node1&#45;&gt;Node5 -->
<g id="edge15" class="edge">
<title>Node1&#45;&gt;Node5</title>
<path fill="none" stroke="midnightblue" d="M450.75,-291.46C450.14,-264.43 448.24,-180.24 447.37,-142.11"/>
<polygon fill="midnightblue" stroke="midnightblue" points="450.87,-141.79 447.14,-131.87 443.87,-141.94 450.87,-141.79"/>
</g>
<!-- Node11 -->
<g id="node11" class="node">
<title>Node11</title>
<g id="a_node11"><a xlink:href="TTL__tiles_8h.html" target="_top" xlink:title=" ">
<polygon fill="white" stroke="black" points="479.44,-235.5 479.44,-254.5 544.44,-254.5 544.44,-235.5 479.44,-235.5"/>
<text text-anchor="middle" x="511.94" y="-242.5" font-family="Helvetica,sans-Serif" font-size="10.00">TTL_tiles.h</text>
</a>
</g>
</g>
<!-- Node1&#45;&gt;Node11 -->
<g id="edge13" class="edge">
<title>Node1&#45;&gt;Node11</title>
<path fill="none" stroke="midnightblue" d="M460.74,-291.32C469.76,-283.34 483.35,-271.31 494.26,-261.65"/>
<polygon fill="midnightblue" stroke="midnightblue" points="496.8,-264.08 501.96,-254.83 492.16,-258.84 496.8,-264.08"/>
</g>
<!-- Node3 -->
<g id="node3" class="node">
<title>Node3</title>
<g id="a_node3"><a xlink:href="TTL__tensors__common_8h.html" target="_top" xlink:title=" ">
<polygon fill="white" stroke="black" points="315.44,-168.5 315.44,-198.5 422.44,-198.5 422.44,-168.5 315.44,-168.5"/>
<text text-anchor="start" x="323.44" y="-186.5" font-family="Helvetica,sans-Serif" font-size="10.00">tensors/TTL_tensors</text>
<text text-anchor="middle" x="368.94" y="-175.5" font-family="Helvetica,sans-Serif" font-size="10.00">_common.h</text>
</a>
</g>
</g>
<!-- Node2&#45;&gt;Node3 -->
<g id="edge2" class="edge">
<title>Node2&#45;&gt;Node3</title>
<path fill="none" stroke="midnightblue" d="M250.71,-235.48C270.54,-226.93 301.68,-213.5 327.02,-202.57"/>
<polygon fill="midnightblue" stroke="midnightblue" points="328.62,-205.7 336.42,-198.52 325.85,-199.27 328.62,-205.7"/>
</g>
<!-- Node6 -->
<g id="node6" class="node">
<title>Node6</title>
<g id="a_node6"><a xlink:href="TTL__ext__tensors_8h.html" target="_top" xlink:title=" ">
<polygon fill="white" stroke="black" points="164.44,-174 164.44,-193 297.44,-193 297.44,-174 164.44,-174"/>
<text text-anchor="middle" x="230.94" y="-181" font-family="Helvetica,sans-Serif" font-size="10.00">tensors/TTL_ext_tensors.h</text>
</a>
</g>
</g>
<!-- Node2&#45;&gt;Node6 -->
<g id="edge6" class="edge">
<title>Node2&#45;&gt;Node6</title>
<path fill="none" stroke="midnightblue" d="M230.94,-235.48C230.94,-227.08 230.94,-213.98 230.94,-203.16"/>
<polygon fill="midnightblue" stroke="midnightblue" points="234.44,-203.01 230.94,-193.01 227.44,-203.01 234.44,-203.01"/>
</g>
<!-- Node7 -->
<g id="node7" class="node">
<title>Node7</title>
<g id="a_node7"><a xlink:href="TTL__create__types_8h.html" target="_top" xlink:title=" ">
<polygon fill="white" stroke="black" points="25.94,-112.5 25.94,-131.5 135.94,-131.5 135.94,-112.5 25.94,-112.5"/>
<text text-anchor="middle" x="80.94" y="-119.5" font-family="Helvetica,sans-Serif" font-size="10.00">../TTL_create_types.h</text>
</a>
</g>
</g>
<!-- Node2&#45;&gt;Node7 -->
<g id="edge12" class="edge">
<title>Node2&#45;&gt;Node7</title>
<path fill="none" stroke="midnightblue" d="M190.69,-241.89C132.38,-237.89 28.86,-226.96 5.94,-199 -2.79,-188.35 -0.85,-179.99 5.94,-168 14.29,-153.26 29.6,-142.82 44.23,-135.73"/>
<polygon fill="midnightblue" stroke="midnightblue" points="45.94,-138.8 53.66,-131.55 43.1,-132.4 45.94,-138.8"/>
</g>
<!-- Node10 -->
<g id="node10" class="node">
<title>Node10</title>
<g id="a_node10"><a xlink:href="TTL__int__tensors_8h.html" target="_top" xlink:title=" ">
<polygon fill="white" stroke="black" points="15.44,-174 15.44,-193 146.44,-193 146.44,-174 15.44,-174"/>
<text text-anchor="middle" x="80.94" y="-181" font-family="Helvetica,sans-Serif" font-size="10.00">tensors/TTL_int_tensors.h</text>
</a>
</g>
</g>
<!-- Node2&#45;&gt;Node10 -->
<g id="edge10" class="edge">
<title>Node2&#45;&gt;Node10</title>
<path fill="none" stroke="midnightblue" d="M209.45,-235.48C183.83,-225.31 140.83,-208.26 111.7,-196.7"/>
<polygon fill="midnightblue" stroke="midnightblue" points="112.98,-193.44 102.39,-193.01 110.4,-199.95 112.98,-193.44"/>
</g>
<!-- Node4 -->
<g id="node4" class="node">
<title>Node4</title>
<g id="a_node4"><a xlink:href="TTL__macros_8h.html" target="_top" xlink:title=" ">
<polygon fill="white" stroke="black" points="362.44,-56.5 362.44,-75.5 449.44,-75.5 449.44,-56.5 362.44,-56.5"/>
<text text-anchor="middle" x="405.94" y="-63.5" font-family="Helvetica,sans-Serif" font-size="10.00">../TTL_macros.h</text>
</a>
</g>
</g>
<!-- Node3&#45;&gt;Node4 -->
<g id="edge3" class="edge">
<title>Node3&#45;&gt;Node4</title>
<path fill="none" stroke="midnightblue" d="M373.48,-168.34C380.18,-147.43 392.71,-108.31 400.09,-85.27"/>
<polygon fill="midnightblue" stroke="midnightblue" points="403.45,-86.26 403.17,-75.67 396.78,-84.12 403.45,-86.26"/>
</g>
<!-- Node3&#45;&gt;Node5 -->
<g id="edge4" class="edge">
<title>Node3&#45;&gt;Node5</title>
<path fill="none" stroke="midnightblue" d="M387.43,-168.4C399.46,-159.22 415.14,-147.26 427.39,-137.92"/>
<polygon fill="midnightblue" stroke="midnightblue" points="429.77,-140.51 435.59,-131.66 425.52,-134.94 429.77,-140.51"/>
</g>
<!-- Node5&#45;&gt;Node4 -->
<g id="edge5" class="edge">
<title>Node5&#45;&gt;Node4</title>
<path fill="none" stroke="midnightblue" d="M440.17,-112.08C434.38,-104.46 425.88,-93.26 418.81,-83.94"/>
<polygon fill="midnightblue" stroke="midnightblue" points="421.42,-81.6 412.59,-75.75 415.85,-85.83 421.42,-81.6"/>
</g>
<!-- Node6&#45;&gt;Node7 -->
<g id="edge7" class="edge">
<title>Node6&#45;&gt;Node7</title>
<path fill="none" stroke="midnightblue" d="M209.45,-173.98C183.83,-163.81 140.83,-146.76 111.7,-135.2"/>
<polygon fill="midnightblue" stroke="midnightblue" points="112.98,-131.94 102.39,-131.51 110.4,-138.45 112.98,-131.94"/>
</g>
<!-- Node8 -->
<g id="node8" class="node">
<title>Node8</title>
<g id="a_node8"><a xlink:href="TTL__create__type_8h.html" target="_top" xlink:title=" ">
<polygon fill="white" stroke="black" points="31.94,-56.5 31.94,-75.5 129.94,-75.5 129.94,-56.5 31.94,-56.5"/>
<text text-anchor="middle" x="80.94" y="-63.5" font-family="Helvetica,sans-Serif" font-size="10.00">TTL_create_type.h</text>
</a>
</g>
</g>
<!-- Node7&#45;&gt;Node8 -->
<g id="edge8" class="edge">
<title>Node7&#45;&gt;Node8</title>
<path fill="none" stroke="midnightblue" d="M80.94,-112.08C80.94,-105.01 80.94,-94.86 80.94,-85.99"/>
<polygon fill="midnightblue" stroke="midnightblue" points="84.44,-85.75 80.94,-75.75 77.44,-85.75 84.44,-85.75"/>
</g>
<!-- Node9 -->
<g id="node9" class="node">
<title>Node9</title>
<g id="a_node9"><a xlink:title=" ">
<polygon fill="white" stroke="#bfbfbf" points="7.44,-0.5 7.44,-19.5 154.44,-19.5 154.44,-0.5 7.44,-0.5"/>
<text text-anchor="middle" x="80.94" y="-7.5" font-family="Helvetica,sans-Serif" font-size="10.00">TTL_TYPES_INCLUDE_FILE</text>
</a>
</g>
</g>
<!-- Node8&#45;&gt;Node9 -->
<g id="edge9" class="edge">
<title>Node8&#45;&gt;Node9</title>
<path fill="none" stroke="midnightblue" d="M80.94,-56.08C80.94,-49.01 80.94,-38.86 80.94,-29.99"/>
<polygon fill="midnightblue" stroke="midnightblue" points="84.44,-29.75 80.94,-19.75 77.44,-29.75 84.44,-29.75"/>
</g>
<!-- Node10&#45;&gt;Node7 -->
<g id="edge11" class="edge">
<title>Node10&#45;&gt;Node7</title>
<path fill="none" stroke="midnightblue" d="M80.94,-173.98C80.94,-165.58 80.94,-152.48 80.94,-141.66"/>
<polygon fill="midnightblue" stroke="midnightblue" points="84.44,-141.51 80.94,-131.51 77.44,-141.51 84.44,-141.51"/>
</g>
<!-- Node11&#45;&gt;Node5 -->
<g id="edge14" class="edge">
<title>Node11&#45;&gt;Node5</title>
<path fill="none" stroke="midnightblue" d="M507.27,-235.3C496.63,-215.5 470.46,-166.78 456.34,-140.49"/>
<polygon fill="midnightblue" stroke="midnightblue" points="459.39,-138.78 451.58,-131.62 453.22,-142.09 459.39,-138.78"/>
</g>
</g>
</svg>
