<?xml version="1.0" encoding="UTF-8" standalone="no"?>
<!DOCTYPE svg PUBLIC "-//W3C//DTD SVG 1.1//EN"
 "http://www.w3.org/Graphics/SVG/1.1/DTD/svg11.dtd">
<!-- Generated by graphviz version 3.0.0 (20221109.1736)
 -->
<!-- Title: TTL_tensors.h Pages: 1 -->
<svg width="454pt" height="263pt"
 viewBox="0.00 0.00 454.00 263.00" xmlns="http://www.w3.org/2000/svg" xmlns:xlink="http://www.w3.org/1999/xlink">
<g id="graph0" class="graph" transform="scale(1 1) rotate(0) translate(4 259)">
<title>TTL_tensors.h</title>
<polygon fill="white" stroke="transparent" points="-4,4 -4,-259 450,-259 450,4 -4,4"/>
<!-- Node1 -->
<g id="node1" class="node">
<title>Node1</title>
<g id="a_node1"><a xlink:title=" ">
<polygon fill="#bfbfbf" stroke="black" points="198.5,-235.5 198.5,-254.5 278.5,-254.5 278.5,-235.5 198.5,-235.5"/>
<text text-anchor="middle" x="238.5" y="-242.5" font-family="Helvetica,sans-Serif" font-size="10.00">TTL_tensors.h</text>
</a>
</g>
</g>
<!-- Node2 -->
<g id="node2" class="node">
<title>Node2</title>
<g id="a_node2"><a xlink:href="TTL__tensors__common_8h.html" target="_top" xlink:title=" ">
<polygon fill="white" stroke="black" points="0,-168.5 0,-198.5 107,-198.5 107,-168.5 0,-168.5"/>
<text text-anchor="start" x="8" y="-186.5" font-family="Helvetica,sans-Serif" font-size="10.00">tensors/TTL_tensors</text>
<text text-anchor="middle" x="53.5" y="-175.5" font-family="Helvetica,sans-Serif" font-size="10.00">_common.h</text>
</a>
</g>
</g>
<!-- Node1&#45;&gt;Node2 -->
<g id="edge1" class="edge">
<title>Node1&#45;&gt;Node2</title>
<path fill="none" stroke="midnightblue" d="M211.99,-235.48C184.71,-226.7 141.45,-212.79 107.02,-201.71"/>
<polygon fill="midnightblue" stroke="midnightblue" points="107.69,-198.25 97.1,-198.52 105.55,-204.92 107.69,-198.25"/>
</g>
<!-- Node5 -->
<g id="node5" class="node">
<title>Node5</title>
<g id="a_node5"><a xlink:href="TTL__ext__tensors_8h.html" target="_top" xlink:title=" ">
<polygon fill="white" stroke="black" points="125,-174 125,-193 258,-193 258,-174 125,-174"/>
<text text-anchor="middle" x="191.5" y="-181" font-family="Helvetica,sans-Serif" font-size="10.00">tensors/TTL_ext_tensors.h</text>
</a>
</g>
</g>
<!-- Node1&#45;&gt;Node5 -->
<g id="edge5" class="edge">
<title>Node1&#45;&gt;Node5</title>
<path fill="none" stroke="midnightblue" d="M231.77,-235.48C224.72,-226.55 213.47,-212.31 204.65,-201.14"/>
<polygon fill="midnightblue" stroke="midnightblue" points="207.17,-198.69 198.22,-193.01 201.67,-203.03 207.17,-198.69"/>
</g>
<!-- Node6 -->
<g id="node6" class="node">
<title>Node6</title>
<g id="a_node6"><a xlink:href="TTL__create__types_8h.html" target="_top" xlink:title=" ">
<polygon fill="white" stroke="black" points="231.5,-112.5 231.5,-131.5 341.5,-131.5 341.5,-112.5 231.5,-112.5"/>
<text text-anchor="middle" x="286.5" y="-119.5" font-family="Helvetica,sans-Serif" font-size="10.00">../TTL_create_types.h</text>
</a>
</g>
</g>
<!-- Node1&#45;&gt;Node6 -->
<g id="edge11" class="edge">
<title>Node1&#45;&gt;Node6</title>
<path fill="none" stroke="midnightblue" d="M244.9,-235.47C251.19,-226.72 260.67,-212.52 266.5,-199 274.58,-180.25 280.05,-157.44 283.2,-141.74"/>
<polygon fill="midnightblue" stroke="midnightblue" points="286.68,-142.19 285.08,-131.71 279.8,-140.89 286.68,-142.19"/>
</g>
<!-- Node9 -->
<g id="node9" class="node">
<title>Node9</title>
<g id="a_node9"><a xlink:href="TTL__int__tensors_8h.html" target="_top" xlink:title=" ">
<polygon fill="white" stroke="black" points="315,-174 315,-193 446,-193 446,-174 315,-174"/>
<text text-anchor="middle" x="380.5" y="-181" font-family="Helvetica,sans-Serif" font-size="10.00">tensors/TTL_int_tensors.h</text>
</a>
</g>
</g>
<!-- Node1&#45;&gt;Node9 -->
<g id="edge9" class="edge">
<title>Node1&#45;&gt;Node9</title>
<path fill="none" stroke="midnightblue" d="M258.85,-235.48C282.89,-225.4 323.1,-208.55 350.66,-197"/>
<polygon fill="midnightblue" stroke="midnightblue" points="352.32,-200.1 360.19,-193.01 349.62,-193.65 352.32,-200.1"/>
</g>
<!-- Node3 -->
<g id="node3" class="node">
<title>Node3</title>
<g id="a_node3"><a xlink:href="TTL__macros_8h.html" target="_top" xlink:title=" ">
<polygon fill="white" stroke="black" points="11,-56.5 11,-75.5 98,-75.5 98,-56.5 11,-56.5"/>
<text text-anchor="middle" x="54.5" y="-63.5" font-family="Helvetica,sans-Serif" font-size="10.00">../TTL_macros.h</text>
</a>
</g>
</g>
<!-- Node2&#45;&gt;Node3 -->
<g id="edge2" class="edge">
<title>Node2&#45;&gt;Node3</title>
<path fill="none" stroke="midnightblue" d="M47.62,-168.24C42.49,-154.04 36.32,-131.58 39.5,-112 40.97,-102.96 43.99,-93.28 46.94,-85.22"/>
<polygon fill="midnightblue" stroke="midnightblue" points="50.26,-86.34 50.64,-75.75 43.74,-83.79 50.26,-86.34"/>
</g>
<!-- Node4 -->
<g id="node4" class="node">
<title>Node4</title>
<g id="a_node4"><a xlink:href="TTL__types_8h.html" target="_top" xlink:title=" ">
<polygon fill="white" stroke="black" points="48.5,-112.5 48.5,-131.5 126.5,-131.5 126.5,-112.5 48.5,-112.5"/>
<text text-anchor="middle" x="87.5" y="-119.5" font-family="Helvetica,sans-Serif" font-size="10.00">../TTL_types.h</text>
</a>
</g>
</g>
<!-- Node2&#45;&gt;Node4 -->
<g id="edge3" class="edge">
<title>Node2&#45;&gt;Node4</title>
<path fill="none" stroke="midnightblue" d="M61.56,-168.4C66.35,-160.02 72.46,-149.33 77.54,-140.42"/>
<polygon fill="midnightblue" stroke="midnightblue" points="80.63,-142.08 82.55,-131.66 74.55,-138.6 80.63,-142.08"/>
</g>
<!-- Node4&#45;&gt;Node3 -->
<g id="edge4" class="edge">
<title>Node4&#45;&gt;Node3</title>
<path fill="none" stroke="midnightblue" d="M82.05,-112.08C77.49,-104.61 70.83,-93.72 65.21,-84.52"/>
<polygon fill="midnightblue" stroke="midnightblue" points="68.05,-82.46 59.85,-75.75 62.08,-86.11 68.05,-82.46"/>
</g>
<!-- Node5&#45;&gt;Node6 -->
<g id="edge6" class="edge">
<title>Node5&#45;&gt;Node6</title>
<path fill="none" stroke="midnightblue" d="M205.11,-173.98C220.56,-164.3 245.99,-148.37 264.32,-136.89"/>
<polygon fill="midnightblue" stroke="midnightblue" points="266.3,-139.78 272.91,-131.51 262.58,-133.85 266.3,-139.78"/>
</g>
<!-- Node7 -->
<g id="node7" class="node">
<title>Node7</title>
<g id="a_node7"><a xlink:href="TTL__create__type_8h.html" target="_top" xlink:title=" ">
<polygon fill="white" stroke="black" points="237.5,-56.5 237.5,-75.5 335.5,-75.5 335.5,-56.5 237.5,-56.5"/>
<text text-anchor="middle" x="286.5" y="-63.5" font-family="Helvetica,sans-Serif" font-size="10.00">TTL_create_type.h</text>
</a>
</g>
</g>
<!-- Node6&#45;&gt;Node7 -->
<g id="edge7" class="edge">
<title>Node6&#45;&gt;Node7</title>
<path fill="none" stroke="midnightblue" d="M286.5,-112.08C286.5,-105.01 286.5,-94.86 286.5,-85.99"/>
<polygon fill="midnightblue" stroke="midnightblue" points="290,-85.75 286.5,-75.75 283,-85.75 290,-85.75"/>
</g>
<!-- Node8 -->
<g id="node8" class="node">
<title>Node8</title>
<g id="a_node8"><a xlink:title=" ">
<polygon fill="white" stroke="#bfbfbf" points="213,-0.5 213,-19.5 360,-19.5 360,-0.5 213,-0.5"/>
<text text-anchor="middle" x="286.5" y="-7.5" font-family="Helvetica,sans-Serif" font-size="10.00">TTL_TYPES_INCLUDE_FILE</text>
</a>
</g>
</g>
<!-- Node7&#45;&gt;Node8 -->
<g id="edge8" class="edge">
<title>Node7&#45;&gt;Node8</title>
<path fill="none" stroke="midnightblue" d="M286.5,-56.08C286.5,-49.01 286.5,-38.86 286.5,-29.99"/>
<polygon fill="midnightblue" stroke="midnightblue" points="290,-29.75 286.5,-19.75 283,-29.75 290,-29.75"/>
</g>
<!-- Node9&#45;&gt;Node6 -->
<g id="edge10" class="edge">
<title>Node9&#45;&gt;Node6</title>
<path fill="none" stroke="midnightblue" d="M367.03,-173.98C351.82,-164.34 326.81,-148.52 308.7,-137.05"/>
<polygon fill="midnightblue" stroke="midnightblue" points="310.26,-133.9 299.94,-131.51 306.52,-139.81 310.26,-133.9"/>
</g>
</g>
</svg>
