<?xml version="1.0" encoding="UTF-8" standalone="no"?>
<!DOCTYPE svg PUBLIC "-//W3C//DTD SVG 1.1//EN"
 "http://www.w3.org/Graphics/SVG/1.1/DTD/svg11.dtd">
<!-- Generated by graphviz version 3.0.0 (20221109.1736)
 -->
<!-- Title: TTL_macros.h Pages: 1 -->
<svg width="1207pt" height="476pt"
 viewBox="0.00 0.00 1206.50 476.00" xmlns="http://www.w3.org/2000/svg" xmlns:xlink="http://www.w3.org/1999/xlink">
<g id="graph0" class="graph" transform="scale(1 1) rotate(0) translate(4 472)">
<title>TTL_macros.h</title>
<polygon fill="white" stroke="transparent" points="-4,4 -4,-472 1202.5,-472 1202.5,4 -4,4"/>
<!-- Node1 -->
<g id="node1" class="node">
<title>Node1</title>
<g id="a_node1"><a xlink:title=" ">
<polygon fill="#bfbfbf" stroke="black" points="573,-448.5 573,-467.5 653,-467.5 653,-448.5 573,-448.5"/>
<text text-anchor="middle" x="613" y="-455.5" font-family="Helvetica,sans-Serif" font-size="10.00">TTL_macros.h</text>
</a>
</g>
</g>
<!-- Node2 -->
<g id="node2" class="node">
<title>Node2</title>
<g id="a_node2"><a xlink:href="TTL_8h.html" target="_top" xlink:title=" ">
<polygon fill="white" stroke="black" points="84,-0.5 84,-19.5 126,-19.5 126,-0.5 84,-0.5"/>
<text text-anchor="middle" x="105" y="-7.5" font-family="Helvetica,sans-Serif" font-size="10.00">TTL.h</text>
</a>
</g>
</g>
<!-- Node1&#45;&gt;Node2 -->
<g id="edge1" class="edge">
<title>Node1&#45;&gt;Node2</title>
<path fill="none" stroke="midnightblue" d="M562.71,-453.28C416.19,-441.76 0,-404.02 0,-347 0,-347 0,-347 0,-121 0,-71.37 56.63,-35.31 86.71,-19.65"/>
<polygon fill="midnightblue" stroke="midnightblue" points="562.54,-456.77 572.78,-454.06 563.08,-449.79 562.54,-456.77"/>
</g>
<!-- Node3 -->
<g id="node3" class="node">
<title>Node3</title>
<g id="a_node3"><a xlink:href="TTL__double__scheme_8h.html" target="_top" xlink:title=" ">
<polygon fill="white" stroke="black" points="734,-336.5 734,-355.5 850,-355.5 850,-336.5 734,-336.5"/>
<text text-anchor="middle" x="792" y="-343.5" font-family="Helvetica,sans-Serif" font-size="10.00">TTL_double_scheme.h</text>
</a>
</g>
</g>
<!-- Node1&#45;&gt;Node3 -->
<g id="edge2" class="edge">
<title>Node1&#45;&gt;Node3</title>
<path fill="none" stroke="midnightblue" d="M663.08,-452.44C714.74,-446.57 790.21,-434.37 808,-412 821.31,-395.27 807.22,-369.01 798.24,-355.56"/>
<polygon fill="midnightblue" stroke="midnightblue" points="662.65,-448.96 653.09,-453.53 663.41,-455.92 662.65,-448.96"/>
</g>
<!-- Node4 -->
<g id="node4" class="node">
<title>Node4</title>
<g id="a_node4"><a xlink:href="TTL__double__scheme__template_8h.html" target="_top" xlink:title=" ">
<polygon fill="white" stroke="black" points="641,-392.5 641,-411.5 799,-411.5 799,-392.5 641,-392.5"/>
<text text-anchor="middle" x="720" y="-399.5" font-family="Helvetica,sans-Serif" font-size="10.00">TTL_double_scheme_template.h</text>
</a>
</g>
</g>
<!-- Node1&#45;&gt;Node4 -->
<g id="edge3" class="edge">
<title>Node1&#45;&gt;Node4</title>
<path fill="none" stroke="midnightblue" d="M639.3,-443.73C659.11,-433.73 685.71,-420.31 702.85,-411.65"/>
<polygon fill="midnightblue" stroke="midnightblue" points="637.54,-440.69 630.19,-448.32 640.7,-446.94 637.54,-440.69"/>
</g>
<!-- Node5 -->
<g id="node5" class="node">
<title>Node5</title>
<g id="a_node5"><a xlink:href="TTL__duplex__scheme_8h.html" target="_top" xlink:title=" ">
<polygon fill="white" stroke="black" points="855.5,-392.5 855.5,-411.5 970.5,-411.5 970.5,-392.5 855.5,-392.5"/>
<text text-anchor="middle" x="913" y="-399.5" font-family="Helvetica,sans-Serif" font-size="10.00">TTL_duplex_scheme.h</text>
</a>
</g>
</g>
<!-- Node1&#45;&gt;Node5 -->
<g id="edge5" class="edge">
<title>Node1&#45;&gt;Node5</title>
<path fill="none" stroke="midnightblue" d="M663.26,-447.95C719.68,-437.8 810.5,-421.45 865.68,-411.52"/>
<polygon fill="midnightblue" stroke="midnightblue" points="662.37,-444.56 653.15,-449.77 663.61,-451.45 662.37,-444.56"/>
</g>
<!-- Node6 -->
<g id="node6" class="node">
<title>Node6</title>
<g id="a_node6"><a xlink:href="opencl_2TTL__import__export_8h.html" target="_top" xlink:title=" ">
<polygon fill="white" stroke="black" points="477,-168.5 477,-187.5 583,-187.5 583,-168.5 477,-168.5"/>
<text text-anchor="middle" x="530" y="-175.5" font-family="Helvetica,sans-Serif" font-size="10.00">TTL_import_export.h</text>
</a>
</g>
</g>
<!-- Node1&#45;&gt;Node6 -->
<g id="edge6" class="edge">
<title>Node1&#45;&gt;Node6</title>
<path fill="none" stroke="midnightblue" d="M617.32,-438.63C620.67,-425.43 625.79,-407.32 632,-392 638.79,-375.23 646.65,-373.56 651,-356 653.14,-347.37 653.87,-344.41 651,-336 628.36,-269.55 564.97,-209.31 540.15,-187.58"/>
<polygon fill="midnightblue" stroke="midnightblue" points="613.9,-437.86 614.93,-448.4 620.7,-439.52 613.9,-437.86"/>
</g>
<!-- Node10 -->
<g id="node10" class="node">
<title>Node10</title>
<g id="a_node10"><a xlink:href="TTL__simplex__scheme_8h.html" target="_top" xlink:title=" ">
<polygon fill="white" stroke="black" points="989,-392.5 989,-411.5 1109,-411.5 1109,-392.5 989,-392.5"/>
<text text-anchor="middle" x="1049" y="-399.5" font-family="Helvetica,sans-Serif" font-size="10.00">TTL_simplex_scheme.h</text>
</a>
</g>
</g>
<!-- Node1&#45;&gt;Node10 -->
<g id="edge12" class="edge">
<title>Node1&#45;&gt;Node10</title>
<path fill="none" stroke="midnightblue" d="M663.17,-450.97C733.85,-442.45 866.8,-426.32 980,-412 982.88,-411.64 985.82,-411.26 988.79,-410.88"/>
<polygon fill="midnightblue" stroke="midnightblue" points="662.71,-447.5 653.2,-452.17 663.55,-454.45 662.71,-447.5"/>
</g>
<!-- Node11 -->
<g id="node11" class="node">
<title>Node11</title>
<g id="a_node11"><a xlink:href="TTL__tensor__rw_8h.html" target="_top" xlink:title=" ">
<polygon fill="white" stroke="black" points="400,-336.5 400,-355.5 490,-355.5 490,-336.5 400,-336.5"/>
<text text-anchor="middle" x="445" y="-343.5" font-family="Helvetica,sans-Serif" font-size="10.00">TTL_tensor_rw.h</text>
</a>
</g>
</g>
<!-- Node1&#45;&gt;Node11 -->
<g id="edge13" class="edge">
<title>Node1&#45;&gt;Node11</title>
<path fill="none" stroke="midnightblue" d="M591.18,-442.71C555.78,-419.53 486.89,-374.43 458.12,-355.59"/>
<polygon fill="midnightblue" stroke="midnightblue" points="589.53,-445.82 599.82,-448.37 593.37,-439.96 589.53,-445.82"/>
</g>
<!-- Node12 -->
<g id="node12" class="node">
<title>Node12</title>
<g id="a_node12"><a xlink:href="TTL__tensors__common_8h.html" target="_top" xlink:title=" ">
<polygon fill="white" stroke="black" points="108,-336.5 108,-355.5 230,-355.5 230,-336.5 108,-336.5"/>
<text text-anchor="middle" x="169" y="-343.5" font-family="Helvetica,sans-Serif" font-size="10.00">TTL_tensors_common.h</text>
</a>
</g>
</g>
<!-- Node1&#45;&gt;Node12 -->
<g id="edge14" class="edge">
<title>Node1&#45;&gt;Node12</title>
<path fill="none" stroke="midnightblue" d="M562.54,-454.06C501.24,-449.46 395.22,-438.21 308,-412 260.55,-397.74 208.67,-369.89 183.85,-355.72"/>
<polygon fill="midnightblue" stroke="midnightblue" points="562.49,-457.56 572.71,-454.79 562.99,-450.58 562.49,-457.56"/>
</g>
<!-- Node17 -->
<g id="node17" class="node">
<title>Node17</title>
<g id="a_node17"><a xlink:href="TTL__typed__import__export_8h.html" target="_top" xlink:title=" ">
<polygon fill="white" stroke="black" points="508,-336.5 508,-355.5 642,-355.5 642,-336.5 508,-336.5"/>
<text text-anchor="middle" x="575" y="-343.5" font-family="Helvetica,sans-Serif" font-size="10.00">TTL_typed_import_export.h</text>
</a>
</g>
</g>
<!-- Node1&#45;&gt;Node17 -->
<g id="edge22" class="edge">
<title>Node1&#45;&gt;Node17</title>
<path fill="none" stroke="midnightblue" d="M606.67,-438.67C598.36,-414.62 584.12,-373.39 577.97,-355.59"/>
<polygon fill="midnightblue" stroke="midnightblue" points="603.44,-440.06 610.02,-448.37 610.06,-437.77 603.44,-440.06"/>
</g>
<!-- Node18 -->
<g id="node18" class="node">
<title>Node18</title>
<g id="a_node18"><a xlink:href="tensors_2TTL__types_8h.html" target="_top" xlink:title=" ">
<polygon fill="white" stroke="black" points="1127.5,-392.5 1127.5,-411.5 1198.5,-411.5 1198.5,-392.5 1127.5,-392.5"/>
<text text-anchor="middle" x="1163" y="-399.5" font-family="Helvetica,sans-Serif" font-size="10.00">TTL_types.h</text>
</a>
</g>
</g>
<!-- Node1&#45;&gt;Node18 -->
<g id="edge23" class="edge">
<title>Node1&#45;&gt;Node18</title>
<path fill="none" stroke="midnightblue" d="M663.14,-454.34C754.12,-449.11 952.32,-435.88 1118,-412 1121,-411.57 1124.1,-411.07 1127.2,-410.52"/>
<polygon fill="midnightblue" stroke="midnightblue" points="662.89,-450.85 653.1,-454.91 663.29,-457.84 662.89,-450.85"/>
</g>
<!-- Node19 -->
<g id="node19" class="node">
<title>Node19</title>
<g id="a_node19"><a xlink:href="TTL__types_8h.html" target="_top" xlink:title=" ">
<polygon fill="white" stroke="black" points="317.5,-392.5 317.5,-411.5 388.5,-411.5 388.5,-392.5 317.5,-392.5"/>
<text text-anchor="middle" x="353" y="-399.5" font-family="Helvetica,sans-Serif" font-size="10.00">TTL_types.h</text>
</a>
</g>
</g>
<!-- Node1&#45;&gt;Node19 -->
<g id="edge24" class="edge">
<title>Node1&#45;&gt;Node19</title>
<path fill="none" stroke="midnightblue" d="M563.09,-446.63C511.94,-436.01 433.67,-419.75 388.5,-410.37"/>
<polygon fill="midnightblue" stroke="midnightblue" points="562.44,-450.07 572.94,-448.68 563.87,-443.22 562.44,-450.07"/>
</g>
<!-- Node4&#45;&gt;Node3 -->
<g id="edge4" class="edge">
<title>Node4&#45;&gt;Node3</title>
<path fill="none" stroke="midnightblue" d="M739.87,-386.1C752.82,-376.38 769.3,-364.03 780.22,-355.83"/>
<polygon fill="midnightblue" stroke="midnightblue" points="737.47,-383.52 731.57,-392.32 741.67,-389.12 737.47,-383.52"/>
</g>
<!-- Node7 -->
<g id="node7" class="node">
<title>Node7</title>
<g id="a_node7"><a xlink:href="c_2TTL__import__export_8h.html" target="_top" xlink:title=" ">
<polygon fill="white" stroke="black" points="437,-112.5 437,-131.5 543,-131.5 543,-112.5 437,-112.5"/>
<text text-anchor="middle" x="490" y="-119.5" font-family="Helvetica,sans-Serif" font-size="10.00">TTL_import_export.h</text>
</a>
</g>
</g>
<!-- Node6&#45;&gt;Node7 -->
<g id="edge7" class="edge">
<title>Node6&#45;&gt;Node7</title>
<path fill="none" stroke="midnightblue" d="M517.3,-159.86C510.37,-150.5 502.09,-139.33 496.48,-131.75"/>
<polygon fill="midnightblue" stroke="midnightblue" points="514.63,-162.13 523.39,-168.08 520.25,-157.96 514.63,-162.13"/>
</g>
<!-- Node8 -->
<g id="node8" class="node">
<title>Node8</title>
<g id="a_node8"><a xlink:href="TTL__import__export_8h.html" target="_top" xlink:title=" ">
<polygon fill="white" stroke="black" points="313,-112.5 313,-131.5 419,-131.5 419,-112.5 313,-112.5"/>
<text text-anchor="middle" x="366" y="-119.5" font-family="Helvetica,sans-Serif" font-size="10.00">TTL_import_export.h</text>
</a>
</g>
</g>
<!-- Node6&#45;&gt;Node8 -->
<g id="edge8" class="edge">
<title>Node6&#45;&gt;Node8</title>
<path fill="none" stroke="midnightblue" d="M494.48,-165.3C463.58,-155.13 419.53,-140.62 391.86,-131.52"/>
<polygon fill="midnightblue" stroke="midnightblue" points="493.42,-168.64 504.01,-168.44 495.61,-161.99 493.42,-168.64"/>
</g>
<!-- Node9 -->
<g id="node9" class="node">
<title>Node9</title>
<g id="a_node9"><a xlink:href="TTL__pipeline__schemes_8h.html" target="_top" xlink:title=" ">
<polygon fill="white" stroke="black" points="262.5,-56.5 262.5,-75.5 387.5,-75.5 387.5,-56.5 262.5,-56.5"/>
<text text-anchor="middle" x="325" y="-63.5" font-family="Helvetica,sans-Serif" font-size="10.00">TTL_pipeline_schemes.h</text>
</a>
</g>
</g>
<!-- Node6&#45;&gt;Node9 -->
<g id="edge11" class="edge">
<title>Node6&#45;&gt;Node9</title>
<path fill="none" stroke="midnightblue" d="M543.84,-160.16C553.72,-146 563.41,-125.9 552,-112 531.54,-87.08 447.51,-75.72 387.66,-70.71"/>
<polygon fill="midnightblue" stroke="midnightblue" points="540.79,-158.4 537.54,-168.49 546.37,-162.63 540.79,-158.4"/>
</g>
<!-- Node8&#45;&gt;Node9 -->
<g id="edge9" class="edge">
<title>Node8&#45;&gt;Node9</title>
<path fill="none" stroke="midnightblue" d="M352.98,-103.86C345.88,-94.5 337.4,-83.33 331.64,-75.75"/>
<polygon fill="midnightblue" stroke="midnightblue" points="350.39,-106.24 359.23,-112.08 355.97,-102 350.39,-106.24"/>
</g>
<!-- Node9&#45;&gt;Node2 -->
<g id="edge10" class="edge">
<title>Node9&#45;&gt;Node2</title>
<path fill="none" stroke="midnightblue" d="M280.22,-54.01C233.24,-42.48 161.41,-24.85 126.09,-16.18"/>
<polygon fill="midnightblue" stroke="midnightblue" points="279.59,-57.46 290.14,-56.44 281.26,-50.66 279.59,-57.46"/>
</g>
<!-- Node13 -->
<g id="node13" class="node">
<title>Node13</title>
<g id="a_node13"><a xlink:href="TTL__int__ext__typed__tensors_8h.html" target="_top" xlink:title=" ">
<polygon fill="white" stroke="black" points="126,-280.5 126,-299.5 268,-299.5 268,-280.5 126,-280.5"/>
<text text-anchor="middle" x="197" y="-287.5" font-family="Helvetica,sans-Serif" font-size="10.00">TTL_int_ext_typed_tensors.h</text>
</a>
</g>
</g>
<!-- Node12&#45;&gt;Node13 -->
<g id="edge15" class="edge">
<title>Node12&#45;&gt;Node13</title>
<path fill="none" stroke="midnightblue" d="M178.34,-326.98C183.09,-317.82 188.66,-307.09 192.46,-299.75"/>
<polygon fill="midnightblue" stroke="midnightblue" points="175.12,-325.59 173.62,-336.08 181.33,-328.82 175.12,-325.59"/>
</g>
<!-- Node14 -->
<g id="node14" class="node">
<title>Node14</title>
<g id="a_node14"><a xlink:href="TTL__tensors_8h.html" target="_top" xlink:title=" ">
<polygon fill="white" stroke="black" points="28,-280.5 28,-299.5 108,-299.5 108,-280.5 28,-280.5"/>
<text text-anchor="middle" x="68" y="-287.5" font-family="Helvetica,sans-Serif" font-size="10.00">TTL_tensors.h</text>
</a>
</g>
</g>
<!-- Node12&#45;&gt;Node14 -->
<g id="edge16" class="edge">
<title>Node12&#45;&gt;Node14</title>
<path fill="none" stroke="midnightblue" d="M143.92,-331.59C125.24,-321.61 100.3,-308.27 84.19,-299.65"/>
<polygon fill="midnightblue" stroke="midnightblue" points="142.3,-334.7 152.77,-336.32 145.6,-328.52 142.3,-334.7"/>
</g>
<!-- Node15 -->
<g id="node15" class="node">
<title>Node15</title>
<g id="a_node15"><a xlink:href="TTL__core_8h.html" target="_top" xlink:title=" ">
<polygon fill="white" stroke="black" points="293,-168.5 293,-187.5 359,-187.5 359,-168.5 293,-168.5"/>
<text text-anchor="middle" x="326" y="-175.5" font-family="Helvetica,sans-Serif" font-size="10.00">TTL_core.h</text>
</a>
</g>
</g>
<!-- Node14&#45;&gt;Node15 -->
<g id="edge17" class="edge">
<title>Node14&#45;&gt;Node15</title>
<path fill="none" stroke="midnightblue" d="M97.45,-276.45C150.43,-253.86 260.54,-206.91 305.85,-187.59"/>
<polygon fill="midnightblue" stroke="midnightblue" points="96.07,-273.23 88.24,-280.37 98.82,-279.67 96.07,-273.23"/>
</g>
<!-- Node16 -->
<g id="node16" class="node">
<title>Node16</title>
<g id="a_node16"><a xlink:href="TTL__debug_8h.html" target="_top" xlink:title=" ">
<polygon fill="white" stroke="black" points="257,-224.5 257,-243.5 331,-243.5 331,-224.5 257,-224.5"/>
<text text-anchor="middle" x="294" y="-231.5" font-family="Helvetica,sans-Serif" font-size="10.00">TTL_debug.h</text>
</a>
</g>
</g>
<!-- Node14&#45;&gt;Node16 -->
<g id="edge20" class="edge">
<title>Node14&#45;&gt;Node16</title>
<path fill="none" stroke="midnightblue" d="M113.67,-278.09C156.36,-267.89 219.25,-252.86 258.36,-243.52"/>
<polygon fill="midnightblue" stroke="midnightblue" points="112.72,-274.72 103.81,-280.44 114.35,-281.52 112.72,-274.72"/>
</g>
<!-- Node15&#45;&gt;Node8 -->
<g id="edge18" class="edge">
<title>Node15&#45;&gt;Node8</title>
<path fill="none" stroke="midnightblue" d="M338.7,-159.86C345.63,-150.5 353.91,-139.33 359.52,-131.75"/>
<polygon fill="midnightblue" stroke="midnightblue" points="335.75,-157.96 332.61,-168.08 341.37,-162.13 335.75,-157.96"/>
</g>
<!-- Node15&#45;&gt;Node9 -->
<g id="edge19" class="edge">
<title>Node15&#45;&gt;Node9</title>
<path fill="none" stroke="midnightblue" d="M315.24,-159.69C310.82,-151.59 306.23,-141.64 304,-132 299.24,-111.43 311.25,-88.04 319.01,-75.7"/>
<polygon fill="midnightblue" stroke="midnightblue" points="312.3,-161.6 320.36,-168.48 318.35,-158.08 312.3,-161.6"/>
</g>
<!-- Node16&#45;&gt;Node15 -->
<g id="edge21" class="edge">
<title>Node16&#45;&gt;Node15</title>
<path fill="none" stroke="midnightblue" d="M304.5,-215.27C309.97,-206.05 316.42,-195.17 320.81,-187.75"/>
<polygon fill="midnightblue" stroke="midnightblue" points="301.37,-213.7 299.28,-224.08 307.39,-217.26 301.37,-213.7"/>
</g>
<!-- Node19&#45;&gt;Node11 -->
<g id="edge28" class="edge">
<title>Node19&#45;&gt;Node11</title>
<path fill="none" stroke="midnightblue" d="M376.55,-387.18C393.48,-377.24 415.78,-364.15 430.26,-355.65"/>
<polygon fill="midnightblue" stroke="midnightblue" points="374.63,-384.24 367.78,-392.32 378.18,-390.28 374.63,-384.24"/>
</g>
<!-- Node19&#45;&gt;Node12 -->
<g id="edge29" class="edge">
<title>Node19&#45;&gt;Node12</title>
<path fill="none" stroke="midnightblue" d="M314.05,-389.57C279.34,-379.38 229.32,-364.7 198.02,-355.52"/>
<polygon fill="midnightblue" stroke="midnightblue" points="313.26,-392.99 323.84,-392.44 315.23,-386.27 313.26,-392.99"/>
</g>
<!-- Node19&#45;&gt;Node13 -->
<g id="edge27" class="edge">
<title>Node19&#45;&gt;Node13</title>
<path fill="none" stroke="midnightblue" d="M330.04,-387.16C315.98,-378.51 297.71,-366.96 282,-356 254.42,-336.77 223.35,-312.24 207.51,-299.52"/>
<polygon fill="midnightblue" stroke="midnightblue" points="328.26,-390.17 338.62,-392.4 331.91,-384.2 328.26,-390.17"/>
</g>
<!-- Node19&#45;&gt;Node15 -->
<g id="edge25" class="edge">
<title>Node19&#45;&gt;Node15</title>
<path fill="none" stroke="midnightblue" d="M363.5,-383.57C374.6,-364.03 391.41,-331 398,-300 399.85,-291.31 400.71,-288.47 398,-280 385.47,-240.83 351.56,-203.88 335.14,-187.65"/>
<polygon fill="midnightblue" stroke="midnightblue" points="360.45,-381.84 358.43,-392.24 366.5,-385.37 360.45,-381.84"/>
</g>
<!-- Node19&#45;&gt;Node16 -->
<g id="edge26" class="edge">
<title>Node19&#45;&gt;Node16</title>
<path fill="none" stroke="midnightblue" d="M345.92,-382.96C338.08,-362.82 325.22,-329.23 315,-300 308.04,-280.07 300.6,-256.43 296.72,-243.88"/>
<polygon fill="midnightblue" stroke="midnightblue" points="342.71,-384.36 349.61,-392.4 349.23,-381.82 342.71,-384.36"/>
</g>
<!-- Node19&#45;&gt;Node17 -->
<g id="edge33" class="edge">
<title>Node19&#45;&gt;Node17</title>
<path fill="none" stroke="midnightblue" d="M398.12,-390.02C440.06,-379.82 501.65,-364.84 539.99,-355.52"/>
<polygon fill="midnightblue" stroke="midnightblue" points="397.07,-386.68 388.18,-392.44 398.72,-393.48 397.07,-386.68"/>
</g>
<!-- Node20 -->
<g id="node20" class="node">
<title>Node20</title>
<g id="a_node20"><a xlink:href="TTL__tiles_8h.html" target="_top" xlink:title=" ">
<polygon fill="white" stroke="black" points="324.5,-280.5 324.5,-299.5 389.5,-299.5 389.5,-280.5 324.5,-280.5"/>
<text text-anchor="middle" x="357" y="-287.5" font-family="Helvetica,sans-Serif" font-size="10.00">TTL_tiles.h</text>
</a>
</g>
</g>
<!-- Node19&#45;&gt;Node20 -->
<g id="edge30" class="edge">
<title>Node19&#45;&gt;Node20</title>
<path fill="none" stroke="midnightblue" d="M353.68,-382.35C354.55,-358.25 356.04,-317.31 356.69,-299.59"/>
<polygon fill="midnightblue" stroke="midnightblue" points="350.18,-382.25 353.31,-392.37 357.18,-382.5 350.18,-382.25"/>
</g>
<!-- Node20&#45;&gt;Node15 -->
<g id="edge31" class="edge">
<title>Node20&#45;&gt;Node15</title>
<path fill="none" stroke="midnightblue" d="M352.29,-270.07C349,-257.07 344.42,-239.44 340,-224 336.35,-211.26 331.72,-196.62 328.8,-187.59"/>
<polygon fill="midnightblue" stroke="midnightblue" points="348.99,-271.29 354.82,-280.13 355.78,-269.58 348.99,-271.29"/>
</g>
<!-- Node20&#45;&gt;Node16 -->
<g id="edge32" class="edge">
<title>Node20&#45;&gt;Node16</title>
<path fill="none" stroke="midnightblue" d="M338.96,-273.54C327.73,-263.91 313.68,-251.87 304.31,-243.83"/>
<polygon fill="midnightblue" stroke="midnightblue" points="337.01,-276.47 346.88,-280.32 341.56,-271.16 337.01,-276.47"/>
</g>
</g>
</svg>
