<?xml version="1.0" encoding="UTF-8" standalone="no"?>
<!DOCTYPE svg PUBLIC "-//W3C//DTD SVG 1.1//EN"
 "http://www.w3.org/Graphics/SVG/1.1/DTD/svg11.dtd">
<!-- Generated by graphviz version 3.0.0 (20221109.1736)
 -->
<!-- Title: TTL_core.h Pages: 1 -->
<svg width="591pt" height="375pt"
 viewBox="0.00 0.00 590.56 375.00" xmlns="http://www.w3.org/2000/svg" xmlns:xlink="http://www.w3.org/1999/xlink">
<g id="graph0" class="graph" transform="scale(1 1) rotate(0) translate(4 371)">
<title>TTL_core.h</title>
<polygon fill="white" stroke="transparent" points="-4,4 -4,-371 586.56,-371 586.56,4 -4,4"/>
<!-- Node1 -->
<g id="node1" class="node">
<title>Node1</title>
<g id="a_node1"><a xlink:title=" ">
<polygon fill="#bfbfbf" stroke="black" points="418.06,-347.5 418.06,-366.5 484.06,-366.5 484.06,-347.5 418.06,-347.5"/>
<text text-anchor="middle" x="451.06" y="-354.5" font-family="Helvetica,sans-Serif" font-size="10.00">TTL_core.h</text>
</a>
</g>
</g>
<!-- Node2 -->
<g id="node2" class="node">
<title>Node2</title>
<g id="a_node2"><a xlink:title=" ">
<polygon fill="white" stroke="#bfbfbf" points="251.06,-291.5 251.06,-310.5 385.06,-310.5 385.06,-291.5 251.06,-291.5"/>
<text text-anchor="middle" x="318.06" y="-298.5" font-family="Helvetica,sans-Serif" font-size="10.00">TTL_TYPES_INCLUDE_H</text>
</a>
</g>
</g>
<!-- Node1&#45;&gt;Node2 -->
<g id="edge1" class="edge">
<title>Node1&#45;&gt;Node2</title>
<path fill="none" stroke="midnightblue" d="M429.99,-347.44C408,-338.52 373.33,-324.44 348.4,-314.32"/>
<polygon fill="midnightblue" stroke="midnightblue" points="349.62,-311.04 339.04,-310.52 346.98,-317.52 349.62,-311.04"/>
</g>
<!-- Node3 -->
<g id="node3" class="node">
<title>Node3</title>
<g id="a_node3"><a xlink:href="TTL__debug_8h.html" target="_top" xlink:title=" ">
<polygon fill="white" stroke="black" points="479.06,-291.5 479.06,-310.5 553.06,-310.5 553.06,-291.5 479.06,-291.5"/>
<text text-anchor="middle" x="516.06" y="-298.5" font-family="Helvetica,sans-Serif" font-size="10.00">TTL_debug.h</text>
</a>
</g>
</g>
<!-- Node1&#45;&gt;Node3 -->
<g id="edge2" class="edge">
<title>Node1&#45;&gt;Node3</title>
<path fill="none" stroke="midnightblue" d="M461.5,-347.32C471.21,-339.26 485.88,-327.08 497.56,-317.37"/>
<polygon fill="midnightblue" stroke="midnightblue" points="499.97,-319.92 505.43,-310.83 495.5,-314.53 499.97,-319.92"/>
</g>
<!-- Node4 -->
<g id="node4" class="node">
<title>Node4</title>
<g id="a_node4"><a xlink:href="TTL__tensors_8h.html" target="_top" xlink:title=" ">
<polygon fill="white" stroke="black" points="261.06,-235.5 261.06,-254.5 341.06,-254.5 341.06,-235.5 261.06,-235.5"/>
<text text-anchor="middle" x="301.06" y="-242.5" font-family="Helvetica,sans-Serif" font-size="10.00">TTL_tensors.h</text>
</a>
</g>
</g>
<!-- Node1&#45;&gt;Node4 -->
<g id="edge18" class="edge">
<title>Node1&#45;&gt;Node4</title>
<path fill="none" stroke="midnightblue" d="M445.28,-347.44C435.87,-333.99 416.03,-307.73 394.06,-291 375.95,-277.21 352.95,-266.04 334.35,-258.27"/>
<polygon fill="midnightblue" stroke="midnightblue" points="335.66,-255.03 325.08,-254.53 333.04,-261.52 335.66,-255.03"/>
</g>
<!-- Node7 -->
<g id="node7" class="node">
<title>Node7</title>
<g id="a_node7"><a xlink:href="TTL__types_8h.html" target="_top" xlink:title=" ">
<polygon fill="white" stroke="black" points="412.06,-112.5 412.06,-131.5 490.06,-131.5 490.06,-112.5 412.06,-112.5"/>
<text text-anchor="middle" x="451.06" y="-119.5" font-family="Helvetica,sans-Serif" font-size="10.00">../TTL_types.h</text>
</a>
</g>
</g>
<!-- Node1&#45;&gt;Node7 -->
<g id="edge20" class="edge">
<title>Node1&#45;&gt;Node7</title>
<path fill="none" stroke="midnightblue" d="M451.06,-347.43C451.06,-313.75 451.06,-189.99 451.06,-142.1"/>
<polygon fill="midnightblue" stroke="midnightblue" points="454.56,-141.9 451.06,-131.9 447.56,-141.9 454.56,-141.9"/>
</g>
<!-- Node13 -->
<g id="node13" class="node">
<title>Node13</title>
<g id="a_node13"><a xlink:href="TTL__tiles_8h.html" target="_top" xlink:title=" ">
<polygon fill="white" stroke="black" points="517.56,-235.5 517.56,-254.5 582.56,-254.5 582.56,-235.5 517.56,-235.5"/>
<text text-anchor="middle" x="550.06" y="-242.5" font-family="Helvetica,sans-Serif" font-size="10.00">TTL_tiles.h</text>
</a>
</g>
</g>
<!-- Node1&#45;&gt;Node13 -->
<g id="edge19" class="edge">
<title>Node1&#45;&gt;Node13</title>
<path fill="none" stroke="midnightblue" d="M484.21,-352.41C510.22,-347.65 544.81,-336.61 562.06,-311 571.45,-297.06 566.17,-277.8 559.93,-263.86"/>
<polygon fill="midnightblue" stroke="midnightblue" points="563.01,-262.2 555.41,-254.81 556.75,-265.32 563.01,-262.2"/>
</g>
<!-- Node3&#45;&gt;Node4 -->
<g id="edge3" class="edge">
<title>Node3&#45;&gt;Node4</title>
<path fill="none" stroke="midnightblue" d="M481.99,-291.44C444.88,-282.12 385.4,-267.18 344.85,-257"/>
<polygon fill="midnightblue" stroke="midnightblue" points="345.52,-253.56 334.97,-254.52 343.81,-260.35 345.52,-253.56"/>
</g>
<!-- Node3&#45;&gt;Node7 -->
<g id="edge17" class="edge">
<title>Node3&#45;&gt;Node7</title>
<path fill="none" stroke="midnightblue" d="M512.92,-291.46C502.95,-264.31 471.81,-179.51 457.9,-141.62"/>
<polygon fill="midnightblue" stroke="midnightblue" points="461.05,-140.05 454.32,-131.87 454.48,-142.46 461.05,-140.05"/>
</g>
<!-- Node3&#45;&gt;Node13 -->
<g id="edge15" class="edge">
<title>Node3&#45;&gt;Node13</title>
<path fill="none" stroke="midnightblue" d="M521.67,-291.08C526.43,-283.53 533.38,-272.49 539.21,-263.23"/>
<polygon fill="midnightblue" stroke="midnightblue" points="542.18,-265.08 544.55,-254.75 536.26,-261.35 542.18,-265.08"/>
</g>
<!-- Node5 -->
<g id="node5" class="node">
<title>Node5</title>
<g id="a_node5"><a xlink:href="TTL__tensors__common_8h.html" target="_top" xlink:title=" ">
<polygon fill="white" stroke="black" points="315.56,-168.5 315.56,-198.5 422.56,-198.5 422.56,-168.5 315.56,-168.5"/>
<text text-anchor="start" x="323.56" y="-186.5" font-family="Helvetica,sans-Serif" font-size="10.00">tensors/TTL_tensors</text>
<text text-anchor="middle" x="369.06" y="-175.5" font-family="Helvetica,sans-Serif" font-size="10.00">_common.h</text>
</a>
</g>
</g>
<!-- Node4&#45;&gt;Node5 -->
<g id="edge4" class="edge">
<title>Node4&#45;&gt;Node5</title>
<path fill="none" stroke="midnightblue" d="M310.8,-235.48C319.75,-227.64 333.39,-215.71 345.21,-205.37"/>
<polygon fill="midnightblue" stroke="midnightblue" points="347.81,-207.74 353.03,-198.52 343.2,-202.47 347.81,-207.74"/>
</g>
<!-- Node8 -->
<g id="node8" class="node">
<title>Node8</title>
<g id="a_node8"><a xlink:href="TTL__ext__tensors_8h.html" target="_top" xlink:title=" ">
<polygon fill="white" stroke="black" points="15.56,-174 15.56,-193 148.56,-193 148.56,-174 15.56,-174"/>
<text text-anchor="middle" x="82.06" y="-181" font-family="Helvetica,sans-Serif" font-size="10.00">tensors/TTL_ext_tensors.h</text>
</a>
</g>
</g>
<!-- Node4&#45;&gt;Node8 -->
<g id="edge8" class="edge">
<title>Node4&#45;&gt;Node8</title>
<path fill="none" stroke="midnightblue" d="M269.68,-235.48C231.14,-225 165.65,-207.21 123.14,-195.66"/>
<polygon fill="midnightblue" stroke="midnightblue" points="123.95,-192.25 113.38,-193.01 122.11,-199.01 123.95,-192.25"/>
</g>
<!-- Node9 -->
<g id="node9" class="node">
<title>Node9</title>
<g id="a_node9"><a xlink:href="TTL__create__types_8h.html" target="_top" xlink:title=" ">
<polygon fill="white" stroke="black" points="27.06,-112.5 27.06,-131.5 137.06,-131.5 137.06,-112.5 27.06,-112.5"/>
<text text-anchor="middle" x="82.06" y="-119.5" font-family="Helvetica,sans-Serif" font-size="10.00">../TTL_create_types.h</text>
</a>
</g>
</g>
<!-- Node4&#45;&gt;Node9 -->
<g id="edge14" class="edge">
<title>Node4&#45;&gt;Node9</title>
<path fill="none" stroke="midnightblue" d="M261.04,-244.04C188.2,-243.18 38.47,-236.73 6.06,-199 -2.92,-188.55 -0.76,-179.97 6.06,-168 14.47,-153.25 29.83,-142.84 44.54,-135.77"/>
<polygon fill="midnightblue" stroke="midnightblue" points="46.3,-138.83 54.04,-131.6 43.48,-132.42 46.3,-138.83"/>
</g>
<!-- Node12 -->
<g id="node12" class="node">
<title>Node12</title>
<g id="a_node12"><a xlink:href="TTL__int__tensors_8h.html" target="_top" xlink:title=" ">
<polygon fill="white" stroke="black" points="166.56,-174 166.56,-193 297.56,-193 297.56,-174 166.56,-174"/>
<text text-anchor="middle" x="232.06" y="-181" font-family="Helvetica,sans-Serif" font-size="10.00">tensors/TTL_int_tensors.h</text>
</a>
</g>
</g>
<!-- Node4&#45;&gt;Node12 -->
<g id="edge12" class="edge">
<title>Node4&#45;&gt;Node12</title>
<path fill="none" stroke="midnightblue" d="M291.17,-235.48C280.41,-226.2 262.99,-211.17 249.84,-199.83"/>
<polygon fill="midnightblue" stroke="midnightblue" points="251.79,-196.89 241.93,-193.01 247.22,-202.19 251.79,-196.89"/>
</g>
<!-- Node6 -->
<g id="node6" class="node">
<title>Node6</title>
<g id="a_node6"><a xlink:href="TTL__macros_8h.html" target="_top" xlink:title=" ">
<polygon fill="white" stroke="black" points="373.56,-56.5 373.56,-75.5 460.56,-75.5 460.56,-56.5 373.56,-56.5"/>
<text text-anchor="middle" x="417.06" y="-63.5" font-family="Helvetica,sans-Serif" font-size="10.00">../TTL_macros.h</text>
</a>
</g>
</g>
<!-- Node5&#45;&gt;Node6 -->
<g id="edge5" class="edge">
<title>Node5&#45;&gt;Node6</title>
<path fill="none" stroke="midnightblue" d="M374.95,-168.34C383.67,-147.34 400.04,-107.96 409.6,-84.96"/>
<polygon fill="midnightblue" stroke="midnightblue" points="412.85,-86.25 413.46,-75.67 406.39,-83.56 412.85,-86.25"/>
</g>
<!-- Node5&#45;&gt;Node7 -->
<g id="edge6" class="edge">
<title>Node5&#45;&gt;Node7</title>
<path fill="none" stroke="midnightblue" d="M388.49,-168.4C401.27,-159.13 417.95,-147.03 430.87,-137.65"/>
<polygon fill="midnightblue" stroke="midnightblue" points="433.09,-140.36 439.13,-131.66 428.98,-134.7 433.09,-140.36"/>
</g>
<!-- Node7&#45;&gt;Node6 -->
<g id="edge7" class="edge">
<title>Node7&#45;&gt;Node6</title>
<path fill="none" stroke="midnightblue" d="M445.45,-112.08C440.69,-104.53 433.74,-93.49 427.91,-84.23"/>
<polygon fill="midnightblue" stroke="midnightblue" points="430.86,-82.35 422.57,-75.75 424.94,-86.08 430.86,-82.35"/>
</g>
<!-- Node8&#45;&gt;Node9 -->
<g id="edge9" class="edge">
<title>Node8&#45;&gt;Node9</title>
<path fill="none" stroke="midnightblue" d="M82.06,-173.98C82.06,-165.58 82.06,-152.48 82.06,-141.66"/>
<polygon fill="midnightblue" stroke="midnightblue" points="85.56,-141.51 82.06,-131.51 78.56,-141.51 85.56,-141.51"/>
</g>
<!-- Node10 -->
<g id="node10" class="node">
<title>Node10</title>
<g id="a_node10"><a xlink:href="TTL__create__type_8h.html" target="_top" xlink:title=" ">
<polygon fill="white" stroke="black" points="33.06,-56.5 33.06,-75.5 131.06,-75.5 131.06,-56.5 33.06,-56.5"/>
<text text-anchor="middle" x="82.06" y="-63.5" font-family="Helvetica,sans-Serif" font-size="10.00">TTL_create_type.h</text>
</a>
</g>
</g>
<!-- Node9&#45;&gt;Node10 -->
<g id="edge10" class="edge">
<title>Node9&#45;&gt;Node10</title>
<path fill="none" stroke="midnightblue" d="M82.06,-112.08C82.06,-105.01 82.06,-94.86 82.06,-85.99"/>
<polygon fill="midnightblue" stroke="midnightblue" points="85.56,-85.75 82.06,-75.75 78.56,-85.75 85.56,-85.75"/>
</g>
<!-- Node11 -->
<g id="node11" class="node">
<title>Node11</title>
<g id="a_node11"><a xlink:title=" ">
<polygon fill="white" stroke="#bfbfbf" points="8.56,-0.5 8.56,-19.5 155.56,-19.5 155.56,-0.5 8.56,-0.5"/>
<text text-anchor="middle" x="82.06" y="-7.5" font-family="Helvetica,sans-Serif" font-size="10.00">TTL_TYPES_INCLUDE_FILE</text>
</a>
</g>
</g>
<!-- Node10&#45;&gt;Node11 -->
<g id="edge11" class="edge">
<title>Node10&#45;&gt;Node11</title>
<path fill="none" stroke="midnightblue" d="M82.06,-56.08C82.06,-49.01 82.06,-38.86 82.06,-29.99"/>
<polygon fill="midnightblue" stroke="midnightblue" points="85.56,-29.75 82.06,-19.75 78.56,-29.75 85.56,-29.75"/>
</g>
<!-- Node12&#45;&gt;Node9 -->
<g id="edge13" class="edge">
<title>Node12&#45;&gt;Node9</title>
<path fill="none" stroke="midnightblue" d="M210.57,-173.98C184.95,-163.81 141.95,-146.76 112.82,-135.2"/>
<polygon fill="midnightblue" stroke="midnightblue" points="114.1,-131.94 103.51,-131.51 111.52,-138.45 114.1,-131.94"/>
</g>
<!-- Node13&#45;&gt;Node7 -->
<g id="edge16" class="edge">
<title>Node13&#45;&gt;Node7</title>
<path fill="none" stroke="midnightblue" d="M545.88,-235.46C538.46,-220.78 521.97,-190.2 503.06,-168 493.62,-156.92 481.39,-146.2 471.15,-137.99"/>
<polygon fill="midnightblue" stroke="midnightblue" points="473.18,-135.13 463.14,-131.75 468.87,-140.65 473.18,-135.13"/>
</g>
</g>
</svg>
