<?xml version="1.0" encoding="UTF-8" standalone="no"?>
<!DOCTYPE svg PUBLIC "-//W3C//DTD SVG 1.1//EN"
 "http://www.w3.org/Graphics/SVG/1.1/DTD/svg11.dtd">
<!-- Generated by graphviz version 3.0.0 (20221109.1736)
 -->
<!-- Title: TTL_double_scheme.h Pages: 1 -->
<svg width="274pt" height="308pt"
 viewBox="0.00 0.00 274.00 308.00" xmlns="http://www.w3.org/2000/svg" xmlns:xlink="http://www.w3.org/1999/xlink">
<g id="graph0" class="graph" transform="scale(1 1) rotate(0) translate(4 304)">
<title>TTL_double_scheme.h</title>
<polygon fill="white" stroke="transparent" points="-4,4 -4,-304 270,-304 270,4 -4,4"/>
<!-- Node1 -->
<g id="node1" class="node">
<title>Node1</title>
<g id="a_node1"><a xlink:title=" ">
<polygon fill="#bfbfbf" stroke="black" points="49.5,-280.5 49.5,-299.5 165.5,-299.5 165.5,-280.5 49.5,-280.5"/>
<text text-anchor="middle" x="107.5" y="-287.5" font-family="Helvetica,sans-Serif" font-size="10.00">TTL_double_scheme.h</text>
</a>
</g>
</g>
<!-- Node2 -->
<g id="node2" class="node">
<title>Node2</title>
<g id="a_node2"><a xlink:href="TTL__macros_8h.html" target="_top" xlink:title=" ">
<polygon fill="white" stroke="black" points="0,-168.5 0,-187.5 87,-187.5 87,-168.5 0,-168.5"/>
<text text-anchor="middle" x="43.5" y="-175.5" font-family="Helvetica,sans-Serif" font-size="10.00">../TTL_macros.h</text>
</a>
</g>
</g>
<!-- Node1&#45;&gt;Node2 -->
<g id="edge1" class="edge">
<title>Node1&#45;&gt;Node2</title>
<path fill="none" stroke="midnightblue" d="M71.65,-280.4C52.62,-273.81 30.87,-262.59 19.5,-244 10.23,-228.85 19.64,-209.55 29.26,-195.93"/>
<polygon fill="midnightblue" stroke="midnightblue" points="32.11,-197.97 35.42,-187.9 26.56,-193.7 32.11,-197.97"/>
</g>
<!-- Node3 -->
<g id="node3" class="node">
<title>Node3</title>
<g id="a_node3"><a xlink:href="TTL__schemes__common_8h.html" target="_top" xlink:title=" ">
<polygon fill="white" stroke="black" points="127.5,-168.5 127.5,-187.5 257.5,-187.5 257.5,-168.5 127.5,-168.5"/>
<text text-anchor="middle" x="192.5" y="-175.5" font-family="Helvetica,sans-Serif" font-size="10.00">TTL_schemes_common.h</text>
</a>
</g>
</g>
<!-- Node1&#45;&gt;Node3 -->
<g id="edge2" class="edge">
<title>Node1&#45;&gt;Node3</title>
<path fill="none" stroke="midnightblue" d="M143.35,-280.4C162.38,-273.81 184.13,-262.59 195.5,-244 203.97,-230.16 201.99,-211.39 198.62,-197.58"/>
<polygon fill="midnightblue" stroke="midnightblue" points="201.92,-196.4 195.8,-187.76 195.2,-198.34 201.92,-196.4"/>
</g>
<!-- Node7 -->
<g id="node7" class="node">
<title>Node7</title>
<g id="a_node7"><a xlink:href="TTL__double__scheme__template_8h.html" target="_top" xlink:title=" ">
<polygon fill="white" stroke="black" points="28.5,-224.5 28.5,-243.5 186.5,-243.5 186.5,-224.5 28.5,-224.5"/>
<text text-anchor="middle" x="107.5" y="-231.5" font-family="Helvetica,sans-Serif" font-size="10.00">TTL_double_scheme_template.h</text>
</a>
</g>
</g>
<!-- Node1&#45;&gt;Node7 -->
<g id="edge6" class="edge">
<title>Node1&#45;&gt;Node7</title>
<path fill="none" stroke="midnightblue" d="M107.5,-280.08C107.5,-273.01 107.5,-262.86 107.5,-253.99"/>
<polygon fill="midnightblue" stroke="midnightblue" points="111,-253.75 107.5,-243.75 104,-253.75 111,-253.75"/>
</g>
<!-- Node4 -->
<g id="node4" class="node">
<title>Node4</title>
<g id="a_node4"><a xlink:href="TTL__create__types_8h.html" target="_top" xlink:title=" ">
<polygon fill="white" stroke="black" points="137.5,-112.5 137.5,-131.5 247.5,-131.5 247.5,-112.5 137.5,-112.5"/>
<text text-anchor="middle" x="192.5" y="-119.5" font-family="Helvetica,sans-Serif" font-size="10.00">../TTL_create_types.h</text>
</a>
</g>
</g>
<!-- Node3&#45;&gt;Node4 -->
<g id="edge3" class="edge">
<title>Node3&#45;&gt;Node4</title>
<path fill="none" stroke="midnightblue" d="M192.5,-168.08C192.5,-161.01 192.5,-150.86 192.5,-141.99"/>
<polygon fill="midnightblue" stroke="midnightblue" points="196,-141.75 192.5,-131.75 189,-141.75 196,-141.75"/>
</g>
<!-- Node5 -->
<g id="node5" class="node">
<title>Node5</title>
<g id="a_node5"><a xlink:href="TTL__create__type_8h.html" target="_top" xlink:title=" ">
<polygon fill="white" stroke="black" points="143.5,-56.5 143.5,-75.5 241.5,-75.5 241.5,-56.5 143.5,-56.5"/>
<text text-anchor="middle" x="192.5" y="-63.5" font-family="Helvetica,sans-Serif" font-size="10.00">TTL_create_type.h</text>
</a>
</g>
</g>
<!-- Node4&#45;&gt;Node5 -->
<g id="edge4" class="edge">
<title>Node4&#45;&gt;Node5</title>
<path fill="none" stroke="midnightblue" d="M192.5,-112.08C192.5,-105.01 192.5,-94.86 192.5,-85.99"/>
<polygon fill="midnightblue" stroke="midnightblue" points="196,-85.75 192.5,-75.75 189,-85.75 196,-85.75"/>
</g>
<!-- Node6 -->
<g id="node6" class="node">
<title>Node6</title>
<g id="a_node6"><a xlink:title=" ">
<polygon fill="white" stroke="#bfbfbf" points="119,-0.5 119,-19.5 266,-19.5 266,-0.5 119,-0.5"/>
<text text-anchor="middle" x="192.5" y="-7.5" font-family="Helvetica,sans-Serif" font-size="10.00">TTL_TYPES_INCLUDE_FILE</text>
</a>
</g>
</g>
<!-- Node5&#45;&gt;Node6 -->
<g id="edge5" class="edge">
<title>Node5&#45;&gt;Node6</title>
<path fill="none" stroke="midnightblue" d="M192.5,-56.08C192.5,-49.01 192.5,-38.86 192.5,-29.99"/>
<polygon fill="midnightblue" stroke="midnightblue" points="196,-29.75 192.5,-19.75 189,-29.75 196,-29.75"/>
</g>
<!-- Node7&#45;&gt;Node2 -->
<g id="edge7" class="edge">
<title>Node7&#45;&gt;Node2</title>
<path fill="none" stroke="midnightblue" d="M97.22,-224.32C87.66,-216.26 73.22,-204.08 61.72,-194.37"/>
<polygon fill="midnightblue" stroke="midnightblue" points="63.87,-191.61 53.97,-187.83 59.36,-196.96 63.87,-191.61"/>
</g>
<!-- Node7&#45;&gt;Node3 -->
<g id="edge8" class="edge">
<title>Node7&#45;&gt;Node3</title>
<path fill="none" stroke="midnightblue" d="M121.16,-224.32C134.42,-215.9 154.77,-202.97 170.35,-193.07"/>
<polygon fill="midnightblue" stroke="midnightblue" points="172.31,-195.97 178.88,-187.65 168.56,-190.06 172.31,-195.97"/>
</g>
</g>
</svg>
