<?xml version="1.0" encoding="UTF-8" standalone="no"?>
<!DOCTYPE svg PUBLIC "-//W3C//DTD SVG 1.1//EN"
 "http://www.w3.org/Graphics/SVG/1.1/DTD/svg11.dtd">
<!-- Generated by graphviz version 3.0.0 (20221109.1736)
 -->
<!-- Title: TTL.h Pages: 1 -->
<svg width="711pt" height="543pt"
 viewBox="0.00 0.00 711.00 543.00" xmlns="http://www.w3.org/2000/svg" xmlns:xlink="http://www.w3.org/1999/xlink">
<g id="graph0" class="graph" transform="scale(1 1) rotate(0) translate(4 539)">
<title>TTL.h</title>
<polygon fill="white" stroke="transparent" points="-4,4 -4,-539 707,-539 707,4 -4,4"/>
<!-- Node1 -->
<g id="node1" class="node">
<title>Node1</title>
<g id="a_node1"><a xlink:title=" ">
<polygon fill="#bfbfbf" stroke="black" points="115,-515.5 115,-534.5 157,-534.5 157,-515.5 115,-515.5"/>
<text text-anchor="middle" x="136" y="-522.5" font-family="Helvetica,sans-Serif" font-size="10.00">TTL.h</text>
</a>
</g>
</g>
<!-- Node2 -->
<g id="node2" class="node">
<title>Node2</title>
<g id="a_node2"><a xlink:href="TTL__macros_8h.html" target="_top" xlink:title=" ">
<polygon fill="white" stroke="black" points="47,-56.5 47,-75.5 127,-75.5 127,-56.5 47,-56.5"/>
<text text-anchor="middle" x="87" y="-63.5" font-family="Helvetica,sans-Serif" font-size="10.00">TTL_macros.h</text>
</a>
</g>
</g>
<!-- Node1&#45;&gt;Node2 -->
<g id="edge1" class="edge">
<title>Node1&#45;&gt;Node2</title>
<path fill="none" stroke="midnightblue" d="M114.75,-517.74C76.5,-505.03 0,-472.31 0,-414 0,-414 0,-414 0,-182.5 0,-138.97 39.91,-101.42 65.67,-81.72"/>
<polygon fill="midnightblue" stroke="midnightblue" points="67.81,-84.49 73.79,-75.74 63.66,-78.85 67.81,-84.49"/>
</g>
<!-- Node3 -->
<g id="node3" class="node">
<title>Node3</title>
<g id="a_node3"><a xlink:href="TTL__pipeline__schemes_8h.html" target="_top" xlink:title=" ">
<polygon fill="white" stroke="black" points="73.5,-459.5 73.5,-478.5 198.5,-478.5 198.5,-459.5 73.5,-459.5"/>
<text text-anchor="middle" x="136" y="-466.5" font-family="Helvetica,sans-Serif" font-size="10.00">TTL_pipeline_schemes.h</text>
</a>
</g>
</g>
<!-- Node1&#45;&gt;Node3 -->
<g id="edge2" class="edge">
<title>Node1&#45;&gt;Node3</title>
<path fill="none" stroke="midnightblue" d="M136,-515.08C136,-508.01 136,-497.86 136,-488.99"/>
<polygon fill="midnightblue" stroke="midnightblue" points="139.5,-488.75 136,-478.75 132.5,-488.75 139.5,-488.75"/>
</g>
<!-- Node18 -->
<g id="node18" class="node">
<title>Node18</title>
<g id="a_node18"><a xlink:href="TTL__trace__macros_8h.html" target="_top" xlink:title=" ">
<polygon fill="white" stroke="black" points="216.5,-459.5 216.5,-478.5 323.5,-478.5 323.5,-459.5 216.5,-459.5"/>
<text text-anchor="middle" x="270" y="-466.5" font-family="Helvetica,sans-Serif" font-size="10.00">TTL_trace_macros.h</text>
</a>
</g>
</g>
<!-- Node1&#45;&gt;Node18 -->
<g id="edge31" class="edge">
<title>Node1&#45;&gt;Node18</title>
<path fill="none" stroke="midnightblue" d="M157.23,-515.44C179.38,-506.52 214.32,-492.44 239.44,-482.32"/>
<polygon fill="midnightblue" stroke="midnightblue" points="240.9,-485.5 248.87,-478.52 238.28,-479.01 240.9,-485.5"/>
</g>
<!-- Node4 -->
<g id="node4" class="node">
<title>Node4</title>
<g id="a_node4"><a xlink:href="TTL__core_8h.html" target="_top" xlink:title=" ">
<polygon fill="white" stroke="black" points="184,-347.5 184,-366.5 250,-366.5 250,-347.5 184,-347.5"/>
<text text-anchor="middle" x="217" y="-354.5" font-family="Helvetica,sans-Serif" font-size="10.00">TTL_core.h</text>
</a>
</g>
</g>
<!-- Node3&#45;&gt;Node4 -->
<g id="edge3" class="edge">
<title>Node3&#45;&gt;Node4</title>
<path fill="none" stroke="midnightblue" d="M136.76,-459.23C138.27,-445.97 142.68,-420.49 155,-403 164.18,-389.96 178.36,-379.27 190.85,-371.58"/>
<polygon fill="midnightblue" stroke="midnightblue" points="192.66,-374.58 199.54,-366.52 189.14,-368.52 192.66,-374.58"/>
</g>
<!-- Node11 -->
<g id="node11" class="node">
<title>Node11</title>
<g id="a_node11"><a xlink:href="TTL__create__types_8h.html" target="_top" xlink:title=" ">
<polygon fill="white" stroke="black" points="572,-112.5 572,-131.5 682,-131.5 682,-112.5 572,-112.5"/>
<text text-anchor="middle" x="627" y="-119.5" font-family="Helvetica,sans-Serif" font-size="10.00">../TTL_create_types.h</text>
</a>
</g>
</g>
<!-- Node3&#45;&gt;Node11 -->
<g id="edge30" class="edge">
<title>Node3&#45;&gt;Node11</title>
<path fill="none" stroke="midnightblue" d="M196.14,-459.47C342.07,-438.37 703,-383.6 703,-358 703,-358 703,-358 703,-244 703,-200.48 667.3,-159.77 644.84,-138.47"/>
<polygon fill="midnightblue" stroke="midnightblue" points="646.99,-135.7 637.25,-131.53 642.27,-140.86 646.99,-135.7"/>
</g>
<!-- Node16 -->
<g id="node16" class="node">
<title>Node16</title>
<g id="a_node16"><a xlink:href="TTL__import__export_8h.html" target="_top" xlink:title=" ">
<polygon fill="white" stroke="black" points="164,-403.5 164,-422.5 270,-422.5 270,-403.5 164,-403.5"/>
<text text-anchor="middle" x="217" y="-410.5" font-family="Helvetica,sans-Serif" font-size="10.00">TTL_import_export.h</text>
</a>
</g>
</g>
<!-- Node3&#45;&gt;Node16 -->
<g id="edge24" class="edge">
<title>Node3&#45;&gt;Node16</title>
<path fill="none" stroke="midnightblue" d="M149.01,-459.32C161.53,-450.98 180.68,-438.21 195.47,-428.35"/>
<polygon fill="midnightblue" stroke="midnightblue" points="197.64,-431.11 204.02,-422.65 193.76,-425.29 197.64,-431.11"/>
</g>
<!-- Node17 -->
<g id="node17" class="node">
<title>Node17</title>
<g id="a_node17"><a xlink:href="opencl_2TTL__import__export_8h.html" target="_top" xlink:title=" ">
<polygon fill="white" stroke="black" points="28.5,-347.5 28.5,-366.5 165.5,-366.5 165.5,-347.5 28.5,-347.5"/>
<text text-anchor="middle" x="97" y="-354.5" font-family="Helvetica,sans-Serif" font-size="10.00">opencl/TTL_import_export.h</text>
</a>
</g>
</g>
<!-- Node3&#45;&gt;Node17 -->
<g id="edge29" class="edge">
<title>Node3&#45;&gt;Node17</title>
<path fill="none" stroke="midnightblue" d="M132.94,-459.37C126.62,-441.54 112,-400.3 103.48,-376.27"/>
<polygon fill="midnightblue" stroke="midnightblue" points="106.69,-374.85 100.05,-366.59 100.09,-377.19 106.69,-374.85"/>
</g>
<!-- Node5 -->
<g id="node5" class="node">
<title>Node5</title>
<g id="a_node5"><a xlink:title=" ">
<polygon fill="white" stroke="#bfbfbf" points="253,-291.5 253,-310.5 387,-310.5 387,-291.5 253,-291.5"/>
<text text-anchor="middle" x="320" y="-298.5" font-family="Helvetica,sans-Serif" font-size="10.00">TTL_TYPES_INCLUDE_H</text>
</a>
</g>
</g>
<!-- Node4&#45;&gt;Node5 -->
<g id="edge4" class="edge">
<title>Node4&#45;&gt;Node5</title>
<path fill="none" stroke="midnightblue" d="M233.55,-347.32C249.99,-338.7 275.43,-325.36 294.47,-315.39"/>
<polygon fill="midnightblue" stroke="midnightblue" points="296.26,-318.4 303.49,-310.65 293.01,-312.2 296.26,-318.4"/>
</g>
<!-- Node6 -->
<g id="node6" class="node">
<title>Node6</title>
<g id="a_node6"><a xlink:href="TTL__debug_8h.html" target="_top" xlink:title=" ">
<polygon fill="white" stroke="black" points="161,-291.5 161,-310.5 235,-310.5 235,-291.5 161,-291.5"/>
<text text-anchor="middle" x="198" y="-298.5" font-family="Helvetica,sans-Serif" font-size="10.00">TTL_debug.h</text>
</a>
</g>
</g>
<!-- Node4&#45;&gt;Node6 -->
<g id="edge5" class="edge">
<title>Node4&#45;&gt;Node6</title>
<path fill="none" stroke="midnightblue" d="M213.86,-347.08C211.32,-339.85 207.64,-329.41 204.47,-320.4"/>
<polygon fill="midnightblue" stroke="midnightblue" points="207.7,-319.02 201.08,-310.75 201.1,-321.35 207.7,-319.02"/>
</g>
<!-- Node7 -->
<g id="node7" class="node">
<title>Node7</title>
<g id="a_node7"><a xlink:href="TTL__tensors_8h.html" target="_top" xlink:title=" ">
<polygon fill="white" stroke="black" points="358,-235.5 358,-254.5 438,-254.5 438,-235.5 358,-235.5"/>
<text text-anchor="middle" x="398" y="-242.5" font-family="Helvetica,sans-Serif" font-size="10.00">TTL_tensors.h</text>
</a>
</g>
</g>
<!-- Node4&#45;&gt;Node7 -->
<g id="edge21" class="edge">
<title>Node4&#45;&gt;Node7</title>
<path fill="none" stroke="midnightblue" d="M250.18,-352.4C296.77,-346.59 377.92,-333.47 396,-311 406.28,-298.23 405.54,-279.04 402.98,-264.82"/>
<polygon fill="midnightblue" stroke="midnightblue" points="406.31,-263.68 400.71,-254.69 399.48,-265.22 406.31,-263.68"/>
</g>
<!-- Node9 -->
<g id="node9" class="node">
<title>Node9</title>
<g id="a_node9"><a xlink:href="TTL__types_8h.html" target="_top" xlink:title=" ">
<polygon fill="white" stroke="black" points="86,-112.5 86,-131.5 164,-131.5 164,-112.5 86,-112.5"/>
<text text-anchor="middle" x="125" y="-119.5" font-family="Helvetica,sans-Serif" font-size="10.00">../TTL_types.h</text>
</a>
</g>
</g>
<!-- Node4&#45;&gt;Node9 -->
<g id="edge23" class="edge">
<title>Node4&#45;&gt;Node9</title>
<path fill="none" stroke="midnightblue" d="M196.35,-347.44C165.97,-333.44 111.09,-302.39 95,-255 81.39,-214.92 101.78,-165.91 115.06,-140.36"/>
<polygon fill="midnightblue" stroke="midnightblue" points="118.18,-141.96 119.88,-131.51 112.03,-138.62 118.18,-141.96"/>
</g>
<!-- Node15 -->
<g id="node15" class="node">
<title>Node15</title>
<g id="a_node15"><a xlink:href="TTL__tiles_8h.html" target="_top" xlink:title=" ">
<polygon fill="white" stroke="black" points="104.5,-235.5 104.5,-254.5 169.5,-254.5 169.5,-235.5 104.5,-235.5"/>
<text text-anchor="middle" x="137" y="-242.5" font-family="Helvetica,sans-Serif" font-size="10.00">TTL_tiles.h</text>
</a>
</g>
</g>
<!-- Node4&#45;&gt;Node15 -->
<g id="edge22" class="edge">
<title>Node4&#45;&gt;Node15</title>
<path fill="none" stroke="midnightblue" d="M197.54,-347.4C182.81,-339.89 163.25,-327.58 152,-311 142.76,-297.37 139.15,-278.83 137.78,-265.04"/>
<polygon fill="midnightblue" stroke="midnightblue" points="141.25,-264.52 137.07,-254.78 134.27,-265 141.25,-264.52"/>
</g>
<!-- Node6&#45;&gt;Node7 -->
<g id="edge6" class="edge">
<title>Node6&#45;&gt;Node7</title>
<path fill="none" stroke="midnightblue" d="M229.69,-291.44C264.07,-282.16 319.08,-267.31 356.79,-257.13"/>
<polygon fill="midnightblue" stroke="midnightblue" points="357.72,-260.5 366.46,-254.52 355.89,-253.74 357.72,-260.5"/>
</g>
<!-- Node6&#45;&gt;Node9 -->
<g id="edge20" class="edge">
<title>Node6&#45;&gt;Node9</title>
<path fill="none" stroke="midnightblue" d="M195.98,-291.44C192.9,-278.86 186.59,-254.75 179,-235 165.83,-200.73 146.33,-162.57 134.72,-140.8"/>
<polygon fill="midnightblue" stroke="midnightblue" points="137.68,-138.92 129.85,-131.78 131.52,-142.24 137.68,-138.92"/>
</g>
<!-- Node6&#45;&gt;Node15 -->
<g id="edge18" class="edge">
<title>Node6&#45;&gt;Node15</title>
<path fill="none" stroke="midnightblue" d="M188.2,-291.32C179.18,-283.34 165.59,-271.31 154.68,-261.65"/>
<polygon fill="midnightblue" stroke="midnightblue" points="156.79,-258.84 146.98,-254.83 152.15,-264.08 156.79,-258.84"/>
</g>
<!-- Node8 -->
<g id="node8" class="node">
<title>Node8</title>
<g id="a_node8"><a xlink:href="TTL__tensors__common_8h.html" target="_top" xlink:title=" ">
<polygon fill="white" stroke="black" points="191.5,-168.5 191.5,-198.5 298.5,-198.5 298.5,-168.5 191.5,-168.5"/>
<text text-anchor="start" x="199.5" y="-186.5" font-family="Helvetica,sans-Serif" font-size="10.00">tensors/TTL_tensors</text>
<text text-anchor="middle" x="245" y="-175.5" font-family="Helvetica,sans-Serif" font-size="10.00">_common.h</text>
</a>
</g>
</g>
<!-- Node7&#45;&gt;Node8 -->
<g id="edge7" class="edge">
<title>Node7&#45;&gt;Node8</title>
<path fill="none" stroke="midnightblue" d="M376.08,-235.48C353.9,-226.85 318.96,-213.26 290.73,-202.29"/>
<polygon fill="midnightblue" stroke="midnightblue" points="291.65,-198.89 281.06,-198.52 289.11,-205.41 291.65,-198.89"/>
</g>
<!-- Node10 -->
<g id="node10" class="node">
<title>Node10</title>
<g id="a_node10"><a xlink:href="TTL__ext__tensors_8h.html" target="_top" xlink:title=" ">
<polygon fill="white" stroke="black" points="465.5,-174 465.5,-193 598.5,-193 598.5,-174 465.5,-174"/>
<text text-anchor="middle" x="532" y="-181" font-family="Helvetica,sans-Serif" font-size="10.00">tensors/TTL_ext_tensors.h</text>
</a>
</g>
</g>
<!-- Node7&#45;&gt;Node10 -->
<g id="edge11" class="edge">
<title>Node7&#45;&gt;Node10</title>
<path fill="none" stroke="midnightblue" d="M417.2,-235.48C439.79,-225.45 477.5,-208.7 503.5,-197.15"/>
<polygon fill="midnightblue" stroke="midnightblue" points="505.12,-200.27 512.84,-193.01 502.28,-193.87 505.12,-200.27"/>
</g>
<!-- Node7&#45;&gt;Node11 -->
<g id="edge17" class="edge">
<title>Node7&#45;&gt;Node11</title>
<path fill="none" stroke="midnightblue" d="M438.42,-240.39C492.45,-234.74 584.21,-222 608,-199 623.32,-184.19 627.01,-159.04 627.56,-141.75"/>
<polygon fill="midnightblue" stroke="midnightblue" points="631.06,-141.72 627.56,-131.72 624.06,-141.72 631.06,-141.72"/>
</g>
<!-- Node14 -->
<g id="node14" class="node">
<title>Node14</title>
<g id="a_node14"><a xlink:href="TTL__int__tensors_8h.html" target="_top" xlink:title=" ">
<polygon fill="white" stroke="black" points="316.5,-174 316.5,-193 447.5,-193 447.5,-174 316.5,-174"/>
<text text-anchor="middle" x="382" y="-181" font-family="Helvetica,sans-Serif" font-size="10.00">tensors/TTL_int_tensors.h</text>
</a>
</g>
</g>
<!-- Node7&#45;&gt;Node14 -->
<g id="edge15" class="edge">
<title>Node7&#45;&gt;Node14</title>
<path fill="none" stroke="midnightblue" d="M395.71,-235.48C393.43,-226.99 389.85,-213.7 386.93,-202.82"/>
<polygon fill="midnightblue" stroke="midnightblue" points="390.26,-201.76 384.29,-193.01 383.51,-203.57 390.26,-201.76"/>
</g>
<!-- Node8&#45;&gt;Node2 -->
<g id="edge8" class="edge">
<title>Node8&#45;&gt;Node2</title>
<path fill="none" stroke="midnightblue" d="M232.78,-168.26C219.23,-153.06 196.21,-128.87 173,-112 155.57,-99.33 134.09,-88.09 116.95,-80.01"/>
<polygon fill="midnightblue" stroke="midnightblue" points="117.98,-76.63 107.43,-75.63 115.06,-82.99 117.98,-76.63"/>
</g>
<!-- Node8&#45;&gt;Node9 -->
<g id="edge9" class="edge">
<title>Node8&#45;&gt;Node9</title>
<path fill="none" stroke="midnightblue" d="M216.56,-168.4C196.88,-158.64 170.86,-145.74 151.59,-136.18"/>
<polygon fill="midnightblue" stroke="midnightblue" points="152.98,-132.96 142.46,-131.66 149.87,-139.24 152.98,-132.96"/>
</g>
<!-- Node9&#45;&gt;Node2 -->
<g id="edge10" class="edge">
<title>Node9&#45;&gt;Node2</title>
<path fill="none" stroke="midnightblue" d="M118.73,-112.08C113.36,-104.46 105.48,-93.26 98.92,-83.94"/>
<polygon fill="midnightblue" stroke="midnightblue" points="101.78,-81.91 93.16,-75.75 96.05,-85.94 101.78,-81.91"/>
</g>
<!-- Node10&#45;&gt;Node11 -->
<g id="edge12" class="edge">
<title>Node10&#45;&gt;Node11</title>
<path fill="none" stroke="midnightblue" d="M545.61,-173.98C561.06,-164.3 586.49,-148.37 604.82,-136.89"/>
<polygon fill="midnightblue" stroke="midnightblue" points="606.8,-139.78 613.41,-131.51 603.08,-133.85 606.8,-139.78"/>
</g>
<!-- Node12 -->
<g id="node12" class="node">
<title>Node12</title>
<g id="a_node12"><a xlink:href="TTL__create__type_8h.html" target="_top" xlink:title=" ">
<polygon fill="white" stroke="black" points="578,-56.5 578,-75.5 676,-75.5 676,-56.5 578,-56.5"/>
<text text-anchor="middle" x="627" y="-63.5" font-family="Helvetica,sans-Serif" font-size="10.00">TTL_create_type.h</text>
</a>
</g>
</g>
<!-- Node11&#45;&gt;Node12 -->
<g id="edge13" class="edge">
<title>Node11&#45;&gt;Node12</title>
<path fill="none" stroke="midnightblue" d="M627,-112.08C627,-105.01 627,-94.86 627,-85.99"/>
<polygon fill="midnightblue" stroke="midnightblue" points="630.5,-85.75 627,-75.75 623.5,-85.75 630.5,-85.75"/>
</g>
<!-- Node13 -->
<g id="node13" class="node">
<title>Node13</title>
<g id="a_node13"><a xlink:title=" ">
<polygon fill="white" stroke="#bfbfbf" points="553.5,-0.5 553.5,-19.5 700.5,-19.5 700.5,-0.5 553.5,-0.5"/>
<text text-anchor="middle" x="627" y="-7.5" font-family="Helvetica,sans-Serif" font-size="10.00">TTL_TYPES_INCLUDE_FILE</text>
</a>
</g>
</g>
<!-- Node12&#45;&gt;Node13 -->
<g id="edge14" class="edge">
<title>Node12&#45;&gt;Node13</title>
<path fill="none" stroke="midnightblue" d="M627,-56.08C627,-49.01 627,-38.86 627,-29.99"/>
<polygon fill="midnightblue" stroke="midnightblue" points="630.5,-29.75 627,-19.75 623.5,-29.75 630.5,-29.75"/>
</g>
<!-- Node14&#45;&gt;Node11 -->
<g id="edge16" class="edge">
<title>Node14&#45;&gt;Node11</title>
<path fill="none" stroke="midnightblue" d="M417.1,-173.98C460.49,-163.44 534.41,-145.49 581.95,-133.94"/>
<polygon fill="midnightblue" stroke="midnightblue" points="583.07,-137.27 591.96,-131.51 581.42,-130.47 583.07,-137.27"/>
</g>
<!-- Node15&#45;&gt;Node9 -->
<g id="edge19" class="edge">
<title>Node15&#45;&gt;Node9</title>
<path fill="none" stroke="midnightblue" d="M136.14,-235.3C134.21,-215.85 129.51,-168.49 126.87,-141.9"/>
<polygon fill="midnightblue" stroke="midnightblue" points="130.33,-141.23 125.86,-131.62 123.36,-141.92 130.33,-141.23"/>
</g>
<!-- Node16&#45;&gt;Node4 -->
<g id="edge25" class="edge">
<title>Node16&#45;&gt;Node4</title>
<path fill="none" stroke="midnightblue" d="M217,-403.08C217,-396.01 217,-385.86 217,-376.99"/>
<polygon fill="midnightblue" stroke="midnightblue" points="220.5,-376.75 217,-366.75 213.5,-376.75 220.5,-376.75"/>
</g>
<!-- Node16&#45;&gt;Node11 -->
<g id="edge28" class="edge">
<title>Node16&#45;&gt;Node11</title>
<path fill="none" stroke="midnightblue" d="M270.15,-410.1C388.82,-404.4 665,-382.49 665,-302 665,-302 665,-302 665,-244 665,-205.81 647.56,-163.83 636.31,-140.72"/>
<polygon fill="midnightblue" stroke="midnightblue" points="639.29,-138.86 631.66,-131.52 633.04,-142.02 639.29,-138.86"/>
</g>
<!-- Node16&#45;&gt;Node17 -->
<g id="edge26" class="edge">
<title>Node16&#45;&gt;Node17</title>
<path fill="none" stroke="midnightblue" d="M197.99,-403.44C178.41,-394.64 147.69,-380.81 125.27,-370.72"/>
<polygon fill="midnightblue" stroke="midnightblue" points="126.48,-367.43 115.93,-366.52 123.61,-373.81 126.48,-367.43"/>
</g>
<!-- Node17&#45;&gt;Node2 -->
<g id="edge27" class="edge">
<title>Node17&#45;&gt;Node2</title>
<path fill="none" stroke="midnightblue" d="M88.55,-347.44C72.23,-329.96 38,-288.26 38,-246 38,-246 38,-246 38,-182.5 38,-145.12 60.02,-105.96 74.54,-84.19"/>
<polygon fill="midnightblue" stroke="midnightblue" points="77.57,-85.95 80.39,-75.74 71.82,-81.97 77.57,-85.95"/>
</g>
</g>
</svg>
