<?xml version="1.0" encoding="UTF-8" standalone="no"?>
<!DOCTYPE svg PUBLIC "-//W3C//DTD SVG 1.1//EN"
 "http://www.w3.org/Graphics/SVG/1.1/DTD/svg11.dtd">
<!-- Generated by graphviz version 3.0.0 (20221109.1736)
 -->
<!-- Title: TTL_create_types.h Pages: 1 -->
<svg width="819pt" height="420pt"
 viewBox="0.00 0.00 819.00 420.00" xmlns="http://www.w3.org/2000/svg" xmlns:xlink="http://www.w3.org/1999/xlink">
<g id="graph0" class="graph" transform="scale(1 1) rotate(0) translate(4 416)">
<title>TTL_create_types.h</title>
<polygon fill="white" stroke="transparent" points="-4,4 -4,-416 815,-416 815,4 -4,4"/>
<!-- Node1 -->
<g id="node1" class="node">
<title>Node1</title>
<g id="a_node1"><a xlink:title=" ">
<polygon fill="#bfbfbf" stroke="black" points="188.5,-392.5 188.5,-411.5 291.5,-411.5 291.5,-392.5 188.5,-392.5"/>
<text text-anchor="middle" x="240" y="-399.5" font-family="Helvetica,sans-Serif" font-size="10.00">TTL_create_types.h</text>
</a>
</g>
</g>
<!-- Node2 -->
<g id="node2" class="node">
<title>Node2</title>
<g id="a_node2"><a xlink:href="TTL__ext__tensors_8h.html" target="_top" xlink:title=" ">
<polygon fill="white" stroke="black" points="0,-336.5 0,-355.5 98,-355.5 98,-336.5 0,-336.5"/>
<text text-anchor="middle" x="49" y="-343.5" font-family="Helvetica,sans-Serif" font-size="10.00">TTL_ext_tensors.h</text>
</a>
</g>
</g>
<!-- Node1&#45;&gt;Node2 -->
<g id="edge1" class="edge">
<title>Node1&#45;&gt;Node2</title>
<path fill="none" stroke="midnightblue" d="M200.03,-389.7C163.98,-379.51 111.76,-364.74 79.12,-355.52"/>
<polygon fill="midnightblue" stroke="midnightblue" points="199.16,-393.09 209.74,-392.44 201.06,-386.35 199.16,-393.09"/>
</g>
<!-- Node3 -->
<g id="node3" class="node">
<title>Node3</title>
<g id="a_node3"><a xlink:href="TTL__tensors_8h.html" target="_top" xlink:title=" ">
<polygon fill="white" stroke="black" points="86,-280.5 86,-299.5 166,-299.5 166,-280.5 86,-280.5"/>
<text text-anchor="middle" x="126" y="-287.5" font-family="Helvetica,sans-Serif" font-size="10.00">TTL_tensors.h</text>
</a>
</g>
</g>
<!-- Node1&#45;&gt;Node3 -->
<g id="edge20" class="edge">
<title>Node1&#45;&gt;Node3</title>
<path fill="none" stroke="midnightblue" d="M195.93,-388.95C177.89,-381.99 158.19,-371.46 145,-356 130.96,-339.54 127.29,-313.16 126.33,-299.63"/>
<polygon fill="midnightblue" stroke="midnightblue" points="195.14,-392.38 205.73,-392.45 197.5,-385.79 195.14,-392.38"/>
</g>
<!-- Node5 -->
<g id="node5" class="node">
<title>Node5</title>
<g id="a_node5"><a xlink:href="TTL__import__export_8h.html" target="_top" xlink:title=" ">
<polygon fill="white" stroke="black" points="182,-112.5 182,-131.5 288,-131.5 288,-112.5 182,-112.5"/>
<text text-anchor="middle" x="235" y="-119.5" font-family="Helvetica,sans-Serif" font-size="10.00">TTL_import_export.h</text>
</a>
</g>
</g>
<!-- Node1&#45;&gt;Node5 -->
<g id="edge10" class="edge">
<title>Node1&#45;&gt;Node5</title>
<path fill="none" stroke="midnightblue" d="M250.14,-383.43C261.4,-362.24 278,-325.19 278,-291 278,-291 278,-291 278,-233 278,-192.81 252.79,-149.68 240.98,-131.67"/>
<polygon fill="midnightblue" stroke="midnightblue" points="247.05,-381.78 245.28,-392.23 253.18,-385.17 247.05,-381.78"/>
</g>
<!-- Node6 -->
<g id="node6" class="node">
<title>Node6</title>
<g id="a_node6"><a xlink:href="TTL__pipeline__schemes_8h.html" target="_top" xlink:title=" ">
<polygon fill="white" stroke="black" points="172.5,-56.5 172.5,-75.5 297.5,-75.5 297.5,-56.5 172.5,-56.5"/>
<text text-anchor="middle" x="235" y="-63.5" font-family="Helvetica,sans-Serif" font-size="10.00">TTL_pipeline_schemes.h</text>
</a>
</g>
</g>
<!-- Node1&#45;&gt;Node6 -->
<g id="edge13" class="edge">
<title>Node1&#45;&gt;Node6</title>
<path fill="none" stroke="midnightblue" d="M259.52,-385.85C282.04,-366.5 316,-330.72 316,-291 316,-291 316,-291 316,-177 316,-146.9 314.33,-136.61 297,-112 285.59,-95.8 266.46,-83.21 252.46,-75.52"/>
<polygon fill="midnightblue" stroke="midnightblue" points="257.02,-383.37 251.54,-392.43 261.48,-388.76 257.02,-383.37"/>
</g>
<!-- Node9 -->
<g id="node9" class="node">
<title>Node9</title>
<g id="a_node9"><a xlink:href="TTL__int__tensors_8h.html" target="_top" xlink:title=" ">
<polygon fill="white" stroke="black" points="154.5,-336.5 154.5,-355.5 249.5,-355.5 249.5,-336.5 154.5,-336.5"/>
<text text-anchor="middle" x="202" y="-343.5" font-family="Helvetica,sans-Serif" font-size="10.00">TTL_int_tensors.h</text>
</a>
</g>
</g>
<!-- Node1&#45;&gt;Node9 -->
<g id="edge11" class="edge">
<title>Node1&#45;&gt;Node9</title>
<path fill="none" stroke="midnightblue" d="M227.94,-383.86C221.36,-374.5 213.49,-363.33 208.16,-355.75"/>
<polygon fill="midnightblue" stroke="midnightblue" points="225.11,-385.92 233.73,-392.08 230.83,-381.89 225.11,-385.92"/>
</g>
<!-- Node10 -->
<g id="node10" class="node">
<title>Node10</title>
<g id="a_node10"><a xlink:href="TTL__schemes__common_8h.html" target="_top" xlink:title=" ">
<polygon fill="white" stroke="black" points="396,-336.5 396,-355.5 526,-355.5 526,-336.5 396,-336.5"/>
<text text-anchor="middle" x="461" y="-343.5" font-family="Helvetica,sans-Serif" font-size="10.00">TTL_schemes_common.h</text>
</a>
</g>
</g>
<!-- Node1&#45;&gt;Node10 -->
<g id="edge14" class="edge">
<title>Node1&#45;&gt;Node10</title>
<path fill="none" stroke="midnightblue" d="M284.92,-390.02C326.67,-379.82 387.98,-364.84 426.15,-355.52"/>
<polygon fill="midnightblue" stroke="midnightblue" points="283.9,-386.67 275.02,-392.44 285.56,-393.47 283.9,-386.67"/>
</g>
<!-- Node2&#45;&gt;Node3 -->
<g id="edge2" class="edge">
<title>Node2&#45;&gt;Node3</title>
<path fill="none" stroke="midnightblue" d="M69.9,-330.34C83.91,-320.52 101.88,-307.91 113.66,-299.65"/>
<polygon fill="midnightblue" stroke="midnightblue" points="67.55,-327.72 61.37,-336.32 71.57,-333.45 67.55,-327.72"/>
</g>
<!-- Node4 -->
<g id="node4" class="node">
<title>Node4</title>
<g id="a_node4"><a xlink:href="TTL__core_8h.html" target="_top" xlink:title=" ">
<polygon fill="white" stroke="black" points="130,-168.5 130,-187.5 196,-187.5 196,-168.5 130,-168.5"/>
<text text-anchor="middle" x="163" y="-175.5" font-family="Helvetica,sans-Serif" font-size="10.00">TTL_core.h</text>
</a>
</g>
</g>
<!-- Node3&#45;&gt;Node4 -->
<g id="edge3" class="edge">
<title>Node3&#45;&gt;Node4</title>
<path fill="none" stroke="midnightblue" d="M123.12,-269.99C121.86,-256.71 121.69,-238.79 127,-224 132.28,-209.31 144.49,-195.82 153.23,-187.51"/>
<polygon fill="midnightblue" stroke="midnightblue" points="119.69,-270.78 124.4,-280.27 126.63,-269.91 119.69,-270.78"/>
</g>
<!-- Node8 -->
<g id="node8" class="node">
<title>Node8</title>
<g id="a_node8"><a xlink:href="TTL__debug_8h.html" target="_top" xlink:title=" ">
<polygon fill="white" stroke="black" points="136,-224.5 136,-243.5 210,-243.5 210,-224.5 136,-224.5"/>
<text text-anchor="middle" x="173" y="-231.5" font-family="Helvetica,sans-Serif" font-size="10.00">TTL_debug.h</text>
</a>
</g>
</g>
<!-- Node3&#45;&gt;Node8 -->
<g id="edge8" class="edge">
<title>Node3&#45;&gt;Node8</title>
<path fill="none" stroke="midnightblue" d="M140.42,-272.43C148.66,-262.97 158.65,-251.48 165.38,-243.75"/>
<polygon fill="midnightblue" stroke="midnightblue" points="137.69,-270.24 133.76,-280.08 142.97,-274.84 137.69,-270.24"/>
</g>
<!-- Node4&#45;&gt;Node5 -->
<g id="edge4" class="edge">
<title>Node4&#45;&gt;Node5</title>
<path fill="none" stroke="midnightblue" d="M182.87,-162.1C195.82,-152.38 212.3,-140.03 223.22,-131.83"/>
<polygon fill="midnightblue" stroke="midnightblue" points="180.47,-159.52 174.57,-168.32 184.67,-165.12 180.47,-159.52"/>
</g>
<!-- Node4&#45;&gt;Node6 -->
<g id="edge7" class="edge">
<title>Node4&#45;&gt;Node6</title>
<path fill="none" stroke="midnightblue" d="M162.16,-158.1C162.4,-144.37 164.54,-125.86 173,-112 183.11,-95.42 201.86,-83.12 216.1,-75.6"/>
<polygon fill="midnightblue" stroke="midnightblue" points="158.66,-158.35 162.31,-168.29 165.66,-158.24 158.66,-158.35"/>
</g>
<!-- Node5&#45;&gt;Node6 -->
<g id="edge5" class="edge">
<title>Node5&#45;&gt;Node6</title>
<path fill="none" stroke="midnightblue" d="M235,-101.8C235,-92.91 235,-82.78 235,-75.75"/>
<polygon fill="midnightblue" stroke="midnightblue" points="231.5,-102.08 235,-112.08 238.5,-102.08 231.5,-102.08"/>
</g>
<!-- Node7 -->
<g id="node7" class="node">
<title>Node7</title>
<g id="a_node7"><a xlink:href="TTL_8h.html" target="_top" xlink:title=" ">
<polygon fill="white" stroke="black" points="214,-0.5 214,-19.5 256,-19.5 256,-0.5 214,-0.5"/>
<text text-anchor="middle" x="235" y="-7.5" font-family="Helvetica,sans-Serif" font-size="10.00">TTL.h</text>
</a>
</g>
</g>
<!-- Node6&#45;&gt;Node7 -->
<g id="edge6" class="edge">
<title>Node6&#45;&gt;Node7</title>
<path fill="none" stroke="midnightblue" d="M235,-45.8C235,-36.91 235,-26.78 235,-19.75"/>
<polygon fill="midnightblue" stroke="midnightblue" points="231.5,-46.08 235,-56.08 238.5,-46.08 231.5,-46.08"/>
</g>
<!-- Node8&#45;&gt;Node4 -->
<g id="edge9" class="edge">
<title>Node8&#45;&gt;Node4</title>
<path fill="none" stroke="midnightblue" d="M169.5,-214.1C167.84,-205.14 165.94,-194.86 164.62,-187.75"/>
<polygon fill="midnightblue" stroke="midnightblue" points="166.09,-214.89 171.35,-224.08 172.97,-213.61 166.09,-214.89"/>
</g>
<!-- Node9&#45;&gt;Node3 -->
<g id="edge12" class="edge">
<title>Node9&#45;&gt;Node3</title>
<path fill="none" stroke="midnightblue" d="M181.42,-330.38C167.69,-320.62 150.07,-308.11 138.43,-299.83"/>
<polygon fill="midnightblue" stroke="midnightblue" points="179.61,-333.38 189.79,-336.32 183.66,-327.68 179.61,-333.38"/>
</g>
<!-- Node11 -->
<g id="node11" class="node">
<title>Node11</title>
<g id="a_node11"><a xlink:href="TTL__double__scheme_8h.html" target="_top" xlink:title=" ">
<polygon fill="white" stroke="black" points="374,-224.5 374,-243.5 490,-243.5 490,-224.5 374,-224.5"/>
<text text-anchor="middle" x="432" y="-231.5" font-family="Helvetica,sans-Serif" font-size="10.00">TTL_double_scheme.h</text>
</a>
</g>
</g>
<!-- Node10&#45;&gt;Node11 -->
<g id="edge15" class="edge">
<title>Node10&#45;&gt;Node11</title>
<path fill="none" stroke="midnightblue" d="M415.62,-332.77C399.26,-325.93 382.51,-315.54 373,-300 359.08,-277.25 391.76,-255.23 413.84,-243.57"/>
<polygon fill="midnightblue" stroke="midnightblue" points="414.56,-336.11 425.15,-336.4 417.05,-329.57 414.56,-336.11"/>
</g>
<!-- Node12 -->
<g id="node12" class="node">
<title>Node12</title>
<g id="a_node12"><a xlink:href="TTL__double__scheme__template_8h.html" target="_top" xlink:title=" ">
<polygon fill="white" stroke="black" points="382,-280.5 382,-299.5 540,-299.5 540,-280.5 382,-280.5"/>
<text text-anchor="middle" x="461" y="-287.5" font-family="Helvetica,sans-Serif" font-size="10.00">TTL_double_scheme_template.h</text>
</a>
</g>
</g>
<!-- Node10&#45;&gt;Node12 -->
<g id="edge16" class="edge">
<title>Node10&#45;&gt;Node12</title>
<path fill="none" stroke="midnightblue" d="M461,-325.8C461,-316.91 461,-306.78 461,-299.75"/>
<polygon fill="midnightblue" stroke="midnightblue" points="457.5,-326.08 461,-336.08 464.5,-326.08 457.5,-326.08"/>
</g>
<!-- Node13 -->
<g id="node13" class="node">
<title>Node13</title>
<g id="a_node13"><a xlink:href="TTL__duplex__scheme_8h.html" target="_top" xlink:title=" ">
<polygon fill="white" stroke="black" points="557.5,-280.5 557.5,-299.5 672.5,-299.5 672.5,-280.5 557.5,-280.5"/>
<text text-anchor="middle" x="615" y="-287.5" font-family="Helvetica,sans-Serif" font-size="10.00">TTL_duplex_scheme.h</text>
</a>
</g>
</g>
<!-- Node10&#45;&gt;Node13 -->
<g id="edge18" class="edge">
<title>Node10&#45;&gt;Node13</title>
<path fill="none" stroke="midnightblue" d="M495.11,-333.04C524.09,-322.88 564.96,-308.55 590.71,-299.52"/>
<polygon fill="midnightblue" stroke="midnightblue" points="493.68,-329.83 485.4,-336.44 496,-336.44 493.68,-329.83"/>
</g>
<!-- Node14 -->
<g id="node14" class="node">
<title>Node14</title>
<g id="a_node14"><a xlink:href="TTL__simplex__scheme_8h.html" target="_top" xlink:title=" ">
<polygon fill="white" stroke="black" points="691,-280.5 691,-299.5 811,-299.5 811,-280.5 691,-280.5"/>
<text text-anchor="middle" x="751" y="-287.5" font-family="Helvetica,sans-Serif" font-size="10.00">TTL_simplex_scheme.h</text>
</a>
</g>
</g>
<!-- Node10&#45;&gt;Node14 -->
<g id="edge19" class="edge">
<title>Node10&#45;&gt;Node14</title>
<path fill="none" stroke="midnightblue" d="M516.85,-334.6C571.65,-324.4 654.23,-309.02 705.26,-299.52"/>
<polygon fill="midnightblue" stroke="midnightblue" points="516.14,-331.17 506.95,-336.44 517.42,-338.05 516.14,-331.17"/>
</g>
<!-- Node12&#45;&gt;Node11 -->
<g id="edge17" class="edge">
<title>Node12&#45;&gt;Node11</title>
<path fill="none" stroke="midnightblue" d="M451.32,-270.98C446.4,-261.82 440.64,-251.09 436.7,-243.75"/>
<polygon fill="midnightblue" stroke="midnightblue" points="448.4,-272.93 456.21,-280.08 454.56,-269.62 448.4,-272.93"/>
</g>
</g>
</svg>
