<?xml version="1.0" encoding="UTF-8" standalone="no"?>
<!DOCTYPE svg PUBLIC "-//W3C//DTD SVG 1.1//EN"
 "http://www.w3.org/Graphics/SVG/1.1/DTD/svg11.dtd">
<!-- Generated by graphviz version 3.0.0 (20221109.1736)
 -->
<!-- Title: TTL_typed_import_export.h Pages: 1 -->
<svg width="148pt" height="140pt"
 viewBox="0.00 0.00 148.00 140.00" xmlns="http://www.w3.org/2000/svg" xmlns:xlink="http://www.w3.org/1999/xlink">
<g id="graph0" class="graph" transform="scale(1 1) rotate(0) translate(4 136)">
<title>TTL_typed_import_export.h</title>
<polygon fill="white" stroke="transparent" points="-4,4 -4,-136 144,-136 144,4 -4,4"/>
<!-- Node1 -->
<g id="node1" class="node">
<title>Node1</title>
<g id="a_node1"><a xlink:title=" ">
<polygon fill="#bfbfbf" stroke="black" points="0,-112.5 0,-131.5 134,-131.5 134,-112.5 0,-112.5"/>
<text text-anchor="middle" x="67" y="-119.5" font-family="Helvetica,sans-Serif" font-size="10.00">TTL_typed_import_export.h</text>
</a>
</g>
</g>
<!-- Node2 -->
<g id="node2" class="node">
<title>Node2</title>
<g id="a_node2"><a xlink:href="TTL__macros_8h.html" target="_top" xlink:title=" ">
<polygon fill="white" stroke="black" points="23.5,-0.5 23.5,-19.5 110.5,-19.5 110.5,-0.5 23.5,-0.5"/>
<text text-anchor="middle" x="67" y="-7.5" font-family="Helvetica,sans-Serif" font-size="10.00">../TTL_macros.h</text>
</a>
</g>
</g>
<!-- Node1&#45;&gt;Node2 -->
<g id="edge1" class="edge">
<title>Node1&#45;&gt;Node2</title>
<path fill="none" stroke="midnightblue" d="M63.03,-112.23C57.89,-99.8 49.91,-76.31 53,-56 54.37,-47 57.19,-37.33 59.95,-29.26"/>
<polygon fill="midnightblue" stroke="midnightblue" points="63.27,-30.37 63.4,-19.78 56.69,-27.98 63.27,-30.37"/>
</g>
<!-- Node3 -->
<g id="node3" class="node">
<title>Node3</title>
<g id="a_node3"><a xlink:href="TTL__types_8h.html" target="_top" xlink:title=" ">
<polygon fill="white" stroke="black" points="62,-56.5 62,-75.5 140,-75.5 140,-56.5 62,-56.5"/>
<text text-anchor="middle" x="101" y="-63.5" font-family="Helvetica,sans-Serif" font-size="10.00">../TTL_types.h</text>
</a>
</g>
</g>
<!-- Node1&#45;&gt;Node3 -->
<g id="edge2" class="edge">
<title>Node1&#45;&gt;Node3</title>
<path fill="none" stroke="midnightblue" d="M72.61,-112.08C77.37,-104.53 84.32,-93.49 90.15,-84.23"/>
<polygon fill="midnightblue" stroke="midnightblue" points="93.12,-86.08 95.49,-75.75 87.2,-82.35 93.12,-86.08"/>
</g>
<!-- Node3&#45;&gt;Node2 -->
<g id="edge3" class="edge">
<title>Node3&#45;&gt;Node2</title>
<path fill="none" stroke="midnightblue" d="M95.39,-56.08C90.63,-48.53 83.68,-37.49 77.85,-28.23"/>
<polygon fill="midnightblue" stroke="midnightblue" points="80.8,-26.35 72.51,-19.75 74.88,-30.08 80.8,-26.35"/>
</g>
</g>
</svg>
