<?xml version="1.0" encoding="UTF-8" standalone="no"?>
<!DOCTYPE svg PUBLIC "-//W3C//DTD SVG 1.1//EN"
 "http://www.w3.org/Graphics/SVG/1.1/DTD/svg11.dtd">
<!-- Generated by graphviz version 3.0.0 (20221109.1736)
 -->
<!-- Title: TTL_tensors_common.h Pages: 1 -->
<svg width="142pt" height="140pt"
 viewBox="0.00 0.00 142.00 140.00" xmlns="http://www.w3.org/2000/svg" xmlns:xlink="http://www.w3.org/1999/xlink">
<g id="graph0" class="graph" transform="scale(1 1) rotate(0) translate(4 136)">
<title>TTL_tensors_common.h</title>
<polygon fill="white" stroke="transparent" points="-4,4 -4,-136 138,-136 138,4 -4,4"/>
<!-- Node1 -->
<g id="node1" class="node">
<title>Node1</title>
<g id="a_node1"><a xlink:title=" ">
<polygon fill="#bfbfbf" stroke="black" points="0,-112.5 0,-131.5 122,-131.5 122,-112.5 0,-112.5"/>
<text text-anchor="middle" x="61" y="-119.5" font-family="Helvetica,sans-Serif" font-size="10.00">TTL_tensors_common.h</text>
</a>
</g>
</g>
<!-- Node2 -->
<g id="node2" class="node">
<title>Node2</title>
<g id="a_node2"><a xlink:href="TTL__macros_8h.html" target="_top" xlink:title=" ">
<polygon fill="white" stroke="black" points="17.5,-0.5 17.5,-19.5 104.5,-19.5 104.5,-0.5 17.5,-0.5"/>
<text text-anchor="middle" x="61" y="-7.5" font-family="Helvetica,sans-Serif" font-size="10.00">../TTL_macros.h</text>
</a>
</g>
</g>
<!-- Node1&#45;&gt;Node2 -->
<g id="edge1" class="edge">
<title>Node1&#45;&gt;Node2</title>
<path fill="none" stroke="midnightblue" d="M57.03,-112.23C51.89,-99.8 43.91,-76.31 47,-56 48.37,-47 51.19,-37.33 53.95,-29.26"/>
<polygon fill="midnightblue" stroke="midnightblue" points="57.27,-30.37 57.4,-19.78 50.69,-27.98 57.27,-30.37"/>
</g>
<!-- Node3 -->
<g id="node3" class="node">
<title>Node3</title>
<g id="a_node3"><a xlink:href="TTL__types_8h.html" target="_top" xlink:title=" ">
<polygon fill="white" stroke="black" points="56,-56.5 56,-75.5 134,-75.5 134,-56.5 56,-56.5"/>
<text text-anchor="middle" x="95" y="-63.5" font-family="Helvetica,sans-Serif" font-size="10.00">../TTL_types.h</text>
</a>
</g>
</g>
<!-- Node1&#45;&gt;Node3 -->
<g id="edge2" class="edge">
<title>Node1&#45;&gt;Node3</title>
<path fill="none" stroke="midnightblue" d="M66.61,-112.08C71.37,-104.53 78.32,-93.49 84.15,-84.23"/>
<polygon fill="midnightblue" stroke="midnightblue" points="87.12,-86.08 89.49,-75.75 81.2,-82.35 87.12,-86.08"/>
</g>
<!-- Node3&#45;&gt;Node2 -->
<g id="edge3" class="edge">
<title>Node3&#45;&gt;Node2</title>
<path fill="none" stroke="midnightblue" d="M89.39,-56.08C84.63,-48.53 77.68,-37.49 71.85,-28.23"/>
<polygon fill="midnightblue" stroke="midnightblue" points="74.8,-26.35 66.51,-19.75 68.88,-30.08 74.8,-26.35"/>
</g>
</g>
</svg>
