<?xml version="1.0" encoding="UTF-8" standalone="no"?>
<!DOCTYPE svg PUBLIC "-//W3C//DTD SVG 1.1//EN"
 "http://www.w3.org/Graphics/SVG/1.1/DTD/svg11.dtd">
<!-- Generated by graphviz version 3.0.0 (20221109.1736)
 -->
<!-- Title: TTL_types.h Pages: 1 -->
<svg width="526pt" height="420pt"
 viewBox="0.00 0.00 525.70 420.00" xmlns="http://www.w3.org/2000/svg" xmlns:xlink="http://www.w3.org/1999/xlink">
<g id="graph0" class="graph" transform="scale(1 1) rotate(0) translate(4 416)">
<title>TTL_types.h</title>
<polygon fill="white" stroke="transparent" points="-4,4 -4,-416 521.7,-416 521.7,4 -4,4"/>
<!-- Node1 -->
<g id="node1" class="node">
<title>Node1</title>
<g id="a_node1"><a xlink:title=" ">
<polygon fill="#bfbfbf" stroke="black" points="209.2,-392.5 209.2,-411.5 280.2,-411.5 280.2,-392.5 209.2,-392.5"/>
<text text-anchor="middle" x="244.7" y="-399.5" font-family="Helvetica,sans-Serif" font-size="10.00">TTL_types.h</text>
</a>
</g>
</g>
<!-- Node2 -->
<g id="node2" class="node">
<title>Node2</title>
<g id="a_node2"><a xlink:href="TTL__core_8h.html" target="_top" xlink:title=" ">
<polygon fill="white" stroke="black" points="142.7,-168.5 142.7,-187.5 208.7,-187.5 208.7,-168.5 142.7,-168.5"/>
<text text-anchor="middle" x="175.7" y="-175.5" font-family="Helvetica,sans-Serif" font-size="10.00">TTL_core.h</text>
</a>
</g>
</g>
<!-- Node1&#45;&gt;Node2 -->
<g id="edge1" class="edge">
<title>Node1&#45;&gt;Node2</title>
<path fill="none" stroke="midnightblue" d="M198.91,-398.81C138.15,-394.83 35.83,-384.05 12.7,-356 -43.12,-288.32 102.32,-212.57 156.39,-187.54"/>
<polygon fill="midnightblue" stroke="midnightblue" points="198.81,-402.31 209.01,-399.43 199.25,-395.32 198.81,-402.31"/>
</g>
<!-- Node6 -->
<g id="node6" class="node">
<title>Node6</title>
<g id="a_node6"><a xlink:href="TTL__debug_8h.html" target="_top" xlink:title=" ">
<polygon fill="white" stroke="black" points="211.7,-224.5 211.7,-243.5 285.7,-243.5 285.7,-224.5 211.7,-224.5"/>
<text text-anchor="middle" x="248.7" y="-231.5" font-family="Helvetica,sans-Serif" font-size="10.00">TTL_debug.h</text>
</a>
</g>
</g>
<!-- Node1&#45;&gt;Node6 -->
<g id="edge6" class="edge">
<title>Node1&#45;&gt;Node6</title>
<path fill="none" stroke="midnightblue" d="M269.88,-387C280.89,-379.4 292.65,-368.91 298.7,-356 305.76,-340.92 301.19,-299.99 291.7,-280 284.56,-264.97 270.45,-251.74 260.34,-243.58"/>
<polygon fill="midnightblue" stroke="midnightblue" points="267.87,-384.13 261.33,-392.46 271.64,-390.03 267.87,-384.13"/>
</g>
<!-- Node7 -->
<g id="node7" class="node">
<title>Node7</title>
<g id="a_node7"><a xlink:href="TTL__int__ext__typed__tensors_8h.html" target="_top" xlink:title=" ">
<polygon fill="white" stroke="black" points="140.7,-280.5 140.7,-299.5 282.7,-299.5 282.7,-280.5 140.7,-280.5"/>
<text text-anchor="middle" x="211.7" y="-287.5" font-family="Helvetica,sans-Serif" font-size="10.00">TTL_int_ext_typed_tensors.h</text>
</a>
</g>
</g>
<!-- Node1&#45;&gt;Node7 -->
<g id="edge8" class="edge">
<title>Node1&#45;&gt;Node7</title>
<path fill="none" stroke="midnightblue" d="M219.52,-387C208.51,-379.4 196.74,-368.91 190.7,-356 181.64,-336.67 195.7,-312.39 204.85,-299.67"/>
<polygon fill="midnightblue" stroke="midnightblue" points="217.75,-390.03 228.06,-392.46 221.53,-384.13 217.75,-390.03"/>
</g>
<!-- Node8 -->
<g id="node8" class="node">
<title>Node8</title>
<g id="a_node8"><a xlink:href="TTL__tensor__rw_8h.html" target="_top" xlink:title=" ">
<polygon fill="white" stroke="black" points="199.7,-336.5 199.7,-355.5 289.7,-355.5 289.7,-336.5 199.7,-336.5"/>
<text text-anchor="middle" x="244.7" y="-343.5" font-family="Helvetica,sans-Serif" font-size="10.00">TTL_tensor_rw.h</text>
</a>
</g>
</g>
<!-- Node1&#45;&gt;Node8 -->
<g id="edge9" class="edge">
<title>Node1&#45;&gt;Node8</title>
<path fill="none" stroke="midnightblue" d="M244.7,-381.8C244.7,-372.91 244.7,-362.78 244.7,-355.75"/>
<polygon fill="midnightblue" stroke="midnightblue" points="241.2,-382.08 244.7,-392.08 248.2,-382.08 241.2,-382.08"/>
</g>
<!-- Node9 -->
<g id="node9" class="node">
<title>Node9</title>
<g id="a_node9"><a xlink:href="TTL__tensors__common_8h.html" target="_top" xlink:title=" ">
<polygon fill="white" stroke="black" points="21.7,-336.5 21.7,-355.5 143.7,-355.5 143.7,-336.5 21.7,-336.5"/>
<text text-anchor="middle" x="82.7" y="-343.5" font-family="Helvetica,sans-Serif" font-size="10.00">TTL_tensors_common.h</text>
</a>
</g>
</g>
<!-- Node1&#45;&gt;Node9 -->
<g id="edge10" class="edge">
<title>Node1&#45;&gt;Node9</title>
<path fill="none" stroke="midnightblue" d="M209.21,-389.17C178.71,-379 135.45,-364.59 108.25,-355.52"/>
<polygon fill="midnightblue" stroke="midnightblue" points="208.43,-392.6 219.03,-392.44 210.65,-385.96 208.43,-392.6"/>
</g>
<!-- Node11 -->
<g id="node11" class="node">
<title>Node11</title>
<g id="a_node11"><a xlink:href="TTL__tiles_8h.html" target="_top" xlink:title=" ">
<polygon fill="white" stroke="black" points="342.2,-280.5 342.2,-299.5 407.2,-299.5 407.2,-280.5 342.2,-280.5"/>
<text text-anchor="middle" x="374.7" y="-287.5" font-family="Helvetica,sans-Serif" font-size="10.00">TTL_tiles.h</text>
</a>
</g>
</g>
<!-- Node1&#45;&gt;Node11 -->
<g id="edge15" class="edge">
<title>Node1&#45;&gt;Node11</title>
<path fill="none" stroke="midnightblue" d="M278.55,-388.32C295.77,-380.74 316.26,-369.87 331.7,-356 350.22,-339.36 364.33,-313.06 370.8,-299.58"/>
<polygon fill="midnightblue" stroke="midnightblue" points="276.71,-385.3 268.85,-392.4 279.43,-391.75 276.71,-385.3"/>
</g>
<!-- Node12 -->
<g id="node12" class="node">
<title>Node12</title>
<g id="a_node12"><a xlink:href="TTL__typed__import__export_8h.html" target="_top" xlink:title=" ">
<polygon fill="white" stroke="black" points="383.7,-336.5 383.7,-355.5 517.7,-355.5 517.7,-336.5 383.7,-336.5"/>
<text text-anchor="middle" x="450.7" y="-343.5" font-family="Helvetica,sans-Serif" font-size="10.00">TTL_typed_import_export.h</text>
</a>
</g>
</g>
<!-- Node1&#45;&gt;Node12 -->
<g id="edge18" class="edge">
<title>Node1&#45;&gt;Node12</title>
<path fill="none" stroke="midnightblue" d="M287.31,-389.83C326.21,-379.63 382.86,-364.78 418.21,-355.52"/>
<polygon fill="midnightblue" stroke="midnightblue" points="286.12,-386.52 277.34,-392.44 287.9,-393.29 286.12,-386.52"/>
</g>
<!-- Node3 -->
<g id="node3" class="node">
<title>Node3</title>
<g id="a_node3"><a xlink:href="TTL__import__export_8h.html" target="_top" xlink:title=" ">
<polygon fill="white" stroke="black" points="82.7,-112.5 82.7,-131.5 188.7,-131.5 188.7,-112.5 82.7,-112.5"/>
<text text-anchor="middle" x="135.7" y="-119.5" font-family="Helvetica,sans-Serif" font-size="10.00">TTL_import_export.h</text>
</a>
</g>
</g>
<!-- Node2&#45;&gt;Node3 -->
<g id="edge2" class="edge">
<title>Node2&#45;&gt;Node3</title>
<path fill="none" stroke="midnightblue" d="M163,-159.86C156.07,-150.5 147.79,-139.33 142.18,-131.75"/>
<polygon fill="midnightblue" stroke="midnightblue" points="160.33,-162.13 169.09,-168.08 165.95,-157.96 160.33,-162.13"/>
</g>
<!-- Node4 -->
<g id="node4" class="node">
<title>Node4</title>
<g id="a_node4"><a xlink:href="TTL__pipeline__schemes_8h.html" target="_top" xlink:title=" ">
<polygon fill="white" stroke="black" points="113.2,-56.5 113.2,-75.5 238.2,-75.5 238.2,-56.5 113.2,-56.5"/>
<text text-anchor="middle" x="175.7" y="-63.5" font-family="Helvetica,sans-Serif" font-size="10.00">TTL_pipeline_schemes.h</text>
</a>
</g>
</g>
<!-- Node2&#45;&gt;Node4 -->
<g id="edge5" class="edge">
<title>Node2&#45;&gt;Node4</title>
<path fill="none" stroke="midnightblue" d="M186.46,-159.69C190.88,-151.59 195.47,-141.64 197.7,-132 202.48,-111.34 189.97,-87.99 181.91,-75.67"/>
<polygon fill="midnightblue" stroke="midnightblue" points="183.35,-158.08 181.34,-168.48 189.39,-161.6 183.35,-158.08"/>
</g>
<!-- Node3&#45;&gt;Node4 -->
<g id="edge3" class="edge">
<title>Node3&#45;&gt;Node4</title>
<path fill="none" stroke="midnightblue" d="M148.4,-103.86C155.32,-94.5 163.6,-83.33 169.22,-75.75"/>
<polygon fill="midnightblue" stroke="midnightblue" points="145.44,-101.96 142.3,-112.08 151.07,-106.13 145.44,-101.96"/>
</g>
<!-- Node5 -->
<g id="node5" class="node">
<title>Node5</title>
<g id="a_node5"><a xlink:href="TTL_8h.html" target="_top" xlink:title=" ">
<polygon fill="white" stroke="black" points="154.7,-0.5 154.7,-19.5 196.7,-19.5 196.7,-0.5 154.7,-0.5"/>
<text text-anchor="middle" x="175.7" y="-7.5" font-family="Helvetica,sans-Serif" font-size="10.00">TTL.h</text>
</a>
</g>
</g>
<!-- Node4&#45;&gt;Node5 -->
<g id="edge4" class="edge">
<title>Node4&#45;&gt;Node5</title>
<path fill="none" stroke="midnightblue" d="M175.7,-45.8C175.7,-36.91 175.7,-26.78 175.7,-19.75"/>
<polygon fill="midnightblue" stroke="midnightblue" points="172.2,-46.08 175.7,-56.08 179.2,-46.08 172.2,-46.08"/>
</g>
<!-- Node6&#45;&gt;Node2 -->
<g id="edge7" class="edge">
<title>Node6&#45;&gt;Node2</title>
<path fill="none" stroke="midnightblue" d="M228.56,-218.1C215.42,-208.38 198.72,-196.03 187.64,-187.83"/>
<polygon fill="midnightblue" stroke="midnightblue" points="226.85,-221.19 236.97,-224.32 231.01,-215.56 226.85,-221.19"/>
</g>
<!-- Node9&#45;&gt;Node7 -->
<g id="edge11" class="edge">
<title>Node9&#45;&gt;Node7</title>
<path fill="none" stroke="midnightblue" d="M112.55,-332.5C136.74,-322.38 170.16,-308.39 191.35,-299.52"/>
<polygon fill="midnightblue" stroke="midnightblue" points="111.01,-329.35 103.14,-336.44 113.71,-335.81 111.01,-329.35"/>
</g>
<!-- Node10 -->
<g id="node10" class="node">
<title>Node10</title>
<g id="a_node10"><a xlink:href="TTL__tensors_8h.html" target="_top" xlink:title=" ">
<polygon fill="white" stroke="black" points="42.7,-280.5 42.7,-299.5 122.7,-299.5 122.7,-280.5 42.7,-280.5"/>
<text text-anchor="middle" x="82.7" y="-287.5" font-family="Helvetica,sans-Serif" font-size="10.00">TTL_tensors.h</text>
</a>
</g>
</g>
<!-- Node9&#45;&gt;Node10 -->
<g id="edge12" class="edge">
<title>Node9&#45;&gt;Node10</title>
<path fill="none" stroke="midnightblue" d="M82.7,-325.8C82.7,-316.91 82.7,-306.78 82.7,-299.75"/>
<polygon fill="midnightblue" stroke="midnightblue" points="79.2,-326.08 82.7,-336.08 86.2,-326.08 79.2,-326.08"/>
</g>
<!-- Node10&#45;&gt;Node2 -->
<g id="edge13" class="edge">
<title>Node10&#45;&gt;Node2</title>
<path fill="none" stroke="midnightblue" d="M96.58,-272.59C116.62,-248.87 152.98,-205.87 168.43,-187.59"/>
<polygon fill="midnightblue" stroke="midnightblue" points="93.78,-270.47 90,-280.37 99.12,-274.99 93.78,-270.47"/>
</g>
<!-- Node10&#45;&gt;Node6 -->
<g id="edge14" class="edge">
<title>Node10&#45;&gt;Node6</title>
<path fill="none" stroke="midnightblue" d="M118.65,-277.3C149.93,-267.13 194.52,-252.62 222.52,-243.52"/>
<polygon fill="midnightblue" stroke="midnightblue" points="117.43,-274.02 109,-280.44 119.59,-280.68 117.43,-274.02"/>
</g>
<!-- Node11&#45;&gt;Node2 -->
<g id="edge16" class="edge">
<title>Node11&#45;&gt;Node2</title>
<path fill="none" stroke="midnightblue" d="M358.47,-273.16C343.08,-258.81 318.78,-237.85 294.7,-224 266.36,-207.7 231.01,-195.21 206.24,-187.57"/>
<polygon fill="midnightblue" stroke="midnightblue" points="356.39,-276.01 366.05,-280.36 361.21,-270.94 356.39,-276.01"/>
</g>
<!-- Node11&#45;&gt;Node6 -->
<g id="edge17" class="edge">
<title>Node11&#45;&gt;Node6</title>
<path fill="none" stroke="midnightblue" d="M345.54,-276.5C321.92,-266.38 289.27,-252.39 268.57,-243.52"/>
<polygon fill="midnightblue" stroke="midnightblue" points="344.16,-279.72 354.73,-280.44 346.92,-273.29 344.16,-279.72"/>
</g>
</g>
</svg>
