<?xml version="1.0" encoding="UTF-8" standalone="no"?>
<!DOCTYPE svg PUBLIC "-//W3C//DTD SVG 1.1//EN"
 "http://www.w3.org/Graphics/SVG/1.1/DTD/svg11.dtd">
<!-- Generated by graphviz version 3.0.0 (20221109.1736)
 -->
<!-- Title: TTL_pipeline_schemes.h Pages: 1 -->
<svg width="686pt" height="487pt"
 viewBox="0.00 0.00 686.00 487.00" xmlns="http://www.w3.org/2000/svg" xmlns:xlink="http://www.w3.org/1999/xlink">
<g id="graph0" class="graph" transform="scale(1 1) rotate(0) translate(4 483)">
<title>TTL_pipeline_schemes.h</title>
<polygon fill="white" stroke="transparent" points="-4,4 -4,-483 682,-483 682,4 -4,4"/>
<!-- Node1 -->
<g id="node1" class="node">
<title>Node1</title>
<g id="a_node1"><a xlink:title=" ">
<polygon fill="#bfbfbf" stroke="black" points="323.5,-459.5 323.5,-478.5 448.5,-478.5 448.5,-459.5 323.5,-459.5"/>
<text text-anchor="middle" x="386" y="-466.5" font-family="Helvetica,sans-Serif" font-size="10.00">TTL_pipeline_schemes.h</text>
</a>
</g>
</g>
<!-- Node2 -->
<g id="node2" class="node">
<title>Node2</title>
<g id="a_node2"><a xlink:href="TTL__core_8h.html" target="_top" xlink:title=" ">
<polygon fill="white" stroke="black" points="384,-347.5 384,-366.5 450,-366.5 450,-347.5 384,-347.5"/>
<text text-anchor="middle" x="417" y="-354.5" font-family="Helvetica,sans-Serif" font-size="10.00">TTL_core.h</text>
</a>
</g>
</g>
<!-- Node1&#45;&gt;Node2 -->
<g id="edge1" class="edge">
<title>Node1&#45;&gt;Node2</title>
<path fill="none" stroke="midnightblue" d="M379.2,-459.35C370.11,-446.66 356.13,-422.41 365,-403 370.78,-390.36 382.05,-379.91 392.63,-372.27"/>
<polygon fill="midnightblue" stroke="midnightblue" points="394.85,-375 401.22,-366.53 390.96,-369.18 394.85,-375"/>
</g>
<!-- Node10 -->
<g id="node10" class="node">
<title>Node10</title>
<g id="a_node10"><a xlink:href="TTL__create__types_8h.html" target="_top" xlink:title=" ">
<polygon fill="white" stroke="black" points="78,-112.5 78,-131.5 188,-131.5 188,-112.5 78,-112.5"/>
<text text-anchor="middle" x="133" y="-119.5" font-family="Helvetica,sans-Serif" font-size="10.00">../TTL_create_types.h</text>
</a>
</g>
</g>
<!-- Node1&#45;&gt;Node10 -->
<g id="edge28" class="edge">
<title>Node1&#45;&gt;Node10</title>
<path fill="none" stroke="midnightblue" d="M323.12,-463.12C213.75,-452.88 0,-424.37 0,-358 0,-358 0,-358 0,-244 0,-206.43 10.24,-194.37 37,-168 52.41,-152.82 73.9,-142.09 92.64,-134.93"/>
<polygon fill="midnightblue" stroke="midnightblue" points="93.92,-138.19 102.15,-131.5 91.55,-131.6 93.92,-138.19"/>
</g>
<!-- Node15 -->
<g id="node15" class="node">
<title>Node15</title>
<g id="a_node15"><a xlink:href="TTL__import__export_8h.html" target="_top" xlink:title=" ">
<polygon fill="white" stroke="black" points="374,-403.5 374,-422.5 480,-422.5 480,-403.5 374,-403.5"/>
<text text-anchor="middle" x="427" y="-410.5" font-family="Helvetica,sans-Serif" font-size="10.00">TTL_import_export.h</text>
</a>
</g>
</g>
<!-- Node1&#45;&gt;Node15 -->
<g id="edge22" class="edge">
<title>Node1&#45;&gt;Node15</title>
<path fill="none" stroke="midnightblue" d="M392.77,-459.08C398.56,-451.46 407.06,-440.26 414.14,-430.94"/>
<polygon fill="midnightblue" stroke="midnightblue" points="417.1,-432.83 420.36,-422.75 411.52,-428.6 417.1,-432.83"/>
</g>
<!-- Node16 -->
<g id="node16" class="node">
<title>Node16</title>
<g id="a_node16"><a xlink:href="opencl_2TTL__import__export_8h.html" target="_top" xlink:title=" ">
<polygon fill="white" stroke="black" points="468.5,-347.5 468.5,-366.5 605.5,-366.5 605.5,-347.5 468.5,-347.5"/>
<text text-anchor="middle" x="537" y="-354.5" font-family="Helvetica,sans-Serif" font-size="10.00">opencl/TTL_import_export.h</text>
</a>
</g>
</g>
<!-- Node1&#45;&gt;Node16 -->
<g id="edge27" class="edge">
<title>Node1&#45;&gt;Node16</title>
<path fill="none" stroke="midnightblue" d="M416.2,-459.46C438.02,-452.23 467.34,-440.28 489,-423 505.4,-409.92 519.01,-389.95 527.5,-375.6"/>
<polygon fill="midnightblue" stroke="midnightblue" points="530.65,-377.14 532.53,-366.71 524.56,-373.69 530.65,-377.14"/>
</g>
<!-- Node3 -->
<g id="node3" class="node">
<title>Node3</title>
<g id="a_node3"><a xlink:title=" ">
<polygon fill="white" stroke="#bfbfbf" points="478,-291.5 478,-310.5 612,-310.5 612,-291.5 478,-291.5"/>
<text text-anchor="middle" x="545" y="-298.5" font-family="Helvetica,sans-Serif" font-size="10.00">TTL_TYPES_INCLUDE_H</text>
</a>
</g>
</g>
<!-- Node2&#45;&gt;Node3 -->
<g id="edge2" class="edge">
<title>Node2&#45;&gt;Node3</title>
<path fill="none" stroke="midnightblue" d="M437.28,-347.44C458.35,-338.56 491.52,-324.56 515.49,-314.45"/>
<polygon fill="midnightblue" stroke="midnightblue" points="516.96,-317.63 524.81,-310.52 514.24,-311.18 516.96,-317.63"/>
</g>
<!-- Node4 -->
<g id="node4" class="node">
<title>Node4</title>
<g id="a_node4"><a xlink:href="TTL__debug_8h.html" target="_top" xlink:title=" ">
<polygon fill="white" stroke="black" points="348,-291.5 348,-310.5 422,-310.5 422,-291.5 348,-291.5"/>
<text text-anchor="middle" x="385" y="-298.5" font-family="Helvetica,sans-Serif" font-size="10.00">TTL_debug.h</text>
</a>
</g>
</g>
<!-- Node2&#45;&gt;Node4 -->
<g id="edge3" class="edge">
<title>Node2&#45;&gt;Node4</title>
<path fill="none" stroke="midnightblue" d="M411.72,-347.08C407.29,-339.61 400.84,-328.72 395.38,-319.52"/>
<polygon fill="midnightblue" stroke="midnightblue" points="398.29,-317.57 390.19,-310.75 392.27,-321.14 398.29,-317.57"/>
</g>
<!-- Node5 -->
<g id="node5" class="node">
<title>Node5</title>
<g id="a_node5"><a xlink:href="TTL__tensors_8h.html" target="_top" xlink:title=" ">
<polygon fill="white" stroke="black" points="308,-235.5 308,-254.5 388,-254.5 388,-235.5 308,-235.5"/>
<text text-anchor="middle" x="348" y="-242.5" font-family="Helvetica,sans-Serif" font-size="10.00">TTL_tensors.h</text>
</a>
</g>
</g>
<!-- Node2&#45;&gt;Node5 -->
<g id="edge19" class="edge">
<title>Node2&#45;&gt;Node5</title>
<path fill="none" stroke="midnightblue" d="M387.88,-347.44C370.36,-340.62 349.48,-329.14 339,-311 330.74,-296.69 334.72,-277.73 339.73,-263.99"/>
<polygon fill="midnightblue" stroke="midnightblue" points="343.01,-265.23 343.58,-254.65 336.53,-262.57 343.01,-265.23"/>
</g>
<!-- Node8 -->
<g id="node8" class="node">
<title>Node8</title>
<g id="a_node8"><a xlink:href="TTL__types_8h.html" target="_top" xlink:title=" ">
<polygon fill="white" stroke="black" points="521,-112.5 521,-131.5 599,-131.5 599,-112.5 521,-112.5"/>
<text text-anchor="middle" x="560" y="-119.5" font-family="Helvetica,sans-Serif" font-size="10.00">../TTL_types.h</text>
</a>
</g>
</g>
<!-- Node2&#45;&gt;Node8 -->
<g id="edge21" class="edge">
<title>Node2&#45;&gt;Node8</title>
<path fill="none" stroke="midnightblue" d="M450.42,-348.9C507.93,-336.65 619.65,-312.68 621,-311 663.4,-258.23 604.22,-175.14 574.85,-139.81"/>
<polygon fill="midnightblue" stroke="midnightblue" points="577.25,-137.23 568.1,-131.9 571.93,-141.78 577.25,-137.23"/>
</g>
<!-- Node14 -->
<g id="node14" class="node">
<title>Node14</title>
<g id="a_node14"><a xlink:href="TTL__tiles_8h.html" target="_top" xlink:title=" ">
<polygon fill="white" stroke="black" points="546.5,-235.5 546.5,-254.5 611.5,-254.5 611.5,-235.5 546.5,-235.5"/>
<text text-anchor="middle" x="579" y="-242.5" font-family="Helvetica,sans-Serif" font-size="10.00">TTL_tiles.h</text>
</a>
</g>
</g>
<!-- Node2&#45;&gt;Node14 -->
<g id="edge20" class="edge">
<title>Node2&#45;&gt;Node14</title>
<path fill="none" stroke="midnightblue" d="M421.97,-347.25C430.16,-333.54 447.71,-306.93 469,-291 489.2,-275.89 515.2,-264.95 536.85,-257.64"/>
<polygon fill="midnightblue" stroke="midnightblue" points="538.02,-260.94 546.45,-254.53 535.86,-254.28 538.02,-260.94"/>
</g>
<!-- Node4&#45;&gt;Node5 -->
<g id="edge4" class="edge">
<title>Node4&#45;&gt;Node5</title>
<path fill="none" stroke="midnightblue" d="M378.89,-291.08C373.72,-283.53 366.15,-272.49 359.81,-263.23"/>
<polygon fill="midnightblue" stroke="midnightblue" points="362.54,-261.02 354,-254.75 356.76,-264.98 362.54,-261.02"/>
</g>
<!-- Node4&#45;&gt;Node8 -->
<g id="edge18" class="edge">
<title>Node4&#45;&gt;Node8</title>
<path fill="none" stroke="midnightblue" d="M401.29,-291.4C429.11,-276.05 486.23,-241.5 522,-199 536.65,-181.59 547.44,-157.58 553.7,-141.23"/>
<polygon fill="midnightblue" stroke="midnightblue" points="557.02,-142.34 557.16,-131.75 550.45,-139.94 557.02,-142.34"/>
</g>
<!-- Node4&#45;&gt;Node14 -->
<g id="edge16" class="edge">
<title>Node4&#45;&gt;Node14</title>
<path fill="none" stroke="midnightblue" d="M415.74,-291.44C448.94,-282.2 501.99,-267.44 538.56,-257.26"/>
<polygon fill="midnightblue" stroke="midnightblue" points="539.71,-260.57 548.4,-254.52 537.83,-253.83 539.71,-260.57"/>
</g>
<!-- Node6 -->
<g id="node6" class="node">
<title>Node6</title>
<g id="a_node6"><a xlink:href="TTL__tensors__common_8h.html" target="_top" xlink:title=" ">
<polygon fill="white" stroke="black" points="405.5,-168.5 405.5,-198.5 512.5,-198.5 512.5,-168.5 405.5,-168.5"/>
<text text-anchor="start" x="413.5" y="-186.5" font-family="Helvetica,sans-Serif" font-size="10.00">tensors/TTL_tensors</text>
<text text-anchor="middle" x="459" y="-175.5" font-family="Helvetica,sans-Serif" font-size="10.00">_common.h</text>
</a>
</g>
</g>
<!-- Node5&#45;&gt;Node6 -->
<g id="edge5" class="edge">
<title>Node5&#45;&gt;Node6</title>
<path fill="none" stroke="midnightblue" d="M363.9,-235.48C379.5,-227.12 403.8,-214.09 423.93,-203.3"/>
<polygon fill="midnightblue" stroke="midnightblue" points="425.68,-206.33 432.84,-198.52 422.37,-200.16 425.68,-206.33"/>
</g>
<!-- Node9 -->
<g id="node9" class="node">
<title>Node9</title>
<g id="a_node9"><a xlink:href="TTL__ext__tensors_8h.html" target="_top" xlink:title=" ">
<polygon fill="white" stroke="black" points="66.5,-174 66.5,-193 199.5,-193 199.5,-174 66.5,-174"/>
<text text-anchor="middle" x="133" y="-181" font-family="Helvetica,sans-Serif" font-size="10.00">tensors/TTL_ext_tensors.h</text>
</a>
</g>
</g>
<!-- Node5&#45;&gt;Node9 -->
<g id="edge9" class="edge">
<title>Node5&#45;&gt;Node9</title>
<path fill="none" stroke="midnightblue" d="M317.2,-235.48C279.44,-225.03 215.34,-207.29 173.59,-195.73"/>
<polygon fill="midnightblue" stroke="midnightblue" points="174.32,-192.3 163.75,-193.01 172.45,-199.05 174.32,-192.3"/>
</g>
<!-- Node5&#45;&gt;Node10 -->
<g id="edge15" class="edge">
<title>Node5&#45;&gt;Node10</title>
<path fill="none" stroke="midnightblue" d="M352.85,-235.35C360.76,-219.95 374.03,-187.55 358,-168 338.06,-143.68 257.15,-132.24 198.05,-127.05"/>
<polygon fill="midnightblue" stroke="midnightblue" points="198.29,-123.56 188.03,-126.21 197.7,-130.53 198.29,-123.56"/>
</g>
<!-- Node13 -->
<g id="node13" class="node">
<title>Node13</title>
<g id="a_node13"><a xlink:href="TTL__int__tensors_8h.html" target="_top" xlink:title=" ">
<polygon fill="white" stroke="black" points="217.5,-174 217.5,-193 348.5,-193 348.5,-174 217.5,-174"/>
<text text-anchor="middle" x="283" y="-181" font-family="Helvetica,sans-Serif" font-size="10.00">tensors/TTL_int_tensors.h</text>
</a>
</g>
</g>
<!-- Node5&#45;&gt;Node13 -->
<g id="edge13" class="edge">
<title>Node5&#45;&gt;Node13</title>
<path fill="none" stroke="midnightblue" d="M338.69,-235.48C328.55,-226.2 312.14,-211.17 299.75,-199.83"/>
<polygon fill="midnightblue" stroke="midnightblue" points="302.04,-197.18 292.3,-193.01 297.31,-202.34 302.04,-197.18"/>
</g>
<!-- Node7 -->
<g id="node7" class="node">
<title>Node7</title>
<g id="a_node7"><a xlink:href="TTL__macros_8h.html" target="_top" xlink:title=" ">
<polygon fill="white" stroke="black" points="516.5,-56.5 516.5,-75.5 603.5,-75.5 603.5,-56.5 516.5,-56.5"/>
<text text-anchor="middle" x="560" y="-63.5" font-family="Helvetica,sans-Serif" font-size="10.00">../TTL_macros.h</text>
</a>
</g>
</g>
<!-- Node6&#45;&gt;Node7 -->
<g id="edge6" class="edge">
<title>Node6&#45;&gt;Node7</title>
<path fill="none" stroke="midnightblue" d="M468.49,-168.43C478.61,-153.79 495.44,-130.47 512,-112 521.32,-101.61 532.68,-90.88 542.01,-82.51"/>
<polygon fill="midnightblue" stroke="midnightblue" points="544.4,-85.07 549.58,-75.83 539.77,-79.82 544.4,-85.07"/>
</g>
<!-- Node6&#45;&gt;Node8 -->
<g id="edge7" class="edge">
<title>Node6&#45;&gt;Node8</title>
<path fill="none" stroke="midnightblue" d="M482.94,-168.4C499.13,-158.86 520.41,-146.32 536.5,-136.84"/>
<polygon fill="midnightblue" stroke="midnightblue" points="538.46,-139.75 545.3,-131.66 534.91,-133.72 538.46,-139.75"/>
</g>
<!-- Node8&#45;&gt;Node7 -->
<g id="edge8" class="edge">
<title>Node8&#45;&gt;Node7</title>
<path fill="none" stroke="midnightblue" d="M560,-112.08C560,-105.01 560,-94.86 560,-85.99"/>
<polygon fill="midnightblue" stroke="midnightblue" points="563.5,-85.75 560,-75.75 556.5,-85.75 563.5,-85.75"/>
</g>
<!-- Node9&#45;&gt;Node10 -->
<g id="edge10" class="edge">
<title>Node9&#45;&gt;Node10</title>
<path fill="none" stroke="midnightblue" d="M133,-173.98C133,-165.58 133,-152.48 133,-141.66"/>
<polygon fill="midnightblue" stroke="midnightblue" points="136.5,-141.51 133,-131.51 129.5,-141.51 136.5,-141.51"/>
</g>
<!-- Node11 -->
<g id="node11" class="node">
<title>Node11</title>
<g id="a_node11"><a xlink:href="TTL__create__type_8h.html" target="_top" xlink:title=" ">
<polygon fill="white" stroke="black" points="84,-56.5 84,-75.5 182,-75.5 182,-56.5 84,-56.5"/>
<text text-anchor="middle" x="133" y="-63.5" font-family="Helvetica,sans-Serif" font-size="10.00">TTL_create_type.h</text>
</a>
</g>
</g>
<!-- Node10&#45;&gt;Node11 -->
<g id="edge11" class="edge">
<title>Node10&#45;&gt;Node11</title>
<path fill="none" stroke="midnightblue" d="M133,-112.08C133,-105.01 133,-94.86 133,-85.99"/>
<polygon fill="midnightblue" stroke="midnightblue" points="136.5,-85.75 133,-75.75 129.5,-85.75 136.5,-85.75"/>
</g>
<!-- Node12 -->
<g id="node12" class="node">
<title>Node12</title>
<g id="a_node12"><a xlink:title=" ">
<polygon fill="white" stroke="#bfbfbf" points="59.5,-0.5 59.5,-19.5 206.5,-19.5 206.5,-0.5 59.5,-0.5"/>
<text text-anchor="middle" x="133" y="-7.5" font-family="Helvetica,sans-Serif" font-size="10.00">TTL_TYPES_INCLUDE_FILE</text>
</a>
</g>
</g>
<!-- Node11&#45;&gt;Node12 -->
<g id="edge12" class="edge">
<title>Node11&#45;&gt;Node12</title>
<path fill="none" stroke="midnightblue" d="M133,-56.08C133,-49.01 133,-38.86 133,-29.99"/>
<polygon fill="midnightblue" stroke="midnightblue" points="136.5,-29.75 133,-19.75 129.5,-29.75 136.5,-29.75"/>
</g>
<!-- Node13&#45;&gt;Node10 -->
<g id="edge14" class="edge">
<title>Node13&#45;&gt;Node10</title>
<path fill="none" stroke="midnightblue" d="M261.51,-173.98C235.89,-163.81 192.89,-146.76 163.76,-135.2"/>
<polygon fill="midnightblue" stroke="midnightblue" points="165.04,-131.94 154.45,-131.51 162.46,-138.45 165.04,-131.94"/>
</g>
<!-- Node14&#45;&gt;Node8 -->
<g id="edge17" class="edge">
<title>Node14&#45;&gt;Node8</title>
<path fill="none" stroke="midnightblue" d="M577.63,-235.3C574.57,-215.76 567.08,-168.06 562.91,-141.55"/>
<polygon fill="midnightblue" stroke="midnightblue" points="566.36,-140.96 561.35,-131.62 559.45,-142.05 566.36,-140.96"/>
</g>
<!-- Node15&#45;&gt;Node2 -->
<g id="edge23" class="edge">
<title>Node15&#45;&gt;Node2</title>
<path fill="none" stroke="midnightblue" d="M425.35,-403.08C424.02,-395.93 422.12,-385.64 420.46,-376.69"/>
<polygon fill="midnightblue" stroke="midnightblue" points="423.88,-375.95 418.62,-366.75 417,-377.22 423.88,-375.95"/>
</g>
<!-- Node15&#45;&gt;Node10 -->
<g id="edge26" class="edge">
<title>Node15&#45;&gt;Node10</title>
<path fill="none" stroke="midnightblue" d="M373.73,-408.11C267.19,-398.86 38,-370.95 38,-302 38,-302 38,-302 38,-244 38,-209.18 36.19,-195.91 57,-168 67.6,-153.78 84.14,-143.22 99.08,-135.92"/>
<polygon fill="midnightblue" stroke="midnightblue" points="100.94,-138.92 108.59,-131.59 98.04,-132.55 100.94,-138.92"/>
</g>
<!-- Node15&#45;&gt;Node16 -->
<g id="edge24" class="edge">
<title>Node15&#45;&gt;Node16</title>
<path fill="none" stroke="midnightblue" d="M444.67,-403.32C462.39,-394.62 489.9,-381.12 510.29,-371.11"/>
<polygon fill="midnightblue" stroke="midnightblue" points="511.94,-374.2 519.37,-366.65 508.85,-367.92 511.94,-374.2"/>
</g>
<!-- Node16&#45;&gt;Node7 -->
<g id="edge25" class="edge">
<title>Node16&#45;&gt;Node7</title>
<path fill="none" stroke="midnightblue" d="M570.13,-347.39C591.93,-340.4 620.02,-328.77 640,-311 665.01,-288.76 678,-279.46 678,-246 678,-246 678,-246 678,-182.5 678,-133.11 624.55,-97.88 589.59,-80.13"/>
<polygon fill="midnightblue" stroke="midnightblue" points="590.81,-76.82 580.28,-75.58 587.74,-83.12 590.81,-76.82"/>
</g>
</g>
</svg>
