<?xml version="1.0" encoding="UTF-8" standalone="no"?>
<!DOCTYPE svg PUBLIC "-//W3C//DTD SVG 1.1//EN"
 "http://www.w3.org/Graphics/SVG/1.1/DTD/svg11.dtd">
<!-- Generated by graphviz version 3.0.0 (20221109.1736)
 -->
<!-- Title: TTL_import_export.h Pages: 1 -->
<svg width="793pt" height="431pt"
 viewBox="0.00 0.00 792.77 431.00" xmlns="http://www.w3.org/2000/svg" xmlns:xlink="http://www.w3.org/1999/xlink">
<g id="graph0" class="graph" transform="scale(1 1) rotate(0) translate(4 427)">
<title>TTL_import_export.h</title>
<polygon fill="white" stroke="transparent" points="-4,4 -4,-427 788.77,-427 788.77,4 -4,4"/>
<!-- Node1 -->
<g id="node1" class="node">
<title>Node1</title>
<g id="a_node1"><a xlink:title=" ">
<polygon fill="#bfbfbf" stroke="black" points="489.27,-403.5 489.27,-422.5 595.27,-422.5 595.27,-403.5 489.27,-403.5"/>
<text text-anchor="middle" x="542.27" y="-410.5" font-family="Helvetica,sans-Serif" font-size="10.00">TTL_import_export.h</text>
</a>
</g>
</g>
<!-- Node2 -->
<g id="node2" class="node">
<title>Node2</title>
<g id="a_node2"><a xlink:href="TTL__core_8h.html" target="_top" xlink:title=" ">
<polygon fill="white" stroke="black" points="509.27,-347.5 509.27,-366.5 575.27,-366.5 575.27,-347.5 509.27,-347.5"/>
<text text-anchor="middle" x="542.27" y="-354.5" font-family="Helvetica,sans-Serif" font-size="10.00">TTL_core.h</text>
</a>
</g>
</g>
<!-- Node1&#45;&gt;Node2 -->
<g id="edge1" class="edge">
<title>Node1&#45;&gt;Node2</title>
<path fill="none" stroke="midnightblue" d="M542.27,-403.08C542.27,-396.01 542.27,-385.86 542.27,-376.99"/>
<polygon fill="midnightblue" stroke="midnightblue" points="545.77,-376.75 542.27,-366.75 538.77,-376.75 545.77,-376.75"/>
</g>
<!-- Node10 -->
<g id="node10" class="node">
<title>Node10</title>
<g id="a_node10"><a xlink:href="TTL__create__types_8h.html" target="_top" xlink:title=" ">
<polygon fill="white" stroke="black" points="116.27,-112.5 116.27,-131.5 226.27,-131.5 226.27,-112.5 116.27,-112.5"/>
<text text-anchor="middle" x="171.27" y="-119.5" font-family="Helvetica,sans-Serif" font-size="10.00">../TTL_create_types.h</text>
</a>
</g>
</g>
<!-- Node1&#45;&gt;Node10 -->
<g id="edge24" class="edge">
<title>Node1&#45;&gt;Node10</title>
<path fill="none" stroke="midnightblue" d="M488.91,-412.35C352.43,-411.82 1.27,-400.84 1.27,-302 1.27,-302 1.27,-302 1.27,-244 1.27,-209.18 -3.8,-193.16 20.27,-168 42.52,-144.73 76.23,-133.35 106.15,-127.84"/>
<polygon fill="midnightblue" stroke="midnightblue" points="106.84,-131.27 116.13,-126.19 105.7,-124.37 106.84,-131.27"/>
</g>
<!-- Node15 -->
<g id="node15" class="node">
<title>Node15</title>
<g id="a_node15"><a xlink:href="opencl_2TTL__import__export_8h.html" target="_top" xlink:title=" ">
<polygon fill="white" stroke="black" points="647.77,-347.5 647.77,-366.5 784.77,-366.5 784.77,-347.5 647.77,-347.5"/>
<text text-anchor="middle" x="716.27" y="-354.5" font-family="Helvetica,sans-Serif" font-size="10.00">opencl/TTL_import_export.h</text>
</a>
</g>
</g>
<!-- Node1&#45;&gt;Node15 -->
<g id="edge22" class="edge">
<title>Node1&#45;&gt;Node15</title>
<path fill="none" stroke="midnightblue" d="M569.84,-403.44C599.36,-394.28 646.38,-379.69 679.15,-369.52"/>
<polygon fill="midnightblue" stroke="midnightblue" points="680.31,-372.82 688.82,-366.52 678.24,-366.14 680.31,-372.82"/>
</g>
<!-- Node3 -->
<g id="node3" class="node">
<title>Node3</title>
<g id="a_node3"><a xlink:title=" ">
<polygon fill="white" stroke="#bfbfbf" points="608.27,-291.5 608.27,-310.5 742.27,-310.5 742.27,-291.5 608.27,-291.5"/>
<text text-anchor="middle" x="675.27" y="-298.5" font-family="Helvetica,sans-Serif" font-size="10.00">TTL_TYPES_INCLUDE_H</text>
</a>
</g>
</g>
<!-- Node2&#45;&gt;Node3 -->
<g id="edge2" class="edge">
<title>Node2&#45;&gt;Node3</title>
<path fill="none" stroke="midnightblue" d="M563.34,-347.44C585.33,-338.52 620,-324.44 644.93,-314.32"/>
<polygon fill="midnightblue" stroke="midnightblue" points="646.34,-317.52 654.29,-310.52 643.71,-311.04 646.34,-317.52"/>
</g>
<!-- Node4 -->
<g id="node4" class="node">
<title>Node4</title>
<g id="a_node4"><a xlink:href="TTL__debug_8h.html" target="_top" xlink:title=" ">
<polygon fill="white" stroke="black" points="440.27,-291.5 440.27,-310.5 514.27,-310.5 514.27,-291.5 440.27,-291.5"/>
<text text-anchor="middle" x="477.27" y="-298.5" font-family="Helvetica,sans-Serif" font-size="10.00">TTL_debug.h</text>
</a>
</g>
</g>
<!-- Node2&#45;&gt;Node4 -->
<g id="edge3" class="edge">
<title>Node2&#45;&gt;Node4</title>
<path fill="none" stroke="midnightblue" d="M531.82,-347.32C522.12,-339.26 507.45,-327.08 495.77,-317.37"/>
<polygon fill="midnightblue" stroke="midnightblue" points="497.83,-314.53 487.9,-310.83 493.35,-319.92 497.83,-314.53"/>
</g>
<!-- Node5 -->
<g id="node5" class="node">
<title>Node5</title>
<g id="a_node5"><a xlink:href="TTL__tensors_8h.html" target="_top" xlink:title=" ">
<polygon fill="white" stroke="black" points="318.27,-235.5 318.27,-254.5 398.27,-254.5 398.27,-235.5 318.27,-235.5"/>
<text text-anchor="middle" x="358.27" y="-242.5" font-family="Helvetica,sans-Serif" font-size="10.00">TTL_tensors.h</text>
</a>
</g>
</g>
<!-- Node2&#45;&gt;Node5 -->
<g id="edge19" class="edge">
<title>Node2&#45;&gt;Node5</title>
<path fill="none" stroke="midnightblue" d="M513.62,-347.41C490.42,-339.75 457.4,-327.25 431.27,-311 409.1,-297.22 387.22,-276.53 373.28,-262.21"/>
<polygon fill="midnightblue" stroke="midnightblue" points="375.48,-259.45 366.05,-254.62 370.41,-264.28 375.48,-259.45"/>
</g>
<!-- Node8 -->
<g id="node8" class="node">
<title>Node8</title>
<g id="a_node8"><a xlink:href="TTL__types_8h.html" target="_top" xlink:title=" ">
<polygon fill="white" stroke="black" points="484.27,-112.5 484.27,-131.5 562.27,-131.5 562.27,-112.5 484.27,-112.5"/>
<text text-anchor="middle" x="523.27" y="-119.5" font-family="Helvetica,sans-Serif" font-size="10.00">../TTL_types.h</text>
</a>
</g>
</g>
<!-- Node2&#45;&gt;Node8 -->
<g id="edge21" class="edge">
<title>Node2&#45;&gt;Node8</title>
<path fill="none" stroke="midnightblue" d="M541.57,-347.43C538.82,-313.75 528.73,-189.99 524.82,-142.1"/>
<polygon fill="midnightblue" stroke="midnightblue" points="528.29,-141.58 523.99,-131.9 521.32,-142.15 528.29,-141.58"/>
</g>
<!-- Node14 -->
<g id="node14" class="node">
<title>Node14</title>
<g id="a_node14"><a xlink:href="TTL__tiles_8h.html" target="_top" xlink:title=" ">
<polygon fill="white" stroke="black" points="570.77,-235.5 570.77,-254.5 635.77,-254.5 635.77,-235.5 570.77,-235.5"/>
<text text-anchor="middle" x="603.27" y="-242.5" font-family="Helvetica,sans-Serif" font-size="10.00">TTL_tiles.h</text>
</a>
</g>
</g>
<!-- Node2&#45;&gt;Node14 -->
<g id="edge20" class="edge">
<title>Node2&#45;&gt;Node14</title>
<path fill="none" stroke="midnightblue" d="M547.05,-347.37C557.03,-329.38 580.22,-287.55 593.49,-263.63"/>
<polygon fill="midnightblue" stroke="midnightblue" points="596.71,-265.03 598.5,-254.59 590.59,-261.64 596.71,-265.03"/>
</g>
<!-- Node4&#45;&gt;Node5 -->
<g id="edge4" class="edge">
<title>Node4&#45;&gt;Node5</title>
<path fill="none" stroke="midnightblue" d="M458.41,-291.44C439,-282.64 408.54,-268.81 386.3,-258.72"/>
<polygon fill="midnightblue" stroke="midnightblue" points="387.59,-255.46 377.03,-254.52 384.69,-261.84 387.59,-255.46"/>
</g>
<!-- Node4&#45;&gt;Node8 -->
<g id="edge18" class="edge">
<title>Node4&#45;&gt;Node8</title>
<path fill="none" stroke="midnightblue" d="M479.48,-291.46C486.54,-264.31 508.58,-179.51 518.43,-141.62"/>
<polygon fill="midnightblue" stroke="midnightblue" points="521.83,-142.43 520.96,-131.87 515.06,-140.67 521.83,-142.43"/>
</g>
<!-- Node4&#45;&gt;Node14 -->
<g id="edge16" class="edge">
<title>Node4&#45;&gt;Node14</title>
<path fill="none" stroke="midnightblue" d="M497.23,-291.44C517.88,-282.6 550.33,-268.69 573.9,-258.59"/>
<polygon fill="midnightblue" stroke="midnightblue" points="575.58,-261.67 583.39,-254.52 572.82,-255.24 575.58,-261.67"/>
</g>
<!-- Node6 -->
<g id="node6" class="node">
<title>Node6</title>
<g id="a_node6"><a xlink:href="TTL__tensors__common_8h.html" target="_top" xlink:title=" ">
<polygon fill="white" stroke="black" points="368.77,-168.5 368.77,-198.5 475.77,-198.5 475.77,-168.5 368.77,-168.5"/>
<text text-anchor="start" x="376.77" y="-186.5" font-family="Helvetica,sans-Serif" font-size="10.00">tensors/TTL_tensors</text>
<text text-anchor="middle" x="422.27" y="-175.5" font-family="Helvetica,sans-Serif" font-size="10.00">_common.h</text>
</a>
</g>
</g>
<!-- Node5&#45;&gt;Node6 -->
<g id="edge5" class="edge">
<title>Node5&#45;&gt;Node6</title>
<path fill="none" stroke="midnightblue" d="M367.44,-235.48C375.86,-227.64 388.69,-215.71 399.82,-205.37"/>
<polygon fill="midnightblue" stroke="midnightblue" points="402.24,-207.9 407.18,-198.52 397.48,-202.77 402.24,-207.9"/>
</g>
<!-- Node9 -->
<g id="node9" class="node">
<title>Node9</title>
<g id="a_node9"><a xlink:href="TTL__ext__tensors_8h.html" target="_top" xlink:title=" ">
<polygon fill="white" stroke="black" points="29.77,-174 29.77,-193 162.77,-193 162.77,-174 29.77,-174"/>
<text text-anchor="middle" x="96.27" y="-181" font-family="Helvetica,sans-Serif" font-size="10.00">tensors/TTL_ext_tensors.h</text>
</a>
</g>
</g>
<!-- Node5&#45;&gt;Node9 -->
<g id="edge9" class="edge">
<title>Node5&#45;&gt;Node9</title>
<path fill="none" stroke="midnightblue" d="M320.73,-235.48C274.03,-224.87 194.29,-206.76 143.49,-195.22"/>
<polygon fill="midnightblue" stroke="midnightblue" points="144.26,-191.81 133.73,-193.01 142.71,-198.64 144.26,-191.81"/>
</g>
<!-- Node5&#45;&gt;Node10 -->
<g id="edge15" class="edge">
<title>Node5&#45;&gt;Node10</title>
<path fill="none" stroke="midnightblue" d="M356.45,-235.3C352.71,-219.53 342.62,-186.16 321.27,-168 297.55,-147.84 265.04,-136.71 236.35,-130.57"/>
<polygon fill="midnightblue" stroke="midnightblue" points="236.87,-127.1 226.38,-128.59 235.51,-133.97 236.87,-127.1"/>
</g>
<!-- Node13 -->
<g id="node13" class="node">
<title>Node13</title>
<g id="a_node13"><a xlink:href="TTL__int__tensors_8h.html" target="_top" xlink:title=" ">
<polygon fill="white" stroke="black" points="180.77,-174 180.77,-193 311.77,-193 311.77,-174 180.77,-174"/>
<text text-anchor="middle" x="246.27" y="-181" font-family="Helvetica,sans-Serif" font-size="10.00">tensors/TTL_int_tensors.h</text>
</a>
</g>
</g>
<!-- Node5&#45;&gt;Node13 -->
<g id="edge13" class="edge">
<title>Node5&#45;&gt;Node13</title>
<path fill="none" stroke="midnightblue" d="M342.22,-235.48C323.67,-225.62 292.93,-209.29 271.24,-197.77"/>
<polygon fill="midnightblue" stroke="midnightblue" points="272.76,-194.61 262.28,-193.01 269.47,-200.79 272.76,-194.61"/>
</g>
<!-- Node7 -->
<g id="node7" class="node">
<title>Node7</title>
<g id="a_node7"><a xlink:href="TTL__macros_8h.html" target="_top" xlink:title=" ">
<polygon fill="white" stroke="black" points="479.77,-56.5 479.77,-75.5 566.77,-75.5 566.77,-56.5 479.77,-56.5"/>
<text text-anchor="middle" x="523.27" y="-63.5" font-family="Helvetica,sans-Serif" font-size="10.00">../TTL_macros.h</text>
</a>
</g>
</g>
<!-- Node6&#45;&gt;Node7 -->
<g id="edge6" class="edge">
<title>Node6&#45;&gt;Node7</title>
<path fill="none" stroke="midnightblue" d="M431.76,-168.43C441.88,-153.79 458.7,-130.47 475.27,-112 484.59,-101.61 495.95,-90.88 505.27,-82.51"/>
<polygon fill="midnightblue" stroke="midnightblue" points="507.67,-85.07 512.85,-75.83 503.03,-79.82 507.67,-85.07"/>
</g>
<!-- Node6&#45;&gt;Node8 -->
<g id="edge7" class="edge">
<title>Node6&#45;&gt;Node8</title>
<path fill="none" stroke="midnightblue" d="M446.2,-168.4C462.39,-158.86 483.67,-146.32 499.77,-136.84"/>
<polygon fill="midnightblue" stroke="midnightblue" points="501.73,-139.75 508.57,-131.66 498.18,-133.72 501.73,-139.75"/>
</g>
<!-- Node8&#45;&gt;Node7 -->
<g id="edge8" class="edge">
<title>Node8&#45;&gt;Node7</title>
<path fill="none" stroke="midnightblue" d="M523.27,-112.08C523.27,-105.01 523.27,-94.86 523.27,-85.99"/>
<polygon fill="midnightblue" stroke="midnightblue" points="526.77,-85.75 523.27,-75.75 519.77,-85.75 526.77,-85.75"/>
</g>
<!-- Node9&#45;&gt;Node10 -->
<g id="edge10" class="edge">
<title>Node9&#45;&gt;Node10</title>
<path fill="none" stroke="midnightblue" d="M107.01,-173.98C118.82,-164.61 138.01,-149.38 152.35,-138.01"/>
<polygon fill="midnightblue" stroke="midnightblue" points="154.88,-140.47 160.54,-131.51 150.53,-134.98 154.88,-140.47"/>
</g>
<!-- Node11 -->
<g id="node11" class="node">
<title>Node11</title>
<g id="a_node11"><a xlink:href="TTL__create__type_8h.html" target="_top" xlink:title=" ">
<polygon fill="white" stroke="black" points="122.27,-56.5 122.27,-75.5 220.27,-75.5 220.27,-56.5 122.27,-56.5"/>
<text text-anchor="middle" x="171.27" y="-63.5" font-family="Helvetica,sans-Serif" font-size="10.00">TTL_create_type.h</text>
</a>
</g>
</g>
<!-- Node10&#45;&gt;Node11 -->
<g id="edge11" class="edge">
<title>Node10&#45;&gt;Node11</title>
<path fill="none" stroke="midnightblue" d="M171.27,-112.08C171.27,-105.01 171.27,-94.86 171.27,-85.99"/>
<polygon fill="midnightblue" stroke="midnightblue" points="174.77,-85.75 171.27,-75.75 167.77,-85.75 174.77,-85.75"/>
</g>
<!-- Node12 -->
<g id="node12" class="node">
<title>Node12</title>
<g id="a_node12"><a xlink:title=" ">
<polygon fill="white" stroke="#bfbfbf" points="97.77,-0.5 97.77,-19.5 244.77,-19.5 244.77,-0.5 97.77,-0.5"/>
<text text-anchor="middle" x="171.27" y="-7.5" font-family="Helvetica,sans-Serif" font-size="10.00">TTL_TYPES_INCLUDE_FILE</text>
</a>
</g>
</g>
<!-- Node11&#45;&gt;Node12 -->
<g id="edge12" class="edge">
<title>Node11&#45;&gt;Node12</title>
<path fill="none" stroke="midnightblue" d="M171.27,-56.08C171.27,-49.01 171.27,-38.86 171.27,-29.99"/>
<polygon fill="midnightblue" stroke="midnightblue" points="174.77,-29.75 171.27,-19.75 167.77,-29.75 174.77,-29.75"/>
</g>
<!-- Node13&#45;&gt;Node10 -->
<g id="edge14" class="edge">
<title>Node13&#45;&gt;Node10</title>
<path fill="none" stroke="midnightblue" d="M235.52,-173.98C223.71,-164.61 204.52,-149.38 190.18,-138.01"/>
<polygon fill="midnightblue" stroke="midnightblue" points="192,-134.98 181.99,-131.51 187.65,-140.47 192,-134.98"/>
</g>
<!-- Node14&#45;&gt;Node8 -->
<g id="edge17" class="edge">
<title>Node14&#45;&gt;Node8</title>
<path fill="none" stroke="midnightblue" d="M598.26,-235.43C589.9,-221.2 572.4,-191.92 556.27,-168 549.9,-158.56 542.43,-148.31 536.2,-139.97"/>
<polygon fill="midnightblue" stroke="midnightblue" points="538.87,-137.69 530.05,-131.82 533.28,-141.91 538.87,-137.69"/>
</g>
<!-- Node15&#45;&gt;Node7 -->
<g id="edge23" class="edge">
<title>Node15&#45;&gt;Node7</title>
<path fill="none" stroke="midnightblue" d="M724.6,-347.39C732.48,-338.8 744.15,-324.92 751.27,-311 764.97,-284.2 770.27,-276.1 770.27,-246 770.27,-246 770.27,-246 770.27,-182.5 770.27,-97.9 649.9,-75.13 577.21,-69.09"/>
<polygon fill="midnightblue" stroke="midnightblue" points="577.09,-65.57 566.86,-68.32 576.57,-72.55 577.09,-65.57"/>
</g>
</g>
</svg>
