<?xml version="1.0" encoding="UTF-8" standalone="no"?>
<!DOCTYPE svg PUBLIC "-//W3C//DTD SVG 1.1//EN"
 "http://www.w3.org/Graphics/SVG/1.1/DTD/svg11.dtd">
<!-- Generated by graphviz version 3.0.0 (20221109.1736)
 -->
<!-- Title: TTL_tensors.h Pages: 1 -->
<svg width="171pt" height="308pt"
 viewBox="0.00 0.00 171.00 308.00" xmlns="http://www.w3.org/2000/svg" xmlns:xlink="http://www.w3.org/1999/xlink">
<g id="graph0" class="graph" transform="scale(1 1) rotate(0) translate(4 304)">
<title>TTL_tensors.h</title>
<polygon fill="white" stroke="transparent" points="-4,4 -4,-304 167,-304 167,4 -4,4"/>
<!-- Node1 -->
<g id="node1" class="node">
<title>Node1</title>
<g id="a_node1"><a xlink:title=" ">
<polygon fill="#bfbfbf" stroke="black" points="53,-280.5 53,-299.5 133,-299.5 133,-280.5 53,-280.5"/>
<text text-anchor="middle" x="93" y="-287.5" font-family="Helvetica,sans-Serif" font-size="10.00">TTL_tensors.h</text>
</a>
</g>
</g>
<!-- Node2 -->
<g id="node2" class="node">
<title>Node2</title>
<g id="a_node2"><a xlink:href="TTL__core_8h.html" target="_top" xlink:title=" ">
<polygon fill="white" stroke="black" points="60,-168.5 60,-187.5 126,-187.5 126,-168.5 60,-168.5"/>
<text text-anchor="middle" x="93" y="-175.5" font-family="Helvetica,sans-Serif" font-size="10.00">TTL_core.h</text>
</a>
</g>
</g>
<!-- Node1&#45;&gt;Node2 -->
<g id="edge1" class="edge">
<title>Node1&#45;&gt;Node2</title>
<path fill="none" stroke="midnightblue" d="M85.94,-270.62C81.79,-257.66 77.76,-239.85 80,-224 81.82,-211.12 86.45,-196.76 89.66,-187.8"/>
<polygon fill="midnightblue" stroke="midnightblue" points="82.69,-271.95 89.32,-280.22 89.3,-269.63 82.69,-271.95"/>
</g>
<!-- Node6 -->
<g id="node6" class="node">
<title>Node6</title>
<g id="a_node6"><a xlink:href="TTL__debug_8h.html" target="_top" xlink:title=" ">
<polygon fill="white" stroke="black" points="89,-224.5 89,-243.5 163,-243.5 163,-224.5 89,-224.5"/>
<text text-anchor="middle" x="126" y="-231.5" font-family="Helvetica,sans-Serif" font-size="10.00">TTL_debug.h</text>
</a>
</g>
</g>
<!-- Node1&#45;&gt;Node6 -->
<g id="edge6" class="edge">
<title>Node1&#45;&gt;Node6</title>
<path fill="none" stroke="midnightblue" d="M103.83,-271.27C109.47,-262.05 116.12,-251.17 120.65,-243.75"/>
<polygon fill="midnightblue" stroke="midnightblue" points="100.68,-269.73 98.45,-280.08 106.65,-273.38 100.68,-269.73"/>
</g>
<!-- Node3 -->
<g id="node3" class="node">
<title>Node3</title>
<g id="a_node3"><a xlink:href="TTL__import__export_8h.html" target="_top" xlink:title=" ">
<polygon fill="white" stroke="black" points="0,-112.5 0,-131.5 106,-131.5 106,-112.5 0,-112.5"/>
<text text-anchor="middle" x="53" y="-119.5" font-family="Helvetica,sans-Serif" font-size="10.00">TTL_import_export.h</text>
</a>
</g>
</g>
<!-- Node2&#45;&gt;Node3 -->
<g id="edge2" class="edge">
<title>Node2&#45;&gt;Node3</title>
<path fill="none" stroke="midnightblue" d="M80.3,-159.86C73.37,-150.5 65.09,-139.33 59.48,-131.75"/>
<polygon fill="midnightblue" stroke="midnightblue" points="77.63,-162.13 86.39,-168.08 83.25,-157.96 77.63,-162.13"/>
</g>
<!-- Node4 -->
<g id="node4" class="node">
<title>Node4</title>
<g id="a_node4"><a xlink:href="TTL__pipeline__schemes_8h.html" target="_top" xlink:title=" ">
<polygon fill="white" stroke="black" points="30.5,-56.5 30.5,-75.5 155.5,-75.5 155.5,-56.5 30.5,-56.5"/>
<text text-anchor="middle" x="93" y="-63.5" font-family="Helvetica,sans-Serif" font-size="10.00">TTL_pipeline_schemes.h</text>
</a>
</g>
</g>
<!-- Node2&#45;&gt;Node4 -->
<g id="edge5" class="edge">
<title>Node2&#45;&gt;Node4</title>
<path fill="none" stroke="midnightblue" d="M103.76,-159.69C108.18,-151.59 112.77,-141.64 115,-132 119.78,-111.34 107.28,-87.99 99.21,-75.67"/>
<polygon fill="midnightblue" stroke="midnightblue" points="100.65,-158.08 98.64,-168.48 106.7,-161.6 100.65,-158.08"/>
</g>
<!-- Node3&#45;&gt;Node4 -->
<g id="edge3" class="edge">
<title>Node3&#45;&gt;Node4</title>
<path fill="none" stroke="midnightblue" d="M65.7,-103.86C72.63,-94.5 80.91,-83.33 86.52,-75.75"/>
<polygon fill="midnightblue" stroke="midnightblue" points="62.75,-101.96 59.61,-112.08 68.37,-106.13 62.75,-101.96"/>
</g>
<!-- Node5 -->
<g id="node5" class="node">
<title>Node5</title>
<g id="a_node5"><a xlink:href="TTL_8h.html" target="_top" xlink:title=" ">
<polygon fill="white" stroke="black" points="72,-0.5 72,-19.5 114,-19.5 114,-0.5 72,-0.5"/>
<text text-anchor="middle" x="93" y="-7.5" font-family="Helvetica,sans-Serif" font-size="10.00">TTL.h</text>
</a>
</g>
</g>
<!-- Node4&#45;&gt;Node5 -->
<g id="edge4" class="edge">
<title>Node4&#45;&gt;Node5</title>
<path fill="none" stroke="midnightblue" d="M93,-45.8C93,-36.91 93,-26.78 93,-19.75"/>
<polygon fill="midnightblue" stroke="midnightblue" points="89.5,-46.08 93,-56.08 96.5,-46.08 89.5,-46.08"/>
</g>
<!-- Node6&#45;&gt;Node2 -->
<g id="edge7" class="edge">
<title>Node6&#45;&gt;Node2</title>
<path fill="none" stroke="midnightblue" d="M115.17,-215.27C109.53,-206.05 102.88,-195.17 98.35,-187.75"/>
<polygon fill="midnightblue" stroke="midnightblue" points="112.35,-217.38 120.55,-224.08 118.32,-213.73 112.35,-217.38"/>
</g>
</g>
</svg>
